<?xml version="1.0" standalone="no"?>
<!DOCTYPE svg PUBLIC "-//W3C//DTD SVG 1.1//EN" "http://www.w3.org/Graphics/SVG/1.1/DTD/svg11.dtd" >
<svg xmlns="http://www.w3.org/2000/svg" xmlns:xlink="http://www.w3.org/1999/xlink" version="1.1">
<metadata></metadata>
<defs>
<font id="telefonica_sansthin" horiz-adv-x="2048" >
<font-face units-per-em="2048" ascent="1638" descent="-410" />
<missing-glyph horiz-adv-x="436" />
<glyph unicode="ff" horiz-adv-x="1046" d="M70 969v55h163v213q0 156 158 156h158v-56h-154q-51 0 -78.5 -27.5t-27.5 -78.5v-207h399v213q0 76 41 116t119 40h158v-56h-154q-51 0 -79 -27.5t-28 -78.5v-207h261v-55h-261v-969h-57v969h-399v-969h-56v969h-163z" />
<glyph unicode="fi" horiz-adv-x="923" d="M70 969v55h163v213q0 156 158 156h137v-56h-133q-51 0 -78.5 -27.5t-27.5 -78.5v-207h456v-1024h-57v969h-399v-969h-56v969h-163zM668 1358q0 20 14 34.5t35 14.5q20 0 35.5 -14.5t15.5 -34.5t-14.5 -35.5t-36.5 -15.5q-21 0 -35 15t-14 36z" />
<glyph unicode="fj" horiz-adv-x="923" d="M70 969v55h163v213q0 156 158 156h137v-56h-133q-51 0 -78.5 -27.5t-27.5 -78.5v-207h456v-1272q0 -80 -41.5 -121t-119.5 -41h-154v56h152q51 0 78.5 28.5t27.5 79.5v1215h-399v-969h-56v969h-163zM668 1358q0 20 14 34.5t35 14.5q20 0 35.5 -14.5t15.5 -34.5 t-14.5 -35.5t-36.5 -15.5q-21 0 -35 15t-14 36z" />
<glyph unicode="fl" horiz-adv-x="933" d="M70 969v55h163v213q0 156 158 156h354v-1393h-57v1337h-293q-51 0 -78.5 -27.5t-27.5 -78.5v-207h239v-55h-239v-969h-56v969h-163z" />
<glyph unicode="ffi" horiz-adv-x="1380" d="M70 969v55h163v213q0 156 158 156h158v-56h-154q-51 0 -78.5 -27.5t-27.5 -78.5v-207h399v213q0 76 41 116t119 40h137v-56h-133q-51 0 -79 -27.5t-28 -78.5v-207h457v-1024h-57v969h-400v-969h-57v969h-399v-969h-56v969h-163zM1124 1358q0 20 14.5 34.5t35.5 14.5 q20 0 34.5 -14.5t14.5 -34.5q0 -23 -14.5 -37t-34.5 -14q-21 0 -35.5 14t-14.5 37z" />
<glyph unicode="ffj" horiz-adv-x="1380" d="M70 969v55h163v213q0 156 158 156h158v-56h-154q-51 0 -78.5 -27.5t-27.5 -78.5v-207h399v213q0 76 41 116t119 40h137v-56h-133q-51 0 -79 -27.5t-28 -78.5v-207h457v-1272q0 -80 -42 -121t-120 -41h-153v56h149q53 0 81 27.5t28 80.5v1215h-400v-969h-57v969h-399v-969 h-56v969h-163zM1124 1358q0 20 14.5 34.5t35.5 14.5q20 0 34.5 -14.5t14.5 -34.5q0 -23 -14.5 -37t-34.5 -14q-21 0 -35.5 14t-14.5 37z" />
<glyph unicode="ffl" horiz-adv-x="1390" d="M70 969v55h163v213q0 156 158 156h158v-56h-154q-51 0 -78.5 -27.5t-27.5 -78.5v-207h399v213q0 76 41 116t119 40h354v-1393h-57v1337h-293q-51 0 -79 -27.5t-28 -78.5v-207h240v-55h-240v-969h-57v969h-399v-969h-56v969h-163z" />
<glyph horiz-adv-x="0" />
<glyph unicode="&#xd;" horiz-adv-x="0" />
<glyph unicode=" "  horiz-adv-x="436" />
<glyph unicode="&#x09;" horiz-adv-x="436" />
<glyph unicode="&#xa0;" horiz-adv-x="436" />
<glyph unicode="!" horiz-adv-x="497" d="M199 39q0 20 14 35.5t35 15.5q23 0 37 -14.5t14 -36.5q0 -20 -15.5 -34.5t-35.5 -14.5q-21 0 -35 14t-14 35zM219 700v734h60v-734l-5 -407h-51z" />
<glyph unicode="&#x22;" horiz-adv-x="606" d="M147 1057v377h58v-377h-58zM401 1057v377h58v-377h-58z" />
<glyph unicode="#" horiz-adv-x="1402" d="M39 432l14 55h338l101 467h-340l14 58h340l90 422h57l-92 -422h406l90 422h57l-90 -422h340l-14 -58h-338l-101 -467h340l-14 -55h-340l-90 -432h-57l92 432h-406l-90 -432h-57l90 432h-340zM449 487h405l100 467h-405z" />
<glyph unicode="$" horiz-adv-x="1232" d="M111 420h57q0 -109 54 -196t155.5 -137t238.5 -50q211 0 321 89t110 236q0 119 -76 200t-250 116l-215 41q-190 39 -277.5 122t-87.5 230q0 162 115 268.5t313 114.5v205h58v-205q143 -6 248.5 -65.5t162 -157.5t56.5 -217h-58q0 111 -53 197.5t-153.5 136t-233.5 49.5 q-188 0 -292.5 -90t-104.5 -236q0 -123 77.5 -193.5t237.5 -101.5l207 -41q383 -76 383 -373q0 -167 -124 -273.5t-353 -108.5v-205h-58v207q-139 8 -242.5 68.5t-159.5 156.5t-56 213z" />
<glyph unicode="%" horiz-adv-x="1548" d="M90 1137q0 90 40 162.5t109.5 113.5t151.5 41t150.5 -41t108.5 -113.5t40 -162.5t-40 -163t-108.5 -114t-150.5 -41t-151.5 41t-109.5 114t-40 163zM145 1137q0 -78 35 -138.5t91.5 -93.5t119.5 -33q64 0 120 33t90 93.5t34 138.5t-34 138t-90 93t-120 33 q-63 0 -119.5 -33t-91.5 -93.5t-35 -137.5zM299 0l891 1434h59l-891 -1434h-59zM858 297q0 90 40 162.5t109.5 113.5t151.5 41t150.5 -41t108.5 -113.5t40 -162.5t-40 -163t-108.5 -113.5t-150.5 -40.5t-151.5 40.5t-109.5 113.5t-40 163zM913 297q0 -78 35 -138.5t91.5 -93 t119.5 -32.5q64 0 120 32.5t90 93t34 138.5t-34 138.5t-90 93t-120 32.5q-63 0 -119.5 -32.5t-91.5 -93t-35 -138.5z" />
<glyph unicode="&#x26;" horiz-adv-x="1236" d="M119 313q0 102 52 183.5t153 156.5l116 86l-127 140q-66 70 -98.5 130t-32.5 142q0 94 47 162.5t125 104.5t170 36q150 0 246 -87t96 -226q0 -82 -45 -152.5t-133 -136.5l-164 -125l416 -453q68 88 97.5 186.5t29.5 215.5h57q0 -262 -143 -445l213 -231h-74l-178 188 q-57 -80 -174 -144t-254 -64q-188 0 -291.5 93t-103.5 240zM176 315q0 -119 88 -198.5t250 -79.5q125 0 227.5 58.5t157.5 135.5l-418 467l-106 -77q-102 -74 -150.5 -143.5t-48.5 -162.5zM240 1151q0 -78 28.5 -128t98.5 -124l116 -129l183 133q141 104 141 238 q0 111 -80 183.5t-203 72.5t-203.5 -66.5t-80.5 -179.5z" />
<glyph unicode="'" horiz-adv-x="352" d="M147 1057v377h58v-377h-58z" />
<glyph unicode="(" horiz-adv-x="636" d="M186 543q0 268 81 500.5t243 451.5h65q-168 -217 -249.5 -449.5t-81.5 -502.5t82 -503t249 -450h-65q-162 219 -243 451.5t-81 501.5z" />
<glyph unicode=")" horiz-adv-x="636" d="M59 -410q168 217 250 448.5t82 504.5q0 272 -82 503.5t-250 448.5h68q162 -219 242 -450.5t80 -501.5t-80 -501.5t-242 -451.5h-68z" />
<glyph unicode="*" horiz-adv-x="923" d="M90 1130l14 56l332 -113l-2 361h55v-361l330 113l15 -56l-330 -98l211 -280l-43 -39l-209 291l-209 -291l-43 39l211 280z" />
<glyph unicode="+" horiz-adv-x="1069" d="M111 565v58h395v424h57v-424h395v-58h-395v-424h-57v424h-395z" />
<glyph unicode="," horiz-adv-x="387" d="M111 -182l49 262h69l-73 -262h-45z" />
<glyph unicode="-" horiz-adv-x="858" d="M100 555v57h656v-57h-656z" />
<glyph unicode="." horiz-adv-x="395" d="M147 39q0 20 14.5 35.5t35.5 15.5q23 0 37 -14.5t14 -36.5q0 -20 -15.5 -34.5t-35.5 -14.5q-21 0 -35.5 14t-14.5 35z" />
<glyph unicode="/" horiz-adv-x="620" d="M0 -410l563 1905h58l-564 -1905h-57z" />
<glyph unicode="0" horiz-adv-x="1312" d="M139 717q0 223 65.5 390t182.5 257t270 90q152 0 269.5 -90t183.5 -257t66 -390t-66 -390t-183.5 -257t-269.5 -90q-153 0 -270 90t-182.5 257t-65.5 390zM197 717q0 -207 59 -361.5t163.5 -236.5t237.5 -82q134 0 238 82t162.5 236.5t58.5 361.5t-58.5 361.5 t-162.5 236.5t-238 82q-133 0 -237.5 -82t-163.5 -236.5t-59 -361.5z" />
<glyph unicode="1" horiz-adv-x="624" d="M59 1214v56h246q61 0 62 61v103h59v-1434h-59v1214h-308z" />
<glyph unicode="2" horiz-adv-x="1114" d="M145 993q0 131 52.5 236.5t144.5 165t209 59.5q119 0 211 -54t143 -151.5t51 -224.5q0 -119 -37.5 -205t-119.5 -174l-555 -577v-11h743v-57h-831v53l602 635q78 82 109.5 154.5t31.5 181.5q0 164 -96 268.5t-252 104.5q-100 0 -179 -53.5t-123 -145.5t-44 -205h-60z" />
<glyph unicode="3" horiz-adv-x="1107" d="M98 379h58q0 -96 49 -174t135 -123t195 -45t194.5 43t133.5 122t48 179q0 147 -102 232t-274 85h-93v58h93q166 0 261 90t95 227q0 90 -44 165t-125 117t-187 42q-104 0 -186.5 -45t-127.5 -122t-45 -165h-57q0 102 52 192.5t147.5 143.5t216.5 53t216 -50t147 -137 t52 -194q0 -244 -243 -342v-8q119 -37 191.5 -124t72.5 -218q0 -117 -55.5 -208t-154.5 -142t-226 -51t-226.5 53t-155 144t-55.5 202z" />
<glyph unicode="4" horiz-adv-x="1079" d="M76 371v53l590 1010h125v-1006h229v-57h-229v-371h-58v371h-657zM150 428h583v940h-41l-542 -930v-10z" />
<glyph unicode="5" horiz-adv-x="1148" d="M135 379h60q23 -160 133 -251t254 -91q111 0 198.5 49t139 141t51.5 217t-51.5 217.5t-139.5 141.5t-198 49q-98 0 -177 -34t-151 -107h-88l74 723h714v-58h-659l-66 -604h9q80 72 158.5 104.5t197.5 32.5q113 0 212 -56t160.5 -161.5t61.5 -247.5q0 -143 -58.5 -248.5 t-159.5 -160.5t-228 -55q-111 0 -207 47t-160.5 137t-79.5 215z" />
<glyph unicode="6" horiz-adv-x="1112" d="M100 434q0 172 99 322l442 678h68l-402 -621h6q61 37 118.5 55.5t137.5 18.5q115 0 217.5 -58.5t164 -162t61.5 -232.5q0 -131 -61.5 -234.5t-166 -161.5t-229.5 -58t-228.5 58t-165 161.5t-61.5 234.5zM158 434q0 -115 55 -206t146.5 -141t195.5 -50q107 0 198 50 t146 141t55 206t-55 206t-146 141t-198 50q-104 0 -195.5 -50t-146.5 -141t-55 -206z" />
<glyph unicode="7" horiz-adv-x="978" d="M78 1376v58h831v-37l-549 -1397h-63l541 1376h-760z" />
<glyph unicode="8" horiz-adv-x="1146" d="M137 371q0 133 78 226t201 136v8q-109 39 -178.5 126t-69.5 214q0 100 49 185.5t141.5 136.5t214.5 51q123 0 215.5 -51t141.5 -136t49 -186q0 -127 -69.5 -214t-178.5 -126v-8q123 -43 201 -136t78 -226q0 -102 -55.5 -192.5t-155 -144.5t-226.5 -54t-226 54t-154.5 144 t-55.5 193zM197 373q0 -90 49 -167t135 -123t192 -46q107 0 193 46t135 123t49 167t-49 166.5t-135 123t-193 46.5q-106 0 -192 -46.5t-135 -123t-49 -166.5zM227 1081q0 -137 93.5 -226t252.5 -89q160 0 253.5 89t93.5 226q0 86 -42 158t-121 115t-184 43q-104 0 -183 -43 t-121 -115t-42 -158z" />
<glyph unicode="9" horiz-adv-x="1112" d="M100 999q0 131 61.5 234.5t165 162t228.5 58.5t229.5 -58.5t166 -162t61.5 -234.5q0 -170 -99 -321l-442 -678h-68l402 621h-6q-61 -37 -118.5 -55.5t-137.5 -18.5q-115 0 -217.5 58.5t-164 161.5t-61.5 232zM158 999q0 -115 55 -206t146.5 -141t195.5 -50q107 0 198 50 t146 141.5t55 205.5q0 115 -55 206t-146 141.5t-198 50.5q-104 0 -195.5 -50.5t-146.5 -141.5t-55 -206z" />
<glyph unicode=":" horiz-adv-x="395" d="M147 39q0 20 14.5 35.5t35.5 15.5q23 0 37 -14.5t14 -36.5q0 -20 -15.5 -34.5t-35.5 -14.5q-21 0 -35.5 14t-14.5 35zM147 985q0 20 14.5 34.5t35.5 14.5q20 0 35.5 -14t15.5 -35q0 -20 -14.5 -35.5t-36.5 -15.5q-21 0 -35.5 15.5t-14.5 35.5z" />
<glyph unicode=";" horiz-adv-x="395" d="M111 -182l49 262h69l-73 -262h-45zM150 985q0 20 14 34.5t35 14.5q20 0 34.5 -14t14.5 -35q0 -23 -14.5 -37t-34.5 -14q-21 0 -35 14.5t-14 36.5z" />
<glyph unicode="&#x3c;" horiz-adv-x="1077" d="M121 565v58l819 352v-57l-760 -324l760 -324v-57z" />
<glyph unicode="=" horiz-adv-x="1075" d="M178 418v55h719v-55h-719zM178 715v55h719v-55h-719z" />
<glyph unicode="&#x3e;" horiz-adv-x="1077" d="M139 213v57l760 324l-760 324v57l817 -352v-58z" />
<glyph unicode="?" horiz-adv-x="1007" d="M78 1055q0 113 52 204t146.5 143t217.5 52q117 0 212 -53t149 -145.5t54 -202.5q0 -137 -60.5 -222.5t-184.5 -156.5q-84 -49 -118 -95.5t-34 -127.5v-123h-59v123q0 98 36.5 151t126.5 107q127 74 180.5 147.5t53.5 196.5q0 96 -47 175t-129 124t-180 45 q-102 0 -184.5 -45t-128.5 -123t-46 -174h-57zM432 39q0 23 15.5 37t35.5 14t34.5 -15.5t14.5 -35.5t-14 -34.5t-35 -14.5q-20 0 -35.5 14t-15.5 35z" />
<glyph unicode="@" horiz-adv-x="1859" d="M141 604q0 236 100.5 420t278.5 286.5t404 102.5q236 0 421 -101.5t289.5 -280.5t104.5 -406q0 -231 -83 -346t-212 -115q-92 0 -142.5 60.5t-56.5 133.5h-10q-39 -74 -128 -134t-204 -60q-113 0 -203 54t-140 151.5t-50 224.5t50 224t140.5 151.5t202.5 54.5 q111 0 197 -52t131 -141h10l10 173h47v-584q0 -102 38 -151.5t108 -49.5q106 0 171.5 97.5t65.5 308.5q0 213 -96 379.5t-268 260t-393 93.5q-211 0 -376 -94.5t-258 -266.5t-93 -393q0 -227 95 -393t261 -253t371 -87h403v-55h-403q-221 0 -399.5 95t-281 274.5 t-102.5 418.5zM567 594q0 -170 93.5 -272.5t242.5 -102.5q150 0 244 102.5t94 272.5t-94 272.5t-244 102.5t-243 -102.5t-93 -272.5z" />
<glyph unicode="A" horiz-adv-x="1261" d="M35 0l543 1434h106l543 -1434h-62l-159 422h-752l-160 -422h-59zM276 479h709l-338 895h-33z" />
<glyph unicode="B" horiz-adv-x="1302" d="M199 0v1434h544q113 0 202 -49.5t138.5 -135.5t49.5 -188q0 -125 -67 -212t-157 -122v-10q100 -25 172 -116t72 -228q0 -166 -105.5 -269.5t-283.5 -103.5h-565zM258 57h506q150 0 240 87t90 229q0 141 -90.5 228t-239.5 87h-506v-631zM258 745h485q98 0 173 43t116 115 t41 158q0 88 -42 159.5t-117.5 113.5t-170.5 42h-485v-631z" />
<glyph unicode="C" horiz-adv-x="1513" d="M129 717q0 215 87 383t237.5 261t334.5 93q223 0 389 -129t228 -352h-59q-59 199 -208 311.5t-350 112.5q-166 0 -303 -85t-218 -241t-81 -354q0 -199 81 -354.5t218.5 -240.5t302.5 -85q203 0 350.5 113.5t207.5 320.5h59q-61 -229 -226 -360t-391 -131 q-184 0 -334.5 93t-237.5 261t-87 383z" />
<glyph unicode="D" horiz-adv-x="1425" d="M199 0v1434h411q195 0 351.5 -88.5t245.5 -251t89 -377.5t-89 -378t-245.5 -251t-351.5 -88h-411zM258 57h352q176 0 318.5 81t225.5 230.5t83 348.5t-83 348t-225.5 230t-318.5 81h-352v-1319z" />
<glyph unicode="E" horiz-adv-x="1216" d="M199 0v1434h868v-58h-809v-620h768v-58h-768v-641h809v-57h-868z" />
<glyph unicode="F" horiz-adv-x="1165" d="M199 0v1434h848v-58h-789v-631h748v-57h-748v-688h-59z" />
<glyph unicode="G" horiz-adv-x="1558" d="M129 717q0 215 86 383t235.5 261t329.5 93q205 0 369 -120t231 -330h-61q-66 186 -213.5 289.5t-325.5 103.5q-166 0 -301 -85t-214 -239.5t-79 -355.5t79 -355.5t214 -239.5t301 -85q139 0 267.5 69.5t206 187.5t77.5 257v104h-500v56h560v-711h-48l-10 301h-10 q-96 -164 -241.5 -242.5t-301.5 -78.5q-180 0 -329.5 93t-235.5 261t-86 383z" />
<glyph unicode="H" horiz-adv-x="1454" d="M199 0v1434h59v-670h938v670h59v-1434h-59v707h-938v-707h-59z" />
<glyph unicode="I" horiz-adv-x="456" d="M199 0v1434h59v-1434h-59z" />
<glyph unicode="J" horiz-adv-x="788" d="M39 0v57h373q59 0 94 38t35 100v1239h59v-1241q0 -88 -50 -140.5t-134 -52.5h-377z" />
<glyph unicode="K" horiz-adv-x="1067" d="M199 0v1434h59v-684l729 684h80l-758 -709l799 -725h-82l-768 700v-700h-59z" />
<glyph unicode="L" horiz-adv-x="1085" d="M199 0v1434h59v-1377h768v-57h-827z" />
<glyph unicode="M" horiz-adv-x="1808" d="M199 0v1434h139l545 -1373h41l546 1373h140v-1434h-60v1368h-41l-544 -1368h-123l-543 1368h-41v-1368h-59z" />
<glyph unicode="N" horiz-adv-x="1454" d="M199 0v1434h127l829 -1371h41v1371h59v-1434h-127l-829 1370h-41v-1370h-59z" />
<glyph unicode="O" horiz-adv-x="1558" d="M129 717q0 215 86 383t235.5 261t329.5 93t328.5 -93t236 -261t87.5 -383t-87.5 -383t-235.5 -261t-329 -93q-180 0 -329.5 93t-235.5 261t-86 383zM186 717q0 -201 79 -355.5t214 -239.5t301 -85q164 0 299 85t214 239.5t79 355.5t-79 355.5t-214 239.5t-299 85 q-166 0 -301 -85t-214 -239.5t-79 -355.5z" />
<glyph unicode="P" horiz-adv-x="1292" d="M199 0v1434h546q123 0 218.5 -51.5t147.5 -145.5t52 -217t-52 -217t-147.5 -145.5t-218.5 -51.5h-487v-606h-59zM258 664h487q160 0 259.5 97t99.5 259t-99.5 259t-259.5 97h-487v-712z" />
<glyph unicode="Q" horiz-adv-x="1558" d="M129 717q0 215 86 383t235.5 261t329.5 93t328.5 -93t236 -261t87.5 -383q0 -174 -56.5 -317.5t-158.5 -241.5l188 -178h-82l-149 139q-82 -68 -183.5 -103.5t-210.5 -35.5q-180 0 -329.5 93t-235.5 261t-86 383zM186 717q0 -201 79 -355.5t214 -239.5t301 -85 q201 0 353 123l-383 372h81l345 -335q92 92 144 225t52 295q0 201 -79 355.5t-214 239.5t-299 85q-166 0 -301 -85t-214 -239.5t-79 -355.5z" />
<glyph unicode="R" horiz-adv-x="1292" d="M199 0v1434h546q123 0 218.5 -51.5t147.5 -145.5t52 -217t-52 -217t-147.5 -145.5t-218.5 -51.5h-186l635 -606h-82l-635 606h-219v-606h-59zM258 664h487q160 0 259.5 97t99.5 259t-99.5 259t-259.5 97h-487v-712z" />
<glyph unicode="S" horiz-adv-x="1232" d="M111 420h57q0 -109 54 -196t155.5 -137t238.5 -50q211 0 321 89t110 236q0 119 -76 200t-250 116l-215 41q-190 39 -277.5 122t-87.5 230q0 109 54.5 196t157 137t243.5 50q152 0 264.5 -58.5t173 -158.5t60.5 -223h-58q0 111 -53 197.5t-153.5 136t-233.5 49.5 q-188 0 -292.5 -90t-104.5 -236q0 -123 77.5 -193.5t237.5 -101.5l207 -41q383 -76 383 -373q0 -111 -55.5 -197.5t-166 -135.5t-266.5 -49q-151 0 -265.5 58t-177 158.5t-62.5 223.5z" />
<glyph unicode="T" horiz-adv-x="1189" d="M51 1376v58h1088v-58h-514v-1376h-60v1376h-514z" />
<glyph unicode="U" horiz-adv-x="1413" d="M178 563v871h60v-871q0 -156 62 -275.5t170 -185t237 -65.5t236.5 65.5t170 185.5t62.5 275v871h59v-871q0 -174 -70.5 -306t-191.5 -204.5t-266 -72.5q-146 0 -267 72.5t-191.5 204.5t-70.5 306z" />
<glyph unicode="V" horiz-adv-x="1243" d="M47 1434h62l491 -1375h43l492 1375h61l-512 -1434h-123z" />
<glyph unicode="W" horiz-adv-x="1830" d="M57 1434h60l342 -1375h41l354 1375h123l354 -1375h41l342 1375h60l-359 -1434h-127l-352 1364h-41l-352 -1364h-127z" />
<glyph unicode="X" horiz-adv-x="1234" d="M47 0l502 737l-471 697h67l447 -660h51l447 660h67l-471 -697l502 -737h-70l-475 700h-51l-475 -700h-70z" />
<glyph unicode="Y" horiz-adv-x="1189" d="M35 1434h65l475 -811h41l474 811h65l-530 -910v-524h-60v524z" />
<glyph unicode="Z" horiz-adv-x="1159" d="M98 0v53l881 1323h-870v58h944v-54l-881 -1323h891v-57h-965z" />
<glyph unicode="[" horiz-adv-x="645" d="M217 -410v1905h375v-55h-318v-1794h318v-56h-375z" />
<glyph unicode="\" horiz-adv-x="620" d="M0 1495h57l564 -1905h-58z" />
<glyph unicode="]" horiz-adv-x="645" d="M53 -354h318v1794h-318v55h375v-1905h-375v56z" />
<glyph unicode="^" horiz-adv-x="811" d="M147 881l226 553h65l226 -553h-56l-196 495h-11l-198 -495h-56z" />
<glyph unicode="_" horiz-adv-x="684" d="M-41 -205h766v-55h-766v55z" />
<glyph unicode="`" horiz-adv-x="352" d="M61 1462h70l160 -235h-55z" />
<glyph unicode="a" horiz-adv-x="1067" d="M129 279q0 141 97.5 222t277.5 81h338v82q0 154 -82 239.5t-225 85.5t-226.5 -73.5t-91.5 -188.5h-57q8 137 105 227t270 90q168 0 266 -99t98 -281v-664h-47l-10 211h-13q-53 -115 -151 -173t-225 -58q-144 0 -234 80.5t-90 218.5zM186 279q0 -115 73 -179.5t194 -64.5 q127 0 215 58.5t131 156.5t43 217v57h-338q-152 0 -235 -64.5t-83 -180.5z" />
<glyph unicode="b" horiz-adv-x="1179" d="M188 0v1434h58v-641h10q138 251 379 251h2q125 0 226.5 -65.5t159.5 -186t58 -280.5t-58 -280.5t-159.5 -186t-226.5 -65.5h-2q-241 0 -379 251h-10l-13 -231h-45zM246 512q0 -143 54 -251.5t143 -167t192 -58.5q104 0 193.5 58.5t142.5 167t53 251.5t-53 251.5 t-142.5 167t-193.5 58.5q-102 0 -191.5 -58.5t-143.5 -167t-54 -251.5z" />
<glyph unicode="c" horiz-adv-x="1069" d="M100 512q0 158 60.5 279.5t165 187t229.5 65.5q158 0 272.5 -94t153.5 -254h-57q-37 137 -138.5 215t-230.5 78q-111 0 -202 -59.5t-144 -168t-53 -249.5t53 -249.5t144 -168t202 -59.5q131 0 231.5 80t137.5 223h57q-39 -168 -153.5 -263t-272.5 -95q-125 0 -229.5 65.5 t-165 187t-60.5 279.5z" />
<glyph unicode="d" horiz-adv-x="1179" d="M100 512q0 160 58.5 280.5t160 186t226.5 65.5q240 0 379 -251h10v641h57v-1434h-45l-12 231h-10q-138 -251 -377 -251h-2q-125 0 -226.5 65.5t-160 186t-58.5 280.5zM156 512q0 -143 53 -251.5t142 -167t194 -58.5q102 0 191 58.5t143.5 167t54.5 251.5t-54.5 251.5 t-143.5 167t-191 58.5q-104 0 -193.5 -58.5t-142.5 -167t-53 -251.5z" />
<glyph unicode="e" horiz-adv-x="1107" d="M100 512q0 156 61.5 276.5t168 188t235.5 67.5q125 0 227.5 -64.5t160 -177t57.5 -249.5l-2 -70h-852q6 -133 61 -235.5t147.5 -157.5t200.5 -55q121 0 216.5 65.5t138.5 186.5h59q-47 -145 -156.5 -226t-257.5 -81q-129 0 -235.5 67.5t-168 188t-61.5 276.5zM156 541 h796q0 133 -51 234.5t-139 157.5t-195 56q-111 0 -202 -56t-147 -157.5t-62 -234.5z" />
<glyph unicode="f" horiz-adv-x="591" d="M70 969v55h163v213q0 156 158 156h158v-56h-154q-51 0 -78.5 -27.5t-27.5 -78.5v-207h260v-55h-260v-969h-56v969h-163z" />
<glyph unicode="g" horiz-adv-x="1169" d="M100 543q0 145 58.5 260t160 178t226.5 63q123 0 224 -65.5t155 -183.5h10l12 229h45v-1024q0 -199 -114.5 -314.5t-311.5 -115.5q-129 0 -223 49t-144.5 129t-56.5 170h56q6 -76 51 -142.5t126 -108.5t191 -42q170 0 269.5 101.5t99.5 273.5v289h-10 q-53 -119 -154.5 -183.5t-224.5 -64.5q-125 0 -226.5 63.5t-160 178t-58.5 260.5zM156 543q0 -131 51 -232.5t140 -158t198 -56.5q110 0 198 56.5t139.5 158t51.5 232.5t-51.5 232.5t-139.5 157.5t-198 56q-109 0 -198 -56t-140 -157.5t-51 -232.5z" />
<glyph unicode="h" horiz-adv-x="1169" d="M188 0v1434h58v-603h10q41 82 134 147.5t216 65.5q174 0 283.5 -114.5t109.5 -315.5v-614h-57v614q0 111 -43 196t-120 132t-175 47t-180 -49t-130 -135t-48 -191v-614h-58z" />
<glyph unicode="i" horiz-adv-x="413" d="M157 1358q0 20 14.5 34.5t34.5 14.5t36 -14.5t16 -34.5t-15.5 -35.5t-36.5 -15.5q-20 0 -34.5 15t-14.5 36zM178 0v1024h58v-1024h-58z" />
<glyph unicode="j" horiz-adv-x="413" d="M-80 -354h154q51 0 77.5 27.5t26.5 78.5v1272h58v-1278q0 -156 -158 -156h-158v56zM157 1358q0 20 14.5 34.5t34.5 14.5t36 -14.5t16 -34.5t-15.5 -35.5t-36.5 -15.5q-20 0 -34.5 15t-14.5 36z" />
<glyph unicode="k" horiz-adv-x="948" d="M188 0v1434h58v-887l583 477h80l-612 -502l633 -522h-80l-604 498v-498h-58z" />
<glyph unicode="l" horiz-adv-x="434" d="M188 0v1434h58v-1434h-58z" />
<glyph unicode="m" horiz-adv-x="1712" d="M178 0v1024h45l13 -166h10q49 90 128 138t173 48q125 0 207 -68.5t108 -166.5h10q45 113 131.5 174t196.5 61q154 0 249 -106.5t95 -292.5v-645h-57v645q0 162 -81 253t-208 91q-84 0 -154.5 -45t-112.5 -124t-42 -175v-645h-58v645q0 162 -80.5 253t-205.5 91 q-82 0 -154 -46t-113.5 -125t-41.5 -173v-645h-58z" />
<glyph unicode="n" horiz-adv-x="1159" d="M178 0v1024h45l13 -193h10q41 82 134 147.5t216 65.5q174 0 283.5 -114.5t109.5 -315.5v-614h-57v614q0 111 -43 196t-120 132t-175 47t-180 -49t-130 -135t-48 -191v-614h-58z" />
<glyph unicode="o" horiz-adv-x="1112" d="M100 512q0 158 60.5 279.5t165 187t229.5 65.5q127 0 231.5 -65.5t165 -187t60.5 -279.5t-60.5 -279.5t-165 -187t-231.5 -65.5q-125 0 -229.5 65.5t-165 187t-60.5 279.5zM156 512q0 -141 53 -249.5t144 -168t202 -59.5t202 59.5t144 168t53 249.5t-53 249.5t-144 168 t-202 59.5t-202 -59.5t-144 -168t-53 -249.5z" />
<glyph unicode="p" horiz-adv-x="1169" d="M178 -410v1434h45l13 -231h10q138 251 379 251h2q125 0 226 -65.5t159.5 -186t58.5 -280.5t-58.5 -280.5t-159.5 -186t-226 -65.5q-242 0 -381 251h-10v-641h-58zM236 512q0 -143 54 -251.5t143 -167t192 -58.5q104 0 193 58.5t142.5 167t53.5 251.5t-53.5 251.5 t-142.5 167t-193 58.5q-102 0 -191.5 -58.5t-143.5 -167t-54 -251.5z" />
<glyph unicode="q" horiz-adv-x="1169" d="M100 512q0 160 58.5 280.5t160 186t226.5 65.5q240 0 379 -251h10l12 231h45v-1434h-57v641h-10q-138 -251 -377 -251h-2q-125 0 -226.5 65.5t-160 186t-58.5 280.5zM156 512q0 -143 53 -251.5t142 -167t194 -58.5q102 0 191 58.5t143.5 167t54.5 251.5t-54.5 251.5 t-143.5 167t-191 58.5q-104 0 -193.5 -58.5t-142.5 -167t-53 -251.5z" />
<glyph unicode="r" horiz-adv-x="677" d="M178 0v1024h45l13 -102h10q35 57 81 79.5t113 22.5h217v-55h-215q-98 0 -152 -61.5t-54 -164.5v-743h-58z" />
<glyph unicode="s" horiz-adv-x="933" d="M88 297h57q0 -70 39 -129t111 -96t168 -37q143 0 225 62.5t82 160.5q0 88 -56.5 143.5t-162.5 71.5l-182 31q-129 23 -194.5 86t-65.5 176q0 121 92 199.5t252 78.5q106 0 189 -43t129 -115.5t46 -158.5h-57q0 113 -85 187.5t-222 74.5t-212 -62.5t-75 -160.5 q0 -84 49 -135t160 -70l180 -31q139 -25 205.5 -92t66.5 -180q0 -121 -96 -199.5t-268 -78.5q-111 0 -197 43t-132 115.5t-46 158.5z" />
<glyph unicode="t" horiz-adv-x="669" d="M70 969v55h163v287h56v-287h280v-55h-280v-807q0 -51 27.5 -79t78.5 -28h174v-55h-178q-158 0 -158 156v813h-163z" />
<glyph unicode="u" horiz-adv-x="1159" d="M170 410v614h57v-614q0 -168 94.5 -271.5t243.5 -103.5q98 0 180 49t130.5 135t48.5 191v614h57v-1024h-47l-10 193h-11q-41 -82 -134 -147.5t-218 -65.5q-112 0 -201.5 51t-139.5 148t-50 231z" />
<glyph unicode="v" horiz-adv-x="970" d="M39 1024h59l373 -965h31l370 965h62l-395 -1024h-107z" />
<glyph unicode="w" horiz-adv-x="1425" d="M49 1024h60l249 -965h41l252 965h123l252 -965h41l250 965h59l-268 -1024h-125l-250 961h-41l-250 -961h-125z" />
<glyph unicode="x" horiz-adv-x="894" d="M39 0l338 522l-328 502h68l303 -469h53l305 469h70l-330 -502l340 -522h-70l-313 489h-53l-316 -489h-67z" />
<glyph unicode="y" horiz-adv-x="917" d="M39 1024h59l351 -938h38l332 938h60l-469 -1317q-25 -68 -63 -92.5t-105 -24.5h-117v56h115q53 0 77.5 21.5t44.5 74.5l76 215z" />
<glyph unicode="z" horiz-adv-x="845" d="M70 0v45l622 924h-612v55h686v-45l-625 -924h635v-55h-706z" />
<glyph unicode="{" horiz-adv-x="636" d="M147 487v111q80 0 120 41t40 117v567q0 172 172 172h94v-53h-90q-66 0 -92 -26.5t-26 -92.5v-567q0 -96 -51.5 -144.5t-112.5 -48.5v-41q61 0 112.5 -48t51.5 -144v-568q0 -66 26.5 -92t91.5 -26h90v-54h-94q-172 0 -172 172v568q0 76 -40 116.5t-120 40.5z" />
<glyph unicode="|" horiz-adv-x="548" d="M246 -410v1905h57v-1905h-57z" />
<glyph unicode="}" horiz-adv-x="636" d="M63 -356h91q66 0 92 26.5t26 91.5v568q0 96 51.5 144t112.5 48v41q-61 0 -112.5 48t-51.5 145v567q0 66 -26.5 92.5t-91.5 26.5h-91v53h93q174 0 174 -172v-567q0 -76 40 -117t119 -41v-111q-80 0 -119.5 -40.5t-39.5 -116.5v-568q0 -172 -174 -172h-93v54z" />
<glyph unicode="~" horiz-adv-x="1122" d="M111 426q0 125 64.5 200.5t178.5 75.5q63 0 111.5 -29.5t114.5 -88.5q57 -53 97 -79t91 -26q92 0 139 59.5t47 161.5h58q0 -125 -64.5 -200.5t-179.5 -75.5q-63 0 -111.5 29.5t-113.5 89.5q-57 53 -97 78.5t-92 25.5q-92 0 -140 -59.5t-48 -161.5h-55z" />
<glyph unicode="&#xa1;" horiz-adv-x="497" d="M199 985q0 20 14 34.5t35 14.5q20 0 35.5 -14t15.5 -35q0 -20 -14.5 -35.5t-36.5 -15.5q-20 0 -34.5 15.5t-14.5 35.5zM219 324l4 407h51l5 -407v-734h-60v734z" />
<glyph unicode="&#xa2;" horiz-adv-x="1069" d="M100 512q0 150 55.5 267.5t153 187t217.5 75.5v207h58v-207q145 -10 251.5 -102t145.5 -244h-57q-37 137 -138.5 215t-230.5 78q-111 0 -202 -59.5t-144 -168t-53 -249.5t53 -249.5t144 -168t202 -59.5q131 0 231.5 80t137.5 223h57q-39 -158 -144.5 -252t-252.5 -104 v-207h-58v207q-121 6 -218 75.5t-152.5 187t-55.5 267.5z" />
<glyph unicode="&#xa3;" horiz-adv-x="1189" d="M98 0v57h52q115 0 114 123v477h-166v58h166v319q0 121 49 217.5t141.5 149.5t213.5 53q123 0 217 -52t146 -143.5t52 -203.5h-59q0 94 -44 172t-125 124t-187 46q-158 0 -252 -102.5t-94 -260.5v-319h460v-58h-460v-477q0 -47 -12.5 -74.5t-41.5 -48.5h846v-57h-1016z " />
<glyph unicode="&#xa4;" horiz-adv-x="1134" d="M172 360l111 123q-33 33 -58.5 96.5t-25.5 137.5t25.5 137.5t58.5 95.5l-111 123l43 39l107 -119q39 35 105.5 63.5t139.5 28.5q76 0 141.5 -28.5t104.5 -63.5l107 119l43 -39l-109 -123q31 -33 56.5 -96t25.5 -137t-25.5 -137.5t-56.5 -96.5l109 -123l-43 -38l-107 118 q-39 -35 -104.5 -63.5t-141.5 -28.5q-74 0 -140.5 29t-104.5 63l-107 -118zM254 717q0 -86 42 -158t113.5 -114t157.5 -42t158 42t114 114t42 158t-42 157.5t-114 113.5t-158 42t-157.5 -42t-113.5 -113.5t-42 -157.5z" />
<glyph unicode="&#xa5;" horiz-adv-x="1153" d="M39 1434h63l451 -785h47l449 785h65l-450 -785h342v-55h-400v-252h400v-55h-400v-287h-59v287h-402v55h402v252h-402v55h344z" />
<glyph unicode="&#xa6;" horiz-adv-x="548" d="M246 348h57v-758h-57v758zM246 737v758h57v-758h-57z" />
<glyph unicode="&#xa7;" horiz-adv-x="1234" d="M152 625q0 76 42 144.5t115 119.5q-117 84 -116 233q0 94 50 170t143 119t220 43q137 0 238.5 -56.5t155 -152.5t53.5 -211h-58q0 156 -100 259.5t-289 103.5q-162 0 -259 -78t-97 -197q0 -94 59.5 -158.5t214.5 -95.5l205 -41q184 -37 269 -114.5t85 -200.5 q0 -86 -35.5 -154.5t-103.5 -130.5q45 -37 77 -94t32 -141q0 -166 -120 -253t-306 -87q-142 0 -244 53t-156.5 148.5t-54.5 218.5h57q0 -160 104.5 -261.5t293.5 -101.5q162 0 265 73t103 210q0 106 -73.5 178t-212.5 98l-205 41q-182 37 -267 111t-85 205zM209 625 q0 -104 74.5 -166t220.5 -92l205 -41q125 -25 190 -68q66 57 96.5 115.5t30.5 138.5q0 199 -297 258l-205 41q-74 14 -107.5 24.5t-62.5 24.5q-145 -100 -145 -235z" />
<glyph unicode="&#xa9;" horiz-adv-x="1720" d="M141 717q0 209 95.5 378t260.5 264t363 95q199 0 364 -95t260 -264t95 -378t-95 -378t-260 -264t-364 -95q-198 0 -363 95t-260.5 264t-95.5 378zM197 717q0 -190 90 -347t241.5 -247t331.5 -90t331.5 90t242 246.5t90.5 347.5q0 190 -90.5 347t-242 247t-331.5 90 t-331.5 -90t-241.5 -247t-90 -347zM520 717q0 111 46 200t126 139t178 50q119 0 201 -64.5t119 -191.5h-53q-57 203 -267 203q-129 0 -213 -92.5t-84 -243.5q0 -152 84 -244t213 -92q102 0 170 54t97 159h53q-31 -123 -117 -194.5t-203 -71.5q-102 0 -182 50t-124 139 t-44 200z" />
<glyph unicode="&#xaa;" horiz-adv-x="667" d="M80 985q0 90 62.5 142.5t166.5 52.5h207v47q0 80 -50 128t-126 48q-72 0 -121 -39t-65 -104h-54q14 90 79 142t161 52q98 0 162.5 -65.5t64.5 -161.5v-418h-37l-12 109h-10q-76 -119 -211 -119q-94 0 -155.5 51t-61.5 135zM133 985q0 -61 48 -98t118 -37 q102 0 159.5 69.5t57.5 184.5v26h-207q-78 0 -127 -36.5t-49 -108.5z" />
<glyph unicode="&#xab;" horiz-adv-x="890" d="M127 512l270 373h66l-268 -373l268 -373h-66zM426 512l270 373h66l-268 -373l268 -373h-66z" />
<glyph unicode="&#xac;" horiz-adv-x="1067" d="M152 692v56h743v-410h-57v354h-686z" />
<glyph unicode="&#xad;" horiz-adv-x="858" d="M100 555v57h656v-57h-656z" />
<glyph unicode="&#xae;" horiz-adv-x="1720" d="M141 717q0 209 95.5 378t260.5 264t363 95q199 0 364 -95t260 -264t95 -378t-95 -378t-260 -264t-364 -95t-363.5 95t-260 264t-95.5 378zM197 717q0 -190 90 -347t241.5 -247t331.5 -90t331.5 90t242 246.5t90.5 347.5q0 190 -90.5 347t-242 247t-331.5 90t-331.5 -90 t-241.5 -247t-90 -347zM592 338v768h311q123 0 194.5 -67.5t71.5 -170.5q0 -106 -70.5 -172.5t-193.5 -66.5h-6l291 -291h-72l-291 291h-180v-291h-55zM647 682h256q104 0 157.5 51t53.5 135t-53 134.5t-158 50.5h-256v-371z" />
<glyph unicode="&#xaf;" horiz-adv-x="661" d="M61 1288v51h539v-51h-539z" />
<glyph unicode="&#xb0;" horiz-adv-x="792" d="M147 1188q0 115 71 190.5t179 75.5q106 0 177 -75.5t71 -190.5t-70.5 -190.5t-177.5 -75.5q-108 0 -179 75.5t-71 190.5zM201 1188q0 -94 54 -153.5t142 -59.5t141.5 59.5t53.5 153.5t-53.5 153.5t-141.5 59.5t-142 -59.5t-54 -153.5z" />
<glyph unicode="&#xb1;" horiz-adv-x="1069" d="M111 709v57h395v422h57v-422h395v-57h-395v-422h-57v422h-395zM113 0v55h843v-55h-843z" />
<glyph unicode="&#xb2;" horiz-adv-x="667" d="M111 1413q0 106 63.5 171t165.5 65q98 0 157.5 -57.5t59.5 -149.5q0 -63 -24.5 -109.5t-77.5 -105.5l-246 -264v-11h358v-51h-446v41l297 324q47 53 66.5 90t19.5 86q0 68 -43 111.5t-121 43.5q-76 0 -126 -49t-50 -135h-53z" />
<glyph unicode="&#xb3;" horiz-adv-x="651" d="M92 1106h53q0 -72 48.5 -118t125.5 -46q82 0 129.5 42t47.5 114q0 74 -47.5 115.5t-129.5 41.5h-61v52h61q72 0 119 37.5t47 107.5t-45 107.5t-121 37.5q-78 0 -120.5 -43t-42.5 -110h-54q0 86 59.5 145.5t157.5 59.5t160 -53.5t62 -143.5q0 -51 -29 -95t-84 -67v-10 q55 -23 88 -70t33 -112q0 -92 -63.5 -149.5t-166.5 -57.5q-98 0 -162.5 61.5t-64.5 153.5z" />
<glyph unicode="&#xb4;" horiz-adv-x="352" d="M61 1227l160 235h70l-174 -235h-56z" />
<glyph unicode="&#xb5;" horiz-adv-x="1167" d="M178 -410v1434h58v-614q0 -111 43 -196t119.5 -132t174.5 -47t180.5 49t130.5 135t48 191v614h57v-1024h-45l-12 193h-10q-37 -82 -132.5 -147.5t-218.5 -65.5q-131 0 -220 64.5t-115 143.5v-598h-58z" />
<glyph unicode="&#xb6;" horiz-adv-x="970" d="M127 1104q0 96 41 171t111.5 117t158.5 42h332v-1639h-55v1583h-221v-1583h-56v977q-88 0 -158.5 42t-111.5 118t-41 172z" />
<glyph unicode="&#xb7;" horiz-adv-x="436" d="M167 543q0 20 14.5 35.5t35.5 15.5q23 0 37 -14.5t14 -36.5q0 -20 -15.5 -34.5t-35.5 -14.5q-21 0 -35.5 14t-14.5 35z" />
<glyph unicode="&#xb8;" horiz-adv-x="358" d="M61 -334h55q63 0 95 25.5t32 72.5t-31.5 73t-95.5 26h-24v37l57 114l45 -14l-49 -100q72 -2 112 -41t40 -97q0 -66 -44.5 -105.5t-132.5 -39.5h-59v49z" />
<glyph unicode="&#xb9;" horiz-adv-x="514" d="M80 1468v52h147q61 0 62 61v57h53v-737h-53v567h-209z" />
<glyph unicode="&#xba;" horiz-adv-x="739" d="M90 1126q0 145 78 236.5t203 91.5q123 0 200.5 -91t77.5 -237q0 -145 -77.5 -236t-200.5 -91q-125 0 -203 91t-78 236zM143 1126q0 -125 66.5 -200.5t161.5 -75.5q92 0 158.5 75.5t66.5 200.5t-66.5 201t-158.5 76q-94 0 -161 -76t-67 -201z" />
<glyph unicode="&#xbb;" horiz-adv-x="890" d="M127 139l270 373l-270 373h68l268 -373l-268 -373h-68zM426 139l270 373l-270 373h68l268 -373l-268 -373h-68z" />
<glyph unicode="&#xbc;" horiz-adv-x="1282" d="M80 1263v52h147q61 0 62 61v57h53v-737h-53v567h-209zM127 0l891 1434h57l-891 -1434h-57zM700 180v49l295 508h96v-505h121v-52h-121v-180h-53v180h-338zM768 232h270v446h-20l-250 -436v-10z" />
<glyph unicode="&#xbd;" horiz-adv-x="1355" d="M80 1263v52h147q61 0 62 61v57h53v-737h-53v567h-209zM127 0l891 1434h57l-891 -1434h-57zM799 512q0 106 63.5 171t165.5 65q98 0 157.5 -57.5t59.5 -149.5q0 -63 -24.5 -109.5t-77.5 -105.5l-246 -264v-11h358v-51h-446v41l297 324q47 53 66.5 90t19.5 86 q0 68 -43 111.5t-121 43.5q-76 0 -126 -49t-50 -135h-53z" />
<glyph unicode="&#xbe;" horiz-adv-x="1419" d="M92 901h53q0 -72 48.5 -118t125.5 -46q82 0 129.5 42t47.5 114q0 74 -47.5 115.5t-129.5 41.5h-61v52h61q72 0 119 37.5t47 107.5t-45 107.5t-121 37.5q-78 0 -120.5 -43t-42.5 -110h-54q0 86 59.5 145.5t157.5 59.5t160 -53.5t62 -143.5q0 -51 -29 -95t-84 -67v-10 q55 -23 88 -70t33 -112q0 -92 -63.5 -149.5t-166.5 -57.5q-98 0 -162.5 61.5t-64.5 153.5zM264 0l891 1434h57l-891 -1434h-57zM837 180v49l295 508h96v-505h121v-52h-121v-180h-53v180h-338zM905 232h270v446h-20l-250 -436v-10z" />
<glyph unicode="&#xbf;" horiz-adv-x="1007" d="M100 -29q0 137 60.5 222.5t183.5 156.5q84 49 118 95.5t34 127.5v123h59v-123q0 -98 -37 -151t-127 -107q-127 -74 -180 -147.5t-53 -196.5q0 -96 47 -175t129 -124t180 -45q104 0 185 45t127 123t46 174h58q0 -113 -52.5 -204t-146.5 -143t-217 -52q-117 0 -212 53 t-148.5 145.5t-53.5 202.5zM475 985q0 20 14.5 34.5t34.5 14.5q21 0 36 -14t15 -35q0 -20 -14 -35.5t-37 -15.5q-20 0 -34.5 15.5t-14.5 35.5z" />
<glyph unicode="&#xc0;" horiz-adv-x="1261" d="M35 0l543 1434h106l543 -1434h-62l-159 422h-752l-160 -422h-59zM276 479h709l-338 895h-33zM428 1837h70l160 -233h-56z" />
<glyph unicode="&#xc1;" horiz-adv-x="1261" d="M35 0l543 1434h106l543 -1434h-62l-159 422h-752l-160 -422h-59zM276 479h709l-338 895h-33zM602 1604l160 233h70l-175 -233h-55z" />
<glyph unicode="&#xc2;" horiz-adv-x="1261" d="M35 0l543 1434h106l543 -1434h-62l-159 422h-752l-160 -422h-59zM276 479h709l-338 895h-33zM375 1604l227 231h57l228 -231h-68l-188 192l-189 -192h-67z" />
<glyph unicode="&#xc3;" horiz-adv-x="1261" d="M35 0l543 1434h106l543 -1434h-62l-159 422h-752l-160 -422h-59zM276 479h709l-338 895h-33zM348 1645q0 78 44 124t118 46q39 0 68.5 -16.5t66.5 -47.5q31 -27 55.5 -41t53.5 -14q55 0 81.5 31.5t26.5 87.5h52q0 -78 -44.5 -124t-115.5 -46q-39 0 -67.5 15t-69.5 48 q-31 27 -55.5 41t-51.5 14q-55 0 -81.5 -31.5t-26.5 -86.5h-54z" />
<glyph unicode="&#xc4;" horiz-adv-x="1261" d="M35 0l543 1434h106l543 -1434h-62l-159 422h-752l-160 -422h-59zM276 479h709l-338 895h-33zM405 1755q0 20 14.5 35.5t34.5 15.5t35.5 -14t15.5 -37q0 -20 -15 -34.5t-36 -14.5q-20 0 -34.5 14.5t-14.5 34.5zM755 1755q0 23 14.5 37t34.5 14t35 -14t15 -37 q0 -20 -14.5 -34.5t-35.5 -14.5q-20 0 -34.5 14.5t-14.5 34.5z" />
<glyph unicode="&#xc5;" horiz-adv-x="1261" d="M35 0l543 1434h106l543 -1434h-62l-159 422h-752l-160 -422h-59zM276 479h709l-338 895h-33zM463 1749q0 70 48 119t118 49t119 -48t49 -120q0 -70 -49.5 -118t-118.5 -48q-70 0 -118 48t-48 118zM512 1749q0 -51 33.5 -84t83.5 -33q51 0 84.5 33t33.5 84t-33.5 84 t-84.5 33q-49 0 -83 -33t-34 -84z" />
<glyph unicode="&#xc6;" horiz-adv-x="1894" d="M-2 0l625 1434h1124v-58h-811v-620h770v-58h-770v-641h811v-57h-868v438h-629l-191 -438h-61zM272 494h607v882h-224z" />
<glyph unicode="&#xc7;" horiz-adv-x="1513" d="M129 717q0 215 87 383t237.5 261t334.5 93q223 0 389 -129t228 -352h-59q-59 199 -208 311.5t-350 112.5q-166 0 -303 -85t-218 -241t-81 -354q0 -199 81 -354.5t218.5 -240.5t302.5 -85q203 0 350.5 113.5t207.5 320.5h59q-59 -223 -218 -353t-376 -138l-39 -80 q72 -2 112 -41t40 -97q0 -66 -44 -105.5t-132 -39.5h-60v49h55q63 0 95 25.5t32 72.5t-31.5 73t-95.5 26h-24v37l41 80q-178 8 -321.5 103t-226.5 260t-83 374z" />
<glyph unicode="&#xc8;" horiz-adv-x="1216" d="M199 0v1434h868v-58h-809v-620h768v-58h-768v-641h809v-57h-868zM446 1837h70l160 -233h-56z" />
<glyph unicode="&#xc9;" horiz-adv-x="1216" d="M199 0v1434h868v-58h-809v-620h768v-58h-768v-641h809v-57h-868zM620 1604l160 233h70l-175 -233h-55z" />
<glyph unicode="&#xca;" horiz-adv-x="1216" d="M199 0v1434h868v-58h-809v-620h768v-58h-768v-641h809v-57h-868zM394 1604l227 231h57l228 -231h-68l-188 192l-189 -192h-67z" />
<glyph unicode="&#xcb;" horiz-adv-x="1216" d="M199 0v1434h868v-58h-809v-620h768v-58h-768v-641h809v-57h-868zM424 1755q0 20 14.5 35.5t34.5 15.5t35.5 -14t15.5 -37q0 -20 -15 -34.5t-36 -14.5q-20 0 -34.5 14.5t-14.5 34.5zM774 1755q0 23 14.5 37t34.5 14t35 -14t15 -37q0 -20 -14.5 -34.5t-35.5 -14.5 q-20 0 -34.5 14.5t-14.5 34.5z" />
<glyph unicode="&#xcc;" horiz-adv-x="456" d="M26 1837h70l160 -233h-56zM199 0v1434h59v-1434h-59z" />
<glyph unicode="&#xcd;" horiz-adv-x="456" d="M199 0v1434h59v-1434h-59zM201 1604l160 233h70l-175 -233h-55z" />
<glyph unicode="&#xce;" horiz-adv-x="456" d="M-28 1604l227 231h57l228 -231h-68l-188 192l-189 -192h-67zM199 0v1434h59v-1434h-59z" />
<glyph unicode="&#xcf;" horiz-adv-x="456" d="M4 1755q0 20 14.5 35.5t34.5 15.5t35.5 -14t15.5 -37q0 -20 -15 -34.5t-36 -14.5q-20 0 -34.5 14.5t-14.5 34.5zM199 0v1434h59v-1434h-59zM354 1755q0 23 14.5 37t34.5 14t35 -14t15 -37q0 -20 -14.5 -34.5t-35.5 -14.5q-20 0 -34.5 14.5t-14.5 34.5z" />
<glyph unicode="&#xd0;" horiz-adv-x="1488" d="M51 688v57h213v689h410q195 0 351.5 -88.5t245.5 -251t89 -377.5t-89 -378t-246 -251t-351 -88h-410v688h-213zM322 57h352q176 0 319.5 81t226.5 230.5t83 348.5t-83 348t-226.5 230t-319.5 81h-352v-631h432v-57h-432v-631z" />
<glyph unicode="&#xd1;" horiz-adv-x="1454" d="M199 0v1434h127l829 -1371h41v1371h59v-1434h-127l-829 1370h-41v-1370h-59zM444 1645q0 78 44 124t118 46q39 0 68.5 -16.5t66.5 -47.5q31 -27 55.5 -41t53.5 -14q55 0 81.5 31.5t26.5 87.5h52q0 -78 -44.5 -124t-115.5 -46q-39 0 -67.5 15t-69.5 48q-31 27 -55.5 41 t-51.5 14q-55 0 -81.5 -31.5t-26.5 -86.5h-54z" />
<glyph unicode="&#xd2;" horiz-adv-x="1558" d="M129 717q0 215 86 383t235.5 261t329.5 93t328.5 -93t236 -261t87.5 -383t-87.5 -383t-235.5 -261t-329 -93q-180 0 -329.5 93t-235.5 261t-86 383zM186 717q0 -201 79 -355.5t214 -239.5t301 -85q164 0 299 85t214 239.5t79 355.5t-79 355.5t-214 239.5t-299 85 q-166 0 -301 -85t-214 -239.5t-79 -355.5zM577 1837h70l160 -233h-56z" />
<glyph unicode="&#xd3;" horiz-adv-x="1558" d="M129 717q0 215 86 383t235.5 261t329.5 93t328.5 -93t236 -261t87.5 -383t-87.5 -383t-235.5 -261t-329 -93q-180 0 -329.5 93t-235.5 261t-86 383zM186 717q0 -201 79 -355.5t214 -239.5t301 -85q164 0 299 85t214 239.5t79 355.5t-79 355.5t-214 239.5t-299 85 q-166 0 -301 -85t-214 -239.5t-79 -355.5zM751 1604l160 233h70l-175 -233h-55z" />
<glyph unicode="&#xd4;" horiz-adv-x="1558" d="M129 717q0 215 86 383t235.5 261t329.5 93t328.5 -93t236 -261t87.5 -383t-87.5 -383t-235.5 -261t-329 -93q-180 0 -329.5 93t-235.5 261t-86 383zM186 717q0 -201 79 -355.5t214 -239.5t301 -85q164 0 299 85t214 239.5t79 355.5t-79 355.5t-214 239.5t-299 85 q-166 0 -301 -85t-214 -239.5t-79 -355.5zM525 1604l227 231h57l228 -231h-68l-188 192l-189 -192h-67z" />
<glyph unicode="&#xd5;" horiz-adv-x="1558" d="M129 717q0 215 86 383t235.5 261t329.5 93t328.5 -93t236 -261t87.5 -383t-87.5 -383t-235.5 -261t-329 -93q-180 0 -329.5 93t-235.5 261t-86 383zM186 717q0 -201 79 -355.5t214 -239.5t301 -85q164 0 299 85t214 239.5t79 355.5t-79 355.5t-214 239.5t-299 85 q-166 0 -301 -85t-214 -239.5t-79 -355.5zM497 1645q0 78 44 124t118 46q39 0 68.5 -16.5t66.5 -47.5q31 -27 55.5 -41t53.5 -14q55 0 81.5 31.5t26.5 87.5h52q0 -78 -44.5 -124t-115.5 -46q-39 0 -67.5 15t-69.5 48q-31 27 -55.5 41t-51.5 14q-55 0 -81.5 -31.5 t-26.5 -86.5h-54z" />
<glyph unicode="&#xd6;" horiz-adv-x="1558" d="M129 717q0 215 86 383t235.5 261t329.5 93t328.5 -93t236 -261t87.5 -383t-87.5 -383t-235.5 -261t-329 -93q-180 0 -329.5 93t-235.5 261t-86 383zM186 717q0 -201 79 -355.5t214 -239.5t301 -85q164 0 299 85t214 239.5t79 355.5t-79 355.5t-214 239.5t-299 85 q-166 0 -301 -85t-214 -239.5t-79 -355.5zM555 1755q0 20 14.5 35.5t34.5 15.5t35.5 -14t15.5 -37q0 -20 -15 -34.5t-36 -14.5q-20 0 -34.5 14.5t-14.5 34.5zM905 1755q0 23 14.5 37t34.5 14t35 -14t15 -37q0 -20 -14.5 -34.5t-35.5 -14.5q-20 0 -34.5 14.5t-14.5 34.5z" />
<glyph unicode="&#xd7;" horiz-adv-x="1067" d="M180 291l314 313l-314 314l41 40l314 -313l313 313l41 -40l-314 -314l314 -313l-41 -41l-313 313l-314 -313z" />
<glyph unicode="&#xd8;" horiz-adv-x="1558" d="M129 717q0 215 86 383t235.5 261t329.5 93q172 0 316 -86l73 137h60l-88 -166q135 -96 213 -257.5t78 -364.5q0 -215 -87.5 -383t-235.5 -261t-329 -93q-170 0 -317 86l-72 -138h-61l88 166q-133 96 -211 258t-78 365zM186 717q0 -187 69 -335.5t189 -236.5l625 1174 q-133 78 -289 78q-166 0 -301 -85t-214 -239.5t-79 -355.5zM489 115q131 -78 291 -78q164 0 299 85t214 239.5t79 355.5q0 186 -68.5 334.5t-189.5 236.5z" />
<glyph unicode="&#xd9;" horiz-adv-x="1413" d="M178 563v871h60v-871q0 -156 62 -275.5t170 -185t237 -65.5t236.5 65.5t170 185.5t62.5 275v871h59v-871q0 -174 -70.5 -306t-191.5 -204.5t-266 -72.5q-146 0 -267 72.5t-191.5 204.5t-70.5 306zM504 1837h70l160 -233h-56z" />
<glyph unicode="&#xda;" horiz-adv-x="1413" d="M178 563v871h60v-871q0 -156 62 -275.5t170 -185t237 -65.5t236.5 65.5t170 185.5t62.5 275v871h59v-871q0 -174 -70.5 -306t-191.5 -204.5t-266 -72.5q-146 0 -267 72.5t-191.5 204.5t-70.5 306zM678 1604l160 233h70l-175 -233h-55z" />
<glyph unicode="&#xdb;" horiz-adv-x="1413" d="M178 563v871h60v-871q0 -156 62 -275.5t170 -185t237 -65.5t236.5 65.5t170 185.5t62.5 275v871h59v-871q0 -174 -70.5 -306t-191.5 -204.5t-266 -72.5q-146 0 -267 72.5t-191.5 204.5t-70.5 306zM451 1604l227 231h57l228 -231h-68l-188 192l-189 -192h-67z" />
<glyph unicode="&#xdc;" horiz-adv-x="1413" d="M178 563v871h60v-871q0 -156 62 -275.5t170 -185t237 -65.5t236.5 65.5t170 185.5t62.5 275v871h59v-871q0 -174 -70.5 -306t-191.5 -204.5t-266 -72.5q-146 0 -267 72.5t-191.5 204.5t-70.5 306zM481 1755q0 20 14.5 35.5t34.5 15.5t35.5 -14t15.5 -37q0 -20 -15 -34.5 t-36 -14.5q-20 0 -34.5 14.5t-14.5 34.5zM831 1755q0 23 14.5 37t34.5 14t35 -14t15 -37q0 -20 -14.5 -34.5t-35.5 -14.5q-20 0 -34.5 14.5t-14.5 34.5z" />
<glyph unicode="&#xdd;" horiz-adv-x="1189" d="M35 1434h65l475 -811h41l474 811h65l-530 -910v-524h-60v524zM567 1604l160 233h70l-175 -233h-55z" />
<glyph unicode="&#xde;" horiz-adv-x="1388" d="M199 0v1434h59v-361h655q104 0 187.5 -44t130.5 -125t47 -187t-47 -187t-130 -125.5t-188 -44.5h-655v-360h-59zM258 418h655q135 0 221.5 83t86.5 216t-86 216t-222 83h-655v-598z" />
<glyph unicode="&#xdf;" horiz-adv-x="1099" d="M170 0v1055q0 119 50 210t137 140t198 49q117 0 207 -49t139 -134t49 -190q0 -123 -65.5 -214t-173.5 -122v-10q121 -25 205.5 -122t84.5 -232q0 -170 -117.5 -275.5t-318.5 -105.5h-63v55h63q172 0 275.5 89t103.5 237q0 147 -105.5 237.5t-273.5 90.5h-63v55h63 q152 0 240 90t88 227q0 90 -42 162t-119 114t-177 42q-94 0 -169 -43t-117 -122t-42 -179v-1055h-57z" />
<glyph unicode="&#xe0;" horiz-adv-x="1067" d="M129 279q0 141 97.5 222t277.5 81h338v82q0 154 -82 239.5t-225 85.5t-226.5 -73.5t-91.5 -188.5h-57q8 137 105 227t270 90q168 0 266 -99t98 -281v-664h-47l-10 211h-13q-53 -115 -151 -173t-225 -58q-144 0 -234 80.5t-90 218.5zM186 279q0 -115 73 -179.5t194 -64.5 q127 0 215 58.5t131 156.5t43 217v57h-338q-152 0 -235 -64.5t-83 -180.5zM342 1440h70l160 -234h-56z" />
<glyph unicode="&#xe1;" horiz-adv-x="1067" d="M129 279q0 141 97.5 222t277.5 81h338v82q0 154 -82 239.5t-225 85.5t-226.5 -73.5t-91.5 -188.5h-57q8 137 105 227t270 90q168 0 266 -99t98 -281v-664h-47l-10 211h-13q-53 -115 -151 -173t-225 -58q-144 0 -234 80.5t-90 218.5zM186 279q0 -115 73 -179.5t194 -64.5 q127 0 215 58.5t131 156.5t43 217v57h-338q-152 0 -235 -64.5t-83 -180.5zM506 1206l160 234h70l-175 -234h-55z" />
<glyph unicode="&#xe2;" horiz-adv-x="1067" d="M129 279q0 141 97.5 222t277.5 81h338v82q0 154 -82 239.5t-225 85.5t-226.5 -73.5t-91.5 -188.5h-57q8 137 105 227t270 90q168 0 266 -99t98 -281v-664h-47l-10 211h-13q-53 -115 -151 -173t-225 -58q-144 0 -234 80.5t-90 218.5zM186 279q0 -115 73 -179.5t194 -64.5 q127 0 215 58.5t131 156.5t43 217v57h-338q-152 0 -235 -64.5t-83 -180.5zM279 1206l227 232h57l228 -232h-68l-188 193l-189 -193h-67z" />
<glyph unicode="&#xe3;" horiz-adv-x="1067" d="M129 279q0 141 97.5 222t277.5 81h338v82q0 154 -82 239.5t-225 85.5t-226.5 -73.5t-91.5 -188.5h-57q8 137 105 227t270 90q168 0 266 -99t98 -281v-664h-47l-10 211h-13q-53 -115 -151 -173t-225 -58q-144 0 -234 80.5t-90 218.5zM186 279q0 -115 73 -179.5t194 -64.5 q127 0 215 58.5t131 156.5t43 217v57h-338q-152 0 -235 -64.5t-83 -180.5zM252 1247q0 78 44 123t118 45q39 0 68.5 -16.5t66.5 -46.5q33 -27 56.5 -40.5t52.5 -13.5q55 0 81.5 31t26.5 86h52q0 -78 -44.5 -123t-115.5 -45q-39 0 -67.5 15.5t-69.5 48.5q-33 27 -56.5 40 t-50.5 13q-109 0 -108 -117h-54z" />
<glyph unicode="&#xe4;" horiz-adv-x="1067" d="M129 279q0 141 97.5 222t277.5 81h338v82q0 154 -82 239.5t-225 85.5t-226.5 -73.5t-91.5 -188.5h-57q8 137 105 227t270 90q168 0 266 -99t98 -281v-664h-47l-10 211h-13q-53 -115 -151 -173t-225 -58q-144 0 -234 80.5t-90 218.5zM186 279q0 -115 73 -179.5t194 -64.5 q127 0 215 58.5t131 156.5t43 217v57h-338q-152 0 -235 -64.5t-83 -180.5zM309 1358q0 20 14.5 34.5t34.5 14.5t35.5 -14.5t15.5 -34.5t-15 -35.5t-36 -15.5q-20 0 -34.5 15t-14.5 36zM659 1358q0 20 14.5 34.5t34.5 14.5t35 -14.5t15 -34.5q0 -23 -14.5 -37t-35.5 -14 q-20 0 -34.5 14t-14.5 37z" />
<glyph unicode="&#xe5;" horiz-adv-x="1067" d="M129 279q0 141 97.5 222t277.5 81h338v82q0 154 -82 239.5t-225 85.5t-226.5 -73.5t-91.5 -188.5h-57q8 137 105 227t270 90q168 0 266 -99t98 -281v-664h-47l-10 211h-13q-53 -115 -151 -173t-225 -58q-144 0 -234 80.5t-90 218.5zM186 279q0 -115 73 -179.5t194 -64.5 q127 0 215 58.5t131 156.5t43 217v57h-338q-152 0 -235 -64.5t-83 -180.5zM367 1352q0 70 48 118t118 48q72 0 120 -48.5t48 -117.5q0 -70 -48.5 -118t-119.5 -48q-70 0 -118 48t-48 118zM416 1352q0 -51 33.5 -84t83.5 -33q51 0 84.5 32.5t33.5 84.5q0 51 -33.5 83.5 t-84.5 32.5q-49 0 -83 -32.5t-34 -83.5z" />
<glyph unicode="&#xe6;" horiz-adv-x="1830" d="M129 268q0 135 95 214t280 79h338v103q0 154 -82 239.5t-225 85.5t-226.5 -73.5t-91.5 -188.5h-57q8 137 105 227t270 90q143 0 237 -77.5t119 -216.5q47 137 156.5 215.5t248.5 78.5q127 0 226.5 -60t154 -167.5t54.5 -245.5q0 -47 -2 -67h-830q0 -143 52.5 -248.5 t141.5 -163t203 -57.5q119 0 209 65.5t135 186.5h60q-47 -147 -151.5 -227t-252.5 -80q-154 0 -270.5 93t-155.5 246q-33 -158 -142.5 -248.5t-274.5 -90.5q-147 0 -235.5 78.5t-88.5 209.5zM186 268q0 -109 71 -171t196 -62q127 0 215 58.5t131 156.5t43 217v37h-338 q-160 0 -239 -63.5t-79 -172.5zM899 559h774q-2 201 -105.5 315.5t-269.5 114.5q-111 0 -199.5 -54t-142 -151.5t-57.5 -224.5z" />
<glyph unicode="&#xe7;" horiz-adv-x="1069" d="M100 512q0 158 60.5 279.5t165 187t229.5 65.5q158 0 272.5 -94t153.5 -254h-57q-37 137 -138.5 215t-230.5 78q-111 0 -202 -59.5t-144 -168t-53 -249.5t53 -249.5t144 -168t202 -59.5q131 0 231.5 80t137.5 223h57q-37 -162 -147.5 -257t-262.5 -101l-39 -80 q72 -2 112 -41t40 -97q0 -66 -44 -105.5t-132 -39.5h-59v49h55q63 0 95 25.5t32 72.5t-32 73t-95 26h-25v37l41 82q-117 10 -213 77.5t-151.5 184t-55.5 268.5z" />
<glyph unicode="&#xe8;" horiz-adv-x="1107" d="M100 512q0 156 61.5 276.5t168 188t235.5 67.5q125 0 227.5 -64.5t160 -177t57.5 -249.5l-2 -70h-852q6 -133 61 -235.5t147.5 -157.5t200.5 -55q121 0 216.5 65.5t138.5 186.5h59q-47 -145 -156.5 -226t-257.5 -81q-129 0 -235.5 67.5t-168 188t-61.5 276.5zM156 541 h796q0 133 -51 234.5t-139 157.5t-195 56q-111 0 -202 -56t-147 -157.5t-62 -234.5zM371 1440h70l160 -234h-56z" />
<glyph unicode="&#xe9;" horiz-adv-x="1107" d="M100 512q0 156 61.5 276.5t168 188t235.5 67.5q125 0 227.5 -64.5t160 -177t57.5 -249.5l-2 -70h-852q6 -133 61 -235.5t147.5 -157.5t200.5 -55q121 0 216.5 65.5t138.5 186.5h59q-47 -145 -156.5 -226t-257.5 -81q-129 0 -235.5 67.5t-168 188t-61.5 276.5zM156 541 h796q0 133 -51 234.5t-139 157.5t-195 56q-111 0 -202 -56t-147 -157.5t-62 -234.5zM534 1206l160 234h70l-175 -234h-55z" />
<glyph unicode="&#xea;" horiz-adv-x="1107" d="M100 512q0 156 61.5 276.5t168 188t235.5 67.5q125 0 227.5 -64.5t160 -177t57.5 -249.5l-2 -70h-852q6 -133 61 -235.5t147.5 -157.5t200.5 -55q121 0 216.5 65.5t138.5 186.5h59q-47 -145 -156.5 -226t-257.5 -81q-129 0 -235.5 67.5t-168 188t-61.5 276.5zM156 541 h796q0 133 -51 234.5t-139 157.5t-195 56q-111 0 -202 -56t-147 -157.5t-62 -234.5zM308 1206l227 232h57l228 -232h-68l-188 193l-189 -193h-67z" />
<glyph unicode="&#xeb;" horiz-adv-x="1107" d="M100 512q0 156 61.5 276.5t168 188t235.5 67.5q125 0 227.5 -64.5t160 -177t57.5 -249.5l-2 -70h-852q6 -133 61 -235.5t147.5 -157.5t200.5 -55q121 0 216.5 65.5t138.5 186.5h59q-47 -145 -156.5 -226t-257.5 -81q-129 0 -235.5 67.5t-168 188t-61.5 276.5zM156 541 h796q0 133 -51 234.5t-139 157.5t-195 56q-111 0 -202 -56t-147 -157.5t-62 -234.5zM338 1358q0 20 14.5 34.5t34.5 14.5t35.5 -14.5t15.5 -34.5t-15 -35.5t-36 -15.5q-20 0 -34.5 15t-14.5 36zM688 1358q0 20 14.5 34.5t34.5 14.5t35 -14.5t15 -34.5q0 -23 -14.5 -37 t-35.5 -14q-20 0 -34.5 14t-14.5 37z" />
<glyph unicode="&#xec;" horiz-adv-x="413" d="M16 1440h70l160 -234h-56zM178 0v1024h58v-1024h-58z" />
<glyph unicode="&#xed;" horiz-adv-x="413" d="M178 0v1024h58v-1024h-58zM180 1206l160 234h70l-175 -234h-55z" />
<glyph unicode="&#xee;" horiz-adv-x="413" d="M-49 1206l227 232h57l228 -232h-68l-188 193l-189 -193h-67zM178 0v1024h58v-1024h-58z" />
<glyph unicode="&#xef;" horiz-adv-x="413" d="M4 1358q0 20 14.5 34.5t34.5 14.5t35.5 -14.5t15.5 -34.5t-15 -35.5t-36 -15.5q-20 0 -34.5 15t-14.5 36zM178 0v1024h58v-1024h-58zM313 1358q0 20 14.5 34.5t34.5 14.5t35 -14.5t15 -34.5q0 -23 -14.5 -37t-35.5 -14q-20 0 -34.5 14t-14.5 37z" />
<glyph unicode="&#xf0;" horiz-adv-x="1081" d="M100 461q0 141 56.5 250.5t156 170t222.5 60.5q106 0 190 -44t137 -128h10q-33 106 -103.5 220t-172.5 210l-274 -149l-27 51l260 139q-45 43 -113.5 94t-130.5 86l54 27q127 -80 241 -180l246 131l27 -51l-232 -121q152 -152 238 -341.5t86 -402.5q0 -162 -59.5 -275.5 t-159 -170.5t-217.5 -57q-123 0 -222.5 60t-156 169.5t-56.5 251.5zM156 461q0 -127 49 -223.5t135 -149.5t195 -53q110 0 196 53t134 149.5t48 223.5t-48 223t-134 149.5t-196 53.5q-109 0 -195 -53.5t-135 -149.5t-49 -223z" />
<glyph unicode="&#xf1;" horiz-adv-x="1159" d="M178 0v1024h45l13 -193h10q41 82 134 147.5t216 65.5q174 0 283.5 -114.5t109.5 -315.5v-614h-57v614q0 111 -43 196t-120 132t-175 47t-180 -49t-130 -135t-48 -191v-614h-58zM301 1247q0 78 44 123t118 45q39 0 68.5 -16.5t66.5 -46.5q33 -27 56.5 -40.5t52.5 -13.5 q55 0 81.5 31t26.5 86h52q0 -78 -44.5 -123t-115.5 -45q-39 0 -67.5 15.5t-69.5 48.5q-33 27 -56.5 40t-50.5 13q-109 0 -108 -117h-54z" />
<glyph unicode="&#xf2;" horiz-adv-x="1112" d="M100 512q0 158 60.5 279.5t165 187t229.5 65.5q127 0 231.5 -65.5t165 -187t60.5 -279.5t-60.5 -279.5t-165 -187t-231.5 -65.5q-125 0 -229.5 65.5t-165 187t-60.5 279.5zM156 512q0 -141 53 -249.5t144 -168t202 -59.5t202 59.5t144 168t53 249.5t-53 249.5t-144 168 t-202 59.5t-202 -59.5t-144 -168t-53 -249.5zM364 1440h70l160 -234h-56z" />
<glyph unicode="&#xf3;" horiz-adv-x="1112" d="M100 512q0 158 60.5 279.5t165 187t229.5 65.5q127 0 231.5 -65.5t165 -187t60.5 -279.5t-60.5 -279.5t-165 -187t-231.5 -65.5q-125 0 -229.5 65.5t-165 187t-60.5 279.5zM156 512q0 -141 53 -249.5t144 -168t202 -59.5t202 59.5t144 168t53 249.5t-53 249.5t-144 168 t-202 59.5t-202 -59.5t-144 -168t-53 -249.5zM528 1206l160 234h70l-175 -234h-55z" />
<glyph unicode="&#xf4;" horiz-adv-x="1112" d="M100 512q0 158 60.5 279.5t165 187t229.5 65.5q127 0 231.5 -65.5t165 -187t60.5 -279.5t-60.5 -279.5t-165 -187t-231.5 -65.5q-125 0 -229.5 65.5t-165 187t-60.5 279.5zM156 512q0 -141 53 -249.5t144 -168t202 -59.5t202 59.5t144 168t53 249.5t-53 249.5t-144 168 t-202 59.5t-202 -59.5t-144 -168t-53 -249.5zM299 1206l227 232h57l228 -232h-68l-188 193l-189 -193h-67z" />
<glyph unicode="&#xf5;" horiz-adv-x="1112" d="M100 512q0 158 60.5 279.5t165 187t229.5 65.5q127 0 231.5 -65.5t165 -187t60.5 -279.5t-60.5 -279.5t-165 -187t-231.5 -65.5q-125 0 -229.5 65.5t-165 187t-60.5 279.5zM156 512q0 -141 53 -249.5t144 -168t202 -59.5t202 59.5t144 168t53 249.5t-53 249.5t-144 168 t-202 59.5t-202 -59.5t-144 -168t-53 -249.5zM272 1247q0 78 44 123t118 45q39 0 68.5 -16.5t66.5 -46.5q33 -27 56.5 -40.5t52.5 -13.5q55 0 81.5 31t26.5 86h52q0 -78 -44.5 -123t-115.5 -45q-39 0 -67.5 15.5t-69.5 48.5q-33 27 -56.5 40t-50.5 13q-109 0 -108 -117h-54z " />
<glyph unicode="&#xf6;" horiz-adv-x="1112" d="M100 512q0 158 60.5 279.5t165 187t229.5 65.5q127 0 231.5 -65.5t165 -187t60.5 -279.5t-60.5 -279.5t-165 -187t-231.5 -65.5q-125 0 -229.5 65.5t-165 187t-60.5 279.5zM156 512q0 -141 53 -249.5t144 -168t202 -59.5t202 59.5t144 168t53 249.5t-53 249.5t-144 168 t-202 59.5t-202 -59.5t-144 -168t-53 -249.5zM332 1358q0 20 14.5 34.5t34.5 14.5t35.5 -14.5t15.5 -34.5t-15 -35.5t-36 -15.5q-20 0 -34.5 15t-14.5 36zM682 1358q0 20 14.5 34.5t34.5 14.5t35 -14.5t15 -34.5q0 -23 -14.5 -37t-35.5 -14q-20 0 -34.5 14t-14.5 37z" />
<glyph unicode="&#xf7;" horiz-adv-x="1067" d="M141 565v58h785v-58h-785zM485 274q0 20 14.5 35t35.5 15q20 0 33.5 -14.5t13.5 -35.5q0 -20 -13.5 -33.5t-33.5 -13.5q-21 0 -35.5 13.5t-14.5 33.5zM485 913q0 20 14.5 34t35.5 14q20 0 33.5 -13.5t13.5 -34.5q0 -20 -13.5 -34.5t-33.5 -14.5q-21 0 -35.5 14.5 t-14.5 34.5z" />
<glyph unicode="&#xf8;" horiz-adv-x="1112" d="M100 512q0 158 60.5 279.5t165 187t229.5 65.5q121 0 221 -59l60 111h57l-74 -142q90 -70 141.5 -183.5t51.5 -258.5q0 -158 -60.5 -279.5t-165 -187t-231.5 -65.5q-119 0 -219 59l-60 -111h-57l74 140q-90 70 -141.5 184.5t-51.5 259.5zM156 512q0 -127 44 -228.5 t119 -164.5l431 815q-86 55 -195 55q-111 0 -202 -59.5t-144 -168t-53 -249.5zM362 90q86 -55 193 -55q111 0 202 59.5t144 168t53 249.5q0 127 -43 227.5t-118 163.5z" />
<glyph unicode="&#xf9;" horiz-adv-x="1159" d="M170 410v614h57v-614q0 -168 94.5 -271.5t243.5 -103.5q98 0 180 49t130.5 135t48.5 191v614h57v-1024h-47l-10 193h-11q-41 -82 -134 -147.5t-218 -65.5q-112 0 -201.5 51t-139.5 148t-50 231zM389 1440h70l160 -234h-56z" />
<glyph unicode="&#xfa;" horiz-adv-x="1159" d="M170 410v614h57v-614q0 -168 94.5 -271.5t243.5 -103.5q98 0 180 49t130.5 135t48.5 191v614h57v-1024h-47l-10 193h-11q-41 -82 -134 -147.5t-218 -65.5q-112 0 -201.5 51t-139.5 148t-50 231zM553 1206l160 234h70l-175 -234h-55z" />
<glyph unicode="&#xfb;" horiz-adv-x="1159" d="M170 410v614h57v-614q0 -168 94.5 -271.5t243.5 -103.5q98 0 180 49t130.5 135t48.5 191v614h57v-1024h-47l-10 193h-11q-41 -82 -134 -147.5t-218 -65.5q-112 0 -201.5 51t-139.5 148t-50 231zM324 1206l227 232h57l228 -232h-68l-188 193l-189 -193h-67z" />
<glyph unicode="&#xfc;" horiz-adv-x="1159" d="M170 410v614h57v-614q0 -168 94.5 -271.5t243.5 -103.5q98 0 180 49t130.5 135t48.5 191v614h57v-1024h-47l-10 193h-11q-41 -82 -134 -147.5t-218 -65.5q-112 0 -201.5 51t-139.5 148t-50 231zM356 1358q0 20 14.5 34.5t34.5 14.5t35.5 -14.5t15.5 -34.5t-15 -35.5 t-36 -15.5q-20 0 -34.5 15t-14.5 36zM706 1358q0 20 14.5 34.5t34.5 14.5t35 -14.5t15 -34.5q0 -23 -14.5 -37t-35.5 -14q-20 0 -34.5 14t-14.5 37z" />
<glyph unicode="&#xfd;" horiz-adv-x="917" d="M39 1024h59l351 -938h38l332 938h60l-469 -1317q-25 -68 -63 -92.5t-105 -24.5h-117v56h115q53 0 77.5 21.5t44.5 74.5l76 215zM442 1206l160 234h70l-175 -234h-55z" />
<glyph unicode="&#xfe;" horiz-adv-x="1179" d="M188 -410v1844h58v-641h10q139 252 381 251q125 0 226.5 -65.5t159.5 -186t58 -280.5t-58 -280.5t-159.5 -186t-226.5 -65.5q-242 0 -381 251h-10v-641h-58zM246 512q0 -143 54 -251.5t143 -167t192 -58.5q104 0 193.5 58.5t142.5 167t53 251.5t-53 251.5t-142.5 167 t-193.5 58.5q-102 0 -191.5 -58.5t-143.5 -167t-54 -251.5z" />
<glyph unicode="&#xff;" horiz-adv-x="917" d="M39 1024h59l351 -938h38l332 938h60l-469 -1317q-25 -68 -63 -92.5t-105 -24.5h-117v56h115q53 0 77.5 21.5t44.5 74.5l76 215zM246 1358q0 20 14.5 34.5t34.5 14.5t35.5 -14.5t15.5 -34.5t-15 -35.5t-36 -15.5q-20 0 -34.5 15t-14.5 36zM596 1358q0 20 14.5 34.5 t34.5 14.5t35 -14.5t15 -34.5q0 -23 -14.5 -37t-35.5 -14q-20 0 -34.5 14t-14.5 37z" />
<glyph unicode="&#x131;" horiz-adv-x="413" d="M178 0v1024h58v-1024h-58z" />
<glyph unicode="&#x132;" horiz-adv-x="1245" d="M199 0v1434h59v-1434h-59zM496 0v57h373q59 0 94 38t35 100v1239h59v-1241q0 -88 -50 -140.5t-134 -52.5h-377z" />
<glyph unicode="&#x133;" horiz-adv-x="827" d="M157 1358q0 20 14.5 34.5t34.5 14.5t36 -14.5t16 -34.5t-15.5 -35.5t-36.5 -15.5q-20 0 -34.5 15t-14.5 36zM178 0v1024h58v-1024h-58zM334 -354h154q51 0 77.5 27.5t26.5 78.5v1272h58v-1278q0 -156 -158 -156h-158v56zM571 1358q0 20 14.5 34.5t34.5 14.5t36 -14.5 t16 -34.5t-15.5 -35.5t-36.5 -15.5q-20 0 -34.5 15t-14.5 36z" />
<glyph unicode="&#x13f;" horiz-adv-x="1085" d="M199 0v1434h59v-1377h768v-57h-827zM720 768q0 20 14.5 35.5t35.5 15.5q23 0 37 -14.5t14 -36.5q0 -20 -15.5 -34.5t-35.5 -14.5q-21 0 -35.5 14t-14.5 35z" />
<glyph unicode="&#x140;" horiz-adv-x="606" d="M188 0v1434h58v-1434h-58zM471 727q0 20 14.5 35.5t35.5 15.5q23 0 37 -14.5t14 -36.5q0 -20 -15.5 -34.5t-35.5 -14.5q-21 0 -35.5 14t-14.5 35z" />
<glyph unicode="&#x152;" horiz-adv-x="2340" d="M129 717q0 215 83 383t226.5 261t317.5 93q188 0 341.5 -113.5t215.5 -298.5h10v392h870v-58h-811v-620h770v-58h-770v-641h811v-57h-870v391h-10q-61 -186 -213 -298.5t-344 -112.5q-174 0 -317.5 93t-226.5 261t-83 383zM186 717q0 -201 76 -355.5t206 -239.5t288 -85 q159 0 288.5 85t204 239.5t74.5 355.5t-74.5 355.5t-204 239.5t-288.5 85q-158 0 -288 -85t-206 -239.5t-76 -355.5z" />
<glyph unicode="&#x153;" horiz-adv-x="1904" d="M100 512q0 156 57.5 276.5t156 188t221.5 67.5q145 0 256.5 -91t152.5 -251q47 160 162 251t264 91q129 0 227.5 -60t152.5 -167.5t54 -245.5v-69h-831q0 -141 52 -248t142 -163t203 -56q119 0 211 65.5t135 186.5h58q-47 -147 -151.5 -227t-252.5 -80q-152 0 -268.5 91 t-157.5 248q-41 -154 -153.5 -246.5t-255.5 -92.5q-123 0 -222.5 67.5t-156 188t-56.5 276.5zM156 512q0 -141 50 -249.5t137 -168t192 -59.5q104 0 191 59.5t137 168t50 249.5t-50 249.5t-137 168t-191 59.5t-191.5 -59.5t-137.5 -168t-50 -249.5zM973 557h776 q0 133 -49 231.5t-134 149.5t-194 51t-198 -54t-142 -152.5t-59 -225.5z" />
<glyph unicode="&#x178;" horiz-adv-x="1189" d="M35 1434h65l475 -811h41l474 811h65l-530 -910v-524h-60v524zM371 1755q0 20 14.5 35.5t34.5 15.5t35.5 -14t15.5 -37q0 -20 -15 -34.5t-36 -14.5q-20 0 -34.5 14.5t-14.5 34.5zM721 1755q0 23 14.5 37t34.5 14t35 -14t15 -37q0 -20 -14.5 -34.5t-35.5 -14.5 q-20 0 -34.5 14.5t-14.5 34.5z" />
<glyph unicode="&#x237;" horiz-adv-x="413" d="M-80 -354h154q51 0 77.5 27.5t26.5 78.5v1272h58v-1278q0 -156 -158 -156h-158v56z" />
<glyph unicode="&#x2c6;" horiz-adv-x="634" d="M61 1227l228 233h57l227 -233h-67l-189 194l-188 -194h-68z" />
<glyph unicode="&#x2dc;" horiz-adv-x="688" d="M61 1247q0 78 44.5 123t117.5 45q39 0 69 -16.5t66 -46.5q33 -27 56.5 -40.5t52.5 -13.5q55 0 81.5 31t26.5 86h52q0 -78 -44 -123t-116 -45q-39 0 -67.5 15.5t-69.5 48.5q-33 27 -56.5 40t-50.5 13q-109 0 -108 -117h-54z" />
<glyph unicode="&#x1e9e;" horiz-adv-x="1355" d="M188 0v1034q0 188 101.5 294t281.5 106h621v-56l-514 -563v-10h104q131 0 232.5 -53.5t157 -145.5t55.5 -205t-55.5 -204t-156 -144t-233.5 -53h-176v57h174q119 0 207 45t135 123t47 176q0 100 -47 178t-135 123.5t-207 45.5h-174v67l512 561h-547q-154 0 -238.5 -90 t-84.5 -252v-1034h-60z" />
<glyph unicode="&#x2000;" horiz-adv-x="958" />
<glyph unicode="&#x2001;" horiz-adv-x="1917" />
<glyph unicode="&#x2002;" horiz-adv-x="958" />
<glyph unicode="&#x2003;" horiz-adv-x="1917" />
<glyph unicode="&#x2004;" horiz-adv-x="639" />
<glyph unicode="&#x2005;" horiz-adv-x="479" />
<glyph unicode="&#x2006;" horiz-adv-x="319" />
<glyph unicode="&#x2007;" horiz-adv-x="319" />
<glyph unicode="&#x2008;" horiz-adv-x="239" />
<glyph unicode="&#x2009;" horiz-adv-x="383" />
<glyph unicode="&#x200a;" horiz-adv-x="106" />
<glyph unicode="&#x2010;" horiz-adv-x="858" d="M100 555v57h656v-57h-656z" />
<glyph unicode="&#x2011;" horiz-adv-x="858" d="M100 555v57h656v-57h-656z" />
<glyph unicode="&#x2012;" horiz-adv-x="858" d="M100 555v57h656v-57h-656z" />
<glyph unicode="&#x2013;" horiz-adv-x="1124" d="M80 555v57h962v-57h-962z" />
<glyph unicode="&#x2014;" horiz-adv-x="1460" d="M80 555v57h1300v-57h-1300z" />
<glyph unicode="&#x2018;" horiz-adv-x="376" d="M121 1174l72 260h45l-50 -260h-67z" />
<glyph unicode="&#x2019;" horiz-adv-x="376" d="M137 1174l49 260h70l-74 -260h-45z" />
<glyph unicode="&#x201a;" horiz-adv-x="385" d="M111 -182l49 262h67l-71 -262h-45z" />
<glyph unicode="&#x201c;" horiz-adv-x="559" d="M121 1174l72 260h45l-50 -260h-67zM303 1174l72 260h45l-50 -260h-67z" />
<glyph unicode="&#x201d;" horiz-adv-x="559" d="M137 1174l49 260h70l-74 -260h-45zM319 1174l49 260h70l-74 -260h-45z" />
<glyph unicode="&#x201e;" horiz-adv-x="567" d="M111 -182l49 262h67l-71 -262h-45zM293 -182l49 262h67l-71 -262h-45z" />
<glyph unicode="&#x2022;" horiz-adv-x="690" d="M246 553q0 41 29.5 70.5t70.5 29.5t69.5 -29.5t28.5 -70.5t-28.5 -70.5t-69.5 -29.5t-70.5 29.5t-29.5 70.5z" />
<glyph unicode="&#x2026;" horiz-adv-x="1191" d="M147 39q0 20 14.5 35.5t35.5 15.5q23 0 37 -14.5t14 -36.5q0 -20 -15.5 -34.5t-35.5 -14.5q-21 0 -35.5 14t-14.5 35zM544 39q0 20 14.5 35.5t35.5 15.5q23 0 37 -14.5t14 -36.5q0 -20 -15.5 -34.5t-35.5 -14.5q-21 0 -35.5 14t-14.5 35zM944 39q0 20 14.5 35.5 t35.5 15.5q23 0 37 -14.5t14 -36.5q0 -20 -15.5 -34.5t-35.5 -14.5q-21 0 -35.5 14t-14.5 35z" />
<glyph unicode="&#x202f;" horiz-adv-x="383" />
<glyph unicode="&#x2039;" horiz-adv-x="591" d="M127 512l270 373h66l-268 -373l268 -373h-66z" />
<glyph unicode="&#x203a;" horiz-adv-x="591" d="M127 139l270 373l-270 373h68l268 -373l-268 -373h-68z" />
<glyph unicode="&#x2044;" horiz-adv-x="174" d="M-387 0l891 1434h57l-891 -1434h-57z" />
<glyph unicode="&#x205f;" horiz-adv-x="479" />
<glyph unicode="&#x2070;" horiz-adv-x="698" d="M80 1270q0 182 76.5 280.5t193.5 98.5q115 0 191.5 -98.5t76.5 -280.5t-76.5 -280.5t-191.5 -98.5q-117 0 -193.5 98t-76.5 281zM133 1270q0 -150 60.5 -239t156.5 -89q94 0 154.5 89t60.5 239t-60.5 238.5t-154.5 88.5q-96 0 -156.5 -89t-60.5 -238z" />
<glyph unicode="&#x2074;" horiz-adv-x="593" d="M12 1081v49l295 508h96v-505h121v-52h-121v-180h-53v180h-338zM80 1133h270v446h-20l-250 -436v-10z" />
<glyph unicode="&#x2075;" horiz-adv-x="667" d="M90 1106h51q14 -80 65.5 -122t131.5 -42q88 0 142.5 54.5t54.5 142.5t-54.5 141t-142.5 53q-100 0 -162 -88h-76l41 393h404v-51h-363l-28 -295h10q66 92 176 92q109 0 177.5 -68.5t68.5 -176.5q0 -109 -70 -178.5t-178 -69.5q-98 0 -166 56.5t-82 158.5z" />
<glyph unicode="&#x2076;" horiz-adv-x="626" d="M63 1139q0 86 41 153l215 346h54l-180 -290h10q51 37 112 36q106 0 176 -71.5t70 -173.5t-70.5 -175t-177.5 -73q-106 0 -178 72.5t-72 175.5zM117 1139q0 -84 57 -140.5t139 -56.5t139.5 56.5t57.5 140.5t-57.5 139t-139.5 55t-139 -55t-57 -139z" />
<glyph unicode="&#x2077;" horiz-adv-x="595" d="M102 1587v51h437v-49l-301 -688h-54l301 686h-383z" />
<glyph unicode="&#x2078;" horiz-adv-x="677" d="M100 1098q0 63 35 110t86 72v10q-45 18 -77.5 59.5t-32.5 102.5q0 90 65.5 143.5t163.5 53.5q96 0 161.5 -53.5t65.5 -143.5q0 -61 -32.5 -102t-75.5 -60v-10q49 -25 84 -72t35 -110q0 -86 -67 -146.5t-171 -60.5q-107 0 -173.5 60.5t-66.5 146.5zM154 1098 q0 -70 54 -113t132 -43q76 0 130 43t54 113q0 72 -54 114.5t-130 42.5q-78 0 -132 -43t-54 -114zM164 1452q0 -70 52 -108.5t124 -38.5t123 38.5t51 108.5q0 68 -51 106.5t-123 38.5t-124 -38.5t-52 -106.5z" />
<glyph unicode="&#x2079;" horiz-adv-x="626" d="M63 1401q0 102 72 175t178 73t177 -73t71 -175q0 -86 -41 -154l-213 -346h-53l180 291h-10q-51 -37 -115 -37q-104 0 -175 72.5t-71 173.5zM117 1401q0 -84 57 -139.5t139 -55.5t139.5 55.5t57.5 139.5t-57.5 140t-139.5 56t-139 -56t-57 -140z" />
<glyph unicode="&#x2080;" horiz-adv-x="698" d="M80 164q0 182 76.5 280.5t193.5 98.5q115 0 191.5 -98.5t76.5 -280.5t-76.5 -280.5t-191.5 -98.5q-117 0 -193.5 98t-76.5 281zM133 164q0 -150 60.5 -239t156.5 -89q94 0 154.5 89t60.5 239t-60.5 238.5t-154.5 88.5q-96 0 -156.5 -89t-60.5 -238z" />
<glyph unicode="&#x2081;" horiz-adv-x="514" d="M80 362v52h147q61 0 62 61v57h53v-737h-53v567h-209z" />
<glyph unicode="&#x2082;" horiz-adv-x="667" d="M111 307q0 106 63.5 171t165.5 65q98 0 157.5 -57.5t59.5 -149.5q0 -63 -24.5 -109.5t-77.5 -105.5l-246 -264v-11h358v-51h-446v41l297 324q47 53 66.5 90t19.5 86q0 68 -43 111.5t-121 43.5q-76 0 -126 -49t-50 -135h-53z" />
<glyph unicode="&#x2083;" horiz-adv-x="651" d="M92 0h53q0 -72 48.5 -118t125.5 -46q82 0 129.5 42t47.5 114q0 74 -47.5 115.5t-129.5 41.5h-61v52h61q72 0 119 37.5t47 107.5t-45 107.5t-121 37.5q-78 0 -120.5 -43t-42.5 -110h-54q0 86 59.5 145.5t157.5 59.5t160 -53.5t62 -143.5q0 -51 -29 -95t-84 -67v-10 q55 -23 88 -70t33 -112q0 -92 -63.5 -149.5t-166.5 -57.5q-98 0 -162.5 61.5t-64.5 153.5z" />
<glyph unicode="&#x2084;" horiz-adv-x="593" d="M12 24l295 508h96v-505h121v-52h-121v-180h-53v180h-338v49zM80 27h270v446h-20l-250 -436v-10z" />
<glyph unicode="&#x2085;" horiz-adv-x="667" d="M90 0h51q14 -80 65.5 -122t131.5 -42q88 0 142.5 54.5t54.5 142.5t-54.5 141t-142.5 53q-100 0 -162 -88h-76l41 393h404v-51h-363l-28 -295h10q66 92 176 92q109 0 177.5 -68.5t68.5 -176.5q0 -109 -70 -178.5t-178 -69.5q-98 0 -166 56.5t-82 158.5z" />
<glyph unicode="&#x2086;" horiz-adv-x="626" d="M63 33q0 86 41 153l215 346h54l-180 -290h10q51 37 112 36q106 0 176 -71.5t70 -173.5t-70.5 -175t-177.5 -73q-106 0 -178 72.5t-72 175.5zM117 33q0 -84 57 -140.5t139 -56.5t139.5 56.5t57.5 140.5t-57.5 139t-139.5 55t-139 -55t-57 -139z" />
<glyph unicode="&#x2087;" horiz-adv-x="595" d="M102 481v51h437v-49l-301 -688h-54l301 686h-383z" />
<glyph unicode="&#x2088;" horiz-adv-x="677" d="M100 -8q0 63 35 110t86 72v10q-45 18 -77.5 59.5t-32.5 102.5q0 90 65.5 143.5t163.5 53.5q96 0 161.5 -53.5t65.5 -143.5q0 -61 -32.5 -102t-75.5 -60v-10q49 -25 84 -72t35 -110q0 -86 -67 -146.5t-171 -60.5q-107 0 -173.5 60.5t-66.5 146.5zM154 -8q0 -70 54 -113 t132 -43q76 0 130 43t54 113q0 72 -54 114.5t-130 42.5q-78 0 -132 -43t-54 -114zM164 346q0 -70 52 -108.5t124 -38.5t123 38.5t51 108.5q0 68 -51 106.5t-123 38.5t-124 -38.5t-52 -106.5z" />
<glyph unicode="&#x2089;" horiz-adv-x="626" d="M63 295q0 102 72 175t178 73t177 -73t71 -175q0 -86 -41 -154l-213 -346h-53l180 291h-10q-51 -37 -115 -37q-104 0 -175 72.5t-71 173.5zM117 295q0 -84 57 -139.5t139 -55.5t139.5 55.5t57.5 139.5t-57.5 140t-139.5 56t-139 -56t-57 -140z" />
<glyph unicode="&#x20ac;" horiz-adv-x="1384" d="M43 526v56h168q-8 86 -8 135t8 135h-168v55h178q37 180 139.5 304t238.5 183.5t280 59.5q135 0 220 -24.5t183 -77.5v-58q-98 53 -183 78t-220 25q-127 0 -250 -53.5t-216.5 -164t-129.5 -272.5h723v-55h-734q-10 -72 -10 -135t10 -135h734v-56h-723q37 -162 130 -272.5 t216 -163.5t250 -53q135 0 220 24.5t183 77.5v-57q-98 -53 -183 -77.5t-220 -24.5q-143 0 -279.5 59t-239 183t-139.5 304h-178z" />
<glyph unicode="&#x2116;" horiz-adv-x="2138" d="M199 0v1434h129l807 -1371h41v1371h59v-1434h-129l-807 1370h-41v-1370h-59zM1409 604q0 90 40 163t108.5 114t150.5 41t151.5 -41t109.5 -114t40 -163t-40 -162.5t-109.5 -113.5t-151.5 -41t-150.5 41t-108.5 113.5t-40 162.5zM1419 0v55h580v-55h-580zM1464 604 q0 -78 34 -138t90.5 -93t119.5 -33q64 0 120 33t91 93t35 138t-35 138.5t-91 93t-120 32.5q-63 0 -119.5 -32.5t-90.5 -93t-34 -138.5z" />
<glyph unicode="&#x2122;" horiz-adv-x="1417" d="M41 1382v52h459v-52h-205v-563h-51v563h-203zM612 819v615h107l207 -557h20l207 557h109v-615h-52v561h-20l-209 -561h-90l-207 561h-20v-561h-52z" />
<glyph unicode="&#x2150;" horiz-adv-x="1284" d="M80 1263v52h147q61 0 62 61v57h53v-737h-53v567h-209zM127 0l891 1434h57l-891 -1434h-57zM790 686v51h437v-49l-301 -688h-54l301 686h-383z" />
<glyph unicode="&#x2151;" horiz-adv-x="1314" d="M80 1263v52h147q61 0 62 61v57h53v-737h-53v567h-209zM127 0l891 1434h57l-891 -1434h-57zM751 500q0 102 72 175t178 73t177 -73t71 -175q0 -86 -41 -154l-213 -346h-53l180 291h-10q-51 -37 -115 -37q-104 0 -175 72.5t-71 173.5zM805 500q0 -84 57 -139.5t139 -55.5 t139.5 55.5t57.5 139.5t-57.5 140t-139.5 56t-139 -56t-57 -140z" />
<glyph unicode="&#x2152;" horiz-adv-x="1808" d="M80 1263v52h147q61 0 62 61v57h53v-737h-53v567h-209zM127 0l891 1434h57l-891 -1434h-57zM768 567v52h147q61 0 62 61v57h53v-737h-53v567h-209zM1190 369q0 182 76.5 280.5t193.5 98.5q115 0 191.5 -98.5t76.5 -280.5t-76.5 -280.5t-191.5 -98.5q-117 0 -193.5 98 t-76.5 281zM1243 369q0 -150 60.5 -239t156.5 -89q94 0 154.5 89t60.5 239t-60.5 238.5t-154.5 88.5q-96 0 -156.5 -89t-60.5 -238z" />
<glyph unicode="&#x2153;" horiz-adv-x="1339" d="M80 1263v52h147q61 0 62 61v57h53v-737h-53v567h-209zM127 0l891 1434h57l-891 -1434h-57zM780 205h53q0 -72 48.5 -118t125.5 -46q82 0 129.5 42t47.5 114q0 74 -47.5 115.5t-129.5 41.5h-61v52h61q72 0 119 37.5t47 107.5t-45 107.5t-121 37.5q-78 0 -120.5 -43 t-42.5 -110h-54q0 86 59.5 145.5t157.5 59.5t160 -53.5t62 -143.5q0 -51 -29 -95t-84 -67v-10q55 -23 88 -70t33 -112q0 -92 -63.5 -149.5t-166.5 -57.5q-98 0 -162.5 61.5t-64.5 153.5z" />
<glyph unicode="&#x2154;" horiz-adv-x="1492" d="M111 1208q0 106 63.5 171t165.5 65q98 0 157.5 -57.5t59.5 -149.5q0 -63 -24.5 -109.5t-77.5 -105.5l-246 -264v-11h358v-51h-446v41l297 324q47 53 66.5 90t19.5 86q0 68 -43 111.5t-121 43.5q-76 0 -126 -49t-50 -135h-53zM281 0l891 1434h57l-891 -1434h-57zM934 205 h53q0 -72 48.5 -118t125.5 -46q82 0 129.5 42t47.5 114q0 74 -47.5 115.5t-129.5 41.5h-61v52h61q72 0 119 37.5t47 107.5t-45 107.5t-121 37.5q-78 0 -120.5 -43t-42.5 -110h-54q0 86 59.5 145.5t157.5 59.5t160 -53.5t62 -143.5q0 -51 -29 -95t-84 -67v-10q55 -23 88 -70 t33 -112q0 -92 -63.5 -149.5t-166.5 -57.5q-98 0 -162.5 61.5t-64.5 153.5z" />
<glyph unicode="&#x2155;" horiz-adv-x="1355" d="M80 1263v52h147q61 0 62 61v57h53v-737h-53v567h-209zM127 0l891 1434h57l-891 -1434h-57zM778 205h51q14 -80 65.5 -122t131.5 -42q88 0 142.5 54.5t54.5 142.5t-54.5 141t-142.5 53q-100 0 -162 -88h-76l41 393h404v-51h-363l-28 -295h10q66 92 176 92 q109 0 177.5 -68.5t68.5 -176.5q0 -109 -70 -178.5t-178 -69.5q-98 0 -166 56.5t-82 158.5z" />
<glyph unicode="&#x2156;" horiz-adv-x="1509" d="M111 1208q0 106 63.5 171t165.5 65q98 0 157.5 -57.5t59.5 -149.5q0 -63 -24.5 -109.5t-77.5 -105.5l-246 -264v-11h358v-51h-446v41l297 324q47 53 66.5 90t19.5 86q0 68 -43 111.5t-121 43.5q-76 0 -126 -49t-50 -135h-53zM281 0l891 1434h57l-891 -1434h-57zM932 205 h51q14 -80 65.5 -122t131.5 -42q88 0 142.5 54.5t54.5 142.5t-54.5 141t-142.5 53q-100 0 -162 -88h-76l41 393h404v-51h-363l-28 -295h10q66 92 176 92q109 0 177.5 -68.5t68.5 -176.5q0 -109 -70 -178.5t-178 -69.5q-98 0 -166 56.5t-82 158.5z" />
<glyph unicode="&#x2157;" horiz-adv-x="1492" d="M92 901h53q0 -72 48.5 -118t125.5 -46q82 0 129.5 42t47.5 114q0 74 -47.5 115.5t-129.5 41.5h-61v52h61q72 0 119 37.5t47 107.5t-45 107.5t-121 37.5q-78 0 -120.5 -43t-42.5 -110h-54q0 86 59.5 145.5t157.5 59.5t160 -53.5t62 -143.5q0 -51 -29 -95t-84 -67v-10 q55 -23 88 -70t33 -112q0 -92 -63.5 -149.5t-166.5 -57.5q-98 0 -162.5 61.5t-64.5 153.5zM264 0l891 1434h57l-891 -1434h-57zM915 205h51q14 -80 65.5 -122t131.5 -42q88 0 142.5 54.5t54.5 142.5t-54.5 141t-142.5 53q-100 0 -162 -88h-76l41 393h404v-51h-363l-28 -295 h10q66 92 176 92q109 0 177.5 -68.5t68.5 -176.5q0 -109 -70 -178.5t-178 -69.5q-98 0 -166 56.5t-82 158.5z" />
<glyph unicode="&#x2158;" horiz-adv-x="1435" d="M12 876v49l295 508h96v-505h121v-52h-121v-180h-53v180h-338zM80 928h270v446h-20l-250 -436v-10zM207 0l891 1434h57l-891 -1434h-57zM858 205h51q14 -80 65.5 -122t131.5 -42q88 0 142.5 54.5t54.5 142.5t-54.5 141t-142.5 53q-100 0 -162 -88h-76l41 393h404v-51h-363 l-28 -295h10q66 92 176 92q109 0 177.5 -68.5t68.5 -176.5q0 -109 -70 -178.5t-178 -69.5q-98 0 -166 56.5t-82 158.5z" />
<glyph unicode="&#x2159;" horiz-adv-x="1314" d="M80 1263v52h147q61 0 62 61v57h53v-737h-53v567h-209zM127 0l891 1434h57l-891 -1434h-57zM751 238q0 86 41 153l215 346h54l-180 -290h10q51 37 112 36q106 0 176 -71.5t70 -173.5t-70.5 -175t-177.5 -73q-106 0 -178 72.5t-72 175.5zM805 238q0 -84 57 -140.5 t139 -56.5t139.5 56.5t57.5 140.5t-57.5 139t-139.5 55t-139 -55t-57 -139z" />
<glyph unicode="&#x215a;" horiz-adv-x="1468" d="M90 901h51q14 -80 65.5 -122t131.5 -42q88 0 142.5 54.5t54.5 142.5t-54.5 141t-142.5 53q-100 0 -162 -88h-76l41 393h404v-51h-363l-28 -295h10q66 92 176 92q109 0 177.5 -68.5t68.5 -176.5q0 -109 -70 -178.5t-178 -69.5q-98 0 -166 56.5t-82 158.5zM281 0l891 1434 h57l-891 -1434h-57zM905 238q0 86 41 153l215 346h54l-180 -290h10q51 37 112 36q106 0 176 -71.5t70 -173.5t-70.5 -175t-177.5 -73q-106 0 -178 72.5t-72 175.5zM959 238q0 -84 57 -140.5t139 -56.5t139.5 56.5t57.5 140.5t-57.5 139t-139.5 55t-139 -55t-57 -139z" />
<glyph unicode="&#x215b;" horiz-adv-x="1366" d="M80 1263v52h147q61 0 62 61v57h53v-737h-53v567h-209zM127 0l891 1434h57l-891 -1434h-57zM788 197q0 63 35 110t86 72v10q-45 18 -77.5 59.5t-32.5 102.5q0 90 65.5 143.5t163.5 53.5q96 0 161.5 -53.5t65.5 -143.5q0 -61 -32.5 -102t-75.5 -60v-10q49 -25 84 -72 t35 -110q0 -86 -67 -146.5t-171 -60.5q-107 0 -173.5 60.5t-66.5 146.5zM842 197q0 -70 54 -113t132 -43q76 0 130 43t54 113q0 72 -54 114.5t-130 42.5q-78 0 -132 -43t-54 -114zM852 551q0 -70 52 -108.5t124 -38.5t123 38.5t51 108.5q0 68 -51 106.5t-123 38.5 t-124 -38.5t-52 -106.5z" />
<glyph unicode="&#x215c;" horiz-adv-x="1503" d="M92 901h53q0 -72 48.5 -118t125.5 -46q82 0 129.5 42t47.5 114q0 74 -47.5 115.5t-129.5 41.5h-61v52h61q72 0 119 37.5t47 107.5t-45 107.5t-121 37.5q-78 0 -120.5 -43t-42.5 -110h-54q0 86 59.5 145.5t157.5 59.5t160 -53.5t62 -143.5q0 -51 -29 -95t-84 -67v-10 q55 -23 88 -70t33 -112q0 -92 -63.5 -149.5t-166.5 -57.5q-98 0 -162.5 61.5t-64.5 153.5zM264 0l891 1434h57l-891 -1434h-57zM925 197q0 63 35 110t86 72v10q-45 18 -77.5 59.5t-32.5 102.5q0 90 65.5 143.5t163.5 53.5q96 0 161.5 -53.5t65.5 -143.5q0 -61 -32.5 -102 t-75.5 -60v-10q49 -25 84 -72t35 -110q0 -86 -67 -146.5t-171 -60.5q-107 0 -173.5 60.5t-66.5 146.5zM979 197q0 -70 54 -113t132 -43q76 0 130 43t54 113q0 72 -54 114.5t-130 42.5q-78 0 -132 -43t-54 -114zM989 551q0 -70 52 -108.5t124 -38.5t123 38.5t51 108.5 q0 68 -51 106.5t-123 38.5t-124 -38.5t-52 -106.5z" />
<glyph unicode="&#x215d;" horiz-adv-x="1519" d="M90 901h51q14 -80 65.5 -122t131.5 -42q88 0 142.5 54.5t54.5 142.5t-54.5 141t-142.5 53q-100 0 -162 -88h-76l41 393h404v-51h-363l-28 -295h10q66 92 176 92q109 0 177.5 -68.5t68.5 -176.5q0 -109 -70 -178.5t-178 -69.5q-98 0 -166 56.5t-82 158.5zM281 0l891 1434 h57l-891 -1434h-57zM942 197q0 63 35 110t86 72v10q-45 18 -77.5 59.5t-32.5 102.5q0 90 65.5 143.5t163.5 53.5q96 0 161.5 -53.5t65.5 -143.5q0 -61 -32.5 -102t-75.5 -60v-10q49 -25 84 -72t35 -110q0 -86 -67 -146.5t-171 -60.5q-107 0 -173.5 60.5t-66.5 146.5z M996 197q0 -70 54 -113t132 -43q76 0 130 43t54 113q0 72 -54 114.5t-130 42.5q-78 0 -132 -43t-54 -114zM1006 551q0 -70 52 -108.5t124 -38.5t123 38.5t51 108.5q0 68 -51 106.5t-123 38.5t-124 -38.5t-52 -106.5z" />
<glyph unicode="&#x215e;" horiz-adv-x="1447" d="M102 1382v51h437v-49l-301 -688h-54l301 686h-383zM209 0l891 1434h57l-891 -1434h-57zM870 197q0 63 35 110t86 72v10q-45 18 -77.5 59.5t-32.5 102.5q0 90 65.5 143.5t163.5 53.5q96 0 161.5 -53.5t65.5 -143.5q0 -61 -32.5 -102t-75.5 -60v-10q49 -25 84 -72t35 -110 q0 -86 -67 -146.5t-171 -60.5q-107 0 -173.5 60.5t-66.5 146.5zM924 197q0 -70 54 -113t132 -43q76 0 130 43t54 113q0 72 -54 114.5t-130 42.5q-78 0 -132 -43t-54 -114zM934 551q0 -70 52 -108.5t124 -38.5t123 38.5t51 108.5q0 68 -51 106.5t-123 38.5t-124 -38.5 t-52 -106.5z" />
<glyph unicode="&#x2460;" d="M164 717q0 238 114.5 434.5t311 311t434.5 114.5t434.5 -114.5t311 -311.5t114.5 -434q0 -238 -114.5 -434.5t-311 -311t-434.5 -114.5t-434.5 114.5t-311 311t-114.5 434.5zM217 717q0 -223 106.5 -408.5t292 -292t408.5 -106.5t408.5 106.5t292 292t106.5 408.5 t-106.5 408.5t-292 292t-408.5 106.5t-408.5 -106.5t-292 -292t-106.5 -408.5zM811 915v52h147q61 0 62 61v57h53v-737h-53v567h-209z" />
<glyph unicode="&#x2461;" d="M164 717q0 238 114.5 434.5t311 311t434.5 114.5t434.5 -114.5t311 -311.5t114.5 -434q0 -238 -114.5 -434.5t-311 -311t-434.5 -114.5t-434.5 114.5t-311 311t-114.5 434.5zM217 717q0 -223 106.5 -408.5t292 -292t408.5 -106.5t408.5 106.5t292 292t106.5 408.5 t-106.5 408.5t-292 292t-408.5 106.5t-408.5 -106.5t-292 -292t-106.5 -408.5zM797 860q0 106 62.5 171t164.5 65q100 0 158.5 -56.5t58.5 -150.5q0 -66 -23.5 -112t-78.5 -103l-246 -264v-11h358v-51h-444v41l295 324q49 53 68.5 90t19.5 86q0 68 -44 111.5t-122 43.5 q-76 0 -126 -49t-50 -135h-51z" />
<glyph unicode="&#x2462;" d="M164 717q0 238 114.5 434.5t311 311t434.5 114.5t434.5 -114.5t311 -311.5t114.5 -434q0 -238 -114.5 -434.5t-311 -311t-434.5 -114.5t-434.5 114.5t-311 311t-114.5 434.5zM217 717q0 -223 106.5 -408.5t292 -292t408.5 -106.5t408.5 106.5t292 292t106.5 408.5 t-106.5 408.5t-292 292t-408.5 106.5t-408.5 -106.5t-292 -292t-106.5 -408.5zM797 553h51q0 -72 48 -118t128 -46t128 42t48 114q0 74 -48 115.5t-130 41.5h-59v52h59q72 0 120 37.5t48 107.5t-45 107.5t-121 37.5q-78 0 -122 -43t-44 -110h-51q0 88 59.5 146.5t157.5 58.5 q96 0 157.5 -53.5t61.5 -143.5q0 -51 -27.5 -95t-85.5 -67v-10q55 -23 88 -70t33 -112q0 -92 -63.5 -149.5t-163.5 -57.5t-163.5 61.5t-63.5 153.5z" />
<glyph unicode="&#x2463;" d="M164 717q0 238 114.5 434.5t311 311t434.5 114.5t434.5 -114.5t311 -311.5t114.5 -434q0 -238 -114.5 -434.5t-311 -311t-434.5 -114.5t-434.5 114.5t-311 311t-114.5 434.5zM217 717q0 -223 106.5 -408.5t292 -292t408.5 -106.5t408.5 106.5t292 292t106.5 408.5 t-106.5 408.5t-292 292t-408.5 106.5t-408.5 -106.5t-292 -292t-106.5 -408.5zM725 528v50l293 507h96v-505h121v-52h-121v-180h-51v180h-338zM791 580h272v446h-21l-251 -436v-10z" />
<glyph unicode="&#x2464;" d="M164 717q0 238 114.5 434.5t311 311t434.5 114.5t434.5 -114.5t311 -311.5t114.5 -434q0 -238 -114.5 -434.5t-311 -311t-434.5 -114.5t-434.5 114.5t-311 311t-114.5 434.5zM217 717q0 -223 106.5 -408.5t292 -292t408.5 -106.5t408.5 106.5t292 292t106.5 408.5 t-106.5 408.5t-292 292t-408.5 106.5t-408.5 -106.5t-292 -292t-106.5 -408.5zM776 553h51q14 -80 65.5 -122t131.5 -42q88 0 142.5 54.5t54.5 142.5t-54.5 141t-142.5 53q-100 0 -162 -88h-76l41 393h404v-51h-363l-28 -295h10q66 92 176 92q109 0 177.5 -68.5t68.5 -176.5 q0 -109 -69.5 -178.5t-178.5 -69.5q-98 0 -165.5 56.5t-82.5 158.5z" />
<glyph unicode="&#x2465;" d="M164 717q0 238 114.5 434.5t311 311t434.5 114.5t434.5 -114.5t311 -311.5t114.5 -434q0 -238 -114.5 -434.5t-311 -311t-434.5 -114.5t-434.5 114.5t-311 311t-114.5 434.5zM217 717q0 -223 106.5 -408.5t292 -292t408.5 -106.5t408.5 106.5t292 292t106.5 408.5 t-106.5 408.5t-292 292t-408.5 106.5t-408.5 -106.5t-292 -292t-106.5 -408.5zM776 586q0 86 41 153l213 346h53l-180 -290h10q51 37 113 36q106 0 176 -71.5t70 -173.5t-71 -175t-177 -73t-177 72.5t-71 175.5zM827 586q0 -84 57.5 -140.5t139.5 -56.5t139.5 56.5 t57.5 140.5t-57.5 139t-139.5 55t-139.5 -55t-57.5 -139z" />
<glyph unicode="&#x2466;" d="M164 717q0 238 114.5 434.5t311 311t434.5 114.5t434.5 -114.5t311 -311.5t114.5 -434q0 -238 -114.5 -434.5t-311 -311t-434.5 -114.5t-434.5 114.5t-311 311t-114.5 434.5zM217 717q0 -223 106.5 -408.5t292 -292t408.5 -106.5t408.5 106.5t292 292t106.5 408.5 t-106.5 408.5t-292 292t-408.5 106.5t-408.5 -106.5t-292 -292t-106.5 -408.5zM807 1034v51h434v-49l-301 -688h-51l299 686h-381z" />
<glyph unicode="&#x2467;" d="M164 717q0 238 114.5 434.5t311 311t434.5 114.5t434.5 -114.5t311 -311.5t114.5 -434q0 -238 -114.5 -434.5t-311 -311t-434.5 -114.5t-434.5 114.5t-311 311t-114.5 434.5zM217 717q0 -223 106.5 -408.5t292 -292t408.5 -106.5t408.5 106.5t292 292t106.5 408.5 t-106.5 408.5t-292 292t-408.5 106.5t-408.5 -106.5t-292 -292t-106.5 -408.5zM786 545q0 63 35 110t84 72v10q-43 18 -75.5 59.5t-32.5 102.5q0 90 65.5 143.5t161.5 53.5t161.5 -53.5t65.5 -143.5q0 -61 -32.5 -102t-75.5 -60v-10q49 -25 84 -72t35 -110q0 -86 -66 -146.5 t-172 -60.5t-172 60.5t-66 146.5zM838 545q0 -70 54 -113t132 -43t132 43t54 113q0 72 -54 114.5t-132 42.5t-132 -43t-54 -114zM848 899q0 -70 52 -108.5t124 -38.5t124 38.5t52 108.5q0 68 -52 106.5t-124 38.5t-124 -38.5t-52 -106.5z" />
<glyph unicode="&#x2468;" d="M164 717q0 238 114.5 434.5t311 311t434.5 114.5t434.5 -114.5t311 -311.5t114.5 -434q0 -238 -114.5 -434.5t-311 -311t-434.5 -114.5t-434.5 114.5t-311 311t-114.5 434.5zM217 717q0 -223 106.5 -408.5t292 -292t408.5 -106.5t408.5 106.5t292 292t106.5 408.5 t-106.5 408.5t-292 292t-408.5 106.5t-408.5 -106.5t-292 -292t-106.5 -408.5zM776 848q0 102 71 175t177 73t177 -73t71 -175q0 -86 -41 -154l-213 -346h-53l180 291h-10q-51 -37 -113 -37q-106 0 -176 71.5t-70 174.5zM827 848q0 -84 57.5 -139.5t139.5 -55.5t139.5 55.5 t57.5 139.5t-57.5 140t-139.5 56t-139.5 -56t-57.5 -140z" />
<glyph unicode="&#x2469;" d="M164 717q0 238 114.5 434.5t311 311t434.5 114.5t434.5 -114.5t311 -311.5t114.5 -434q0 -238 -114.5 -434.5t-311 -311t-434.5 -114.5t-434.5 114.5t-311 311t-114.5 434.5zM217 717q0 -223 106.5 -408.5t292 -292t408.5 -106.5t408.5 106.5t292 292t106.5 408.5 t-106.5 408.5t-292 292t-408.5 106.5t-408.5 -106.5t-292 -292t-106.5 -408.5zM520 915v52h148q61 0 61 61v57h53v-737h-53v567h-209zM942 717q0 182 77 280.5t191 98.5q117 0 194 -98.5t77 -280.5t-77 -280.5t-194 -98.5q-114 0 -191 98.5t-77 280.5zM995 717 q0 -150 60.5 -239t154.5 -89q97 0 157 89t60 239t-60 238.5t-157 88.5q-94 0 -154.5 -89t-60.5 -238z" />
<glyph unicode="&#x246a;" d="M164 717q0 238 114.5 434.5t311 311t434.5 114.5t434.5 -114.5t311 -311.5t114.5 -434q0 -238 -114.5 -434.5t-311 -311t-434.5 -114.5t-434.5 114.5t-311 311t-114.5 434.5zM217 717q0 -223 106.5 -408.5t292 -292t408.5 -106.5t408.5 106.5t292 292t106.5 408.5 t-106.5 408.5t-292 292t-408.5 106.5t-408.5 -106.5t-292 -292t-106.5 -408.5zM604 915v52h148q61 0 61 61v57h53v-737h-53v567h-209zM1036 915v52h148q61 0 61 61v57h53v-737h-53v567h-209z" />
<glyph unicode="&#x246b;" d="M164 717q0 238 114.5 434.5t311 311t434.5 114.5t434.5 -114.5t311 -311.5t114.5 -434q0 -238 -114.5 -434.5t-311 -311t-434.5 -114.5t-434.5 114.5t-311 311t-114.5 434.5zM217 717q0 -223 106.5 -408.5t292 -292t408.5 -106.5t408.5 106.5t292 292t106.5 408.5 t-106.5 408.5t-292 292t-408.5 106.5t-408.5 -106.5t-292 -292t-106.5 -408.5zM543 915v52h147q61 0 62 61v57h53v-737h-53v567h-209zM991 860q0 106 62.5 171t165.5 65q100 0 158.5 -56.5t58.5 -150.5q0 -66 -23.5 -112t-79.5 -103l-246 -264v-11h359v-51h-445v41l295 324 q49 53 68.5 90t19.5 86q0 68 -44 111.5t-121 43.5q-76 0 -126.5 -49t-50.5 -135h-51z" />
<glyph unicode="&#x246c;" d="M164 717q0 238 114.5 434.5t311 311t434.5 114.5t434.5 -114.5t311 -311.5t114.5 -434q0 -238 -114.5 -434.5t-311 -311t-434.5 -114.5t-434.5 114.5t-311 311t-114.5 434.5zM217 717q0 -223 106.5 -408.5t292 -292t408.5 -106.5t408.5 106.5t292 292t106.5 408.5 t-106.5 408.5t-292 292t-408.5 106.5t-408.5 -106.5t-292 -292t-106.5 -408.5zM543 915v52h147q61 0 62 61v57h53v-737h-53v567h-209zM991 553h51q0 -72 48.5 -118t128.5 -46t128 42t48 114q0 74 -48.5 115.5t-129.5 41.5h-60v52h60q72 0 119.5 37.5t47.5 107.5t-45 107.5 t-120 37.5q-78 0 -122 -43t-44 -110h-52q0 88 59.5 146.5t158.5 58.5q96 0 157.5 -53.5t61.5 -143.5q0 -51 -28 -95t-85 -67v-10q55 -23 88 -70t33 -112q0 -92 -63.5 -149.5t-163.5 -57.5q-101 0 -164.5 61.5t-63.5 153.5z" />
<glyph unicode="&#x246d;" d="M164 717q0 238 114.5 434.5t311 311t434.5 114.5t434.5 -114.5t311 -311.5t114.5 -434q0 -238 -114.5 -434.5t-311 -311t-434.5 -114.5t-434.5 114.5t-311 311t-114.5 434.5zM217 717q0 -223 106.5 -408.5t292 -292t408.5 -106.5t408.5 106.5t292 292t106.5 408.5 t-106.5 408.5t-292 292t-408.5 106.5t-408.5 -106.5t-292 -292t-106.5 -408.5zM530 915v52h148q61 0 61 61v57h54v-737h-54v567h-209zM950 528v50l295 507h96v-505h121v-52h-121v-180h-53v180h-338zM1016 580h272v446h-20l-252 -436v-10z" />
<glyph unicode="&#x246e;" d="M164 717q0 238 114.5 434.5t311 311t434.5 114.5t434.5 -114.5t311 -311.5t114.5 -434q0 -238 -114.5 -434.5t-311 -311t-434.5 -114.5t-434.5 114.5t-311 311t-114.5 434.5zM217 717q0 -223 106.5 -408.5t292 -292t408.5 -106.5t408.5 106.5t292 292t106.5 408.5 t-106.5 408.5t-292 292t-408.5 106.5t-408.5 -106.5t-292 -292t-106.5 -408.5zM530 915v52h148q61 0 61 61v57h54v-737h-54v567h-209zM971 553h51q14 -80 65.5 -122t131.5 -42q88 0 142 54.5t54 142.5t-54 141t-142 53q-100 0 -162 -88h-76l41 393h403v-51h-362l-29 -295h10 q66 92 177 92q109 0 177 -68.5t68 -176.5q0 -109 -69.5 -178.5t-177.5 -69.5q-99 0 -166.5 56.5t-81.5 158.5z" />
<glyph unicode="&#x246f;" d="M164 717q0 238 114.5 434.5t311 311t434.5 114.5t434.5 -114.5t311 -311.5t114.5 -434q0 -238 -114.5 -434.5t-311 -311t-434.5 -114.5t-434.5 114.5t-311 311t-114.5 434.5zM217 717q0 -223 106.5 -408.5t292 -292t408.5 -106.5t408.5 106.5t292 292t106.5 408.5 t-106.5 408.5t-292 292t-408.5 106.5t-408.5 -106.5t-292 -292t-106.5 -408.5zM541 915v52h147q61 0 62 61v57h53v-737h-53v567h-209zM971 586q0 86 41 153l215 346h53l-182 -290h10q51 37 115 36q104 0 174.5 -72.5t70.5 -172.5q0 -102 -70.5 -175t-176.5 -73 q-107 0 -178.5 72.5t-71.5 175.5zM1024 586q0 -84 57.5 -140.5t139.5 -56.5t138 55.5t56 141.5q0 84 -56 139t-138 55t-139.5 -55t-57.5 -139z" />
<glyph unicode="&#x2470;" d="M164 717q0 238 114.5 434.5t311 311t434.5 114.5t434.5 -114.5t311 -311.5t114.5 -434q0 -238 -114.5 -434.5t-311 -311t-434.5 -114.5t-434.5 114.5t-311 311t-114.5 434.5zM217 717q0 -223 106.5 -408.5t292 -292t408.5 -106.5t408.5 106.5t292 292t106.5 408.5 t-106.5 408.5t-292 292t-408.5 106.5t-408.5 -106.5t-292 -292t-106.5 -408.5zM582 915v52h147q61 0 62 61v57h51v-737h-51v567h-209zM1001 1034v51h435v-49l-301 -688h-52l299 686h-381z" />
<glyph unicode="&#x2471;" d="M164 717q0 238 114.5 434.5t311 311t434.5 114.5t434.5 -114.5t311 -311.5t114.5 -434q0 -238 -114.5 -434.5t-311 -311t-434.5 -114.5t-434.5 114.5t-311 311t-114.5 434.5zM217 717q0 -223 106.5 -408.5t292 -292t408.5 -106.5t408.5 106.5t292 292t106.5 408.5 t-106.5 408.5t-292 292t-408.5 106.5t-408.5 -106.5t-292 -292t-106.5 -408.5zM541 915v52h147q61 0 62 61v57h53v-737h-53v567h-209zM971 545q0 63 34.5 110t86.5 72v10q-45 18 -78 59.5t-33 102.5q0 90 65.5 143.5t163.5 53.5q96 0 162 -53.5t66 -143.5q0 -61 -33 -102 t-76 -60v-10q49 -25 84 -72t35 -110q0 -86 -66.5 -146.5t-171.5 -60.5q-106 0 -172.5 60.5t-66.5 146.5zM1024 545q0 -70 54.5 -113t131.5 -43q76 0 130.5 43t54.5 113q0 72 -54.5 114.5t-130.5 42.5q-78 0 -132 -43t-54 -114zM1034 899q0 -70 52.5 -108.5t123.5 -38.5 q72 0 123 38.5t51 108.5q0 68 -51 106.5t-123 38.5t-124 -38.5t-52 -106.5z" />
<glyph unicode="&#x2472;" d="M164 717q0 238 114.5 434.5t311 311t434.5 114.5t434.5 -114.5t311 -311.5t114.5 -434q0 -238 -114.5 -434.5t-311 -311t-434.5 -114.5t-434.5 114.5t-311 311t-114.5 434.5zM217 717q0 -223 106.5 -408.5t292 -292t408.5 -106.5t408.5 106.5t292 292t106.5 408.5 t-106.5 408.5t-292 292t-408.5 106.5t-408.5 -106.5t-292 -292t-106.5 -408.5zM551 915v52h147q61 0 62 61v57h53v-737h-53v567h-209zM981 848q0 102 71.5 175t178.5 73q106 0 177 -73t71 -175q0 -86 -41 -154l-213 -346h-56l183 291h-11q-51 -37 -114 -37q-104 0 -175 73 t-71 173zM1034 848q0 -84 57.5 -139.5t139.5 -55.5t138 55.5t56 139.5q0 86 -56 141t-138 55t-139.5 -56t-57.5 -140z" />
<glyph unicode="&#x2473;" d="M164 717q0 238 114.5 434.5t311 311t434.5 114.5t434.5 -114.5t311 -311.5t114.5 -434q0 -238 -114.5 -434.5t-311 -311t-434.5 -114.5t-434.5 114.5t-311 311t-114.5 434.5zM217 717q0 -223 106.5 -408.5t292 -292t408.5 -106.5t408.5 106.5t292 292t106.5 408.5 t-106.5 408.5t-292 292t-408.5 106.5t-408.5 -106.5t-292 -292t-106.5 -408.5zM496 860q0 106 63.5 171t165.5 65q98 0 157.5 -57.5t59.5 -149.5q0 -63 -24.5 -109.5t-77.5 -105.5l-246 -264v-11h358v-51h-446v41l295 324q49 51 68.5 89t19.5 87q0 68 -43 111.5t-121 43.5 q-76 0 -126 -49t-50 -135h-53zM1044 717q0 182 77 280.5t192 98.5q117 0 193.5 -98.5t76.5 -280.5t-76.5 -280.5t-193.5 -98.5q-115 0 -192 98.5t-77 280.5zM1098 717q0 -150 60.5 -239t154.5 -89q96 0 156.5 89t60.5 239t-60.5 238.5t-156.5 88.5q-94 0 -154.5 -89 t-60.5 -238z" />
<glyph unicode="&#x24ea;" d="M164 717q0 238 114.5 434.5t311 311t434.5 114.5t434.5 -114.5t311 -311.5t114.5 -434q0 -238 -114.5 -434.5t-311 -311t-434.5 -114.5t-434.5 114.5t-311 311t-114.5 434.5zM217 717q0 -223 106.5 -408.5t292 -292t408.5 -106.5t408.5 106.5t292 292t106.5 408.5 t-106.5 408.5t-292 292t-408.5 106.5t-408.5 -106.5t-292 -292t-106.5 -408.5zM756 717q0 182 76.5 280.5t191.5 98.5t191.5 -98.5t76.5 -280.5t-76.5 -280.5t-191.5 -98.5t-191.5 98.5t-76.5 280.5zM807 717q0 -150 60.5 -239t156.5 -89t156.5 89t60.5 239t-60.5 238.5 t-156.5 88.5t-156.5 -89t-60.5 -238z" />
<glyph unicode="&#x24eb;" d="M164 717q0 238 114.5 434.5t311 311t434.5 114.5t434.5 -114.5t311 -311.5t114.5 -434q0 -238 -114.5 -434.5t-311 -311t-434.5 -114.5t-434.5 114.5t-311 311t-114.5 434.5zM602 915h209v-567h53v737h-53v-57q0 -61 -61 -61h-148v-52zM1034 915h209v-567h53v737h-53v-57 q0 -61 -61 -61h-148v-52z" />
<glyph unicode="&#x24ec;" d="M164 717q0 238 114.5 434.5t311 311t434.5 114.5t434.5 -114.5t311 -311.5t114.5 -434q0 -238 -114.5 -434.5t-311 -311t-434.5 -114.5t-434.5 114.5t-311 311t-114.5 434.5zM543 915h209v-567h53v737h-53v-57q0 -61 -62 -61h-147v-52zM991 860h51q0 86 50.5 135 t126.5 49q78 0 121.5 -44t43.5 -111q0 -49 -19 -86t-69 -90l-295 -324v-41h445v51h-359v11l246 264q55 57 79 103t24 112q0 94 -58.5 150.5t-158.5 56.5q-102 0 -165 -64.5t-63 -171.5z" />
<glyph unicode="&#x24ed;" d="M164 717q0 238 114.5 434.5t311 311t434.5 114.5t434.5 -114.5t311 -311.5t114.5 -434q0 -238 -114.5 -434.5t-311 -311t-434.5 -114.5t-434.5 114.5t-311 311t-114.5 434.5zM543 915h209v-567h53v737h-53v-57q0 -61 -62 -61h-147v-52zM991 553q0 -92 63.5 -153.5 t164.5 -61.5q100 0 163.5 57.5t63.5 149.5q0 66 -33 113t-88 69v10q57 23 85 67t28 95q0 90 -61.5 143.5t-157.5 53.5q-98 0 -158 -58.5t-60 -146.5h52q0 68 44 110.5t122 42.5q76 0 120.5 -37.5t44.5 -107.5t-48 -107.5t-119 -37.5h-60v-52h60q82 0 130 -42t48 -115 q0 -72 -48.5 -114t-127.5 -42q-80 0 -128.5 46t-48.5 118h-51z" />
<glyph unicode="&#x24ee;" d="M164 717q0 238 114.5 434.5t311 311t434.5 114.5t434.5 -114.5t311 -311.5t114.5 -434q0 -238 -114.5 -434.5t-311 -311t-434.5 -114.5t-434.5 114.5t-311 311t-114.5 434.5zM530 915h209v-567h54v737h-54v-57q0 -61 -61 -61h-148v-52zM950 528h338v-180h53v180h121v52 h-121v505h-96l-295 -507v-50zM1016 580v10l252 436h20v-446h-272z" />
<glyph unicode="&#x24ef;" d="M164 717q0 238 114.5 434.5t311 311t434.5 114.5t434.5 -114.5t311 -311.5t114.5 -434q0 -238 -114.5 -434.5t-311 -311t-434.5 -114.5t-434.5 114.5t-311 311t-114.5 434.5zM530 915h209v-567h54v737h-54v-57q0 -61 -61 -61h-148v-52zM971 553q14 -102 81.5 -158.5 t166.5 -56.5q108 0 177.5 69.5t69.5 178.5t-68.5 177t-176.5 68q-111 0 -177 -92h-10l29 295h362v51h-403l-41 -393h76q61 88 162 88q88 0 142 -53t54 -141t-54 -142.5t-142 -54.5q-80 0 -131.5 42t-65.5 122h-51z" />
<glyph unicode="&#x24f0;" d="M164 717q0 238 114.5 434.5t311 311t434.5 114.5t434.5 -114.5t311 -311.5t114.5 -434q0 -238 -114.5 -434.5t-311 -311t-434.5 -114.5t-434.5 114.5t-311 311t-114.5 434.5zM541 915h209v-567h53v737h-53v-57q0 -61 -62 -61h-147v-52zM971 586q0 -102 71.5 -175 t178.5 -73q106 0 176.5 72.5t70.5 175.5q0 100 -70.5 172.5t-174.5 72.5q-63 0 -115 -36h-10l182 290h-53l-215 -346q-41 -68 -41 -153zM1024 586q0 84 57.5 139t139.5 55t138 -55t56 -139q0 -86 -56 -141.5t-138 -55.5t-139.5 56.5t-57.5 140.5z" />
<glyph unicode="&#x24f1;" d="M164 717q0 238 114.5 434.5t311 311t434.5 114.5t434.5 -114.5t311 -311.5t114.5 -434q0 -238 -114.5 -434.5t-311 -311t-434.5 -114.5t-434.5 114.5t-311 311t-114.5 434.5zM582 915h209v-567h51v737h-51v-57q0 -61 -62 -61h-147v-52zM1001 1034h381l-299 -686h52 l301 688v49h-435v-51z" />
<glyph unicode="&#x24f2;" d="M164 717q0 238 114.5 434.5t311 311t434.5 114.5t434.5 -114.5t311 -311.5t114.5 -434q0 -238 -114.5 -434.5t-311 -311t-434.5 -114.5t-434.5 114.5t-311 311t-114.5 434.5zM541 915h209v-567h53v737h-53v-57q0 -61 -62 -61h-147v-52zM971 545q0 -86 66.5 -146.5 t172.5 -60.5q105 0 171.5 60.5t66.5 146.5q0 63 -35 110t-84 72v10q43 18 76 59.5t33 102.5q0 90 -65.5 143.5t-162.5 53.5q-98 0 -163.5 -53.5t-65.5 -143.5q0 -61 33 -102t78 -60v-10q-51 -25 -86 -72t-35 -110zM1024 545q0 72 54.5 114.5t131.5 42.5q76 0 130.5 -43 t54.5 -114q0 -70 -54.5 -113t-130.5 -43q-77 0 -131.5 43t-54.5 113zM1034 899q0 68 52.5 106.5t123.5 38.5q72 0 123 -38.5t51 -106.5q0 -70 -51 -108.5t-123 -38.5q-71 0 -123.5 38.5t-52.5 108.5z" />
<glyph unicode="&#x24f3;" d="M164 717q0 238 114.5 434.5t311 311t434.5 114.5t434.5 -114.5t311 -311.5t114.5 -434q0 -238 -114.5 -434.5t-311 -311t-434.5 -114.5t-434.5 114.5t-311 311t-114.5 434.5zM551 915h209v-567h53v737h-53v-57q0 -61 -62 -61h-147v-52zM981 848q0 -100 70.5 -173 t175.5 -73q63 0 114 37h11l-183 -291h56l213 346q41 68 41 154q0 102 -71 175t-177 73t-178 -73t-72 -175zM1034 848q0 84 57.5 140t139.5 56t138 -55t56 -141q0 -84 -56 -139.5t-138 -55.5t-139.5 55.5t-57.5 139.5z" />
<glyph unicode="&#x24f4;" d="M164 717q0 238 114.5 434.5t311 311t434.5 114.5t434.5 -114.5t311 -311.5t114.5 -434q0 -238 -114.5 -434.5t-311 -311t-434.5 -114.5t-434.5 114.5t-311 311t-114.5 434.5zM496 860h53q0 86 50 135t126 49q78 0 121 -44t43 -111q0 -49 -19.5 -87t-68.5 -89l-295 -324 v-41h446v51h-358v11l246 264q53 59 77.5 105t24.5 110q0 92 -59.5 149.5t-157.5 57.5q-102 0 -165.5 -64.5t-63.5 -171.5zM1044 717q0 -182 77 -280.5t192 -98.5q117 0 193.5 98.5t76.5 280.5t-76.5 280.5t-193.5 98.5q-115 0 -192 -98.5t-77 -280.5zM1098 717 q0 150 60.5 238.5t154.5 88.5q96 0 156.5 -89t60.5 -238q0 -150 -60.5 -239t-156.5 -89q-94 0 -154.5 89t-60.5 239z" />
<glyph unicode="&#x24ff;" d="M164 717q0 238 114.5 434.5t311 311t434.5 114.5t434.5 -114.5t311 -311.5t114.5 -434q0 -238 -114.5 -434.5t-311 -311t-434.5 -114.5t-434.5 114.5t-311 311t-114.5 434.5zM756 717q0 -182 76.5 -280.5t191.5 -98.5t191.5 98.5t76.5 280.5t-76.5 280.5t-191.5 98.5 t-191.5 -98.5t-76.5 -280.5zM807 717q0 150 60.5 238.5t156.5 88.5t156.5 -89t60.5 -238q0 -150 -60.5 -239t-156.5 -89t-156.5 89t-60.5 239z" />
<glyph unicode="&#x25fc;" horiz-adv-x="1024" d="M0 0v1024h1024v-1024h-1024z" />
<glyph unicode="&#x2776;" d="M164 717q0 238 114.5 434.5t311 311t434.5 114.5t434.5 -114.5t311 -311.5t114.5 -434q0 -238 -114.5 -434.5t-311 -311t-434.5 -114.5t-434.5 114.5t-311 311t-114.5 434.5zM811 915h209v-567h53v737h-53v-57q0 -61 -62 -61h-147v-52z" />
<glyph unicode="&#x2777;" d="M164 717q0 238 114.5 434.5t311 311t434.5 114.5t434.5 -114.5t311 -311.5t114.5 -434q0 -238 -114.5 -434.5t-311 -311t-434.5 -114.5t-434.5 114.5t-311 311t-114.5 434.5zM797 860h51q0 86 50 135t126 49q78 0 122 -44t44 -111q0 -49 -19.5 -86t-68.5 -90l-295 -324 v-41h444v51h-358v11l246 264q55 57 78.5 103t23.5 112q0 94 -58.5 150.5t-158.5 56.5q-102 0 -164.5 -64.5t-62.5 -171.5z" />
<glyph unicode="&#x2778;" d="M164 717q0 238 114.5 434.5t311 311t434.5 114.5t434.5 -114.5t311 -311.5t114.5 -434q0 -238 -114.5 -434.5t-311 -311t-434.5 -114.5t-434.5 114.5t-311 311t-114.5 434.5zM797 553q0 -92 63.5 -153.5t163.5 -61.5t163.5 57.5t63.5 149.5q0 66 -32.5 113t-88.5 69v10 q57 23 85 67t28 95q0 90 -61.5 143.5t-157.5 53.5q-98 0 -157.5 -58.5t-59.5 -146.5h51q0 68 44 110.5t122 42.5q76 0 121 -37.5t45 -107.5t-48 -107.5t-120 -37.5h-59v-52h59q82 0 130 -42t48 -115q0 -72 -48 -114t-128 -42t-128 46t-48 118h-51z" />
<glyph unicode="&#x2779;" d="M164 717q0 238 114.5 434.5t311 311t434.5 114.5t434.5 -114.5t311 -311.5t114.5 -434q0 -238 -114.5 -434.5t-311 -311t-434.5 -114.5t-434.5 114.5t-311 311t-114.5 434.5zM725 528h338v-180h51v180h121v52h-121v505h-96l-293 -507v-50zM791 580v10l251 436h21v-446 h-272z" />
<glyph unicode="&#x277a;" d="M164 717q0 238 114.5 434.5t311 311t434.5 114.5t434.5 -114.5t311 -311.5t114.5 -434q0 -238 -114.5 -434.5t-311 -311t-434.5 -114.5t-434.5 114.5t-311 311t-114.5 434.5zM776 553q14 -102 82 -158.5t166 -56.5q109 0 178.5 69.5t69.5 178.5t-68.5 177t-177.5 68 q-111 0 -176 -92h-10l28 295h363v51h-404l-41 -393h76q61 88 162 88q88 0 142.5 -53t54.5 -141t-54.5 -142.5t-142.5 -54.5q-80 0 -131 42t-66 122h-51z" />
<glyph unicode="&#x277b;" d="M164 717q0 238 114.5 434.5t311 311t434.5 114.5t434.5 -114.5t311 -311.5t114.5 -434q0 -238 -114.5 -434.5t-311 -311t-434.5 -114.5t-434.5 114.5t-311 311t-114.5 434.5zM776 586q0 -102 71 -175t177 -73t177 72.5t71 175.5q0 102 -69.5 173.5t-176.5 71.5 q-61 0 -113 -36h-10l180 290h-53l-213 -346q-41 -68 -41 -153zM827 586q0 84 57.5 139t139.5 55t139.5 -55t57.5 -139t-57.5 -140.5t-139.5 -56.5t-139.5 56.5t-57.5 140.5z" />
<glyph unicode="&#x277c;" d="M164 717q0 238 114.5 434.5t311 311t434.5 114.5t434.5 -114.5t311 -311.5t114.5 -434q0 -238 -114.5 -434.5t-311 -311t-434.5 -114.5t-434.5 114.5t-311 311t-114.5 434.5zM807 1034h381l-299 -686h51l301 688v49h-434v-51z" />
<glyph unicode="&#x277d;" d="M164 717q0 238 114.5 434.5t311 311t434.5 114.5t434.5 -114.5t311 -311.5t114.5 -434q0 -238 -114.5 -434.5t-311 -311t-434.5 -114.5t-434.5 114.5t-311 311t-114.5 434.5zM786 545q0 -86 66 -146.5t172 -60.5t172 60.5t66 146.5q0 63 -35 110t-84 72v10 q43 18 75.5 59.5t32.5 102.5q0 90 -65.5 143.5t-161.5 53.5t-161.5 -53.5t-65.5 -143.5q0 -61 32.5 -102t75.5 -60v-10q-49 -25 -84 -72t-35 -110zM838 545q0 72 54 114.5t132 42.5t132 -43t54 -114q0 -70 -54 -113t-132 -43t-132 43t-54 113zM848 899q0 68 52 106.5 t124 38.5t124 -38.5t52 -106.5q0 -70 -52 -108.5t-124 -38.5t-124 38.5t-52 108.5z" />
<glyph unicode="&#x277e;" d="M164 717q0 238 114.5 434.5t311 311t434.5 114.5t434.5 -114.5t311 -311.5t114.5 -434q0 -238 -114.5 -434.5t-311 -311t-434.5 -114.5t-434.5 114.5t-311 311t-114.5 434.5zM776 848q0 -102 69.5 -174t176.5 -72q61 0 113 37h10l-180 -291h53l213 346q41 68 41 154 q0 102 -71 175t-177 73t-177 -73t-71 -175zM827 848q0 84 57.5 140t139.5 56t139.5 -56t57.5 -140t-57.5 -139.5t-139.5 -55.5t-139.5 55.5t-57.5 139.5z" />
<glyph unicode="&#x277f;" d="M164 717q0 238 114.5 434.5t311 311t434.5 114.5t434.5 -114.5t311 -311.5t114.5 -434q0 -238 -114.5 -434.5t-311 -311t-434.5 -114.5t-434.5 114.5t-311 311t-114.5 434.5zM520 915h209v-567h53v737h-53v-57q0 -61 -61 -61h-148v-52zM942 717q0 -182 77 -280.5 t191 -98.5q117 0 194 98.5t77 280.5t-77 280.5t-194 98.5q-115 0 -191.5 -98.5t-76.5 -280.5zM995 717q0 150 60.5 238.5t154.5 88.5q96 0 156.5 -89t60.5 -238q0 -150 -60 -239t-157 -89q-94 0 -154.5 89t-60.5 239z" />
<glyph unicode="&#xf730;" horiz-adv-x="1153" d="M100 512q0 156 62.5 276.5t171 188t241.5 67.5q135 0 244 -67.5t171.5 -188t62.5 -276.5t-62.5 -276.5t-171 -188t-244.5 -67.5q-133 0 -241.5 67.5t-171 188t-62.5 276.5zM156 512q0 -141 56 -249.5t152.5 -168t210.5 -59.5q117 0 212.5 59.5t151.5 168t56 249.5 t-56 249.5t-151.5 168t-212.5 59.5q-115 0 -211 -59.5t-152 -168t-56 -249.5z" />
<glyph unicode="&#xf731;" horiz-adv-x="602" d="M51 807v53h240q66 0 65 64v100h56v-1024h-56v807h-305z" />
<glyph unicode="&#xf732;" horiz-adv-x="989" d="M100 696q0 100 48.5 179t135.5 124t199 45q172 0 278.5 -91t106.5 -238q0 -102 -49 -177t-153 -149l-463 -323v-11h665v-55h-757v61l536 381q84 59 124 124t40 149q0 123 -90 198.5t-238 75.5q-141 0 -234 -82t-93 -211h-56z" />
<glyph unicode="&#xf733;" horiz-adv-x="1058" d="M80 -31h57q0 -96 48 -174t134.5 -123t194.5 -45q111 0 197 43t134 122t48 179q0 147 -103.5 232.5t-275.5 85.5h-92v57h92q113 0 193.5 42t122.5 112.5t42 154.5q0 145 -98 238.5t-260 93.5q-104 0 -185 -45t-126 -122t-45 -165h-58q0 102 52.5 191.5t146.5 143.5t215 54 q123 0 217 -50t146.5 -139t52.5 -202q0 -111 -62.5 -196.5t-171.5 -128.5v-11q115 -39 184.5 -129t69.5 -217q0 -117 -55 -208t-153.5 -142t-227.5 -51q-127 0 -226.5 53t-153.5 144.5t-54 201.5z" />
<glyph unicode="&#xf734;" horiz-adv-x="1015" d="M49 0v53l590 971h127v-969h227v-55h-227v-410h-59v410h-658zM121 55h586v906h-41l-545 -895v-11z" />
<glyph unicode="&#xf735;" horiz-adv-x="1095" d="M127 -33h57q14 -109 71.5 -185.5t140.5 -116.5t175 -40q111 0 199 49.5t139.5 141.5t51.5 217t-51.5 217t-139.5 141t-199 49q-96 0 -176 -33.5t-151 -107.5h-88l73 725h711v-55h-657l-66 -609h8q80 70 160 103t197 33q113 0 212 -56.5t160.5 -161t61.5 -245.5 q0 -143 -58.5 -247.5t-159 -160t-227.5 -55.5q-110 0 -206.5 47t-160 136t-77.5 214z" />
<glyph unicode="&#xf736;" horiz-adv-x="1112" d="M100 434q0 172 99 322l442 678h68l-404 -619h6q61 37 119.5 55.5t138.5 18.5q115 0 217.5 -58.5t164 -163t61.5 -233.5q0 -131 -61.5 -234.5t-166 -161.5t-229.5 -58t-228.5 58t-165 161.5t-61.5 234.5zM156 434q0 -115 55 -206t146.5 -142t197.5 -51q107 0 199 51 t146 142t54 206q0 117 -54 208t-146 141.5t-199 50.5q-106 0 -197.5 -50.5t-146.5 -141.5t-55 -208z" />
<glyph unicode="&#xf737;" horiz-adv-x="966" d="M78 969v55h829v-35l-547 -1399h-63l539 1379h-758z" />
<glyph unicode="&#xf738;" horiz-adv-x="1087" d="M111 371q0 133 75.5 226t198.5 138v10q-106 35 -176 124t-70 214q0 100 49.5 185.5t141.5 135.5t215 50t215 -50t141 -135t49 -186q0 -125 -69.5 -214t-175.5 -124v-10q123 -47 198.5 -139t75.5 -225q0 -102 -55.5 -192.5t-154.5 -144.5t-224 -54t-224.5 54t-154.5 144 t-55 193zM166 373q0 -90 49 -168t136 -124t194 -46q106 0 192 46t135.5 124t49.5 168t-49.5 167.5t-135.5 124t-192 46.5t-193.5 -46.5t-136.5 -124t-49 -167.5zM197 1081q0 -86 42 -158.5t120.5 -115.5t185.5 -43q104 0 184 43t122 115.5t42 158.5t-42 159t-122 116 t-184 43q-106 0 -185 -43t-121 -116t-42 -159z" />
<glyph unicode="&#xf739;" horiz-adv-x="1112" d="M100 590q0 131 61.5 234.5t165 161.5t228.5 58t229.5 -58t166 -161.5t61.5 -234.5q0 -170 -99 -322l-442 -678h-68l404 619h-6q-61 -37 -119.5 -55.5t-138.5 -18.5q-115 0 -217.5 58.5t-164 163t-61.5 233.5zM156 590q0 -117 55 -208t146.5 -141.5t197.5 -50.5 q107 0 199 50.5t146 141.5t54 208q0 115 -54 206t-146 142t-199 51q-106 0 -197.5 -51t-146.5 -142t-55 -206z" />
<glyph horiz-adv-x="1245" d="M199 0v1434h59v-1434h-59zM201 1604l160 233h70l-175 -233h-55zM496 0v57h373q59 0 94 38t35 100v1239h59v-1241q0 -88 -50 -140.5t-134 -52.5h-377zM999 1604l160 233h70l-175 -233h-55z" />
<glyph horiz-adv-x="413" d="M157 1358q0 20 14.5 34.5t34.5 14.5t36 -14.5t16 -34.5t-15.5 -35.5t-36.5 -15.5q-20 0 -34.5 15t-14.5 36zM178 0v1024h58v-1024h-58z" />
<glyph horiz-adv-x="827" d="M178 0v1024h58v-1024h-58zM180 1206l160 234h70l-175 -234h-55zM334 -354h154q51 0 77.5 27.5t26.5 78.5v1272h58v-1278q0 -156 -158 -156h-158v56zM594 1206l160 234h70l-175 -234h-55z" />
<glyph horiz-adv-x="1097" d="M35 0l461 1208h106l461 -1208h-64l-133 350h-637l-133 -350h-61zM252 408h594l-281 741h-33z" />
<glyph horiz-adv-x="1153" d="M190 0v1208h463q152 0 245 -89t93 -226q0 -111 -57 -180.5t-131 -98.5v-8q92 -25 150.5 -102.5t58.5 -186.5q0 -139 -90.5 -228t-239.5 -89h-492zM248 57h434q123 0 197.5 73t74.5 187q0 115 -74.5 188t-197.5 73h-434v-521zM248 633h414q121 0 196.5 75.5t75.5 184.5 q0 111 -77 184.5t-204 73.5h-405v-518z" />
<glyph horiz-adv-x="1292" d="M111 604q0 184 74.5 326.5t202.5 220.5t282 78q133 0 241.5 -56.5t180 -150.5t100.5 -205h-62q-41 154 -163.5 254t-296.5 100q-139 0 -253 -71.5t-180.5 -200.5t-66.5 -295t66.5 -295t180 -200.5t253.5 -71.5q172 0 292.5 96t172.5 268h59q-29 -117 -100.5 -212 t-181 -152t-242.5 -57q-158 0 -286 79.5t-200.5 222t-72.5 322.5z" />
<glyph horiz-adv-x="1236" d="M190 0v1208h359q164 0 295 -74.5t205.5 -212t74.5 -317.5t-74.5 -317t-205.5 -212t-295 -75h-359zM248 57h301q145 0 263 68t186.5 191.5t68.5 287.5t-68.5 288t-186.5 191.5t-263 67.5h-301v-1094z" />
<glyph horiz-adv-x="1067" d="M190 0v1208h748v-57h-690v-508h649v-57h-649v-529h690v-57h-748z" />
<glyph horiz-adv-x="1017" d="M190 0v1208h728v-57h-670v-518h637v-58h-637v-575h-58z" />
<glyph horiz-adv-x="1339" d="M111 604q0 180 72.5 322.5t198.5 222.5t280 80q182 0 317 -106.5t190 -274.5h-59q-57 156 -177 239.5t-271 83.5q-135 0 -248 -70.5t-178.5 -199.5t-65.5 -297t65.5 -297t178 -199.5t248.5 -70.5q119 0 225 57.5t170.5 156.5t64.5 216v78h-420v53h478v-598h-45l-11 244 h-10q-72 -125 -192.5 -194.5t-259.5 -69.5q-154 0 -280 79.5t-198.5 222t-72.5 322.5z" />
<glyph horiz-adv-x="1284" d="M190 0v1208h58v-557h788v557h58v-1208h-58v594h-788v-594h-58z" />
<glyph horiz-adv-x="438" d="M190 0v1208h58v-1208h-58z" />
<glyph horiz-adv-x="698" d="M39 0v57h311q53 0 82 32t29 87v1032h59v-1036q0 -80 -45 -126t-119 -46h-317z" />
<glyph horiz-adv-x="995" d="M190 0v1208h58v-575l610 575h78l-627 -594l660 -614h-84l-637 592v-592h-58z" />
<glyph horiz-adv-x="948" d="M190 0v1208h58v-1151h651v-57h-709z" />
<glyph horiz-adv-x="1589" d="M190 0v1208h129l461 -1142h27l463 1142h129v-1208h-60v1139h-34l-459 -1139h-103l-458 1139h-37v-1139h-58z" />
<glyph horiz-adv-x="1284" d="M190 0v1208h117l697 -1140h32v1140h58v-1208h-117l-696 1141h-33v-1141h-58z" />
<glyph horiz-adv-x="1323" d="M111 604q0 184 73.5 326.5t199.5 220.5t278 78t276.5 -78t198 -220.5t73.5 -326.5t-73.5 -326.5t-198.5 -220t-276 -77.5q-152 0 -278 77.5t-199.5 220t-73.5 326.5zM170 604q0 -168 65.5 -297t178 -199.5t248.5 -70.5q135 0 247.5 70.5t178 199.5t65.5 297t-65.5 297 t-178 199.5t-247.5 70.5t-248 -70.5t-178.5 -199.5t-65.5 -297z" />
<glyph horiz-adv-x="1134" d="M190 0v1208h474q164 0 261 -97t97 -255t-97.5 -255t-260.5 -97h-416v-504h-58zM248 561h416q137 0 219 81t82 214t-82 214t-219 81h-416v-590z" />
<glyph horiz-adv-x="1323" d="M111 604q0 184 73.5 326.5t199.5 220.5t278 78t276.5 -78t198 -220.5t73.5 -326.5q0 -143 -46 -263t-130 -206l160 -155h-78l-123 118q-145 -119 -331 -118q-152 0 -278 77.5t-199.5 220t-73.5 326.5zM170 604q0 -168 65.5 -297t178 -199.5t248.5 -70.5q166 0 288 100 l-319 314h78l284 -277q76 76 118 186.5t42 243.5q0 168 -65.5 297t-178 199.5t-247.5 70.5t-248 -70.5t-178.5 -199.5t-65.5 -297z" />
<glyph horiz-adv-x="1144" d="M190 0v1208h474q164 0 261 -97t97 -255t-97.5 -255t-260.5 -97h-154l534 -504h-79l-533 504h-184v-504h-58zM248 561h416q137 0 219 81t82 214t-82 214t-219 81h-416v-590z" />
<glyph horiz-adv-x="1064" d="M100 350h60q0 -88 46 -159.5t132 -112.5t199 -41q172 0 265 71.5t93 202.5q0 96 -61.5 163t-206.5 93l-178 35q-168 33 -243 105.5t-75 199.5q0 90 46 163t135 116t214 43q127 0 222.5 -50.5t145.5 -135.5t50 -185h-59q0 88 -44 160t-125 112.5t-190 40.5 q-156 0 -246 -72.5t-90 -191.5q0 -104 61.5 -162.5t199.5 -85.5l180 -34q324 -61 323 -314q0 -147 -107.5 -239t-309.5 -92q-131 0 -230.5 49t-153 134t-53.5 187z" />
<glyph horiz-adv-x="1030" d="M51 1151v57h928v-57h-434v-1151h-60v1151h-434z" />
<glyph horiz-adv-x="1251" d="M170 473v735h57v-735q0 -129 53.5 -228.5t144.5 -153.5t202 -54t201 54t143 153.5t53 228.5v735h59v-735q0 -150 -60 -261.5t-164.5 -171.5t-231.5 -60t-231.5 60t-165 172t-60.5 261z" />
<glyph horiz-adv-x="1062" d="M39 1208h61l410 -1147h41l412 1147h61l-434 -1208h-117z" />
<glyph horiz-adv-x="1576" d="M49 1208h62l292 -1145h35l293 1145h115l293 -1145h35l292 1145h62l-311 -1208h-121l-291 1137h-33l-291 -1137h-121z" />
<glyph horiz-adv-x="1056" d="M39 0l428 621l-401 587h67l373 -546h45l371 546h69l-401 -587l428 -621h-68l-399 584h-43l-399 -584h-70z" />
<glyph horiz-adv-x="1030" d="M35 1208h65l398 -678h34l398 678h65l-450 -768v-440h-60v440z" />
<glyph horiz-adv-x="1001" d="M90 0v53l748 1098h-738v57h809v-53l-747 -1098h749v-57h-821z" />
<glyph horiz-adv-x="1097" d="M35 0l461 1208h106l461 -1208h-64l-133 350h-637l-133 -350h-61zM252 408h594l-281 741h-33zM520 1352l160 233h70l-175 -233h-55z" />
<glyph horiz-adv-x="1097" d="M35 0l461 1208h106l461 -1208h-64l-133 350h-637l-133 -350h-61zM252 408h594l-281 741h-33zM293 1352l227 231h57l228 -231h-68l-188 192l-189 -192h-67z" />
<glyph horiz-adv-x="1097" d="M35 0l461 1208h106l461 -1208h-64l-133 350h-637l-133 -350h-61zM252 408h594l-281 741h-33zM324 1503q0 20 14.5 35.5t34.5 15.5t35.5 -14t15.5 -37q0 -20 -15 -34.5t-36 -14.5q-20 0 -34.5 14.5t-14.5 34.5zM674 1503q0 23 14.5 37t34.5 14t35 -14t15 -37 q0 -20 -14.5 -34.5t-35.5 -14.5q-20 0 -34.5 14.5t-14.5 34.5z" />
<glyph horiz-adv-x="1097" d="M35 0l461 1208h106l461 -1208h-64l-133 350h-637l-133 -350h-61zM252 408h594l-281 741h-33zM346 1585h70l160 -233h-56z" />
<glyph horiz-adv-x="1097" d="M35 0l461 1208h106l461 -1208h-64l-133 350h-637l-133 -350h-61zM252 408h594l-281 741h-33zM381 1497q0 70 48 119t118 49t119 -48t49 -120q0 -70 -49.5 -118t-118.5 -48q-70 0 -118 48t-48 118zM430 1497q0 -51 33.5 -84t83.5 -33q51 0 84.5 33t33.5 84t-33.5 84 t-84.5 33q-49 0 -83 -33t-34 -84z" />
<glyph horiz-adv-x="1097" d="M35 0l461 1208h106l461 -1208h-64l-133 350h-637l-133 -350h-61zM252 408h594l-281 741h-33zM266 1393q0 78 44 124t118 46q39 0 68.5 -16.5t66.5 -47.5q31 -27 55.5 -41t53.5 -14q55 0 81.5 31.5t26.5 87.5h52q0 -78 -44.5 -124t-115.5 -46q-39 0 -67.5 15t-69.5 48 q-31 27 -55.5 41t-51.5 14q-55 0 -81.5 -31.5t-26.5 -86.5h-54z" />
<glyph horiz-adv-x="1642" d="M14 0l535 1208h964v-57h-690v-508h650v-57h-650v-529h690v-57h-747v367h-528l-162 -367h-62zM262 422h504v729h-184z" />
<glyph horiz-adv-x="1292" d="M111 604q0 184 74.5 326.5t202.5 220.5t282 78q133 0 241.5 -56.5t180 -150.5t100.5 -205h-62q-41 154 -163.5 254t-296.5 100q-139 0 -253 -71.5t-180.5 -200.5t-66.5 -295t66.5 -295t180 -200.5t253.5 -71.5q172 0 292.5 96t172.5 268h59q-29 -115 -100.5 -210 t-178 -153t-239.5 -58l-39 -80q72 -2 111.5 -41t39.5 -97q0 -66 -44 -105.5t-132 -39.5h-59v49h55q63 0 95 25.5t32 72.5t-31.5 73t-95.5 26h-24v37l41 82q-147 10 -264 93t-183.5 220t-66.5 309z" />
<glyph horiz-adv-x="1267" d="M41 578v55h182v575h359q164 0 295 -74.5t205.5 -212t74.5 -317.5t-74.5 -317t-206 -212t-294.5 -75h-359v578h-182zM281 57h301q145 0 263 68t185.5 191.5t67.5 287.5t-67.5 288t-185.5 191.5t-263 67.5h-301v-518h360v-55h-360v-521z" />
<glyph horiz-adv-x="1067" d="M190 0v1208h748v-57h-690v-508h649v-57h-649v-529h690v-57h-748zM545 1352l160 233h70l-175 -233h-55z" />
<glyph horiz-adv-x="1067" d="M190 0v1208h748v-57h-690v-508h649v-57h-649v-529h690v-57h-748zM318 1352l227 231h57l228 -231h-68l-188 192l-189 -192h-67z" />
<glyph horiz-adv-x="1067" d="M190 0v1208h748v-57h-690v-508h649v-57h-649v-529h690v-57h-748zM348 1503q0 20 14.5 35.5t34.5 15.5t35.5 -14t15.5 -37q0 -20 -15 -34.5t-36 -14.5q-20 0 -34.5 14.5t-14.5 34.5zM698 1503q0 23 14.5 37t34.5 14t35 -14t15 -37q0 -20 -14.5 -34.5t-35.5 -14.5 q-20 0 -34.5 14.5t-14.5 34.5z" />
<glyph horiz-adv-x="1067" d="M190 0v1208h748v-57h-690v-508h649v-57h-649v-529h690v-57h-748zM371 1585h70l160 -233h-56z" />
<glyph horiz-adv-x="438" d="M190 0v1208h58v-1208h-58zM190 1352l160 233h70l-175 -233h-55z" />
<glyph horiz-adv-x="438" d="M-36 1352l227 231h57l228 -231h-68l-188 192l-189 -192h-67zM190 0v1208h58v-1208h-58z" />
<glyph horiz-adv-x="438" d="M-4 1503q0 20 14.5 35.5t34.5 15.5t35.5 -14t15.5 -37q0 -20 -15 -34.5t-36 -14.5q-20 0 -34.5 14.5t-14.5 34.5zM190 0v1208h58v-1208h-58zM346 1503q0 23 14.5 37t34.5 14t35 -14t15 -37q0 -20 -14.5 -34.5t-35.5 -14.5q-20 0 -34.5 14.5t-14.5 34.5z" />
<glyph horiz-adv-x="438" d="M18 1585h70l160 -233h-56zM190 0v1208h58v-1208h-58z" />
<glyph horiz-adv-x="1138" d="M190 0v1208h58v-1208h-58zM477 0v57h311q53 0 82 32t29 87v1032h59v-1036q0 -80 -45 -126t-119 -46h-317z" />
<glyph horiz-adv-x="1138" d="M190 0v1208h58v-1208h-58zM190 1352l160 233h70l-175 -233h-55zM477 0v57h311q53 0 82 32t29 87v1032h59v-1036q0 -80 -45 -126t-119 -46h-317zM901 1352l160 233h70l-175 -233h-55z" />
<glyph horiz-adv-x="948" d="M190 0v1208h58v-1151h651v-57h-709zM643 655q0 20 14.5 35.5t35.5 15.5q23 0 37 -14.5t14 -36.5q0 -20 -15.5 -34.5t-35.5 -14.5q-21 0 -35.5 14t-14.5 35z" />
<glyph horiz-adv-x="1284" d="M190 0v1208h117l697 -1140h32v1140h58v-1208h-117l-696 1141h-33v-1141h-58zM360 1393q0 78 44 124t118 46q39 0 68.5 -16.5t66.5 -47.5q31 -27 55.5 -41t53.5 -14q55 0 81.5 31.5t26.5 87.5h52q0 -78 -44.5 -124t-115.5 -46q-39 0 -67.5 15t-69.5 48q-31 27 -55.5 41 t-51.5 14q-55 0 -81.5 -31.5t-26.5 -86.5h-54z" />
<glyph horiz-adv-x="1323" d="M111 604q0 184 73.5 326.5t199.5 220.5t278 78t276.5 -78t198 -220.5t73.5 -326.5t-73.5 -326.5t-198.5 -220t-276 -77.5q-152 0 -278 77.5t-199.5 220t-73.5 326.5zM170 604q0 -168 65.5 -297t178 -199.5t248.5 -70.5q135 0 247.5 70.5t178 199.5t65.5 297t-65.5 297 t-178 199.5t-247.5 70.5t-248 -70.5t-178.5 -199.5t-65.5 -297zM633 1352l160 233h70l-175 -233h-55z" />
<glyph horiz-adv-x="1323" d="M111 604q0 184 73.5 326.5t199.5 220.5t278 78t276.5 -78t198 -220.5t73.5 -326.5t-73.5 -326.5t-198.5 -220t-276 -77.5q-152 0 -278 77.5t-199.5 220t-73.5 326.5zM170 604q0 -168 65.5 -297t178 -199.5t248.5 -70.5q135 0 247.5 70.5t178 199.5t65.5 297t-65.5 297 t-178 199.5t-247.5 70.5t-248 -70.5t-178.5 -199.5t-65.5 -297zM406 1352l227 231h57l228 -231h-68l-188 192l-189 -192h-67z" />
<glyph horiz-adv-x="1323" d="M111 604q0 184 73.5 326.5t199.5 220.5t278 78t276.5 -78t198 -220.5t73.5 -326.5t-73.5 -326.5t-198.5 -220t-276 -77.5q-152 0 -278 77.5t-199.5 220t-73.5 326.5zM170 604q0 -168 65.5 -297t178 -199.5t248.5 -70.5q135 0 247.5 70.5t178 199.5t65.5 297t-65.5 297 t-178 199.5t-247.5 70.5t-248 -70.5t-178.5 -199.5t-65.5 -297zM436 1503q0 20 14.5 35.5t34.5 15.5t35.5 -14t15.5 -37q0 -20 -15 -34.5t-36 -14.5q-20 0 -34.5 14.5t-14.5 34.5zM786 1503q0 23 14.5 37t34.5 14t35 -14t15 -37q0 -20 -14.5 -34.5t-35.5 -14.5 q-20 0 -34.5 14.5t-14.5 34.5z" />
<glyph horiz-adv-x="1323" d="M111 604q0 184 73.5 326.5t199.5 220.5t278 78t276.5 -78t198 -220.5t73.5 -326.5t-73.5 -326.5t-198.5 -220t-276 -77.5q-152 0 -278 77.5t-199.5 220t-73.5 326.5zM170 604q0 -168 65.5 -297t178 -199.5t248.5 -70.5q135 0 247.5 70.5t178 199.5t65.5 297t-65.5 297 t-178 199.5t-247.5 70.5t-248 -70.5t-178.5 -199.5t-65.5 -297zM459 1585h70l160 -233h-56z" />
<glyph horiz-adv-x="1323" d="M111 604q0 184 73.5 326.5t199.5 220.5t278 78q141 0 262 -70l57 111h63l-73 -142q111 -82 175 -218t64 -306q0 -184 -73.5 -326.5t-198.5 -220t-276 -77.5q-141 0 -263 69l-57 -110h-63l73 141q-113 80 -177 216t-64 308zM170 604q0 -155 56.5 -276t152.5 -197l518 979 q-113 61 -235 61q-135 0 -248 -70.5t-178.5 -199.5t-65.5 -297zM426 98q113 -61 236 -61q135 0 247.5 70.5t178 199.5t65.5 297q0 156 -56.5 276.5t-152.5 196.5z" />
<glyph horiz-adv-x="1323" d="M111 604q0 184 73.5 326.5t199.5 220.5t278 78t276.5 -78t198 -220.5t73.5 -326.5t-73.5 -326.5t-198.5 -220t-276 -77.5q-152 0 -278 77.5t-199.5 220t-73.5 326.5zM170 604q0 -168 65.5 -297t178 -199.5t248.5 -70.5q135 0 247.5 70.5t178 199.5t65.5 297t-65.5 297 t-178 199.5t-247.5 70.5t-248 -70.5t-178.5 -199.5t-65.5 -297zM379 1393q0 78 44 124t118 46q39 0 68.5 -16.5t66.5 -47.5q31 -27 55.5 -41t53.5 -14q55 0 81.5 31.5t26.5 87.5h52q0 -78 -44.5 -124t-115.5 -46q-39 0 -67.5 15t-69.5 48q-31 27 -55.5 41t-51.5 14 q-55 0 -81.5 -31.5t-26.5 -86.5h-54z" />
<glyph horiz-adv-x="1984" d="M111 604q0 184 70.5 326.5t191.5 220.5t266 78q160 0 285 -97.5t174 -238.5h10v315h747v-57h-690v-508h650v-57h-650v-529h690v-57h-747v315h-10q-49 -141 -174 -238t-285 -97q-145 0 -266 77.5t-191.5 220t-70.5 326.5zM170 604q0 -166 60.5 -295t168 -200.5 t240.5 -71.5t240.5 71.5t168 200.5t60.5 295t-60.5 295t-168 200.5t-240.5 71.5t-240.5 -71.5t-168 -200.5t-60.5 -295z" />
<glyph horiz-adv-x="1216" d="M190 0v1208h58v-299h553q137 0 226 -84t89 -221t-89 -221t-226 -84h-553v-299h-58zM248 356h553q113 0 184.5 69t71.5 179q0 111 -72 179.5t-184 68.5h-553v-496z" />
<glyph horiz-adv-x="1185" d="M180 0v872q0 158 87 247t237 89h538v-55l-436 -465v-8h88q174 0 277.5 -95.5t103.5 -244.5q0 -98 -46 -175t-133 -121t-204 -44h-155v57h155q152 0 238 80t86 203t-86 204t-238 81h-155v65l432 461h-465q-125 0 -195.5 -75t-70.5 -204v-872h-58z" />
<glyph horiz-adv-x="1251" d="M170 473v735h57v-735q0 -129 53.5 -228.5t144.5 -153.5t202 -54t201 54t143 153.5t53 228.5v735h59v-735q0 -150 -60 -261.5t-164.5 -171.5t-231.5 -60t-231.5 60t-165 172t-60.5 261zM598 1352l160 233h70l-175 -233h-55z" />
<glyph horiz-adv-x="1251" d="M170 473v735h57v-735q0 -129 53.5 -228.5t144.5 -153.5t202 -54t201 54t143 153.5t53 228.5v735h59v-735q0 -150 -60 -261.5t-164.5 -171.5t-231.5 -60t-231.5 60t-165 172t-60.5 261zM371 1352l227 231h57l228 -231h-68l-188 192l-189 -192h-67z" />
<glyph horiz-adv-x="1251" d="M170 473v735h57v-735q0 -129 53.5 -228.5t144.5 -153.5t202 -54t201 54t143 153.5t53 228.5v735h59v-735q0 -150 -60 -261.5t-164.5 -171.5t-231.5 -60t-231.5 60t-165 172t-60.5 261zM401 1503q0 20 14.5 35.5t34.5 15.5t35.5 -14t15.5 -37q0 -20 -15 -34.5t-36 -14.5 q-20 0 -34.5 14.5t-14.5 34.5zM751 1503q0 23 14.5 37t34.5 14t35 -14t15 -37q0 -20 -14.5 -34.5t-35.5 -14.5q-20 0 -34.5 14.5t-14.5 34.5z" />
<glyph horiz-adv-x="1251" d="M170 473v735h57v-735q0 -129 53.5 -228.5t144.5 -153.5t202 -54t201 54t143 153.5t53 228.5v735h59v-735q0 -150 -60 -261.5t-164.5 -171.5t-231.5 -60t-231.5 60t-165 172t-60.5 261zM424 1585h70l160 -233h-56z" />
<glyph horiz-adv-x="1030" d="M35 1208h65l398 -678h34l398 678h65l-450 -768v-440h-60v440zM487 1352l160 233h70l-175 -233h-55z" />
<glyph horiz-adv-x="1030" d="M35 1208h65l398 -678h34l398 678h65l-450 -768v-440h-60v440zM291 1503q0 20 14.5 35.5t34.5 15.5t35.5 -14t15.5 -37q0 -20 -15 -34.5t-36 -14.5q-20 0 -34.5 14.5t-14.5 34.5zM641 1503q0 23 14.5 37t34.5 14t35 -14t15 -37q0 -20 -14.5 -34.5t-35.5 -14.5 q-20 0 -34.5 14.5t-14.5 34.5z" />
<glyph horiz-adv-x="2439" d="M35 0l543 1434h106l518 -1375h35l520 1375h105l542 -1434h-59l-160 422h-751l-160 -422h-109l-159 422h-752l-160 -422h-59zM276 479h709l-338 895h-33zM1454 479h711l-338 895h-35z" />
<glyph horiz-adv-x="2138" d="M199 0v1434h59v-1377h674l522 1377h105l542 -1434h-59l-160 422h-752l-159 -422h-772zM1151 479h711l-338 895h-35z" />
<glyph horiz-adv-x="2254" d="M51 1376v58h1114l475 -811h41l473 811h66l-530 -910v-524h-60v524l-495 852h-510v-1376h-60v1376h-514z" />
<glyph horiz-adv-x="1126" d="M70 969v55h163v213q0 156 158 156h137v-56h-133q-51 0 -78.5 -27.5t-27.5 -78.5v-207h399v287h57v-287h281v-55h-281v-805q0 -51 29 -80t80 -29h172v-55h-174q-80 0 -122 41t-42 121v807h-399v-969h-56v969h-163z" />
<glyph horiz-adv-x="1382" d="M70 969v55h163v213q0 156 158 156h158v-56h-154q-51 0 -78.5 -27.5t-27.5 -78.5v-207h274l350 -938h41l330 938h59l-469 -1317q-25 -68 -62.5 -92.5t-104.5 -24.5h-117v56h115q53 0 77.5 21.5t44.5 74.5l78 215l-383 1012h-233v-969h-56v969h-163z" />
<glyph horiz-adv-x="1509" d="M178 0v1024h45l13 -102h10q37 57 83 79.5t111 22.5h250l352 -938h39l330 938h62l-472 -1317q-25 -68 -62.5 -92.5t-104.5 -24.5h-117v56h114q55 0 79 21.5t44 74.5l78 215l-383 1012h-207q-98 0 -152 -61.5t-54 -164.5v-743h-58z" />
<glyph horiz-adv-x="1153" d="M70 969v55h163v287h56v-287h399v287h57v-287h308v-55h-308v-807q0 -51 28 -79t79 -28h174v-55h-178q-78 0 -119 40t-41 116v813h-399v-807q0 -51 27.5 -79t78.5 -28h150v-55h-154q-158 0 -158 156v813h-163z" />
<glyph horiz-adv-x="1445" d="M70 969v55h163v287h56v-287h340l350 -938h39l330 938h61l-469 -1317q-25 -68 -62.5 -92.5t-107.5 -24.5h-117v56h117q53 0 77.5 21.5t45.5 74.5l76 215l-381 1012h-299v-807q0 -51 27.5 -79t78.5 -28h174v-55h-178q-158 0 -158 156v813h-163z" />
<glyph horiz-adv-x="1583" d="M70 969v55h163v213q0 156 158 156h158v-56h-154q-51 0 -78.5 -27.5t-27.5 -78.5v-207h399v213q0 76 41 116t119 40h137v-56h-133q-51 0 -79 -27.5t-28 -78.5v-207h400v287h57v-287h281v-55h-281v-805q0 -51 29 -80t80 -29h172v-55h-174q-80 0 -122 41t-42 121v807h-400 v-969h-57v969h-399v-969h-56v969h-163z" />
<glyph horiz-adv-x="1839" d="M70 969v55h163v213q0 156 158 156h158v-56h-154q-51 0 -78.5 -27.5t-27.5 -78.5v-207h399v213q0 76 41 116t119 40h158v-56h-154q-51 0 -79 -27.5t-28 -78.5v-207h275l350 -938h39l332 938h59l-469 -1317q-25 -68 -62.5 -92.5t-105.5 -24.5h-116v56h114q53 0 78 21.5 t45 74.5l76 215l-381 1012h-234v-969h-57v969h-399v-969h-56v969h-163z" />
<glyph horiz-adv-x="1902" d="M70 969v55h163v213q0 156 158 156h137v-56h-133q-51 0 -78.5 -27.5t-27.5 -78.5v-207h399v287h57v-287h338l353 -938h39l329 938h62l-471 -1317q-25 -68 -63 -92.5t-105 -24.5h-117v56h117q53 0 77.5 21.5t43.5 74.5l77 215l-381 1012h-299v-807q0 -51 28 -79t79 -28h174 v-55h-178q-78 0 -119 40t-41 116v813h-399v-969h-56v969h-163z" />
<glyph horiz-adv-x="1902" d="M70 969v55h163v287h56v-287h399v287h57v-287h338l353 -938h39l329 938h62l-471 -1317q-25 -68 -63 -92.5t-105 -24.5h-117v56h117q53 0 77.5 21.5t43.5 74.5l77 215l-381 1012h-299v-807q0 -51 28 -79t79 -28h174v-55h-178q-78 0 -119 40t-41 116v813h-399v-807 q0 -51 27.5 -79t78.5 -28h150v-55h-154q-158 0 -158 156v813h-163z" />
<glyph horiz-adv-x="1548" d="M129 717q0 215 86 383t235.5 261t329.5 93q205 0 369 -120t231 -330h-61q-66 186 -213.5 289.5t-325.5 103.5q-166 0 -301 -85t-214 -239.5t-79 -355.5t79 -355.5t214 -239.5t301 -85t293 74.5t197.5 214t70.5 329.5h-512v56h572v-54q0 -209 -79 -362.5t-220 -234 t-322 -80.5q-180 0 -329.5 93t-235.5 261t-86 383z" />
<glyph horiz-adv-x="1558" d="M129 717q0 215 86 383t235.5 261t329.5 93t328.5 -93t236 -261t87.5 -383t-87.5 -383t-235.5 -261t-329 -93q-180 0 -329.5 93t-235.5 261t-86 383zM186 717q0 -201 79 -355.5t214 -239.5t301 -85q164 0 299 85t214 239.5t79 355.5t-79 355.5t-214 239.5t-299 85 q-166 0 -301 -85t-214 -239.5t-79 -355.5zM705 -154h579v-57h-579v57z" />
<glyph horiz-adv-x="1169" d="M100 512q0 160 58.5 280.5t160 186t226.5 65.5q240 0 379 -251h10l12 231h45v-1024h-45l-12 231h-10q-139 -252 -379 -251q-125 0 -226.5 65.5t-160 186t-58.5 280.5zM156 512q0 -143 53 -251.5t142 -167t194 -58.5q102 0 191 58.5t143.5 167t54.5 251.5t-54.5 251.5 t-143.5 167t-191 58.5q-104 0 -193.5 -58.5t-142.5 -167t-53 -251.5z" />
<glyph horiz-adv-x="1169" d="M100 512q0 160 58.5 280.5t160 186t226.5 65.5q240 0 379 -251h10l12 231h45v-1024h-45l-12 231h-10q-139 -252 -379 -251q-125 0 -226.5 65.5t-160 186t-58.5 280.5zM156 512q0 -143 53 -251.5t142 -167t194 -58.5q102 0 191 58.5t143.5 167t54.5 251.5t-54.5 251.5 t-143.5 167t-191 58.5q-104 0 -193.5 -58.5t-142.5 -167t-53 -251.5zM557 1206l160 234h70l-175 -234h-55z" />
<glyph horiz-adv-x="1169" d="M100 512q0 160 58.5 280.5t160 186t226.5 65.5q240 0 379 -251h10l12 231h45v-1024h-45l-12 231h-10q-139 -252 -379 -251q-125 0 -226.5 65.5t-160 186t-58.5 280.5zM156 512q0 -143 53 -251.5t142 -167t194 -58.5q102 0 191 58.5t143.5 167t54.5 251.5t-54.5 251.5 t-143.5 167t-191 58.5q-104 0 -193.5 -58.5t-142.5 -167t-53 -251.5zM330 1206l227 232h57l228 -232h-68l-188 193l-189 -193h-67z" />
<glyph horiz-adv-x="1169" d="M100 512q0 160 58.5 280.5t160 186t226.5 65.5q240 0 379 -251h10l12 231h45v-1024h-45l-12 231h-10q-139 -252 -379 -251q-125 0 -226.5 65.5t-160 186t-58.5 280.5zM156 512q0 -143 53 -251.5t142 -167t194 -58.5q102 0 191 58.5t143.5 167t54.5 251.5t-54.5 251.5 t-143.5 167t-191 58.5q-104 0 -193.5 -58.5t-142.5 -167t-53 -251.5zM360 1358q0 20 14.5 34.5t34.5 14.5t35.5 -14.5t15.5 -34.5t-15 -35.5t-36 -15.5q-20 0 -34.5 15t-14.5 36zM710 1358q0 20 14.5 34.5t34.5 14.5t35 -14.5t15 -34.5q0 -23 -14.5 -37t-35.5 -14 q-20 0 -34.5 14t-14.5 37z" />
<glyph horiz-adv-x="1169" d="M100 512q0 160 58.5 280.5t160 186t226.5 65.5q240 0 379 -251h10l12 231h45v-1024h-45l-12 231h-10q-139 -252 -379 -251q-125 0 -226.5 65.5t-160 186t-58.5 280.5zM156 512q0 -143 53 -251.5t142 -167t194 -58.5q102 0 191 58.5t143.5 167t54.5 251.5t-54.5 251.5 t-143.5 167t-191 58.5q-104 0 -193.5 -58.5t-142.5 -167t-53 -251.5zM393 1440h70l160 -234h-56z" />
<glyph horiz-adv-x="1169" d="M100 512q0 160 58.5 280.5t160 186t226.5 65.5q240 0 379 -251h10l12 231h45v-1024h-45l-12 231h-10q-139 -252 -379 -251q-125 0 -226.5 65.5t-160 186t-58.5 280.5zM156 512q0 -143 53 -251.5t142 -167t194 -58.5q102 0 191 58.5t143.5 167t54.5 251.5t-54.5 251.5 t-143.5 167t-191 58.5q-104 0 -193.5 -58.5t-142.5 -167t-53 -251.5zM418 1352q0 70 48 118t118 48q72 0 120 -48.5t48 -117.5q0 -70 -48.5 -118t-119.5 -48q-70 0 -118 48t-48 118zM467 1352q0 -51 33.5 -84t83.5 -33q51 0 84.5 32.5t33.5 84.5q0 51 -33.5 83.5t-84.5 32.5 q-49 0 -83 -32.5t-34 -83.5z" />
<glyph horiz-adv-x="1169" d="M100 512q0 160 58.5 280.5t160 186t226.5 65.5q240 0 379 -251h10l12 231h45v-1024h-45l-12 231h-10q-139 -252 -379 -251q-125 0 -226.5 65.5t-160 186t-58.5 280.5zM156 512q0 -143 53 -251.5t142 -167t194 -58.5q102 0 191 58.5t143.5 167t54.5 251.5t-54.5 251.5 t-143.5 167t-191 58.5q-104 0 -193.5 -58.5t-142.5 -167t-53 -251.5zM303 1247q0 78 44 123t118 45q39 0 68.5 -16.5t66.5 -46.5q33 -27 56.5 -40.5t52.5 -13.5q55 0 81.5 31t26.5 86h52q0 -78 -44.5 -123t-115.5 -45q-39 0 -67.5 15.5t-69.5 48.5q-33 27 -56.5 40t-50.5 13 q-109 0 -108 -117h-54z" />
<glyph horiz-adv-x="1169" d="M100 543q0 145 58.5 260t160 178t226.5 63q123 0 224 -65.5t155 -183.5h10l12 229h45v-1128q0 -158 -73.5 -232t-233.5 -74h-397v56h395q135 0 193.5 60.5t58.5 193.5v389h-10q-53 -119 -154.5 -183.5t-224.5 -64.5q-125 0 -226.5 63.5t-160 178t-58.5 260.5zM156 543 q0 -131 51 -232.5t140 -158t198 -56.5q110 0 198 56.5t139.5 158t51.5 232.5t-51.5 232.5t-139.5 157.5t-198 56q-109 0 -198 -56t-140 -157.5t-51 -232.5z" />
<glyph horiz-adv-x="524" d="M188 156v1278h58v-1272q0 -51 27.5 -79t76.5 -28h154v-55h-158q-78 0 -118 40t-40 116z" />
<glyph horiz-adv-x="606" d="M188 156v1278h58v-1272q0 -51 27.5 -79t76.5 -28h154v-55h-158q-78 0 -118 40t-40 116zM471 727q0 20 14.5 35.5t35.5 15.5q23 0 37 -14.5t14 -36.5q0 -20 -15.5 -34.5t-35.5 -14.5q-21 0 -35.5 14t-14.5 35z" />
<glyph horiz-adv-x="917" d="M39 1024h59l351 -938h38l332 938h60l-512 -1434h-60l131 367z" />
<glyph horiz-adv-x="917" d="M39 1024h59l351 -938h38l332 938h60l-512 -1434h-60l131 367zM442 1206l160 234h70l-175 -234h-55z" />
<glyph horiz-adv-x="917" d="M39 1024h59l351 -938h38l332 938h60l-512 -1434h-60l131 367zM246 1358q0 20 14.5 34.5t34.5 14.5t35.5 -14.5t15.5 -34.5t-15 -35.5t-36 -15.5q-20 0 -34.5 15t-14.5 36zM596 1358q0 20 14.5 34.5t34.5 14.5t35 -14.5t15 -34.5q0 -23 -14.5 -37t-35.5 -14 q-20 0 -34.5 14t-14.5 37z" />
<glyph horiz-adv-x="1159" d="M170 410v614h57v-614q0 -168 94.5 -271.5t243.5 -103.5q98 0 180 49t130.5 135t48.5 191v614h57v-1128q0 -158 -75 -232t-232 -74h-400v56h396q137 0 195.5 60.5t58.5 193.5v293h-11q-37 -82 -132 -147.5t-220 -65.5q-113 0 -202 51t-139 148t-50 231z" />
<glyph horiz-adv-x="1159" d="M170 410v614h57v-614q0 -168 94.5 -271.5t243.5 -103.5q98 0 180 49t130.5 135t48.5 191v614h57v-1128q0 -158 -75 -232t-232 -74h-400v56h396q137 0 195.5 60.5t58.5 193.5v293h-11q-37 -82 -132 -147.5t-220 -65.5q-113 0 -202 51t-139 148t-50 231zM553 1206l160 234 h70l-175 -234h-55z" />
<glyph horiz-adv-x="1159" d="M170 410v614h57v-614q0 -168 94.5 -271.5t243.5 -103.5q98 0 180 49t130.5 135t48.5 191v614h57v-1128q0 -158 -75 -232t-232 -74h-400v56h396q137 0 195.5 60.5t58.5 193.5v293h-11q-37 -82 -132 -147.5t-220 -65.5q-113 0 -202 51t-139 148t-50 231zM356 1358 q0 20 14.5 34.5t34.5 14.5t35.5 -14.5t15.5 -34.5t-15 -35.5t-36 -15.5q-20 0 -34.5 15t-14.5 36zM706 1358q0 20 14.5 34.5t34.5 14.5t35 -14.5t15 -34.5q0 -23 -14.5 -37t-35.5 -14q-20 0 -34.5 14t-14.5 37z" />
<glyph horiz-adv-x="2103" d="M35 0l461 1208h106l436 -1151h27l438 1151h105l460 -1208h-61l-133 350h-637l-133 -350h-105l-133 350h-637l-133 -350h-61zM252 408h594l-281 741h-33zM1257 408h596l-280 741h-35z" />
<glyph horiz-adv-x="1855" d="M190 0v1208h58v-1151h567l438 1151h107l461 -1208h-64l-133 350h-637l-133 -350h-664zM1010 408h594l-281 741h-33z" />
<glyph horiz-adv-x="1933" d="M51 1151v57h953l399 -678h33l397 678h65l-450 -768v-440h-57v440l-418 711h-428v-1151h-60v1151h-434z" />
<glyph horiz-adv-x="1312" d="M139 717q0 223 65.5 390t182.5 257t270 90q152 0 269.5 -90t183.5 -257t66 -390t-66 -390t-183.5 -257t-269.5 -90q-154 0 -270.5 90t-182 257t-65.5 390zM197 717q0 -197 53 -346l792 743q-59 135 -159.5 209t-225.5 74q-133 0 -237.5 -82t-163.5 -236.5t-59 -361.5z M270 319q59 -135 160.5 -208.5t226.5 -73.5q134 0 238 82t162.5 236.5t58.5 361.5q0 197 -53 344z" />
<glyph horiz-adv-x="1112" d="M39 717q0 223 65.5 390t182.5 257t270 90q152 0 269.5 -90t183.5 -257t66 -390t-66 -390t-183.5 -257t-269.5 -90q-153 0 -270 90t-182.5 257t-65.5 390zM97 717q0 -207 59 -361.5t163.5 -236.5t237.5 -82q134 0 238 82t162.5 236.5t58.5 361.5t-58.5 361.5t-162.5 236.5 t-238 82q-133 0 -237.5 -82t-163.5 -236.5t-59 -361.5z" />
<glyph horiz-adv-x="1112" d="M205 0v57h368v1157h-368v56h305q63 0 63 63v101h60v-1377h368v-57h-796z" />
<glyph horiz-adv-x="1112" d="M145 993q0 131 52.5 236.5t144.5 165t209 59.5q119 0 211 -54t143 -151.5t51 -224.5q0 -119 -37.5 -205t-119.5 -174l-555 -577v-11h743v-57h-831v53l602 635q78 82 109.5 154.5t31.5 181.5q0 164 -96 268.5t-252 104.5q-100 0 -179 -53.5t-123 -145.5t-44 -205h-60z" />
<glyph horiz-adv-x="1112" d="M98 379h58q0 -96 49 -174t135 -123t195 -45t194.5 43t133.5 122t48 179q0 147 -102 232t-274 85h-93v58h93q166 0 261 90t95 227q0 90 -44 165t-125 117t-187 42q-104 0 -186.5 -45t-127.5 -122t-45 -165h-57q0 102 52 192.5t147.5 143.5t216.5 53t216 -50t147 -137 t52 -194q0 -244 -243 -342v-8q119 -37 191.5 -124t72.5 -218q0 -117 -55.5 -208t-154.5 -142t-226 -51t-226.5 53t-155 144t-55.5 202z" />
<glyph horiz-adv-x="1112" d="M76 371v53l590 1010h125v-1006h229v-57h-229v-371h-58v371h-657zM150 428h583v940h-41l-542 -930v-10z" />
<glyph horiz-adv-x="1112" d="M135 379h60q23 -160 133 -251t254 -91q111 0 198.5 49t139 141t51.5 217t-51.5 217.5t-139.5 141.5t-198 49q-98 0 -177 -34t-151 -107h-88l74 723h714v-58h-659l-66 -604h9q80 72 158.5 104.5t197.5 32.5q113 0 212 -56t160.5 -161.5t61.5 -247.5q0 -143 -58.5 -248.5 t-159.5 -160.5t-228 -55q-111 0 -207 47t-160.5 137t-79.5 215z" />
<glyph horiz-adv-x="1112" d="M100 434q0 172 99 322l442 678h68l-402 -621h6q61 37 118.5 55.5t137.5 18.5q115 0 217.5 -58.5t164 -162t61.5 -232.5q0 -131 -61.5 -234.5t-166 -161.5t-229.5 -58t-228.5 58t-165 161.5t-61.5 234.5zM158 434q0 -115 55 -206t146.5 -141t195.5 -50q107 0 198 50 t146 141t55 206t-55 206t-146 141t-198 50q-104 0 -195.5 -50t-146.5 -141t-55 -206z" />
<glyph horiz-adv-x="1112" d="M78 1376v58h831v-37l-549 -1397h-63l541 1376h-760z" />
<glyph horiz-adv-x="1112" d="M137 371q0 133 78 226t201 136v8q-109 39 -178.5 126t-69.5 214q0 100 49 185.5t141.5 136.5t214.5 51q123 0 215.5 -51t141.5 -136t49 -186q0 -127 -69.5 -214t-178.5 -126v-8q123 -43 201 -136t78 -226q0 -102 -55.5 -192.5t-155 -144.5t-226.5 -54t-226 54t-154.5 144 t-55.5 193zM197 373q0 -90 49 -167t135 -123t192 -46q107 0 193 46t135 123t49 167t-49 166.5t-135 123t-193 46.5q-106 0 -192 -46.5t-135 -123t-49 -166.5zM227 1081q0 -137 93.5 -226t252.5 -89q160 0 253.5 89t93.5 226q0 86 -42 158t-121 115t-184 43q-104 0 -183 -43 t-121 -115t-42 -158z" />
<glyph horiz-adv-x="1112" d="M100 999q0 131 61.5 234.5t165 162t228.5 58.5t229.5 -58.5t166 -162t61.5 -234.5q0 -170 -99 -321l-442 -678h-68l402 621h-6q-61 -37 -118.5 -55.5t-137.5 -18.5q-115 0 -217.5 58.5t-164 161.5t-61.5 232zM158 999q0 -115 55 -206t146.5 -141t195.5 -50q107 0 198 50 t146 141.5t55 205.5q0 115 -55 206t-146 141.5t-198 50.5q-104 0 -195.5 -50.5t-146.5 -141.5t-55 -206z" />
<glyph horiz-adv-x="743" d="M80 1126q0 90 38 166t102.5 119t139.5 43q72 0 130.5 -38t91.5 -97h10l10 125h41v-635h-41l-10 125h-10q-33 -59 -91.5 -97t-130.5 -38q-75 0 -139.5 43t-102.5 118.5t-38 165.5zM133 1126q0 -74 31 -137t83 -101t113 -38q97 0 163.5 79t66.5 197q0 119 -66.5 198 t-163.5 79q-61 0 -113 -38t-83 -101.5t-31 -137.5z" />
<glyph horiz-adv-x="698" d="M80 1065q0 182 76.5 280.5t193.5 98.5q115 0 191.5 -98.5t76.5 -280.5t-76.5 -280.5t-191.5 -98.5q-117 0 -193.5 98t-76.5 281zM133 1065q0 -150 60.5 -239t156.5 -89q94 0 154.5 89t60.5 239t-60.5 238.5t-154.5 88.5q-96 0 -156.5 -89t-60.5 -238z" />
<glyph horiz-adv-x="514" d="M80 1263v52h147q61 0 62 61v57h53v-737h-53v567h-209z" />
<glyph horiz-adv-x="667" d="M111 1208q0 106 63.5 171t165.5 65q98 0 157.5 -57.5t59.5 -149.5q0 -63 -24.5 -109.5t-77.5 -105.5l-246 -264v-11h358v-51h-446v41l297 324q47 53 66.5 90t19.5 86q0 68 -43 111.5t-121 43.5q-76 0 -126 -49t-50 -135h-53z" />
<glyph horiz-adv-x="651" d="M92 901h53q0 -72 48.5 -118t125.5 -46q82 0 129.5 42t47.5 114q0 74 -47.5 115.5t-129.5 41.5h-61v52h61q72 0 119 37.5t47 107.5t-45 107.5t-121 37.5q-78 0 -120.5 -43t-42.5 -110h-54q0 86 59.5 145.5t157.5 59.5t160 -53.5t62 -143.5q0 -51 -29 -95t-84 -67v-10 q55 -23 88 -70t33 -112q0 -92 -63.5 -149.5t-166.5 -57.5q-98 0 -162.5 61.5t-64.5 153.5z" />
<glyph horiz-adv-x="593" d="M12 876v49l295 508h96v-505h121v-52h-121v-180h-53v180h-338zM80 928h270v446h-20l-250 -436v-10z" />
<glyph horiz-adv-x="667" d="M90 901h51q14 -80 65.5 -122t131.5 -42q88 0 142.5 54.5t54.5 142.5t-54.5 141t-142.5 53q-100 0 -162 -88h-76l41 393h404v-51h-363l-28 -295h10q66 92 176 92q109 0 177.5 -68.5t68.5 -176.5q0 -109 -70 -178.5t-178 -69.5q-98 0 -166 56.5t-82 158.5z" />
<glyph horiz-adv-x="626" d="M63 934q0 86 41 153l215 346h54l-180 -290h10q51 37 112 36q106 0 176 -71.5t70 -173.5t-70.5 -175t-177.5 -73q-106 0 -178 72.5t-72 175.5zM117 934q0 -84 57 -140.5t139 -56.5t139.5 56.5t57.5 140.5t-57.5 139t-139.5 55t-139 -55t-57 -139z" />
<glyph horiz-adv-x="595" d="M102 1382v51h437v-49l-301 -688h-54l301 686h-383z" />
<glyph horiz-adv-x="677" d="M100 893q0 63 35 110t86 72v10q-45 18 -77.5 59.5t-32.5 102.5q0 90 65.5 143.5t163.5 53.5q96 0 161.5 -53.5t65.5 -143.5q0 -61 -32.5 -102t-75.5 -60v-10q49 -25 84 -72t35 -110q0 -86 -67 -146.5t-171 -60.5q-107 0 -173.5 60.5t-66.5 146.5zM154 893q0 -70 54 -113 t132 -43q76 0 130 43t54 113q0 72 -54 114.5t-130 42.5q-78 0 -132 -43t-54 -114zM164 1247q0 -70 52 -108.5t124 -38.5t123 38.5t51 108.5q0 68 -51 106.5t-123 38.5t-124 -38.5t-52 -106.5z" />
<glyph horiz-adv-x="626" d="M63 1196q0 102 72 175t178 73t177 -73t71 -175q0 -86 -41 -154l-213 -346h-53l180 291h-10q-51 -37 -115 -37q-104 0 -175 72.5t-71 173.5zM117 1196q0 -84 57 -139.5t139 -55.5t139.5 55.5t57.5 139.5t-57.5 140t-139.5 56t-139 -56t-57 -140z" />
<glyph horiz-adv-x="593" d="M80 1065q0 113 58.5 186.5t146.5 79.5v103h53v-103q63 -6 114.5 -53t71.5 -123h-53q-20 57 -61 92t-99 35q-76 0 -127 -58.5t-51 -158.5t51.5 -158.5t126.5 -58.5q51 0 96.5 33.5t63.5 101.5h53q-20 -82 -71.5 -130t-114.5 -54v-103h-53v103q-88 6 -146.5 79.5 t-58.5 186.5z" />
<glyph horiz-adv-x="649" d="M70 922h53q0 -74 56.5 -129.5t148.5 -55.5q86 0 141 40t55 116q0 104 -147 137l-98 23q-98 23 -147.5 68.5t-49.5 125.5q0 84 58.5 136.5t152.5 58.5v114h53v-112q104 -8 166.5 -72.5t62.5 -157.5h-51q0 72 -55 125.5t-150 53.5q-82 0 -133 -43t-51 -103q0 -57 35 -92 t113 -51l98 -21q98 -20 146 -66t48 -124q0 -96 -63 -149.5t-166 -57.5v-113h-53v115q-106 8 -164.5 72.5t-58.5 161.5z" />
<glyph horiz-adv-x="643" d="M20 961v47h84q-4 37 -4 57t4 57h-84v47h91q31 133 124 204t197 71q61 0 103.5 -12.5t89.5 -38.5v-52q-47 25 -90 38.5t-103 13.5q-86 0 -162.5 -57.5t-103.5 -166.5h301v-47h-309q-4 -37 -4 -57t4 -57h309v-47h-301q27 -109 103.5 -166.5t162.5 -57.5q59 0 102.5 13.5 t90.5 37.5v-51q-47 -27 -89 -39t-104 -12q-104 0 -197.5 70.5t-123.5 204.5h-91z" />
<glyph horiz-adv-x="616" d="M61 1030v51h82v136q0 100 59.5 163.5t147.5 63.5q86 0 145.5 -61.5t59.5 -153.5h-51q0 72 -44 118t-110 46t-109.5 -48.5t-43.5 -127.5v-136h215v-51h-215v-201q0 -63 -29 -81h387v-52h-492v52h17q63 0 63 81v201h-82z" />
<glyph horiz-adv-x="571" d="M23 1434h61l199 -402h4l200 402h62l-203 -402h123v-49h-158v-70h158v-49h-158v-168h-53v168h-156v49h156v70h-156v49h121z" />
<glyph horiz-adv-x="698" d="M80 369q0 182 76.5 280.5t193.5 98.5q115 0 191.5 -98.5t76.5 -280.5t-76.5 -280.5t-191.5 -98.5q-117 0 -193.5 98t-76.5 281zM133 369q0 -150 60.5 -239t156.5 -89q94 0 154.5 89t60.5 239t-60.5 238.5t-154.5 88.5q-96 0 -156.5 -89t-60.5 -238z" />
<glyph horiz-adv-x="514" d="M80 567v52h147q61 0 62 61v57h53v-737h-53v567h-209z" />
<glyph horiz-adv-x="667" d="M111 512q0 106 63.5 171t165.5 65q98 0 157.5 -57.5t59.5 -149.5q0 -63 -24.5 -109.5t-77.5 -105.5l-246 -264v-11h358v-51h-446v41l297 324q47 53 66.5 90t19.5 86q0 68 -43 111.5t-121 43.5q-76 0 -126 -49t-50 -135h-53z" />
<glyph horiz-adv-x="651" d="M92 205h53q0 -72 48.5 -118t125.5 -46q82 0 129.5 42t47.5 114q0 74 -47.5 115.5t-129.5 41.5h-61v52h61q72 0 119 37.5t47 107.5t-45 107.5t-121 37.5q-78 0 -120.5 -43t-42.5 -110h-54q0 86 59.5 145.5t157.5 59.5t160 -53.5t62 -143.5q0 -51 -29 -95t-84 -67v-10 q55 -23 88 -70t33 -112q0 -92 -63.5 -149.5t-166.5 -57.5q-98 0 -162.5 61.5t-64.5 153.5z" />
<glyph horiz-adv-x="593" d="M12 180v49l295 508h96v-505h121v-52h-121v-180h-53v180h-338zM80 232h270v446h-20l-250 -436v-10z" />
<glyph horiz-adv-x="667" d="M90 205h51q14 -80 65.5 -122t131.5 -42q88 0 142.5 54.5t54.5 142.5t-54.5 141t-142.5 53q-100 0 -162 -88h-76l41 393h404v-51h-363l-28 -295h10q66 92 176 92q109 0 177.5 -68.5t68.5 -176.5q0 -109 -70 -178.5t-178 -69.5q-98 0 -166 56.5t-82 158.5z" />
<glyph horiz-adv-x="626" d="M63 238q0 86 41 153l215 346h54l-180 -290h10q51 37 112 36q106 0 176 -71.5t70 -173.5t-70.5 -175t-177.5 -73q-106 0 -178 72.5t-72 175.5zM117 238q0 -84 57 -140.5t139 -56.5t139.5 56.5t57.5 140.5t-57.5 139t-139.5 55t-139 -55t-57 -139z" />
<glyph horiz-adv-x="595" d="M102 686v51h437v-49l-301 -688h-54l301 686h-383z" />
<glyph horiz-adv-x="677" d="M100 197q0 63 35 110t86 72v10q-45 18 -77.5 59.5t-32.5 102.5q0 90 65.5 143.5t163.5 53.5q96 0 161.5 -53.5t65.5 -143.5q0 -61 -32.5 -102t-75.5 -60v-10q49 -25 84 -72t35 -110q0 -86 -67 -146.5t-171 -60.5q-107 0 -173.5 60.5t-66.5 146.5zM154 197q0 -70 54 -113 t132 -43q76 0 130 43t54 113q0 72 -54 114.5t-130 42.5q-78 0 -132 -43t-54 -114zM164 551q0 -70 52 -108.5t124 -38.5t123 38.5t51 108.5q0 68 -51 106.5t-123 38.5t-124 -38.5t-52 -106.5z" />
<glyph horiz-adv-x="626" d="M63 500q0 102 72 175t178 73t177 -73t71 -175q0 -86 -41 -154l-213 -346h-53l180 291h-10q-51 -37 -115 -37q-104 0 -175 72.5t-71 173.5zM117 500q0 -84 57 -139.5t139 -55.5t139.5 55.5t57.5 139.5t-57.5 140t-139.5 56t-139 -56t-57 -140z" />
<glyph horiz-adv-x="593" d="M80 369q0 113 58.5 186.5t146.5 79.5v103h53v-103q63 -6 114.5 -53t71.5 -123h-53q-20 57 -61 92t-99 35q-76 0 -127 -58.5t-51 -158.5t51.5 -158.5t126.5 -58.5q51 0 96.5 33.5t63.5 101.5h53q-20 -82 -71.5 -130t-114.5 -54v-103h-53v103q-88 6 -146.5 79.5 t-58.5 186.5z" />
<glyph horiz-adv-x="649" d="M70 226h53q0 -74 56.5 -129.5t148.5 -55.5q86 0 141 40t55 116q0 104 -147 137l-98 23q-98 23 -147.5 68.5t-49.5 125.5q0 84 58.5 136.5t152.5 58.5v114h53v-112q104 -8 166.5 -72.5t62.5 -157.5h-51q0 72 -55 125.5t-150 53.5q-82 0 -133 -43t-51 -103q0 -57 35 -92 t113 -51l98 -21q98 -20 146 -66t48 -124q0 -96 -63 -149.5t-166 -57.5v-113h-53v115q-106 8 -164.5 72.5t-58.5 161.5z" />
<glyph horiz-adv-x="643" d="M20 265v47h84q-4 37 -4 57t4 57h-84v47h91q31 133 124 204t197 71q61 0 103.5 -12.5t89.5 -38.5v-52q-47 25 -90 38.5t-103 13.5q-86 0 -162.5 -57.5t-103.5 -166.5h301v-47h-309q-4 -37 -4 -57t4 -57h309v-47h-301q27 -109 103.5 -166.5t162.5 -57.5q59 0 102.5 13.5 t90.5 37.5v-51q-47 -27 -89 -39t-104 -12q-104 0 -197.5 70.5t-123.5 204.5h-91z" />
<glyph horiz-adv-x="616" d="M61 334v51h82v136q0 100 59.5 163.5t147.5 63.5q86 0 145.5 -61.5t59.5 -153.5h-51q0 72 -44 118t-110 46t-109.5 -48.5t-43.5 -127.5v-136h215v-51h-215v-201q0 -63 -29 -81h387v-52h-492v52h17q63 0 63 81v201h-82z" />
<glyph horiz-adv-x="571" d="M23 738h61l199 -402h4l200 402h62l-203 -402h123v-49h-158v-70h158v-49h-158v-168h-53v168h-156v49h156v70h-156v49h121z" />
<glyph horiz-adv-x="1118" d="M113 604q0 188 57 329.5t158.5 218.5t230.5 77t230.5 -77t159 -218t57.5 -330q0 -188 -57.5 -329.5t-159 -218t-230.5 -76.5t-230.5 76.5t-158.5 218t-57 329.5zM172 604q0 -172 51 -301t139.5 -197.5t196.5 -68.5q109 0 197 68.5t139 197.5t51 301t-51 301t-139 197.5 t-197 68.5t-197 -68.5t-139 -197.5t-51 -301z" />
<glyph horiz-adv-x="557" d="M43 1010v55h215q23 0 37 14.5t14 36.5v92h58v-1208h-58v1010h-266z" />
<glyph horiz-adv-x="940" d="M111 838q0 113 45 201.5t125.5 139t183.5 50.5q100 0 179 -47t123 -131t44 -193q0 -96 -35 -170t-102 -147l-467 -475v-9h633v-57h-719v53l512 531q63 68 91 128t28 146q0 135 -81 224t-206 89q-131 0 -213 -95t-82 -238h-59z" />
<glyph horiz-adv-x="970" d="M90 319h57q0 -78 40 -142t113 -102t165 -38q141 0 229 80t88 202q0 119 -86 193t-231 74h-82v57h82q137 0 217 76t80 190q0 70 -36 129.5t-103.5 96t-157.5 36.5q-86 0 -153.5 -36.5t-105.5 -99t-38 -136.5h-57q0 88 45 164t125.5 121t183.5 45q102 0 184 -43t127 -117 t45 -160q0 -207 -205 -288v-7q98 -35 162 -105.5t64 -189.5q0 -96 -47 -173.5t-132 -121.5t-198 -44q-109 0 -194 44t-133 121.5t-48 173.5z" />
<glyph horiz-adv-x="903" d="M68 309v56l497 843h117v-841h188v-58h-188v-309h-59v309h-555zM141 367h482v778h-31l-451 -768v-10z" />
<glyph horiz-adv-x="1007" d="M127 319h59q20 -133 110.5 -207.5t215.5 -74.5q143 0 235.5 91t92.5 245q0 152 -91.5 243t-234.5 91q-172 0 -278 -111h-78l63 612h615v-57h-564l-55 -494h10q63 55 128 81t169 26q102 0 187.5 -48t136.5 -136t51 -207q0 -121 -50 -210t-138 -136t-199 -47 q-150 0 -257.5 90t-127.5 249z" />
<glyph horiz-adv-x="989" d="M100 371q0 127 90 264l377 573h66l-334 -510h10q47 29 89 42.5t110 13.5q100 0 187 -47.5t140.5 -136.5t53.5 -203q0 -113 -52.5 -201t-142.5 -137t-200 -49q-109 0 -199 48t-142.5 137t-52.5 206zM158 369q0 -98 46 -174t122.5 -117t167.5 -41q90 0 167.5 41 t123.5 115.5t46 173.5q0 98 -46 172.5t-123.5 116.5t-167.5 42t-167 -42t-123 -116.5t-46 -170.5z" />
<glyph horiz-adv-x="841" d="M59 1151v57h711v-37l-459 -1171h-59l450 1151h-643z" />
<glyph horiz-adv-x="1009" d="M129 319q0 111 63.5 188t165.5 114v8q-82 25 -144 100.5t-62 181.5q0 88 42 160t121.5 115t188.5 43q111 0 190.5 -43t121.5 -115t42 -160q0 -106 -62.5 -182t-144.5 -100v-8q100 -37 165 -114t65 -188q0 -96 -48.5 -172.5t-134.5 -121.5t-194 -45q-109 0 -194 45 t-133 121.5t-48 172.5zM186 317q0 -74 41 -138t113 -103t164 -39t164.5 39t112.5 103.5t40 137.5q0 76 -40 139.5t-112.5 102.5t-164.5 39t-165 -39t-113 -102.5t-40 -139.5zM209 911q0 -111 80 -185.5t215 -74.5q137 0 217 75t80 185q0 111 -80 185.5t-217 74.5 q-135 0 -215 -74.5t-80 -185.5z" />
<glyph horiz-adv-x="989" d="M100 842q0 113 52.5 200.5t142.5 137t199 49.5q111 0 200.5 -48t142 -137.5t52.5 -205.5q0 -127 -90 -265l-377 -573h-66l334 510h-10q-47 -29 -89 -42t-110 -13q-100 0 -187 47t-140.5 136t-53.5 204zM158 842q0 -98 46 -173t122.5 -117t167.5 -42q90 0 167.5 41 t123.5 116.5t46 172.5q0 98 -46 174t-123.5 116.5t-167.5 40.5t-167 -40.5t-123 -116.5t-46 -172z" />
<glyph horiz-adv-x="436" d="M167 746q0 20 14.5 35.5t35.5 15.5q23 0 37 -14.5t14 -36.5q0 -20 -15.5 -34.5t-35.5 -14.5q-21 0 -35.5 14t-14.5 35z" />
<glyph horiz-adv-x="477" d="M199 1395q0 20 14 34.5t35 14.5q20 0 35.5 -14t15.5 -35q0 -20 -14.5 -35.5t-36.5 -15.5q-20 0 -34.5 15.5t-14.5 35.5zM219 0v734l4 407h51l5 -407v-734h-60z" />
<glyph horiz-adv-x="1007" d="M100 381q0 137 60.5 222.5t183.5 156.5q84 49 118 95.5t34 127.5v123h59v-123q0 -98 -37 -151t-127 -107q-127 -74 -180 -147.5t-53 -196.5q0 -96 47 -175t129 -124t180 -45q104 0 185 45t127 123t46 174h58q0 -113 -52.5 -204t-146.5 -143t-217 -52q-117 0 -212 53 t-148.5 145.5t-53.5 202.5zM475 1395q0 20 14.5 34.5t34.5 14.5q21 0 36 -14t15 -35q0 -20 -14 -35.5t-37 -15.5q-20 0 -34.5 15.5t-14.5 35.5z" />
<glyph horiz-adv-x="591" d="M127 717l270 373h66l-268 -373l268 -373h-66z" />
<glyph horiz-adv-x="591" d="M127 344l270 373l-270 373h68l268 -373l-268 -373h-68z" />
<glyph horiz-adv-x="890" d="M127 717l270 373h66l-268 -373l268 -373h-66zM426 717l270 373h66l-268 -373l268 -373h-66z" />
<glyph horiz-adv-x="890" d="M127 344l270 373l-270 373h68l268 -373l-268 -373h-68zM426 344l270 373l-270 373h68l268 -373l-268 -373h-68z" />
<glyph horiz-adv-x="690" d="M246 727q0 41 29.5 70.5t70.5 29.5t69.5 -29.5t28.5 -70.5t-28.5 -70.5t-69.5 -29.5t-70.5 29.5t-29.5 70.5z" />
<glyph horiz-adv-x="858" d="M100 707v57h656v-57h-656z" />
<glyph horiz-adv-x="1124" d="M80 707v57h962v-57h-962z" />
<glyph horiz-adv-x="1460" d="M80 707v57h1300v-57h-1300z" />
<glyph horiz-adv-x="636" d="M186 727q0 268 81 500.5t243 451.5h65q-168 -217 -249.5 -449.5t-81.5 -502.5t82 -503t249 -450h-65q-162 219 -243 451.5t-81 501.5z" />
<glyph horiz-adv-x="636" d="M59 -226q168 217 250 448.5t82 504.5q0 272 -82 503.5t-250 448.5h68q162 -219 242 -450.5t80 -501.5t-80 -501.5t-242 -451.5h-68z" />
<glyph horiz-adv-x="645" d="M217 -226v1905h375v-55h-318v-1794h318v-56h-375z" />
<glyph horiz-adv-x="645" d="M53 -170h318v1794h-318v55h375v-1905h-375v56z" />
<glyph horiz-adv-x="636" d="M147 671v111q80 0 120 41t40 117v567q0 172 172 172h94v-53h-90q-66 0 -92 -26.5t-26 -92.5v-567q0 -96 -51.5 -144.5t-112.5 -48.5v-41q61 0 112.5 -48t51.5 -144v-568q0 -66 26.5 -92t91.5 -26h90v-54h-94q-172 0 -172 172v568q0 76 -40 116.5t-120 40.5z" />
<glyph horiz-adv-x="636" d="M63 -172h91q66 0 92 26.5t26 91.5v568q0 96 51.5 144t112.5 48v41q-61 0 -112.5 48t-51.5 145v567q0 66 -26.5 92.5t-91.5 26.5h-91v53h93q174 0 174 -172v-567q0 -76 40 -117t119 -41v-111q-80 0 -119.5 -40.5t-39.5 -116.5v-568q0 -172 -174 -172h-93v54z" />
<glyph horiz-adv-x="1859" d="M141 747q0 236 100.5 420t278.5 286.5t404 102.5q236 0 421 -101.5t289.5 -280.5t104.5 -406q0 -231 -83 -346t-212 -115q-92 0 -142.5 60.5t-56.5 133.5h-10q-39 -74 -128 -134t-204 -60q-113 0 -203 54t-140 151.5t-50 224.5t50 224t140.5 151.5t202.5 54.5 q111 0 197 -52t131 -141h10l10 173h47v-584q0 -102 38 -151.5t108 -49.5q106 0 171.5 97.5t65.5 308.5q0 213 -96 379.5t-268 260t-393 93.5q-211 0 -376 -94.5t-258 -266.5t-93 -393q0 -227 95 -393t261 -253t371 -87h403v-55h-403q-221 0 -399.5 95t-281 274.5 t-102.5 418.5zM567 737q0 -170 93.5 -272.5t242.5 -102.5q150 0 244 102.5t94 272.5t-94 272.5t-244 102.5t-243 -102.5t-93 -272.5z" />
<glyph horiz-adv-x="1112" d="M100 512q0 150 55.5 267.5t153 187t217.5 75.5v207h58v-207q145 -10 251.5 -102t145.5 -244h-57q-37 137 -138.5 215t-230.5 78q-111 0 -202 -59.5t-144 -168t-53 -249.5t53 -249.5t144 -168t202 -59.5q131 0 231.5 80t137.5 223h57q-39 -158 -144.5 -252t-252.5 -104 v-207h-58v207q-121 6 -218 75.5t-152.5 187t-55.5 267.5z" />
<glyph horiz-adv-x="1112" d="M78 420h57q0 -104 52.5 -192.5t149.5 -139.5t228 -51q178 0 293 83t115 242q0 250 -316 316l-194 39q-178 37 -266 121t-88 233q0 111 53 195t146 133t208 55v205h57v-205q137 -6 239.5 -67.5t156 -160t53.5 -212.5h-59q0 104 -50.5 192t-144.5 139.5t-223 51.5 q-172 0 -275.5 -89t-103.5 -237q0 -123 78 -194.5t225 -102.5l195 -39q182 -37 275 -131t93 -242q0 -120 -61.5 -206t-165 -130t-232.5 -46v-205h-57v207q-127 10 -226.5 68.5t-155.5 154.5t-56 215z" />
<glyph horiz-adv-x="1112" d="M-12 526v56h116q-8 57 -8 135t8 135h-116v55h127q37 180 134 303t223 183.5t249 60.5q115 0 195.5 -24.5t177.5 -77.5v-60q-96 53 -177 79t-196 26q-107 0 -219.5 -54.5t-201.5 -165t-124 -270.5h625v-55h-635q-10 -72 -10 -135t10 -135h635v-56h-625q35 -160 124 -270.5 t201.5 -164.5t219.5 -54q115 0 195.5 25.5t177.5 78.5v-59q-96 -53 -177 -77.5t-196 -24.5q-123 0 -249 60t-223 183t-134 303h-127z" />
<glyph horiz-adv-x="1112" d="M109 0v57h10q115 0 114 123v477h-124v58h124v319q0 123 47.5 218.5t129.5 148.5t186 53q98 0 182 -52t133.5 -144.5t49.5 -202.5h-58q0 92 -41 171t-111.5 125t-154.5 46q-86 0 -155.5 -47t-109.5 -130t-40 -186v-319h461v-58h-461v-477q0 -47 -12.5 -74.5t-40.5 -48.5 h763v-57h-892z" />
<glyph horiz-adv-x="1112" d="M39 1434h63l430 -785h46l430 785h65l-430 -785h342v-55h-399v-252h399v-55h-399v-287h-60v287h-401v55h401v252h-401v55h344z" />
<glyph horiz-adv-x="479" d="M190 39q0 23 14.5 37t35.5 14q20 0 34.5 -14.5t14.5 -36.5q0 -20 -14.5 -34.5t-34.5 -14.5q-21 0 -35.5 14t-14.5 35zM211 707v501h57v-501l-2 -453h-53z" />
<glyph horiz-adv-x="479" d="M190 1169q0 20 14.5 35t35.5 15q20 0 34.5 -14.5t14.5 -35.5q0 -23 -14.5 -37t-34.5 -14q-21 0 -35.5 14.5t-14.5 36.5zM211 0v467l2 487h53l2 -487v-467h-57z" />
<glyph horiz-adv-x="870" d="M70 889q0 94 43 172t123.5 123t187.5 45q102 0 183 -46t127 -124t46 -170q0 -117 -51 -187.5t-156 -132.5q-74 -43 -102.5 -79.5t-28.5 -108.5v-100h-57v100q0 84 32 129t109 90q106 61 150.5 122.5t44.5 166.5q0 78 -39 142.5t-106.5 102t-151.5 37.5q-127 0 -212 -79.5 t-85 -202.5h-57zM365 39q0 23 14 37t35 14q20 0 34.5 -14.5t14.5 -36.5q0 -20 -14.5 -34.5t-34.5 -14.5q-21 0 -35 14t-14 35z" />
<glyph horiz-adv-x="870" d="M90 319q0 117 51.5 188t155.5 132q74 43 102.5 80t28.5 108v101h57v-101q0 -84 -31.5 -129t-109.5 -90q-106 -61 -150 -122.5t-44 -166.5q0 -78 38.5 -142t106 -102t151.5 -38q127 0 212 80t85 202h58q0 -94 -43 -171.5t-124 -122.5t-188 -45q-102 0 -183 46t-127 123.5 t-46 169.5zM408 1169q0 20 14 35t35 15q20 0 34.5 -14.5t14.5 -35.5q0 -23 -14.5 -37t-34.5 -14q-21 0 -35 14.5t-14 36.5z" />
<glyph horiz-adv-x="1196" d="M39 360l14 56h279l80 377h-281l14 55h279l80 360h59l-80 -360h336l80 360h57l-79 -360h278l-12 -55h-279l-80 -377h279l-12 -56h-281l-80 -360h-57l80 360h-336l-80 -360h-59l79 360h-278zM389 416h336l80 377h-336z" />
<glyph horiz-adv-x="1064" d="M111 270q0 88 42 155t126 128l98 74l-105 114q-55 59 -81.5 110.5t-26.5 115.5q0 121 84 191.5t209 70.5q127 0 209 -75t82 -196q0 -74 -37 -131t-111 -112l-139 -103l348 -374q109 141 109 335h57q0 -109 -35 -207t-90 -169l182 -197h-71l-150 156q-53 -66 -152.5 -121 t-212.5 -55q-160 0 -247.5 80.5t-87.5 209.5zM168 272q0 -100 71.5 -167.5t206.5 -67.5q105 0 192 49t132 111l-352 385l-92 -64q-82 -57 -120 -113.5t-38 -132.5zM221 967q0 -59 24.5 -104.5t78.5 -102.5l96 -105l153 109q115 86 115 194q0 94 -65.5 155t-165.5 61 q-104 0 -170 -56.5t-66 -150.5z" />
<glyph horiz-adv-x="1067" d="M133 522q0 70 38 130.5t95 97.5q-41 29 -66.5 79t-25.5 119q0 125 96.5 203t249.5 78q119 0 206 -47t132 -127t45 -176h-57q0 125 -85 208.5t-241 83.5q-129 0 -208 -65.5t-79 -157.5q0 -80 48.5 -134t175.5 -79l176 -37q156 -31 228.5 -97t72.5 -171q0 -76 -32 -132 t-87 -105q35 -27 61.5 -76t26.5 -123q0 -139 -101.5 -215t-260.5 -76q-185 0 -286 99.5t-101 258.5h59q0 -135 86 -218t242 -83q131 0 218 59.5t87 174.5q0 88 -58.5 145.5t-175.5 81.5l-176 37q-158 31 -230.5 92.5t-72.5 171.5zM193 522q0 -86 60 -135t185 -74l176 -34 q106 -23 158 -56q51 43 78 91t27 116q0 168 -248 215l-176 35q-96 16 -140 41q-55 -37 -87.5 -88t-32.5 -111z" />
<glyph horiz-adv-x="919" d="M90 430q0 186 97.5 309t261.5 140v178h55v-178q131 -10 218 -92t120 -205h-58q-31 109 -108.5 176t-198.5 67q-94 0 -169 -49t-118 -139t-43 -207t43 -207t118 -139t169 -49q117 0 197 67.5t110 184.5h58q-31 -131 -120 -213t-218 -92v-179h-55v179q-164 16 -261.5 139 t-97.5 309z" />
<glyph horiz-adv-x="1064" d="M100 350h60q0 -88 46 -159.5t132 -112.5t199 -41q172 0 265 71.5t93 202.5q0 96 -61.5 163t-206.5 93l-178 35q-168 33 -243 105.5t-75 199.5q0 131 94 221.5t264 98.5v166h58v-164q121 -4 211 -55.5t138 -134.5t48 -181h-59q0 88 -44 160t-125 112.5t-190 40.5 q-156 0 -246 -72.5t-90 -191.5q0 -104 61.5 -162.5t199.5 -85.5l180 -34q324 -61 323 -314q0 -145 -104.5 -237t-302.5 -94v-175h-58v177q-119 8 -206.5 59t-135 132t-47.5 177z" />
<glyph horiz-adv-x="1218" d="M59 442v58h142q-6 49 -6 104t6 105h-142v57h152q31 152 116 256t200.5 155.5t238.5 51.5q203 0 352 -92v-58q-150 92 -352 92q-111 0 -212 -46t-177 -137t-107 -222h611v-57h-621q-6 -49 -6 -105q0 -55 6 -104h621v-58h-611q31 -131 107 -222t177 -137t212 -46 q203 0 352 92v-57q-150 -92 -352 -92q-123 0 -238.5 51t-200.5 155.5t-116 255.5h-152z" />
<glyph horiz-adv-x="1032" d="M90 0v57h51q41 0 66.5 27t25.5 76v395h-143v57h143v256q0 158 95.5 259.5t259.5 101.5q102 0 183 -44t126 -122t45 -174h-59q0 125 -84 203.5t-211 78.5q-141 0 -218 -86t-77 -217v-256h391v-57h-391v-395q0 -41 -10.5 -64.5t-32.5 -38.5h713v-57h-873z" />
<glyph horiz-adv-x="997" d="M39 1208h70l370 -651h41l369 651h69l-374 -653h276v-55h-332v-201h332v-55h-332v-244h-59v244h-332v55h332v201h-332v55h277z" />
<glyph horiz-adv-x="1323" d="M82 961q0 115 75.5 191.5t182.5 76.5q109 0 184.5 -77t75.5 -191q0 -115 -75.5 -191t-184.5 -76t-183.5 76t-74.5 191zM137 961q0 -94 60.5 -153.5t142.5 -59.5q84 0 144.5 59t60.5 154q0 94 -60.5 154.5t-144.5 60.5q-82 0 -142.5 -60.5t-60.5 -154.5zM254 0l758 1208 h59l-760 -1208h-57zM725 248q0 115 74.5 190.5t183.5 75.5t183.5 -76t74.5 -190q0 -115 -74.5 -191.5t-183.5 -76.5t-183.5 76.5t-74.5 191.5zM780 248q0 -94 60.5 -154.5t142.5 -60.5t142.5 60.5t60.5 154.5t-60.5 153.5t-142.5 59.5t-142.5 -59.5t-60.5 -153.5z" />
</font>
</defs>
</svg>
