<?xml version="1.0" standalone="no"?>
<!DOCTYPE svg PUBLIC "-//W3C//DTD SVG 1.1//EN" "http://www.w3.org/Graphics/SVG/1.1/DTD/svg11.dtd" >
<svg xmlns="http://www.w3.org/2000/svg" xmlns:xlink="http://www.w3.org/1999/xlink" version="1.1">
<metadata></metadata>
<defs>
<font id="telefonica_sanshairline" horiz-adv-x="2048" >
<font-face units-per-em="2048" ascent="1638" descent="-410" />
<missing-glyph horiz-adv-x="430" />
<glyph unicode="ff" horiz-adv-x="1034" d="M72 983v41h164v215q0 154 153 154h154v-41h-154q-53 0 -83 -30t-30 -83v-215h410v215q0 154 154 154h153v-41h-153q-53 0 -83 -30t-30 -83v-215h266v-41h-266v-983h-41v983h-410v-983h-40v983h-164z" />
<glyph unicode="fi" horiz-adv-x="911" d="M72 983v41h164v215q0 154 153 154h133v-41h-133q-53 0 -83 -30t-30 -83v-215h451v-1024h-41v983h-410v-983h-40v983h-164zM666 1362q0 16 12 28.5t29 12.5q16 0 28.5 -12.5t12.5 -28.5t-12.5 -28.5t-28.5 -12.5q-17 0 -29 12.5t-12 28.5z" />
<glyph unicode="fj" horiz-adv-x="911" d="M72 983v41h164v215q0 154 153 154h133v-41h-133q-53 0 -83 -30t-30 -83v-215h451v-1280q0 -154 -154 -154h-153v41h153q53 0 83 30t30 83v1239h-410v-983h-40v983h-164zM666 1362q0 16 12 28.5t29 12.5q16 0 28.5 -12.5t12.5 -28.5t-12.5 -28.5t-28.5 -12.5 q-17 0 -29 12.5t-12 28.5z" />
<glyph unicode="fl" horiz-adv-x="921" d="M72 983v41h164v215q0 154 153 154h338v-1393h-41v1352h-297q-53 0 -83 -30t-30 -83v-215h246v-41h-246v-983h-40v983h-164z" />
<glyph unicode="ffi" horiz-adv-x="1361" d="M72 983v41h164v215q0 154 153 154h154v-41h-154q-53 0 -83 -30t-30 -83v-215h410v215q0 154 154 154h133v-41h-133q-53 0 -83 -30t-30 -83v-215h451v-1024h-41v983h-410v-983h-41v983h-410v-983h-40v983h-164zM1116 1362q0 16 12.5 28.5t28.5 12.5t28.5 -12.5t12.5 -28.5 t-12 -28.5t-29 -12.5q-16 0 -28.5 12.5t-12.5 28.5z" />
<glyph unicode="ffj" horiz-adv-x="1361" d="M72 983v41h164v215q0 154 153 154h154v-41h-154q-53 0 -83 -30t-30 -83v-215h410v215q0 154 154 154h133v-41h-133q-53 0 -83 -30t-30 -83v-215h451v-1280q0 -154 -154 -154h-154v41h154q53 0 83 30t30 83v1239h-410v-983h-41v983h-410v-983h-40v983h-164zM1116 1362 q0 16 12.5 28.5t28.5 12.5t28.5 -12.5t12.5 -28.5t-12 -28.5t-29 -12.5q-16 0 -28.5 12.5t-12.5 28.5z" />
<glyph unicode="ffl" horiz-adv-x="1372" d="M72 983v41h164v215q0 154 153 154h154v-41h-154q-53 0 -83 -30t-30 -83v-215h410v215q0 154 154 154h338v-1393h-41v1352h-297q-53 0 -83 -30t-30 -83v-215h246v-41h-246v-983h-41v983h-410v-983h-40v983h-164z" />
<glyph horiz-adv-x="0" />
<glyph unicode="&#xd;" horiz-adv-x="0" />
<glyph unicode=" "  horiz-adv-x="430" />
<glyph unicode="&#x09;" horiz-adv-x="430" />
<glyph unicode="&#xa0;" horiz-adv-x="430" />
<glyph unicode="!" horiz-adv-x="491" d="M205 31q0 16 12 28.5t29 12.5q16 0 28.5 -12.5t12.5 -28.5t-12.5 -28.5t-28.5 -12.5q-17 0 -29 12t-12 29zM225 287v1147h41v-1147h-41z" />
<glyph unicode="&#x22;" horiz-adv-x="593" d="M154 1065v369h41v-369h-41zM400 1065v369h41v-369h-41z" />
<glyph unicode="#" horiz-adv-x="1402" d="M41 440l10 41h348l103 482h-348l10 41h348l92 430h41l-92 -430h420l92 430h41l-92 -430h348l-10 -41h-348l-103 -482h348l-10 -41h-348l-92 -440h-41l92 440h-420l-92 -440h-41l92 440h-348zM440 481h420l103 482h-420z" />
<glyph unicode="$" horiz-adv-x="1228" d="M113 420h41q0 -113 56 -204t160.5 -143.5t243.5 -52.5q215 0 328 93.5t113 244.5q0 125 -78 208t-260 120l-205 41q-193 39 -281 121t-88 227q0 104 51.5 189.5t148.5 135.5t230 54v205h41v-205q143 -4 250 -63.5t164 -157.5t57 -219h-41q0 117 -55 208t-157.5 141 t-237.5 50q-195 0 -302.5 -93t-107.5 -245q0 -127 81 -200.5t247 -106.5l205 -41q379 -76 379 -369q0 -109 -55.5 -194.5t-164 -134.5t-262.5 -49v-205h-41v207q-139 8 -243.5 67.5t-160.5 156.5t-56 214z" />
<glyph unicode="%" horiz-adv-x="1546" d="M92 1137q0 90 40 162.5t107.5 113.5t149.5 41t149.5 -41t107.5 -113.5t40 -162.5t-40 -163t-107.5 -114t-149.5 -41t-149.5 41t-107.5 114t-40 163zM133 1137q0 -82 36 -144.5t94.5 -97.5t125.5 -35q68 0 126 35t94 97.5t36 144.5t-36 144t-94 97t-126 35t-126 -35 t-94 -97t-36 -144zM307 0l891 1434h41l-891 -1434h-41zM860 297q0 90 40 162.5t107.5 113.5t149.5 41t149.5 -41t107.5 -113.5t40 -162.5t-40 -163t-107.5 -113.5t-149.5 -40.5t-149.5 40.5t-107.5 113.5t-40 163zM901 297q0 -82 36 -145.5t94.5 -97.5t125.5 -34 q68 0 126 34t94 97.5t36 145.5t-36 145.5t-94 97t-126 33.5t-126 -33.5t-94 -97t-36 -145.5z" />
<glyph unicode="&#x26;" horiz-adv-x="1228" d="M123 307q0 102 52 183t153 155l123 92l-134 144q-68 70 -100.5 131t-32.5 145q0 94 47.5 160.5t124 101.5t166.5 35q147 0 242.5 -85t95.5 -222q0 -82 -44 -151.5t-130 -135.5l-174 -133l430 -471q74 96 103.5 196.5t29.5 223.5h41q0 -264 -143 -451l205 -225h-52 l-184 195q-57 -82 -174 -148.5t-256 -66.5q-186 0 -287.5 92t-101.5 235zM164 307q0 -123 90 -205t258 -82q127 0 235.5 63.5t163.5 141.5l-430 482l-112 -82q-106 -78 -155.5 -150t-49.5 -168zM225 1157q0 -84 30 -135t103 -131l123 -133l195 143q143 109 143 246 q0 115 -83 190.5t-214 75.5q-127 0 -212 -68.5t-85 -187.5z" />
<glyph unicode="'" horiz-adv-x="348" d="M154 1065v369h41v-369h-41z" />
<glyph unicode="(" horiz-adv-x="634" d="M195 543q0 270 80.5 501.5t246.5 450.5h51q-172 -219 -254.5 -449.5t-82.5 -502.5t82.5 -502.5t254.5 -450.5h-51q-166 219 -246.5 450.5t-80.5 502.5z" />
<glyph unicode=")" horiz-adv-x="634" d="M61 -410q172 219 255 449.5t83 503.5q0 272 -83 502.5t-255 449.5h52q166 -219 246.5 -450.5t80.5 -501.5t-80.5 -501.5t-246.5 -451.5h-52z" />
<glyph unicode="*" horiz-adv-x="921" d="M92 1137l10 41l338 -113v369h41v-369l338 113l10 -41l-337 -103l215 -286l-31 -31l-215 297l-215 -297l-31 31l215 286z" />
<glyph unicode="+" horiz-adv-x="1064" d="M113 573v41h399v430h41v-430h399v-41h-399v-430h-41v430h-399z" />
<glyph unicode="," horiz-adv-x="378" d="M113 -184l51 245h51l-72 -245h-30z" />
<glyph unicode="-" horiz-adv-x="860" d="M102 563v41h656v-41h-656z" />
<glyph unicode="." horiz-adv-x="389" d="M154 31q0 16 12 28.5t29 12.5q16 0 28.5 -12.5t12.5 -28.5t-12.5 -28.5t-28.5 -12.5q-17 0 -29 12t-12 29z" />
<glyph unicode="/" horiz-adv-x="604" d="M0 -410l563 1905h41l-563 -1905h-41z" />
<glyph unicode="0" horiz-adv-x="1310" d="M143 717q0 223 63.5 390t179.5 257t269 90q154 0 269.5 -90t179 -257t63.5 -390t-63.5 -390t-179 -257t-269.5 -90q-153 0 -269 90t-179.5 257t-63.5 390zM184 717q0 -211 59.5 -369t167 -243t244.5 -85q138 0 245.5 85t166.5 243t59 369t-59 368.5t-166.5 242.5 t-245.5 85q-137 0 -244.5 -85t-167 -242.5t-59.5 -368.5z" />
<glyph unicode="1" horiz-adv-x="614" d="M61 1229v41h246q61 0 62 61v103h41v-1434h-41v1229h-308z" />
<glyph unicode="2" horiz-adv-x="1116" d="M154 993q0 131 51 236.5t141 165t207 59.5t208 -54t141 -151.5t50 -224.5q0 -119 -36.5 -205t-118.5 -174l-572 -594v-10h758v-41h-819v41l604 635q80 84 111.5 158.5t31.5 189.5q0 113 -45 201t-126 138t-187 50q-104 0 -186 -55t-127 -151.5t-45 -213.5h-41z" />
<glyph unicode="3" horiz-adv-x="1105" d="M102 379h41q0 -100 50.5 -182t139.5 -129.5t199 -47.5q113 0 201 45.5t138.5 126t50.5 187.5q0 152 -105.5 240t-284.5 88h-92v41h92q172 0 270.5 92t98.5 235q0 96 -45 173t-129 121t-195 44q-109 0 -192.5 -48t-129.5 -128t-46 -172h-41q0 102 52 192.5t145.5 143.5 t211.5 53q121 0 214.5 -49t144.5 -136t51 -194q0 -246 -246 -344v-8q121 -37 194 -124t73 -220q0 -117 -54.5 -208t-152 -141t-224.5 -50q-124 0 -222.5 52t-153 143t-54.5 204z" />
<glyph unicode="4" horiz-adv-x="1075" d="M82 379v41l594 1014h102v-1014h236v-41h-236v-379h-41v379h-655zM133 420h604v973h-41l-563 -963v-10z" />
<glyph unicode="5" horiz-adv-x="1146" d="M143 379h41q14 -113 73.5 -195t144.5 -123t182 -41q113 0 204 50.5t143 145.5t52 224t-52 224.5t-143.5 145.5t-203.5 50q-100 0 -181 -33.5t-157 -109.5h-72l72 717h704v-41h-663l-70 -635h8q84 76 165 109.5t204 33.5q111 0 209 -54t159.5 -159.5t61.5 -247.5 q0 -143 -58.5 -247.5t-157.5 -158.5t-224 -54q-109 0 -205 47t-158.5 137t-77.5 215z" />
<glyph unicode="6" horiz-adv-x="1105" d="M102 430q0 172 103 328l440 676h49l-413 -635h6q68 43 129 62.5t147 19.5q113 0 214.5 -57.5t164 -161t62.5 -232.5t-60.5 -232.5t-164 -160.5t-226.5 -57t-226.5 57t-164 160.5t-60.5 232.5zM143 430q0 -119 56.5 -212t150.5 -145.5t203 -52.5t203 52.5t150.5 145.5 t56.5 212t-56.5 212t-150.5 145.5t-203 52.5t-203 -52.5t-150.5 -145.5t-56.5 -212z" />
<glyph unicode="7" horiz-adv-x="972" d="M82 1393v41h819v-21l-553 -1413h-45l545 1393h-766z" />
<glyph unicode="8" horiz-adv-x="1146" d="M143 369q0 133 79 226t208 138v8q-115 37 -185.5 125t-70.5 219q0 98 47 183.5t138.5 135.5t213.5 50q123 0 214.5 -50t138.5 -135t47 -184q0 -131 -71 -219t-185 -125v-8q129 -45 208 -138t79 -226q0 -102 -54.5 -191.5t-153 -143.5t-223.5 -54q-124 0 -222.5 54 t-153 143t-54.5 192zM184 369q0 -92 50.5 -172t139.5 -128.5t199 -48.5q111 0 200 48.5t139.5 128t50.5 172.5q0 92 -50.5 172t-139.5 128t-200 48t-199.5 -48t-139 -128t-50.5 -172zM215 1085q0 -141 97.5 -234t260.5 -93q164 0 261.5 93t97.5 234q0 88 -43 163t-125 120 t-191 45t-190.5 -45t-124.5 -119.5t-43 -163.5z" />
<glyph unicode="9" horiz-adv-x="1105" d="M102 1004q0 129 60.5 232t164 160.5t226.5 57.5t226.5 -57.5t164 -160.5t60.5 -232q0 -172 -103 -328l-440 -676h-49l413 635h-6q-68 -43 -129 -62.5t-147 -19.5q-113 0 -214.5 57.5t-164 160.5t-62.5 233zM143 1004q0 -119 56.5 -212.5t150.5 -145.5t203 -52t203 52 t150.5 145.5t56.5 212.5t-56.5 212t-150.5 145t-203 52t-203 -52t-150.5 -145.5t-56.5 -211.5z" />
<glyph unicode=":" horiz-adv-x="389" d="M154 31q0 16 12 28.5t29 12.5q16 0 28.5 -12.5t12.5 -28.5t-12.5 -28.5t-28.5 -12.5q-17 0 -29 12t-12 29zM154 993q0 16 12 28.5t29 12.5q16 0 28.5 -12t12.5 -29q0 -16 -12.5 -28.5t-28.5 -12.5q-17 0 -29 12.5t-12 28.5z" />
<glyph unicode=";" horiz-adv-x="389" d="M113 -184l51 245h51l-72 -245h-30zM154 993q0 16 12 28.5t29 12.5q16 0 28.5 -12t12.5 -29q0 -16 -12.5 -28.5t-28.5 -12.5q-17 0 -29 12.5t-12 28.5z" />
<glyph unicode="&#x3c;" horiz-adv-x="1075" d="M123 573v41l809 349v-41l-768 -328l768 -328v-41z" />
<glyph unicode="=" horiz-adv-x="1075" d="M184 430v41h707v-41h-707zM184 717v41h707v-41h-707z" />
<glyph unicode="&#x3e;" horiz-adv-x="1075" d="M143 225v41l768 328l-768 328v41l809 -349v-41z" />
<glyph unicode="?" horiz-adv-x="1003" d="M82 1055q0 113 51 204t144.5 143t214.5 52q117 0 210 -52t146 -144.5t53 -202.5q0 -137 -59.5 -220t-186.5 -159q-86 -51 -119.5 -95t-33.5 -130v-123h-41v123q0 94 34.5 145t118.5 100q135 80 190.5 156t55.5 203q0 100 -49 182t-134 129t-185 47q-106 0 -190.5 -47 t-131.5 -129t-47 -182h-41zM440 31q0 16 12.5 28.5t28.5 12.5t28.5 -12.5t12.5 -28.5t-12 -28.5t-29 -12.5q-16 0 -28.5 12t-12.5 29z" />
<glyph unicode="@" horiz-adv-x="1853" d="M143 604q0 238 100.5 421t277.5 285.5t401 102.5q233 0 417.5 -101.5t288 -280.5t103.5 -406q0 -231 -81 -346t-206 -115q-92 0 -141.5 63.5t-53.5 141.5h-10q-39 -78 -129 -141.5t-209 -63.5q-113 0 -201 54t-138 151.5t-50 224.5t50 224t138 151.5t201 54.5t202 -55.5 t136 -149.5h10l11 185h30v-584q0 -111 41 -163t113 -52q109 0 177.5 101.5t68.5 318.5t-98.5 387t-272.5 265t-397 95q-213 0 -381 -96t-262.5 -270.5t-94.5 -401.5q0 -233 97.5 -402t265.5 -257t375 -88h399v-41h-399q-217 0 -394.5 94t-281 272t-103.5 422zM553 594 q0 -176 96 -282.5t252 -106.5t252 106.5t96 282.5t-96 282.5t-252 106.5t-252 -106.5t-96 -282.5z" />
<glyph unicode="A" horiz-adv-x="1249" d="M41 0l543 1434h82l542 -1434h-41l-161 430h-762l-162 -430h-41zM260 471h729l-348 922h-33z" />
<glyph unicode="B" horiz-adv-x="1300" d="M205 0v1434h532q115 0 204 -49.5t137 -133.5t48 -186q0 -127 -69.5 -215t-165.5 -123v-10q106 -25 181 -117t75 -231q0 -164 -104.5 -266.5t-284.5 -102.5h-553zM246 41h512q160 0 254 90t94 238q0 147 -94 237t-254 90h-512v-655zM246 737h491q104 0 183 45t122 120 t43 163q0 92 -44 167t-123.5 118t-180.5 43h-491v-656z" />
<glyph unicode="C" horiz-adv-x="1515" d="M133 717q0 215 86 383t235.5 261t333.5 93q223 0 388 -129t227 -352h-41q-61 207 -214 323.5t-360 116.5q-170 0 -310 -87t-222 -245.5t-82 -363.5t82 -363.5t222 -246t310 -87.5q209 0 360.5 119t213.5 332h41q-61 -229 -226 -360t-389 -131q-184 0 -333.5 93 t-235.5 261t-86 383z" />
<glyph unicode="D" horiz-adv-x="1423" d="M205 0v1434h399q195 0 351.5 -88.5t245.5 -251t89 -377.5t-89 -378t-245.5 -251t-351.5 -88h-399zM246 41h358q180 0 327.5 82t232.5 235.5t85 358.5t-85 358.5t-232.5 235.5t-327.5 82h-358v-1352z" />
<glyph unicode="E" horiz-adv-x="1218" d="M205 0v1434h860v-41h-819v-645h778v-41h-778v-666h819v-41h-860z" />
<glyph unicode="F" horiz-adv-x="1167" d="M205 0v1434h839v-41h-798v-656h758v-41h-758v-696h-41z" />
<glyph unicode="G" horiz-adv-x="1556" d="M133 717q0 215 86 383t233.5 261t325.5 93q203 0 365 -120t229 -330h-41q-68 195 -219 302t-334 107q-168 0 -306 -87t-218 -245.5t-80 -363.5t80 -363.5t218 -246t306 -87.5q143 0 273.5 71t210 191.5t79.5 264.5v119h-512v41h553v-707h-30l-11 317h-10 q-100 -178 -248.5 -257.5t-304.5 -79.5q-178 0 -325.5 93t-233.5 261t-86 383z" />
<glyph unicode="H" horiz-adv-x="1454" d="M205 0v1434h41v-676h962v676h41v-1434h-41v717h-962v-717h-41z" />
<glyph unicode="I" horiz-adv-x="450" d="M205 0v1434h41v-1434h-41z" />
<glyph unicode="J" horiz-adv-x="788" d="M41 0v41h379q59 0 96 40t37 103v1250h41v-1250q0 -84 -48 -134t-126 -50h-379z" />
<glyph unicode="K" horiz-adv-x="1054" d="M205 0v1434h41v-686l749 686h60l-779 -709l820 -725h-60l-790 700v-700h-41z" />
<glyph unicode="L" horiz-adv-x="1085" d="M205 0v1434h41v-1393h778v-41h-819z" />
<glyph unicode="M" horiz-adv-x="1802" d="M205 0v1434h112l564 -1393h41l563 1393h112v-1434h-41v1393h-40l-564 -1393h-102l-563 1393h-41v-1393h-41z" />
<glyph unicode="N" horiz-adv-x="1454" d="M205 0v1434h102l860 -1393h41v1393h41v-1434h-102l-860 1393h-41v-1393h-41z" />
<glyph unicode="O" horiz-adv-x="1556" d="M133 717q0 215 86 383t233.5 261t325.5 93t325.5 -93t233.5 -261t86 -383t-86 -383t-233.5 -261t-325.5 -93t-325.5 93t-233.5 261t-86 383zM174 717q0 -205 80 -363.5t218 -246t306 -87.5t306.5 87.5t218 246t79.5 363.5t-79.5 363.5t-218 245.5t-306.5 87t-306 -87 t-218 -245.5t-80 -363.5z" />
<glyph unicode="P" horiz-adv-x="1290" d="M205 0v1434h532q190 0 305 -113t115 -297t-114.5 -297t-305.5 -113h-491v-614h-41zM246 655h491q170 0 274.5 100.5t104.5 268.5t-104.5 268.5t-274.5 100.5h-491v-738z" />
<glyph unicode="Q" horiz-adv-x="1556" d="M133 717q0 215 86 383t233.5 261t325.5 93t325.5 -93t233.5 -261t86 -383q0 -174 -57 -318.5t-158 -244.5l185 -174h-62l-155 145q-82 -70 -183.5 -107.5t-214.5 -37.5q-178 0 -325.5 93t-233.5 261t-86 383zM174 717q0 -205 80 -363.5t218 -246t306 -87.5 q104 0 198.5 34t170.5 100l-389 378h61l361 -350q96 94 149 231.5t53 303.5q0 205 -79.5 363.5t-218 245.5t-306.5 87t-306 -87t-218 -245.5t-80 -363.5z" />
<glyph unicode="R" horiz-adv-x="1290" d="M205 0v1434h532q190 0 305 -113t115 -297t-114.5 -297t-305.5 -113h-194l645 -614h-62l-645 614h-235v-614h-41zM246 655h491q170 0 274.5 100.5t104.5 268.5t-104.5 268.5t-274.5 100.5h-491v-738z" />
<glyph unicode="S" horiz-adv-x="1228" d="M113 420h41q0 -113 56 -204t160.5 -143.5t243.5 -52.5q215 0 328 93.5t113 244.5q0 125 -78 208t-260 120l-205 41q-193 39 -281 121t-88 227q0 109 53.5 195t156 135t241.5 49q150 0 261.5 -58.5t170.5 -158.5t59 -223h-41q0 117 -55 208t-157.5 141t-237.5 50 q-195 0 -302.5 -93t-107.5 -245q0 -127 81 -200.5t247 -106.5l205 -41q379 -76 379 -369q0 -109 -55.5 -194.5t-164 -134.5t-262.5 -49q-149 0 -263.5 58t-176 158.5t-61.5 223.5z" />
<glyph unicode="T" horiz-adv-x="1187" d="M51 1393v41h1086v-41h-523v-1393h-41v1393h-522z" />
<glyph unicode="U" horiz-adv-x="1413" d="M184 563v871h41v-871q0 -160 64.5 -283.5t174 -191.5t243.5 -68q133 0 242.5 68t174 191.5t64.5 283.5v871h41v-871q0 -174 -69.5 -307t-189.5 -204.5t-263 -71.5q-144 0 -263.5 71.5t-189.5 204.5t-70 307z" />
<glyph unicode="V" horiz-adv-x="1228" d="M51 1434h43l498 -1393h45l498 1393h43l-512 -1434h-103z" />
<glyph unicode="W" horiz-adv-x="1802" d="M61 1434h41l349 -1393h41l358 1393h102l359 -1393h41l348 1393h41l-359 -1434h-102l-358 1393h-41l-359 -1393h-102z" />
<glyph unicode="X" horiz-adv-x="1228" d="M51 0l502 737l-471 697h49l457 -676h53l457 676h49l-471 -697l502 -737h-50l-487 717h-53l-486 -717h-51z" />
<glyph unicode="Y" horiz-adv-x="1187" d="M41 1434h47l485 -830h41l486 830h47l-533 -912v-522h-41v522z" />
<glyph unicode="Z" horiz-adv-x="1157" d="M102 0v41l891 1352h-880v41h931v-41l-890 -1352h901v-41h-953z" />
<glyph unicode="[" horiz-adv-x="645" d="M225 -410v1905h369v-41h-328v-1823h328v-41h-369z" />
<glyph unicode="\" horiz-adv-x="604" d="M0 1495h41l563 -1905h-41z" />
<glyph unicode="]" horiz-adv-x="645" d="M51 -369h328v1823h-328v41h369v-1905h-369v41z" />
<glyph unicode="^" horiz-adv-x="808" d="M154 881l225 553h51l225 -553h-41l-204 512h-11l-204 -512h-41z" />
<glyph unicode="_" horiz-adv-x="675" d="M-41 -205h758v-41h-758v41z" />
<glyph unicode="`" horiz-adv-x="327" d="M61 1454h52l153 -225h-41z" />
<glyph unicode="a" horiz-adv-x="1064" d="M133 276q0 139 96.5 218t272.5 79h348v93q0 160 -85 249t-233 89q-147 0 -233 -78t-94 -199h-41q8 137 103 227t265 90q164 0 261.5 -99t97.5 -279v-666h-31l-10 225h-12q-57 -125 -157.5 -185t-229.5 -60q-142 0 -230 80.5t-88 215.5zM174 276q0 -121 76 -188.5 t201 -67.5q133 0 222 61.5t133 164t44 225.5v61h-348q-154 0 -241 -66.5t-87 -189.5z" />
<glyph unicode="b" horiz-adv-x="1177" d="M195 0v1434h41v-656h10q141 266 389 266q123 0 223 -65.5t158.5 -186t58.5 -280.5t-58.5 -280.5t-158.5 -186t-223 -65.5q-248 0 -389 266h-10l-11 -246h-30zM236 512q0 -147 56 -259t147 -172.5t196 -60.5q108 0 199.5 59.5t145.5 171t54 261.5t-54 261.5t-145.5 171 t-199.5 59.5q-104 0 -195.5 -60.5t-147.5 -172.5t-56 -259z" />
<glyph unicode="c" horiz-adv-x="1064" d="M102 512q0 160 60.5 280.5t164 186t226.5 65.5q154 0 267.5 -94t152.5 -254h-41q-37 143 -141.5 225.5t-237.5 82.5q-113 0 -206 -61.5t-148.5 -173.5t-55.5 -257t55.5 -257t148.5 -173.5t206 -61.5q133 0 237.5 84t141.5 234h41q-39 -168 -151.5 -263t-268.5 -95 q-123 0 -226.5 65.5t-164 186t-60.5 280.5z" />
<glyph unicode="d" horiz-adv-x="1177" d="M102 512q0 160 58.5 280.5t159 186t223.5 65.5q248 0 389 -266h10v656h41v-1434h-31l-10 246h-10q-141 -266 -389 -266q-123 0 -223.5 65.5t-159 186t-58.5 280.5zM143 512q0 -150 54.5 -261.5t145.5 -171t200 -59.5q104 0 195 60.5t147.5 172.5t56.5 259t-56.5 259 t-147.5 172.5t-195 60.5q-109 0 -200 -59.5t-145.5 -171t-54.5 -261.5z" />
<glyph unicode="e" horiz-adv-x="1105" d="M102 512q0 156 61.5 276.5t167 188t232.5 67.5q125 0 226.5 -64.5t158 -177t56.5 -249.5v-61h-861q4 -139 61.5 -247t152 -166.5t206.5 -58.5q125 0 224.5 70t144.5 197h41q-45 -145 -153.5 -226t-256.5 -81q-127 0 -232.5 67.5t-167 188t-61.5 276.5zM143 532h820 q0 139 -52.5 247t-143.5 166.5t-202 58.5q-113 0 -208 -58.5t-152.5 -166t-61.5 -247.5z" />
<glyph unicode="f" horiz-adv-x="583" d="M72 983v41h164v215q0 154 153 154h154v-41h-154q-53 0 -83 -30t-30 -83v-215h267v-41h-267v-983h-40v983h-164z" />
<glyph unicode="g" horiz-adv-x="1167" d="M102 543q0 145 58.5 260t159 178t223.5 63q127 0 231.5 -69.5t157.5 -196.5h10l10 246h31v-1024q0 -199 -113.5 -314.5t-306.5 -115.5q-127 0 -220 49t-143 129t-57 170h41q6 -80 52.5 -150.5t129.5 -113.5t195 -43q176 0 278.5 105.5t102.5 283.5v307h-10 q-53 -127 -157.5 -196.5t-231.5 -69.5q-123 0 -223.5 63.5t-159 178t-58.5 260.5zM143 543q0 -135 52.5 -240.5t143.5 -163t204 -57.5q112 0 203.5 57.5t143.5 163t52 240.5t-52 240.5t-143.5 163t-203.5 57.5q-113 0 -204 -57.5t-143.5 -163t-52.5 -240.5z" />
<glyph unicode="h" horiz-adv-x="1167" d="M195 0v1434h41v-615h10q41 86 136 155.5t222 69.5q174 0 281.5 -113.5t107.5 -316.5v-614h-41v614q0 176 -96 283t-252 107q-102 0 -186 -50.5t-133 -139.5t-49 -200v-614h-41z" />
<glyph unicode="i" horiz-adv-x="409" d="M164 1362q0 16 12 28.5t29 12.5q16 0 28.5 -12.5t12.5 -28.5t-12.5 -28.5t-28.5 -12.5q-17 0 -29 12.5t-12 28.5zM184 0v1024h41v-1024h-41z" />
<glyph unicode="j" horiz-adv-x="409" d="M-82 -369h154q53 0 82.5 30t29.5 83v1280h41v-1280q0 -154 -153 -154h-154v41zM164 1362q0 16 12 28.5t29 12.5q16 0 28.5 -12.5t12.5 -28.5t-12.5 -28.5t-28.5 -12.5q-17 0 -29 12.5t-12 28.5z" />
<glyph unicode="k" horiz-adv-x="942" d="M195 0v1434h41v-889l604 479h61l-633 -502l654 -522h-62l-624 500v-500h-41z" />
<glyph unicode="l" horiz-adv-x="430" d="M195 0v1434h41v-1434h-41z" />
<glyph unicode="m" horiz-adv-x="1710" d="M184 0v1024h31l10 -174h11q53 96 133 145t174 49q129 0 210 -71.5t107 -173.5h10q45 121 131 183t197 62q150 0 244 -105t94 -294v-645h-41v645q0 170 -84 264.5t-213 94.5q-86 0 -158.5 -47.5t-115.5 -129.5t-43 -182v-645h-41v645q0 170 -84 264.5t-213 94.5 q-86 0 -159 -48.5t-116 -130.5t-43 -180v-645h-41z" />
<glyph unicode="n" horiz-adv-x="1157" d="M184 0v1024h31l10 -205h11q41 86 136 155.5t222 69.5q174 0 281.5 -113.5t107.5 -316.5v-614h-41v614q0 176 -96 283t-252 107q-102 0 -186 -50.5t-133.5 -139.5t-49.5 -200v-614h-41z" />
<glyph unicode="o" horiz-adv-x="1105" d="M102 512q0 160 60.5 280.5t164 186t226.5 65.5t226.5 -65.5t164 -186t60.5 -280.5t-60.5 -280.5t-164 -186t-226.5 -65.5t-226.5 65.5t-164 186t-60.5 280.5zM143 512q0 -145 55.5 -257t148.5 -173.5t206 -61.5t206 61.5t148.5 173.5t55.5 257t-55.5 257t-148.5 173.5 t-206 61.5t-206 -61.5t-148.5 -173.5t-55.5 -257z" />
<glyph unicode="p" horiz-adv-x="1167" d="M184 -410v1434h31l10 -246h11q141 266 389 266q123 0 223 -65.5t158.5 -186t58.5 -280.5t-58.5 -280.5t-158.5 -186t-223 -65.5q-248 0 -389 266h-11v-656h-41zM225 512q0 -147 56.5 -259t147.5 -172.5t196 -60.5q108 0 199 59.5t145.5 171t54.5 261.5t-54.5 261.5 t-145.5 171t-199 59.5q-104 0 -195.5 -60.5t-148 -172.5t-56.5 -259z" />
<glyph unicode="q" horiz-adv-x="1167" d="M102 512q0 160 58.5 280.5t159 186t223.5 65.5q248 0 389 -266h10l10 246h31v-1434h-41v656h-10q-141 -266 -389 -266q-123 0 -223.5 65.5t-159 186t-58.5 280.5zM143 512q0 -150 54.5 -261.5t145.5 -171t200 -59.5q104 0 195 60.5t147.5 172.5t56.5 259t-56.5 259 t-147.5 172.5t-195 60.5q-109 0 -200 -59.5t-145.5 -171t-54.5 -261.5z" />
<glyph unicode="r" horiz-adv-x="675" d="M184 0v1024h31l10 -102h11q37 57 83 79.5t111 22.5h225v-41h-225q-98 0 -151.5 -61.5t-53.5 -163.5v-758h-41z" />
<glyph unicode="s" horiz-adv-x="931" d="M92 297h41q0 -74 40 -136.5t114.5 -101.5t173.5 -39q150 0 233.5 67t83.5 169q0 92 -58 149.5t-167 75.5l-184 31q-125 20 -190.5 81.5t-65.5 174.5q0 119 91 197.5t247 78.5q104 0 186 -43t127 -115.5t45 -158.5h-41q0 119 -87 198t-230 79q-141 0 -219 -66t-78 -170 q0 -88 52 -142.5t165 -72.5l182 -31q266 -45 266 -266q0 -121 -94 -198.5t-264 -77.5q-111 0 -194 43t-129 114.5t-46 159.5z" />
<glyph unicode="t" horiz-adv-x="665" d="M72 983v41h164v287h40v-287h287v-41h-287v-829q0 -53 30 -83t83 -30h174v-41h-174q-154 0 -153 154v829h-164z" />
<glyph unicode="u" horiz-adv-x="1157" d="M174 410v614h41v-614q0 -176 96.5 -283t251.5 -107q102 0 186.5 50.5t133.5 139.5t49 200v614h41v-1024h-31l-10 205h-10q-39 -86 -135.5 -155.5t-223.5 -69.5q-174 0 -281.5 113.5t-107.5 316.5z" />
<glyph unicode="v" horiz-adv-x="962" d="M41 1024h43l383 -983h29l383 983h43l-400 -1024h-82z" />
<glyph unicode="w" horiz-adv-x="1392" d="M51 1024h43l254 -983h41l256 983h103l256 -983h40l254 983h43l-268 -1024h-100l-256 983h-41l-256 -983h-101z" />
<glyph unicode="x" horiz-adv-x="880" d="M41 0l338 522l-328 502h49l312 -481h55l313 481h49l-327 -502l338 -522h-49l-322 502h-55l-324 -502h-49z" />
<glyph unicode="y" horiz-adv-x="901" d="M41 1024h43l356 -952h39l338 952h43l-471 -1321q-23 -66 -60.5 -89.5t-103.5 -23.5h-102v41h102q57 0 84 22.5t47 80.5l82 229z" />
<glyph unicode="z" horiz-adv-x="839" d="M72 0v31l633 952h-623v41h676v-31l-633 -952h643v-41h-696z" />
<glyph unicode="{" horiz-adv-x="634" d="M154 492v102q82 0 122.5 43t40.5 121v573q0 84 40 124t124 40h92v-41h-92q-70 0 -96.5 -26.5t-26.5 -96.5v-573q0 -96 -51 -145.5t-112 -49.5v-41q61 0 112 -49t51 -145v-574q0 -70 27 -96.5t96 -26.5h92v-41h-92q-84 0 -124 40t-40 124v574q0 78 -40.5 121t-122.5 43z " />
<glyph unicode="|" horiz-adv-x="532" d="M246 -410v1905h41v-1905h-41z" />
<glyph unicode="}" horiz-adv-x="634" d="M61 -369h93q70 0 96 27t26 96v574q0 96 51.5 145t112.5 49v41q-61 0 -112.5 49.5t-51.5 145.5v573q0 70 -26.5 96.5t-95.5 26.5h-93v41h93q84 0 123.5 -40t39.5 -124v-573q0 -78 41 -121t123 -43v-102q-82 0 -123 -43t-41 -121v-574q0 -84 -39.5 -124t-123.5 -40h-93v41z " />
<glyph unicode="~" horiz-adv-x="1116" d="M113 430q0 119 61.5 192.5t173.5 73.5q63 0 111.5 -29.5t111.5 -86.5q59 -55 101.5 -82t95.5 -27q96 0 145.5 60.5t49.5 164.5h41q0 -119 -61.5 -192.5t-174.5 -73.5q-63 0 -111.5 29.5t-111.5 87.5q-59 55 -101.5 81.5t-95.5 26.5q-96 0 -145 -60t-49 -165h-41z" />
<glyph unicode="&#xa1;" horiz-adv-x="491" d="M205 993q0 16 12 28.5t29 12.5q16 0 28.5 -12t12.5 -29q0 -16 -12.5 -28.5t-28.5 -12.5t-28.5 12.5t-12.5 28.5zM225 -410v1147h41v-1147h-41z" />
<glyph unicode="&#xa2;" horiz-adv-x="1064" d="M102 512q0 152 56.5 270.5t154 188t219.5 73.5v205h41v-205q145 -8 253 -101t147 -247h-41q-37 143 -141.5 225.5t-237.5 82.5q-113 0 -206 -61.5t-148.5 -173.5t-55.5 -257t55.5 -257t148.5 -173.5t206 -61.5q133 0 237.5 84t141.5 234h41q-39 -160 -145.5 -255 t-254.5 -103v-205h-41v205q-123 4 -220 73.5t-153.5 188t-56.5 270.5z" />
<glyph unicode="&#xa3;" horiz-adv-x="1187" d="M102 0v41h52q55 0 83.5 30.5t28.5 92.5v502h-164v41h164v327q0 123 49.5 218.5t139.5 148.5t211 53t214 -52t144 -143.5t51 -203.5h-41q0 98 -46 180t-130 130t-192 48q-166 0 -262.5 -106.5t-96.5 -272.5v-327h471v-41h-471v-502q0 -47 -10 -74t-41 -49h850v-41h-1004z " />
<glyph unicode="&#xa4;" horiz-adv-x="1126" d="M174 356l109 121q-33 33 -60.5 98.5t-27.5 141.5t27.5 141.5t60.5 97.5l-109 121l31 29l106 -119q39 39 106.5 68.5t145.5 29.5t145.5 -29.5t106.5 -68.5l107 119l30 -29l-108 -121q33 -33 60.5 -98t27.5 -141t-27.5 -141.5t-60.5 -98.5l108 -121l-30 -28l-107 118 q-39 -39 -106.5 -68.5t-145.5 -29.5t-145.5 30t-106.5 68l-106 -118zM236 717q0 -90 43 -166t118.5 -119t165.5 -43t166 43t119 119t43 166t-43 165.5t-119 118.5t-166 43t-165.5 -43t-118.5 -118.5t-43 -165.5z" />
<glyph unicode="&#xa5;" horiz-adv-x="1146" d="M41 1434h47l461 -799h49l461 799h47l-461 -799h359v-41h-410v-266h410v-41h-410v-287h-41v287h-410v41h410v266h-410v41h359z" />
<glyph unicode="&#xa6;" horiz-adv-x="532" d="M246 348h41v-758h-41v758zM246 737v758h41v-758h-41z" />
<glyph unicode="&#xa7;" horiz-adv-x="1228" d="M154 625q0 76 43 143.5t120 122.5q-123 88 -122 235q0 92 49 167t142 118t218 43q137 0 236.5 -57.5t151.5 -152.5t52 -210h-40q0 164 -103.5 271.5t-296.5 107.5q-111 0 -194.5 -37t-128.5 -102.5t-45 -147.5q0 -96 62 -164.5t224 -101.5l205 -41q180 -37 264 -112.5 t84 -194.5q0 -86 -34.5 -153.5t-108.5 -133.5q113 -90 112 -235q0 -168 -118.5 -253t-300.5 -85q-211 0 -331 115.5t-120 304.5h41q0 -168 107.5 -273.5t302.5 -105.5q164 0 271.5 75.5t107.5 221.5q0 109 -76 183.5t-221 102.5l-205 41q-180 37 -264 108t-84 200zM195 625 q0 -111 77.5 -173.5t229.5 -93.5l205 -41q125 -25 194 -71q72 63 102.5 123.5t30.5 142.5q0 205 -307 266l-205 41q-74 14 -107.5 24.5t-66.5 26.5q-154 -106 -153 -245z" />
<glyph unicode="&#xa9;" horiz-adv-x="1720" d="M143 717q0 211 95.5 379t259.5 263t362 95q199 0 362.5 -95t259 -263t95.5 -379t-95.5 -379t-259 -263t-362.5 -95q-198 0 -362 95t-259.5 263t-95.5 379zM184 717q0 -195 91.5 -354.5t247 -251t337.5 -91.5t338 91.5t247 251t91 354.5t-91 354.5t-247 250.5t-338 91 t-337.5 -91t-247 -251t-91.5 -354zM522 717q0 111 46 200t126 139t176 50q117 0 199 -63.5t119 -192.5h-41q-61 215 -277 215q-133 0 -220 -95.5t-87 -252.5q0 -158 87 -253t220 -95q106 0 176 58t101 167h41q-31 -123 -117 -194.5t-201 -71.5q-100 0 -180 50t-124 139 t-44 200z" />
<glyph unicode="&#xaa;" horiz-adv-x="665" d="M82 983q0 90 61.5 142.5t163.5 52.5h215v51q0 82 -53 133t-131 51q-76 0 -127 -42t-68 -111h-41q14 92 79 143t157 51q98 0 161.5 -65.5t63.5 -159.5v-420h-31l-10 113h-10q-76 -123 -215 -123q-94 0 -154.5 50t-60.5 134zM123 983q0 -66 50 -104.5t124 -38.5 q106 0 165.5 73.5t59.5 192.5v31h-215q-80 0 -132 -40t-52 -114z" />
<glyph unicode="&#xab;" horiz-adv-x="870" d="M133 512l266 369h52l-267 -369l267 -369h-52zM420 512l266 369h52l-267 -369l267 -369h-52z" />
<glyph unicode="&#xac;" horiz-adv-x="1064" d="M154 707v41h737v-410h-41v369h-696z" />
<glyph unicode="&#xad;" horiz-adv-x="860" d="M102 563v41h656v-41h-656z" />
<glyph unicode="&#xae;" horiz-adv-x="1720" d="M143 717q0 211 95.5 379t259.5 263t362 95q199 0 362.5 -95t259 -263t95.5 -379t-95.5 -379t-259 -263t-362.5 -95t-362.5 95t-259 263t-95.5 379zM184 717q0 -195 91.5 -354.5t247 -251t337.5 -91.5t338 91.5t247 251t91 354.5t-91 354.5t-247 250.5t-338 91t-337.5 -91 t-247 -251t-91.5 -354zM594 338v768h307q127 0 196.5 -65.5t69.5 -170.5q0 -104 -69.5 -169.5t-196.5 -65.5h-10l297 -297h-55l-297 297h-201v-297h-41zM635 676h266q111 0 168 53t57 141t-57 141.5t-168 53.5h-266v-389z" />
<glyph unicode="&#xaf;" horiz-adv-x="655" d="M61 1290v41h533v-41h-533z" />
<glyph unicode="&#xb0;" horiz-adv-x="798" d="M154 1188q0 115 69.5 190.5t175.5 75.5t176 -75.5t70 -190.5t-69.5 -190.5t-176.5 -75.5q-106 0 -175.5 75.5t-69.5 190.5zM195 1188q0 -100 56 -162.5t148 -62.5q93 0 149 62t56 163q0 100 -56 162.5t-149 62.5q-92 0 -148 -62.5t-56 -162.5z" />
<glyph unicode="&#xb1;" horiz-adv-x="1064" d="M113 0v41h839v-41h-839zM113 717v41h399v430h41v-430h399v-41h-399v-430h-41v430h-399z" />
<glyph unicode="&#xb2;" horiz-adv-x="665" d="M113 1413q0 106 62.5 171t162.5 65q98 0 156.5 -56.5t58.5 -148.5q0 -63 -24.5 -109.5t-77.5 -105.5l-256 -277v-10h368v-41h-440v31l297 328q51 55 71.5 94t20.5 90q0 72 -46 118t-128 46q-80 0 -132 -52.5t-52 -142.5h-41z" />
<glyph unicode="&#xb3;" horiz-adv-x="645" d="M92 1106h41q0 -78 50 -126t134 -48t134.5 44t50.5 120t-50.5 120t-134.5 44h-61v40h61q76 0 125.5 40t49.5 114t-47.5 114t-127.5 40q-82 0 -128 -46t-46 -118h-41q0 88 59.5 146.5t155.5 58.5q94 0 156 -52.5t62 -142.5q0 -53 -29 -97t-86 -67v-10q57 -25 90 -72 t33 -112q0 -92 -62.5 -148.5t-163.5 -56.5q-98 0 -161.5 61.5t-63.5 153.5z" />
<glyph unicode="&#xb4;" horiz-adv-x="327" d="M61 1229l154 225h51l-164 -225h-41z" />
<glyph unicode="&#xb5;" horiz-adv-x="1167" d="M184 -410v1434h41v-614q0 -176 96.5 -283t251.5 -107q102 0 186.5 50.5t133.5 139.5t49 200v614h41v-1024h-31l-10 205h-10q-39 -86 -135.5 -155.5t-223.5 -69.5q-139 0 -230 69.5t-118 155.5v-615h-41z" />
<glyph unicode="&#xb6;" horiz-adv-x="952" d="M133 1106q0 96 40 170t110.5 116t156.5 42h308v-1639h-41v1598h-226v-1598h-41v983q-86 0 -156.5 42t-110.5 116t-40 170z" />
<glyph unicode="&#xb7;" horiz-adv-x="430" d="M174 543q0 16 12 28.5t29 12.5q16 0 28.5 -12.5t12.5 -28.5t-12.5 -28.5t-28.5 -12.5q-17 0 -29 12t-12 29z" />
<glyph unicode="&#xb8;" horiz-adv-x="348" d="M61 -338h51q68 0 101 27.5t33 74.5t-33 75t-101 28h-20v31l57 114l35 -12l-51 -102q74 0 114 -38t40 -96q0 -66 -43 -104.5t-132 -38.5h-51v41z" />
<glyph unicode="&#xb9;" horiz-adv-x="512" d="M82 1475v41h154q61 0 61 61v61h41v-737h-41v574h-215z" />
<glyph unicode="&#xba;" horiz-adv-x="737" d="M92 1126q0 145 77 236.5t200 91.5t199.5 -91t76.5 -237q0 -145 -76.5 -236t-199.5 -91t-200 91t-77 236zM133 1126q0 -86 33 -151.5t87 -100t116 -34.5q61 0 115.5 34.5t87 100t32.5 151.5t-32.5 151.5t-87 100.5t-115.5 35t-115.5 -35t-87.5 -100.5t-33 -151.5z" />
<glyph unicode="&#xbb;" horiz-adv-x="870" d="M133 143l266 369l-266 369h51l267 -369l-267 -369h-51zM420 143l266 369l-266 369h51l267 -369l-267 -369h-51z" />
<glyph unicode="&#xbc;" horiz-adv-x="1269" d="M82 1270v41h154q61 0 61 61v61h41v-737h-41v574h-215zM133 0l891 1434h41l-891 -1434h-41zM696 184v41l297 512h82v-512h123v-41h-123v-184h-41v184h-338zM747 225h287v471h-20l-267 -460v-11z" />
<glyph unicode="&#xbd;" horiz-adv-x="1351" d="M82 1270v41h154q61 0 61 61v61h41v-737h-41v574h-215zM133 0l891 1434h41l-891 -1434h-41zM799 512q0 106 62.5 171t162.5 65q98 0 156.5 -56.5t58.5 -148.5q0 -63 -24.5 -109.5t-77.5 -105.5l-256 -277v-10h368v-41h-440v31l297 328q51 55 71.5 94t20.5 90q0 72 -46 118 t-128 46q-80 0 -132 -52.5t-52 -142.5h-41z" />
<glyph unicode="&#xbe;" horiz-adv-x="1402" d="M92 901h41q0 -78 50 -126t134 -48t134.5 44t50.5 120t-50.5 120t-134.5 44h-61v40h61q76 0 125.5 40t49.5 114t-47.5 114t-127.5 40q-82 0 -128 -46t-46 -118h-41q0 88 59.5 146.5t155.5 58.5q94 0 156 -52.5t62 -142.5q0 -53 -29 -97t-86 -67v-10q57 -25 90 -72t33 -112 q0 -92 -62.5 -148.5t-163.5 -56.5q-98 0 -161.5 61.5t-63.5 153.5zM266 0l891 1434h41l-891 -1434h-41zM829 184v41l297 512h82v-512h123v-41h-123v-184h-41v184h-338zM880 225h287v471h-20l-267 -460v-11z" />
<glyph unicode="&#xbf;" horiz-adv-x="1003" d="M102 -31q0 137 59.5 220t186.5 159q86 51 120 95t34 130v123h41v-123q0 -94 -35 -145t-119 -100q-135 -80 -190.5 -156t-55.5 -203q0 -100 49.5 -182t134.5 -129t185 -47q106 0 190 47t131.5 129t47.5 182h41q0 -113 -51.5 -204t-144.5 -143t-214 -52q-117 0 -210 52 t-146.5 144.5t-53.5 202.5zM481 993q0 16 12.5 28.5t28.5 12.5q17 0 29 -12t12 -29q0 -16 -12 -28.5t-29 -12.5q-16 0 -28.5 12.5t-12.5 28.5z" />
<glyph unicode="&#xc0;" horiz-adv-x="1249" d="M41 0l543 1434h82l542 -1434h-41l-161 430h-762l-162 -430h-41zM260 471h729l-348 922h-33zM441 1833h51l154 -225h-41z" />
<glyph unicode="&#xc1;" horiz-adv-x="1249" d="M41 0l543 1434h82l542 -1434h-41l-161 430h-762l-162 -430h-41zM260 471h729l-348 922h-33zM604 1608l153 225h52l-164 -225h-41z" />
<glyph unicode="&#xc2;" horiz-adv-x="1249" d="M41 0l543 1434h82l542 -1434h-41l-161 430h-762l-162 -430h-41zM260 471h729l-348 922h-33zM379 1608l225 225h41l226 -225h-52l-194 194l-195 -194h-51z" />
<glyph unicode="&#xc3;" horiz-adv-x="1249" d="M41 0l543 1434h82l542 -1434h-41l-161 430h-762l-162 -430h-41zM260 471h729l-348 922h-33zM349 1649q0 76 42 119.5t111 43.5q39 0 67.5 -16t67.5 -49q37 -31 59.5 -44t51.5 -13q113 0 113 122h41q0 -76 -42 -119.5t-112 -43.5q-39 0 -67.5 16t-67.5 49 q-37 31 -59.5 44.5t-51.5 13.5q-113 0 -112 -123h-41z" />
<glyph unicode="&#xc4;" horiz-adv-x="1249" d="M41 0l543 1434h82l542 -1434h-41l-161 430h-762l-162 -430h-41zM260 471h729l-348 922h-33zM409 1761q0 16 12.5 28.5t28.5 12.5t28.5 -12t12.5 -29q0 -16 -12 -28.5t-29 -12.5q-16 0 -28.5 12.5t-12.5 28.5zM758 1761q0 16 12 28.5t29 12.5q16 0 28.5 -12t12.5 -29 q0 -16 -12.5 -28.5t-28.5 -12.5q-17 0 -29 12.5t-12 28.5z" />
<glyph unicode="&#xc5;" horiz-adv-x="1249" d="M41 0l543 1434h82l542 -1434h-41l-161 430h-762l-162 -430h-41zM260 471h729l-348 922h-33zM461 1751q0 70 47 117t117 47t117 -47t47 -117t-47.5 -117t-116.5 -47q-70 0 -117 47t-47 117zM502 1751q0 -53 34.5 -88t88.5 -35q53 0 88 35t35 88t-35 88t-88 35t-88 -35 t-35 -88z" />
<glyph unicode="&#xc6;" horiz-adv-x="1894" d="M0 0l625 1434h1116v-41h-819v-645h778v-41h-778v-666h819v-41h-860v451h-643l-195 -451h-43zM256 492h625v901h-234z" />
<glyph unicode="&#xc7;" horiz-adv-x="1515" d="M133 717q0 215 86 383t235.5 261t333.5 93q223 0 388 -129t227 -352h-41q-61 207 -214 323.5t-360 116.5q-170 0 -310 -87t-222 -245.5t-82 -363.5t82 -363.5t222 -246t310 -87.5q209 0 360.5 119t213.5 332h41q-59 -225 -218 -355t-376 -136l-41 -82q74 0 114 -38 t40 -96q0 -66 -43 -104.5t-131 -38.5h-52v41h52q68 0 100.5 27.5t32.5 74.5t-33 75t-100 28h-21v31l41 82q-178 4 -323.5 99t-228.5 261t-83 377z" />
<glyph unicode="&#xc8;" horiz-adv-x="1218" d="M205 0v1434h860v-41h-819v-645h778v-41h-778v-666h819v-41h-860zM467 1833h51l154 -225h-41z" />
<glyph unicode="&#xc9;" horiz-adv-x="1218" d="M205 0v1434h860v-41h-819v-645h778v-41h-778v-666h819v-41h-860zM631 1608l153 225h52l-164 -225h-41z" />
<glyph unicode="&#xca;" horiz-adv-x="1218" d="M205 0v1434h860v-41h-819v-645h778v-41h-778v-666h819v-41h-860zM405 1608l225 225h41l226 -225h-52l-194 194l-195 -194h-51z" />
<glyph unicode="&#xcb;" horiz-adv-x="1218" d="M205 0v1434h860v-41h-819v-645h778v-41h-778v-666h819v-41h-860zM436 1761q0 16 12.5 28.5t28.5 12.5t28.5 -12t12.5 -29q0 -16 -12 -28.5t-29 -12.5q-16 0 -28.5 12.5t-12.5 28.5zM785 1761q0 16 12 28.5t29 12.5q16 0 28.5 -12t12.5 -29q0 -16 -12.5 -28.5t-28.5 -12.5 q-17 0 -29 12.5t-12 28.5z" />
<glyph unicode="&#xcc;" horiz-adv-x="450" d="M41 1833h51l154 -225h-41zM205 0v1434h41v-1434h-41z" />
<glyph unicode="&#xcd;" horiz-adv-x="450" d="M205 0v1434h41v-1434h-41zM205 1608l153 225h52l-164 -225h-41z" />
<glyph unicode="&#xce;" horiz-adv-x="450" d="M-21 1608l225 225h41l226 -225h-52l-194 194l-195 -194h-51zM205 0v1434h41v-1434h-41z" />
<glyph unicode="&#xcf;" horiz-adv-x="450" d="M10 1761q0 16 12.5 28.5t28.5 12.5t28.5 -12t12.5 -29q0 -16 -12 -28.5t-29 -12.5q-16 0 -28.5 12.5t-12.5 28.5zM205 0v1434h41v-1434h-41zM359 1761q0 16 12 28.5t29 12.5q16 0 28.5 -12t12.5 -29q0 -16 -12.5 -28.5t-28.5 -12.5q-17 0 -29 12.5t-12 28.5z" />
<glyph unicode="&#xd0;" horiz-adv-x="1484" d="M51 696v41h215v697h400q195 0 351.5 -88.5t245.5 -251t89 -377.5t-89 -378t-246 -251t-351 -88h-400v696h-215zM307 41h359q180 0 327.5 82t232.5 235.5t85 358.5t-85 358.5t-232.5 235.5t-327.5 82h-359v-656h441v-41h-441v-655z" />
<glyph unicode="&#xd1;" horiz-adv-x="1454" d="M205 0v1434h102l860 -1393h41v1393h41v-1434h-102l-860 1393h-41v-1393h-41zM451 1649q0 76 42 119.5t111 43.5q39 0 67.5 -16t67.5 -49q37 -31 59.5 -44t51.5 -13q113 0 113 122h41q0 -76 -42 -119.5t-112 -43.5q-39 0 -67.5 16t-67.5 49q-37 31 -59.5 44.5t-51.5 13.5 q-113 0 -112 -123h-41z" />
<glyph unicode="&#xd2;" horiz-adv-x="1556" d="M133 717q0 215 86 383t233.5 261t325.5 93t325.5 -93t233.5 -261t86 -383t-86 -383t-233.5 -261t-325.5 -93t-325.5 93t-233.5 261t-86 383zM174 717q0 -205 80 -363.5t218 -246t306 -87.5t306.5 87.5t218 246t79.5 363.5t-79.5 363.5t-218 245.5t-306.5 87t-306 -87 t-218 -245.5t-80 -363.5zM594 1833h51l154 -225h-41z" />
<glyph unicode="&#xd3;" horiz-adv-x="1556" d="M133 717q0 215 86 383t233.5 261t325.5 93t325.5 -93t233.5 -261t86 -383t-86 -383t-233.5 -261t-325.5 -93t-325.5 93t-233.5 261t-86 383zM174 717q0 -205 80 -363.5t218 -246t306 -87.5t306.5 87.5t218 246t79.5 363.5t-79.5 363.5t-218 245.5t-306.5 87t-306 -87 t-218 -245.5t-80 -363.5zM758 1608l153 225h52l-164 -225h-41z" />
<glyph unicode="&#xd4;" horiz-adv-x="1556" d="M133 717q0 215 86 383t233.5 261t325.5 93t325.5 -93t233.5 -261t86 -383t-86 -383t-233.5 -261t-325.5 -93t-325.5 93t-233.5 261t-86 383zM174 717q0 -205 80 -363.5t218 -246t306 -87.5t306.5 87.5t218 246t79.5 363.5t-79.5 363.5t-218 245.5t-306.5 87t-306 -87 t-218 -245.5t-80 -363.5zM532 1608l225 225h41l226 -225h-52l-194 194l-195 -194h-51z" />
<glyph unicode="&#xd5;" horiz-adv-x="1556" d="M133 717q0 215 86 383t233.5 261t325.5 93t325.5 -93t233.5 -261t86 -383t-86 -383t-233.5 -261t-325.5 -93t-325.5 93t-233.5 261t-86 383zM174 717q0 -205 80 -363.5t218 -246t306 -87.5t306.5 87.5t218 246t79.5 363.5t-79.5 363.5t-218 245.5t-306.5 87t-306 -87 t-218 -245.5t-80 -363.5zM502 1649q0 76 42 119.5t111 43.5q39 0 67.5 -16t67.5 -49q37 -31 59.5 -44t51.5 -13q113 0 113 122h41q0 -76 -42 -119.5t-112 -43.5q-39 0 -67.5 16t-67.5 49q-37 31 -59.5 44.5t-51.5 13.5q-113 0 -112 -123h-41z" />
<glyph unicode="&#xd6;" horiz-adv-x="1556" d="M133 717q0 215 86 383t233.5 261t325.5 93t325.5 -93t233.5 -261t86 -383t-86 -383t-233.5 -261t-325.5 -93t-325.5 93t-233.5 261t-86 383zM174 717q0 -205 80 -363.5t218 -246t306 -87.5t306.5 87.5t218 246t79.5 363.5t-79.5 363.5t-218 245.5t-306.5 87t-306 -87 t-218 -245.5t-80 -363.5zM563 1761q0 16 12.5 28.5t28.5 12.5t28.5 -12t12.5 -29q0 -16 -12 -28.5t-29 -12.5q-16 0 -28.5 12.5t-12.5 28.5zM912 1761q0 16 12 28.5t29 12.5q16 0 28.5 -12t12.5 -29q0 -16 -12.5 -28.5t-28.5 -12.5q-17 0 -29 12.5t-12 28.5z" />
<glyph unicode="&#xd7;" horiz-adv-x="1064" d="M184 287l318 317l-318 318l31 30l317 -317l318 317l31 -30l-318 -318l318 -317l-31 -31l-318 317l-317 -317z" />
<glyph unicode="&#xd8;" horiz-adv-x="1556" d="M133 717q0 215 86 383t233.5 261t325.5 93t324 -92l76 143h41l-86 -162q135 -96 212.5 -258.5t77.5 -367.5q0 -215 -86 -383t-233.5 -261t-325.5 -93t-323 92l-76 -144h-41l86 162q-135 96 -213 259t-78 368zM174 717q0 -195 72.5 -347.5t197.5 -242.5l639 1200 q-139 86 -305 86q-168 0 -306 -87t-218 -245.5t-80 -363.5zM473 106q139 -86 305 -86q168 0 306.5 87.5t218 246t79.5 363.5q0 195 -72.5 347.5t-197.5 242.5z" />
<glyph unicode="&#xd9;" horiz-adv-x="1413" d="M184 563v871h41v-871q0 -160 64.5 -283.5t174 -191.5t243.5 -68q133 0 242.5 68t174 191.5t64.5 283.5v871h41v-871q0 -174 -69.5 -307t-189.5 -204.5t-263 -71.5q-144 0 -263.5 71.5t-189.5 204.5t-70 307zM522 1833h51l154 -225h-41z" />
<glyph unicode="&#xda;" horiz-adv-x="1413" d="M184 563v871h41v-871q0 -160 64.5 -283.5t174 -191.5t243.5 -68q133 0 242.5 68t174 191.5t64.5 283.5v871h41v-871q0 -174 -69.5 -307t-189.5 -204.5t-263 -71.5q-144 0 -263.5 71.5t-189.5 204.5t-70 307zM686 1608l153 225h52l-164 -225h-41z" />
<glyph unicode="&#xdb;" horiz-adv-x="1413" d="M184 563v871h41v-871q0 -160 64.5 -283.5t174 -191.5t243.5 -68q133 0 242.5 68t174 191.5t64.5 283.5v871h41v-871q0 -174 -69.5 -307t-189.5 -204.5t-263 -71.5q-144 0 -263.5 71.5t-189.5 204.5t-70 307zM461 1608l225 225h41l226 -225h-52l-194 194l-195 -194h-51z " />
<glyph unicode="&#xdc;" horiz-adv-x="1413" d="M184 563v871h41v-871q0 -160 64.5 -283.5t174 -191.5t243.5 -68q133 0 242.5 68t174 191.5t64.5 283.5v871h41v-871q0 -174 -69.5 -307t-189.5 -204.5t-263 -71.5q-144 0 -263.5 71.5t-189.5 204.5t-70 307zM491 1761q0 16 12.5 28.5t28.5 12.5t28.5 -12t12.5 -29 q0 -16 -12 -28.5t-29 -12.5q-16 0 -28.5 12.5t-12.5 28.5zM840 1761q0 16 12 28.5t29 12.5q16 0 28.5 -12t12.5 -29q0 -16 -12.5 -28.5t-28.5 -12.5q-17 0 -29 12.5t-12 28.5z" />
<glyph unicode="&#xdd;" horiz-adv-x="1187" d="M41 1434h47l485 -830h41l486 830h47l-533 -912v-522h-41v522zM574 1608l153 225h52l-164 -225h-41z" />
<glyph unicode="&#xde;" horiz-adv-x="1382" d="M205 0v1434h41v-369h665q156 0 257.5 -95.5t101.5 -252.5q0 -158 -101.5 -253t-257.5 -95h-665v-369h-41zM246 410h665q139 0 228.5 85t89.5 222t-89 222t-229 85h-665v-614z" />
<glyph unicode="&#xdf;" horiz-adv-x="1095" d="M174 0v1055q0 121 49 211t135 139t195 49q115 0 204 -49t137 -133t48 -187q0 -125 -65.5 -216t-180.5 -121v-11q125 -25 211 -124t86 -234q0 -170 -115.5 -274.5t-314.5 -104.5h-61v41h61q176 0 282.5 92t106.5 246q0 152 -109.5 245t-279.5 93h-61v41h61q158 0 248 92 t90 235q0 92 -43 167t-122 118t-183 43q-96 0 -173 -45t-121 -126t-44 -187v-1055h-41z" />
<glyph unicode="&#xe0;" horiz-adv-x="1064" d="M133 276q0 139 96.5 218t272.5 79h348v93q0 160 -85 249t-233 89q-147 0 -233 -78t-94 -199h-41q8 137 103 227t265 90q164 0 261.5 -99t97.5 -279v-666h-31l-10 225h-12q-57 -125 -157.5 -185t-229.5 -60q-142 0 -230 80.5t-88 215.5zM174 276q0 -121 76 -188.5 t201 -67.5q133 0 222 61.5t133 164t44 225.5v61h-348q-154 0 -241 -66.5t-87 -189.5zM359 1434h51l154 -226h-41z" />
<glyph unicode="&#xe1;" horiz-adv-x="1064" d="M133 276q0 139 96.5 218t272.5 79h348v93q0 160 -85 249t-233 89q-147 0 -233 -78t-94 -199h-41q8 137 103 227t265 90q164 0 261.5 -99t97.5 -279v-666h-31l-10 225h-12q-57 -125 -157.5 -185t-229.5 -60q-142 0 -230 80.5t-88 215.5zM174 276q0 -121 76 -188.5 t201 -67.5q133 0 222 61.5t133 164t44 225.5v61h-348q-154 0 -241 -66.5t-87 -189.5zM512 1208l153 226h52l-164 -226h-41z" />
<glyph unicode="&#xe2;" horiz-adv-x="1064" d="M133 276q0 139 96.5 218t272.5 79h348v93q0 160 -85 249t-233 89q-147 0 -233 -78t-94 -199h-41q8 137 103 227t265 90q164 0 261.5 -99t97.5 -279v-666h-31l-10 225h-12q-57 -125 -157.5 -185t-229.5 -60q-142 0 -230 80.5t-88 215.5zM174 276q0 -121 76 -188.5 t201 -67.5q133 0 222 61.5t133 164t44 225.5v61h-348q-154 0 -241 -66.5t-87 -189.5zM287 1208l225 226h41l226 -226h-52l-194 195l-195 -195h-51z" />
<glyph unicode="&#xe3;" horiz-adv-x="1064" d="M133 276q0 139 96.5 218t272.5 79h348v93q0 160 -85 249t-233 89q-147 0 -233 -78t-94 -199h-41q8 137 103 227t265 90q164 0 261.5 -99t97.5 -279v-666h-31l-10 225h-12q-57 -125 -157.5 -185t-229.5 -60q-142 0 -230 80.5t-88 215.5zM174 276q0 -121 76 -188.5 t201 -67.5q133 0 222 61.5t133 164t44 225.5v61h-348q-154 0 -241 -66.5t-87 -189.5zM256 1249q0 76 42 120t111 44q39 0 67.5 -16.5t67.5 -48.5q37 -31 59.5 -44.5t51.5 -13.5q113 0 113 123h41q0 -76 -42 -120t-112 -44q-39 0 -67.5 16.5t-67.5 49.5q-37 31 -59.5 44 t-51.5 13q-113 0 -112 -123h-41z" />
<glyph unicode="&#xe4;" horiz-adv-x="1064" d="M133 276q0 139 96.5 218t272.5 79h348v93q0 160 -85 249t-233 89q-147 0 -233 -78t-94 -199h-41q8 137 103 227t265 90q164 0 261.5 -99t97.5 -279v-666h-31l-10 225h-12q-57 -125 -157.5 -185t-229.5 -60q-142 0 -230 80.5t-88 215.5zM174 276q0 -121 76 -188.5 t201 -67.5q133 0 222 61.5t133 164t44 225.5v61h-348q-154 0 -241 -66.5t-87 -189.5zM317 1362q0 16 12.5 28.5t28.5 12.5t28.5 -12.5t12.5 -28.5t-12 -28.5t-29 -12.5q-16 0 -28.5 12.5t-12.5 28.5zM666 1362q0 16 12 28.5t29 12.5q16 0 28.5 -12.5t12.5 -28.5t-12.5 -28.5 t-28.5 -12.5q-17 0 -29 12.5t-12 28.5z" />
<glyph unicode="&#xe5;" horiz-adv-x="1064" d="M133 276q0 139 96.5 218t272.5 79h348v93q0 160 -85 249t-233 89q-147 0 -233 -78t-94 -199h-41q8 137 103 227t265 90q164 0 261.5 -99t97.5 -279v-666h-31l-10 225h-12q-57 -125 -157.5 -185t-229.5 -60q-142 0 -230 80.5t-88 215.5zM174 276q0 -121 76 -188.5 t201 -67.5q133 0 222 61.5t133 164t44 225.5v61h-348q-154 0 -241 -66.5t-87 -189.5zM369 1352q0 70 47 117t117 47t117 -47.5t47 -116.5q0 -70 -47.5 -117t-116.5 -47q-70 0 -117 47t-47 117zM410 1352q0 -53 34.5 -88t88.5 -35q53 0 88 34.5t35 88.5q0 53 -35 88t-88 35 t-88 -35t-35 -88z" />
<glyph unicode="&#xe6;" horiz-adv-x="1832" d="M133 266q0 133 94.5 210t274.5 77h348v113q0 160 -85 249t-233 89q-147 0 -233 -78t-94 -199h-41q8 137 103 227t265 90q145 0 240.5 -80.5t118.5 -226.5q45 143 156.5 225t252.5 82q127 0 224.5 -60t152 -166.5t54.5 -244.5v-61h-840q0 -150 53 -261.5t145.5 -171 t210.5 -59.5q125 0 219.5 69t139.5 198h41q-47 -147 -150.5 -227t-249.5 -80q-156 0 -274.5 96t-155.5 262q-31 -170 -141.5 -264t-277.5 -94q-145 0 -231.5 77.5t-86.5 208.5zM174 266q0 -115 72.5 -180.5t204.5 -65.5q133 0 222 61.5t133 164t44 225.5v41h-348 q-164 0 -246 -66.5t-82 -179.5zM891 553h799q0 139 -49.5 241.5t-137.5 156t-200 53.5q-113 0 -205 -57.5t-147.5 -160t-59.5 -233.5z" />
<glyph unicode="&#xe7;" horiz-adv-x="1064" d="M102 512q0 160 60.5 280.5t164 186t226.5 65.5q154 0 267.5 -94t152.5 -254h-41q-37 143 -141.5 225.5t-237.5 82.5q-113 0 -206 -61.5t-148.5 -173.5t-55.5 -257t55.5 -257t148.5 -173.5t206 -61.5q133 0 237.5 84t141.5 234h41q-39 -164 -148.5 -259t-261.5 -99 l-41 -82q74 0 114 -38t40 -96q0 -66 -43 -104.5t-131 -38.5h-51v41h51q68 0 100.5 27.5t32.5 74.5t-33 75t-100 28h-21v31l41 84q-117 8 -212 74.5t-151.5 185t-56.5 270.5z" />
<glyph unicode="&#xe8;" horiz-adv-x="1105" d="M102 512q0 156 61.5 276.5t167 188t232.5 67.5q125 0 226.5 -64.5t158 -177t56.5 -249.5v-61h-861q4 -139 61.5 -247t152 -166.5t206.5 -58.5q125 0 224.5 70t144.5 197h41q-45 -145 -153.5 -226t-256.5 -81q-127 0 -232.5 67.5t-167 188t-61.5 276.5zM143 532h820 q0 139 -52.5 247t-143.5 166.5t-202 58.5q-113 0 -208 -58.5t-152.5 -166t-61.5 -247.5zM389 1434h51l154 -226h-41z" />
<glyph unicode="&#xe9;" horiz-adv-x="1105" d="M102 512q0 156 61.5 276.5t167 188t232.5 67.5q125 0 226.5 -64.5t158 -177t56.5 -249.5v-61h-861q4 -139 61.5 -247t152 -166.5t206.5 -58.5q125 0 224.5 70t144.5 197h41q-45 -145 -153.5 -226t-256.5 -81q-127 0 -232.5 67.5t-167 188t-61.5 276.5zM143 532h820 q0 139 -52.5 247t-143.5 166.5t-202 58.5q-113 0 -208 -58.5t-152.5 -166t-61.5 -247.5zM543 1208l153 226h52l-164 -226h-41z" />
<glyph unicode="&#xea;" horiz-adv-x="1105" d="M102 512q0 156 61.5 276.5t167 188t232.5 67.5q125 0 226.5 -64.5t158 -177t56.5 -249.5v-61h-861q4 -139 61.5 -247t152 -166.5t206.5 -58.5q125 0 224.5 70t144.5 197h41q-45 -145 -153.5 -226t-256.5 -81q-127 0 -232.5 67.5t-167 188t-61.5 276.5zM143 532h820 q0 139 -52.5 247t-143.5 166.5t-202 58.5q-113 0 -208 -58.5t-152.5 -166t-61.5 -247.5zM317 1208l225 226h41l226 -226h-52l-194 195l-195 -195h-51z" />
<glyph unicode="&#xeb;" horiz-adv-x="1105" d="M102 512q0 156 61.5 276.5t167 188t232.5 67.5q125 0 226.5 -64.5t158 -177t56.5 -249.5v-61h-861q4 -139 61.5 -247t152 -166.5t206.5 -58.5q125 0 224.5 70t144.5 197h41q-45 -145 -153.5 -226t-256.5 -81q-127 0 -232.5 67.5t-167 188t-61.5 276.5zM143 532h820 q0 139 -52.5 247t-143.5 166.5t-202 58.5q-113 0 -208 -58.5t-152.5 -166t-61.5 -247.5zM348 1362q0 16 12.5 28.5t28.5 12.5t28.5 -12.5t12.5 -28.5t-12 -28.5t-29 -12.5q-16 0 -28.5 12.5t-12.5 28.5zM697 1362q0 16 12 28.5t29 12.5q16 0 28.5 -12.5t12.5 -28.5 t-12.5 -28.5t-28.5 -12.5q-17 0 -29 12.5t-12 28.5z" />
<glyph unicode="&#xec;" horiz-adv-x="409" d="M31 1434h51l154 -226h-41zM184 0v1024h41v-1024h-41z" />
<glyph unicode="&#xed;" horiz-adv-x="409" d="M184 0v1024h41v-1024h-41zM185 1208l153 226h52l-164 -226h-41z" />
<glyph unicode="&#xee;" horiz-adv-x="409" d="M-41 1208l225 226h41l226 -226h-52l-194 195l-195 -195h-51zM184 0v1024h41v-1024h-41z" />
<glyph unicode="&#xef;" horiz-adv-x="409" d="M10 1362q0 16 12.5 28.5t28.5 12.5t28.5 -12.5t12.5 -28.5t-12 -28.5t-29 -12.5q-16 0 -28.5 12.5t-12.5 28.5zM184 0v1024h41v-1024h-41zM318 1362q0 16 12 28.5t29 12.5q16 0 28.5 -12.5t12.5 -28.5t-12.5 -28.5t-28.5 -12.5q-17 0 -29 12.5t-12 28.5z" />
<glyph unicode="&#xf0;" horiz-adv-x="1075" d="M102 461q0 141 56.5 250.5t154 170t219.5 60.5q109 0 197 -47t141 -137h11q-35 111 -108 230.5t-179 219.5l-277 -153l-20 41l266 143q-43 43 -111.5 95t-134.5 89l41 21q123 -76 246 -184l246 133l20 -41l-235 -123q154 -154 241 -343.5t87 -404.5q0 -162 -59.5 -275.5 t-157 -169.5t-214.5 -56q-122 0 -219.5 60t-154 169.5t-56.5 251.5zM143 461q0 -131 50.5 -231.5t138.5 -155t200 -54.5q113 0 201 54.5t138.5 155t50.5 231.5t-50.5 231.5t-138.5 154.5t-201 54t-200.5 -54t-138 -154.5t-50.5 -231.5z" />
<glyph unicode="&#xf1;" horiz-adv-x="1157" d="M184 0v1024h31l10 -205h11q41 86 136 155.5t222 69.5q174 0 281.5 -113.5t107.5 -316.5v-614h-41v614q0 176 -96 283t-252 107q-102 0 -186 -50.5t-133.5 -139.5t-49.5 -200v-614h-41zM304 1249q0 76 42 120t111 44q39 0 67.5 -16.5t67.5 -48.5q37 -31 59.5 -44.5 t51.5 -13.5q113 0 113 123h41q0 -76 -42 -120t-112 -44q-39 0 -67.5 16.5t-67.5 49.5q-37 31 -59.5 44t-51.5 13q-113 0 -112 -123h-41z" />
<glyph unicode="&#xf2;" horiz-adv-x="1105" d="M102 512q0 160 60.5 280.5t164 186t226.5 65.5t226.5 -65.5t164 -186t60.5 -280.5t-60.5 -280.5t-164 -186t-226.5 -65.5t-226.5 65.5t-164 186t-60.5 280.5zM143 512q0 -145 55.5 -257t148.5 -173.5t206 -61.5t206 61.5t148.5 173.5t55.5 257t-55.5 257t-148.5 173.5 t-206 61.5t-206 -61.5t-148.5 -173.5t-55.5 -257zM379 1434h51l154 -226h-41z" />
<glyph unicode="&#xf3;" horiz-adv-x="1105" d="M102 512q0 160 60.5 280.5t164 186t226.5 65.5t226.5 -65.5t164 -186t60.5 -280.5t-60.5 -280.5t-164 -186t-226.5 -65.5t-226.5 65.5t-164 186t-60.5 280.5zM143 512q0 -145 55.5 -257t148.5 -173.5t206 -61.5t206 61.5t148.5 173.5t55.5 257t-55.5 257t-148.5 173.5 t-206 61.5t-206 -61.5t-148.5 -173.5t-55.5 -257zM533 1208l153 226h52l-164 -226h-41z" />
<glyph unicode="&#xf4;" horiz-adv-x="1105" d="M102 512q0 160 60.5 280.5t164 186t226.5 65.5t226.5 -65.5t164 -186t60.5 -280.5t-60.5 -280.5t-164 -186t-226.5 -65.5t-226.5 65.5t-164 186t-60.5 280.5zM143 512q0 -145 55.5 -257t148.5 -173.5t206 -61.5t206 61.5t148.5 173.5t55.5 257t-55.5 257t-148.5 173.5 t-206 61.5t-206 -61.5t-148.5 -173.5t-55.5 -257zM307 1208l225 226h41l226 -226h-52l-194 195l-195 -195h-51z" />
<glyph unicode="&#xf5;" horiz-adv-x="1105" d="M102 512q0 160 60.5 280.5t164 186t226.5 65.5t226.5 -65.5t164 -186t60.5 -280.5t-60.5 -280.5t-164 -186t-226.5 -65.5t-226.5 65.5t-164 186t-60.5 280.5zM143 512q0 -145 55.5 -257t148.5 -173.5t206 -61.5t206 61.5t148.5 173.5t55.5 257t-55.5 257t-148.5 173.5 t-206 61.5t-206 -61.5t-148.5 -173.5t-55.5 -257zM277 1249q0 76 42 120t111 44q39 0 67.5 -16.5t67.5 -48.5q37 -31 59.5 -44.5t51.5 -13.5q113 0 113 123h41q0 -76 -42 -120t-112 -44q-39 0 -67.5 16.5t-67.5 49.5q-37 31 -59.5 44t-51.5 13q-113 0 -112 -123h-41z" />
<glyph unicode="&#xf6;" horiz-adv-x="1105" d="M102 512q0 160 60.5 280.5t164 186t226.5 65.5t226.5 -65.5t164 -186t60.5 -280.5t-60.5 -280.5t-164 -186t-226.5 -65.5t-226.5 65.5t-164 186t-60.5 280.5zM143 512q0 -145 55.5 -257t148.5 -173.5t206 -61.5t206 61.5t148.5 173.5t55.5 257t-55.5 257t-148.5 173.5 t-206 61.5t-206 -61.5t-148.5 -173.5t-55.5 -257zM337 1362q0 16 12.5 28.5t28.5 12.5t28.5 -12.5t12.5 -28.5t-12 -28.5t-29 -12.5q-16 0 -28.5 12.5t-12.5 28.5zM686 1362q0 16 12 28.5t29 12.5q16 0 28.5 -12.5t12.5 -28.5t-12.5 -28.5t-28.5 -12.5q-17 0 -29 12.5 t-12 28.5z" />
<glyph unicode="&#xf7;" horiz-adv-x="1064" d="M143 573v41h779v-41h-779zM492 276q0 16 12 28.5t28 12.5t28.5 -12t12.5 -29q0 -16 -12 -28t-29 -12q-16 0 -28 12t-12 28zM492 911q0 16 12 28.5t28 12.5t28.5 -12t12.5 -29q0 -16 -12 -28.5t-29 -12.5q-16 0 -28 12.5t-12 28.5z" />
<glyph unicode="&#xf8;" horiz-adv-x="1105" d="M102 512q0 160 60.5 280.5t164 186t226.5 65.5q125 0 225 -65l62 117h41l-72 -138q90 -70 142.5 -184.5t52.5 -261.5q0 -160 -60.5 -280.5t-164 -186t-226.5 -65.5q-125 0 -225 65l-62 -117h-41l72 138q-90 70 -142.5 184.5t-52.5 261.5zM143 512q0 -133 47.5 -238.5 t126.5 -171.5l443 840q-96 61 -207 62q-113 0 -206 -61.5t-148.5 -173.5t-55.5 -257zM346 82q96 -61 207 -62q113 0 206 61.5t148.5 173.5t55.5 257q0 133 -47.5 238.5t-127.5 171.5z" />
<glyph unicode="&#xf9;" horiz-adv-x="1157" d="M174 410v614h41v-614q0 -176 96.5 -283t251.5 -107q102 0 186.5 50.5t133.5 139.5t49 200v614h41v-1024h-31l-10 205h-10q-39 -86 -135.5 -155.5t-223.5 -69.5q-174 0 -281.5 113.5t-107.5 316.5zM406 1434h51l154 -226h-41z" />
<glyph unicode="&#xfa;" horiz-adv-x="1157" d="M174 410v614h41v-614q0 -176 96.5 -283t251.5 -107q102 0 186.5 50.5t133.5 139.5t49 200v614h41v-1024h-31l-10 205h-10q-39 -86 -135.5 -155.5t-223.5 -69.5q-174 0 -281.5 113.5t-107.5 316.5zM559 1208l153 226h52l-164 -226h-41z" />
<glyph unicode="&#xfb;" horiz-adv-x="1157" d="M174 410v614h41v-614q0 -176 96.5 -283t251.5 -107q102 0 186.5 50.5t133.5 139.5t49 200v614h41v-1024h-31l-10 205h-10q-39 -86 -135.5 -155.5t-223.5 -69.5q-174 0 -281.5 113.5t-107.5 316.5zM334 1208l225 226h41l226 -226h-52l-194 195l-195 -195h-51z" />
<glyph unicode="&#xfc;" horiz-adv-x="1157" d="M174 410v614h41v-614q0 -176 96.5 -283t251.5 -107q102 0 186.5 50.5t133.5 139.5t49 200v614h41v-1024h-31l-10 205h-10q-39 -86 -135.5 -155.5t-223.5 -69.5q-174 0 -281.5 113.5t-107.5 316.5zM364 1362q0 16 12.5 28.5t28.5 12.5t28.5 -12.5t12.5 -28.5t-12 -28.5 t-29 -12.5q-16 0 -28.5 12.5t-12.5 28.5zM713 1362q0 16 12 28.5t29 12.5q16 0 28.5 -12.5t12.5 -28.5t-12.5 -28.5t-28.5 -12.5q-17 0 -29 12.5t-12 28.5z" />
<glyph unicode="&#xfd;" horiz-adv-x="901" d="M41 1024h43l356 -952h39l338 952h43l-471 -1321q-23 -66 -60.5 -89.5t-103.5 -23.5h-102v41h102q57 0 84 22.5t47 80.5l82 229zM441 1208l153 226h52l-164 -226h-41z" />
<glyph unicode="&#xfe;" horiz-adv-x="1177" d="M195 -410v1844h41v-656h10q141 266 389 266q123 0 223 -65.5t158.5 -186t58.5 -280.5t-58.5 -280.5t-158.5 -186t-223 -65.5q-248 0 -389 266h-10v-656h-41zM236 512q0 -147 56 -259t147 -172.5t196 -60.5q108 0 199.5 59.5t145.5 171t54 261.5t-54 261.5t-145.5 171 t-199.5 59.5q-104 0 -195.5 -60.5t-147.5 -172.5t-56 -259z" />
<glyph unicode="&#xff;" horiz-adv-x="901" d="M41 1024h43l356 -952h39l338 952h43l-471 -1321q-23 -66 -60.5 -89.5t-103.5 -23.5h-102v41h102q57 0 84 22.5t47 80.5l82 229zM245 1362q0 16 12.5 28.5t28.5 12.5t28.5 -12.5t12.5 -28.5t-12 -28.5t-29 -12.5q-16 0 -28.5 12.5t-12.5 28.5zM594 1362q0 16 12 28.5 t29 12.5q16 0 28.5 -12.5t12.5 -28.5t-12.5 -28.5t-28.5 -12.5q-17 0 -29 12.5t-12 28.5z" />
<glyph unicode="&#x131;" horiz-adv-x="409" d="M184 0v1024h41v-1024h-41z" />
<glyph unicode="&#x132;" horiz-adv-x="1239" d="M205 0v1434h41v-1434h-41zM492 0v41h379q59 0 96 40t37 103v1250h41v-1250q0 -84 -48 -134t-126 -50h-379z" />
<glyph unicode="&#x133;" horiz-adv-x="819" d="M164 1362q0 16 12 28.5t29 12.5q16 0 28.5 -12.5t12.5 -28.5t-12.5 -28.5t-28.5 -12.5q-17 0 -29 12.5t-12 28.5zM184 0v1024h41v-1024h-41zM328 -369h154q53 0 82.5 30t29.5 83v1280h41v-1280q0 -154 -153 -154h-154v41zM574 1362q0 16 12 28.5t29 12.5q16 0 28.5 -12.5 t12.5 -28.5t-12.5 -28.5t-28.5 -12.5q-17 0 -29 12.5t-12 28.5z" />
<glyph unicode="&#x13f;" horiz-adv-x="1085" d="M205 0v1434h41v-1393h778v-41h-819zM727 768q0 16 12 28.5t29 12.5q16 0 28.5 -12.5t12.5 -28.5t-12.5 -28.5t-28.5 -12.5q-17 0 -29 12t-12 29z" />
<glyph unicode="&#x140;" horiz-adv-x="581" d="M195 0v1434h41v-1434h-41zM465 727q0 16 12 28.5t29 12.5q16 0 28.5 -12.5t12.5 -28.5t-12.5 -28.5t-28.5 -12.5q-17 0 -29 12t-12 29z" />
<glyph unicode="&#x152;" horiz-adv-x="2355" d="M133 717q0 215 83 383t225.5 261t316.5 93q127 0 243.5 -54t202.5 -154.5t127 -231.5h10v420h861v-41h-820v-645h779v-41h-779v-666h820v-41h-861v420h-10q-61 -201 -218 -320.5t-355 -119.5q-174 0 -316.5 93t-225.5 261t-83 383zM174 717q0 -205 77 -363.5t210 -246 t297 -87.5t297 87.5t209.5 246t76.5 363.5t-76.5 363.5t-209.5 245.5t-297 87t-297 -87t-210 -245.5t-77 -363.5z" />
<glyph unicode="&#x153;" horiz-adv-x="1904" d="M102 512q0 156 56.5 276.5t155 188t218.5 67.5q147 0 260 -96t150 -262q45 168 161 263t269 95q127 0 224.5 -60t151.5 -166.5t54 -244.5v-61h-839q0 -150 53 -261.5t145 -171t211 -59.5q125 0 219.5 69t139.5 198h41q-47 -147 -150.5 -227t-249.5 -80q-156 0 -274.5 96 t-155.5 262q-39 -162 -151.5 -260t-258.5 -98q-122 0 -219.5 67.5t-154 188t-56.5 276.5zM143 512q0 -145 52.5 -257t141.5 -173.5t195 -61.5q107 0 196 61.5t141.5 173.5t52.5 257t-52.5 257t-141.5 173.5t-196 61.5q-106 0 -195 -61.5t-141.5 -173.5t-52.5 -257zM963 553 h798q0 139 -49 241.5t-137 156t-201 53.5t-205 -57.5t-147 -160t-59 -233.5z" />
<glyph unicode="&#x178;" horiz-adv-x="1187" d="M41 1434h47l485 -830h41l486 830h47l-533 -912v-522h-41v522zM378 1761q0 16 12.5 28.5t28.5 12.5t28.5 -12t12.5 -29q0 -16 -12 -28.5t-29 -12.5q-16 0 -28.5 12.5t-12.5 28.5zM727 1761q0 16 12 28.5t29 12.5q16 0 28.5 -12t12.5 -29q0 -16 -12.5 -28.5t-28.5 -12.5 q-17 0 -29 12.5t-12 28.5z" />
<glyph unicode="&#x237;" horiz-adv-x="409" d="M-82 -369h154q53 0 82.5 30t29.5 83v1280h41v-1280q0 -154 -153 -154h-154v41z" />
<glyph unicode="&#x2c6;" horiz-adv-x="614" d="M61 1229l226 225h41l225 -225h-51l-195 194l-194 -194h-52z" />
<glyph unicode="&#x2dc;" horiz-adv-x="675" d="M61 1249q0 76 42 120t112 44q39 0 67.5 -16.5t67.5 -48.5q37 -31 59.5 -44.5t51.5 -13.5q113 0 112 123h41q0 -76 -42 -120t-111 -44q-39 0 -67.5 16.5t-67.5 49.5q-37 31 -59.5 44t-51.5 13q-113 0 -113 -123h-41z" />
<glyph unicode="&#x1e9e;" horiz-adv-x="1351" d="M195 0v1034q0 190 100 295t278 105h615v-41l-533 -584v-10h123q131 0 230.5 -52.5t155 -143.5t55.5 -204t-55.5 -204t-155 -143t-230.5 -52h-174v41h174q121 0 211 46t139.5 128t49.5 184t-49.5 184.5t-139.5 128.5t-211 46h-174v51l533 584h-564q-162 0 -249.5 -94.5 t-87.5 -264.5v-1034h-41z" />
<glyph unicode="&#x2000;" horiz-adv-x="957" />
<glyph unicode="&#x2001;" horiz-adv-x="1915" />
<glyph unicode="&#x2002;" horiz-adv-x="957" />
<glyph unicode="&#x2003;" horiz-adv-x="1915" />
<glyph unicode="&#x2004;" horiz-adv-x="638" />
<glyph unicode="&#x2005;" horiz-adv-x="478" />
<glyph unicode="&#x2006;" horiz-adv-x="319" />
<glyph unicode="&#x2007;" horiz-adv-x="319" />
<glyph unicode="&#x2008;" horiz-adv-x="239" />
<glyph unicode="&#x2009;" horiz-adv-x="383" />
<glyph unicode="&#x200a;" horiz-adv-x="106" />
<glyph unicode="&#x2010;" horiz-adv-x="860" d="M102 563v41h656v-41h-656z" />
<glyph unicode="&#x2011;" horiz-adv-x="860" d="M102 563v41h656v-41h-656z" />
<glyph unicode="&#x2012;" horiz-adv-x="860" d="M102 563v41h656v-41h-656z" />
<glyph unicode="&#x2013;" horiz-adv-x="1126" d="M82 563v41h962v-41h-962z" />
<glyph unicode="&#x2014;" horiz-adv-x="1454" d="M82 563v41h1290v-41h-1290z" />
<glyph unicode="&#x2018;" horiz-adv-x="368" d="M123 1188l72 246h30l-51 -246h-51z" />
<glyph unicode="&#x2019;" horiz-adv-x="368" d="M143 1188l52 246h51l-72 -246h-31z" />
<glyph unicode="&#x201a;" horiz-adv-x="378" d="M113 -184l51 245h51l-72 -245h-30z" />
<glyph unicode="&#x201c;" horiz-adv-x="532" d="M123 1188l72 246h30l-51 -246h-51zM287 1188l72 246h30l-51 -246h-51z" />
<glyph unicode="&#x201d;" horiz-adv-x="532" d="M143 1188l52 246h51l-72 -246h-31zM307 1188l52 246h51l-72 -246h-31z" />
<glyph unicode="&#x201e;" horiz-adv-x="542" d="M113 -184l51 245h51l-72 -245h-30zM277 -184l51 245h51l-72 -245h-30z" />
<glyph unicode="&#x2022;" horiz-adv-x="655" d="M246 553q0 35 24.5 58.5t57.5 23.5q35 0 58.5 -23.5t23.5 -58.5q0 -33 -24 -57.5t-58 -24.5q-33 0 -57.5 24.5t-24.5 57.5z" />
<glyph unicode="&#x2026;" horiz-adv-x="1167" d="M154 31q0 16 12 28.5t29 12.5q16 0 28.5 -12.5t12.5 -28.5t-12.5 -28.5t-28.5 -12.5q-17 0 -29 12t-12 29zM543 31q0 16 12 28.5t29 12.5q16 0 28.5 -12.5t12.5 -28.5t-12.5 -28.5t-28.5 -12.5q-17 0 -29 12t-12 29zM932 31q0 16 12 28.5t29 12.5q16 0 28.5 -12.5 t12.5 -28.5t-12.5 -28.5t-28.5 -12.5q-17 0 -29 12t-12 29z" />
<glyph unicode="&#x202f;" horiz-adv-x="383" />
<glyph unicode="&#x2039;" horiz-adv-x="583" d="M133 512l266 369h52l-267 -369l267 -369h-52z" />
<glyph unicode="&#x203a;" horiz-adv-x="583" d="M133 143l266 369l-266 369h51l267 -369l-267 -369h-51z" />
<glyph unicode="&#x2044;" horiz-adv-x="174" d="M-379 0l891 1434h41l-891 -1434h-41z" />
<glyph unicode="&#x205f;" horiz-adv-x="478" />
<glyph unicode="&#x2070;" horiz-adv-x="696" d="M82 1270q0 182 75.5 280.5t190.5 98.5t190.5 -98.5t75.5 -280.5t-75.5 -280.5t-190.5 -98.5t-190.5 98t-75.5 281zM123 1270q0 -154 62.5 -246t162.5 -92q101 0 163 92t62 246t-62 246t-163 92q-100 0 -162.5 -92.5t-62.5 -245.5z" />
<glyph unicode="&#x2074;" horiz-adv-x="583" d="M10 1085v41l297 512h82v-512h123v-41h-123v-184h-41v184h-338zM61 1126h287v471h-20l-267 -460v-11z" />
<glyph unicode="&#x2075;" horiz-adv-x="665" d="M92 1106h41q16 -84 68.5 -129t136.5 -45q92 0 148.5 56t56.5 149q0 94 -56.5 149t-148.5 55q-102 0 -164 -92h-72l41 389h400v-41h-369l-31 -317h11q68 102 184 102q106 0 176 -69.5t70 -175.5t-69 -176t-177 -70q-96 0 -164 55t-82 160z" />
<glyph unicode="&#x2076;" horiz-adv-x="614" d="M61 1137q0 86 41 153l215 348h41l-184 -297h10q55 41 123 41q106 0 176 -71.5t70 -173.5t-69.5 -174t-176.5 -72q-104 0 -175 72.5t-71 173.5zM102 1137q0 -88 59.5 -146.5t145.5 -58.5t145.5 58.5t59.5 146.5t-59.5 146t-145.5 58t-145.5 -58t-59.5 -146z" />
<glyph unicode="&#x2077;" horiz-adv-x="593" d="M102 1597v41h430v-41l-307 -696h-41l308 696h-390z" />
<glyph unicode="&#x2078;" horiz-adv-x="675" d="M102 1096q0 63 35 110t88 74v10q-45 18 -78.5 59.5t-33.5 104.5q0 90 64.5 142.5t160.5 52.5t160.5 -52.5t64.5 -142.5q0 -63 -33.5 -104t-78.5 -60v-10q51 -27 86.5 -74t35.5 -110q0 -86 -65.5 -145.5t-169.5 -59.5q-105 0 -170.5 59.5t-65.5 145.5zM143 1096 q0 -74 57.5 -119t137.5 -45t137 45t57 119q0 76 -57 120t-137 44t-137.5 -45.5t-57.5 -118.5zM154 1454q0 -72 54 -113t130 -41t130 41t54 113t-54 113t-130 41t-130 -41t-54 -113z" />
<glyph unicode="&#x2079;" horiz-adv-x="614" d="M61 1403q0 102 70 174t176 72q104 0 175 -73t71 -173q0 -86 -41 -154l-215 -348h-41l184 297h-10q-55 -41 -123 -41q-106 0 -176 71.5t-70 174.5zM102 1403q0 -88 59.5 -146.5t145.5 -58.5t145.5 58.5t59.5 146.5t-59.5 146.5t-145.5 58.5t-145.5 -58.5t-59.5 -146.5z " />
<glyph unicode="&#x2080;" horiz-adv-x="696" d="M82 164q0 182 75.5 280.5t190.5 98.5t190.5 -98.5t75.5 -280.5t-75.5 -280.5t-190.5 -98.5t-190.5 98t-75.5 281zM123 164q0 -154 62.5 -246t162.5 -92q101 0 163 92t62 246t-62 246t-163 92q-100 0 -162.5 -92.5t-62.5 -245.5z" />
<glyph unicode="&#x2081;" horiz-adv-x="512" d="M82 369v41h154q61 0 61 61v61h41v-737h-41v574h-215z" />
<glyph unicode="&#x2082;" horiz-adv-x="665" d="M113 307q0 106 62.5 171t162.5 65q98 0 156.5 -56.5t58.5 -148.5q0 -63 -24.5 -109.5t-77.5 -105.5l-256 -277v-10h368v-41h-440v31l297 328q51 55 71.5 94t20.5 90q0 72 -46 118t-128 46q-80 0 -132 -52.5t-52 -142.5h-41z" />
<glyph unicode="&#x2083;" horiz-adv-x="645" d="M92 0h41q0 -78 50 -126t134 -48t134.5 44t50.5 120t-50.5 120t-134.5 44h-61v40h61q76 0 125.5 40t49.5 114t-47.5 114t-127.5 40q-82 0 -128 -46t-46 -118h-41q0 88 59.5 146.5t155.5 58.5q94 0 156 -52.5t62 -142.5q0 -53 -29 -97t-86 -67v-10q57 -25 90 -72t33 -112 q0 -92 -62.5 -148.5t-163.5 -56.5q-98 0 -161.5 61.5t-63.5 153.5z" />
<glyph unicode="&#x2084;" horiz-adv-x="583" d="M10 20l297 512h82v-512h123v-41h-123v-184h-41v184h-338v41zM61 20h287v471h-20l-267 -460v-11z" />
<glyph unicode="&#x2085;" horiz-adv-x="665" d="M92 0h41q16 -84 68.5 -129t136.5 -45q92 0 148.5 56t56.5 149q0 94 -56.5 149t-148.5 55q-102 0 -164 -92h-72l41 389h400v-41h-369l-31 -317h11q68 102 184 102q106 0 176 -69.5t70 -175.5t-69 -176t-177 -70q-96 0 -164 55t-82 160z" />
<glyph unicode="&#x2086;" horiz-adv-x="614" d="M61 31q0 86 41 153l215 348h41l-184 -297h10q55 41 123 41q106 0 176 -71.5t70 -173.5t-69.5 -174t-176.5 -72q-104 0 -175 72.5t-71 173.5zM102 31q0 -88 59.5 -146.5t145.5 -58.5t145.5 58.5t59.5 146.5t-59.5 146t-145.5 58t-145.5 -58t-59.5 -146z" />
<glyph unicode="&#x2087;" horiz-adv-x="593" d="M102 491v41h430v-41l-307 -696h-41l308 696h-390z" />
<glyph unicode="&#x2088;" horiz-adv-x="675" d="M102 -10q0 63 35 110t88 74v10q-45 18 -78.5 59.5t-33.5 104.5q0 90 64.5 142.5t160.5 52.5t160.5 -52.5t64.5 -142.5q0 -63 -33.5 -104t-78.5 -60v-10q51 -27 86.5 -74t35.5 -110q0 -86 -65.5 -145.5t-169.5 -59.5q-105 0 -170.5 59.5t-65.5 145.5zM143 -10 q0 -74 57.5 -119t137.5 -45t137 45t57 119q0 76 -57 120t-137 44t-137.5 -45.5t-57.5 -118.5zM154 348q0 -72 54 -113t130 -41t130 41t54 113t-54 113t-130 41t-130 -41t-54 -113z" />
<glyph unicode="&#x2089;" horiz-adv-x="614" d="M61 297q0 102 70 174t176 72q104 0 175 -73t71 -173q0 -86 -41 -154l-215 -348h-41l184 297h-10q-55 -41 -123 -41q-106 0 -176 71.5t-70 174.5zM102 297q0 -88 59.5 -146.5t145.5 -58.5t145.5 58.5t59.5 146.5t-59.5 146.5t-145.5 58.5t-145.5 -58.5t-59.5 -146.5z" />
<glyph unicode="&#x20ac;" horiz-adv-x="1372" d="M41 532v41h166q-10 76 -10 144t10 143h-166v41h172q37 182 139.5 307t239.5 185.5t278 60.5q133 0 217 -24.5t183 -77.5v-41q-98 53 -182 77.5t-218 24.5q-131 0 -258 -56.5t-223 -172t-133 -283.5h737v-41h-745q-10 -76 -10 -143q0 -68 10 -144h745v-41h-737 q37 -168 133 -283.5t223 -172t258 -56.5q133 0 217 25t183 78v-41q-98 -53 -182 -77.5t-218 -24.5q-141 0 -278 60t-239.5 185t-139.5 307h-172z" />
<glyph unicode="&#x2116;" horiz-adv-x="2129" d="M205 0v1434h102l840 -1393h41v1393h41v-1434h-103l-839 1393h-41v-1393h-41zM1403 604q0 90 40 163t107.5 114t149.5 41t149.5 -41t107.5 -114t40 -163t-40 -162.5t-107.5 -113.5t-149.5 -41t-149.5 41t-107.5 113.5t-40 162.5zM1413 0v41h574v-41h-574zM1444 604 q0 -82 36 -145.5t94 -97t126 -33.5q67 0 125.5 33.5t94.5 97t36 145.5t-36 145.5t-94.5 97.5t-125.5 34q-68 0 -126 -34t-94 -97.5t-36 -145.5z" />
<glyph unicode="&#x2122;" horiz-adv-x="1402" d="M41 1393v41h451v-41h-205v-574h-41v574h-205zM604 819v615h92l215 -574h21l215 574h92v-615h-41v574h-20l-215 -574h-82l-215 574h-21v-574h-41z" />
<glyph unicode="&#x2150;" horiz-adv-x="1280" d="M82 1270v41h154q61 0 61 61v61h41v-737h-41v574h-215zM133 0l891 1434h41l-891 -1434h-41zM788 696v41h430v-41l-307 -696h-41l308 696h-390z" />
<glyph unicode="&#x2151;" horiz-adv-x="1300" d="M82 1270v41h154q61 0 61 61v61h41v-737h-41v574h-215zM133 0l891 1434h41l-891 -1434h-41zM747 502q0 102 70 174t176 72q104 0 175 -73t71 -173q0 -86 -41 -154l-215 -348h-41l184 297h-10q-55 -41 -123 -41q-106 0 -176 71.5t-70 174.5zM788 502q0 -88 59.5 -146.5 t145.5 -58.5t145.5 58.5t59.5 146.5t-59.5 146.5t-145.5 58.5t-145.5 -58.5t-59.5 -146.5z" />
<glyph unicode="&#x2152;" horiz-adv-x="1802" d="M82 1270v41h154q61 0 61 61v61h41v-737h-41v574h-215zM133 0l891 1434h41l-891 -1434h-41zM768 574v41h154q61 0 61 61v61h41v-737h-41v574h-215zM1188 369q0 182 75.5 280.5t190.5 98.5t190.5 -98.5t75.5 -280.5t-75.5 -280.5t-190.5 -98.5t-190.5 98t-75.5 281z M1229 369q0 -154 62.5 -246t162.5 -92q101 0 163 92t62 246t-62 246t-163 92q-100 0 -162.5 -92.5t-62.5 -245.5z" />
<glyph unicode="&#x2153;" horiz-adv-x="1331" d="M82 1270v41h154q61 0 61 61v61h41v-737h-41v574h-215zM133 0l891 1434h41l-891 -1434h-41zM778 205h41q0 -78 50 -126t134 -48t134.5 44t50.5 120t-50.5 120t-134.5 44h-61v40h61q76 0 125.5 40t49.5 114t-47.5 114t-127.5 40q-82 0 -128 -46t-46 -118h-41 q0 88 59.5 146.5t155.5 58.5q94 0 156 -52.5t62 -142.5q0 -53 -29 -97t-86 -67v-10q57 -25 90 -72t33 -112q0 -92 -62.5 -148.5t-163.5 -56.5q-98 0 -161.5 61.5t-63.5 153.5z" />
<glyph unicode="&#x2154;" horiz-adv-x="1484" d="M113 1208q0 106 62.5 171t162.5 65q98 0 156.5 -56.5t58.5 -148.5q0 -63 -24.5 -109.5t-77.5 -105.5l-256 -277v-10h368v-41h-440v31l297 328q51 55 71.5 94t20.5 90q0 72 -46 118t-128 46q-80 0 -132 -52.5t-52 -142.5h-41zM287 0l891 1434h41l-891 -1434h-41zM932 205 h41q0 -78 50 -126t134 -48t134.5 44t50.5 120t-50.5 120t-134.5 44h-61v40h61q76 0 125.5 40t49.5 114t-47.5 114t-127.5 40q-82 0 -128 -46t-46 -118h-41q0 88 59.5 146.5t155.5 58.5q94 0 156 -52.5t62 -142.5q0 -53 -29 -97t-86 -67v-10q57 -25 90 -72t33 -112 q0 -92 -62.5 -148.5t-163.5 -56.5q-98 0 -161.5 61.5t-63.5 153.5z" />
<glyph unicode="&#x2155;" horiz-adv-x="1351" d="M82 1270v41h154q61 0 61 61v61h41v-737h-41v574h-215zM133 0l891 1434h41l-891 -1434h-41zM778 205h41q16 -84 68.5 -129t136.5 -45q92 0 148.5 56t56.5 149q0 94 -56.5 149t-148.5 55q-102 0 -164 -92h-72l41 389h400v-41h-369l-31 -317h11q68 102 184 102 q106 0 176 -69.5t70 -175.5t-69 -176t-177 -70q-96 0 -164 55t-82 160z" />
<glyph unicode="&#x2156;" horiz-adv-x="1505" d="M113 1208q0 106 62.5 171t162.5 65q98 0 156.5 -56.5t58.5 -148.5q0 -63 -24.5 -109.5t-77.5 -105.5l-256 -277v-10h368v-41h-440v31l297 328q51 55 71.5 94t20.5 90q0 72 -46 118t-128 46q-80 0 -132 -52.5t-52 -142.5h-41zM287 0l891 1434h41l-891 -1434h-41zM932 205 h41q16 -84 68.5 -129t136.5 -45q92 0 148.5 56t56.5 149q0 94 -56.5 149t-148.5 55q-102 0 -164 -92h-72l41 389h400v-41h-369l-31 -317h11q68 102 184 102q106 0 176 -69.5t70 -175.5t-69 -176t-177 -70q-96 0 -164 55t-82 160z" />
<glyph unicode="&#x2157;" horiz-adv-x="1484" d="M92 901h41q0 -78 50 -126t134 -48t134.5 44t50.5 120t-50.5 120t-134.5 44h-61v40h61q76 0 125.5 40t49.5 114t-47.5 114t-127.5 40q-82 0 -128 -46t-46 -118h-41q0 88 59.5 146.5t155.5 58.5q94 0 156 -52.5t62 -142.5q0 -53 -29 -97t-86 -67v-10q57 -25 90 -72t33 -112 q0 -92 -62.5 -148.5t-163.5 -56.5q-98 0 -161.5 61.5t-63.5 153.5zM266 0l891 1434h41l-891 -1434h-41zM911 205h41q16 -84 68.5 -129t136.5 -45q92 0 148.5 56t56.5 149q0 94 -56.5 149t-148.5 55q-102 0 -164 -92h-72l41 389h400v-41h-369l-31 -317h11q68 102 184 102 q106 0 176 -69.5t70 -175.5t-69 -176t-177 -70q-96 0 -164 55t-82 160z" />
<glyph unicode="&#x2158;" horiz-adv-x="1423" d="M10 880v41l297 512h82v-512h123v-41h-123v-184h-41v184h-338zM61 921h287v471h-20l-267 -460v-11zM205 0l891 1434h41l-891 -1434h-41zM850 205h41q16 -84 68.5 -129t136.5 -45q92 0 148.5 56t56.5 149q0 94 -56.5 149t-148.5 55q-102 0 -164 -92h-72l41 389h400v-41 h-369l-31 -317h11q68 102 184 102q106 0 176 -69.5t70 -175.5t-69 -176t-177 -70q-96 0 -164 55t-82 160z" />
<glyph unicode="&#x2159;" horiz-adv-x="1300" d="M82 1270v41h154q61 0 61 61v61h41v-737h-41v574h-215zM133 0l891 1434h41l-891 -1434h-41zM747 236q0 86 41 153l215 348h41l-184 -297h10q55 41 123 41q106 0 176 -71.5t70 -173.5t-69.5 -174t-176.5 -72q-104 0 -175 72.5t-71 173.5zM788 236q0 -88 59.5 -146.5 t145.5 -58.5t145.5 58.5t59.5 146.5t-59.5 146t-145.5 58t-145.5 -58t-59.5 -146z" />
<glyph unicode="&#x215a;" horiz-adv-x="1454" d="M92 901h41q16 -84 68.5 -129t136.5 -45q92 0 148.5 56t56.5 149q0 94 -56.5 149t-148.5 55q-102 0 -164 -92h-72l41 389h400v-41h-369l-31 -317h11q68 102 184 102q106 0 176 -69.5t70 -175.5t-69 -176t-177 -70q-96 0 -164 55t-82 160zM287 0l891 1434h41l-891 -1434 h-41zM901 236q0 86 41 153l215 348h41l-184 -297h10q55 41 123 41q106 0 176 -71.5t70 -173.5t-69.5 -174t-176.5 -72q-104 0 -175 72.5t-71 173.5zM942 236q0 -88 59.5 -146.5t145.5 -58.5t145.5 58.5t59.5 146.5t-59.5 146t-145.5 58t-145.5 -58t-59.5 -146z" />
<glyph unicode="&#x215b;" horiz-adv-x="1361" d="M82 1270v41h154q61 0 61 61v61h41v-737h-41v574h-215zM133 0l891 1434h41l-891 -1434h-41zM788 195q0 63 35 110t88 74v10q-45 18 -78.5 59.5t-33.5 104.5q0 90 64.5 142.5t160.5 52.5t160.5 -52.5t64.5 -142.5q0 -63 -33.5 -104t-78.5 -60v-10q51 -27 86.5 -74 t35.5 -110q0 -86 -65.5 -145.5t-169.5 -59.5q-105 0 -170.5 59.5t-65.5 145.5zM829 195q0 -74 57.5 -119t137.5 -45t137 45t57 119q0 76 -57 120t-137 44t-137.5 -45.5t-57.5 -118.5zM840 553q0 -72 54 -113t130 -41t130 41t54 113t-54 113t-130 41t-130 -41t-54 -113z" />
<glyph unicode="&#x215c;" horiz-adv-x="1495" d="M92 901h41q0 -78 50 -126t134 -48t134.5 44t50.5 120t-50.5 120t-134.5 44h-61v40h61q76 0 125.5 40t49.5 114t-47.5 114t-127.5 40q-82 0 -128 -46t-46 -118h-41q0 88 59.5 146.5t155.5 58.5q94 0 156 -52.5t62 -142.5q0 -53 -29 -97t-86 -67v-10q57 -25 90 -72t33 -112 q0 -92 -62.5 -148.5t-163.5 -56.5q-98 0 -161.5 61.5t-63.5 153.5zM266 0l891 1434h41l-891 -1434h-41zM921 195q0 63 35 110t88 74v10q-45 18 -78.5 59.5t-33.5 104.5q0 90 64.5 142.5t160.5 52.5t160.5 -52.5t64.5 -142.5q0 -63 -33.5 -104t-78.5 -60v-10q51 -27 86.5 -74 t35.5 -110q0 -86 -65.5 -145.5t-169.5 -59.5q-105 0 -170.5 59.5t-65.5 145.5zM962 195q0 -74 57.5 -119t137.5 -45t137 45t57 119q0 76 -57 120t-137 44t-137.5 -45.5t-57.5 -118.5zM973 553q0 -72 54 -113t130 -41t130 41t54 113t-54 113t-130 41t-130 -41t-54 -113z" />
<glyph unicode="&#x215d;" horiz-adv-x="1515" d="M92 901h41q16 -84 68.5 -129t136.5 -45q92 0 148.5 56t56.5 149q0 94 -56.5 149t-148.5 55q-102 0 -164 -92h-72l41 389h400v-41h-369l-31 -317h11q68 102 184 102q106 0 176 -69.5t70 -175.5t-69 -176t-177 -70q-96 0 -164 55t-82 160zM287 0l891 1434h41l-891 -1434 h-41zM942 195q0 63 35 110t88 74v10q-45 18 -78.5 59.5t-33.5 104.5q0 90 64.5 142.5t160.5 52.5t160.5 -52.5t64.5 -142.5q0 -63 -33.5 -104t-78.5 -60v-10q51 -27 86.5 -74t35.5 -110q0 -86 -65.5 -145.5t-169.5 -59.5q-105 0 -170.5 59.5t-65.5 145.5zM983 195 q0 -74 57.5 -119t137.5 -45t137 45t57 119q0 76 -57 120t-137 44t-137.5 -45.5t-57.5 -118.5zM994 553q0 -72 54 -113t130 -41t130 41t54 113t-54 113t-130 41t-130 -41t-54 -113z" />
<glyph unicode="&#x215e;" horiz-adv-x="1443" d="M102 1392v41h430v-41l-307 -696h-41l308 696h-390zM215 0l891 1434h41l-891 -1434h-41zM870 195q0 63 35 110t88 74v10q-45 18 -78.5 59.5t-33.5 104.5q0 90 64.5 142.5t160.5 52.5t160.5 -52.5t64.5 -142.5q0 -63 -33.5 -104t-78.5 -60v-10q51 -27 86.5 -74t35.5 -110 q0 -86 -65.5 -145.5t-169.5 -59.5q-105 0 -170.5 59.5t-65.5 145.5zM911 195q0 -74 57.5 -119t137.5 -45t137 45t57 119q0 76 -57 120t-137 44t-137.5 -45.5t-57.5 -118.5zM922 553q0 -72 54 -113t130 -41t130 41t54 113t-54 113t-130 41t-130 -41t-54 -113z" />
<glyph unicode="&#x2460;" d="M164 717q0 238 114.5 434.5t311 311t434.5 114.5t434.5 -114.5t311 -311.5t114.5 -434q0 -238 -114.5 -434.5t-311 -311t-434.5 -114.5t-434.5 114.5t-311 311t-114.5 434.5zM205 717q0 -227 108.5 -414.5t296 -296t414.5 -108.5t414.5 108.5t296 295.5t108.5 415 q0 227 -108.5 414.5t-296 296t-414.5 108.5t-414.5 -108.5t-296 -296t-108.5 -414.5zM809 922v41h154q61 0 61 61v61h41v-737h-41v574h-215z" />
<glyph unicode="&#x2461;" d="M164 717q0 238 114.5 434.5t311 311t434.5 114.5t434.5 -114.5t311 -311.5t114.5 -434q0 -238 -114.5 -434.5t-311 -311t-434.5 -114.5t-434.5 114.5t-311 311t-114.5 434.5zM205 717q0 -227 108.5 -414.5t296 -296t414.5 -108.5t414.5 108.5t296 295.5t108.5 415 q0 227 -108.5 414.5t-296 296t-414.5 108.5t-414.5 -108.5t-296 -296t-108.5 -414.5zM799 860q0 106 62.5 171t162.5 65q98 0 156.5 -56.5t58.5 -148.5q0 -63 -24.5 -109.5t-77.5 -105.5l-256 -277v-10h368v-41h-440v31l297 328q51 55 71.5 94t20.5 90q0 72 -46 118t-128 46 q-80 0 -132 -52.5t-52 -142.5h-41z" />
<glyph unicode="&#x2462;" d="M164 717q0 238 114.5 434.5t311 311t434.5 114.5t434.5 -114.5t311 -311.5t114.5 -434q0 -238 -114.5 -434.5t-311 -311t-434.5 -114.5t-434.5 114.5t-311 311t-114.5 434.5zM205 717q0 -227 108.5 -414.5t296 -296t414.5 -108.5t414.5 108.5t296 295.5t108.5 415 q0 227 -108.5 414.5t-296 296t-414.5 108.5t-414.5 -108.5t-296 -296t-108.5 -414.5zM799 553h41q0 -78 50 -126t134 -48t134 44t50 120t-50 120t-134 44h-61v41h61q76 0 125 39.5t49 113.5t-47 114t-127 40q-82 0 -128 -46t-46 -118h-41q0 88 59.5 146.5t155.5 58.5 q94 0 155.5 -52.5t61.5 -142.5q0 -53 -28.5 -97t-86.5 -67v-10q57 -25 90 -72t33 -112q0 -92 -62.5 -148.5t-162.5 -56.5q-98 0 -161.5 61.5t-63.5 153.5z" />
<glyph unicode="&#x2463;" d="M164 717q0 238 114.5 434.5t311 311t434.5 114.5t434.5 -114.5t311 -311.5t114.5 -434q0 -238 -114.5 -434.5t-311 -311t-434.5 -114.5t-434.5 114.5t-311 311t-114.5 434.5zM205 717q0 -227 108.5 -414.5t296 -296t414.5 -108.5t414.5 108.5t296 295.5t108.5 415 q0 227 -108.5 414.5t-296 296t-414.5 108.5t-414.5 -108.5t-296 -296t-108.5 -414.5zM727 532v41l297 512h82v-512h123v-41h-123v-184h-41v184h-338zM778 573h287v471h-21l-266 -460v-11z" />
<glyph unicode="&#x2464;" d="M164 717q0 238 114.5 434.5t311 311t434.5 114.5t434.5 -114.5t311 -311.5t114.5 -434q0 -238 -114.5 -434.5t-311 -311t-434.5 -114.5t-434.5 114.5t-311 311t-114.5 434.5zM205 717q0 -227 108.5 -414.5t296 -296t414.5 -108.5t414.5 108.5t296 295.5t108.5 415 q0 227 -108.5 414.5t-296 296t-414.5 108.5t-414.5 -108.5t-296 -296t-108.5 -414.5zM778 553h41q16 -84 68.5 -129t136.5 -45q92 0 148.5 56.5t56.5 148.5q0 94 -56.5 149t-148.5 55q-102 0 -164 -92h-72l41 389h400v-41h-369l-31 -317h11q68 102 184 102q106 0 176 -69.5 t70 -175.5t-68.5 -176t-177.5 -70q-96 0 -163.5 55.5t-82.5 159.5z" />
<glyph unicode="&#x2465;" d="M164 717q0 238 114.5 434.5t311 311t434.5 114.5t434.5 -114.5t311 -311.5t114.5 -434q0 -238 -114.5 -434.5t-311 -311t-434.5 -114.5t-434.5 114.5t-311 311t-114.5 434.5zM205 717q0 -227 108.5 -414.5t296 -296t414.5 -108.5t414.5 108.5t296 295.5t108.5 415 q0 227 -108.5 414.5t-296 296t-414.5 108.5t-414.5 -108.5t-296 -296t-108.5 -414.5zM778 584q0 86 41 153l215 348h41l-184 -297h10q55 41 123 41q106 0 176 -71.5t70 -173.5t-70 -174t-176 -72q-104 0 -175 72.5t-71 173.5zM819 584q0 -88 59.5 -146.5t145.5 -58.5 t145.5 58.5t59.5 146.5t-59.5 146t-145.5 58t-145.5 -58t-59.5 -146z" />
<glyph unicode="&#x2466;" d="M164 717q0 238 114.5 434.5t311 311t434.5 114.5t434.5 -114.5t311 -311.5t114.5 -434q0 -238 -114.5 -434.5t-311 -311t-434.5 -114.5t-434.5 114.5t-311 311t-114.5 434.5zM205 717q0 -227 108.5 -414.5t296 -296t414.5 -108.5t414.5 108.5t296 295.5t108.5 415 q0 227 -108.5 414.5t-296 296t-414.5 108.5t-414.5 -108.5t-296 -296t-108.5 -414.5zM809 1044v41h430v-41l-307 -696h-41l307 696h-389z" />
<glyph unicode="&#x2467;" d="M164 717q0 238 114.5 434.5t311 311t434.5 114.5t434.5 -114.5t311 -311.5t114.5 -434q0 -238 -114.5 -434.5t-311 -311t-434.5 -114.5t-434.5 114.5t-311 311t-114.5 434.5zM205 717q0 -227 108.5 -414.5t296 -296t414.5 -108.5t414.5 108.5t296 295.5t108.5 415 q0 227 -108.5 414.5t-296 296t-414.5 108.5t-414.5 -108.5t-296 -296t-108.5 -414.5zM788 543q0 63 35 110t88 74v10q-45 18 -78.5 59.5t-33.5 104.5q0 90 64.5 142.5t160.5 52.5t160.5 -52.5t64.5 -142.5q0 -63 -33.5 -104t-78.5 -60v-10q53 -27 88 -74t35 -110 q0 -86 -66 -145.5t-170 -59.5t-170 59.5t-66 145.5zM829 543q0 -74 57.5 -119t137.5 -45t137.5 45t57.5 119q0 76 -57.5 120t-137.5 44t-137.5 -45.5t-57.5 -118.5zM840 901q0 -72 54 -112.5t130 -40.5t130 40.5t54 112.5t-54 113t-130 41t-130 -41t-54 -113z" />
<glyph unicode="&#x2468;" d="M164 717q0 238 114.5 434.5t311 311t434.5 114.5t434.5 -114.5t311 -311.5t114.5 -434q0 -238 -114.5 -434.5t-311 -311t-434.5 -114.5t-434.5 114.5t-311 311t-114.5 434.5zM205 717q0 -227 108.5 -414.5t296 -296t414.5 -108.5t414.5 108.5t296 295.5t108.5 415 q0 227 -108.5 414.5t-296 296t-414.5 108.5t-414.5 -108.5t-296 -296t-108.5 -414.5zM778 850q0 102 70 174t176 72q104 0 175 -73t71 -173q0 -86 -41 -154l-215 -348h-41l184 297h-10q-55 -41 -123 -41q-106 0 -176 72t-70 174zM819 850q0 -88 59.5 -146.5t145.5 -58.5 t145.5 58.5t59.5 146.5t-59.5 146.5t-145.5 58.5t-145.5 -58.5t-59.5 -146.5z" />
<glyph unicode="&#x2469;" d="M164 717q0 238 114.5 434.5t311 311t434.5 114.5t434.5 -114.5t311 -311.5t114.5 -434q0 -238 -114.5 -434.5t-311 -311t-434.5 -114.5t-434.5 114.5t-311 311t-114.5 434.5zM205 717q0 -227 108.5 -414.5t296 -296t414.5 -108.5t414.5 108.5t296 295.5t108.5 415 q0 227 -108.5 414.5t-296 296t-414.5 108.5t-414.5 -108.5t-296 -296t-108.5 -414.5zM522 922v41h154q61 0 61 61v61h41v-737h-41v574h-215zM942 717q0 182 76 280.5t190 98.5q115 0 191 -98.5t76 -280.5t-76 -280.5t-191 -98.5q-114 0 -190 98.5t-76 280.5zM983 717 q0 -154 62.5 -246t162.5 -92q101 0 163.5 92t62.5 246t-62.5 246t-163.5 92q-100 0 -162.5 -92.5t-62.5 -245.5z" />
<glyph unicode="&#x246a;" d="M164 717q0 238 114.5 434.5t311 311t434.5 114.5t434.5 -114.5t311 -311.5t114.5 -434q0 -238 -114.5 -434.5t-311 -311t-434.5 -114.5t-434.5 114.5t-311 311t-114.5 434.5zM205 717q0 -227 108.5 -414.5t296 -296t414.5 -108.5t414.5 108.5t296 295.5t108.5 415 q0 227 -108.5 414.5t-296 296t-414.5 108.5t-414.5 -108.5t-296 -296t-108.5 -414.5zM604 922v41h154q61 0 61 61v61h41v-737h-41v574h-215zM1034 922v41h154q61 0 61 61v61h41v-737h-41v574h-215z" />
<glyph unicode="&#x246b;" d="M164 717q0 238 114.5 434.5t311 311t434.5 114.5t434.5 -114.5t311 -311.5t114.5 -434q0 -238 -114.5 -434.5t-311 -311t-434.5 -114.5t-434.5 114.5t-311 311t-114.5 434.5zM205 717q0 -227 108.5 -414.5t296 -296t414.5 -108.5t414.5 108.5t296 295.5t108.5 415 q0 227 -108.5 414.5t-296 296t-414.5 108.5t-414.5 -108.5t-296 -296t-108.5 -414.5zM543 922v41h153q61 0 62 61v61h41v-737h-41v574h-215zM993 860q0 106 62.5 171t163.5 65q98 0 156.5 -56.5t58.5 -148.5q0 -63 -25 -109.5t-78 -105.5l-256 -277v-10h369v-41h-440v31 l296 328q51 55 72 94t21 90q0 72 -46.5 118t-127.5 46q-80 0 -132.5 -52.5t-52.5 -142.5h-41z" />
<glyph unicode="&#x246c;" d="M164 717q0 238 114.5 434.5t311 311t434.5 114.5t434.5 -114.5t311 -311.5t114.5 -434q0 -238 -114.5 -434.5t-311 -311t-434.5 -114.5t-434.5 114.5t-311 311t-114.5 434.5zM205 717q0 -227 108.5 -414.5t296 -296t414.5 -108.5t414.5 108.5t296 295.5t108.5 415 q0 227 -108.5 414.5t-296 296t-414.5 108.5t-414.5 -108.5t-296 -296t-108.5 -414.5zM543 922v41h153q61 0 62 61v61h41v-737h-41v574h-215zM993 553h41q0 -78 50.5 -126t134.5 -48t134 44t50 120t-50 120t-134 44h-62v41h62q76 0 125 39.5t49 113.5t-47.5 114t-126.5 40 q-82 0 -128.5 -46t-46.5 -118h-40q0 88 59 146.5t156 58.5q94 0 155.5 -52.5t61.5 -142.5q0 -53 -29 -97t-86 -67v-10q57 -25 90 -72t33 -112q0 -92 -62.5 -148.5t-162.5 -56.5q-99 0 -162.5 61.5t-63.5 153.5z" />
<glyph unicode="&#x246d;" d="M164 717q0 238 114.5 434.5t311 311t434.5 114.5t434.5 -114.5t311 -311.5t114.5 -434q0 -238 -114.5 -434.5t-311 -311t-434.5 -114.5t-434.5 114.5t-311 311t-114.5 434.5zM205 717q0 -227 108.5 -414.5t296 -296t414.5 -108.5t414.5 108.5t296 295.5t108.5 415 q0 227 -108.5 414.5t-296 296t-414.5 108.5t-414.5 -108.5t-296 -296t-108.5 -414.5zM532 922v41h154q61 0 62 61v61h40v-737h-40v574h-216zM952 532v41l297 512h82v-512h123v-41h-123v-184h-41v184h-338zM1004 573h286v471h-20l-266 -460v-11z" />
<glyph unicode="&#x246e;" d="M164 717q0 238 114.5 434.5t311 311t434.5 114.5t434.5 -114.5t311 -311.5t114.5 -434q0 -238 -114.5 -434.5t-311 -311t-434.5 -114.5t-434.5 114.5t-311 311t-114.5 434.5zM205 717q0 -227 108.5 -414.5t296 -296t414.5 -108.5t414.5 108.5t296 295.5t108.5 415 q0 227 -108.5 414.5t-296 296t-414.5 108.5t-414.5 -108.5t-296 -296t-108.5 -414.5zM532 922v41h154q61 0 62 61v61h40v-737h-40v574h-216zM973 553h41q16 -84 68.5 -129t136.5 -45q92 0 148 56.5t56 148.5q0 94 -56 149t-148 55q-102 0 -164 -92h-72l41 389h399v-41h-368 l-31 -317h10q68 102 185 102q106 0 175.5 -69.5t69.5 -175.5t-68.5 -176t-176.5 -70q-97 0 -164.5 55.5t-81.5 159.5z" />
<glyph unicode="&#x246f;" d="M164 717q0 238 114.5 434.5t311 311t434.5 114.5t434.5 -114.5t311 -311.5t114.5 -434q0 -238 -114.5 -434.5t-311 -311t-434.5 -114.5t-434.5 114.5t-311 311t-114.5 434.5zM205 717q0 -227 108.5 -414.5t296 -296t414.5 -108.5t414.5 108.5t296 295.5t108.5 415 q0 227 -108.5 414.5t-296 296t-414.5 108.5t-414.5 -108.5t-296 -296t-108.5 -414.5zM543 922v41h153q61 0 62 61v61h41v-737h-41v574h-215zM973 584q0 86 41 153l215 348h41l-185 -297h11q55 41 123 41q106 0 175.5 -71.5t69.5 -173.5t-69.5 -174t-175.5 -72 q-105 0 -175.5 72.5t-70.5 173.5zM1014 584q0 -88 59.5 -146.5t145.5 -58.5t145 58.5t59 146.5t-59 146t-145 58t-145.5 -58t-59.5 -146z" />
<glyph unicode="&#x2470;" d="M164 717q0 238 114.5 434.5t311 311t434.5 114.5t434.5 -114.5t311 -311.5t114.5 -434q0 -238 -114.5 -434.5t-311 -311t-434.5 -114.5t-434.5 114.5t-311 311t-114.5 434.5zM205 717q0 -227 108.5 -414.5t296 -296t414.5 -108.5t414.5 108.5t296 295.5t108.5 415 q0 227 -108.5 414.5t-296 296t-414.5 108.5t-414.5 -108.5t-296 -296t-108.5 -414.5zM584 922v41h153q61 0 62 61v61h41v-737h-41v574h-215zM1004 1044v41h430v-41l-308 -696h-41l308 696h-389z" />
<glyph unicode="&#x2471;" d="M164 717q0 238 114.5 434.5t311 311t434.5 114.5t434.5 -114.5t311 -311.5t114.5 -434q0 -238 -114.5 -434.5t-311 -311t-434.5 -114.5t-434.5 114.5t-311 311t-114.5 434.5zM205 717q0 -227 108.5 -414.5t296 -296t414.5 -108.5t414.5 108.5t296 295.5t108.5 415 q0 227 -108.5 414.5t-296 296t-414.5 108.5t-414.5 -108.5t-296 -296t-108.5 -414.5zM543 922v41h153q61 0 62 61v61h41v-737h-41v574h-215zM973 543q0 63 34.5 110t88.5 74v10q-45 18 -79 59.5t-34 104.5q0 90 64.5 142.5t160.5 52.5t161 -52.5t65 -142.5q0 -63 -34 -104 t-79 -60v-10q53 -27 88 -74t35 -110q0 -86 -65.5 -145.5t-170.5 -59.5q-104 0 -169.5 59.5t-65.5 145.5zM1014 543q0 -74 57 -119t137 -45t137.5 45t57.5 119q0 76 -57.5 120t-137.5 44t-137 -45.5t-57 -118.5zM1024 901q0 -72 54.5 -112.5t129.5 -40.5q76 0 130.5 40.5 t54.5 112.5t-54.5 113t-130.5 41t-130 -41t-54 -113z" />
<glyph unicode="&#x2472;" d="M164 717q0 238 114.5 434.5t311 311t434.5 114.5t434.5 -114.5t311 -311.5t114.5 -434q0 -238 -114.5 -434.5t-311 -311t-434.5 -114.5t-434.5 114.5t-311 311t-114.5 434.5zM205 717q0 -227 108.5 -414.5t296 -296t414.5 -108.5t414.5 108.5t296 295.5t108.5 415 q0 227 -108.5 414.5t-296 296t-414.5 108.5t-414.5 -108.5t-296 -296t-108.5 -414.5zM553 922v41h154q61 0 61 61v61h41v-737h-41v574h-215zM983 850q0 102 69.5 174t176.5 72q104 0 175 -73t71 -173q0 -86 -41 -154l-215 -348h-41l184 297h-10q-55 -41 -123 -41 q-106 0 -176 72t-70 174zM1024 850q0 -88 59.5 -146.5t145.5 -58.5t145.5 58.5t59.5 146.5t-59.5 146.5t-145.5 58.5t-145.5 -58.5t-59.5 -146.5z" />
<glyph unicode="&#x2473;" d="M164 717q0 238 114.5 434.5t311 311t434.5 114.5t434.5 -114.5t311 -311.5t114.5 -434q0 -238 -114.5 -434.5t-311 -311t-434.5 -114.5t-434.5 114.5t-311 311t-114.5 434.5zM205 717q0 -227 108.5 -414.5t296 -296t414.5 -108.5t414.5 108.5t296 295.5t108.5 415 q0 227 -108.5 414.5t-296 296t-414.5 108.5t-414.5 -108.5t-296 -296t-108.5 -414.5zM502 860q0 106 62.5 171t162.5 65q98 0 156.5 -56.5t58.5 -148.5q0 -63 -24.5 -109.5t-77.5 -105.5l-256 -277v-10h368v-41h-440v31l297 328q51 55 71.5 94t20.5 90q0 72 -46 118t-128 46 q-80 0 -132 -52.5t-52 -142.5h-41zM1044 717q0 182 76 280.5t191 98.5t190.5 -98.5t75.5 -280.5t-76 -280.5t-190 -98.5q-115 0 -191 98.5t-76 280.5zM1085 717q0 -154 62.5 -246t163.5 -92q100 0 162.5 92t62.5 246t-62.5 246t-162.5 92t-163 -92.5t-63 -245.5z" />
<glyph unicode="&#x24ea;" d="M164 717q0 238 114.5 434.5t311 311t434.5 114.5t434.5 -114.5t311 -311.5t114.5 -434q0 -238 -114.5 -434.5t-311 -311t-434.5 -114.5t-434.5 114.5t-311 311t-114.5 434.5zM205 717q0 -227 108.5 -414.5t296 -296t414.5 -108.5t414.5 108.5t296 295.5t108.5 415 q0 227 -108.5 414.5t-296 296t-414.5 108.5t-414.5 -108.5t-296 -296t-108.5 -414.5zM758 717q0 182 75.5 280.5t190.5 98.5t190.5 -98.5t75.5 -280.5t-75.5 -280.5t-190.5 -98.5t-190.5 98.5t-75.5 280.5zM799 717q0 -154 62.5 -246t162.5 -92t162.5 92t62.5 246t-62.5 246 t-162.5 92t-162.5 -92.5t-62.5 -245.5z" />
<glyph unicode="&#x24eb;" d="M164 717q0 238 114.5 434.5t311 311t434.5 114.5t434.5 -114.5t311 -311.5t114.5 -434q0 -238 -114.5 -434.5t-311 -311t-434.5 -114.5t-434.5 114.5t-311 311t-114.5 434.5zM604 922h215v-574h41v737h-41v-61q0 -61 -61 -61h-154v-41zM1034 922h215v-574h41v737h-41v-61 q0 -61 -61 -61h-154v-41z" />
<glyph unicode="&#x24ec;" d="M164 717q0 238 114.5 434.5t311 311t434.5 114.5t434.5 -114.5t311 -311.5t114.5 -434q0 -238 -114.5 -434.5t-311 -311t-434.5 -114.5t-434.5 114.5t-311 311t-114.5 434.5zM543 922h215v-574h41v737h-41v-61q0 -61 -62 -61h-153v-41zM993 860h41q0 90 52.5 142.5 t132.5 52.5q82 0 128 -46t46 -118q0 -51 -20.5 -90t-72.5 -94l-296 -328v-31h440v41h-369v10l256 277q53 59 78 105t25 110q0 92 -58.5 148.5t-156.5 56.5q-100 0 -163 -64.5t-63 -171.5z" />
<glyph unicode="&#x24ed;" d="M164 717q0 238 114.5 434.5t311 311t434.5 114.5t434.5 -114.5t311 -311.5t114.5 -434q0 -238 -114.5 -434.5t-311 -311t-434.5 -114.5t-434.5 114.5t-311 311t-114.5 434.5zM543 922h215v-574h41v737h-41v-61q0 -61 -62 -61h-153v-41zM993 553q0 -92 63.5 -153.5 t162.5 -61.5q100 0 162.5 56.5t62.5 148.5q0 66 -33 112.5t-90 71.5v10q57 23 86 67t29 97q0 90 -61.5 142.5t-155.5 52.5q-96 0 -155.5 -58.5t-59.5 -146.5h40q0 72 46.5 118t128.5 46q80 0 127 -40t47 -114t-49.5 -113.5t-124.5 -39.5h-62v-41h62q84 0 134 -44.5 t50 -119.5q0 -76 -50 -120t-134 -44t-134.5 48t-50.5 126h-41z" />
<glyph unicode="&#x24ee;" d="M164 717q0 238 114.5 434.5t311 311t434.5 114.5t434.5 -114.5t311 -311.5t114.5 -434q0 -238 -114.5 -434.5t-311 -311t-434.5 -114.5t-434.5 114.5t-311 311t-114.5 434.5zM532 922h216v-574h40v737h-40v-61q0 -61 -62 -61h-154v-41zM952 532h338v-184h41v184h123v41 h-123v512h-82l-297 -512v-41zM1004 573v11l266 460h20v-471h-286z" />
<glyph unicode="&#x24ef;" d="M164 717q0 238 114.5 434.5t311 311t434.5 114.5t434.5 -114.5t311 -311.5t114.5 -434q0 -238 -114.5 -434.5t-311 -311t-434.5 -114.5t-434.5 114.5t-311 311t-114.5 434.5zM532 922h216v-574h40v737h-40v-61q0 -61 -62 -61h-154v-41zM973 553q14 -104 81.5 -159.5 t164.5 -55.5q108 0 176.5 69.5t68.5 176.5q0 106 -69.5 175.5t-175.5 69.5q-117 0 -185 -102h-10l31 317h368v41h-399l-41 -389h72q61 92 164 92q92 0 148 -55t56 -149q0 -92 -56 -148.5t-148 -56.5q-84 0 -136.5 45t-68.5 129h-41z" />
<glyph unicode="&#x24f0;" d="M164 717q0 238 114.5 434.5t311 311t434.5 114.5t434.5 -114.5t311 -311.5t114.5 -434q0 -238 -114.5 -434.5t-311 -311t-434.5 -114.5t-434.5 114.5t-311 311t-114.5 434.5zM543 922h215v-574h41v737h-41v-61q0 -61 -62 -61h-153v-41zM973 584q0 -100 70.5 -173 t175.5 -73q106 0 175.5 71.5t69.5 174.5q0 102 -69.5 173.5t-175.5 71.5q-68 0 -123 -41h-11l185 297h-41l-215 -348q-41 -68 -41 -153zM1014 584q0 88 59.5 146t145.5 58t145 -58t59 -146t-59 -146.5t-145 -58.5t-145.5 58.5t-59.5 146.5z" />
<glyph unicode="&#x24f1;" d="M164 717q0 238 114.5 434.5t311 311t434.5 114.5t434.5 -114.5t311 -311.5t114.5 -434q0 -238 -114.5 -434.5t-311 -311t-434.5 -114.5t-434.5 114.5t-311 311t-114.5 434.5zM584 922h215v-574h41v737h-41v-61q0 -61 -62 -61h-153v-41zM1004 1044h389l-308 -696h41 l308 696v41h-430v-41z" />
<glyph unicode="&#x24f2;" d="M164 717q0 238 114.5 434.5t311 311t434.5 114.5t434.5 -114.5t311 -311.5t114.5 -434q0 -238 -114.5 -434.5t-311 -311t-434.5 -114.5t-434.5 114.5t-311 311t-114.5 434.5zM543 922h215v-574h41v737h-41v-61q0 -61 -62 -61h-153v-41zM973 543q0 -86 65.5 -145.5 t169.5 -59.5q105 0 170.5 59.5t65.5 145.5q0 63 -35 110t-88 74v10q45 18 79 59.5t34 104.5q0 90 -64.5 142.5t-161.5 52.5q-96 0 -160.5 -52.5t-64.5 -142.5q0 -63 34 -104t79 -60v-10q-53 -27 -88 -74t-35 -110zM1014 543q0 74 57 119t137 45t137.5 -44.5t57.5 -119.5 q0 -74 -57.5 -119t-137.5 -45t-137 45t-57 119zM1024 901q0 72 54.5 113t129.5 41q76 0 130.5 -41t54.5 -113t-54.5 -112.5t-130.5 -40.5q-75 0 -129.5 40.5t-54.5 112.5z" />
<glyph unicode="&#x24f3;" d="M164 717q0 238 114.5 434.5t311 311t434.5 114.5t434.5 -114.5t311 -311.5t114.5 -434q0 -238 -114.5 -434.5t-311 -311t-434.5 -114.5t-434.5 114.5t-311 311t-114.5 434.5zM553 922h215v-574h41v737h-41v-61q0 -61 -61 -61h-154v-41zM983 850q0 -102 69.5 -174 t176.5 -72q68 0 123 41h10l-184 -297h41l215 348q41 68 41 154q0 100 -71 173t-175 73q-106 0 -176 -72t-70 -174zM1024 850q0 88 59.5 146.5t145.5 58.5t145.5 -58.5t59.5 -146.5t-59.5 -146.5t-145.5 -58.5t-145.5 58.5t-59.5 146.5z" />
<glyph unicode="&#x24f4;" d="M164 717q0 238 114.5 434.5t311 311t434.5 114.5t434.5 -114.5t311 -311.5t114.5 -434q0 -238 -114.5 -434.5t-311 -311t-434.5 -114.5t-434.5 114.5t-311 311t-114.5 434.5zM502 860h41q0 90 52 142.5t132 52.5q82 0 128 -46t46 -118q0 -51 -20.5 -90t-71.5 -94 l-297 -328v-31h440v41h-368v10l256 277q53 59 77.5 105t24.5 110q0 92 -58.5 148.5t-156.5 56.5q-100 0 -162.5 -64.5t-62.5 -171.5zM1044 717q0 -182 76 -280.5t191 -98.5q114 0 190 98.5t76 280.5t-76 280.5t-190 98.5q-115 0 -191 -98.5t-76 -280.5zM1085 717 q0 154 62.5 246t163.5 92q100 0 162.5 -92.5t62.5 -245.5q0 -154 -62.5 -246t-162.5 -92q-101 0 -163.5 92t-62.5 246z" />
<glyph unicode="&#x24ff;" d="M164 717q0 238 114.5 434.5t311 311t434.5 114.5t434.5 -114.5t311 -311.5t114.5 -434q0 -238 -114.5 -434.5t-311 -311t-434.5 -114.5t-434.5 114.5t-311 311t-114.5 434.5zM758 717q0 -182 75.5 -280.5t190.5 -98.5t190.5 98.5t75.5 280.5t-75.5 280.5t-190.5 98.5 t-190.5 -98.5t-75.5 -280.5zM799 717q0 154 62.5 246t162.5 92t162.5 -92.5t62.5 -245.5q0 -154 -62.5 -246t-162.5 -92t-162.5 92t-62.5 246z" />
<glyph unicode="&#x25fc;" horiz-adv-x="1024" d="M0 0v1024h1024v-1024h-1024z" />
<glyph unicode="&#x2776;" d="M164 717q0 238 114.5 434.5t311 311t434.5 114.5t434.5 -114.5t311 -311.5t114.5 -434q0 -238 -114.5 -434.5t-311 -311t-434.5 -114.5t-434.5 114.5t-311 311t-114.5 434.5zM809 922h215v-574h41v737h-41v-61q0 -61 -61 -61h-154v-41z" />
<glyph unicode="&#x2777;" d="M164 717q0 238 114.5 434.5t311 311t434.5 114.5t434.5 -114.5t311 -311.5t114.5 -434q0 -238 -114.5 -434.5t-311 -311t-434.5 -114.5t-434.5 114.5t-311 311t-114.5 434.5zM799 860h41q0 90 52 142.5t132 52.5q82 0 128 -46t46 -118q0 -51 -20.5 -90t-71.5 -94 l-297 -328v-31h440v41h-368v10l256 277q53 59 77.5 105t24.5 110q0 92 -58.5 148.5t-156.5 56.5q-100 0 -162.5 -64.5t-62.5 -171.5z" />
<glyph unicode="&#x2778;" d="M164 717q0 238 114.5 434.5t311 311t434.5 114.5t434.5 -114.5t311 -311.5t114.5 -434q0 -238 -114.5 -434.5t-311 -311t-434.5 -114.5t-434.5 114.5t-311 311t-114.5 434.5zM799 553q0 -92 63.5 -153.5t161.5 -61.5q100 0 162.5 56.5t62.5 148.5q0 66 -32.5 112.5 t-90.5 71.5v10q57 23 86 67t29 97q0 90 -61.5 142.5t-155.5 52.5q-96 0 -155.5 -58.5t-59.5 -146.5h41q0 72 46 118t128 46q80 0 127 -40t47 -114t-49 -113.5t-125 -39.5h-61v-41h61q84 0 134 -44.5t50 -119.5q0 -76 -50 -120t-134 -44t-134 48t-50 126h-41z" />
<glyph unicode="&#x2779;" d="M164 717q0 238 114.5 434.5t311 311t434.5 114.5t434.5 -114.5t311 -311.5t114.5 -434q0 -238 -114.5 -434.5t-311 -311t-434.5 -114.5t-434.5 114.5t-311 311t-114.5 434.5zM727 532h338v-184h41v184h123v41h-123v512h-82l-297 -512v-41zM778 573v11l266 460h21v-471 h-287z" />
<glyph unicode="&#x277a;" d="M164 717q0 238 114.5 434.5t311 311t434.5 114.5t434.5 -114.5t311 -311.5t114.5 -434q0 -238 -114.5 -434.5t-311 -311t-434.5 -114.5t-434.5 114.5t-311 311t-114.5 434.5zM778 553q14 -104 82 -159.5t164 -55.5q109 0 177.5 69.5t68.5 176.5q0 106 -70 175.5 t-176 69.5q-117 0 -184 -102h-11l31 317h369v41h-400l-41 -389h72q61 92 164 92q92 0 148.5 -55t56.5 -149q0 -92 -56.5 -148.5t-148.5 -56.5q-84 0 -136 45t-69 129h-41z" />
<glyph unicode="&#x277b;" d="M164 717q0 238 114.5 434.5t311 311t434.5 114.5t434.5 -114.5t311 -311.5t114.5 -434q0 -238 -114.5 -434.5t-311 -311t-434.5 -114.5t-434.5 114.5t-311 311t-114.5 434.5zM778 584q0 -100 71 -173t175 -73q106 0 176 71.5t70 174.5q0 102 -70 173.5t-176 71.5 q-68 0 -123 -41h-10l184 297h-41l-215 -348q-41 -68 -41 -153zM819 584q0 88 59.5 146t145.5 58t145.5 -58t59.5 -146t-59.5 -146.5t-145.5 -58.5t-145.5 58.5t-59.5 146.5z" />
<glyph unicode="&#x277c;" d="M164 717q0 238 114.5 434.5t311 311t434.5 114.5t434.5 -114.5t311 -311.5t114.5 -434q0 -238 -114.5 -434.5t-311 -311t-434.5 -114.5t-434.5 114.5t-311 311t-114.5 434.5zM809 1044h389l-307 -696h41l307 696v41h-430v-41z" />
<glyph unicode="&#x277d;" d="M164 717q0 238 114.5 434.5t311 311t434.5 114.5t434.5 -114.5t311 -311.5t114.5 -434q0 -238 -114.5 -434.5t-311 -311t-434.5 -114.5t-434.5 114.5t-311 311t-114.5 434.5zM788 543q0 -86 66 -145.5t170 -59.5t170 59.5t66 145.5q0 63 -35 110t-88 74v10 q45 18 78.5 59.5t33.5 104.5q0 90 -64.5 142.5t-160.5 52.5t-160.5 -52.5t-64.5 -142.5q0 -63 33.5 -104t78.5 -60v-10q-53 -27 -88 -74t-35 -110zM829 543q0 74 57.5 119t137.5 45t137.5 -44.5t57.5 -119.5q0 -74 -57.5 -119t-137.5 -45t-137.5 45t-57.5 119zM840 901 q0 72 54 113t130 41t130 -41t54 -113t-54 -112.5t-130 -40.5t-130 40.5t-54 112.5z" />
<glyph unicode="&#x277e;" d="M164 717q0 238 114.5 434.5t311 311t434.5 114.5t434.5 -114.5t311 -311.5t114.5 -434q0 -238 -114.5 -434.5t-311 -311t-434.5 -114.5t-434.5 114.5t-311 311t-114.5 434.5zM778 850q0 -102 70 -174t176 -72q68 0 123 41h10l-184 -297h41l215 348q41 68 41 154 q0 100 -71 173t-175 73q-106 0 -176 -72t-70 -174zM819 850q0 88 59.5 146.5t145.5 58.5t145.5 -58.5t59.5 -146.5t-59.5 -146.5t-145.5 -58.5t-145.5 58.5t-59.5 146.5z" />
<glyph unicode="&#x277f;" d="M164 717q0 238 114.5 434.5t311 311t434.5 114.5t434.5 -114.5t311 -311.5t114.5 -434q0 -238 -114.5 -434.5t-311 -311t-434.5 -114.5t-434.5 114.5t-311 311t-114.5 434.5zM522 922h215v-574h41v737h-41v-61q0 -61 -61 -61h-154v-41zM942 717q0 -182 76 -280.5 t190 -98.5q115 0 191 98.5t76 280.5t-76 280.5t-191 98.5t-190.5 -98.5t-75.5 -280.5zM983 717q0 154 62.5 246t162.5 92t163 -92.5t63 -245.5q0 -154 -62.5 -246t-163.5 -92q-100 0 -162.5 92t-62.5 246z" />
<glyph unicode="&#xf730;" horiz-adv-x="1146" d="M102 512q0 156 61.5 276.5t169 188t240.5 67.5t241 -67.5t169 -188t61 -276.5t-61 -276.5t-168.5 -188t-241.5 -67.5q-133 0 -240.5 67.5t-169 188t-61.5 276.5zM143 512q0 -145 57.5 -257t156 -173.5t216.5 -61.5q119 0 217.5 61.5t156 173.5t57.5 257t-57.5 257 t-156 173.5t-217.5 61.5t-217 -61.5t-155.5 -173.5t-57.5 -257z" />
<glyph unicode="&#xf731;" horiz-adv-x="593" d="M51 819v41h246q61 0 61 62v102h41v-1024h-41v819h-307z" />
<glyph unicode="&#xf732;" horiz-adv-x="983" d="M102 696q0 102 48.5 181t134.5 123t196 44q168 0 273.5 -91t105.5 -236q0 -102 -51 -179t-154 -149l-481 -338v-10h686v-41h-747v51l534 379q88 61 130 129t42 158q0 131 -92 209t-246 78q-147 0 -242.5 -85t-95.5 -223h-41z" />
<glyph unicode="&#xf733;" horiz-adv-x="1054" d="M82 -31h41q0 -100 50 -182t139 -129t200 -47q113 0 201 45t138 126t50 187q0 152 -105.5 240t-283.5 88h-92v41h92q115 0 199 43t127 115.5t43 158.5q0 154 -100.5 251.5t-268.5 97.5q-109 0 -192.5 -48.5t-130 -128t-46.5 -172.5h-41q0 102 52.5 192.5t145.5 143.5 t212 53q121 0 214 -50t144.5 -138t51.5 -201q0 -109 -61.5 -195.5t-174.5 -131.5v-11q119 -39 187.5 -130t68.5 -218q0 -117 -54 -208t-151.5 -141t-224.5 -50q-125 0 -223.5 52t-152.5 143.5t-54 203.5z" />
<glyph unicode="&#xf734;" horiz-adv-x="1003" d="M51 0v41l594 983h103v-983h235v-41h-235v-410h-41v410h-656zM102 41h605v942h-41l-564 -932v-10z" />
<glyph unicode="&#xf735;" horiz-adv-x="1095" d="M133 -31h41q14 -113 73.5 -193.5t145.5 -122.5t180 -42q113 0 204 50t143.5 145.5t52.5 224.5t-52.5 224t-143.5 145.5t-204 50.5q-100 0 -181 -34t-156 -110h-72l72 717h702v-41h-662l-69 -635h8q84 76 165 110t204 34q111 0 209 -54.5t159.5 -160t61.5 -246.5 q0 -143 -58.5 -248t-158 -159t-224.5 -54q-108 0 -204.5 47t-159 137t-76.5 215z" />
<glyph unicode="&#xf736;" horiz-adv-x="1105" d="M102 430q0 172 103 328l440 676h49l-413 -635h6q68 43 129 62.5t147 19.5q113 0 214.5 -57.5t164 -161t62.5 -232.5t-60.5 -232.5t-164 -160.5t-226.5 -57t-226.5 57t-164 160.5t-60.5 232.5zM143 430q0 -119 56.5 -212t150.5 -145.5t203 -52.5t203 52.5t150.5 145.5 t56.5 212t-56.5 212t-150.5 145.5t-203 52.5t-203 -52.5t-150.5 -145.5t-56.5 -212z" />
<glyph unicode="&#xf737;" horiz-adv-x="962" d="M82 983v41h819v-20l-553 -1414h-47l545 1393h-764z" />
<glyph unicode="&#xf738;" horiz-adv-x="1085" d="M113 369q0 133 77.5 226t208.5 142v11q-113 33 -184.5 121.5t-71.5 215.5q0 98 47.5 183.5t138.5 135.5t214 50t214 -50t138 -135t47 -184q0 -127 -71.5 -216t-184.5 -121v-11q131 -49 209 -142t78 -226q0 -102 -54.5 -191.5t-152.5 -143.5t-223 -54t-223.5 54 t-152.5 143t-54 192zM154 369q0 -92 50 -172t139 -128.5t200 -48.5q110 0 199 48.5t139.5 128t50.5 172.5q0 92 -50.5 172t-139.5 128t-199 48q-111 0 -200 -48t-139 -128t-50 -172zM184 1085q0 -88 43 -162.5t125 -119.5t191 -45q108 0 190 45t125 119.5t43 162.5t-43 163 t-125 120t-190 45q-109 0 -191 -45t-125 -119.5t-43 -163.5z" />
<glyph unicode="&#xf739;" horiz-adv-x="1105" d="M102 594q0 129 60.5 232.5t164 160.5t226.5 57t226.5 -57t164 -160.5t60.5 -232.5q0 -172 -103 -328l-440 -676h-49l413 635h-6q-68 -43 -129 -62.5t-147 -19.5q-113 0 -214.5 57.5t-164 161t-62.5 232.5zM143 594q0 -119 56.5 -212t150.5 -145.5t203 -52.5t203 52.5 t150.5 145.5t56.5 212t-56.5 212t-150.5 145.5t-203 52.5t-203 -52.5t-150.5 -145.5t-56.5 -212z" />
<glyph horiz-adv-x="1239" d="M205 0v1434h41v-1434h-41zM205 1608l153 225h52l-164 -225h-41zM492 0v41h379q59 0 96 40t37 103v1250h41v-1250q0 -84 -48 -134t-126 -50h-379zM1004 1608l153 225h52l-164 -225h-41z" />
<glyph horiz-adv-x="409" d="M164 1362q0 16 12 28.5t29 12.5q16 0 28.5 -12.5t12.5 -28.5t-12.5 -28.5t-28.5 -12.5q-17 0 -29 12.5t-12 28.5zM184 0v1024h41v-1024h-41z" />
<glyph horiz-adv-x="819" d="M184 0v1024h41v-1024h-41zM185 1208l153 226h52l-164 -226h-41zM328 -369h154q53 0 82.5 30t29.5 83v1280h41v-1280q0 -154 -153 -154h-154v41zM594 1208l153 226h52l-164 -226h-41z" />
<glyph horiz-adv-x="1085" d="M41 0l461 1208h82l460 -1208h-43l-135 358h-647l-135 -358h-43zM236 399h614l-291 768h-33z" />
<glyph horiz-adv-x="1146" d="M195 0v1208h450q152 0 245 -88t93 -223q0 -113 -59.5 -183.5t-139.5 -101.5v-8q96 -23 158 -102.5t62 -190.5q0 -139 -88.5 -225t-239.5 -86h-481zM236 41h440q129 0 208 76t79 194q0 121 -79 197t-208 76h-440v-543zM236 625h419q84 0 149.5 36.5t101.5 99t36 136.5 q0 115 -81 192.5t-216 77.5h-409v-542z" />
<glyph horiz-adv-x="1288" d="M113 604q0 184 73.5 326.5t199.5 220.5t280 78q133 0 239.5 -56.5t177 -149.5t99.5 -204h-41q-43 160 -170 264.5t-305 104.5q-143 0 -260 -74t-184.5 -207t-67.5 -303t67.5 -303t184 -207t260.5 -74q176 0 301 100.5t178 278.5h41q-29 -117 -100.5 -212t-179 -151 t-240.5 -56q-158 0 -284 79.5t-197.5 221t-71.5 323.5z" />
<glyph horiz-adv-x="1228" d="M195 0v1208h348q164 0 294 -74.5t204.5 -212t74.5 -317.5t-74.5 -317t-204.5 -212t-294 -75h-348zM236 41h307q150 0 270.5 68.5t191 196.5t70.5 298t-70.5 298t-191.5 196.5t-270 68.5h-307v-1126z" />
<glyph horiz-adv-x="1064" d="M195 0v1208h737v-41h-696v-532h655v-41h-655v-553h696v-41h-737z" />
<glyph horiz-adv-x="1013" d="M195 0v1208h716v-41h-675v-542h645v-41h-645v-584h-41z" />
<glyph horiz-adv-x="1331" d="M113 604q0 180 71.5 322.5t195.5 222.5t275 80q178 0 312.5 -105.5t189.5 -273.5h-41q-59 164 -184 251t-277 87q-139 0 -253.5 -72t-181 -205t-66.5 -307t66.5 -307t181 -205t253.5 -72q121 0 229.5 59.5t175 161t66.5 220.5v92h-430v41h471v-594h-30l-11 258h-10 q-76 -137 -197.5 -207.5t-263.5 -70.5q-152 0 -275.5 79.5t-195 222t-71.5 322.5z" />
<glyph horiz-adv-x="1280" d="M195 0v1208h41v-563h808v563h41v-1208h-41v604h-808v-604h-41z" />
<glyph horiz-adv-x="430" d="M195 0v1208h41v-1208h-41z" />
<glyph horiz-adv-x="696" d="M41 0v41h317q53 0 83 34t30 89v1044h41v-1044q0 -76 -42 -120t-112 -44h-317z" />
<glyph horiz-adv-x="983" d="M195 0v1208h41v-577l628 577h58l-646 -594l676 -614h-63l-653 594v-594h-41z" />
<glyph horiz-adv-x="942" d="M195 0v1208h41v-1167h655v-41h-696z" />
<glyph horiz-adv-x="1576" d="M195 0v1208h102l479 -1167h25l479 1167h102v-1208h-41v1167h-34l-478 -1167h-81l-478 1167h-34v-1167h-41z" />
<glyph horiz-adv-x="1280" d="M195 0v1208h92l727 -1167h30v1167h41v-1208h-92l-727 1167h-30v-1167h-41z" />
<glyph horiz-adv-x="1310" d="M113 604q0 184 72.5 326.5t196.5 220.5t273 78q150 0 274 -78t196.5 -220.5t72.5 -326.5t-72.5 -326.5t-196.5 -220t-274 -77.5q-149 0 -273 77.5t-196.5 220t-72.5 326.5zM154 604q0 -174 66.5 -307t181 -205t253.5 -72q140 0 254.5 72t181 205t66.5 307t-66.5 307 t-181 205t-254.5 72q-139 0 -253.5 -72t-181 -205t-66.5 -307z" />
<glyph horiz-adv-x="1126" d="M195 0v1208h460q166 0 262.5 -96t96.5 -252t-96.5 -252t-262.5 -96h-419v-512h-41zM236 553h419q145 0 231.5 84t86.5 223t-86 223t-232 84h-419v-614z" />
<glyph horiz-adv-x="1310" d="M113 604q0 184 72.5 326.5t196.5 220.5t273 78q150 0 274 -78t196.5 -220.5t72.5 -326.5q0 -147 -46 -267t-130 -206l156 -151h-58l-129 124q-70 -61 -155.5 -92.5t-180.5 -31.5q-150 0 -273.5 77.5t-196 220t-72.5 326.5zM154 604q0 -174 66.5 -307t181 -205t253.5 -72 q174 0 308 111l-328 320h57l301 -291q78 80 121 192.5t43 251.5q0 174 -66.5 307t-181 205t-254.5 72q-139 0 -253.5 -72t-181 -205t-66.5 -307z" />
<glyph horiz-adv-x="1136" d="M195 0v1208h460q166 0 262.5 -96t96.5 -252t-96.5 -252t-262.5 -96h-163l542 -512h-59l-543 512h-196v-512h-41zM236 553h419q145 0 231.5 84t86.5 223t-86 223t-232 84h-419v-614z" />
<glyph horiz-adv-x="1054" d="M102 348h41q0 -92 48.5 -167t137.5 -118t203 -43q176 0 272.5 75t96.5 212q0 217 -280 271l-170 32q-170 33 -244 104.5t-74 196.5q0 137 102.5 227.5t286.5 90.5q123 0 216 -50.5t143.5 -135.5t50.5 -183h-41q0 92 -45 167t-129 118t-195 43q-160 0 -254 -76t-94 -201 q0 -109 65.5 -171t211.5 -89l172 -33q319 -61 319 -311q0 -145 -105.5 -236t-304.5 -91q-129 0 -227 49t-150.5 133t-52.5 186z" />
<glyph horiz-adv-x="1024" d="M51 1167v41h922v-41h-441v-1167h-40v1167h-441z" />
<glyph horiz-adv-x="1249" d="M174 471v737h41v-737q0 -135 54.5 -237.5t148.5 -158t207 -55.5t207 55.5t148 158t54 237.5v737h41v-737q0 -150 -60.5 -261.5t-162.5 -170.5t-227 -59t-227.5 59t-163 171t-60.5 261z" />
<glyph horiz-adv-x="1044" d="M41 1208h43l418 -1167h41l418 1167h43l-435 -1208h-94z" />
<glyph horiz-adv-x="1546" d="M51 1208h43l301 -1167h35l297 1167h92l297 -1167h35l301 1167h43l-313 -1208h-97l-297 1167h-30l-297 -1167h-96z" />
<glyph horiz-adv-x="1044" d="M41 0l428 621l-401 587h49l383 -563h45l383 563h49l-402 -587l429 -621h-50l-409 598h-43l-410 -598h-51z" />
<glyph horiz-adv-x="1024" d="M41 1208h47l408 -696h32l408 696h47l-451 -768v-440h-40v440z" />
<glyph horiz-adv-x="993" d="M92 0v41l758 1126h-748v41h799v-41l-758 -1126h758v-41h-809z" />
<glyph horiz-adv-x="1085" d="M41 0l461 1208h82l460 -1208h-43l-135 358h-647l-135 -358h-43zM236 399h614l-291 768h-33zM522 1352l153 225h52l-164 -225h-41z" />
<glyph horiz-adv-x="1085" d="M41 0l461 1208h82l460 -1208h-43l-135 358h-647l-135 -358h-43zM236 399h614l-291 768h-33zM297 1352l225 225h41l226 -225h-52l-194 194l-195 -194h-51z" />
<glyph horiz-adv-x="1085" d="M41 0l461 1208h82l460 -1208h-43l-135 358h-647l-135 -358h-43zM236 399h614l-291 768h-33zM327 1505q0 16 12.5 28.5t28.5 12.5t28.5 -12t12.5 -29q0 -16 -12 -28.5t-29 -12.5q-16 0 -28.5 12.5t-12.5 28.5zM676 1505q0 16 12 28.5t29 12.5q16 0 28.5 -12t12.5 -29 q0 -16 -12.5 -28.5t-28.5 -12.5q-17 0 -29 12.5t-12 28.5z" />
<glyph horiz-adv-x="1085" d="M41 0l461 1208h82l460 -1208h-43l-135 358h-647l-135 -358h-43zM236 399h614l-291 768h-33zM359 1577h51l154 -225h-41z" />
<glyph horiz-adv-x="1085" d="M41 0l461 1208h82l460 -1208h-43l-135 358h-647l-135 -358h-43zM236 399h614l-291 768h-33zM379 1495q0 70 47 117t117 47t117 -47t47 -117t-47.5 -117t-116.5 -47q-70 0 -117 47t-47 117zM420 1495q0 -53 34.5 -88t88.5 -35q53 0 88 35t35 88t-35 88t-88 35t-88 -35 t-35 -88z" />
<glyph horiz-adv-x="1085" d="M41 0l461 1208h82l460 -1208h-43l-135 358h-647l-135 -358h-43zM236 399h614l-291 768h-33zM267 1393q0 76 42 119.5t111 43.5q39 0 67.5 -16t67.5 -49q37 -31 59.5 -44t51.5 -13q113 0 113 122h41q0 -76 -42 -119.5t-112 -43.5q-39 0 -67.5 16t-67.5 49 q-37 31 -59.5 44.5t-51.5 13.5q-113 0 -112 -123h-41z" />
<glyph horiz-adv-x="1638" d="M20 0l533 1208h952v-41h-696v-532h655v-41h-655v-553h696v-41h-737v379h-539l-166 -379h-43zM248 420h520v747h-193z" />
<glyph horiz-adv-x="1288" d="M113 604q0 184 73.5 326.5t199.5 220.5t280 78q133 0 239.5 -56.5t177 -149.5t99.5 -204h-41q-43 160 -170 264.5t-305 104.5q-143 0 -260 -74t-184.5 -207t-67.5 -303t67.5 -303t184 -207t260.5 -74q176 0 301 100.5t178 278.5h41q-29 -117 -100.5 -212t-179 -151 t-240.5 -56l-41 -82q74 0 113.5 -38t39.5 -96q0 -66 -43 -104.5t-131 -38.5h-51v41h51q68 0 100.5 27.5t32.5 74.5t-32.5 75t-100.5 28h-20v31l41 84q-147 10 -264 92t-182.5 219t-65.5 311z" />
<glyph horiz-adv-x="1259" d="M41 584v41h184v583h348q164 0 294 -74.5t205 -212t75 -317.5t-75 -317t-205 -212t-294 -75h-348v584h-184zM266 41h307q150 0 271 68.5t191.5 196.5t70.5 298t-70.5 298t-191.5 196.5t-271 68.5h-307v-542h369v-41h-369v-543z" />
<glyph horiz-adv-x="1064" d="M195 0v1208h737v-41h-696v-532h655v-41h-655v-553h696v-41h-737zM553 1352l153 225h52l-164 -225h-41z" />
<glyph horiz-adv-x="1064" d="M195 0v1208h737v-41h-696v-532h655v-41h-655v-553h696v-41h-737zM328 1352l225 225h41l226 -225h-52l-194 194l-195 -194h-51z" />
<glyph horiz-adv-x="1064" d="M195 0v1208h737v-41h-696v-532h655v-41h-655v-553h696v-41h-737zM358 1505q0 16 12.5 28.5t28.5 12.5t28.5 -12t12.5 -29q0 -16 -12 -28.5t-29 -12.5q-16 0 -28.5 12.5t-12.5 28.5zM707 1505q0 16 12 28.5t29 12.5q16 0 28.5 -12t12.5 -29q0 -16 -12.5 -28.5t-28.5 -12.5 q-17 0 -29 12.5t-12 28.5z" />
<glyph horiz-adv-x="1064" d="M195 0v1208h737v-41h-696v-532h655v-41h-655v-553h696v-41h-737zM389 1577h51l154 -225h-41z" />
<glyph horiz-adv-x="430" d="M195 0v1208h41v-1208h-41zM195 1352l153 225h52l-164 -225h-41z" />
<glyph horiz-adv-x="430" d="M-31 1352l225 225h41l226 -225h-52l-194 194l-195 -194h-51zM195 0v1208h41v-1208h-41z" />
<glyph horiz-adv-x="430" d="M0 1505q0 16 12.5 28.5t28.5 12.5t28.5 -12t12.5 -29q0 -16 -12 -28.5t-29 -12.5q-16 0 -28.5 12.5t-12.5 28.5zM195 0v1208h41v-1208h-41zM349 1505q0 16 12 28.5t29 12.5q16 0 28.5 -12t12.5 -29q0 -16 -12.5 -28.5t-28.5 -12.5q-17 0 -29 12.5t-12 28.5z" />
<glyph horiz-adv-x="430" d="M31 1577h51l154 -225h-41zM195 0v1208h41v-1208h-41z" />
<glyph horiz-adv-x="1126" d="M195 0v1208h41v-1208h-41zM471 0v41h317q53 0 83 34t30 89v1044h41v-1044q0 -76 -42 -120t-112 -44h-317z" />
<glyph horiz-adv-x="1126" d="M195 0v1208h41v-1208h-41zM195 1352l153 225h52l-164 -225h-41zM471 0v41h317q53 0 83 34t30 89v1044h41v-1044q0 -76 -42 -120t-112 -44h-317zM901 1352l153 225h52l-164 -225h-41z" />
<glyph horiz-adv-x="942" d="M195 0v1208h41v-1167h655v-41h-696zM646 656q0 16 12 28.5t29 12.5q16 0 28.5 -12.5t12.5 -28.5t-12.5 -28.5t-28.5 -12.5q-17 0 -29 12t-12 29z" />
<glyph horiz-adv-x="1280" d="M195 0v1208h92l727 -1167h30v1167h41v-1208h-92l-727 1167h-30v-1167h-41zM365 1393q0 76 42 119.5t111 43.5q39 0 67.5 -16t67.5 -49q37 -31 59.5 -44t51.5 -13q113 0 113 122h41q0 -76 -42 -119.5t-112 -43.5q-39 0 -67.5 16t-67.5 49q-37 31 -59.5 44.5t-51.5 13.5 q-113 0 -112 -123h-41z" />
<glyph horiz-adv-x="1310" d="M113 604q0 184 72.5 326.5t196.5 220.5t273 78q150 0 274 -78t196.5 -220.5t72.5 -326.5t-72.5 -326.5t-196.5 -220t-274 -77.5q-149 0 -273 77.5t-196.5 220t-72.5 326.5zM154 604q0 -174 66.5 -307t181 -205t253.5 -72q140 0 254.5 72t181 205t66.5 307t-66.5 307 t-181 205t-254.5 72q-139 0 -253.5 -72t-181 -205t-66.5 -307zM635 1352l153 225h52l-164 -225h-41z" />
<glyph horiz-adv-x="1310" d="M113 604q0 184 72.5 326.5t196.5 220.5t273 78q150 0 274 -78t196.5 -220.5t72.5 -326.5t-72.5 -326.5t-196.5 -220t-274 -77.5q-149 0 -273 77.5t-196.5 220t-72.5 326.5zM154 604q0 -174 66.5 -307t181 -205t253.5 -72q140 0 254.5 72t181 205t66.5 307t-66.5 307 t-181 205t-254.5 72q-139 0 -253.5 -72t-181 -205t-66.5 -307zM410 1352l225 225h41l226 -225h-52l-194 194l-195 -194h-51z" />
<glyph horiz-adv-x="1310" d="M113 604q0 184 72.5 326.5t196.5 220.5t273 78q150 0 274 -78t196.5 -220.5t72.5 -326.5t-72.5 -326.5t-196.5 -220t-274 -77.5q-149 0 -273 77.5t-196.5 220t-72.5 326.5zM154 604q0 -174 66.5 -307t181 -205t253.5 -72q140 0 254.5 72t181 205t66.5 307t-66.5 307 t-181 205t-254.5 72q-139 0 -253.5 -72t-181 -205t-66.5 -307zM440 1505q0 16 12.5 28.5t28.5 12.5t28.5 -12t12.5 -29q0 -16 -12 -28.5t-29 -12.5q-16 0 -28.5 12.5t-12.5 28.5zM789 1505q0 16 12 28.5t29 12.5q16 0 28.5 -12t12.5 -29q0 -16 -12.5 -28.5t-28.5 -12.5 q-17 0 -29 12.5t-12 28.5z" />
<glyph horiz-adv-x="1310" d="M113 604q0 184 72.5 326.5t196.5 220.5t273 78q150 0 274 -78t196.5 -220.5t72.5 -326.5t-72.5 -326.5t-196.5 -220t-274 -77.5q-149 0 -273 77.5t-196.5 220t-72.5 326.5zM154 604q0 -174 66.5 -307t181 -205t253.5 -72q140 0 254.5 72t181 205t66.5 307t-66.5 307 t-181 205t-254.5 72q-139 0 -253.5 -72t-181 -205t-66.5 -307zM471 1577h51l154 -225h-41z" />
<glyph horiz-adv-x="1310" d="M113 604q0 184 72.5 326.5t196.5 220.5t273 78q145 0 267 -74l61 115h45l-72 -137q113 -80 177.5 -217.5t64.5 -311.5q0 -184 -72.5 -326.5t-196.5 -220t-274 -77.5q-145 0 -266 73l-61 -114h-45l71 137q-113 80 -177 217t-64 311zM154 604q0 -164 58 -291t161 -200 l530 1005q-115 70 -248 70q-139 0 -253.5 -72t-181 -205t-66.5 -307zM408 90q115 -70 247 -70q140 0 254.5 72t181 205t66.5 307q0 164 -58.5 291t-160.5 201z" />
<glyph horiz-adv-x="1310" d="M113 604q0 184 72.5 326.5t196.5 220.5t273 78q150 0 274 -78t196.5 -220.5t72.5 -326.5t-72.5 -326.5t-196.5 -220t-274 -77.5q-149 0 -273 77.5t-196.5 220t-72.5 326.5zM154 604q0 -174 66.5 -307t181 -205t253.5 -72q140 0 254.5 72t181 205t66.5 307t-66.5 307 t-181 205t-254.5 72q-139 0 -253.5 -72t-181 -205t-66.5 -307zM379 1393q0 76 42 119.5t111 43.5q39 0 67.5 -16t67.5 -49q37 -31 59.5 -44t51.5 -13q113 0 113 122h41q0 -76 -42 -119.5t-112 -43.5q-39 0 -67.5 16t-67.5 49q-37 31 -59.5 44.5t-51.5 13.5q-113 0 -112 -123 h-41z" />
<glyph horiz-adv-x="1986" d="M113 604q0 184 69.5 326.5t189.5 220.5t263 78q109 0 205 -48t165.5 -130t100.5 -181h10v338h737v-41h-696v-532h655v-41h-655v-553h696v-41h-737v338h-10q-31 -98 -100.5 -180t-166 -130t-204.5 -48q-143 0 -263 77.5t-189.5 220t-69.5 326.5zM154 604q0 -172 62.5 -304 t172 -206t246.5 -74t246.5 74t172 206t62.5 304t-62.5 304t-172 206t-246.5 74t-246.5 -74t-172 -206t-62.5 -304z" />
<glyph horiz-adv-x="1208" d="M195 0v1208h41v-307h563q133 0 220 -81t87 -216t-87 -216t-220 -81h-563v-307h-41zM236 348h563q117 0 191.5 70.5t74.5 185.5t-75 185.5t-191 70.5h-563v-512z" />
<glyph horiz-adv-x="1177" d="M184 0v872q0 158 85 247t233 89h532v-41l-450 -483v-8h102q174 0 276.5 -94.5t102.5 -243.5q0 -150 -102.5 -244t-276.5 -94h-154v41h154q158 0 248 84t90 213q0 127 -91 212t-247 85h-154v51l451 481h-481q-129 0 -203 -78.5t-74 -216.5v-872h-41z" />
<glyph horiz-adv-x="1249" d="M174 471v737h41v-737q0 -135 54.5 -237.5t148.5 -158t207 -55.5t207 55.5t148 158t54 237.5v737h41v-737q0 -150 -60.5 -261.5t-162.5 -170.5t-227 -59t-227.5 59t-163 171t-60.5 261zM604 1352l153 225h52l-164 -225h-41z" />
<glyph horiz-adv-x="1249" d="M174 471v737h41v-737q0 -135 54.5 -237.5t148.5 -158t207 -55.5t207 55.5t148 158t54 237.5v737h41v-737q0 -150 -60.5 -261.5t-162.5 -170.5t-227 -59t-227.5 59t-163 171t-60.5 261zM379 1352l225 225h41l226 -225h-52l-194 194l-195 -194h-51z" />
<glyph horiz-adv-x="1249" d="M174 471v737h41v-737q0 -135 54.5 -237.5t148.5 -158t207 -55.5t207 55.5t148 158t54 237.5v737h41v-737q0 -150 -60.5 -261.5t-162.5 -170.5t-227 -59t-227.5 59t-163 171t-60.5 261zM409 1505q0 16 12.5 28.5t28.5 12.5t28.5 -12t12.5 -29q0 -16 -12 -28.5t-29 -12.5 q-16 0 -28.5 12.5t-12.5 28.5zM758 1505q0 16 12 28.5t29 12.5q16 0 28.5 -12t12.5 -29q0 -16 -12.5 -28.5t-28.5 -12.5q-17 0 -29 12.5t-12 28.5z" />
<glyph horiz-adv-x="1249" d="M174 471v737h41v-737q0 -135 54.5 -237.5t148.5 -158t207 -55.5t207 55.5t148 158t54 237.5v737h41v-737q0 -150 -60.5 -261.5t-162.5 -170.5t-227 -59t-227.5 59t-163 171t-60.5 261zM441 1577h51l154 -225h-41z" />
<glyph horiz-adv-x="1024" d="M41 1208h47l408 -696h32l408 696h47l-451 -768v-440h-40v440zM492 1352l153 225h52l-164 -225h-41z" />
<glyph horiz-adv-x="1024" d="M41 1208h47l408 -696h32l408 696h47l-451 -768v-440h-40v440zM296 1505q0 16 12.5 28.5t28.5 12.5t28.5 -12t12.5 -29q0 -16 -12 -28.5t-29 -12.5q-16 0 -28.5 12.5t-12.5 28.5zM645 1505q0 16 12 28.5t29 12.5q16 0 28.5 -12t12.5 -29q0 -16 -12.5 -28.5t-28.5 -12.5 q-17 0 -29 12.5t-12 28.5z" />
<glyph horiz-adv-x="2416" d="M41 0l543 1434h82l526 -1393h33l526 1393h82l543 -1434h-41l-162 430h-762l-162 -430h-82l-161 430h-762l-162 -430h-41zM260 471h729l-348 922h-33zM1427 471h730l-349 922h-32z" />
<glyph horiz-adv-x="2129" d="M205 0v1434h41v-1393h690l528 1393h82l543 -1434h-41l-162 430h-762l-161 -430h-758zM1141 471h729l-348 922h-33z" />
<glyph horiz-adv-x="2252" d="M51 1393v41h1102l485 -830h41l486 830h47l-533 -912v-522h-41v522l-508 871h-516v-1393h-41v1393h-522z" />
<glyph horiz-adv-x="1116" d="M72 983v41h164v215q0 154 153 154h133v-41h-133q-53 0 -83 -30t-30 -83v-215h410v287h41v-287h287v-41h-287v-829q0 -53 29.5 -83t83.5 -30h174v-41h-174q-154 0 -154 154v829h-410v-983h-40v983h-164z" />
<glyph horiz-adv-x="1361" d="M72 983v41h164v215q0 154 153 154h154v-41h-154q-53 0 -83 -30t-30 -83v-215h269l356 -952h39l338 952h43l-471 -1321q-23 -66 -60.5 -89.5t-103.5 -23.5h-102v41h102q57 0 84 22.5t47 80.5l82 229l-383 1020h-240v-983h-40v983h-164z" />
<glyph horiz-adv-x="1495" d="M184 0v1024h31l10 -102h11q37 57 83 79.5t111 22.5h248l356 -952h39l338 952h43l-471 -1321q-23 -66 -60.5 -89.5t-103.5 -23.5h-102v41h102q57 0 84 22.5t47 80.5l82 229l-383 1020h-219q-98 0 -151.5 -61.5t-53.5 -163.5v-758h-41z" />
<glyph horiz-adv-x="1146" d="M72 983v41h164v287h40v-287h410v287h41v-287h317v-41h-317v-829q0 -53 29.5 -83t83.5 -30h174v-41h-174q-154 0 -154 154v829h-410v-829q0 -53 30 -83t83 -30h154v-41h-154q-154 0 -153 154v829h-164z" />
<glyph horiz-adv-x="1423" d="M72 983v41h164v287h40v-287h330l357 -952h38l338 952h43l-471 -1321q-23 -66 -60.5 -89.5t-102.5 -23.5h-103v41h103q57 0 83.5 22.5t47.5 80.5l82 229l-383 1020h-302v-829q0 -53 30 -83t83 -30h174v-41h-174q-154 0 -153 154v829h-164z" />
<glyph horiz-adv-x="1566" d="M72 983v41h164v215q0 154 153 154h154v-41h-154q-53 0 -83 -30t-30 -83v-215h410v215q0 154 154 154h133v-41h-133q-53 0 -83 -30t-30 -83v-215h410v287h41v-287h286v-41h-286v-829q0 -53 29.5 -83t82.5 -30h174v-41h-174q-154 0 -153 154v829h-410v-983h-41v983h-410 v-983h-40v983h-164z" />
<glyph horiz-adv-x="1812" d="M72 983v41h164v215q0 154 153 154h154v-41h-154q-53 0 -83 -30t-30 -83v-215h410v215q0 154 154 154h153v-41h-153q-53 0 -83 -30t-30 -83v-215h268l357 -952h39l338 952h43l-472 -1321q-23 -66 -60.5 -89.5t-102.5 -23.5h-103v41h103q57 0 83.5 22.5t47.5 80.5l82 229 l-383 1020h-240v-983h-41v983h-410v-983h-40v983h-164z" />
<glyph horiz-adv-x="1873" d="M72 983v41h164v215q0 154 153 154h133v-41h-133q-53 0 -83 -30t-30 -83v-215h410v287h41v-287h330l356 -952h39l338 952h43l-471 -1321q-23 -66 -60.5 -89.5t-103.5 -23.5h-102v41h102q57 0 84 22.5t47 80.5l82 229l-383 1020h-301v-829q0 -53 29.5 -83t83.5 -30h174v-41 h-174q-154 0 -154 154v829h-410v-983h-40v983h-164z" />
<glyph horiz-adv-x="1873" d="M72 983v41h164v287h40v-287h410v287h41v-287h330l356 -952h39l338 952h43l-471 -1321q-23 -66 -60.5 -89.5t-103.5 -23.5h-102v41h102q57 0 84 22.5t47 80.5l82 229l-383 1020h-301v-829q0 -53 29.5 -83t83.5 -30h174v-41h-174q-154 0 -154 154v829h-410v-829 q0 -53 30 -83t83 -30h154v-41h-154q-154 0 -153 154v829h-164z" />
<glyph horiz-adv-x="1546" d="M133 717q0 215 86 383t233.5 261t325.5 93q203 0 365 -120t229 -330h-41q-68 195 -219 302t-334 107q-168 0 -306 -87t-218 -245.5t-80 -363.5t80 -363.5t218 -246t306 -87.5q170 0 299 77t202 222.5t73 346.5h-523v41h564v-41q0 -215 -78 -370t-217.5 -235.5 t-319.5 -80.5q-178 0 -325.5 93t-233.5 261t-86 383z" />
<glyph horiz-adv-x="1556" d="M133 717q0 215 86 383t233.5 261t325.5 93t325.5 -93t233.5 -261t86 -383t-86 -383t-233.5 -261t-325.5 -93t-325.5 93t-233.5 261t-86 383zM174 717q0 -205 80 -363.5t218 -246t306 -87.5t306.5 87.5t218 246t79.5 363.5t-79.5 363.5t-218 245.5t-306.5 87t-306 -87 t-218 -245.5t-80 -363.5zM707 -154h573v-41h-573v41z" />
<glyph horiz-adv-x="1167" d="M102 512q0 160 58.5 280.5t159 186t223.5 65.5q248 0 389 -266h10l10 246h31v-1024h-31l-10 246h-10q-141 -266 -389 -266q-123 0 -223.5 65.5t-159 186t-58.5 280.5zM143 512q0 -150 54.5 -261.5t145.5 -171t200 -59.5q104 0 195 60.5t147.5 172.5t56.5 259t-56.5 259 t-147.5 172.5t-195 60.5q-109 0 -200 -59.5t-145.5 -171t-54.5 -261.5z" />
<glyph horiz-adv-x="1167" d="M102 512q0 160 58.5 280.5t159 186t223.5 65.5q248 0 389 -266h10l10 246h31v-1024h-31l-10 246h-10q-141 -266 -389 -266q-123 0 -223.5 65.5t-159 186t-58.5 280.5zM143 512q0 -150 54.5 -261.5t145.5 -171t200 -59.5q104 0 195 60.5t147.5 172.5t56.5 259t-56.5 259 t-147.5 172.5t-195 60.5q-109 0 -200 -59.5t-145.5 -171t-54.5 -261.5zM563 1208l153 226h52l-164 -226h-41z" />
<glyph horiz-adv-x="1167" d="M102 512q0 160 58.5 280.5t159 186t223.5 65.5q248 0 389 -266h10l10 246h31v-1024h-31l-10 246h-10q-141 -266 -389 -266q-123 0 -223.5 65.5t-159 186t-58.5 280.5zM143 512q0 -150 54.5 -261.5t145.5 -171t200 -59.5q104 0 195 60.5t147.5 172.5t56.5 259t-56.5 259 t-147.5 172.5t-195 60.5q-109 0 -200 -59.5t-145.5 -171t-54.5 -261.5zM338 1208l225 226h41l226 -226h-52l-194 195l-195 -195h-51z" />
<glyph horiz-adv-x="1167" d="M102 512q0 160 58.5 280.5t159 186t223.5 65.5q248 0 389 -266h10l10 246h31v-1024h-31l-10 246h-10q-141 -266 -389 -266q-123 0 -223.5 65.5t-159 186t-58.5 280.5zM143 512q0 -150 54.5 -261.5t145.5 -171t200 -59.5q104 0 195 60.5t147.5 172.5t56.5 259t-56.5 259 t-147.5 172.5t-195 60.5q-109 0 -200 -59.5t-145.5 -171t-54.5 -261.5zM368 1362q0 16 12.5 28.5t28.5 12.5t28.5 -12.5t12.5 -28.5t-12 -28.5t-29 -12.5q-16 0 -28.5 12.5t-12.5 28.5zM717 1362q0 16 12 28.5t29 12.5q16 0 28.5 -12.5t12.5 -28.5t-12.5 -28.5t-28.5 -12.5 q-17 0 -29 12.5t-12 28.5z" />
<glyph horiz-adv-x="1167" d="M102 512q0 160 58.5 280.5t159 186t223.5 65.5q248 0 389 -266h10l10 246h31v-1024h-31l-10 246h-10q-141 -266 -389 -266q-123 0 -223.5 65.5t-159 186t-58.5 280.5zM143 512q0 -150 54.5 -261.5t145.5 -171t200 -59.5q104 0 195 60.5t147.5 172.5t56.5 259t-56.5 259 t-147.5 172.5t-195 60.5q-109 0 -200 -59.5t-145.5 -171t-54.5 -261.5zM410 1434h51l154 -226h-41z" />
<glyph horiz-adv-x="1167" d="M102 512q0 160 58.5 280.5t159 186t223.5 65.5q248 0 389 -266h10l10 246h31v-1024h-31l-10 246h-10q-141 -266 -389 -266q-123 0 -223.5 65.5t-159 186t-58.5 280.5zM143 512q0 -150 54.5 -261.5t145.5 -171t200 -59.5q104 0 195 60.5t147.5 172.5t56.5 259t-56.5 259 t-147.5 172.5t-195 60.5q-109 0 -200 -59.5t-145.5 -171t-54.5 -261.5zM420 1352q0 70 47 117t117 47t117 -47.5t47 -116.5q0 -70 -47.5 -117t-116.5 -47q-70 0 -117 47t-47 117zM461 1352q0 -53 34.5 -88t88.5 -35q53 0 88 34.5t35 88.5q0 53 -35 88t-88 35t-88 -35 t-35 -88z" />
<glyph horiz-adv-x="1167" d="M102 512q0 160 58.5 280.5t159 186t223.5 65.5q248 0 389 -266h10l10 246h31v-1024h-31l-10 246h-10q-141 -266 -389 -266q-123 0 -223.5 65.5t-159 186t-58.5 280.5zM143 512q0 -150 54.5 -261.5t145.5 -171t200 -59.5q104 0 195 60.5t147.5 172.5t56.5 259t-56.5 259 t-147.5 172.5t-195 60.5q-109 0 -200 -59.5t-145.5 -171t-54.5 -261.5zM308 1249q0 76 42 120t111 44q39 0 67.5 -16.5t67.5 -48.5q37 -31 59.5 -44.5t51.5 -13.5q113 0 113 123h41q0 -76 -42 -120t-112 -44q-39 0 -67.5 16.5t-67.5 49.5q-37 31 -59.5 44t-51.5 13 q-113 0 -112 -123h-41z" />
<glyph horiz-adv-x="1167" d="M102 543q0 145 58.5 260t159 178t223.5 63q127 0 231.5 -69.5t157.5 -196.5h10l10 246h31v-1126q0 -162 -72.5 -235t-234.5 -73h-389v41h389q143 0 204.5 63.5t61.5 203.5v409h-10q-53 -127 -157.5 -196.5t-231.5 -69.5q-123 0 -223.5 63.5t-159 178t-58.5 260.5z M143 543q0 -135 52.5 -240.5t143.5 -163t204 -57.5q112 0 203.5 57.5t143.5 163t52 240.5t-52 240.5t-143.5 163t-203.5 57.5q-113 0 -204 -57.5t-143.5 -163t-52.5 -240.5z" />
<glyph horiz-adv-x="522" d="M195 154v1280h41v-1280q0 -53 29.5 -83t82.5 -30h154v-41h-154q-154 0 -153 154z" />
<glyph horiz-adv-x="581" d="M195 154v1280h41v-1280q0 -53 29.5 -83t82.5 -30h154v-41h-154q-154 0 -153 154zM465 727q0 16 12 28.5t29 12.5q16 0 28.5 -12.5t12.5 -28.5t-12.5 -28.5t-28.5 -12.5q-17 0 -29 12t-12 29z" />
<glyph horiz-adv-x="901" d="M41 1024h43l356 -952h39l338 952h43l-512 -1434h-43l133 373z" />
<glyph horiz-adv-x="901" d="M41 1024h43l356 -952h39l338 952h43l-512 -1434h-43l133 373zM441 1208l153 226h52l-164 -226h-41z" />
<glyph horiz-adv-x="901" d="M41 1024h43l356 -952h39l338 952h43l-512 -1434h-43l133 373zM245 1362q0 16 12.5 28.5t28.5 12.5t28.5 -12.5t12.5 -28.5t-12 -28.5t-29 -12.5q-16 0 -28.5 12.5t-12.5 28.5zM594 1362q0 16 12 28.5t29 12.5q16 0 28.5 -12.5t12.5 -28.5t-12.5 -28.5t-28.5 -12.5 q-17 0 -29 12.5t-12 28.5z" />
<glyph horiz-adv-x="1157" d="M174 410v614h41v-614q0 -176 96.5 -283t251.5 -107q102 0 186.5 50.5t133.5 139.5t49 200v614h41v-1126q0 -162 -73 -235t-234 -73h-390v41h390q143 0 204.5 63.5t61.5 203.5v307h-10q-39 -86 -135.5 -155.5t-223.5 -69.5q-174 0 -281.5 113.5t-107.5 316.5z" />
<glyph horiz-adv-x="1157" d="M174 410v614h41v-614q0 -176 96.5 -283t251.5 -107q102 0 186.5 50.5t133.5 139.5t49 200v614h41v-1126q0 -162 -73 -235t-234 -73h-390v41h390q143 0 204.5 63.5t61.5 203.5v307h-10q-39 -86 -135.5 -155.5t-223.5 -69.5q-174 0 -281.5 113.5t-107.5 316.5zM559 1208 l153 226h52l-164 -226h-41z" />
<glyph horiz-adv-x="1157" d="M174 410v614h41v-614q0 -176 96.5 -283t251.5 -107q102 0 186.5 50.5t133.5 139.5t49 200v614h41v-1126q0 -162 -73 -235t-234 -73h-390v41h390q143 0 204.5 63.5t61.5 203.5v307h-10q-39 -86 -135.5 -155.5t-223.5 -69.5q-174 0 -281.5 113.5t-107.5 316.5zM364 1362 q0 16 12.5 28.5t28.5 12.5t28.5 -12.5t12.5 -28.5t-12 -28.5t-29 -12.5q-16 0 -28.5 12.5t-12.5 28.5zM713 1362q0 16 12 28.5t29 12.5q16 0 28.5 -12.5t12.5 -28.5t-12.5 -28.5t-28.5 -12.5q-17 0 -29 12.5t-12 28.5z" />
<glyph horiz-adv-x="2078" d="M41 0l461 1208h82l444 -1167h23l444 1167h82l461 -1208h-43l-135 358h-648l-135 -358h-76l-135 358h-647l-135 -358h-43zM236 399h614l-291 768h-33zM1229 399h614l-291 768h-32z" />
<glyph horiz-adv-x="1843" d="M195 0v1208h41v-1167h579l445 1167h81l461 -1208h-43l-135 358h-647l-135 -358h-647zM993 399h615l-291 768h-33z" />
<glyph horiz-adv-x="1925" d="M51 1167v41h938l408 -696h33l407 696h47l-450 -768v-440h-41v440l-426 727h-435v-1167h-40v1167h-441z" />
<glyph horiz-adv-x="1310" d="M143 717q0 223 63.5 390t179.5 257t269 90q154 0 269.5 -90t179 -257t63.5 -390t-63.5 -390t-179 -257t-269.5 -90t-269.5 90t-179 257t-63.5 390zM184 717q0 -203 58 -363l813 762q-59 141 -164 219t-236 78q-137 0 -244.5 -85t-167 -242.5t-59.5 -368.5zM256 317 q61 -141 164.5 -219t234.5 -78q138 0 245.5 85t166.5 243t59 369q0 203 -57 362z" />
<glyph horiz-adv-x="1105" d="M41 717q0 223 63.5 390t179.5 257t269 90q154 0 269.5 -90t179 -257t63.5 -390t-63.5 -390t-179 -257t-269.5 -90q-153 0 -269 90t-179.5 257t-63.5 390zM82 717q0 -211 59.5 -369t167 -243t244.5 -85q138 0 245.5 85t166.5 243t59 369t-59 368.5t-166.5 242.5t-245.5 85 q-137 0 -244.5 -85t-167 -242.5t-59.5 -368.5z" />
<glyph horiz-adv-x="1105" d="M215 0v41h369v1188h-369v41h307q61 0 62 61v103h41v-1393h368v-41h-778z" />
<glyph horiz-adv-x="1105" d="M154 993q0 131 51 236.5t141 165t207 59.5t208 -54t141 -151.5t50 -224.5q0 -119 -36.5 -205t-118.5 -174l-572 -594v-10h758v-41h-819v41l604 635q80 84 111.5 158.5t31.5 189.5q0 113 -45 201t-126 138t-187 50q-104 0 -186 -55t-127 -151.5t-45 -213.5h-41z" />
<glyph horiz-adv-x="1105" d="M102 379h41q0 -100 50.5 -182t139.5 -129.5t199 -47.5q113 0 201 45.5t138.5 126t50.5 187.5q0 152 -105.5 240t-284.5 88h-92v41h92q172 0 270.5 92t98.5 235q0 96 -45 173t-129 121t-195 44q-109 0 -192.5 -48t-129.5 -128t-46 -172h-41q0 102 52 192.5t145.5 143.5 t211.5 53q121 0 214.5 -49t144.5 -136t51 -194q0 -246 -246 -344v-8q121 -37 194 -124t73 -220q0 -117 -54.5 -208t-152 -141t-224.5 -50q-124 0 -222.5 52t-153 143t-54.5 204z" />
<glyph horiz-adv-x="1105" d="M82 379v41l594 1014h102v-1014h236v-41h-236v-379h-41v379h-655zM133 420h604v973h-41l-563 -963v-10z" />
<glyph horiz-adv-x="1105" d="M143 379h41q14 -113 73.5 -195t144.5 -123t182 -41q113 0 204 50.5t143 145.5t52 224t-52 224.5t-143.5 145.5t-203.5 50q-100 0 -181 -33.5t-157 -109.5h-72l72 717h704v-41h-663l-70 -635h8q84 76 165 109.5t204 33.5q111 0 209 -54t159.5 -159.5t61.5 -247.5 q0 -143 -58.5 -247.5t-157.5 -158.5t-224 -54q-109 0 -205 47t-158.5 137t-77.5 215z" />
<glyph horiz-adv-x="1105" d="M102 430q0 172 103 328l440 676h49l-413 -635h6q68 43 129 62.5t147 19.5q113 0 214.5 -57.5t164 -161t62.5 -232.5t-60.5 -232.5t-164 -160.5t-226.5 -57t-226.5 57t-164 160.5t-60.5 232.5zM143 430q0 -119 56.5 -212t150.5 -145.5t203 -52.5t203 52.5t150.5 145.5 t56.5 212t-56.5 212t-150.5 145.5t-203 52.5t-203 -52.5t-150.5 -145.5t-56.5 -212z" />
<glyph horiz-adv-x="1105" d="M82 1393v41h819v-21l-553 -1413h-45l545 1393h-766z" />
<glyph horiz-adv-x="1105" d="M143 369q0 133 79 226t208 138v8q-115 37 -185.5 125t-70.5 219q0 98 47 183.5t138.5 135.5t213.5 50q123 0 214.5 -50t138.5 -135t47 -184q0 -131 -71 -219t-185 -125v-8q129 -45 208 -138t79 -226q0 -102 -54.5 -191.5t-153 -143.5t-223.5 -54q-124 0 -222.5 54 t-153 143t-54.5 192zM184 369q0 -92 50.5 -172t139.5 -128.5t199 -48.5q111 0 200 48.5t139.5 128t50.5 172.5q0 92 -50.5 172t-139.5 128t-200 48t-199.5 -48t-139 -128t-50.5 -172zM215 1085q0 -141 97.5 -234t260.5 -93q164 0 261.5 93t97.5 234q0 88 -43 163t-125 120 t-191 45t-190.5 -45t-124.5 -119.5t-43 -163.5z" />
<glyph horiz-adv-x="1105" d="M102 1004q0 129 60.5 232t164 160.5t226.5 57.5t226.5 -57.5t164 -160.5t60.5 -232q0 -172 -103 -328l-440 -676h-49l413 635h-6q-68 -43 -129 -62.5t-147 -19.5q-113 0 -214.5 57.5t-164 160.5t-62.5 233zM143 1004q0 -119 56.5 -212.5t150.5 -145.5t203 -52t203 52 t150.5 145.5t56.5 212.5t-56.5 212t-150.5 145t-203 52t-203 -52t-150.5 -145.5t-56.5 -211.5z" />
<glyph horiz-adv-x="737" d="M82 1126q0 90 37 166t100.5 119t138.5 43q74 0 133.5 -40t92.5 -103h10l10 133h31v-635h-31l-10 133h-10q-33 -63 -92.5 -103t-133.5 -40q-75 0 -138.5 43t-100.5 118.5t-37 165.5zM123 1126q0 -76 30.5 -142t85 -105t119.5 -39q101 0 168.5 82t67.5 204q0 123 -67.5 205 t-168.5 82q-66 0 -120 -39t-84.5 -105.5t-30.5 -142.5z" />
<glyph horiz-adv-x="696" d="M82 1065q0 182 75.5 280.5t190.5 98.5t190.5 -98.5t75.5 -280.5t-75.5 -280.5t-190.5 -98.5t-190.5 98t-75.5 281zM123 1065q0 -154 62.5 -246t162.5 -92q101 0 163 92t62 246t-62 246t-163 92q-100 0 -162.5 -92.5t-62.5 -245.5z" />
<glyph horiz-adv-x="512" d="M82 1270v41h154q61 0 61 61v61h41v-737h-41v574h-215z" />
<glyph horiz-adv-x="665" d="M113 1208q0 106 62.5 171t162.5 65q98 0 156.5 -56.5t58.5 -148.5q0 -63 -24.5 -109.5t-77.5 -105.5l-256 -277v-10h368v-41h-440v31l297 328q51 55 71.5 94t20.5 90q0 72 -46 118t-128 46q-80 0 -132 -52.5t-52 -142.5h-41z" />
<glyph horiz-adv-x="645" d="M92 901h41q0 -78 50 -126t134 -48t134.5 44t50.5 120t-50.5 120t-134.5 44h-61v40h61q76 0 125.5 40t49.5 114t-47.5 114t-127.5 40q-82 0 -128 -46t-46 -118h-41q0 88 59.5 146.5t155.5 58.5q94 0 156 -52.5t62 -142.5q0 -53 -29 -97t-86 -67v-10q57 -25 90 -72t33 -112 q0 -92 -62.5 -148.5t-163.5 -56.5q-98 0 -161.5 61.5t-63.5 153.5z" />
<glyph horiz-adv-x="583" d="M10 880v41l297 512h82v-512h123v-41h-123v-184h-41v184h-338zM61 921h287v471h-20l-267 -460v-11z" />
<glyph horiz-adv-x="665" d="M92 901h41q16 -84 68.5 -129t136.5 -45q92 0 148.5 56t56.5 149q0 94 -56.5 149t-148.5 55q-102 0 -164 -92h-72l41 389h400v-41h-369l-31 -317h11q68 102 184 102q106 0 176 -69.5t70 -175.5t-69 -176t-177 -70q-96 0 -164 55t-82 160z" />
<glyph horiz-adv-x="614" d="M61 932q0 86 41 153l215 348h41l-184 -297h10q55 41 123 41q106 0 176 -71.5t70 -173.5t-69.5 -174t-176.5 -72q-104 0 -175 72.5t-71 173.5zM102 932q0 -88 59.5 -146.5t145.5 -58.5t145.5 58.5t59.5 146.5t-59.5 146t-145.5 58t-145.5 -58t-59.5 -146z" />
<glyph horiz-adv-x="593" d="M102 1392v41h430v-41l-307 -696h-41l308 696h-390z" />
<glyph horiz-adv-x="675" d="M102 891q0 63 35 110t88 74v10q-45 18 -78.5 59.5t-33.5 104.5q0 90 64.5 142.5t160.5 52.5t160.5 -52.5t64.5 -142.5q0 -63 -33.5 -104t-78.5 -60v-10q51 -27 86.5 -74t35.5 -110q0 -86 -65.5 -145.5t-169.5 -59.5q-105 0 -170.5 59.5t-65.5 145.5zM143 891 q0 -74 57.5 -119t137.5 -45t137 45t57 119q0 76 -57 120t-137 44t-137.5 -45.5t-57.5 -118.5zM154 1249q0 -72 54 -113t130 -41t130 41t54 113t-54 113t-130 41t-130 -41t-54 -113z" />
<glyph horiz-adv-x="614" d="M61 1198q0 102 70 174t176 72q104 0 175 -73t71 -173q0 -86 -41 -154l-215 -348h-41l184 297h-10q-55 -41 -123 -41q-106 0 -176 71.5t-70 174.5zM102 1198q0 -88 59.5 -146.5t145.5 -58.5t145.5 58.5t59.5 146.5t-59.5 146.5t-145.5 58.5t-145.5 -58.5t-59.5 -146.5z " />
<glyph horiz-adv-x="583" d="M82 1065q0 113 58.5 187.5t146.5 78.5v103h41v-103q63 -4 113.5 -51t70.5 -123h-41q-20 59 -62 96t-102 37q-80 0 -132 -60.5t-52 -164.5t52 -164.5t132 -60.5q53 0 99.5 34.5t64.5 108.5h41q-18 -82 -69.5 -131t-114.5 -53v-103h-41v103q-88 4 -146.5 78.5t-58.5 187.5z " />
<glyph horiz-adv-x="645" d="M72 922h41q0 -78 59 -136.5t156 -58.5q88 0 146 42t58 122q0 55 -35.5 91t-115.5 54l-105 23q-100 23 -147 69t-47 121q0 84 59.5 136.5t155.5 58.5v112h41v-112q109 -6 172 -70.5t63 -159.5h-41q0 74 -58 131.5t-157 57.5q-86 0 -140 -45t-54 -109q0 -59 36 -96t117 -53 l105 -21q98 -20 145 -66t47 -122q0 -98 -66.5 -149.5t-168.5 -55.5v-113h-41v115q-106 8 -165.5 72.5t-59.5 161.5z" />
<glyph horiz-adv-x="634" d="M20 963v41h82q-4 41 -4 61t4 61h-82v41h89q20 90 72 152.5t119 93.5t130 31q61 0 103 -12.5t92 -38.5v-41q-49 27 -91 39t-104 12q-88 0 -169 -62.5t-109 -173.5h309v-41h-318q-4 -37 -4 -61q0 -25 4 -61h318v-41h-309q29 -111 109.5 -173.5t168.5 -62.5q61 0 103 12.5 t92 38.5v-41q-49 -27 -91 -39t-104 -12q-63 0 -130 31t-119 93t-72 153h-89z" />
<glyph horiz-adv-x="614" d="M61 696v41h21q33 0 47 18.5t14 63.5v215h-82v41h82v144q0 98 59.5 161.5t145.5 63.5t145.5 -61.5t59.5 -153.5h-41q0 76 -47 125t-117 49t-117 -51.5t-47 -132.5v-144h226v-41h-226v-215q0 -66 -26 -82h395v-41h-492z" />
<glyph horiz-adv-x="552" d="M20 1434h50l204 -410h5l204 410h49l-204 -410h123v-41h-154v-72h154v-41h-154v-174h-41v174h-154v41h154v72h-154v41h123z" />
<glyph horiz-adv-x="696" d="M82 369q0 182 75.5 280.5t190.5 98.5t190.5 -98.5t75.5 -280.5t-75.5 -280.5t-190.5 -98.5t-190.5 98t-75.5 281zM123 369q0 -154 62.5 -246t162.5 -92q101 0 163 92t62 246t-62 246t-163 92q-100 0 -162.5 -92.5t-62.5 -245.5z" />
<glyph horiz-adv-x="512" d="M82 574v41h154q61 0 61 61v61h41v-737h-41v574h-215z" />
<glyph horiz-adv-x="665" d="M113 512q0 106 62.5 171t162.5 65q98 0 156.5 -56.5t58.5 -148.5q0 -63 -24.5 -109.5t-77.5 -105.5l-256 -277v-10h368v-41h-440v31l297 328q51 55 71.5 94t20.5 90q0 72 -46 118t-128 46q-80 0 -132 -52.5t-52 -142.5h-41z" />
<glyph horiz-adv-x="645" d="M92 205h41q0 -78 50 -126t134 -48t134.5 44t50.5 120t-50.5 120t-134.5 44h-61v40h61q76 0 125.5 40t49.5 114t-47.5 114t-127.5 40q-82 0 -128 -46t-46 -118h-41q0 88 59.5 146.5t155.5 58.5q94 0 156 -52.5t62 -142.5q0 -53 -29 -97t-86 -67v-10q57 -25 90 -72t33 -112 q0 -92 -62.5 -148.5t-163.5 -56.5q-98 0 -161.5 61.5t-63.5 153.5z" />
<glyph horiz-adv-x="583" d="M10 184v41l297 512h82v-512h123v-41h-123v-184h-41v184h-338zM61 225h287v471h-20l-267 -460v-11z" />
<glyph horiz-adv-x="665" d="M92 205h41q16 -84 68.5 -129t136.5 -45q92 0 148.5 56t56.5 149q0 94 -56.5 149t-148.5 55q-102 0 -164 -92h-72l41 389h400v-41h-369l-31 -317h11q68 102 184 102q106 0 176 -69.5t70 -175.5t-69 -176t-177 -70q-96 0 -164 55t-82 160z" />
<glyph horiz-adv-x="614" d="M61 236q0 86 41 153l215 348h41l-184 -297h10q55 41 123 41q106 0 176 -71.5t70 -173.5t-69.5 -174t-176.5 -72q-104 0 -175 72.5t-71 173.5zM102 236q0 -88 59.5 -146.5t145.5 -58.5t145.5 58.5t59.5 146.5t-59.5 146t-145.5 58t-145.5 -58t-59.5 -146z" />
<glyph horiz-adv-x="593" d="M102 696v41h430v-41l-307 -696h-41l308 696h-390z" />
<glyph horiz-adv-x="675" d="M102 195q0 63 35 110t88 74v10q-45 18 -78.5 59.5t-33.5 104.5q0 90 64.5 142.5t160.5 52.5t160.5 -52.5t64.5 -142.5q0 -63 -33.5 -104t-78.5 -60v-10q51 -27 86.5 -74t35.5 -110q0 -86 -65.5 -145.5t-169.5 -59.5q-105 0 -170.5 59.5t-65.5 145.5zM143 195 q0 -74 57.5 -119t137.5 -45t137 45t57 119q0 76 -57 120t-137 44t-137.5 -45.5t-57.5 -118.5zM154 553q0 -72 54 -113t130 -41t130 41t54 113t-54 113t-130 41t-130 -41t-54 -113z" />
<glyph horiz-adv-x="614" d="M61 502q0 102 70 174t176 72q104 0 175 -73t71 -173q0 -86 -41 -154l-215 -348h-41l184 297h-10q-55 -41 -123 -41q-106 0 -176 71.5t-70 174.5zM102 502q0 -88 59.5 -146.5t145.5 -58.5t145.5 58.5t59.5 146.5t-59.5 146.5t-145.5 58.5t-145.5 -58.5t-59.5 -146.5z" />
<glyph horiz-adv-x="583" d="M82 369q0 113 58.5 187.5t146.5 78.5v103h41v-103q63 -4 113.5 -51t70.5 -123h-41q-20 59 -62 96t-102 37q-80 0 -132 -60.5t-52 -164.5t52 -164.5t132 -60.5q53 0 99.5 34.5t64.5 108.5h41q-18 -82 -69.5 -131t-114.5 -53v-103h-41v103q-88 4 -146.5 78.5t-58.5 187.5z " />
<glyph horiz-adv-x="645" d="M72 226h41q0 -78 59 -136.5t156 -58.5q88 0 146 42t58 122q0 55 -35.5 91t-115.5 54l-105 23q-100 23 -147 69t-47 121q0 84 59.5 136.5t155.5 58.5v112h41v-112q109 -6 172 -70.5t63 -159.5h-41q0 74 -58 131.5t-157 57.5q-86 0 -140 -45t-54 -109q0 -59 36 -96t117 -53 l105 -21q98 -20 145 -66t47 -122q0 -98 -66.5 -149.5t-168.5 -55.5v-113h-41v115q-106 8 -165.5 72.5t-59.5 161.5z" />
<glyph horiz-adv-x="634" d="M20 267v41h82q-4 41 -4 61t4 61h-82v41h89q20 90 72 152.5t119 93.5t130 31q61 0 103 -12.5t92 -38.5v-41q-49 27 -91 39t-104 12q-88 0 -169 -62.5t-109 -173.5h309v-41h-318q-4 -37 -4 -61q0 -25 4 -61h318v-41h-309q29 -111 109.5 -173.5t168.5 -62.5q61 0 103 12.5 t92 38.5v-41q-49 -27 -91 -39t-104 -12q-63 0 -130 31t-119 93t-72 153h-89z" />
<glyph horiz-adv-x="614" d="M61 0v41h21q33 0 47 18.5t14 63.5v215h-82v41h82v144q0 98 59.5 161.5t145.5 63.5t145.5 -61.5t59.5 -153.5h-41q0 76 -47 125t-117 49t-117 -51.5t-47 -132.5v-144h226v-41h-226v-215q0 -66 -26 -82h395v-41h-492z" />
<glyph horiz-adv-x="552" d="M20 738h50l204 -410h5l204 410h49l-204 -410h123v-41h-154v-72h154v-41h-154v-174h-41v174h-154v41h154v72h-154v41h123z" />
<glyph horiz-adv-x="1105" d="M113 604q0 186 56 327.5t156.5 219.5t227.5 78t227.5 -78t156.5 -219t56 -328q0 -186 -56 -327.5t-156.5 -219t-227.5 -77.5t-227.5 77.5t-156.5 219t-56 327.5zM154 604q0 -176 52 -308t143 -204t204 -72t204 72t143 204t52 308t-52 308t-143 204t-204 72t-204 -72 t-143 -204t-52 -308z" />
<glyph horiz-adv-x="542" d="M41 1024v41h215q23 0 37 14.5t14 36.5v92h41v-1208h-41v1024h-266z" />
<glyph horiz-adv-x="931" d="M113 840q0 111 44 199.5t123.5 139t180.5 50.5q96 0 173 -47t121 -131t44 -191q0 -96 -34 -171t-99 -144l-482 -496v-8h645v-41h-706v41l512 532q66 68 94.5 132.5t28.5 154.5q0 92 -38 167t-105.5 118t-153.5 43q-90 0 -160 -46t-108.5 -126t-38.5 -176h-41z" />
<glyph horiz-adv-x="962" d="M92 317h41q0 -82 42 -149.5t117 -107.5t169 -40q145 0 236 83t91 214q0 125 -88 201t-239 76h-82v41h82q141 0 224 79t83 197q0 74 -37 137.5t-106.5 101.5t-163.5 38q-90 0 -160 -39t-108.5 -104.5t-38.5 -143.5h-41q0 86 45 162t123.5 121t179.5 45q100 0 179 -43 t124 -116t45 -159q0 -209 -205 -290v-7q225 -82 225 -297q0 -147 -100 -242t-268 -95q-107 0 -191 44t-131 120.5t-47 172.5z" />
<glyph horiz-adv-x="890" d="M72 317v41l501 850h93v-850h194v-41h-194v-317h-41v317h-553zM123 358h502v809h-31l-471 -798v-11z" />
<glyph horiz-adv-x="1003" d="M133 317h41q23 -141 117 -219t221 -78q150 0 244 95.5t94 253.5q0 160 -94 254t-244 94q-174 0 -287 -113h-61l61 604h604v-41h-567l-57 -522h10q68 59 133.5 86t173.5 27q98 0 183.5 -47t135.5 -135.5t50 -206.5q0 -121 -49 -209t-135 -134t-195 -46q-145 0 -250.5 88 t-128.5 249z" />
<glyph horiz-adv-x="983" d="M102 369q0 125 95 268l376 571h45l-342 -522h11q55 33 98 47.5t117 14.5q98 0 185 -47.5t140.5 -134.5t53.5 -204q0 -113 -52.5 -199.5t-141.5 -134.5t-195 -48q-109 0 -197 47t-140.5 135t-52.5 207zM143 365q0 -102 48.5 -180.5t128 -121.5t172.5 -43q92 0 171.5 43 t128 121t48.5 178q0 102 -48.5 180.5t-128 121.5t-171.5 43t-172 -43t-128.5 -121t-48.5 -178z" />
<glyph horiz-adv-x="829" d="M61 1167v41h697v-20l-461 -1188h-41l455 1167h-650z" />
<glyph horiz-adv-x="1003" d="M133 317q0 111 64.5 189t171.5 115v8q-86 23 -150.5 99.5t-64.5 186.5q0 86 41 158t119.5 114t187.5 42t187.5 -42t119.5 -114t41 -158q0 -111 -64.5 -187.5t-150.5 -98.5v-8q106 -37 170.5 -115t64.5 -189q0 -96 -47 -172.5t-131 -120.5t-190 -44q-107 0 -191 44 t-131 120.5t-47 172.5zM174 311q0 -76 42 -142.5t117 -107.5t169 -41t168.5 41t116.5 108t42 142q0 78 -42 145.5t-116.5 107.5t-168.5 40t-169 -40t-117 -107.5t-42 -145.5zM195 915q0 -117 82.5 -194.5t224.5 -77.5q141 0 224 78t83 194q0 117 -83 195t-224 78t-224 -78 t-83 -195z" />
<glyph horiz-adv-x="983" d="M102 846q0 113 52.5 200t141.5 135t196 48q109 0 196.5 -47t140 -135.5t52.5 -206.5q0 -125 -95 -269l-376 -571h-45l342 522h-11q-55 -33 -98 -47t-117 -14q-98 0 -185 47t-140.5 134t-53.5 204zM143 846q0 -102 48.5 -180t128 -121t172.5 -43q92 0 171.5 43t128 120.5 t48.5 178.5q0 102 -48.5 180t-128 121t-171.5 43t-172 -43t-128.5 -121t-48.5 -178z" />
<glyph horiz-adv-x="430" d="M174 748q0 16 12 28.5t29 12.5q16 0 28.5 -12.5t12.5 -28.5t-12.5 -28.5t-28.5 -12.5q-17 0 -29 12t-12 29z" />
<glyph horiz-adv-x="471" d="M205 1403q0 16 12 28.5t29 12.5q16 0 28.5 -12t12.5 -29q0 -16 -12.5 -28.5t-28.5 -12.5t-28.5 12.5t-12.5 28.5zM225 0v1147h41v-1147h-41z" />
<glyph horiz-adv-x="1003" d="M102 379q0 137 59.5 220t186.5 159q86 51 120 95t34 130v123h41v-123q0 -94 -35 -145t-119 -100q-135 -80 -190.5 -156t-55.5 -203q0 -100 49.5 -182t134.5 -129t185 -47q106 0 190 47t131.5 129t47.5 182h41q0 -113 -51.5 -204t-144.5 -143t-214 -52q-117 0 -210 52 t-146.5 144.5t-53.5 202.5zM481 1403q0 16 12.5 28.5t28.5 12.5q17 0 29 -12t12 -29q0 -16 -12 -28.5t-29 -12.5q-16 0 -28.5 12.5t-12.5 28.5z" />
<glyph horiz-adv-x="583" d="M133 717l266 369h52l-267 -369l267 -369h-52z" />
<glyph horiz-adv-x="583" d="M133 348l266 369l-266 369h51l267 -369l-267 -369h-51z" />
<glyph horiz-adv-x="870" d="M133 717l266 369h52l-267 -369l267 -369h-52zM420 717l266 369h52l-267 -369l267 -369h-52z" />
<glyph horiz-adv-x="870" d="M133 348l266 369l-266 369h51l267 -369l-267 -369h-51zM420 348l266 369l-266 369h51l267 -369l-267 -369h-51z" />
<glyph horiz-adv-x="655" d="M246 727q0 35 24.5 58.5t57.5 23.5q35 0 58.5 -23.5t23.5 -58.5q0 -33 -24 -57.5t-58 -24.5q-33 0 -57.5 24.5t-24.5 57.5z" />
<glyph horiz-adv-x="860" d="M102 717v41h656v-41h-656z" />
<glyph horiz-adv-x="1126" d="M82 717v41h962v-41h-962z" />
<glyph horiz-adv-x="1454" d="M82 717v41h1290v-41h-1290z" />
<glyph horiz-adv-x="634" d="M195 727q0 270 80.5 501.5t246.5 450.5h51q-172 -219 -254.5 -449.5t-82.5 -502.5t82.5 -502.5t254.5 -450.5h-51q-166 219 -246.5 450.5t-80.5 502.5z" />
<glyph horiz-adv-x="634" d="M61 -226q172 219 255 449.5t83 503.5q0 272 -83 502.5t-255 449.5h52q166 -219 246.5 -450.5t80.5 -501.5t-80.5 -501.5t-246.5 -451.5h-52z" />
<glyph horiz-adv-x="645" d="M225 -226v1905h369v-41h-328v-1823h328v-41h-369z" />
<glyph horiz-adv-x="645" d="M51 -185h328v1823h-328v41h369v-1905h-369v41z" />
<glyph horiz-adv-x="634" d="M154 676v102q82 0 122.5 43t40.5 121v573q0 84 40 124t124 40h92v-41h-92q-70 0 -96.5 -26.5t-26.5 -96.5v-573q0 -96 -51 -145.5t-112 -49.5v-41q61 0 112 -49t51 -145v-574q0 -70 27 -96.5t96 -26.5h92v-41h-92q-84 0 -124 40t-40 124v574q0 78 -40.5 121t-122.5 43z " />
<glyph horiz-adv-x="634" d="M61 -185h93q70 0 96 27t26 96v574q0 96 51.5 145t112.5 49v41q-61 0 -112.5 49.5t-51.5 145.5v573q0 70 -26.5 96.5t-95.5 26.5h-93v41h93q84 0 123.5 -40t39.5 -124v-573q0 -78 41 -121t123 -43v-102q-82 0 -123 -43t-41 -121v-574q0 -84 -39.5 -124t-123.5 -40h-93v41z " />
<glyph horiz-adv-x="1853" d="M143 747q0 238 100.5 421t277.5 285.5t401 102.5q233 0 417.5 -101.5t288 -280.5t103.5 -406q0 -231 -81 -346t-206 -115q-92 0 -141.5 63.5t-53.5 141.5h-10q-39 -78 -129 -141.5t-209 -63.5q-113 0 -201 54t-138 151.5t-50 224.5t50 224t138 151.5t201 54.5t202 -55.5 t136 -149.5h10l11 185h30v-584q0 -111 41 -163t113 -52q109 0 177.5 101.5t68.5 318.5t-98.5 387t-272.5 265t-397 95q-213 0 -381 -96t-262.5 -270.5t-94.5 -401.5q0 -233 97.5 -402t265.5 -257t375 -88h399v-41h-399q-217 0 -394.5 94t-281 272t-103.5 422zM553 737 q0 -176 96 -282.5t252 -106.5t252 106.5t96 282.5t-96 282.5t-252 106.5t-252 -106.5t-96 -282.5z" />
<glyph horiz-adv-x="1105" d="M102 512q0 152 56.5 270.5t154 188t219.5 73.5v205h41v-205q145 -8 253 -101t147 -247h-41q-37 143 -141.5 225.5t-237.5 82.5q-113 0 -206 -61.5t-148.5 -173.5t-55.5 -257t55.5 -257t148.5 -173.5t206 -61.5q133 0 237.5 84t141.5 234h41q-39 -160 -145.5 -255 t-254.5 -103v-205h-41v205q-123 4 -220 73.5t-153.5 188t-56.5 270.5z" />
<glyph horiz-adv-x="1105" d="M82 420h41q0 -109 53 -200t153.5 -145.5t233.5 -54.5q182 0 301 85t119 253q0 264 -317 328l-205 41q-178 35 -263 119t-85 229q0 109 53 194t146.5 133t209.5 52v205h41v-205q139 -4 241.5 -65.5t156 -160t53.5 -214.5h-41q0 109 -51.5 200t-148.5 145t-230 54 q-176 0 -282.5 -92t-106.5 -246q0 -246 307 -307l205 -41q180 -37 269 -132t89 -237q0 -123 -62.5 -209t-167 -127.5t-231.5 -41.5v-205h-41v207q-129 8 -229 67.5t-155.5 155.5t-55.5 215z" />
<glyph horiz-adv-x="1105" d="M-10 532v41h114q-10 76 -10 144t10 143h-114v41h121q35 182 134 307t226 185.5t246 60.5q113 0 191.5 -24.5t176.5 -77.5v-41q-98 53 -177 77.5t-191 24.5q-109 0 -225.5 -56.5t-210 -172t-127.5 -283.5h634v-41h-643q-10 -76 -10 -143q0 -68 10 -144h643v-41h-634 q35 -168 128 -283.5t209.5 -172t225.5 -56.5q113 0 191.5 25t176.5 78v-41q-98 -53 -177 -77.5t-191 -24.5q-119 0 -246 60t-226.5 185t-133.5 307h-121z" />
<glyph horiz-adv-x="1105" d="M113 0v41h10q55 0 84 30.5t29 92.5v502h-123v41h123v327q0 121 47 217.5t128 149.5t183 53q96 0 178 -53t131 -144.5t49 -201.5h-41q0 96 -43 178t-115.5 131t-158.5 49q-90 0 -163 -50t-114 -136t-41 -193v-327h472v-41h-472v-502q0 -47 -10 -74t-41 -49h768v-41h-880z " />
<glyph horiz-adv-x="1105" d="M41 1434h47l440 -799h50l440 799h47l-440 -799h358v-41h-410v-266h410v-41h-410v-287h-41v287h-409v41h409v266h-409v41h358z" />
<glyph horiz-adv-x="471" d="M195 31q0 16 12 28.5t29 12.5q16 0 28 -12.5t12 -28.5t-12 -28.5t-28 -12.5q-17 0 -29 12t-12 29zM215 246v962h41v-962h-41z" />
<glyph horiz-adv-x="471" d="M195 1178q0 16 12 28.5t29 12.5q16 0 28 -12.5t12 -28.5t-12 -28.5t-28 -12.5q-17 0 -29 12t-12 29zM215 0v963h41v-963h-41z" />
<glyph horiz-adv-x="860" d="M72 891q0 92 43 170t121.5 123t183.5 45q100 0 179 -46t124 -123t45 -169q0 -117 -50 -188.5t-157 -133.5q-74 -43 -102.5 -80.5t-28.5 -109.5v-103h-41v103q0 82 30 125t103 86q113 66 159 130t46 171q0 82 -41 149.5t-110.5 107.5t-155.5 40q-131 0 -219 -84t-88 -213 h-41zM369 31q0 16 12 28.5t29 12.5q16 0 28.5 -12.5t12.5 -28.5t-12.5 -28.5t-28.5 -12.5q-17 0 -29 12t-12 29z" />
<glyph horiz-adv-x="860" d="M92 317q0 117 50.5 189t156.5 133q74 43 102.5 81t28.5 109v103h41v-103q0 -82 -29.5 -124.5t-103.5 -86.5q-113 -66 -159 -130t-46 -171q0 -82 41 -149.5t110.5 -107.5t155.5 -40q131 0 219.5 84t88.5 213h40q0 -92 -43 -169.5t-121.5 -122.5t-183.5 -45q-100 0 -179 46 t-124 122.5t-45 168.5zM410 1178q0 16 12 28.5t29 12.5q16 0 28.5 -12.5t12.5 -28.5t-12.5 -28.5t-28.5 -12.5q-17 0 -29 12t-12 29z" />
<glyph horiz-adv-x="1187" d="M41 369l10 41h287l82 389h-287l10 41h287l82 368h41l-82 -368h348l82 368h41l-82 -368h287l-10 -41h-287l-82 -389h287l-11 -41h-286l-82 -369h-41l82 369h-348l-82 -369h-41l82 369h-287zM379 410h348l82 389h-348z" />
<glyph horiz-adv-x="1054" d="M113 266q0 88 43 152.5t127 128.5l102 78l-111 118q-55 61 -82.5 113.5t-27.5 116.5q0 119 83 187.5t204 68.5q125 0 205.5 -73t80.5 -193q0 -72 -35.5 -128.5t-109.5 -111.5l-146 -109l361 -391q115 147 115 350h41q0 -111 -34 -209t-91 -171l176 -193h-51l-154 162 q-53 -70 -153.5 -126t-215.5 -56q-156 0 -241.5 79.5t-85.5 206.5zM154 266q0 -106 73.5 -176t212.5 -70q107 0 199 53.5t139 119.5l-362 399l-97 -70q-86 -61 -125.5 -119.5t-39.5 -136.5zM205 973q0 -63 26.5 -111.5t81.5 -107.5l103 -109l162 117q119 86 118 201 q0 100 -68.5 162.5t-176.5 62.5q-109 0 -177.5 -58.5t-68.5 -156.5z" />
<glyph horiz-adv-x="1054" d="M133 522q0 68 38 128.5t99 101.5q-96 68 -96 200q0 123 95.5 200t242.5 77q119 0 205 -47t130 -127t44 -174h-41q0 131 -88 219t-250 88q-88 0 -155.5 -33t-104.5 -87t-37 -116q0 -84 50 -141t184 -84l176 -35q154 -31 225.5 -96.5t71.5 -165.5q0 -76 -32 -131t-89 -109 q90 -70 90 -198q0 -141 -101.5 -215t-257.5 -74q-178 0 -278 99.5t-100 258.5h41q0 -141 90 -229t247 -88q135 0 226.5 61.5t91.5 186.5q0 92 -61.5 152.5t-182.5 84.5l-176 35q-156 31 -226.5 90.5t-70.5 167.5zM174 522q0 -90 63.5 -140t192.5 -77l178 -35 q106 -23 162 -57q55 47 83 96t28 121q0 174 -258 223l-179 35q-61 12 -88.5 20.5t-52.5 20.5q-59 -41 -94 -93t-35 -114z" />
<glyph horiz-adv-x="911" d="M92 430q0 188 96.5 312t262.5 139v174h41v-174q131 -8 218 -91t119 -206h-41q-33 115 -112.5 185.5t-204.5 70.5q-96 0 -173 -51.5t-121 -144.5t-44 -214t44 -214t121 -144.5t173 -51.5q121 0 203 71t114 196h41q-31 -133 -119.5 -216t-217.5 -91v-175h-41v175 q-166 14 -262.5 138t-96.5 312z" />
<glyph horiz-adv-x="1054" d="M102 348h41q0 -92 48.5 -167t137.5 -118t203 -43q176 0 272.5 75t96.5 212q0 217 -280 271l-170 32q-170 33 -244 104.5t-74 196.5q0 131 94.5 220.5t264.5 97.5v164h40v-164q121 -2 212.5 -53.5t139.5 -134.5t48 -181h-41q0 92 -45 167t-129 118t-195 43 q-160 0 -254 -76t-94 -201q0 -109 65.5 -171t211.5 -89l172 -33q319 -61 319 -311q0 -145 -105.5 -236t-304.5 -91v-175h-40v177q-119 6 -207 56t-135.5 131t-47.5 179z" />
<glyph horiz-adv-x="1208" d="M61 451v41h140q-8 47 -8 112q0 66 8 113h-140v41h146q29 154 114 260t200.5 158.5t236.5 52.5q115 0 196.5 -24.5t151.5 -67.5v-41q-70 43 -152 67.5t-196 24.5q-111 0 -217.5 -49t-184 -145.5t-106.5 -235.5h620v-41h-628q-8 -47 -9 -113q0 -66 9 -112h628v-41h-620 q29 -139 106.5 -235.5t184 -146t217.5 -49.5q115 0 196.5 25t151.5 68v-41q-70 -43 -152 -67.5t-196 -24.5q-121 0 -236.5 52t-200.5 158.5t-114 260.5h-146z" />
<glyph horiz-adv-x="1024" d="M92 0v41h51q41 0 67 26.5t26 75.5v420h-144v41h144v266q0 158 92 258.5t256 100.5q100 0 180 -44t124 -121t44 -173h-41q0 131 -88 214t-219 83q-147 0 -227.5 -90t-80.5 -228v-266h400v-41h-400v-420q0 -39 -9 -63.5t-31 -38.5h716v-41h-860z" />
<glyph horiz-adv-x="983" d="M41 1208h51l379 -665h41l379 665h51l-383 -665h291v-41h-338v-215h338v-41h-338v-246h-41v246h-338v41h338v215h-338v41h291z" />
<glyph horiz-adv-x="1310" d="M82 963q0 115 74.5 190.5t181.5 75.5q106 0 181 -76t75 -190q0 -115 -75 -191t-181 -76q-107 0 -181.5 76t-74.5 191zM123 963q0 -100 63.5 -163t151.5 -63t151.5 62.5t63.5 163.5q0 100 -63.5 162.5t-151.5 62.5t-151.5 -62.5t-63.5 -162.5zM256 0l758 1208h41 l-758 -1208h-41zM717 246q0 115 74.5 190.5t181.5 75.5q106 0 181 -76t75 -190q0 -115 -75 -190.5t-181 -75.5q-107 0 -181.5 75.5t-74.5 190.5zM758 246q0 -100 63.5 -163t151.5 -63t151.5 62.5t63.5 163.5q0 100 -63.5 162.5t-151.5 62.5t-151.5 -62.5t-63.5 -162.5z" />
</font>
</defs>
</svg>
