<?xml version="1.0" standalone="no"?>
<!DOCTYPE svg PUBLIC "-//W3C//DTD SVG 1.1//EN" "http://www.w3.org/Graphics/SVG/1.1/DTD/svg11.dtd" >
<svg xmlns="http://www.w3.org/2000/svg" xmlns:xlink="http://www.w3.org/1999/xlink" version="1.1">
<metadata></metadata>
<defs>
<font id="telefonica_sansbold_outline" horiz-adv-x="0" >
<font-face units-per-em="2048" ascent="1638" descent="-410" />
<missing-glyph horiz-adv-x="552" />
<glyph />
<glyph unicode="&#xd;" />
<glyph unicode=" "  horiz-adv-x="552" />
<glyph unicode="&#x09;" horiz-adv-x="552" />
<glyph unicode="&#xa0;" horiz-adv-x="552" />
<glyph unicode="!" horiz-adv-x="665" d="M508 901l-41 -430h-266l-41 430v533h348v-533zM446 1372h-225v-465l37 -375h152l36 369v471zM460 296q52 -52 52 -126q0 -76 -52 -128t-128 -52q-74 0 -126 52t-52 128q0 74 52 126t126 52q76 0 128 -52zM416 86q35 35 35 84t-35 83t-84 34q-47 0 -82 -35t-35 -82 q0 -49 34 -84t83 -35t84 35z" />
<glyph unicode="&#x22;" horiz-adv-x="946" d="M416 942h-297v492h297v-492zM180 1372v-368h174v368h-174zM830 942h-297v492h297v-492zM594 1372v-368h174v368h-174z" />
<glyph unicode="#" horiz-adv-x="1507" d="M502 0h-307l69 317h-246l66 297h246l47 205h-246l66 297h235l70 318h307l-70 -318h195l70 318h307l-70 -318h246l-66 -297h-245l-48 -205h246l-65 -297h-236l-69 -317h-308l70 317h-195zM340 379l-72 -318h185l69 318h320l-72 -318h184l70 318h236l38 174h-245l73 328 h246l39 174h-246l72 317h-184l-70 -317h-319l71 317h-184l-70 -317h-235l-39 -174h246l-74 -328h-246l-39 -174h246zM870 553h-309l74 328h309zM684 819l-47 -205h184l47 205h-184z" />
<glyph unicode="$" horiz-adv-x="1310" d="M481 -8q-195 37 -307.5 169t-112.5 310h349q0 -76 64.5 -130t180.5 -54q115 0 170.5 37.5t55.5 95.5q0 109 -187 143l-227 41q-182 33 -278.5 137.5t-96.5 272.5q0 166 104.5 278.5t284.5 149.5v217h328v-217q203 -43 306.5 -170t103.5 -309h-349q0 78 -65.5 131 t-169.5 53q-92 0 -143.5 -38t-51.5 -95q0 -49 34 -78t124 -45l223 -41q215 -39 311.5 -142.5t96.5 -287.5q0 -162 -108.5 -276.5t-311.5 -151.5v-217h-328v217zM543 -164h205v209q201 18 310 122.5t109 252.5q0 166 -84 250t-272 118l-225 41q-113 20 -160 66.5t-47 118.5 q0 84 66.5 139t189.5 55q113 0 192.5 -52t96.5 -132h229q-20 154 -124.5 249t-280.5 116v208h-205v-204q-186 -23 -287.5 -126.5t-101.5 -252.5q0 -289 323 -348l228 -41q238 -45 237 -205q0 -86 -72.5 -140.5t-214.5 -54.5q-129 0 -204.5 53.5t-94.5 131.5h-229 q12 -92 66.5 -172t144.5 -133.5t205 -63.5v-205z" />
<glyph unicode="%" horiz-adv-x="1720" d="M239.5 824q-77.5 46 -122.5 124t-45 168t46 168t123.5 124t168.5 46q90 0 167.5 -46t124 -124t46.5 -168t-45.5 -168t-123 -124t-169.5 -46q-93 0 -170.5 46zM573 0h-317l891 1434h317zM546.5 877.5q63.5 37.5 101.5 101t38 137.5t-38 137.5t-101.5 101.5t-136.5 38 q-74 0 -137.5 -38t-101.5 -101.5t-38 -137.5t38 -137.5t101.5 -101t137.5 -37.5q73 0 136.5 37.5zM1180 1372l-813 -1311h174l813 1311h-174zM301 999.5q-45 47.5 -45 116.5q0 70 45 117t109 47q63 0 108 -47t45 -117t-45 -117t-108 -47q-64 0 -109 47.5zM475.5 1042.5 q26.5 28.5 26.5 73.5t-26.5 74t-65.5 29t-66 -29t-27 -74t27 -73.5t66 -28.5t65.5 28.5zM1141 26q-78 46 -123 123.5t-45 167.5t46 168t124 124t168 46t167.5 -46t124 -123.5t46.5 -168.5q0 -90 -45 -167.5t-123 -123.5t-170 -46t-170 46zM1447.5 79q63.5 38 101.5 101.5 t38 136.5q0 74 -38 137.5t-101.5 101.5t-136.5 38q-74 0 -137.5 -38t-101.5 -101.5t-38 -137.5t38 -137t101.5 -101t137.5 -38q73 0 136.5 38zM1202 201q-45 47 -45 116q0 70 45 117t109 47q63 0 108 -47t45 -117t-45 -116.5t-108 -46.5q-64 0 -109 47zM1376.5 243.5 q26.5 28.5 26.5 73.5t-26.5 74t-65.5 29t-65.5 -29t-26.5 -74t26.5 -73.5t65.5 -28.5t65.5 28.5z" />
<glyph unicode="&#x26;" horiz-adv-x="1347" d="M278.5 31q-108.5 51 -165 139t-56.5 199q0 119 45 191.5t129 135.5l82 62l-71 82q-57 66 -85 117t-28 139q0 98 52 180t147.5 130t220.5 48t220 -49t147.5 -133t52.5 -187q0 -111 -43 -179t-111 -118l-96 -69l196 -207q43 82 43 164h297q0 -131 -43 -230.5t-88 -154.5 l283 -291h-387l-102 113q-74 -55 -173.5 -94t-205.5 -39q-152 0 -260.5 51zM726 78q91 37 151 82l49 37l121 -136h215l-222 230q66 68 106 154.5t44 168.5h-174q-25 -127 -88 -204l-303 317l153 111q59 43 94 97t35 150q0 86 -44 156t-125 111t-189 41q-106 0 -188 -40 t-126.5 -108.5t-44.5 -148.5q0 -51 14.5 -90t29 -59.5t53.5 -65.5l114 -133l-129 -97q-76 -57 -114.5 -119.5t-38.5 -162.5q0 -143 109.5 -235.5t310.5 -92.5q96 0 187 37zM449 924q-37 37 -55.5 66.5t-18.5 74.5q0 74 47 119t127 45t127 -45t47 -119q0 -57 -25.5 -92 t-76.5 -66l-99 -57zM590 961q72 39 72 104q0 45 -31 73.5t-82 28.5t-82 -28.5t-31 -73.5q0 -29 14.5 -50.5t41.5 -47.5l38 -39zM371.5 247q-58.5 52 -58.5 132q0 70 30 114t81 74l98 60l299 -324l-49 -37q-35 -25 -99.5 -48t-144.5 -23q-98 0 -156.5 52zM642 271.5 q46 15.5 89 37.5l-219 240l-55 -33q-82 -49 -82 -137q0 -53 40 -88t113 -35q68 0 114 15.5z" />
<glyph unicode="'" horiz-adv-x="532" d="M416 942h-297v492h297v-492zM180 1372v-368h174v368h-174z" />
<glyph unicode="(" horiz-adv-x="792" d="M422 -410q-121 166 -204 416t-83 537t83 536.5t204 415.5h338q-125 -166 -211 -416t-86 -536q0 -287 86 -537t211 -416h-338zM645 -348q-244 406 -244 891t244 891h-192q-43 -57 -102.5 -184.5t-106.5 -312.5t-47 -394t47 -394.5t106.5 -312.5t102.5 -184h192z" />
<glyph unicode=")" horiz-adv-x="792" d="M33 -410q125 166 211 416t86 537t-86 536.5t-211 415.5h338q121 -166 203.5 -416t82.5 -536q0 -287 -82.5 -537t-203.5 -416h-338zM340 -348q43 57 102.5 184t106.5 312.5t47 394.5t-47 394t-106.5 312t-102.5 185h-193q244 -406 244 -891t-244 -891h193z" />
<glyph unicode="*" horiz-adv-x="1017" d="M510 819l-158 -231l-186 153l174 205l-262 68l65 235l265 -98l-21 283h246l-21 -283l265 98l65 -235l-262 -68l174 -205l-186 -153zM254 750l84 -72l172 252l172 -252l84 72l-199 231l299 78l-30 110l-291 -108l22 311h-114l22 -311l-291 108l-30 -110l299 -78z" />
<glyph unicode="+" horiz-adv-x="1130" d="M719 102h-307v338h-318v308h318v337h307v-337h317v-308h-317v-338zM473 502v-338h184v338h318v184h-318v338h-184v-338h-317v-184h317z" />
<glyph unicode="," horiz-adv-x="565" d="M334 -184h-266l51 522h358zM176 276l-41 -399h152l110 399h-221z" />
<glyph unicode="-" horiz-adv-x="890" d="M799 430h-707v307h707v-307zM154 676v-184h583v184h-583z" />
<glyph unicode="." horiz-adv-x="563" d="M154.5 42q-52.5 52 -52.5 128q0 74 52.5 126t126.5 52q76 0 128 -52t52 -126q0 -76 -52.5 -128t-127.5 -52q-74 0 -126.5 52zM364.5 86q34.5 35 34.5 84t-34.5 83t-83.5 34q-47 0 -82 -35t-35 -82q0 -49 33.5 -84t83.5 -35q49 0 83.5 35z" />
<glyph unicode="/" horiz-adv-x="872" d="M319 -410h-327l563 1905h328zM602 1434l-528 -1782h198l529 1782h-199z" />
<glyph unicode="0" horiz-adv-x="1382" d="M381 67q-139 87 -219 253.5t-80 396.5q0 229 80 396t219 254t311 87t310.5 -87t218 -254t79.5 -396t-79.5 -396t-218 -254t-310.5 -87t-311 87zM972 120q124 79 195.5 232.5t71.5 364.5t-71.5 364.5t-195.5 232.5t-280 79t-280.5 -79t-196.5 -231.5t-72 -365.5t72 -365.5 t197 -231.5t280 -79q156 0 280 79zM531.5 307q-72.5 51 -116.5 155.5t-44 254.5t44 254t116.5 155.5t160.5 51.5q86 0 159 -52.5t117 -156t44 -252.5q0 -150 -44 -253.5t-117 -155.5t-159 -52q-88 0 -160.5 51zM819.5 361.5q59.5 44.5 95 134.5t35.5 221t-35.5 221t-95 134 t-127.5 44q-70 0 -129 -44t-95 -134t-36 -221t36 -221t95.5 -134.5t128.5 -44.5q68 0 127.5 44.5z" />
<glyph unicode="1" horiz-adv-x="817" d="M326 0v952h-265v328h183q45 0 63.5 16.5t18.5 55.5v82h348v-1434h-348zM387 61h225v1311h-225v-20q0 -70 -34 -101.5t-109 -31.5h-121v-205h264v-953z" />
<glyph unicode="2" horiz-adv-x="1189" d="M102 0v324l570 510q35 31 50 62.5t15 76.5q0 55 -43 94t-110 39q-70 0 -112 -44t-42 -120h-348q0 152 63.5 268.5t180 180t268.5 63.5t265.5 -62.5t175 -172t61.5 -246.5q0 -92 -31 -163t-81 -127t-134 -130l-236 -205v-10h494v-338h-1006zM164 61h883v215h-494v101 l256 223q84 74 128 121t70.5 108.5t26.5 143.5q0 123 -54 218t-154.5 148.5t-231.5 53.5q-193 0 -309.5 -106.5t-139.5 -282.5h230q10 70 68.5 116.5t140.5 46.5q94 0 154.5 -56t60.5 -138q0 -63 -22.5 -105.5t-63.5 -79.5l-549 -491v-236z" />
<glyph unicode="3" horiz-adv-x="1202" d="M313.5 41q-120.5 61 -186.5 168.5t-66 241.5h349q4 -63 51 -103.5t127 -40.5t127 39t47 100q0 68 -46 108t-128 40h-103v287h103q66 0 109.5 35.5t43.5 93.5q0 53 -41 84.5t-112 31.5q-76 0 -116 -32.5t-44 -89.5h-346q0 123 64.5 226t181 163.5t266.5 60.5 q143 0 257 -57.5t176.5 -152.5t62.5 -208q0 -115 -55.5 -191.5t-133.5 -107.5v-10q88 -31 148.5 -111.5t60.5 -205.5q0 -119 -63.5 -217.5t-181 -155.5t-271.5 -57q-160 0 -280.5 61zM834.5 90q103.5 49 159 134t55.5 186q0 115 -60.5 184.5t-148.5 91.5v92q78 23 133 87.5 t55 170.5q0 94 -54 176t-153.5 131.5t-226.5 49.5q-121 0 -217 -43t-154.5 -118t-72.5 -167h229q16 55 70.5 89t138.5 34q98 0 156.5 -49t58.5 -129q0 -84 -61.5 -137.5t-153.5 -53.5h-41v-164h41q111 0 173 -58t62 -151q0 -90 -64.5 -145t-170.5 -55q-88 0 -150.5 40 t-79.5 103h-231q14 -98 74.5 -177t162 -125t230.5 -46q137 0 240.5 49z" />
<glyph unicode="4" horiz-adv-x="1200" d="M1014 0h-348v266h-635v307l471 861h512v-850h145v-318h-145v-266zM727 328v-267h225v267h146v194h-146v850h-415l-445 -813v-231h635zM727 522h-387v86l260 477h127v-563zM401 594v-10h265v440h-31z" />
<glyph unicode="5" horiz-adv-x="1218" d="M244 108q-129 128 -152 312h348q16 -47 61.5 -80t114.5 -33q78 0 127.5 47t49.5 117t-47.5 117t-124.5 47q-51 0 -89 -14.5t-71 -47.5h-348l82 861h870v-318h-576l-18 -194h8q25 12 73 21t105 9q141 0 253 -61.5t174.5 -171t62.5 -248.5q0 -143 -65.5 -255t-186.5 -174 t-281 -62q-241 0 -370 128zM863.5 95.5q107.5 54.5 164.5 152.5t57 223q0 121 -55 217t-152.5 149.5t-220.5 53.5q-55 0 -105 -10.5t-71 -20.5h-78l29 318h572v194h-752l-72 -737h256q74 61 185 61q102 0 167.5 -64.5t65.5 -160.5q0 -94 -67.5 -159.5t-170.5 -65.5 q-86 0 -139 36.5t-76 75.5h-235q33 -117 136.5 -217t311.5 -100q142 0 249.5 54.5z" />
<glyph unicode="6" horiz-adv-x="1206" d="M333 47.5q-122 67.5 -191.5 182t-69.5 251.5q0 109 25.5 182.5t66.5 135.5l409 635h390l-308 -461q135 -4 245 -70.5t172.5 -177.5t62.5 -244q0 -137 -69 -251.5t-190.5 -182t-271.5 -67.5q-149 0 -271 67.5zM844.5 100.5q107.5 59.5 168 159.5t60.5 221 q0 125 -57.5 222.5t-166 152.5t-255.5 55h-53l307 461h-242l-368 -573q-55 -86 -80 -149.5t-25 -168.5q0 -121 61.5 -221t169 -159.5t240.5 -59.5t240.5 59.5zM428 313.5q-70 67.5 -70 167.5t70 168t176 68t175 -67.5t69 -168.5q0 -100 -68.5 -167.5t-175.5 -67.5 q-106 0 -176 67.5zM736 356.5q50 49.5 50 124.5q0 76 -50 125t-132 49t-133 -49t-51 -125t51 -125t133 -49t132 49.5z" />
<glyph unicode="7" horiz-adv-x="1107" d="M565 0h-389l473 1096h-588v338h986v-310zM743 1157l-473 -1096h254l461 1078v233h-862v-215h620z" />
<glyph unicode="8" horiz-adv-x="1218" d="M330 37q-119 57 -183.5 155.5t-64.5 217.5q0 121 60.5 203.5t148.5 119.5v10q-78 37 -131.5 114t-53.5 187q0 109 62.5 203t176.5 150.5t263 56.5q150 0 264.5 -56.5t177 -150.5t62.5 -203q0 -111 -53 -187.5t-131 -113.5v-10q88 -37 148.5 -120t60.5 -203 q0 -119 -64.5 -217.5t-184.5 -155.5t-280 -57q-159 0 -278 57zM857.5 90q105.5 49 161.5 133t56 187q0 111 -60.5 182.5t-148.5 99.5v88q78 29 131.5 96.5t53.5 167.5q0 92 -54.5 172t-155 128.5t-233.5 48.5t-232.5 -48.5t-153.5 -128t-54 -172.5q0 -100 53 -167.5 t131 -96.5v-88q-88 -29 -148.5 -100.5t-60.5 -181.5q0 -102 56.5 -186.5t162 -133.5t246.5 -49q144 0 249.5 49zM453.5 892q-60.5 52 -60.5 132t60.5 132t156.5 52t155.5 -52t59.5 -132t-59 -132t-156 -52q-96 0 -156.5 52zM722 936q42 35 42 88t-42 88t-112 35 q-72 0 -113.5 -35t-41.5 -88t42 -88t113 -35q70 0 112 35zM438.5 285.5q-69.5 60.5 -69.5 152.5t69.5 151.5t171.5 59.5q100 0 170 -59.5t70 -151.5t-69.5 -152.5t-170.5 -60.5q-102 0 -171.5 60.5zM737 329q51 42 51 109q0 66 -51 108t-127 42q-78 0 -129 -42t-51 -108 q0 -68 51 -109.5t129 -41.5q76 0 127 42z" />
<glyph unicode="9" horiz-adv-x="1206" d="M551 461q-135 4 -244.5 70.5t-172 177t-62.5 243.5q0 137 68.5 252t190.5 182.5t271 67.5q150 0 271.5 -67.5t191.5 -182t70 -252.5q0 -109 -26 -182.5t-67 -134.5l-409 -635h-389zM358 61h242l369 574q55 86 79.5 149.5t24.5 167.5q0 121 -61.5 221.5t-169 160 t-240.5 59.5t-240.5 -59.5t-168 -160t-60.5 -221.5q0 -125 57.5 -222t166 -152.5t255.5 -55.5h54zM427 784.5q-69 67.5 -69 167.5t69 168t175 68t176 -67.5t70 -168.5q0 -100 -69.5 -167.5t-176.5 -67.5q-106 0 -175 67.5zM735 827.5q51 49.5 51 124.5q0 76 -51 125t-133 49 t-132 -49t-50 -125t50 -125t132 -49t133 49.5z" />
<glyph unicode=":" horiz-adv-x="563" d="M154.5 763q-52.5 52 -52.5 128q0 74 52.5 126t126.5 52q76 0 128 -52t52 -126q0 -76 -52.5 -128t-127.5 -52q-74 0 -126.5 52zM364.5 807q34.5 35 34.5 84t-34.5 83t-83.5 34q-47 0 -82 -35t-35 -82q0 -49 33.5 -84t83.5 -35q49 0 83.5 35zM154.5 42q-52.5 52 -52.5 128 q0 74 52.5 126t126.5 52q76 0 128 -52t52 -126q0 -76 -52.5 -128t-127.5 -52q-74 0 -126.5 52zM364.5 86q34.5 35 34.5 84t-34.5 83t-83.5 34q-47 0 -82 -35t-35 -82q0 -49 33.5 -84t83.5 -35q49 0 83.5 35z" />
<glyph unicode=";" horiz-adv-x="563" d="M175 763q-52 52 -52 128q0 74 52 126t126 52q76 0 128 -52t52 -126q0 -76 -52 -128t-128 -52q-74 0 -126 52zM385 807q35 35 35 84t-35 83t-84 34q-47 0 -82 -35t-35 -82q0 -49 34 -84t83 -35t84 35zM338 -184h-266l51 522h358zM180 276l-41 -399h152l110 399h-221z" />
<glyph unicode="&#x3c;" horiz-adv-x="1130" d="M1026 412v-330l-922 358v328l922 358v-329l-549 -193zM166 483l799 -311v197l-549 192v86l549 193v196l-799 -311v-242z" />
<glyph unicode="=" horiz-adv-x="1134" d="M999 666h-864v286h864v-286zM197 891v-164h741v164h-741zM999 236h-864v286h864v-286zM197 461v-164h741v164h-741z" />
<glyph unicode="&#x3e;" horiz-adv-x="1130" d="M1026 440l-922 -358v330l549 192l-549 193v329l922 -358v-328zM166 369v-197l799 311v242l-799 311v-196l549 -193v-86z" />
<glyph unicode="?" horiz-adv-x="1101" d="M365 532q0 137 53 213t166 129q57 29 77.5 62t20.5 88q0 47 -38 80t-105 33q-68 0 -106 -34t-38 -89h-348q0 123 61.5 223t176 158.5t264.5 58.5t261.5 -54t170.5 -145.5t59 -199.5q0 -231 -215 -338q-78 -39 -105.5 -77t-27.5 -108v-61h-327v61zM631 532q0 90 39 143.5 t129 96.5q180 86 180 283q0 92 -51 168.5t-149.5 123t-229.5 46.5q-180 0 -298 -88t-138 -230h231q16 51 66.5 87t128.5 36q94 0 149 -50t55 -124t-29.5 -123t-103.5 -82q-92 -41 -138 -105.5t-46 -181.5h205zM400.5 42q-52.5 52 -52.5 128q0 74 52.5 126t125.5 52 q76 0 128.5 -52t52.5 -126q0 -76 -52.5 -128t-128.5 -52q-73 0 -125.5 52zM610 86q35 35 35 84t-35 83t-84 34q-47 0 -81.5 -35t-34.5 -82q0 -49 33.5 -84t82.5 -35t84 35z" />
<glyph unicode="@" horiz-adv-x="1955" d="M973 -236q-256 0 -455 106.5t-307.5 295t-108.5 426.5q0 233 114 425.5t314.5 304.5t452.5 112q266 0 468 -104.5t312.5 -287t110.5 -407.5t-110.5 -348t-299.5 -123q-90 0 -153.5 32.5t-91.5 79.5h-11q-43 -47 -114.5 -79.5t-161.5 -32.5q-113 0 -204 54t-143.5 149.5 t-52.5 216.5t52.5 216t143.5 149.5t204 54.5q70 0 126 -24t89 -58h10l21 71h194v-481q0 -39 27.5 -60.5t75.5 -21.5q123 0 122 205q0 154 -72.5 274.5t-211.5 189t-330 68.5q-176 0 -313.5 -74.5t-214 -205.5t-76.5 -295q0 -168 71.5 -295t206 -196.5t316.5 -69.5h420v-267 h-420zM1331 -174v143h-358q-199 0 -347.5 79t-228.5 219.5t-80 324.5q0 180 85 325.5t237 228.5t344 83q207 0 359.5 -77t234.5 -212t82 -305q0 -266 -184 -266q-72 0 -118 40t-46 103v420h-86l-21 -72h-78q-29 35 -79 58.5t-115 23.5q-94 0 -172 -46t-122 -127t-44 -185 t44 -185.5t122 -127.5t172 -46q86 0 149.5 33t98.5 80h69q25 -47 80 -80t135 -33q160 0 254 105.5t94 304.5q0 209 -102 377t-290.5 264t-436.5 96q-233 0 -420.5 -103.5t-293 -281.5t-105.5 -395q0 -221 101.5 -395t284.5 -272.5t423 -98.5h358zM807 419.5 q-59 61.5 -59 164.5q0 102 59 163.5t156 61.5q96 0 155.5 -61.5t59.5 -163.5t-59.5 -164t-155.5 -62q-97 0 -156 61.5zM1074 464q42 44 42 120t-42 120t-111 44q-70 0 -112 -44.5t-42 -119.5q0 -76 42 -120t112 -44q69 0 111 44z" />
<glyph unicode="A" horiz-adv-x="1433" d="M369 0h-379l491 1434h471l492 -1434h-379l-88 276h-520zM524 1372l-448 -1311h248l88 277h610l88 -277h248l-449 1311h-385zM963 522h-492l195 604h102zM711 1065l-156 -481h324l-156 481h-12z" />
<glyph unicode="B" horiz-adv-x="1372" d="M143 0v1434h697q127 0 222 -50.5t146.5 -141.5t51.5 -208q0 -102 -45.5 -182t-108.5 -125v-10q74 -47 124 -129t50 -189q0 -117 -51 -208t-146.5 -141t-222.5 -50h-717zM860 61q166 0 262.5 92.5t96.5 245.5q0 96 -50.5 170t-124.5 117v72q63 39 108.5 109.5t45.5 166.5 q0 154 -96 246t-262 92h-635v-1311h655zM430 813v369h358q80 0 132.5 -52.5t52.5 -132.5t-52.5 -132t-132.5 -52h-358zM788 874q53 0 88 35t35 88t-34.5 88t-88.5 35h-296v-246h296zM430 252v369h379q80 0 132 -52.5t52 -132.5t-52 -132t-132 -52h-379zM809 313q53 0 88 35 t35 88t-35 88t-88 35h-317v-246h317z" />
<glyph unicode="C" horiz-adv-x="1495" d="M426 75q-160 95 -252 263t-92 379t92 379t252 263t352 95q184 0 320.5 -78t218.5 -203.5t117 -271.5h-349q-23 76 -97.5 145.5t-209.5 69.5q-98 0 -177 -49t-125 -139t-46 -211t46 -211t125 -139.5t177 -49.5q141 0 213 72t94 154h349q-33 -150 -113 -277t-217 -206.5 t-326 -79.5q-192 0 -352 95zM1175.5 185.5q133.5 144.5 178.5 295.5h-228q-33 -86 -115.5 -155.5t-232.5 -69.5q-115 0 -208 57.5t-147 162t-54 241.5t54 241.5t147.5 162t207.5 57.5q147 0 230.5 -68t117.5 -147h226q-47 156 -183.5 293t-390.5 137q-176 0 -321.5 -87 t-229.5 -241t-84 -348q0 -195 84 -348.5t229.5 -240.5t321.5 -87q264 0 397.5 144.5z" />
<glyph unicode="D" horiz-adv-x="1454" d="M143 0v1434h533q193 0 352.5 -94.5t251.5 -258t92 -364.5t-92 -365t-252 -258t-352 -94h-533zM676 61q176 0 321.5 86t229.5 235.5t84 334.5q0 184 -84 333.5t-229.5 235.5t-321.5 86h-471v-1311h471zM430 276v881h246q113 0 207 -56.5t148 -156.5t54 -227t-54 -227.5 t-148.5 -157t-206.5 -56.5h-246zM676 338q96 0 176 48t126 135t46 196t-46 195.5t-126 135t-176 48.5h-184v-758h184z" />
<glyph unicode="E" horiz-adv-x="1228" d="M1126 0h-983v1434h983v-318h-634v-246h593v-307h-593v-246h634v-317zM205 1372v-1311h860v195h-635v369h594v184h-594v369h635v194h-860z" />
<glyph unicode="F" horiz-adv-x="1198" d="M492 0h-349v1434h973v-318h-624v-256h573v-307h-573v-553zM205 1372v-1311h225v553h574v185h-574v379h625v194h-850z" />
<glyph unicode="G" horiz-adv-x="1556" d="M426 75q-160 95 -252 263t-92 379t92 379t252 263t352 95q262 0 427 -148.5t229 -363.5h-359q-104 174 -297 174q-98 0 -177 -49t-125 -139t-46 -211t46 -211t125 -139.5t177 -49.5q145 0 217 66t95 129h-291v246h645v-758h-266l-19 133q-45 -51 -143 -102t-238 -51 q-192 0 -352 95zM949.5 68.5q72.5 27.5 112.5 59.5t85 77h65l21 -144h149v635h-522v-123h309q-10 -57 -46 -128.5t-120.5 -130t-224.5 -58.5q-115 0 -208 57.5t-147 162t-54 241.5t54 241.5t147.5 162t207.5 57.5q92 0 162 -32t111 -73t55 -69h242q-59 143 -191.5 266 t-378.5 123q-176 0 -321.5 -87t-229.5 -241t-84 -348q0 -195 84 -348.5t229.5 -240.5t321.5 -87q99 0 171.5 27.5z" />
<glyph unicode="H" horiz-adv-x="1495" d="M492 0h-349v1434h349v-533h512v533h348v-1434h-348v543h-512v-543zM205 1372v-1311h225v543h635v-543h225v1311h-225v-532h-635v532h-225z" />
<glyph unicode="I" horiz-adv-x="614" d="M481 0h-348v1434h348v-1434zM195 1372v-1311h225v1311h-225z" />
<glyph unicode="J" horiz-adv-x="880" d="M20 0v338h308q72 0 71 72v1024h349v-1117q0 -154 -82 -235.5t-236 -81.5h-410zM430 61q256 0 256 256v1055h-225v-962q0 -63 -35 -98.5t-98 -35.5h-246v-215h348z" />
<glyph unicode="K" horiz-adv-x="1290" d="M492 0h-349v1434h349v-555l378 555h420l-491 -707l532 -727h-420l-419 588v-588zM205 1372v-1311h225v588h92l420 -588h268l-487 666l448 645h-266l-379 -555h-96v555h-225z" />
<glyph unicode="L" horiz-adv-x="1146" d="M1116 0h-973v1434h349v-1096h624v-338zM205 1372v-1311h850v215h-625v1096h-225z" />
<glyph unicode="M" horiz-adv-x="1904" d="M492 0h-349v1434h512l281 -871h33l270 871h522v-1434h-348v860h-16l-281 -860h-328l-280 860h-16v-860zM205 1372v-1311h225v861h123l283 -861h233l283 861h123v-861h225v1311h-414l-272 -870h-123l-283 870h-403z" />
<glyph unicode="N" horiz-adv-x="1505" d="M492 0h-349v1434h410l440 -840h21v840h348v-1434h-410l-440 840h-20v-840zM205 1372v-1311h225v840h121l440 -840h309v1311h-225v-840h-121l-440 840h-309z" />
<glyph unicode="O" horiz-adv-x="1556" d="M426 75q-160 95 -252 263t-92 379t92 379t252 263t352 95q193 0 352.5 -95t252 -263t92.5 -379t-92.5 -379t-252 -263t-352.5 -95q-192 0 -352 95zM1099.5 128q145.5 87 229.5 240.5t84 348.5t-84 348.5t-229.5 240.5t-321.5 87t-321.5 -87t-229.5 -241t-84 -348 q0 -195 84 -348.5t229.5 -240.5t321.5 -87t321.5 87zM570.5 313.5q-93.5 57.5 -147.5 162t-54 241.5t54 241.5t147.5 162t207.5 57.5q115 0 208 -57.5t147.5 -162t54.5 -241.5t-54.5 -241.5t-147.5 -162t-208 -57.5q-114 0 -207.5 57.5zM955.5 366.5q78.5 49.5 124.5 139.5 t46 211t-46 211t-124.5 139t-177.5 49q-98 0 -177 -49t-125 -139t-46 -211t46 -211t125 -139.5t177 -49.5q99 0 177.5 49.5z" />
<glyph unicode="P" horiz-adv-x="1351" d="M143 0v1434h666q137 0 244.5 -61.5t167 -175.5t59.5 -265q0 -152 -59.5 -265.5t-167 -175t-244.5 -61.5h-317v-430h-349zM205 61h225v431h379q121 0 214 53t144.5 153.5t51.5 233.5t-51.5 233.5t-144.5 153.5t-214 53h-604v-1311zM430 707v450h358q88 0 146.5 -62.5 t58.5 -162.5t-58 -162.5t-147 -62.5h-358zM788 768q61 0 102.5 45t41.5 119t-41 119t-103 45h-296v-328h296z" />
<glyph unicode="Q" horiz-adv-x="1556" d="M1004 20q-94 -41 -226 -40q-193 0 -352.5 95t-251.5 263t-92 379t92 379t252 263t352 95q193 0 352.5 -95t252 -263t92.5 -379q0 -168 -59.5 -310.5t-166.5 -242.5l256 -297h-381zM1157 -72h215l-209 244q117 92 183.5 232.5t66.5 312.5q0 195 -84 348.5t-229.5 240.5 t-321.5 87t-321.5 -87t-229.5 -241t-84 -348q0 -195 84 -348.5t229.5 -240.5t321.5 -87q129 0 248 53zM570.5 313.5q-93.5 57.5 -147.5 162t-54 241.5t54 241.5t147.5 162t207.5 57.5q115 0 208 -57.5t147.5 -162t54.5 -241.5q0 -121 -42 -216t-116 -157l-59 66h-215 l118 -142q-45 -12 -96 -12q-114 0 -207.5 57.5zM625 471h379l30 -37q92 113 92 283q0 121 -46 211t-124.5 139t-177.5 49q-98 0 -177 -49t-125 -139t-46 -211q0 -172 90 -279.5t232 -120.5z" />
<glyph unicode="R" horiz-adv-x="1392" d="M143 0v1434h676q137 0 244.5 -61.5t167 -173.5t59.5 -257q0 -217 -115.5 -329.5t-283.5 -131.5l440 -481h-430l-409 461v-461h-349zM205 61h225v461h90l410 -461h262l-424 463v17h51q197 0 303.5 107.5t106.5 293.5q0 129 -52.5 226.5t-144.5 150.5t-213 53h-614v-1311z M430 717v450h369q88 0 146.5 -62.5t58.5 -162.5t-58.5 -162.5t-146.5 -62.5h-369zM799 778q61 0 102 45t41 119t-41 119t-102 45h-307v-328h307z" />
<glyph unicode="S" horiz-adv-x="1310" d="M337 44.5q-134 64.5 -205 176t-71 250.5h349q0 -76 64.5 -130t180.5 -54q115 0 170.5 37.5t55.5 95.5q0 109 -187 143l-227 41q-182 33 -278.5 137.5t-96.5 272.5q0 125 64.5 224t186.5 157.5t292 58.5q184 0 316 -62.5t200 -173t68 -255.5h-349q0 78 -65.5 131 t-169.5 53q-92 0 -143.5 -38t-51.5 -95q0 -49 34 -78t124 -45l223 -41q215 -39 311.5 -142.5t96.5 -287.5q0 -125 -65.5 -225.5t-194.5 -157.5t-314 -57q-184 0 -318 64.5zM937 91q116 50 173 135t57 194q0 166 -84 250t-272 118l-225 41q-113 20 -160 66.5t-47 118.5 q0 84 66.5 139t189.5 55q113 0 192.5 -52t96.5 -132h229q-20 172 -155.5 270.5t-362.5 98.5q-152 0 -260.5 -50.5t-164.5 -136.5t-56 -192q0 -289 323 -348l228 -41q238 -45 237 -205q0 -86 -72.5 -140.5t-214.5 -54.5q-129 0 -204.5 53.5t-94.5 131.5h-229 q14 -104 79.5 -188.5t180.5 -132.5t268 -48q166 0 282 50z" />
<glyph unicode="T" horiz-adv-x="1208" d="M778 0h-348v1096h-389v338h1126v-338h-389v-1096zM492 1157v-1096h225v1096h389v215h-1004v-215h390z" />
<glyph unicode="U" horiz-adv-x="1474" d="M418 54.5q-137 74.5 -211 213t-74 326.5v840h348v-840q0 -121 74 -199t182 -78q109 0 182.5 78t73.5 199v840h348v-840q0 -188 -73.5 -326.5t-210.5 -213t-320 -74.5q-182 0 -319 74.5zM1134.5 188.5q145.5 147.5 145.5 405.5v778h-225v-778q0 -98 -42 -175t-115 -120 t-161 -43t-160.5 43t-114.5 120t-42 175v778h-225v-778q0 -258 145 -405.5t397 -147.5t397.5 147.5z" />
<glyph unicode="V" horiz-adv-x="1413" d="M942 0h-471l-471 1434h379l321 -1004h13l321 1004h379zM84 1372l432 -1311h381l432 1311h-250l-321 -1003h-103l-321 1003h-250z" />
<glyph unicode="W" horiz-adv-x="2027" d="M788 0h-430l-348 1434h379l201 -850h20l219 850h369l219 -850h21l200 850h379l-348 -1434h-430l-211 840h-31zM88 1372l320 -1311h331l211 840h125l211 -840h334l322 1311h-254l-201 -850h-117l-219 850h-274l-220 -850h-116l-201 850h-252z" />
<glyph unicode="X" horiz-adv-x="1331" d="M379 0h-410l482 737l-451 697h410l249 -420h13l250 420h409l-450 -697l481 -737h-410l-280 451h-13zM522 737l-440 -676h260l283 451h84l280 -451h260l-440 676l410 635h-261l-251 -420h-82l-252 420h-260z" />
<glyph unicode="Y" horiz-adv-x="1310" d="M829 0h-348v481l-512 953h389l287 -553h21l286 553h389l-512 -953v-481zM543 496v-435h225v435l471 876h-248l-286 -553h-99l-287 553h-247z" />
<glyph unicode="Z" horiz-adv-x="1269" d="M1188 0h-1106v309l629 787h-619v338h1086v-310l-629 -786h639v-338zM143 289v-228h983v215h-696v11l686 858v227h-962v-215h675v-10z" />
<glyph unicode="[" horiz-adv-x="788" d="M723 -410h-553v1905h553v-307h-225v-1290h225v-308zM231 1434v-1782h431v184h-226v1413h226v185h-431z" />
<glyph unicode="\" horiz-adv-x="872" d="M881 -410h-328l-563 1905h327zM72 1434l526 -1782h201l-529 1782h-198z" />
<glyph unicode="]" horiz-adv-x="788" d="M618 -410h-552v308h225v1290h-225v307h552v-1905zM127 -164v-184h430v1782h-430v-185h225v-1413h-225z" />
<glyph unicode="^" horiz-adv-x="942" d="M352 840h-284l215 594h376l215 -594h-284l-115 327h-8zM324 1372l-168 -471h153l115 328h94l115 -328h153l-168 471h-294z" />
<glyph unicode="_" horiz-adv-x="819" d="M860 -502h-901v307h901v-307zM20 -256v-184h779v184h-779z" />
<glyph unicode="`" horiz-adv-x="649" d="M588 1184h-277l-250 301h328zM186 1427l152 -186h143l-123 186h-172z" />
<glyph unicode="a" horiz-adv-x="1153" d="M251 23q-89 43 -135 117.5t-46 166.5q0 152 110.5 245t319.5 93h215v21q0 61 -38 97t-106 36q-61 0 -90.5 -19.5t-52.5 -52.5h-317q16 147 136 242.5t324 95.5q225 0 348 -108.5t123 -288.5v-668h-266l-20 92h-11q-43 -47 -116.5 -79.5t-169.5 -32.5q-119 0 -208 43z M616.5 73.5q67.5 32.5 102.5 80.5h86l20 -93h156v607q0 154 -105.5 245t-304.5 91q-162 0 -258 -63.5t-129 -156.5h207q31 37 73 56.5t107 19.5q94 0 149.5 -53t55.5 -141v-80h-276q-182 0 -275.5 -77t-93.5 -202q0 -115 88 -190.5t240 -75.5q90 0 157.5 32.5zM385 218 q-49 44 -49 110q0 68 53 109.5t152 41.5h235v-59q0 -111 -69.5 -178.5t-186.5 -67.5q-86 0 -135 44zM662.5 286q52.5 50 52.5 134h-174q-70 0 -107 -25.5t-37 -66.5t33 -66.5t90 -25.5q90 0 142.5 50z" />
<glyph unicode="b" horiz-adv-x="1286" d="M542.5 15.5q-73.5 35.5 -112.5 86.5h-10l-21 -102h-266v1434h328v-461q33 33 96.5 62.5t159.5 29.5q137 0 251.5 -69.5t182.5 -193.5t68 -280t-68 -279.5t-182.5 -193t-251.5 -69.5q-101 0 -174.5 35.5zM938 102.5q100 61.5 159.5 172t59.5 247.5t-59.5 248t-159.5 172.5 t-221 61.5q-84 0 -144.5 -28t-93.5 -65h-80v461h-204v-1311h153l21 103h82q102 -123 266 -123q121 0 221 61.5zM478 308q-79 83 -79 214t79 214t198 83t197.5 -83t78.5 -214t-78.5 -214t-197.5 -83t-198 83zM829.5 352.5q61.5 65.5 61.5 169.5t-61.5 170t-153.5 66 t-153.5 -65.5t-61.5 -170.5q0 -104 61.5 -169.5t153.5 -65.5t153.5 65.5z" />
<glyph unicode="c" horiz-adv-x="1200" d="M334 49.5q-123 69.5 -192.5 192.5t-69.5 280q0 158 69.5 281t192.5 192.5t280 69.5q225 0 356.5 -125t166.5 -305h-338q-20 49 -64.5 86t-120.5 37q-94 0 -154.5 -64.5t-60.5 -171.5q0 -106 60.5 -170.5t154.5 -64.5q76 0 120 36.5t65 86.5h338q-35 -180 -166 -305 t-357 -125q-157 0 -280 69.5zM914.5 136q95.5 95 144.5 216h-219q-29 -51 -85.5 -89t-140.5 -38q-76 0 -139 38t-100 105.5t-37 153.5t37 153.5t100.5 105.5t138.5 38q84 0 140.5 -38t85.5 -89h219q-43 117 -143.5 214.5t-301.5 97.5q-141 0 -250.5 -62.5t-170 -172.5 t-60.5 -247t60.5 -246.5t170 -172t250.5 -62.5q205 0 300.5 95z" />
<glyph unicode="d" horiz-adv-x="1288" d="M319.5 49.5q-114.5 69.5 -182 193.5t-67.5 279q0 156 67.5 280t182 193.5t251.5 69.5q96 0 160 -29.5t96 -62.5v461h328v-1434h-266l-21 102h-10q-39 -51 -112.5 -86.5t-174.5 -35.5q-137 0 -251.5 69.5zM838 164h82l20 -103h154v1311h-205v-461h-80q-33 37 -93.5 65 t-144.5 28q-121 0 -221 -61.5t-159.5 -172.5t-59.5 -248t59.5 -247.5t160 -172t220.5 -61.5q165 0 267 123zM415 308q-79 83 -79 214t79 214t197 83q119 0 198 -83t79 -214t-79 -214t-198 -83q-118 0 -197 83zM766 352.5q61 65.5 61 169.5t-61 170t-154 66 q-92 0 -153.5 -65.5t-61.5 -170.5q0 -104 61.5 -169.5t153.5 -65.5q93 0 154 65.5z" />
<glyph unicode="e" horiz-adv-x="1222" d="M334 49.5q-123 69.5 -192.5 192.5t-69.5 280q0 158 69.5 281t192.5 192.5t280 69.5q152 0 275 -68.5t192.5 -187.5t69.5 -266q0 -68 -10 -103h-742q8 -86 66.5 -140t148.5 -54q102 0 174 71h332q-57 -141 -186 -239t-320 -98q-157 0 -280 69.5zM880.5 115.5 q102.5 74.5 143.5 144.5h-205q-90 -76 -205 -76q-131 0 -206.5 84t-75.5 230h758v45q0 129 -61.5 234.5t-170 166t-244.5 60.5q-139 0 -248.5 -61.5t-171 -171t-61.5 -249.5q0 -139 61.5 -248.5t171 -171t248.5 -61.5q164 0 266.5 74.5zM330 588q18 135 96 208.5t188 73.5 q111 0 189 -73.5t96 -208.5h-569zM819 645q-27 82 -76 123t-129 41t-130 -41t-76 -123h411z" />
<glyph unicode="f" horiz-adv-x="811" d="M211 0v737h-154v307h154v144q0 139 78 213t229 74h236v-277h-154q-33 0 -47 -11t-14 -40v-103h215v-307h-215v-737h-328zM272 61h205v738h215v184h-215v164q0 59 30 86t93 27h92v153h-174q-123 0 -184.5 -55t-61.5 -170v-205h-153v-184h153v-738z" />
<glyph unicode="g" horiz-adv-x="1249" d="M242 -309.5q-127 110.5 -150 268.5h338q16 -39 60.5 -65.5t113.5 -26.5q92 0 143.5 45t51.5 129v113q-33 -33 -96.5 -63t-149.5 -30q-137 0 -246.5 63.5t-172 178.5t-62.5 260t62.5 260t172 178.5t246.5 63.5q96 0 167 -36t109 -87h9l22 102h266v-1003q0 -217 -135 -339 t-387 -122q-235 0 -362 110.5zM947 -254q118 104 118 295v942h-154l-22 -102h-92q-23 49 -89.5 86t-154.5 37q-121 0 -216 -55.5t-149.5 -156t-54.5 -229.5t54.5 -229.5t149.5 -155.5t216 -55q78 0 137.5 27.5t89.5 64.5h80v-174q0 -109 -69.5 -172.5t-186.5 -63.5 q-78 0 -133 29t-78 68h-225q29 -94 131 -177t305 -83q225 0 343 104zM413.5 381q-75.5 74 -75.5 182q0 109 75.5 182.5t184.5 73.5t182.5 -73.5t73.5 -182.5t-73.5 -182.5t-182.5 -73.5t-184.5 74zM737.5 425q55.5 56 55.5 138q0 84 -55.5 139.5t-139.5 55.5t-141.5 -56.5 t-57.5 -138.5t57.5 -138t141.5 -56t139.5 56z" />
<glyph unicode="h" horiz-adv-x="1245" d="M133 0v1434h328v-461q33 33 96.5 62.5t159.5 29.5q121 0 216 -54.5t148.5 -151.5t53.5 -224v-635h-328v573q0 78 -48 126.5t-124 48.5t-125 -48.5t-49 -126.5v-573h-328zM195 61h204v512q0 102 66.5 169t169.5 67q102 0 167.5 -66.5t65.5 -169.5v-512h205v574 q0 166 -98 267.5t-258 101.5q-88 0 -141.5 -26t-94.5 -67h-82v461h-204v-1311z" />
<glyph unicode="i" horiz-adv-x="555" d="M442 0h-329v1044h329v-1044zM174 983v-922h207v922h-207zM154.5 1214.5q-50.5 47.5 -50.5 116.5q0 70 50.5 117t123.5 47q74 0 124.5 -47t50.5 -117t-50.5 -117t-124.5 -47q-73 0 -123.5 47.5zM359.5 1257.5q31.5 28.5 31.5 73.5t-31.5 74t-81.5 29q-49 0 -80.5 -29 t-31.5 -74t31.5 -73.5t80.5 -28.5q50 0 81.5 28.5z" />
<glyph unicode="j" horiz-adv-x="555" d="M-115 -410v308h158q31 0 46 13t15 38v1095h328v-1167q0 -139 -78 -213t-229 -74h-240zM125 -348q127 0 186.5 56t59.5 169v1106h-205v-1034q0 -51 -33 -82t-90 -31h-96v-184h178zM144.5 1214.5q-50.5 47.5 -50.5 116.5q0 70 50.5 117t123.5 47q74 0 124.5 -47t50.5 -117 t-50.5 -117t-124.5 -47q-73 0 -123.5 47.5zM349.5 1257.5q31.5 28.5 31.5 73.5t-31.5 74t-81.5 29q-49 0 -80.5 -29t-31.5 -74t31.5 -73.5t80.5 -28.5q50 0 81.5 28.5z" />
<glyph unicode="k" horiz-adv-x="1126" d="M451 0h-328v1434h328v-807l317 417h369l-400 -512l420 -532h-369l-337 438v-438zM184 1372v-1311h205v439h92l338 -439h209l-369 469l351 453h-211l-318 -418h-92v807h-205z" />
<glyph unicode="l" horiz-adv-x="575" d="M453 0h-330v1434h330v-1434zM184 1372v-1311h207v1311h-207z" />
<glyph unicode="m" horiz-adv-x="1777" d="M123 0v1044h266l21 -92h10q41 47 105.5 80t140.5 33q100 0 173.5 -42t112.5 -101h11q43 59 119.5 101t177.5 42q113 0 206 -54.5t147 -152.5t54 -223v-635h-328v594q0 74 -38.5 114t-100.5 40q-61 0 -101 -41t-40 -113v-594h-328v594q0 74 -40 114t-101 40t-100 -40 t-39 -114v-594h-328zM184 61h205v533q0 98 56.5 156.5t144.5 58.5t145.5 -58.5t57.5 -156.5v-533h204v533q0 98 57.5 156.5t145.5 58.5t144.5 -58.5t56.5 -156.5v-533h205v574q0 109 -46.5 192.5t-126 130t-173.5 46.5q-166 0 -269 -144h-69q-25 47 -90.5 95.5t-165.5 48.5 q-80 0 -135.5 -37t-79.5 -76h-89l-22 92h-156v-922z" />
<glyph unicode="n" horiz-adv-x="1234" d="M123 0v1044h266l21 -92h10q43 43 113.5 78t173.5 35q121 0 216 -54.5t148 -151.5t53 -224v-635h-327v573q0 78 -48.5 126.5t-123.5 48.5q-76 0 -125 -48.5t-49 -126.5v-573h-328zM184 61h205v512q0 102 66.5 169t169.5 67q102 0 167.5 -66.5t65.5 -169.5v-512h205v574 q0 166 -98.5 267.5t-257.5 101.5q-100 0 -159 -32t-108 -81h-80l-20 92h-156v-922z" />
<glyph unicode="o" horiz-adv-x="1236" d="M339 50.5q-124 70.5 -195.5 194.5t-71.5 277q0 154 71.5 278t195.5 194.5t279 70.5q156 0 280 -70.5t195.5 -194.5t71.5 -278t-71.5 -277.5t-195.5 -194t-280 -70.5q-155 0 -279 70.5zM866.5 103.5q110.5 62.5 174 172t63.5 246.5t-63.5 247t-174 172.5t-248.5 62.5 q-137 0 -247.5 -62.5t-174 -172.5t-63.5 -247t63.5 -246.5t174 -172t247.5 -62.5q138 0 248.5 62.5zM420 308q-80 83 -80 214t80 214t198 83q119 0 199 -83t80 -214t-80 -214t-199 -83q-118 0 -198 83zM773.5 352.5q62.5 65.5 62.5 169.5t-62.5 170t-155.5 66 q-92 0 -154.5 -65.5t-62.5 -170.5q0 -104 62.5 -169.5t154.5 -65.5q93 0 155.5 65.5z" />
<glyph unicode="p" horiz-adv-x="1275" d="M123 -410v1454h266l21 -102h10q39 51 112.5 87t174.5 36q137 0 251.5 -69.5t182 -193.5t67.5 -280t-67.5 -279.5t-182 -193t-251.5 -69.5q-96 0 -160 29.5t-96 62.5v-482h-328zM184 -348h205v481h80q33 -37 93.5 -64.5t144.5 -27.5q121 0 221 61.5t159.5 172t59.5 247.5 t-59.5 248t-160 172.5t-220.5 61.5q-164 0 -267 -123h-82l-20 102h-154v-1331zM468 308q-79 83 -79 214t79 214t198 83t197.5 -83t78.5 -214t-79 -214t-197 -83q-119 0 -198 83zM819.5 352.5q61.5 65.5 61.5 169.5t-61.5 170t-153.5 66t-153.5 -65.5t-61.5 -170.5 q0 -104 61 -169.5t154 -65.5q92 0 153.5 65.5z" />
<glyph unicode="q" horiz-adv-x="1277" d="M827 72q-33 -33 -96 -62.5t-160 -29.5q-137 0 -251.5 69.5t-182 193.5t-67.5 279q0 156 67.5 280t182 193.5t251.5 69.5q100 0 174 -36t113 -87h10l21 102h266v-1454h-328v482zM889 -348h205v1331h-154l-20 -102h-82q-102 123 -267 123q-121 0 -221 -61.5t-159.5 -172.5 t-59.5 -248t59.5 -247.5t160 -172t220.5 -61.5q84 0 144.5 27.5t93.5 64.5h80v-481zM415 308q-79 83 -79 214t79 214t197 83q119 0 198 -83t79 -214t-79 -214t-198 -83q-118 0 -197 83zM766 352.5q61 65.5 61 169.5t-61 170t-154 66q-92 0 -153.5 -65.5t-61.5 -170.5 q0 -104 61.5 -169.5t153.5 -65.5q93 0 154 65.5z" />
<glyph unicode="r" horiz-adv-x="831" d="M123 0v1044h266l21 -81h10q20 31 68.5 56t115.5 25h199v-307h-189q-84 0 -123.5 -40t-39.5 -124v-573h-328zM184 61h205v512q0 111 57.5 168.5t167.5 57.5h127v184h-137q-98 0 -164 -82h-80l-20 82h-156v-922z" />
<glyph unicode="s" horiz-adv-x="1056" d="M182.5 81q-114.5 101 -125.5 247h318q0 -33 37 -68t116 -35q70 0 107 24.5t37 57.5q0 41 -21.5 62.5t-81.5 29.5l-153 21q-180 25 -264 104.5t-84 212.5q0 90 52 164t153.5 119t244.5 45q217 0 330 -95.5t131 -232.5h-320q-10 27 -41.5 49.5t-99.5 22.5q-63 0 -98 -20.5 t-35 -51.5q0 -59 102 -71l154 -21q174 -23 261 -109.5t87 -228.5q0 -90 -52 -164.5t-156.5 -118.5t-252.5 -44q-231 0 -345.5 101zM747.5 77q90.5 36 135.5 96t45 134q0 121 -74 188.5t-221 88.5l-154 20q-80 10 -117.5 46t-37.5 87q0 57 51 95t143 38q121 0 176 -75h209 q-29 80 -119 144.5t-266 64.5q-125 0 -213 -37t-132 -97.5t-44 -132.5q0 -111 69.5 -173t225.5 -83l151 -20q86 -12 122 -50t36 -104q0 -61 -53 -102t-152 -41q-84 0 -129 30.5t-69 75.5h-203q23 -88 117 -158.5t284 -70.5q129 0 219.5 36z" />
<glyph unicode="t" horiz-adv-x="851" d="M512 0q-152 0 -229.5 73.5t-77.5 213.5v450h-154v307h154v328h327v-328h226v-307h-226v-379q0 -29 14.5 -40t47.5 -11h164v-307h-246zM696 61v185h-102q-63 0 -93 26.5t-30 85.5v441h225v184h-225v328h-205v-328h-153v-184h153v-512q0 -115 61.5 -170.5t184.5 -55.5h184z " />
<glyph unicode="u" horiz-adv-x="1245" d="M323.5 34q-96.5 54 -149.5 151.5t-53 224.5v634h328v-573q0 -76 49 -125t125 -49t124 48t48 126v573h327v-1044h-266l-20 92h-11q-113 -113 -284 -112q-121 0 -217.5 54zM697.5 72.5q58.5 31.5 107.5 81.5h80l20 -93h156v922h-205v-512q0 -102 -65.5 -168.5t-167.5 -66.5 t-169 66.5t-67 168.5v512h-205v-573q0 -166 99.5 -267.5t259.5 -101.5q98 0 156.5 31.5z" />
<glyph unicode="v" horiz-adv-x="1112" d="M762 0h-412l-350 1044h338l211 -665h14l211 665h338zM84 983l311 -922h322l311 922h-209l-211 -666h-104l-211 666h-209z" />
<glyph unicode="w" horiz-adv-x="1648" d="M674 0h-398l-266 1044h338l139 -573h21l147 573h338l148 -573h20l139 573h338l-266 -1044h-397l-139 563h-23zM88 983l238 -922h299l139 564h121l139 -564h299l238 922h-211l-140 -573h-116l-148 573h-244l-147 -573h-117l-139 573h-211z" />
<glyph unicode="x" horiz-adv-x="1099" d="M352 0h-358l348 532l-328 512h359l168 -286h18l168 286h358l-327 -512l348 -532h-358l-189 317h-18zM414 532l-308 -471h211l189 318h88l190 -318h211l-309 471l289 451h-211l-170 -287h-88l-168 287h-213z" />
<glyph unicode="y" horiz-adv-x="1130" d="M123 -410v308h205q47 0 55 30l16 49l-409 1067h348l233 -641h15l202 641h353l-430 -1208q-33 -92 -74 -144t-111.5 -77t-187.5 -25h-215zM338 -348q141 0 205.5 41t101.5 143l408 1147h-217l-205 -641h-103l-233 641h-217l387 -1006l-16 -49q-16 -49 -43 -70.5t-78 -21.5 h-144v-184h154z" />
<glyph unicode="z" horiz-adv-x="1015" d="M954 0h-893v287l433 450h-422v307h872v-286l-430 -451h440v-307zM123 260v-199h770v185h-512v12l502 526v199h-750v-184h492v-15z" />
<glyph unicode="{" horiz-adv-x="808" d="M571 -410q-154 0 -246 92.5t-92 245.5v318q0 55 -37.5 89t-105.5 34v348q68 0 105.5 33.5t37.5 89.5v317q0 154 92.5 246t245.5 92h174v-297h-92q-92 0 -92 -92v-328q0 -100 -59.5 -156.5t-145.5 -68.5v-21q86 -12 145.5 -68t59.5 -157v-327q0 -92 92 -93h92v-297h-174z M684 -348v174h-31q-72 0 -112.5 41t-40.5 113v327q0 70 -47 117t-117 47h-41v143h41q70 0 117 47.5t47 116.5v328q0 72 41 113t112 41h31v174h-113q-125 0 -200.5 -75t-75.5 -202v-317q0 -70 -37 -115t-106 -63v-238q70 -18 106.5 -63.5t36.5 -114.5v-318 q0 -127 75.5 -201.5t200.5 -74.5h113z" />
<glyph unicode="|" horiz-adv-x="798" d="M563 -410h-327v1905h327v-1905zM297 1434v-1782h205v1782h-205z" />
<glyph unicode="}" horiz-adv-x="808" d="M63 -410v297h93q92 0 92 93v327q0 100 59.5 156.5t145.5 68.5v21q-86 12 -145.5 68.5t-59.5 156.5v328q0 92 -92 92h-93v297h175q154 0 245.5 -92t91.5 -246v-317q0 -55 38 -89t106 -34v-348q-68 0 -106 -34t-38 -89v-318q0 -154 -92 -246t-245 -92h-175zM238 -348 q127 0 201.5 74.5t74.5 201.5v318q0 70 37 115t106 63v238q-70 18 -106.5 63t-36.5 115v317q0 127 -74.5 202t-201.5 75h-113v-174h31q72 0 112.5 -41t40.5 -113v-328q0 -70 47 -117t117 -47h41v-143h-41q-70 0 -117 -47t-47 -117v-327q0 -72 -41 -113t-112 -41h-31v-174 h113z" />
<glyph unicode="~" horiz-adv-x="1226" d="M684 360.5q-53 22.5 -109 63.5q-33 25 -56 36t-48 11q-47 0 -69.5 -27.5t-24.5 -95.5h-307q0 215 94 327.5t246 112.5q82 0 135 -22.5t108 -63.5q33 -25 56.5 -36t48.5 -11q47 0 69.5 28t22.5 95h307q0 -215 -93 -327.5t-245 -112.5q-82 0 -135 22.5zM1008.5 479 q70.5 80 85.5 238h-187q-25 -123 -149 -123q-41 0 -70 14.5t-67 42.5q-53 37 -96.5 56.5t-114.5 19.5q-119 0 -191 -80t-86 -237h186q25 123 152 122q41 0 69.5 -14t67.5 -43q53 -37 96.5 -56.5t114.5 -19.5q119 0 189.5 80z" />
<glyph unicode="&#xa1;" horiz-adv-x="665" d="M206 763q-52 52 -52 126q0 76 52 128t128 52q74 0 126 -52t52 -128q0 -74 -52 -126t-126 -52q-76 0 -128 52zM250 973q-35 -35 -35 -84t35 -83t84 -34q47 0 82 35t35 82q0 49 -34 84t-83 35t-84 -35zM158 158l41 430h266l41 -430v-533h-348v533zM219 -313h225v465 l-36 374h-152l-37 -368v-471z" />
<glyph unicode="&#xa2;" horiz-adv-x="1200" d="M451 4q-170 43 -274.5 185.5t-104.5 332.5q0 199 105.5 334t273.5 186v228h327v-228q154 -45 243 -158.5t116 -248.5h-338q-20 49 -64.5 86t-120.5 37q-94 0 -154.5 -64.5t-60.5 -171.5q0 -106 60.5 -170.5t154.5 -64.5q76 0 120 36.5t65 86.5h338q-29 -139 -118 -254 t-241 -154v-227h-327v229zM512 -164h205v213q152 29 226.5 115t115.5 188h-219q-29 -51 -85.5 -89t-140.5 -38q-76 0 -139 38t-100 105.5t-37 153.5t37 153.5t100.5 105.5t138.5 38q84 0 140.5 -38t85.5 -89h219q-41 102 -118 188.5t-224 114.5v213h-205v-215 q-170 -31 -274.5 -159.5t-104.5 -311.5q0 -182 104.5 -311t274.5 -160v-215z" />
<glyph unicode="&#xa3;" horiz-adv-x="1282" d="M63 0v328h64q45 0 68.5 19.5t23.5 51.5v154h-156v266h156v185q0 131 58.5 233t168 159.5t254.5 57.5q147 0 259 -58.5t174.5 -163t62.5 -239.5h-342q-2 57 -40 95t-103 38q-66 0 -105 -38.5t-39 -104.5v-164h363v-266h-363v-154q0 -25 -8 -44t-22 -27h694v-328h-1168z M125 61h1044v205h-710v62q18 0 32.5 23.5t14.5 47.5v215h362v144h-362v225q0 92 56 148.5t149 56.5q78 0 128 -35t66 -98h225q-20 154 -136.5 246t-293.5 92q-195 0 -307 -106.5t-112 -282.5v-246h-156v-144h156v-215q0 -61 -41 -97t-115 -36v-205z" />
<glyph unicode="&#xa4;" horiz-adv-x="1159" d="M276 276l-139 125l111 127q-47 78 -47 189t47 188l-111 127l139 125l107 -117q31 18 81 37t116 19t115.5 -18.5t80.5 -37.5l107 117l139 -125l-111 -127q47 -78 47 -188q0 -111 -47 -189l111 -127l-139 -125l-107 117q-31 -18 -81 -36.5t-115 -18.5q-66 0 -116 18.5 t-81 36.5zM373 473q29 -27 81 -50.5t126 -23.5t126 23.5t80 50.5l101 -111l51 44l-104 118q20 27 41.5 76t21.5 117t-21.5 117t-41.5 75l104 119l-51 43l-101 -110q-29 27 -81 50t-125 23q-74 0 -126.5 -23.5t-80.5 -49.5l-101 110l-51 -43l105 -119q-20 -27 -42 -76 t-22 -116q0 -68 21.5 -117t42.5 -76l-105 -118l51 -44zM402.5 541.5q-68.5 70.5 -68.5 175.5q0 104 68.5 175t177.5 71t177 -71t68 -175t-68.5 -175t-176.5 -71q-109 0 -177.5 70.5zM713 585.5q51 53.5 51 131.5t-51 131t-133 53t-133.5 -53t-51.5 -131t51.5 -131.5 t133.5 -53.5t133 53.5z" />
<glyph unicode="&#xa5;" horiz-adv-x="1320" d="M844 0h-367v225h-307v236h307v112h-307v236h141l-331 625h385l286 -553h19l286 553h385l-331 -625h141v-236h-307v-112h307v-236h-307v-225zM539 287v-226h243v226h308v112h-308v236h308v113h-183l332 624h-244l-286 -553h-97l-286 553h-244l330 -624h-181v-113h308v-236 h-308v-112h308z" />
<glyph unicode="&#xa6;" horiz-adv-x="798" d="M563 717h-327v778h327v-778zM297 1434v-656h205v656h-205zM563 -410h-327v779h327v-779zM297 307v-655h205v655h-205z" />
<glyph unicode="&#xa7;" horiz-adv-x="1341" d="M381 -289.5q-121 58.5 -184.5 157.5t-63.5 224h348q0 -72 47 -112.5t138 -40.5q92 0 138 30.5t46 71.5q0 49 -34 81t-124 50l-194 41q-203 41 -294 136t-91 245q0 82 35.5 155.5t97.5 120.5q-41 31 -66.5 88.5t-25.5 126.5q0 100 59 184.5t175 134.5t278 50 q164 0 284.5 -57.5t184 -155.5t63.5 -217h-350q0 63 -47 103t-135 40q-78 0 -121 -30.5t-43 -71.5t31.5 -67.5t113.5 -45.5l195 -41q203 -43 295 -136t92 -243q0 -90 -39 -161.5t-94 -114.5q43 -37 72.5 -98.5t29.5 -137.5q0 -100 -60.5 -184t-180 -134t-291.5 -50 q-164 0 -285 58.5zM925.5 -244q106.5 43 159 113t52.5 151q0 70 -36 132.5t-87 103.5q63 47 108 118.5t45 157.5q0 125 -80.5 204t-257.5 116l-194 41q-104 23 -149.5 65.5t-45.5 106.5q0 68 60.5 116t165.5 48q98 0 162.5 -45t74.5 -99h230q-31 133 -148 220.5t-319 87.5 q-145 0 -247 -42t-153 -113t-51 -153q0 -70 33 -126t80 -89q-63 -51 -108.5 -123.5t-45.5 -152.5q0 -127 78 -206t258 -116l195 -41q113 -25 159.5 -70.5t46.5 -119.5q0 -70 -63.5 -117t-181.5 -47q-98 0 -160 41t-80 113h-225q8 -78 61 -151t155.5 -120t248.5 -47 q153 0 259.5 43zM719 399l-144 31q-92 20 -134 62.5t-42 111.5q0 45 22.5 87t55.5 73q68 -18 146 -37l143 -31q90 -20 133 -62t43 -112q0 -51 -23.5 -92t-58.5 -65q-65 18 -141 34zM881 522q0 47 -30 73t-97 40l-144 31q-63 14 -112 26q-37 -31 -37 -88q0 -47 27.5 -72.5 t99.5 -39.5l143 -31q51 -10 113 -29q37 41 37 90z" />
<glyph unicode="&#xa8;" horiz-adv-x="851" d="M106.5 1213.5q-45.5 46.5 -45.5 117.5q0 72 45.5 118t118.5 46q74 0 119 -46t45 -118t-45 -118t-119 -46q-73 0 -118.5 46.5zM508 1213.5q-45 46.5 -45 117.5q0 72 45 118t119 46t119 -46t45 -118t-45.5 -118t-118.5 -46q-74 0 -119 46.5zM299 1257.5q29 28.5 29 73.5 q0 47 -29 75t-74 28q-47 0 -74.5 -28t-27.5 -75q0 -45 27.5 -73.5t74.5 -28.5q45 0 74 28.5zM700.5 1257.5q28.5 28.5 28.5 73.5q0 47 -28.5 75t-73.5 28q-47 0 -75 -28t-28 -75q0 -45 28 -73.5t75 -28.5q45 0 73.5 28.5z" />
<glyph unicode="&#xa9;" horiz-adv-x="1699" d="M468 76q-171 96 -268.5 265t-97.5 376t97.5 376t268.5 265t382 96t382 -96t268 -265t97 -376t-97 -376t-268 -265t-382 -96t-382 96zM1202.5 129q155.5 88 244.5 242.5t89 345.5q0 190 -89 345t-244.5 243t-352.5 88t-352.5 -88t-244.5 -243t-89 -345t89 -345t244.5 -243 t352.5 -88t352.5 88zM557 218q-131 75 -206 206t-75 293t75 293t206 205.5t293 74.5t293 -74.5t205.5 -205.5t74.5 -293t-74.5 -293t-205.5 -206t-293 -75t-293 75zM1112 271.5q117 66.5 183.5 183t66.5 262.5q0 145 -66.5 262t-183.5 183.5t-262 66.5t-262 -66.5 t-183.5 -183.5t-66.5 -262t66.5 -262t183.5 -183.5t262 -66.5t262 66.5zM668 388q-86 50 -136.5 136t-50.5 193q0 106 50.5 192t136.5 136.5t192 50.5q145 0 235.5 -83t123.5 -204h-228q-16 35 -49 58.5t-82 23.5q-70 0 -111.5 -46t-41.5 -128t42 -128t111 -46q55 0 89 30.5 t42 61.5h228q-33 -125 -123 -211t-236 -86q-106 0 -192 50zM1133 578h-101q-61 -96 -172 -97q-94 0 -154.5 63.5t-60.5 172.5t60.5 172t154.5 63q57 0 102.5 -24.5t65.5 -61.5h105q-25 61 -96.5 114.5t-176.5 53.5q-88 0 -160.5 -42t-114.5 -114.5t-42 -160.5t42 -161 t114.5 -115t160.5 -42q187 1 273 179z" />
<glyph unicode="&#xaa;" horiz-adv-x="757" d="M128 818.5q-67 60.5 -67 154.5q0 88 71 146.5t196 58.5h133v30q0 29 -21.5 50.5t-50.5 21.5t-46 -12.5t-26 -28.5h-225q16 98 90 156.5t203 58.5q139 0 215 -69.5t76 -186.5v-430h-164l-20 61h-11q-25 -31 -69.5 -51t-104.5 -20q-112 0 -179 60.5zM404.5 834.5 q39.5 19.5 58.5 46.5h76l16 -56h63v373q0 92 -59 145.5t-174 53.5q-82 0 -138.5 -29t-74.5 -72h117q8 16 34.5 27.5t65.5 11.5q53 0 90 -33.5t37 -93.5v-82h-188q-98 0 -153.5 -44t-55.5 -109q0 -70 49 -114t139 -44q58 0 97.5 19.5zM263 906.5q-32 29.5 -32 76.5t32 74.5 t85 27.5h168v-41q0 -76 -47 -121.5t-121 -45.5q-53 0 -85 29.5zM429 959.5q28 27.5 32 74.5h-113q-31 0 -46 -13t-15 -38t15 -38t46 -13q53 0 81 27.5z" />
<glyph unicode="&#xab;" horiz-adv-x="1263" d="M690 106h-328l-296 420l296 420h328l-297 -420zM139 524l256 -356h176l-254 358l254 359h-176zM1200 106h-328l-296 420l296 420h328l-297 -420zM649 524l256 -356h176l-254 358l254 359h-176z" />
<glyph unicode="&#xac;" horiz-adv-x="1134" d="M999 287h-317v225h-547v307h864v-532zM743 573v-225h195v410h-741v-185h546z" />
<glyph unicode="&#xad;" horiz-adv-x="890" d="M799 430h-707v307h707v-307zM154 676v-184h583v184h-583z" />
<glyph unicode="&#xae;" horiz-adv-x="1699" d="M468 76q-171 96 -268.5 265t-97.5 376t97.5 376t268.5 265t382 96t382 -96t268 -265t97 -376t-97 -376t-268 -265t-382 -96t-382 96zM1202.5 129q155.5 88 244.5 242.5t89 345.5q0 190 -89 345t-244.5 243t-352.5 88t-352.5 -88t-244.5 -243t-89 -345t89 -345t244.5 -243 t352.5 -88t352.5 88zM557 218q-131 75 -206 206t-75 293t75 293t206 205.5t293 74.5t293 -74.5t205.5 -205.5t74.5 -293t-74.5 -293t-205.5 -206t-293 -75t-293 75zM1112 271.5q117 66.5 183.5 183t66.5 262.5q0 145 -66.5 262t-183.5 183.5t-262 66.5t-262 -66.5 t-183.5 -183.5t-66.5 -262t66.5 -262t183.5 -183.5t262 -66.5t262 66.5zM584 358v727h327q115 0 185.5 -68.5t70.5 -176.5q0 -100 -53 -159.5t-131 -76.5l205 -246h-225l-183 234v-234h-196zM641 416h86v235h80l184 -235h76l-193 231h27q86 0 147.5 51.5t61.5 141.5 q0 86 -53 137t-146 51h-270v-612zM727 700v258h164q59 0 94 -34.5t35 -94.5q0 -57 -35 -93t-94 -36h-164zM891 758q35 0 53.5 19.5t18.5 51.5q0 35 -18.5 53.5t-53.5 18.5h-107v-143h107z" />
<glyph unicode="&#xaf;" horiz-adv-x="798" d="M738 1219h-676v235h676v-235zM119 1397v-121h561v121h-561z" />
<glyph unicode="&#xb0;" horiz-adv-x="819" d="M261.5 900q-68.5 40 -108.5 108.5t-40 148.5t40 148.5t108.5 108.5t148.5 40t148.5 -40t108.5 -108.5t40 -148.5t-40 -148.5t-109 -108.5t-148 -40q-80 0 -148.5 40zM575.5 991.5q69.5 69.5 69.5 165.5t-69.5 166t-165.5 70t-166 -70t-70 -166t69.5 -165.5t166.5 -69.5 q96 0 165.5 69.5zM301 1049q-45 45 -45 108t45 108.5t109 45.5q63 0 108 -45t45 -109q0 -63 -45 -108t-108 -45q-64 0 -109 45zM475.5 1091.5q26.5 26.5 26.5 65.5t-26.5 65.5t-65.5 26.5t-66 -26.5t-27 -65.5t27 -65.5t66 -26.5t65.5 26.5z" />
<glyph unicode="&#xb1;" horiz-adv-x="1130" d="M719 389h-307v318h-318v307h318v338h307v-338h317v-307h-317v-318zM473 768v-317h184v317h318v184h-318v338h-184v-338h-317v-184h317zM1036 0h-942v307h942v-307zM156 246v-185h819v185h-819z" />
<glyph unicode="&#xb2;" horiz-adv-x="688" d="M88 901v176l272 258q25 25 35.5 42.5t10.5 35.5q0 25 -16.5 38t-45.5 13q-61 0 -72 -61h-194q0 109 73.5 177.5t192.5 68.5q115 0 185.5 -64.5t70.5 -171.5q0 -57 -23.5 -105t-78.5 -100l-123 -114v-9h235v-184h-522zM145 958h408v70h-236v88l144 133q43 41 62.5 80 t19.5 84q0 82 -54.5 130t-144.5 48q-78 0 -131 -36.5t-68 -94.5h84q10 27 42 44.5t73 17.5q53 0 86 -30t33 -79q0 -61 -57 -117l-261 -245v-93z" />
<glyph unicode="&#xb3;" horiz-adv-x="688" d="M140.5 957.5q-72.5 66.5 -72.5 168.5h194q10 -51 74 -51q33 0 51.5 16.5t18.5 41.5q0 27 -24 46t-63 19h-57v164h57q39 0 57.5 16.5t18.5 38.5q0 20 -15 33.5t-44 13.5t-46.5 -12t-17.5 -29h-194q0 94 70.5 160t185.5 66t185.5 -61.5t70.5 -153.5q0 -55 -23.5 -92 t-58.5 -52v-10q39 -20 65.5 -59t26.5 -95q0 -100 -72.5 -167.5t-193.5 -67.5t-193.5 66.5zM485.5 998.5q57.5 52.5 57.5 127.5q0 45 -27 77t-65 46v72q35 10 58 39t23 74q0 66 -56 111.5t-142 45.5q-74 0 -122 -30.5t-65 -81.5h86q8 14 37 28.5t66 14.5q55 0 86 -30t31 -75 t-34 -77.5t-100 -34.5v-50q63 0 103.5 -33.5t40.5 -88.5q0 -51 -33 -83t-94 -32q-43 0 -70.5 15.5t-40.5 37.5h-92q4 -25 29.5 -54.5t69.5 -50t102 -20.5q94 0 151.5 52.5z" />
<glyph unicode="&#xb4;" horiz-adv-x="649" d="M338 1184h-277l199 301h328zM291 1427l-125 -186h143l154 186h-172z" />
<glyph unicode="&#xb6;" horiz-adv-x="1280" d="M461 635q-106 0 -193.5 51t-136.5 142.5t-49 205.5q0 115 49 206t136 142.5t194 51.5h676v-1639h-287v1362h-102v-1362h-287v840zM522 -143h164v1362h225v-1362h164v1515h-614q-90 0 -162 -43t-114 -119.5t-42 -175.5q0 -98 42 -175t114 -120t162 -43h61v-839z" />
<glyph unicode="&#xb7;" horiz-adv-x="555" d="M146.5 411q-52.5 52 -52.5 128q0 74 52.5 126t126.5 52q76 0 128 -52t52 -126q0 -76 -52.5 -128t-127.5 -52q-74 0 -126.5 52zM356.5 455q34.5 35 34.5 84t-34.5 83t-83.5 34q-47 0 -82 -35t-35 -82q0 -49 33.5 -84t83.5 -35q49 0 83.5 35z" />
<glyph unicode="&#xb8;" horiz-adv-x="522" d="M61 -483v194h92q31 0 46.5 9.5t15.5 31.5q0 41 -62 41h-71v105l45 102h57l-45 -113v-37q63 0 98 -25.5t35 -72.5q0 -98 -119 -98h-34v-80h75q98 0 153.5 43t55.5 107q0 66 -48 109.5t-109 43.5l45 123h61l-31 -82q57 -16 98.5 -65.5t41.5 -128.5q0 -88 -71 -147.5 t-196 -59.5h-133z" />
<glyph unicode="&#xb9;" horiz-adv-x="563" d="M219 901v461h-151v184h100q23 0 37 14.5t14 36.5v41h195v-737h-195zM276 958h80v619h-82q-4 -37 -33.5 -62.5t-72.5 -25.5h-43v-70h151v-461z" />
<glyph unicode="&#xba;" horiz-adv-x="819" d="M236.5 802q-76.5 44 -120.5 124t-44 180t44 180t120.5 124t173.5 44q96 0 172.5 -44t121 -124t44.5 -180t-44.5 -180t-121 -124t-172.5 -44q-97 0 -173.5 44zM608 899q78 80 78 207t-78 207t-198 80q-121 0 -199 -80t-78 -207t78 -207t199 -80q120 0 198 80zM287 966.5 q-51 55.5 -51 139.5t51 139t123 55t123 -55t51 -139t-51.5 -139.5t-122.5 -55.5q-72 0 -123 55.5zM488.5 1011q33.5 38 33.5 95t-33.5 95t-78.5 38t-79 -38t-34 -95t34 -95t79 -38t78.5 38z" />
<glyph unicode="&#xbb;" horiz-adv-x="1263" d="M391 106h-328l297 420l-297 420h328l297 -420zM436 528l-254 -360h176l254 358l-254 359h-176zM901 106h-328l297 420l-297 420h328l297 -420zM946 528l-254 -360h176l254 358l-254 359h-176z" />
<glyph unicode="&#xbf;" horiz-adv-x="1101" d="M445.5 763q-52.5 52 -52.5 128q0 74 52.5 126t125.5 52q76 0 128.5 -52t52.5 -126q0 -76 -52.5 -128t-128.5 -52q-73 0 -125.5 52zM655.5 807q34.5 35 34.5 84t-34.5 83t-84.5 34q-47 0 -81.5 -35t-34.5 -82q0 -49 33.5 -84t82.5 -35q50 0 84.5 35zM291.5 -341 q-111.5 54 -171 145.5t-59.5 199.5q0 231 215 338q78 39 106 77t28 107v62h327v-62q0 -137 -53 -212.5t-166 -129.5q-57 -29 -77.5 -61.5t-20.5 -87.5q0 -47 38 -80t105 -33q68 0 106 34t38 89h348q0 -123 -61.5 -223.5t-176.5 -158.5t-264 -58q-150 0 -261.5 54zM851 -246 q118 88 138 230h-231q-16 -51 -66.5 -87t-128.5 -36q-94 0 -149.5 50t-55.5 124t30 123t104 82q92 41 138 106.5t46 179.5h-205q0 -90 -39 -143t-129 -96q-180 -86 -180 -283q0 -92 51 -169t149.5 -123t229.5 -46q180 0 298 88z" />
<glyph unicode="&#xc0;" horiz-adv-x="1433" d="M369 0h-379l491 1434h471l492 -1434h-379l-88 276h-520zM524 1372l-448 -1311h248l88 277h610l88 -277h248l-449 1311h-385zM963 522h-492l195 604h102zM711 1065l-156 -481h324l-156 481h-12zM871 1577h-277l-250 301h328zM469 1821l152 -187h143l-123 187h-172z" />
<glyph unicode="&#xc1;" horiz-adv-x="1433" d="M369 0h-379l491 1434h471l492 -1434h-379l-88 276h-520zM524 1372l-448 -1311h248l88 277h610l88 -277h248l-449 1311h-385zM963 522h-492l195 604h102zM711 1065l-156 -481h324l-156 481h-12zM844 1577h-277l199 301h328zM797 1821l-125 -187h143l154 187h-172z" />
<glyph unicode="&#xc2;" horiz-adv-x="1433" d="M369 0h-379l491 1434h471l492 -1434h-379l-88 276h-520zM524 1372l-448 -1311h248l88 277h610l88 -277h248l-449 1311h-385zM963 522h-492l195 604h102zM711 1065l-156 -481h324l-156 481h-12zM614 1577h-287l250 301h279l250 -301h-287l-103 121zM606 1821l-156 -187 h135l107 125h49l107 -125h135l-154 187h-223z" />
<glyph unicode="&#xc3;" horiz-adv-x="1433" d="M369 0h-379l491 1434h471l492 -1434h-379l-88 276h-520zM524 1372l-448 -1311h248l88 277h610l88 -277h248l-449 1311h-385zM963 522h-492l195 604h102zM711 1065l-156 -481h324l-156 481h-12zM363 1587q0 131 62.5 204t170.5 73q57 0 131 -31q8 -2 31.5 -11.5t42.5 -9.5 q23 0 40 13.5t21 38.5h205q0 -131 -60.5 -204t-162.5 -73q-35 0 -65.5 8.5t-73.5 22.5q-6 2 -31 11t-45 9q-23 0 -40 -13t-22 -38h-204zM529 1645q27 51 100 51q25 0 58.5 -11.5t39.5 -13.5q29 -10 60.5 -18t56.5 -8q63 0 106 45t54 116h-103q-27 -51 -100 -51q-18 0 -43 7 t-49 18q-29 10 -58.5 18t-54.5 8q-72 0 -115 -44t-55 -117h103z" />
<glyph unicode="&#xc4;" horiz-adv-x="1433" d="M369 0h-379l491 1434h471l492 -1434h-379l-88 276h-520zM524 1372l-448 -1311h248l88 277h610l88 -277h248l-449 1311h-385zM963 522h-492l195 604h102zM711 1065l-156 -481h324l-156 481h-12zM397.5 1609q-45.5 46 -45.5 117q0 72 45.5 118t118.5 46q74 0 119 -46 t45 -118t-45 -117.5t-119 -45.5q-73 0 -118.5 46zM799 1609q-45 46 -45 117q0 72 45 118t119 46t119 -46t45 -118t-45.5 -117.5t-118.5 -45.5q-74 0 -119 46zM590 1652.5q29 28.5 29 73.5q0 47 -29 75t-74 28q-47 0 -74.5 -27.5t-27.5 -75.5q0 -45 27.5 -73.5t74.5 -28.5 q45 0 74 28.5zM991.5 1652.5q28.5 28.5 28.5 73.5q0 47 -28.5 75t-73.5 28q-47 0 -75 -27.5t-28 -75.5q0 -45 28 -73.5t75 -28.5q45 0 73.5 28.5z" />
<glyph unicode="&#xc5;" horiz-adv-x="1433" d="M369 0h-379l491 1434h471l492 -1434h-379l-88 276h-520zM524 1372l-448 -1311h248l88 277h610l88 -277h248l-449 1311h-385zM963 522h-492l195 604h102zM711 1065l-156 -481h324l-156 481h-12zM547.5 1583.5q-65.5 63.5 -65.5 161.5t65.5 161.5t169.5 63.5t170 -63.5 t66 -161.5t-66 -161.5t-170 -63.5t-169.5 63.5zM846 1624q49 47 49 121t-49 121t-129 47t-129 -47t-49 -121t49 -121t129 -47t129 47zM639 1668q-31 32 -31 77q0 47 31 77.5t78 30.5q45 0 77 -30.5t32 -77.5q0 -45 -32 -77t-77 -32q-47 0 -78 32zM754 1708q14 14 14 37 t-14 37t-37 14t-37 -14.5t-14 -36.5q0 -23 14.5 -37t36.5 -14q23 0 37 14z" />
<glyph unicode="&#xc6;" horiz-adv-x="1976" d="M338 0h-379l625 1434h1290v-318h-635v-246h594v-307h-594v-246h635v-317h-983v287h-434zM625 1372l-572 -1311h244l117 287h538v-287h860v195h-634v369h594v184h-594v369h634v194h-1187zM952 532h-458l276 646h182v-646zM811 1116l-223 -522h303v522h-80z" />
<glyph unicode="&#xc7;" horiz-adv-x="1495" d="M584 -483v194h92q33 0 47 9.5t14 31.5q0 41 -61 41h-72v105l41 94q-162 31 -290 131t-200.5 253.5t-72.5 340.5q0 211 92 379t252 263t352 95q184 0 320.5 -78t218.5 -203.5t117 -271.5h-349q-23 76 -97.5 145.5t-209.5 69.5q-98 0 -177 -49t-125 -139t-46 -211t46 -211 t125 -139.5t177 -49.5q141 0 213 72t94 154h349q-45 -211 -186.5 -370t-379.5 -187l-24 -68q57 -16 98 -65.5t41 -128.5q0 -88 -70.5 -147.5t-195.5 -59.5h-133zM717 -426q98 0 153.5 43t55.5 107q0 66 -48.5 109.5t-109.5 43.5l59 166q240 16 363 156.5t164 281.5h-228 q-33 -86 -115.5 -155.5t-232.5 -69.5q-115 0 -208 57.5t-147 162t-54 241.5t54 241.5t147.5 162t207.5 57.5q147 0 230.5 -68t117.5 -147h226q-47 156 -183.5 293t-390.5 137q-176 0 -321.5 -87t-229.5 -241t-84 -348q0 -184 76 -332.5t209 -239t297 -102.5l-63 -156v-37 q63 0 98 -25.5t35 -72.5q0 -98 -119 -98h-35v-80h76z" />
<glyph unicode="&#xc8;" horiz-adv-x="1228" d="M1126 0h-983v1434h983v-318h-634v-246h593v-307h-593v-246h634v-317zM205 1372v-1311h860v195h-635v369h594v184h-594v369h635v194h-860zM799 1577h-277l-250 301h328zM397 1821l152 -187h143l-123 187h-172z" />
<glyph unicode="&#xc9;" horiz-adv-x="1228" d="M1126 0h-983v1434h983v-318h-634v-246h593v-307h-593v-246h634v-317zM205 1372v-1311h860v195h-635v369h594v184h-594v369h635v194h-860zM772 1577h-277l199 301h328zM725 1821l-125 -187h143l154 187h-172z" />
<glyph unicode="&#xca;" horiz-adv-x="1228" d="M1126 0h-983v1434h983v-318h-634v-246h593v-307h-593v-246h634v-317zM205 1372v-1311h860v195h-635v369h594v184h-594v369h635v194h-860zM543 1577h-287l250 301h279l250 -301h-287l-103 121zM535 1821l-156 -187h135l107 125h49l107 -125h135l-154 187h-223z" />
<glyph unicode="&#xcb;" horiz-adv-x="1228" d="M1126 0h-983v1434h983v-318h-634v-246h593v-307h-593v-246h634v-317zM205 1372v-1311h860v195h-635v369h594v184h-594v369h635v194h-860zM325.5 1609q-45.5 46 -45.5 117q0 72 45.5 118t118.5 46q74 0 119 -46t45 -118t-45 -117.5t-119 -45.5q-73 0 -118.5 46zM727 1609 q-45 46 -45 117q0 72 45 118t119 46t119 -46t45 -118t-45.5 -117.5t-118.5 -45.5q-74 0 -119 46zM518 1652.5q29 28.5 29 73.5q0 47 -29 75t-74 28q-47 0 -74.5 -27.5t-27.5 -75.5q0 -45 27.5 -73.5t74.5 -28.5q45 0 74 28.5zM919.5 1652.5q28.5 28.5 28.5 73.5 q0 47 -28.5 75t-73.5 28q-47 0 -75 -27.5t-28 -75.5q0 -45 28 -73.5t75 -28.5q45 0 73.5 28.5z" />
<glyph unicode="&#xcc;" horiz-adv-x="614" d="M481 0h-348v1434h348v-1434zM195 1372v-1311h225v1311h-225zM461 1577h-277l-250 301h328zM59 1821l152 -187h143l-123 187h-172z" />
<glyph unicode="&#xcd;" horiz-adv-x="614" d="M481 0h-348v1434h348v-1434zM195 1372v-1311h225v1311h-225zM434 1577h-277l199 301h328zM387 1821l-125 -187h143l154 187h-172z" />
<glyph unicode="&#xce;" horiz-adv-x="614" d="M481 0h-348v1434h348v-1434zM195 1372v-1311h225v1311h-225zM205 1577h-287l250 301h279l250 -301h-287l-103 121zM197 1821l-156 -187h135l107 125h49l107 -125h135l-154 187h-223z" />
<glyph unicode="&#xcf;" horiz-adv-x="614" d="M481 0h-348v1434h348v-1434zM195 1372v-1311h225v1311h-225zM-12.5 1609q-45.5 46 -45.5 117q0 72 45.5 118t118.5 46q74 0 119 -46t45 -118t-45 -117.5t-119 -45.5q-73 0 -118.5 46zM389 1609q-45 46 -45 117q0 72 45 118t119 46t119 -46t45 -118t-45.5 -117.5 t-118.5 -45.5q-74 0 -119 46zM180 1652.5q29 28.5 29 73.5q0 47 -29 75t-74 28q-47 0 -74.5 -27.5t-27.5 -75.5q0 -45 27.5 -73.5t74.5 -28.5q45 0 74 28.5zM581.5 1652.5q28.5 28.5 28.5 73.5q0 47 -28.5 75t-73.5 28q-47 0 -75 -27.5t-28 -75.5q0 -45 28 -73.5t75 -28.5 q45 0 73.5 28.5z" />
<glyph unicode="&#xd0;" horiz-adv-x="1503" d="M195 0v573h-164v287h164v574h530q193 0 352.5 -94.5t251.5 -258t92 -364.5t-92 -365t-251.5 -258t-352.5 -94h-530zM725 61q176 0 321.5 86t229.5 235.5t84 334.5q0 184 -84 333.5t-229.5 235.5t-321.5 86h-469v-573h-164v-164h164v-574h469zM481 276v359h254v164h-254 v358h246q113 0 207 -56.5t148.5 -156.5t54.5 -227t-54.5 -227.5t-148.5 -157t-207 -56.5h-246zM727 338q96 0 176 48t126 135t46 196t-46 195.5t-126 135t-176 48.5h-184v-236h254v-287h-254v-235h184z" />
<glyph unicode="&#xd1;" horiz-adv-x="1505" d="M492 0h-349v1434h410l440 -840h21v840h348v-1434h-410l-440 840h-20v-840zM205 1372v-1311h225v840h121l440 -840h309v1311h-225v-840h-121l-440 840h-309zM398 1587q0 131 62.5 204t170.5 73q57 0 131 -31q8 -2 31.5 -11.5t42.5 -9.5q23 0 40 13.5t21 38.5h205 q0 -131 -60.5 -204t-162.5 -73q-35 0 -65.5 8.5t-73.5 22.5q-6 2 -31 11t-45 9q-23 0 -40 -13t-22 -38h-204zM564 1645q27 51 100 51q25 0 58.5 -11.5t39.5 -13.5q29 -10 60.5 -18t56.5 -8q63 0 106 45t54 116h-103q-27 -51 -100 -51q-18 0 -43 7t-49 18q-29 10 -58.5 18 t-54.5 8q-72 0 -115 -44t-55 -117h103z" />
<glyph unicode="&#xd2;" horiz-adv-x="1556" d="M426 75q-160 95 -252 263t-92 379t92 379t252 263t352 95q193 0 352.5 -95t252 -263t92.5 -379t-92.5 -379t-252 -263t-352.5 -95q-192 0 -352 95zM1099.5 128q145.5 87 229.5 240.5t84 348.5t-84 348.5t-229.5 240.5t-321.5 87t-321.5 -87t-229.5 -241t-84 -348 q0 -195 84 -348.5t229.5 -240.5t321.5 -87t321.5 87zM570.5 313.5q-93.5 57.5 -147.5 162t-54 241.5t54 241.5t147.5 162t207.5 57.5q115 0 208 -57.5t147.5 -162t54.5 -241.5t-54.5 -241.5t-147.5 -162t-208 -57.5q-114 0 -207.5 57.5zM955.5 366.5q78.5 49.5 124.5 139.5 t46 211t-46 211t-124.5 139t-177.5 49q-98 0 -177 -49t-125 -139t-46 -211t46 -211t125 -139.5t177 -49.5q99 0 177.5 49.5zM932 1577h-277l-250 301h328zM530 1821l152 -187h143l-123 187h-172z" />
<glyph unicode="&#xd3;" horiz-adv-x="1556" d="M426 75q-160 95 -252 263t-92 379t92 379t252 263t352 95q193 0 352.5 -95t252 -263t92.5 -379t-92.5 -379t-252 -263t-352.5 -95q-192 0 -352 95zM1099.5 128q145.5 87 229.5 240.5t84 348.5t-84 348.5t-229.5 240.5t-321.5 87t-321.5 -87t-229.5 -241t-84 -348 q0 -195 84 -348.5t229.5 -240.5t321.5 -87t321.5 87zM570.5 313.5q-93.5 57.5 -147.5 162t-54 241.5t54 241.5t147.5 162t207.5 57.5q115 0 208 -57.5t147.5 -162t54.5 -241.5t-54.5 -241.5t-147.5 -162t-208 -57.5q-114 0 -207.5 57.5zM955.5 366.5q78.5 49.5 124.5 139.5 t46 211t-46 211t-124.5 139t-177.5 49q-98 0 -177 -49t-125 -139t-46 -211t46 -211t125 -139.5t177 -49.5q99 0 177.5 49.5zM906 1577h-277l199 301h328zM859 1821l-125 -187h143l154 187h-172z" />
<glyph unicode="&#xd4;" horiz-adv-x="1556" d="M426 75q-160 95 -252 263t-92 379t92 379t252 263t352 95q193 0 352.5 -95t252 -263t92.5 -379t-92.5 -379t-252 -263t-352.5 -95q-192 0 -352 95zM1099.5 128q145.5 87 229.5 240.5t84 348.5t-84 348.5t-229.5 240.5t-321.5 87t-321.5 -87t-229.5 -241t-84 -348 q0 -195 84 -348.5t229.5 -240.5t321.5 -87t321.5 87zM570.5 313.5q-93.5 57.5 -147.5 162t-54 241.5t54 241.5t147.5 162t207.5 57.5q115 0 208 -57.5t147.5 -162t54.5 -241.5t-54.5 -241.5t-147.5 -162t-208 -57.5q-114 0 -207.5 57.5zM955.5 366.5q78.5 49.5 124.5 139.5 t46 211t-46 211t-124.5 139t-177.5 49q-98 0 -177 -49t-125 -139t-46 -211t46 -211t125 -139.5t177 -49.5q99 0 177.5 49.5zM676 1577h-287l250 301h279l250 -301h-287l-103 121zM668 1821l-156 -187h135l107 125h49l107 -125h135l-154 187h-223z" />
<glyph unicode="&#xd5;" horiz-adv-x="1556" d="M426 75q-160 95 -252 263t-92 379t92 379t252 263t352 95q193 0 352.5 -95t252 -263t92.5 -379t-92.5 -379t-252 -263t-352.5 -95q-192 0 -352 95zM1099.5 128q145.5 87 229.5 240.5t84 348.5t-84 348.5t-229.5 240.5t-321.5 87t-321.5 -87t-229.5 -241t-84 -348 q0 -195 84 -348.5t229.5 -240.5t321.5 -87t321.5 87zM570.5 313.5q-93.5 57.5 -147.5 162t-54 241.5t54 241.5t147.5 162t207.5 57.5q115 0 208 -57.5t147.5 -162t54.5 -241.5t-54.5 -241.5t-147.5 -162t-208 -57.5q-114 0 -207.5 57.5zM955.5 366.5q78.5 49.5 124.5 139.5 t46 211t-46 211t-124.5 139t-177.5 49q-98 0 -177 -49t-125 -139t-46 -211t46 -211t125 -139.5t177 -49.5q99 0 177.5 49.5zM424 1587q0 131 62.5 204t170.5 73q57 0 131 -31q8 -2 31.5 -11.5t42.5 -9.5q23 0 40 13.5t21 38.5h205q0 -131 -60.5 -204t-162.5 -73 q-35 0 -65.5 8.5t-73.5 22.5q-6 2 -31 11t-45 9q-23 0 -40 -13t-22 -38h-204zM590 1645q27 51 100 51q25 0 58.5 -11.5t39.5 -13.5q29 -10 60.5 -18t56.5 -8q63 0 106 45t54 116h-103q-27 -51 -100 -51q-18 0 -43 7t-49 18q-29 10 -58.5 18t-54.5 8q-72 0 -115 -44t-55 -117 h103z" />
<glyph unicode="&#xd6;" horiz-adv-x="1556" d="M426 75q-160 95 -252 263t-92 379t92 379t252 263t352 95q193 0 352.5 -95t252 -263t92.5 -379t-92.5 -379t-252 -263t-352.5 -95q-192 0 -352 95zM1099.5 128q145.5 87 229.5 240.5t84 348.5t-84 348.5t-229.5 240.5t-321.5 87t-321.5 -87t-229.5 -241t-84 -348 q0 -195 84 -348.5t229.5 -240.5t321.5 -87t321.5 87zM570.5 313.5q-93.5 57.5 -147.5 162t-54 241.5t54 241.5t147.5 162t207.5 57.5q115 0 208 -57.5t147.5 -162t54.5 -241.5t-54.5 -241.5t-147.5 -162t-208 -57.5q-114 0 -207.5 57.5zM955.5 366.5q78.5 49.5 124.5 139.5 t46 211t-46 211t-124.5 139t-177.5 49q-98 0 -177 -49t-125 -139t-46 -211t46 -211t125 -139.5t177 -49.5q99 0 177.5 49.5zM458.5 1609q-45.5 46 -45.5 117q0 72 45.5 118t118.5 46q74 0 119 -46t45 -118t-45 -117.5t-119 -45.5q-73 0 -118.5 46zM860 1609q-45 46 -45 117 q0 72 45 118t119 46t119 -46t45 -118t-45.5 -117.5t-118.5 -45.5q-74 0 -119 46zM651 1652.5q29 28.5 29 73.5q0 47 -29 75t-74 28q-47 0 -74.5 -27.5t-27.5 -75.5q0 -45 27.5 -73.5t74.5 -28.5q45 0 74 28.5zM1052.5 1652.5q28.5 28.5 28.5 73.5q0 47 -28.5 75t-73.5 28 q-47 0 -75 -27.5t-28 -75.5q0 -45 28 -73.5t75 -28.5q45 0 73.5 28.5z" />
<glyph unicode="&#xd7;" horiz-adv-x="1134" d="M567 375l-237 -250l-219 219l237 250l-237 250l219 219l237 -250l238 250l219 -219l-238 -250l238 -250l-219 -219zM197 348l133 -133l237 246l238 -246l133 133l-238 246l238 246l-133 133l-238 -246l-237 246l-133 -133l237 -246z" />
<glyph unicode="&#xd8;" horiz-adv-x="1556" d="M313 158q-111 98 -173 243.5t-62 315.5q0 211 93 379t254 263t355 95q109 0 207 -31l41 82h352l-127 -235q109 -100 168.5 -242.5t59.5 -310.5q0 -211 -93.5 -379t-253 -263t-354.5 -95q-109 0 -200 28l-39 -80h-353zM293 -10h209l47 94q106 -43 231 -43q176 0 322.5 87 t231.5 240.5t85 348.5q0 168 -64.5 308t-178.5 230l100 189h-209l-49 -96q-117 45 -238 45q-178 0 -324.5 -87t-231.5 -241t-85 -348q0 -172 67.5 -313.5t184.5 -229.5zM492 377q-59 61 -92 148t-33 192q0 137 54 241.5t148.5 162t210.5 57.5q70 0 138 -25zM825 1112 q-18 4 -45 4q-98 0 -179 -49t-127 -139t-46 -211q0 -123 53 -225zM649 276l426 775q55 -61 86 -146.5t31 -187.5q0 -137 -54.5 -241.5t-148.5 -162t-209 -57.5q-68 0 -131 20zM958.5 366.5q79.5 49.5 125.5 140.5t46 210q0 123 -49 215l-338 -613q12 -2 37 -2 q99 0 178.5 49.5z" />
<glyph unicode="&#xd9;" horiz-adv-x="1474" d="M418 54.5q-137 74.5 -211 213t-74 326.5v840h348v-840q0 -121 74 -199t182 -78q109 0 182.5 78t73.5 199v840h348v-840q0 -188 -73.5 -326.5t-210.5 -213t-320 -74.5q-182 0 -319 74.5zM1134.5 188.5q145.5 147.5 145.5 405.5v778h-225v-778q0 -98 -42 -175t-115 -120 t-161 -43t-160.5 43t-114.5 120t-42 175v778h-225v-778q0 -258 145 -405.5t397 -147.5t397.5 147.5zM891 1577h-277l-250 301h328zM489 1821l152 -187h143l-123 187h-172z" />
<glyph unicode="&#xda;" horiz-adv-x="1474" d="M418 54.5q-137 74.5 -211 213t-74 326.5v840h348v-840q0 -121 74 -199t182 -78q109 0 182.5 78t73.5 199v840h348v-840q0 -188 -73.5 -326.5t-210.5 -213t-320 -74.5q-182 0 -319 74.5zM1134.5 188.5q145.5 147.5 145.5 405.5v778h-225v-778q0 -98 -42 -175t-115 -120 t-161 -43t-160.5 43t-114.5 120t-42 175v778h-225v-778q0 -258 145 -405.5t397 -147.5t397.5 147.5zM865 1577h-277l199 301h328zM818 1821l-125 -187h143l154 187h-172z" />
<glyph unicode="&#xdb;" horiz-adv-x="1474" d="M418 54.5q-137 74.5 -211 213t-74 326.5v840h348v-840q0 -121 74 -199t182 -78q109 0 182.5 78t73.5 199v840h348v-840q0 -188 -73.5 -326.5t-210.5 -213t-320 -74.5q-182 0 -319 74.5zM1134.5 188.5q145.5 147.5 145.5 405.5v778h-225v-778q0 -98 -42 -175t-115 -120 t-161 -43t-160.5 43t-114.5 120t-42 175v778h-225v-778q0 -258 145 -405.5t397 -147.5t397.5 147.5zM635 1577h-287l250 301h279l250 -301h-287l-103 121zM627 1821l-156 -187h135l107 125h49l107 -125h135l-154 187h-223z" />
<glyph unicode="&#xdc;" horiz-adv-x="1474" d="M418 54.5q-137 74.5 -211 213t-74 326.5v840h348v-840q0 -121 74 -199t182 -78q109 0 182.5 78t73.5 199v840h348v-840q0 -188 -73.5 -326.5t-210.5 -213t-320 -74.5q-182 0 -319 74.5zM1134.5 188.5q145.5 147.5 145.5 405.5v778h-225v-778q0 -98 -42 -175t-115 -120 t-161 -43t-160.5 43t-114.5 120t-42 175v778h-225v-778q0 -258 145 -405.5t397 -147.5t397.5 147.5zM417.5 1609q-45.5 46 -45.5 117q0 72 45.5 118t118.5 46q74 0 119 -46t45 -118t-45 -117.5t-119 -45.5q-73 0 -118.5 46zM819 1609q-45 46 -45 117q0 72 45 118t119 46 t119 -46t45 -118t-45.5 -117.5t-118.5 -45.5q-74 0 -119 46zM610 1652.5q29 28.5 29 73.5q0 47 -29 75t-74 28q-47 0 -74.5 -27.5t-27.5 -75.5q0 -45 27.5 -73.5t74.5 -28.5q45 0 74 28.5zM1011.5 1652.5q28.5 28.5 28.5 73.5q0 47 -28.5 75t-73.5 28q-47 0 -75 -27.5 t-28 -75.5q0 -45 28 -73.5t75 -28.5q45 0 73.5 28.5z" />
<glyph unicode="&#xdd;" horiz-adv-x="1310" d="M829 0h-348v481l-512 953h389l287 -553h21l286 553h389l-512 -953v-481zM543 496v-435h225v435l471 876h-248l-286 -553h-99l-287 553h-247zM783 1577h-277l199 301h328zM736 1821l-125 -187h143l154 187h-172z" />
<glyph unicode="&#xde;" horiz-adv-x="1464" d="M143 0v1434h349v-246h419q221 0 351.5 -128t130.5 -343t-130 -343t-352 -128h-419v-246h-349zM205 61h225v246h481q197 0 308.5 109.5t111.5 300.5q0 190 -111.5 299.5t-308.5 109.5h-481v246h-225v-1311zM430 512v410h461q94 0 154.5 -58.5t60.5 -146.5t-60.5 -146.5 t-154.5 -58.5h-461zM891 573q68 0 110.5 41t42.5 103q0 61 -43 102t-110 41h-399v-287h399z" />
<glyph unicode="&#xdf;" horiz-adv-x="1228" d="M119 1004q0 133 60.5 235t176 158.5t275.5 56.5q154 0 267.5 -54t172.5 -147.5t59 -208.5t-50 -190.5t-124 -105.5v-11q86 -39 145.5 -123t59.5 -204q0 -186 -118.5 -298t-331.5 -112h-144v297h82q78 0 121 37t43 106q0 70 -44 112t-120 42h-82v297h72q68 0 105.5 36 t37.5 97q0 55 -38.5 89t-112.5 34q-164 0 -164 -143v-1004h-348v1004zM180 61h226v943q0 96 58 150t167 54q100 0 156.5 -51t56.5 -133q0 -86 -54.5 -140.5t-140.5 -54.5h-20v-174h20q102 0 163.5 -59t61.5 -156q0 -94 -61 -149t-164 -55h-20v-175h82q184 0 286.5 94.5 t102.5 254.5q0 115 -59.5 187.5t-145.5 98.5v92q74 18 124 82t50 174q0 96 -51 176t-150.5 126.5t-236.5 46.5q-215 0 -333 -105.5t-118 -283.5v-943z" />
<glyph unicode="&#xe0;" horiz-adv-x="1153" d="M251 23q-89 43 -135 117.5t-46 166.5q0 152 110.5 245t319.5 93h215v21q0 61 -38 97t-106 36q-61 0 -90.5 -19.5t-52.5 -52.5h-317q16 147 136 242.5t324 95.5q225 0 348 -108.5t123 -288.5v-668h-266l-20 92h-11q-43 -47 -116.5 -79.5t-169.5 -32.5q-119 0 -208 43z M616.5 73.5q67.5 32.5 102.5 80.5h86l20 -93h156v607q0 154 -105.5 245t-304.5 91q-162 0 -258 -63.5t-129 -156.5h207q31 37 73 56.5t107 19.5q94 0 149.5 -53t55.5 -141v-80h-276q-182 0 -275.5 -77t-93.5 -202q0 -115 88 -190.5t240 -75.5q90 0 157.5 32.5zM385 218 q-49 44 -49 110q0 68 53 109.5t152 41.5h235v-59q0 -111 -69.5 -178.5t-186.5 -67.5q-86 0 -135 44zM662.5 286q52.5 50 52.5 134h-174q-70 0 -107 -25.5t-37 -66.5t33 -66.5t90 -25.5q90 0 142.5 50zM732 1184h-277l-250 301h328zM330 1427l152 -186h143l-123 186h-172z " />
<glyph unicode="&#xe1;" horiz-adv-x="1153" d="M251 23q-89 43 -135 117.5t-46 166.5q0 152 110.5 245t319.5 93h215v21q0 61 -38 97t-106 36q-61 0 -90.5 -19.5t-52.5 -52.5h-317q16 147 136 242.5t324 95.5q225 0 348 -108.5t123 -288.5v-668h-266l-20 92h-11q-43 -47 -116.5 -79.5t-169.5 -32.5q-119 0 -208 43z M616.5 73.5q67.5 32.5 102.5 80.5h86l20 -93h156v607q0 154 -105.5 245t-304.5 91q-162 0 -258 -63.5t-129 -156.5h207q31 37 73 56.5t107 19.5q94 0 149.5 -53t55.5 -141v-80h-276q-182 0 -275.5 -77t-93.5 -202q0 -115 88 -190.5t240 -75.5q90 0 157.5 32.5zM385 218 q-49 44 -49 110q0 68 53 109.5t152 41.5h235v-59q0 -111 -69.5 -178.5t-186.5 -67.5q-86 0 -135 44zM662.5 286q52.5 50 52.5 134h-174q-70 0 -107 -25.5t-37 -66.5t33 -66.5t90 -25.5q90 0 142.5 50zM733 1184h-277l199 301h328zM686 1427l-125 -186h143l154 186h-172z" />
<glyph unicode="&#xe2;" horiz-adv-x="1153" d="M251 23q-89 43 -135 117.5t-46 166.5q0 152 110.5 245t319.5 93h215v21q0 61 -38 97t-106 36q-61 0 -90.5 -19.5t-52.5 -52.5h-317q16 147 136 242.5t324 95.5q225 0 348 -108.5t123 -288.5v-668h-266l-20 92h-11q-43 -47 -116.5 -79.5t-169.5 -32.5q-119 0 -208 43z M616.5 73.5q67.5 32.5 102.5 80.5h86l20 -93h156v607q0 154 -105.5 245t-304.5 91q-162 0 -258 -63.5t-129 -156.5h207q31 37 73 56.5t107 19.5q94 0 149.5 -53t55.5 -141v-80h-276q-182 0 -275.5 -77t-93.5 -202q0 -115 88 -190.5t240 -75.5q90 0 157.5 32.5zM385 218 q-49 44 -49 110q0 68 53 109.5t152 41.5h235v-59q0 -111 -69.5 -178.5t-186.5 -67.5q-86 0 -135 44zM662.5 286q52.5 50 52.5 134h-174q-70 0 -107 -25.5t-37 -66.5t33 -66.5t90 -25.5q90 0 142.5 50zM481 1184h-287l250 301h279l250 -301h-287l-103 121zM473 1427 l-156 -186h135l107 125h49l107 -125h135l-154 186h-223z" />
<glyph unicode="&#xe3;" horiz-adv-x="1153" d="M251 23q-89 43 -135 117.5t-46 166.5q0 152 110.5 245t319.5 93h215v21q0 61 -38 97t-106 36q-61 0 -90.5 -19.5t-52.5 -52.5h-317q16 147 136 242.5t324 95.5q225 0 348 -108.5t123 -288.5v-668h-266l-20 92h-11q-43 -47 -116.5 -79.5t-169.5 -32.5q-119 0 -208 43z M616.5 73.5q67.5 32.5 102.5 80.5h86l20 -93h156v607q0 154 -105.5 245t-304.5 91q-162 0 -258 -63.5t-129 -156.5h207q31 37 73 56.5t107 19.5q94 0 149.5 -53t55.5 -141v-80h-276q-182 0 -275.5 -77t-93.5 -202q0 -115 88 -190.5t240 -75.5q90 0 157.5 32.5zM385 218 q-49 44 -49 110q0 68 53 109.5t152 41.5h235v-59q0 -111 -69.5 -178.5t-186.5 -67.5q-86 0 -135 44zM662.5 286q52.5 50 52.5 134h-174q-70 0 -107 -25.5t-37 -66.5t33 -66.5t90 -25.5q90 0 142.5 50zM229 1196q0 131 62.5 202.5t171.5 71.5q57 0 131 -30q8 -2 31.5 -11.5 t41.5 -9.5q23 0 40.5 13.5t21.5 37.5h205q0 -129 -60.5 -201.5t-163.5 -72.5q-35 0 -65.5 8t-73.5 23q-6 2 -30.5 11t-45.5 9q-23 0 -40 -13t-21 -38h-205zM395 1253q27 51 100 52q25 0 58.5 -11.5t40.5 -13.5q29 -10 60.5 -18.5t55.5 -8.5q63 0 106.5 44t53.5 116h-102 q-27 -51 -101 -51q-18 0 -42.5 7t-49.5 17q-29 10 -58.5 18.5t-53.5 8.5q-72 0 -115 -44t-55 -116h102z" />
<glyph unicode="&#xe4;" horiz-adv-x="1153" d="M251 23q-89 43 -135 117.5t-46 166.5q0 152 110.5 245t319.5 93h215v21q0 61 -38 97t-106 36q-61 0 -90.5 -19.5t-52.5 -52.5h-317q16 147 136 242.5t324 95.5q225 0 348 -108.5t123 -288.5v-668h-266l-20 92h-11q-43 -47 -116.5 -79.5t-169.5 -32.5q-119 0 -208 43z M616.5 73.5q67.5 32.5 102.5 80.5h86l20 -93h156v607q0 154 -105.5 245t-304.5 91q-162 0 -258 -63.5t-129 -156.5h207q31 37 73 56.5t107 19.5q94 0 149.5 -53t55.5 -141v-80h-276q-182 0 -275.5 -77t-93.5 -202q0 -115 88 -190.5t240 -75.5q90 0 157.5 32.5zM385 218 q-49 44 -49 110q0 68 53 109.5t152 41.5h235v-59q0 -111 -69.5 -178.5t-186.5 -67.5q-86 0 -135 44zM662.5 286q52.5 50 52.5 134h-174q-70 0 -107 -25.5t-37 -66.5t33 -66.5t90 -25.5q90 0 142.5 50zM264.5 1213.5q-45.5 46.5 -45.5 117.5q0 72 45.5 118t118.5 46 q74 0 119 -46t45 -118t-45 -118t-119 -46q-73 0 -118.5 46.5zM666 1213.5q-45 46.5 -45 117.5q0 72 45 118t119 46t119 -46t45 -118t-45.5 -118t-118.5 -46q-74 0 -119 46.5zM457 1257.5q29 28.5 29 73.5q0 47 -29 75t-74 28q-47 0 -74.5 -28t-27.5 -75q0 -45 27.5 -73.5 t74.5 -28.5q45 0 74 28.5zM858.5 1257.5q28.5 28.5 28.5 73.5q0 47 -28.5 75t-73.5 28q-47 0 -75 -28t-28 -75q0 -45 28 -73.5t75 -28.5q45 0 73.5 28.5z" />
<glyph unicode="&#xe5;" horiz-adv-x="1153" d="M251 23q-89 43 -135 117.5t-46 166.5q0 152 110.5 245t319.5 93h215v21q0 61 -38 97t-106 36q-61 0 -90.5 -19.5t-52.5 -52.5h-317q16 147 136 242.5t324 95.5q225 0 348 -108.5t123 -288.5v-668h-266l-20 92h-11q-43 -47 -116.5 -79.5t-169.5 -32.5q-119 0 -208 43z M616.5 73.5q67.5 32.5 102.5 80.5h86l20 -93h156v607q0 154 -105.5 245t-304.5 91q-162 0 -258 -63.5t-129 -156.5h207q31 37 73 56.5t107 19.5q94 0 149.5 -53t55.5 -141v-80h-276q-182 0 -275.5 -77t-93.5 -202q0 -115 88 -190.5t240 -75.5q90 0 157.5 32.5zM385 218 q-49 44 -49 110q0 68 53 109.5t152 41.5h235v-59q0 -111 -69.5 -178.5t-186.5 -67.5q-86 0 -135 44zM662.5 286q52.5 50 52.5 134h-174q-70 0 -107 -25.5t-37 -66.5t33 -66.5t90 -25.5q90 0 142.5 50zM414.5 1189.5q-65.5 63.5 -65.5 162.5q0 98 65.5 161.5t169.5 63.5 t170 -63.5t66 -161.5t-66 -162t-170 -64t-169.5 63.5zM713 1231q49 47 49 121t-49 121t-129 47t-129 -47.5t-49 -120.5q0 -74 49 -121t129 -47t129 47zM506 1275q-31 32 -31 77q0 47 31 77.5t78 30.5q45 0 77 -30.5t32 -77.5q0 -45 -32 -77t-77 -32q-47 0 -78 32z M621 1314.5q14 14.5 14 37.5t-14 37t-37 14t-37 -14.5t-14 -36.5q0 -23 14.5 -37.5t36.5 -14.5q23 0 37 14.5z" />
<glyph unicode="&#xe6;" horiz-adv-x="1861" d="M253 23q-89 43 -135 117.5t-46 166.5q0 152 110.5 245t319.5 93h215v21q0 61 -38 97t-106 36q-61 0 -90.5 -19.5t-52.5 -52.5h-317q16 145 131.5 241.5t308.5 96.5q125 0 220 -48t147 -116q53 68 145 116t213 48q141 0 259 -68.5t185.5 -188.5t67.5 -265q0 -68 -10 -103 h-697q8 -84 63.5 -139t131.5 -55q55 0 94 20.5t60 50.5h327q-47 -141 -169 -239t-312 -98q-131 0 -231.5 50t-157.5 124q-61 -74 -172 -124t-256 -50q-119 0 -208 43zM738.5 107.5q103.5 66.5 144.5 138.5h12q41 -72 136 -138.5t247 -66.5q113 0 195.5 40t131 91t62.5 88 h-201q-31 -31 -72.5 -53.5t-115.5 -22.5q-72 0 -131.5 39t-95 111t-35.5 164h713v45q0 129 -59.5 234.5t-163 166t-228.5 60.5q-137 0 -225 -62.5t-127 -132.5h-13q-39 70 -129 132.5t-231 62.5q-156 0 -244 -62.5t-123 -157.5h207q31 37 73 56.5t107 19.5q94 0 149.5 -53 t55.5 -141v-80h-276q-182 0 -275.5 -77t-93.5 -202q0 -115 88 -190.5t240 -75.5q174 0 277.5 66.5zM1014 588q16 131 86.5 206.5t177.5 75.5q106 0 177 -75.5t87 -206.5h-528zM1466 645q-53 164 -188 164t-188 -164h376zM387 218q-49 44 -49 110q0 68 53 109.5t152 41.5h235 v-59q0 -111 -69.5 -178.5t-186.5 -67.5q-86 0 -135 44zM664.5 286q52.5 50 52.5 134h-174q-70 0 -107 -25.5t-37 -66.5t33 -66.5t90 -25.5q90 0 142.5 50z" />
<glyph unicode="&#xe7;" horiz-adv-x="1200" d="M428 -483v194h92q33 0 47.5 9.5t14.5 31.5q0 41 -62 41h-71v105l40 94q-188 39 -302.5 182t-114.5 348q0 158 69.5 281t192.5 192.5t280 69.5q225 0 356.5 -125t166.5 -305h-338q-20 49 -64.5 86t-120.5 37q-94 0 -154.5 -64.5t-60.5 -171.5q0 -106 60.5 -170.5 t154.5 -64.5q76 0 120 36.5t65 86.5h338q-29 -154 -134.5 -275t-287.5 -147l-27 -70q57 -16 98 -65.5t41 -128.5q0 -88 -70.5 -147.5t-195.5 -59.5h-133zM561 -426q98 0 153.5 43t55.5 107q0 66 -48 109.5t-110 43.5l62 166q174 16 258 107.5t127 201.5h-219 q-29 -51 -85.5 -89t-140.5 -38q-76 0 -139 38t-100 105.5t-37 153.5t37 153.5t100.5 105.5t138.5 38q84 0 140.5 -38t85.5 -89h219q-43 117 -143.5 214.5t-301.5 97.5q-141 0 -250.5 -62.5t-170 -172.5t-60.5 -247q0 -129 54.5 -234.5t152.5 -170t227 -74.5l-61 -156v-37 q63 0 98 -25.5t35 -72.5q0 -98 -119 -98h-35v-80h76z" />
<glyph unicode="&#xe8;" horiz-adv-x="1222" d="M334 49.5q-123 69.5 -192.5 192.5t-69.5 280q0 158 69.5 281t192.5 192.5t280 69.5q152 0 275 -68.5t192.5 -187.5t69.5 -266q0 -68 -10 -103h-742q8 -86 66.5 -140t148.5 -54q102 0 174 71h332q-57 -141 -186 -239t-320 -98q-157 0 -280 69.5zM880.5 115.5 q102.5 74.5 143.5 144.5h-205q-90 -76 -205 -76q-131 0 -206.5 84t-75.5 230h758v45q0 129 -61.5 234.5t-170 166t-244.5 60.5q-139 0 -248.5 -61.5t-171 -171t-61.5 -249.5q0 -139 61.5 -248.5t171 -171t248.5 -61.5q164 0 266.5 74.5zM330 588q18 135 96 208.5t188 73.5 q111 0 189 -73.5t96 -208.5h-569zM819 645q-27 82 -76 123t-129 41t-130 -41t-76 -123h411zM762 1184h-277l-250 301h328zM360 1427l152 -186h143l-123 186h-172z" />
<glyph unicode="&#xe9;" horiz-adv-x="1222" d="M334 49.5q-123 69.5 -192.5 192.5t-69.5 280q0 158 69.5 281t192.5 192.5t280 69.5q152 0 275 -68.5t192.5 -187.5t69.5 -266q0 -68 -10 -103h-742q8 -86 66.5 -140t148.5 -54q102 0 174 71h332q-57 -141 -186 -239t-320 -98q-157 0 -280 69.5zM880.5 115.5 q102.5 74.5 143.5 144.5h-205q-90 -76 -205 -76q-131 0 -206.5 84t-75.5 230h758v45q0 129 -61.5 234.5t-170 166t-244.5 60.5q-139 0 -248.5 -61.5t-171 -171t-61.5 -249.5q0 -139 61.5 -248.5t171 -171t248.5 -61.5q164 0 266.5 74.5zM330 588q18 135 96 208.5t188 73.5 q111 0 189 -73.5t96 -208.5h-569zM819 645q-27 82 -76 123t-129 41t-130 -41t-76 -123h411zM764 1184h-277l199 301h328zM717 1427l-125 -186h143l154 186h-172z" />
<glyph unicode="&#xea;" horiz-adv-x="1222" d="M334 49.5q-123 69.5 -192.5 192.5t-69.5 280q0 158 69.5 281t192.5 192.5t280 69.5q152 0 275 -68.5t192.5 -187.5t69.5 -266q0 -68 -10 -103h-742q8 -86 66.5 -140t148.5 -54q102 0 174 71h332q-57 -141 -186 -239t-320 -98q-157 0 -280 69.5zM880.5 115.5 q102.5 74.5 143.5 144.5h-205q-90 -76 -205 -76q-131 0 -206.5 84t-75.5 230h758v45q0 129 -61.5 234.5t-170 166t-244.5 60.5q-139 0 -248.5 -61.5t-171 -171t-61.5 -249.5q0 -139 61.5 -248.5t171 -171t248.5 -61.5q164 0 266.5 74.5zM330 588q18 135 96 208.5t188 73.5 q111 0 189 -73.5t96 -208.5h-569zM819 645q-27 82 -76 123t-129 41t-130 -41t-76 -123h411zM512 1184h-287l250 301h279l250 -301h-287l-103 121zM504 1427l-156 -186h135l107 125h49l107 -125h135l-154 186h-223z" />
<glyph unicode="&#xeb;" horiz-adv-x="1222" d="M334 49.5q-123 69.5 -192.5 192.5t-69.5 280q0 158 69.5 281t192.5 192.5t280 69.5q152 0 275 -68.5t192.5 -187.5t69.5 -266q0 -68 -10 -103h-742q8 -86 66.5 -140t148.5 -54q102 0 174 71h332q-57 -141 -186 -239t-320 -98q-157 0 -280 69.5zM880.5 115.5 q102.5 74.5 143.5 144.5h-205q-90 -76 -205 -76q-131 0 -206.5 84t-75.5 230h758v45q0 129 -61.5 234.5t-170 166t-244.5 60.5q-139 0 -248.5 -61.5t-171 -171t-61.5 -249.5q0 -139 61.5 -248.5t171 -171t248.5 -61.5q164 0 266.5 74.5zM330 588q18 135 96 208.5t188 73.5 q111 0 189 -73.5t96 -208.5h-569zM819 645q-27 82 -76 123t-129 41t-130 -41t-76 -123h411zM294.5 1213.5q-45.5 46.5 -45.5 117.5q0 72 45.5 118t118.5 46q74 0 119 -46t45 -118t-45 -118t-119 -46q-73 0 -118.5 46.5zM696 1213.5q-45 46.5 -45 117.5q0 72 45 118t119 46 t119 -46t45 -118t-45.5 -118t-118.5 -46q-74 0 -119 46.5zM487 1257.5q29 28.5 29 73.5q0 47 -29 75t-74 28q-47 0 -74.5 -28t-27.5 -75q0 -45 27.5 -73.5t74.5 -28.5q45 0 74 28.5zM888.5 1257.5q28.5 28.5 28.5 73.5q0 47 -28.5 75t-73.5 28q-47 0 -75 -28t-28 -75 q0 -45 28 -73.5t75 -28.5q45 0 73.5 28.5z" />
<glyph unicode="&#xec;" horiz-adv-x="555" d="M442 0h-329v1044h329v-1044zM174 983v-922h207v922h-207zM426 1184h-277l-250 301h328zM24 1427l152 -186h143l-123 186h-172z" />
<glyph unicode="&#xed;" horiz-adv-x="555" d="M442 0h-329v1044h329v-1044zM174 983v-922h207v922h-207zM428 1184h-277l199 301h328zM381 1427l-125 -186h143l154 186h-172z" />
<glyph unicode="&#xee;" horiz-adv-x="555" d="M442 0h-329v1044h329v-1044zM174 983v-922h207v922h-207zM176 1184h-287l250 301h279l250 -301h-287l-103 121zM168 1427l-156 -186h135l107 125h49l107 -125h135l-154 186h-223z" />
<glyph unicode="&#xef;" horiz-adv-x="555" d="M442 0h-329v1044h329v-1044zM174 983v-922h207v922h-207zM-29 1213.5q-45 46.5 -45 117.5q0 72 45 118t119 46t119 -46t45 -118t-45 -118t-119 -46t-119 46.5zM348 1213.5q-45 46.5 -45 117.5q0 72 45 118t119 46t119 -46t45 -118t-45.5 -118t-118.5 -46q-74 0 -119 46.5 zM163.5 1257.5q28.5 28.5 28.5 73.5q0 47 -28.5 75t-73.5 28q-47 0 -75 -28t-28 -75q0 -45 28 -73.5t75 -28.5q45 0 73.5 28.5zM540.5 1257.5q28.5 28.5 28.5 73.5q0 47 -28.5 75t-73.5 28q-47 0 -75 -28t-28 -75q0 -45 28 -73.5t75 -28.5q45 0 73.5 28.5z" />
<glyph unicode="&#xf0;" horiz-adv-x="1224" d="M329 46.5q-120 66.5 -188.5 180t-68.5 244.5q0 137 60.5 243.5t170 167t250.5 60.5q88 0 149.5 -23.5t96.5 -52.5q-45 109 -168 246l-242 -125l-113 170l189 94q-117 94 -201 135l217 109q78 -39 205 -133l246 123l112 -170l-188 -101q137 -131 212 -303t75 -358 q0 -172 -68.5 -302t-193.5 -200.5t-287 -70.5q-145 0 -265 66.5zM851 103.5q110 62.5 170 178t60 271.5q0 193 -79.5 359.5t-245.5 314.5l205 110l-50 72l-227 -117q-121 92 -209 135l-90 -45q59 -37 115.5 -82t70.5 -59l-209 -106l48 -70l231 121q94 -94 157.5 -193.5 t82.5 -187.5h-93q-35 27 -95 51.5t-140 24.5q-125 0 -220 -52.5t-147.5 -144.5t-52.5 -213q0 -117 60.5 -215t166 -156.5t234.5 -58.5q147 0 257 62.5zM422 297q-74 72 -74 174t74 174t182 72q109 0 182.5 -72t73.5 -174t-73.5 -174t-182.5 -72q-108 0 -182 72zM743.5 340 q55.5 53 55.5 131t-55.5 131t-139.5 53t-139 -53t-55 -131t55 -131t139 -53t139.5 53z" />
<glyph unicode="&#xf1;" horiz-adv-x="1234" d="M123 0v1044h266l21 -92h10q43 43 113.5 78t173.5 35q121 0 216 -54.5t148 -151.5t53 -224v-635h-327v573q0 78 -48.5 126.5t-123.5 48.5q-76 0 -125 -48.5t-49 -126.5v-573h-328zM184 61h205v512q0 102 66.5 169t169.5 67q102 0 167.5 -66.5t65.5 -169.5v-512h205v574 q0 166 -98.5 267.5t-257.5 101.5q-100 0 -159 -32t-108 -81h-80l-20 92h-156v-922zM266 1196q0 131 62.5 202.5t171.5 71.5q57 0 131 -30q8 -2 31.5 -11.5t41.5 -9.5q23 0 40.5 13.5t21.5 37.5h205q0 -129 -60.5 -201.5t-163.5 -72.5q-35 0 -65.5 8t-73.5 23q-6 2 -30.5 11 t-45.5 9q-23 0 -40 -13t-21 -38h-205zM432 1253q27 51 100 52q25 0 58.5 -11.5t40.5 -13.5q29 -10 60.5 -18.5t55.5 -8.5q63 0 106.5 44t53.5 116h-102q-27 -51 -101 -51q-18 0 -42.5 7t-49.5 17q-29 10 -58.5 18.5t-53.5 8.5q-72 0 -115 -44t-55 -116h102z" />
<glyph unicode="&#xf2;" horiz-adv-x="1236" d="M339 50.5q-124 70.5 -195.5 194.5t-71.5 277q0 154 71.5 278t195.5 194.5t279 70.5q156 0 280 -70.5t195.5 -194.5t71.5 -278t-71.5 -277.5t-195.5 -194t-280 -70.5q-155 0 -279 70.5zM866.5 103.5q110.5 62.5 174 172t63.5 246.5t-63.5 247t-174 172.5t-248.5 62.5 q-137 0 -247.5 -62.5t-174 -172.5t-63.5 -247t63.5 -246.5t174 -172t247.5 -62.5q138 0 248.5 62.5zM420 308q-80 83 -80 214t80 214t198 83q119 0 199 -83t80 -214t-80 -214t-199 -83q-118 0 -198 83zM773.5 352.5q62.5 65.5 62.5 169.5t-62.5 170t-155.5 66 q-92 0 -154.5 -65.5t-62.5 -170.5q0 -104 62.5 -169.5t154.5 -65.5q93 0 155.5 65.5zM766 1184h-277l-250 301h328zM364 1427l152 -186h143l-123 186h-172z" />
<glyph unicode="&#xf3;" horiz-adv-x="1236" d="M339 50.5q-124 70.5 -195.5 194.5t-71.5 277q0 154 71.5 278t195.5 194.5t279 70.5q156 0 280 -70.5t195.5 -194.5t71.5 -278t-71.5 -277.5t-195.5 -194t-280 -70.5q-155 0 -279 70.5zM866.5 103.5q110.5 62.5 174 172t63.5 246.5t-63.5 247t-174 172.5t-248.5 62.5 q-137 0 -247.5 -62.5t-174 -172.5t-63.5 -247t63.5 -246.5t174 -172t247.5 -62.5q138 0 248.5 62.5zM420 308q-80 83 -80 214t80 214t198 83q119 0 199 -83t80 -214t-80 -214t-199 -83q-118 0 -198 83zM773.5 352.5q62.5 65.5 62.5 169.5t-62.5 170t-155.5 66 q-92 0 -154.5 -65.5t-62.5 -170.5q0 -104 62.5 -169.5t154.5 -65.5q93 0 155.5 65.5zM768 1184h-277l199 301h328zM721 1427l-125 -186h143l154 186h-172z" />
<glyph unicode="&#xf4;" horiz-adv-x="1236" d="M339 50.5q-124 70.5 -195.5 194.5t-71.5 277q0 154 71.5 278t195.5 194.5t279 70.5q156 0 280 -70.5t195.5 -194.5t71.5 -278t-71.5 -277.5t-195.5 -194t-280 -70.5q-155 0 -279 70.5zM866.5 103.5q110.5 62.5 174 172t63.5 246.5t-63.5 247t-174 172.5t-248.5 62.5 q-137 0 -247.5 -62.5t-174 -172.5t-63.5 -247t63.5 -246.5t174 -172t247.5 -62.5q138 0 248.5 62.5zM420 308q-80 83 -80 214t80 214t198 83q119 0 199 -83t80 -214t-80 -214t-199 -83q-118 0 -198 83zM773.5 352.5q62.5 65.5 62.5 169.5t-62.5 170t-155.5 66 q-92 0 -154.5 -65.5t-62.5 -170.5q0 -104 62.5 -169.5t154.5 -65.5q93 0 155.5 65.5zM516 1184h-287l250 301h279l250 -301h-287l-103 121zM508 1427l-156 -186h135l107 125h49l107 -125h135l-154 186h-223z" />
<glyph unicode="&#xf5;" horiz-adv-x="1236" d="M339 50.5q-124 70.5 -195.5 194.5t-71.5 277q0 154 71.5 278t195.5 194.5t279 70.5q156 0 280 -70.5t195.5 -194.5t71.5 -278t-71.5 -277.5t-195.5 -194t-280 -70.5q-155 0 -279 70.5zM866.5 103.5q110.5 62.5 174 172t63.5 246.5t-63.5 247t-174 172.5t-248.5 62.5 q-137 0 -247.5 -62.5t-174 -172.5t-63.5 -247t63.5 -246.5t174 -172t247.5 -62.5q138 0 248.5 62.5zM420 308q-80 83 -80 214t80 214t198 83q119 0 199 -83t80 -214t-80 -214t-199 -83q-118 0 -198 83zM773.5 352.5q62.5 65.5 62.5 169.5t-62.5 170t-155.5 66 q-92 0 -154.5 -65.5t-62.5 -170.5q0 -104 62.5 -169.5t154.5 -65.5q93 0 155.5 65.5zM264 1196q0 131 62.5 202.5t171.5 71.5q57 0 131 -30q8 -2 31.5 -11.5t41.5 -9.5q23 0 40.5 13.5t21.5 37.5h205q0 -129 -60.5 -201.5t-163.5 -72.5q-35 0 -65.5 8t-73.5 23 q-6 2 -30.5 11t-45.5 9q-23 0 -40 -13t-21 -38h-205zM430 1253q27 51 100 52q25 0 58.5 -11.5t40.5 -13.5q29 -10 60.5 -18.5t55.5 -8.5q63 0 106.5 44t53.5 116h-102q-27 -51 -101 -51q-18 0 -42.5 7t-49.5 17q-29 10 -58.5 18.5t-53.5 8.5q-72 0 -115 -44t-55 -116h102z " />
<glyph unicode="&#xf6;" horiz-adv-x="1236" d="M339 50.5q-124 70.5 -195.5 194.5t-71.5 277q0 154 71.5 278t195.5 194.5t279 70.5q156 0 280 -70.5t195.5 -194.5t71.5 -278t-71.5 -277.5t-195.5 -194t-280 -70.5q-155 0 -279 70.5zM866.5 103.5q110.5 62.5 174 172t63.5 246.5t-63.5 247t-174 172.5t-248.5 62.5 q-137 0 -247.5 -62.5t-174 -172.5t-63.5 -247t63.5 -246.5t174 -172t247.5 -62.5q138 0 248.5 62.5zM420 308q-80 83 -80 214t80 214t198 83q119 0 199 -83t80 -214t-80 -214t-199 -83q-118 0 -198 83zM773.5 352.5q62.5 65.5 62.5 169.5t-62.5 170t-155.5 66 q-92 0 -154.5 -65.5t-62.5 -170.5q0 -104 62.5 -169.5t154.5 -65.5q93 0 155.5 65.5zM298.5 1213.5q-45.5 46.5 -45.5 117.5q0 72 45.5 118t118.5 46q74 0 119 -46t45 -118t-45 -118t-119 -46q-73 0 -118.5 46.5zM700 1213.5q-45 46.5 -45 117.5q0 72 45 118t119 46t119 -46 t45 -118t-45.5 -118t-118.5 -46q-74 0 -119 46.5zM491 1257.5q29 28.5 29 73.5q0 47 -29 75t-74 28q-47 0 -74.5 -28t-27.5 -75q0 -45 27.5 -73.5t74.5 -28.5q45 0 74 28.5zM892.5 1257.5q28.5 28.5 28.5 73.5q0 47 -28.5 75t-73.5 28q-47 0 -75 -28t-28 -75q0 -45 28 -73.5 t75 -28.5q45 0 73.5 28.5z" />
<glyph unicode="&#xf7;" horiz-adv-x="1126" d="M461 870q-41 41 -41 103q0 61 41 102t102 41t102.5 -41t41.5 -102t-41 -102.5t-103 -41.5q-61 0 -102 41zM621.5 914.5q23.5 23.5 23.5 58.5t-23.5 58.5t-58.5 23.5t-58.5 -23.5t-23.5 -58.5t23.5 -58.5t58.5 -23.5t58.5 23.5zM1026 451h-926v286h926v-286zM162 676v-164 h803v164h-803zM461 113q-41 41 -41 102t41 102t102 41t102.5 -41t41.5 -102t-41 -102t-103 -41q-61 0 -102 41zM621.5 156.5q23.5 23.5 23.5 58.5t-23.5 58.5t-58.5 23.5t-58.5 -23.5t-23.5 -58.5t23.5 -58.5t58.5 -23.5t58.5 23.5z" />
<glyph unicode="&#xf8;" horiz-adv-x="1239" d="M983 936q88 -74 136 -181.5t48 -232.5q0 -154 -71.5 -277.5t-195.5 -194t-279 -70.5q-78 0 -146 18l-39 -70h-276l98 181q-86 70 -135 178t-49 235q0 154 71.5 278t195.5 194.5t280 70.5q84 0 145 -18l39 69h276zM981 1055h-141l-45 -80q-82 29 -174 29 q-137 0 -248 -62.5t-174.5 -172.5t-63.5 -247q0 -125 53.5 -228.5t145.5 -166.5l-74 -137h141l45 80q82 -29 175 -29q137 0 247.5 62.5t174 172t63.5 246.5q0 125 -52.5 227.5t-146.5 168.5zM408 268q-43 37 -74 102.5t-31 151.5q0 94 43 172t116 122t159 44q57 0 98 -16z M629 799h-13q-106 0 -178.5 -78t-72.5 -199q0 -88 34 -143zM522 201l312 575q43 -37 73.5 -102.5t30.5 -151.5q0 -94 -43 -172t-115.5 -122t-158.5 -44q-60 1 -99 17zM625 246q106 0 179 77.5t73 198.5q0 88 -35 144l-230 -420h13z" />
<glyph unicode="&#xf9;" horiz-adv-x="1245" d="M323.5 34q-96.5 54 -149.5 151.5t-53 224.5v634h328v-573q0 -76 49 -125t125 -49t124 48t48 126v573h327v-1044h-266l-20 92h-11q-113 -113 -284 -112q-121 0 -217.5 54zM697.5 72.5q58.5 31.5 107.5 81.5h80l20 -93h156v922h-205v-512q0 -102 -65.5 -168.5t-167.5 -66.5 t-169 66.5t-67 168.5v512h-205v-573q0 -166 99.5 -267.5t259.5 -101.5q98 0 156.5 31.5zM768 1184h-277l-250 301h328zM366 1427l152 -186h143l-123 186h-172z" />
<glyph unicode="&#xfa;" horiz-adv-x="1245" d="M323.5 34q-96.5 54 -149.5 151.5t-53 224.5v634h328v-573q0 -76 49 -125t125 -49t124 48t48 126v573h327v-1044h-266l-20 92h-11q-113 -113 -284 -112q-121 0 -217.5 54zM697.5 72.5q58.5 31.5 107.5 81.5h80l20 -93h156v922h-205v-512q0 -102 -65.5 -168.5t-167.5 -66.5 t-169 66.5t-67 168.5v512h-205v-573q0 -166 99.5 -267.5t259.5 -101.5q98 0 156.5 31.5zM770 1184h-277l199 301h328zM723 1427l-125 -186h143l154 186h-172z" />
<glyph unicode="&#xfb;" horiz-adv-x="1245" d="M323.5 34q-96.5 54 -149.5 151.5t-53 224.5v634h328v-573q0 -76 49 -125t125 -49t124 48t48 126v573h327v-1044h-266l-20 92h-11q-113 -113 -284 -112q-121 0 -217.5 54zM697.5 72.5q58.5 31.5 107.5 81.5h80l20 -93h156v922h-205v-512q0 -102 -65.5 -168.5t-167.5 -66.5 t-169 66.5t-67 168.5v512h-205v-573q0 -166 99.5 -267.5t259.5 -101.5q98 0 156.5 31.5zM518 1184h-287l250 301h279l250 -301h-287l-103 121zM510 1427l-156 -186h135l107 125h49l107 -125h135l-154 186h-223z" />
<glyph unicode="&#xfc;" horiz-adv-x="1245" d="M323.5 34q-96.5 54 -149.5 151.5t-53 224.5v634h328v-573q0 -76 49 -125t125 -49t124 48t48 126v573h327v-1044h-266l-20 92h-11q-113 -113 -284 -112q-121 0 -217.5 54zM697.5 72.5q58.5 31.5 107.5 81.5h80l20 -93h156v922h-205v-512q0 -102 -65.5 -168.5t-167.5 -66.5 t-169 66.5t-67 168.5v512h-205v-573q0 -166 99.5 -267.5t259.5 -101.5q98 0 156.5 31.5zM301.5 1213.5q-45.5 46.5 -45.5 117.5q0 72 45.5 118t118.5 46q74 0 119 -46t45 -118t-45 -118t-119 -46q-73 0 -118.5 46.5zM703 1213.5q-45 46.5 -45 117.5q0 72 45 118t119 46 t119 -46t45 -118t-45.5 -118t-118.5 -46q-74 0 -119 46.5zM494 1257.5q29 28.5 29 73.5q0 47 -29 75t-74 28q-47 0 -74.5 -28t-27.5 -75q0 -45 27.5 -73.5t74.5 -28.5q45 0 74 28.5zM895.5 1257.5q28.5 28.5 28.5 73.5q0 47 -28.5 75t-73.5 28q-47 0 -75 -28t-28 -75 q0 -45 28 -73.5t75 -28.5q45 0 73.5 28.5z" />
<glyph unicode="&#xfd;" horiz-adv-x="1130" d="M123 -410v308h205q47 0 55 30l16 49l-409 1067h348l233 -641h15l202 641h353l-430 -1208q-33 -92 -74 -144t-111.5 -77t-187.5 -25h-215zM338 -348q141 0 205.5 41t101.5 143l408 1147h-217l-205 -641h-103l-233 641h-217l387 -1006l-16 -49q-16 -49 -43 -70.5t-78 -21.5 h-144v-184h154zM721 1184h-277l199 301h328zM674 1427l-125 -186h143l154 186h-172z" />
<glyph unicode="&#xfe;" horiz-adv-x="1286" d="M123 -410v1844h328v-461q33 33 98 62.5t162 29.5q137 0 252.5 -69.5t183 -193.5t67.5 -280t-67.5 -279.5t-183 -193t-252.5 -69.5q-96 0 -162 29.5t-98 62.5v-482h-328zM184 -348h205v481h80q33 -37 95.5 -64.5t146.5 -27.5q121 0 222 61.5t160.5 172t59.5 247.5 t-59.5 248t-161 172.5t-221.5 61.5q-84 0 -146.5 -28t-95.5 -65h-80v461h-205v-1720zM469 308q-80 83 -80 214t80 214t199 83t198.5 -83t79.5 -214t-80 -214t-198 -83q-119 0 -199 83zM822.5 352.5q62.5 65.5 62.5 169.5t-62.5 170t-154.5 66t-154.5 -65.5t-62.5 -170.5 q0 -104 62 -169.5t155 -65.5q92 0 154.5 65.5z" />
<glyph unicode="&#xff;" horiz-adv-x="1130" d="M123 -410v308h205q47 0 55 30l16 49l-409 1067h348l233 -641h15l202 641h353l-430 -1208q-33 -92 -74 -144t-111.5 -77t-187.5 -25h-215zM338 -348q141 0 205.5 41t101.5 143l408 1147h-217l-205 -641h-103l-233 641h-217l387 -1006l-16 -49q-16 -49 -43 -70.5t-78 -21.5 h-144v-184h154zM251.5 1213.5q-45.5 46.5 -45.5 117.5q0 72 45.5 118t118.5 46q74 0 119 -46t45 -118t-45 -118t-119 -46q-73 0 -118.5 46.5zM653 1213.5q-45 46.5 -45 117.5q0 72 45 118t119 46t119 -46t45 -118t-45.5 -118t-118.5 -46q-74 0 -119 46.5zM444 1257.5 q29 28.5 29 73.5q0 47 -29 75t-74 28q-47 0 -74.5 -28t-27.5 -75q0 -45 27.5 -73.5t74.5 -28.5q45 0 74 28.5zM845.5 1257.5q28.5 28.5 28.5 73.5q0 47 -28.5 75t-73.5 28q-47 0 -75 -28t-28 -75q0 -45 28 -73.5t75 -28.5q45 0 73.5 28.5z" />
<glyph unicode="&#x110;" horiz-adv-x="1503" d="M195 0v573h-164v287h164v574h530q193 0 352.5 -94.5t251.5 -258t92 -364.5t-92 -365t-251.5 -258t-352.5 -94h-530zM725 61q176 0 321.5 86t229.5 235.5t84 334.5q0 184 -84 333.5t-229.5 235.5t-321.5 86h-469v-573h-164v-164h164v-574h469zM481 276v359h254v164h-254 v358h246q113 0 207 -56.5t148.5 -156.5t54.5 -227t-54.5 -227.5t-148.5 -157t-207 -56.5h-246zM727 338q96 0 176 48t126 135t46 196t-46 195.5t-126 135t-176 48.5h-184v-236h254v-287h-254v-235h184z" />
<glyph unicode="&#x131;" horiz-adv-x="555" d="M442 0h-329v1044h329v-1044zM174 983v-922h207v922h-207z" />
<glyph unicode="&#x132;" horiz-adv-x="1495" d="M481 0h-348v1434h348v-1434zM195 1372v-1311h225v1311h-225zM634 0v338h308q72 0 71 72v1024h349v-1117q0 -154 -82 -235.5t-236 -81.5h-410zM1044 61q256 0 256 256v1055h-225v-962q0 -63 -35 -98.5t-98 -35.5h-246v-215h348z" />
<glyph unicode="&#x133;" horiz-adv-x="1110" d="M442 0h-329v1044h329v-1044zM174 983v-922h207v922h-207zM154.5 1214.5q-50.5 47.5 -50.5 116.5q0 70 50.5 117t123.5 47q74 0 124.5 -47t50.5 -117t-50.5 -117t-124.5 -47q-73 0 -123.5 47.5zM359.5 1257.5q31.5 28.5 31.5 73.5t-31.5 74t-81.5 29q-49 0 -80.5 -29 t-31.5 -74t31.5 -73.5t80.5 -28.5q50 0 81.5 28.5zM440 -410v308h158q31 0 46 13t15 38v1095h328v-1167q0 -139 -78 -213t-229 -74h-240zM680 -348q127 0 186.5 56t59.5 169v1106h-205v-1034q0 -51 -33 -82t-90 -31h-96v-184h178zM699.5 1214.5q-50.5 47.5 -50.5 116.5 q0 70 50.5 117t123.5 47q74 0 124.5 -47t50.5 -117t-50.5 -117t-124.5 -47q-73 0 -123.5 47.5zM904.5 1257.5q31.5 28.5 31.5 73.5t-31.5 74t-81.5 29q-49 0 -80.5 -29t-31.5 -74t31.5 -73.5t80.5 -28.5q50 0 81.5 28.5z" />
<glyph unicode="&#x13f;" horiz-adv-x="1146" d="M1116 0h-973v1434h349v-1096h624v-338zM205 1372v-1311h850v215h-625v1096h-225zM764.5 706q-52.5 52 -52.5 128q0 74 52.5 126t126.5 52q76 0 128 -52t52 -126q0 -76 -52.5 -128t-127.5 -52q-74 0 -126.5 52zM974.5 750q34.5 35 34.5 84t-34.5 83t-83.5 34 q-47 0 -82 -35t-35 -82q0 -49 33.5 -84t83.5 -35q49 0 83.5 35z" />
<glyph unicode="&#x140;" horiz-adv-x="933" d="M453 0h-330v1434h330v-1434zM184 1372v-1311h207v1311h-207zM627.5 638q-52.5 52 -52.5 128q0 74 52.5 126t126.5 52q76 0 128 -52t52 -126q0 -76 -52.5 -128t-127.5 -52q-74 0 -126.5 52zM837.5 682q34.5 35 34.5 84t-34.5 83t-83.5 34q-47 0 -82 -35t-35 -82 q0 -49 33.5 -84t83.5 -35q49 0 83.5 35z" />
<glyph unicode="&#x152;" horiz-adv-x="2201" d="M423 75q-157 95 -249 263t-92 379t92 379t249 263t345 95q133 0 222 -45t126 -88v113h983v-318h-655v-246h614v-307h-614v-246h655v-317h-983v113q-37 -43 -126 -88t-222 -45q-188 0 -345 95zM1096 174h82v-113h860v195h-656v369h615v184h-615v369h656v194h-860v-112h-82 q-133 133 -328 133q-170 0 -313.5 -87t-227.5 -242t-84 -347q0 -193 84 -347.5t227.5 -241.5t313.5 -87q195 0 328 133zM568 313.5q-91 57.5 -145 163t-54 240.5t54 240.5t145 163t200 57.5t200 -57.5t145 -163t54 -240.5t-54 -240.5t-145 -163t-200 -57.5t-200 57.5z M938 366.5q78 49.5 123 140.5t45 210t-45 210t-123 140t-170 49t-170 -49t-123 -140t-45 -210t45 -210t123 -140.5t170 -49.5t170 49.5z" />
<glyph unicode="&#x153;" horiz-adv-x="1947" d="M333 49.5q-122 69.5 -191.5 193.5t-69.5 279q0 156 69.5 280t191.5 193.5t269 69.5q119 0 216 -50t157 -124q57 74 157.5 124t231.5 50q141 0 259 -68.5t185.5 -188.5t67.5 -265q0 -68 -10 -103h-697q8 -84 63.5 -139t131.5 -55q55 0 94 20.5t60 50.5h327 q-47 -141 -169 -239t-312 -98q-131 0 -231.5 50t-157.5 124q-59 -74 -156.5 -124t-216.5 -50q-147 0 -269 69.5zM835.5 108.5q94.5 67.5 133.5 137.5h12q41 -72 136 -138.5t247 -66.5q113 0 195.5 40t131 91t62.5 88h-201q-31 -31 -72.5 -53.5t-115.5 -22.5q-72 0 -131 39 t-95 111t-36 164h713v45q0 129 -59.5 234.5t-163 166t-228.5 60.5q-152 0 -247 -67t-136 -138h-12q-39 70 -133.5 137.5t-233.5 67.5q-131 0 -238.5 -61.5t-169 -171t-61.5 -249.5q0 -139 61.5 -248.5t169 -171t238.5 -61.5q139 0 233.5 67.5zM1100 588q16 131 86.5 206.5 t177.5 75.5q106 0 177 -75.5t87 -206.5h-528zM472 263q-60 38 -97 105.5t-37 153.5t37 153.5t97 105.5t128 38t128 -38t97 -105.5t37 -153.5t-37 -153.5t-97 -105.5t-128 -38t-128 38zM1552 645q-53 164 -188 164t-188 -164h376zM740.5 353.5q60.5 66.5 60.5 168.5 t-60.5 169t-140.5 67t-140.5 -66.5t-60.5 -169.5q0 -102 60.5 -168.5t140.5 -66.5t140.5 66.5z" />
<glyph unicode="&#x178;" horiz-adv-x="1310" d="M829 0h-348v481l-512 953h389l287 -553h21l286 553h389l-512 -953v-481zM543 496v-435h225v435l471 876h-248l-286 -553h-99l-287 553h-247zM335.5 1609q-45.5 46 -45.5 117q0 72 45.5 118t118.5 46q74 0 119 -46t45 -118t-45 -117.5t-119 -45.5q-73 0 -118.5 46z M737 1609q-45 46 -45 117q0 72 45 118t119 46t119 -46t45 -118t-45.5 -117.5t-118.5 -45.5q-74 0 -119 46zM528 1652.5q29 28.5 29 73.5q0 47 -29 75t-74 28q-47 0 -74.5 -27.5t-27.5 -75.5q0 -45 27.5 -73.5t74.5 -28.5q45 0 74 28.5zM929.5 1652.5q28.5 28.5 28.5 73.5 q0 47 -28.5 75t-73.5 28q-47 0 -75 -27.5t-28 -75.5q0 -45 28 -73.5t75 -28.5q45 0 73.5 28.5z" />
<glyph unicode="&#x237;" horiz-adv-x="555" d="M-115 -410v308h158q31 0 46 13t15 38v1095h328v-1167q0 -139 -78 -213t-229 -74h-240zM125 -348q127 0 186.5 56t59.5 169v1106h-205v-1034q0 -51 -33 -82t-90 -31h-96v-184h178z" />
<glyph unicode="&#x2c6;" horiz-adv-x="901" d="M348 1184h-287l250 301h279l250 -301h-287l-103 121zM340 1427l-156 -186h135l107 125h49l107 -125h135l-154 186h-223z" />
<glyph unicode="&#x2dc;" horiz-adv-x="827" d="M61 1196q0 131 62.5 202.5t171.5 71.5q57 0 131 -30q8 -2 31.5 -11.5t41.5 -9.5q23 0 40.5 13.5t21.5 37.5h205q0 -129 -60.5 -201.5t-163.5 -72.5q-35 0 -65.5 8t-73.5 23q-6 2 -30.5 11t-45.5 9q-23 0 -40 -13t-21 -38h-205zM227 1253q27 51 100 52q25 0 58.5 -11.5 t40.5 -13.5q29 -10 60.5 -18.5t55.5 -8.5q63 0 106.5 44t53.5 116h-102q-27 -51 -101 -51q-18 0 -42.5 7t-49.5 17q-29 10 -58.5 18.5t-53.5 8.5q-72 0 -115 -44t-55 -116h102z" />
<glyph unicode="&#x300;" d="M-61 1184h-277l-250 301h328zM-463 1427l152 -186h143l-123 186h-172z" />
<glyph unicode="&#x301;" d="M-311 1184h-277l199 301h328zM-358 1427l-125 -186h143l154 186h-172z" />
<glyph unicode="&#x302;" d="M-553 1184h-287l250 301h279l250 -301h-287l-103 121zM-561 1427l-156 -186h135l107 125h49l107 -125h135l-154 186h-223z" />
<glyph unicode="&#x303;" d="M-766 1196q0 131 62.5 202.5t171.5 71.5q57 0 131 -30q8 -2 31.5 -11.5t41.5 -9.5q23 0 40.5 13.5t21.5 37.5h205q0 -129 -60.5 -201.5t-163.5 -72.5q-35 0 -65.5 8t-73.5 23q-6 2 -30.5 11t-45.5 9q-23 0 -40 -13t-21 -38h-205zM-600 1253q27 51 100 52q25 0 58.5 -11.5 t40.5 -13.5q29 -10 60.5 -18.5t55.5 -8.5q63 0 106.5 44t53.5 116h-102q-27 -51 -101 -51q-18 0 -42.5 7t-49.5 17q-29 10 -58.5 18.5t-53.5 8.5q-72 0 -115 -44t-55 -116h102z" />
<glyph unicode="&#x304;" d="M-61 1219h-676v235h676v-235zM-680 1397v-121h561v121h-561z" />
<glyph unicode="&#x307;" d="M-359.5 1214.5q-50.5 47.5 -50.5 116.5q0 70 50.5 117t123.5 47q74 0 124.5 -47t50.5 -117t-50.5 -117t-124.5 -47q-73 0 -123.5 47.5zM-154.5 1257.5q31.5 28.5 31.5 73.5t-31.5 74t-81.5 29q-49 0 -80.5 -29t-31.5 -74t31.5 -73.5t80.5 -28.5q50 0 81.5 28.5z" />
<glyph unicode="&#x308;" d="M-745.5 1213.5q-45.5 46.5 -45.5 117.5q0 72 45.5 118t118.5 46q74 0 119 -46t45 -118t-45 -118t-119 -46q-73 0 -118.5 46.5zM-344 1213.5q-45 46.5 -45 117.5q0 72 45 118t119 46t119 -46t45 -118t-45.5 -118t-118.5 -46q-74 0 -119 46.5zM-553 1257.5q29 28.5 29 73.5 q0 47 -29 75t-74 28q-47 0 -74.5 -28t-27.5 -75q0 -45 27.5 -73.5t74.5 -28.5q45 0 74 28.5zM-151.5 1257.5q28.5 28.5 28.5 73.5q0 47 -28.5 75t-73.5 28q-47 0 -75 -28t-28 -75q0 -45 28 -73.5t75 -28.5q45 0 73.5 28.5z" />
<glyph unicode="&#x30a;" d="M-466.5 1189.5q-65.5 63.5 -65.5 162.5q0 98 65.5 161.5t169.5 63.5t170 -63.5t66 -161.5t-66 -162t-170 -64t-169.5 63.5zM-168 1231q49 47 49 121t-49 121t-129 47t-129 -47.5t-49 -120.5q0 -74 49 -121t129 -47t129 47zM-375 1275q-31 32 -31 77q0 47 31 77.5t78 30.5 q45 0 77 -30.5t32 -77.5q0 -45 -32 -77t-77 -32q-47 0 -78 32zM-260 1314.5q14 14.5 14 37.5t-14 37t-37 14t-37 -14.5t-14 -36.5q0 -23 14.5 -37.5t36.5 -14.5q23 0 37 14.5z" />
<glyph unicode="&#x327;" d="M-461 -483v194h92q31 0 46.5 9.5t15.5 31.5q0 41 -62 41h-71v105l45 102h57l-45 -113v-37q63 0 98 -25.5t35 -72.5q0 -98 -119 -98h-34v-80h75q98 0 153.5 43t55.5 107q0 66 -48 109.5t-109 43.5l45 123h61l-31 -82q57 -16 98.5 -65.5t41.5 -128.5q0 -88 -71 -147.5 t-196 -59.5h-133z" />
<glyph unicode="&#x1e9e;" horiz-adv-x="1421" d="M133 1044q0 178 107.5 284t291.5 106h768v-301l-276 -297v-9q53 -8 127 -41.5t137.5 -120.5t63.5 -235q0 -127 -54.5 -224t-155 -151.5t-231.5 -54.5h-266v307h215q68 0 106 36t38 97t-38 97t-106 36h-215v271l262 282h-293q-61 0 -97 -35.5t-36 -97.5v-993h-348v1044z M195 61h225v932q0 88 53 141.5t141 53.5h430v-8l-337 -363v-182h153q94 0 149.5 -53.5t55.5 -141.5t-55.5 -141t-149.5 -53h-153v-185h204q172 0 275.5 101.5t103.5 267.5q0 154 -91 247t-236 93v88l276 297v217h-707q-158 0 -247.5 -88t-89.5 -240v-983z" />
<glyph unicode="&#x2000;" horiz-adv-x="985" />
<glyph unicode="&#x2001;" horiz-adv-x="1970" />
<glyph unicode="&#x2002;" horiz-adv-x="985" />
<glyph unicode="&#x2003;" horiz-adv-x="1970" />
<glyph unicode="&#x2004;" horiz-adv-x="656" />
<glyph unicode="&#x2005;" horiz-adv-x="492" />
<glyph unicode="&#x2006;" horiz-adv-x="328" />
<glyph unicode="&#x2007;" horiz-adv-x="328" />
<glyph unicode="&#x2008;" horiz-adv-x="246" />
<glyph unicode="&#x2009;" horiz-adv-x="394" />
<glyph unicode="&#x200a;" horiz-adv-x="109" />
<glyph unicode="&#x2010;" horiz-adv-x="890" d="M799 430h-707v307h707v-307zM154 676v-184h583v184h-583z" />
<glyph unicode="&#x2011;" horiz-adv-x="890" d="M799 430h-707v307h707v-307zM154 676v-184h583v184h-583z" />
<glyph unicode="&#x2012;" horiz-adv-x="890" d="M799 430h-707v307h707v-307zM154 676v-184h583v184h-583z" />
<glyph unicode="&#x2013;" horiz-adv-x="1187" d="M1116 430h-1044v307h1044v-307zM133 676v-184h922v184h-922z" />
<glyph unicode="&#x2014;" horiz-adv-x="1576" d="M1505 430h-1433v307h1433v-307zM133 676v-184h1311v184h-1311z" />
<glyph unicode="&#x2018;" horiz-adv-x="548" d="M420 911h-359l144 523h266zM252 1372l-111 -399h221l41 399h-151z" />
<glyph unicode="&#x2019;" horiz-adv-x="546" d="M344 911h-266l51 523h358zM186 1372l-41 -399h152l111 399h-222z" />
<glyph unicode="&#x201a;" horiz-adv-x="565" d="M334 -184h-266l51 522h358zM176 276l-41 -399h152l110 399h-221z" />
<glyph unicode="&#x201c;" horiz-adv-x="999" d="M420 911h-359l144 523h266zM252 1372l-111 -399h221l41 399h-151zM871 911h-359l144 523h266zM703 1372l-111 -399h221l41 399h-151z" />
<glyph unicode="&#x201d;" horiz-adv-x="997" d="M344 911h-266l51 523h358zM186 1372l-41 -399h152l111 399h-222zM795 911h-266l51 523h358zM637 1372l-41 -399h152l111 399h-222z" />
<glyph unicode="&#x201e;" horiz-adv-x="1015" d="M334 -184h-266l51 522h358zM176 276l-41 -399h152l110 399h-221zM785 -184h-266l51 522h358zM627 276l-41 -399h152l110 399h-221z" />
<glyph unicode="&#x2022;" horiz-adv-x="1044" d="M382.5 313q-63.5 37 -100 100.5t-36.5 139.5t36.5 139.5t100 100t139.5 36.5t139.5 -36.5t100.5 -100t37 -139.5t-37 -139.5t-100.5 -100.5t-139.5 -37t-139.5 37zM674.5 401.5q62.5 63.5 62.5 151.5q0 90 -62.5 152.5t-152.5 62.5q-88 0 -151.5 -62.5t-63.5 -152.5 q0 -88 63.5 -151.5t151.5 -63.5q90 0 152.5 63.5z" />
<glyph unicode="&#x2026;" horiz-adv-x="1701" d="M154.5 42q-52.5 52 -52.5 128q0 74 52.5 126t126.5 52q76 0 128 -52t52 -126q0 -76 -52.5 -128t-127.5 -52q-74 0 -126.5 52zM364.5 86q34.5 35 34.5 84t-34.5 83t-83.5 34q-47 0 -82 -35t-35 -82q0 -49 33.5 -84t83.5 -35q49 0 83.5 35zM723.5 42q-52.5 52 -52.5 128 q0 74 52.5 126t126.5 52q76 0 128 -52t52 -126q0 -76 -52.5 -128t-127.5 -52q-74 0 -126.5 52zM933.5 86q34.5 35 34.5 84t-34.5 83t-83.5 34q-47 0 -82 -35t-35 -82q0 -49 33.5 -84t83.5 -35q49 0 83.5 35zM1293.5 42q-52.5 52 -52.5 128q0 74 52.5 126t126.5 52 q76 0 128 -52t52 -126q0 -76 -52.5 -128t-127.5 -52q-74 0 -126.5 52zM1503.5 86q34.5 35 34.5 84t-34.5 83t-83.5 34q-47 0 -82 -35t-35 -82q0 -49 33.5 -84t83.5 -35q49 0 83.5 35z" />
<glyph unicode="&#x202f;" horiz-adv-x="394" />
<glyph unicode="&#x2039;" horiz-adv-x="753" d="M690 106h-328l-296 420l296 420h328l-297 -420zM139 524l256 -356h176l-254 358l254 359h-176z" />
<glyph unicode="&#x203a;" horiz-adv-x="753" d="M391 106h-328l297 420l-297 420h328l297 -420zM436 528l-254 -360h176l254 358l-254 359h-176z" />
<glyph unicode="&#x205f;" horiz-adv-x="492" />
<glyph unicode="&#x20ac;" horiz-adv-x="1441" d="M607.5 48.5q-142.5 68.5 -232.5 177t-133 235.5h-195v205h164v102h-164v205h195q43 127 133 235.5t232.5 177t330.5 68.5q135 0 244.5 -26.5t175.5 -65.5v-307q-70 39 -172.5 65.5t-216.5 26.5q-131 0 -222.5 -50t-136.5 -124h482v-205h-543v-102h543v-205h-482 q45 -74 136.5 -124t222.5 -50q111 0 213 26.5t176 65.5v-307q-66 -39 -175.5 -65.5t-244.5 -26.5q-188 0 -330.5 68.5zM1143 61.5q94 20.5 153 49.5v172q-154 -57 -327 -58q-180 0 -297 86t-164 211h522v82h-543v225h543v82h-522q47 125 163.5 211t297.5 86q174 0 327 -57 v172q-59 29 -153 49.5t-205 20.5q-266 0 -430 -140.5t-221 -341.5h-178v-82h163v-225h-163v-82h178q57 -201 221 -341t430 -140q111 0 205 20.5z" />
<glyph unicode="&#x2116;" horiz-adv-x="2273" d="M492 0h-349v1434h410l430 -840h21v840h348v-1434h-410l-430 840h-20v-840zM205 1372v-1311h225v840h121l430 -840h309v1311h-225v-840h-121l-430 840h-309zM1680.5 413q-76.5 44 -120.5 120.5t-44 173.5q0 96 44 172.5t120.5 120.5t172.5 44t173 -44t121 -120.5 t44 -172.5t-44 -173t-120.5 -121t-173.5 -44q-96 0 -172.5 44zM2052 509q78 79 78 198q0 121 -78 198.5t-199 77.5q-119 0 -197.5 -78t-78.5 -198q0 -119 79 -198t197 -79q121 0 199 79zM1737 590q-47 47 -47 117q0 72 47 117.5t116 45.5q72 0 118 -46t46 -117 q0 -70 -46 -117t-118 -47q-69 0 -116 47zM1927 633q29 29 29 74t-29 73.5t-74 28.5t-73.5 -28.5t-28.5 -73.5t28.5 -74t73.5 -29t74 29zM2171 0h-635v266h635v-266zM1597 205v-144h512v144h-512z" />
<glyph unicode="&#x2122;" horiz-adv-x="1597" d="M420 799h-215v420h-174v215h563v-215h-174v-420zM891 799h-215v635h297l106 -318h13l106 318h297v-635h-215v307l-102 -307h-185l-102 307v-307zM266 1280v-420h92v420h174v92h-440v-92h174zM737 1372v-512h92v303h105l102 -303h99l102 303h104v-303h93v512h-193 l-106 -313h-99l-106 313h-193z" />
<glyph unicode="&#x25fc;" horiz-adv-x="1044" d="M0 1044h1044v-1044h-1044v1044z" />
<glyph unicode="&#xf730;" horiz-adv-x="1280" d="M346 50.5q-129 70.5 -200.5 194.5t-71.5 277q0 154 71.5 278t200.5 194.5t295 70.5q164 0 293 -70.5t200.5 -194.5t71.5 -278t-71.5 -277.5t-200.5 -194t-293 -70.5q-166 0 -295 70.5zM903 103.5q115 62.5 178.5 172t63.5 246.5t-63.5 247t-178.5 172.5t-262 62.5 t-263 -62.5t-179.5 -172.5t-63.5 -247t63.5 -246.5t179.5 -172t263 -62.5t262 62.5zM488.5 264q-68.5 39 -108.5 106.5t-40 151.5t40 151.5t108.5 106.5t152.5 39q82 0 150.5 -39t108.5 -106.5t40 -151.5t-40 -151.5t-108.5 -106.5t-150.5 -39q-84 0 -152.5 39zM809 354.5 q70 67.5 70 167.5t-70 168t-168 68q-100 0 -170 -67.5t-70 -168.5q0 -100 70 -167.5t170 -67.5q98 0 168 67.5z" />
<glyph unicode="&#xf731;" horiz-adv-x="784" d="M324 0v584h-263v297h201q31 0 46.5 17t15.5 54v92h327v-1044h-327zM385 61h205v922h-205v-31q0 -70 -29.5 -101.5t-93.5 -31.5h-139v-174h262v-584z" />
<glyph unicode="&#xf732;" horiz-adv-x="1110" d="M78 0v281l526 321q37 23 51.5 41.5t14.5 42.5q0 33 -33 57.5t-90 24.5q-127 0 -148 -102h-327q0 115 57 205t167 142t261 52q141 0 246.5 -48t162 -128t56.5 -176q0 -74 -22.5 -124t-72.5 -94t-145 -106l-129 -82h375v-307h-950zM139 61h828v185h-375v96l160 100 q86 53 129 91t61.5 79t18.5 101q0 76 -47.5 142.5t-139.5 107.5t-217 41q-180 0 -289.5 -78t-128.5 -199h213q16 47 67.5 74.5t127.5 27.5q84 0 134 -42t50 -101q0 -43 -23.5 -75.5t-72.5 -63.5l-496 -301v-185z" />
<glyph unicode="&#xf733;" horiz-adv-x="1153" d="M295 -348.5q-119 61.5 -181.5 169t-62.5 240.5h324q4 -76 57 -119.5t137 -43.5q76 0 125 47t49 116q0 70 -53 112t-137 42h-102v277h102q78 0 124 39.5t46 97.5q0 55 -42 92t-116 37q-72 0 -118 -32t-50 -81h-325q0 117 61.5 213t173 151.5t256.5 55.5q150 0 262.5 -52 t174 -140.5t61.5 -196.5q0 -121 -56.5 -204t-138.5 -122v-10q90 -37 152.5 -119t62.5 -201q0 -123 -63.5 -220t-178 -153.5t-266.5 -56.5q-159 0 -278 61.5zM808 -300q101 48 156.5 132t55.5 188q0 109 -62.5 179.5t-152.5 99.5v92q82 29 138 101.5t56 183.5q0 90 -53 164.5 t-151.5 119t-231.5 44.5q-119 0 -210 -41t-146 -110t-68 -146h209q18 51 81 81.5t136 30.5q102 0 160.5 -53t58.5 -137q0 -82 -63.5 -140.5t-167.5 -58.5h-41v-154h41q113 0 182.5 -59t69.5 -156q0 -96 -66.5 -160.5t-169.5 -64.5q-94 0 -161.5 47t-81.5 117h-209 q20 -154 139 -251t317 -97q134 0 235 48z" />
<glyph unicode="&#xf734;" horiz-adv-x="1179" d="M993 -389h-327v369h-635v296l481 768h481v-757h146v-307h-146v-369zM727 41v-369h205v369h145v184h-145v758h-387l-453 -723v-219h635zM727 225h-399v68l282 455h117v-523zM643 686l-248 -399h271v399h-23z" />
<glyph unicode="&#xf735;" horiz-adv-x="1189" d="M329.5 -353.5q-110.5 56.5 -174 156t-73.5 228.5h328q14 -57 64 -95t110 -38q88 0 140 52t52 132q0 82 -50 133t-134 51q-53 0 -102.5 -22.5t-65.5 -48.5h-322l82 849h852v-307h-577l-27 -225q88 47 197 47q139 0 250.5 -62.5t175 -173t63.5 -251.5q0 -143 -64.5 -252 t-185 -169.5t-282.5 -60.5q-146 0 -256.5 56.5zM928 -234.5q125 113.5 125 306.5q0 125 -54.5 221t-151.5 150.5t-218 54.5q-57 0 -103.5 -14.5t-74.5 -32.5h-89l44 348h569v184h-735l-70 -727h227q25 27 78 49.5t117 22.5q113 0 179.5 -70t66.5 -176t-71 -176t-183 -70 q-74 0 -133.5 39t-83.5 94h-213q33 -143 143.5 -230t288.5 -87q217 0 342 113.5z" />
<glyph unicode="&#xf736;" horiz-adv-x="1218" d="M339 47.5q-122 67.5 -191.5 182t-69.5 251.5q0 109 25.5 182.5t66.5 135.5l410 635h358l-307 -471q156 -4 271.5 -68t178 -171.5t62.5 -242.5q0 -137 -69.5 -251.5t-191.5 -182t-272 -67.5q-149 0 -271 67.5zM850.5 100.5q107.5 59.5 169 159.5t61.5 221q0 188 -129 304 t-362 116h-74l307 471h-211l-368 -573q-55 -86 -80 -149.5t-25 -168.5q0 -121 61.5 -221t169 -159.5t240.5 -59.5t240.5 59.5zM419 298q-75 73 -75 183q0 111 75 183.5t191 72.5q117 0 192 -72.5t75 -183.5t-75 -183.5t-192 -72.5q-116 0 -191 73zM757.5 342 q57.5 55 57.5 139t-57.5 139.5t-147.5 55.5t-147 -55.5t-57 -139.5t57 -139t147 -55t147.5 55z" />
<glyph unicode="&#xf737;" horiz-adv-x="1085" d="M551 -389h-381l477 1106h-579v327h966v-301zM741 778l-477 -1106h246l463 1086v225h-844v-205h612z" />
<glyph unicode="&#xf738;" horiz-adv-x="1193" d="M326.5 37q-117.5 57 -181 155.5t-63.5 217.5q0 121 60.5 202.5t148.5 118.5v10q-78 35 -133.5 112t-55.5 191q0 111 60.5 205t173.5 149.5t262 55.5q147 0 260 -55.5t173.5 -149.5t60.5 -205q0 -115 -55.5 -191.5t-133.5 -111.5v-10q88 -37 148.5 -119t60.5 -202 q0 -119 -63.5 -217.5t-180 -155.5t-270.5 -57t-271.5 57zM837.5 90q102.5 49 158 134t55.5 186q0 111 -61.5 182.5t-149.5 99.5v88q80 25 135 91.5t55 172.5q0 92 -53 172t-151.5 128.5t-227.5 48.5t-227.5 -48.5t-152.5 -128t-54 -172.5q0 -106 56 -172.5t136 -91.5v-88 q-90 -29 -151.5 -100.5t-61.5 -181.5q0 -100 56.5 -185.5t159 -134.5t239.5 -49t239.5 49zM436.5 892q-59.5 52 -59.5 132t59.5 132t161.5 52q100 0 159.5 -52t59.5 -132t-59.5 -132t-159.5 -52q-102 0 -161.5 52zM714 936q42 35 42 88t-42 88t-116 35t-117 -35t-43 -88 t43 -88t117 -35t116 35zM422.5 284.5q-66.5 59.5 -66.5 153.5q0 92 66.5 151.5t175.5 59.5q106 0 174 -59.5t68 -151.5q0 -94 -67.5 -153.5t-174.5 -59.5q-109 0 -175.5 59.5zM729 329q49 42 49 109q0 66 -49 108t-131 42t-131 -41t-49 -109t49 -109.5t131 -41.5t131 42z " />
<glyph unicode="&#xf739;" horiz-adv-x="1218" d="M588 82q-156 4 -271.5 67.5t-178 171t-62.5 242.5q0 137 69.5 252t191.5 182.5t271 67.5q150 0 271.5 -67.5t191.5 -182.5t70 -252q0 -109 -25.5 -182.5t-66.5 -134.5l-424 -635h-359zM381 -328h211l383 574q55 82 79.5 147.5t24.5 169.5q0 121 -61.5 221.5t-169 160 t-240.5 59.5t-240.5 -59.5t-169 -160t-61.5 -221.5q0 -188 129 -304t363 -116h73zM417 380q-75 73 -75 183q0 111 75 183.5t191 72.5q117 0 191.5 -72.5t74.5 -183.5t-74.5 -183.5t-191.5 -72.5q-116 0 -191 73zM755.5 424q57.5 55 57.5 139t-57.5 139.5t-147.5 55.5 t-147.5 -55.5t-57.5 -139.5t57.5 -139t147.5 -55t147.5 55z" />
<glyph horiz-adv-x="1495" d="M481 0h-348v1434h348v-1434zM195 1372v-1311h225v1311h-225zM434 1577h-277l199 301h328zM387 1821l-125 -187h143l154 187h-172zM634 0v338h308q72 0 71 72v1024h349v-1117q0 -154 -82 -235.5t-236 -81.5h-410zM1044 61q256 0 256 256v1055h-225v-962q0 -63 -35 -98.5 t-98 -35.5h-246v-215h348zM1315 1577h-277l199 301h328zM1268 1821l-125 -187h143l154 187h-172z" />
<glyph horiz-adv-x="555" d="M442 0h-329v1044h329v-1044zM174 983v-922h207v922h-207zM154.5 1214.5q-50.5 47.5 -50.5 116.5q0 70 50.5 117t123.5 47q74 0 124.5 -47t50.5 -117t-50.5 -117t-124.5 -47q-73 0 -123.5 47.5zM359.5 1257.5q31.5 28.5 31.5 73.5t-31.5 74t-81.5 29q-49 0 -80.5 -29 t-31.5 -74t31.5 -73.5t80.5 -28.5q50 0 81.5 28.5z" />
<glyph horiz-adv-x="1110" d="M442 0h-329v1044h329v-1044zM174 983v-922h207v922h-207zM428 1184h-277l199 301h328zM381 1427l-125 -186h143l154 186h-172zM440 -410v308h158q31 0 46 13t15 38v1095h328v-1167q0 -139 -78 -213t-229 -74h-240zM680 -348q127 0 186.5 56t59.5 169v1106h-205v-1034 q0 -51 -33 -82t-90 -31h-96v-184h178zM973 1184h-277l199 301h328zM926 1427l-125 -186h143l154 186h-172z" />
<glyph horiz-adv-x="1277" d="M321.5 49.5q-114.5 69.5 -182 193.5t-67.5 279q0 156 67.5 280t182 193.5t251.5 69.5q100 0 174 -36t113 -87h10l21 102h264v-1044h-264l-21 102h-10q-39 -51 -112.5 -86.5t-174.5 -35.5q-137 0 -251.5 69.5zM840 164h82l20 -103h152v922h-152l-20 -102h-82 q-102 123 -267 123q-121 0 -221 -61.5t-159.5 -172.5t-59.5 -248t59.5 -247.5t160 -172t220.5 -61.5q165 0 267 123zM417 308q-79 83 -79 214t79 214t197 83q119 0 198 -83t79 -214t-79 -214t-198 -83q-118 0 -197 83zM768 352.5q61 65.5 61 169.5t-61 170t-154 66 q-92 0 -153.5 -65.5t-61.5 -170.5q0 -104 61.5 -169.5t153.5 -65.5q93 0 154 65.5z" />
<glyph horiz-adv-x="1277" d="M321.5 49.5q-114.5 69.5 -182 193.5t-67.5 279q0 156 67.5 280t182 193.5t251.5 69.5q100 0 174 -36t113 -87h10l21 102h264v-1044h-264l-21 102h-10q-39 -51 -112.5 -86.5t-174.5 -35.5q-137 0 -251.5 69.5zM840 164h82l20 -103h152v922h-152l-20 -102h-82 q-102 123 -267 123q-121 0 -221 -61.5t-159.5 -172.5t-59.5 -248t59.5 -247.5t160 -172t220.5 -61.5q165 0 267 123zM417 308q-79 83 -79 214t79 214t197 83q119 0 198 -83t79 -214t-79 -214t-198 -83q-118 0 -197 83zM768 352.5q61 65.5 61 169.5t-61 170t-154 66 q-92 0 -153.5 -65.5t-61.5 -170.5q0 -104 61.5 -169.5t153.5 -65.5q93 0 154 65.5zM795 1184h-277l199 301h328zM748 1427l-125 -186h143l154 186h-172z" />
<glyph horiz-adv-x="1277" d="M321.5 49.5q-114.5 69.5 -182 193.5t-67.5 279q0 156 67.5 280t182 193.5t251.5 69.5q100 0 174 -36t113 -87h10l21 102h264v-1044h-264l-21 102h-10q-39 -51 -112.5 -86.5t-174.5 -35.5q-137 0 -251.5 69.5zM840 164h82l20 -103h152v922h-152l-20 -102h-82 q-102 123 -267 123q-121 0 -221 -61.5t-159.5 -172.5t-59.5 -248t59.5 -247.5t160 -172t220.5 -61.5q165 0 267 123zM417 308q-79 83 -79 214t79 214t197 83q119 0 198 -83t79 -214t-79 -214t-198 -83q-118 0 -197 83zM768 352.5q61 65.5 61 169.5t-61 170t-154 66 q-92 0 -153.5 -65.5t-61.5 -170.5q0 -104 61.5 -169.5t153.5 -65.5q93 0 154 65.5zM543 1184h-287l250 301h279l250 -301h-287l-103 121zM535 1427l-156 -186h135l107 125h49l107 -125h135l-154 186h-223z" />
<glyph horiz-adv-x="1277" d="M321.5 49.5q-114.5 69.5 -182 193.5t-67.5 279q0 156 67.5 280t182 193.5t251.5 69.5q100 0 174 -36t113 -87h10l21 102h264v-1044h-264l-21 102h-10q-39 -51 -112.5 -86.5t-174.5 -35.5q-137 0 -251.5 69.5zM840 164h82l20 -103h152v922h-152l-20 -102h-82 q-102 123 -267 123q-121 0 -221 -61.5t-159.5 -172.5t-59.5 -248t59.5 -247.5t160 -172t220.5 -61.5q165 0 267 123zM417 308q-79 83 -79 214t79 214t197 83q119 0 198 -83t79 -214t-79 -214t-198 -83q-118 0 -197 83zM768 352.5q61 65.5 61 169.5t-61 170t-154 66 q-92 0 -153.5 -65.5t-61.5 -170.5q0 -104 61.5 -169.5t153.5 -65.5q93 0 154 65.5zM325.5 1213.5q-45.5 46.5 -45.5 117.5q0 72 45.5 118t118.5 46q74 0 119 -46t45 -118t-45 -118t-119 -46q-73 0 -118.5 46.5zM727 1213.5q-45 46.5 -45 117.5q0 72 45 118t119 46t119 -46 t45 -118t-45.5 -118t-118.5 -46q-74 0 -119 46.5zM518 1257.5q29 28.5 29 73.5q0 47 -29 75t-74 28q-47 0 -74.5 -28t-27.5 -75q0 -45 27.5 -73.5t74.5 -28.5q45 0 74 28.5zM919.5 1257.5q28.5 28.5 28.5 73.5q0 47 -28.5 75t-73.5 28q-47 0 -75 -28t-28 -75q0 -45 28 -73.5 t75 -28.5q45 0 73.5 28.5z" />
<glyph horiz-adv-x="1277" d="M321.5 49.5q-114.5 69.5 -182 193.5t-67.5 279q0 156 67.5 280t182 193.5t251.5 69.5q100 0 174 -36t113 -87h10l21 102h264v-1044h-264l-21 102h-10q-39 -51 -112.5 -86.5t-174.5 -35.5q-137 0 -251.5 69.5zM840 164h82l20 -103h152v922h-152l-20 -102h-82 q-102 123 -267 123q-121 0 -221 -61.5t-159.5 -172.5t-59.5 -248t59.5 -247.5t160 -172t220.5 -61.5q165 0 267 123zM417 308q-79 83 -79 214t79 214t197 83q119 0 198 -83t79 -214t-79 -214t-198 -83q-118 0 -197 83zM768 352.5q61 65.5 61 169.5t-61 170t-154 66 q-92 0 -153.5 -65.5t-61.5 -170.5q0 -104 61.5 -169.5t153.5 -65.5q93 0 154 65.5zM793 1184h-277l-250 301h328zM391 1427l152 -186h143l-123 186h-172z" />
<glyph horiz-adv-x="1277" d="M321.5 49.5q-114.5 69.5 -182 193.5t-67.5 279q0 156 67.5 280t182 193.5t251.5 69.5q100 0 174 -36t113 -87h10l21 102h264v-1044h-264l-21 102h-10q-39 -51 -112.5 -86.5t-174.5 -35.5q-137 0 -251.5 69.5zM840 164h82l20 -103h152v922h-152l-20 -102h-82 q-102 123 -267 123q-121 0 -221 -61.5t-159.5 -172.5t-59.5 -248t59.5 -247.5t160 -172t220.5 -61.5q165 0 267 123zM417 308q-79 83 -79 214t79 214t197 83q119 0 198 -83t79 -214t-79 -214t-198 -83q-118 0 -197 83zM768 352.5q61 65.5 61 169.5t-61 170t-154 66 q-92 0 -153.5 -65.5t-61.5 -170.5q0 -104 61.5 -169.5t153.5 -65.5q93 0 154 65.5zM475.5 1189.5q-65.5 63.5 -65.5 162.5q0 98 65.5 161.5t169.5 63.5t170 -63.5t66 -161.5t-66 -162t-170 -64t-169.5 63.5zM774 1231q49 47 49 121t-49 121t-129 47t-129 -47.5t-49 -120.5 q0 -74 49 -121t129 -47t129 47zM567 1275q-31 32 -31 77q0 47 31 77.5t78 30.5q45 0 77 -30.5t32 -77.5q0 -45 -32 -77t-77 -32q-47 0 -78 32zM682 1314.5q14 14.5 14 37.5t-14 37t-37 14t-37 -14.5t-14 -36.5q0 -23 14.5 -37.5t36.5 -14.5q23 0 37 14.5z" />
<glyph horiz-adv-x="1277" d="M321.5 49.5q-114.5 69.5 -182 193.5t-67.5 279q0 156 67.5 280t182 193.5t251.5 69.5q100 0 174 -36t113 -87h10l21 102h264v-1044h-264l-21 102h-10q-39 -51 -112.5 -86.5t-174.5 -35.5q-137 0 -251.5 69.5zM840 164h82l20 -103h152v922h-152l-20 -102h-82 q-102 123 -267 123q-121 0 -221 -61.5t-159.5 -172.5t-59.5 -248t59.5 -247.5t160 -172t220.5 -61.5q165 0 267 123zM417 308q-79 83 -79 214t79 214t197 83q119 0 198 -83t79 -214t-79 -214t-198 -83q-118 0 -197 83zM768 352.5q61 65.5 61 169.5t-61 170t-154 66 q-92 0 -153.5 -65.5t-61.5 -170.5q0 -104 61.5 -169.5t153.5 -65.5q93 0 154 65.5zM291 1196q0 131 62.5 202.5t171.5 71.5q57 0 131 -30q8 -2 31.5 -11.5t41.5 -9.5q23 0 40.5 13.5t21.5 37.5h205q0 -129 -60.5 -201.5t-163.5 -72.5q-35 0 -65.5 8t-73.5 23q-6 2 -30.5 11 t-45.5 9q-23 0 -40 -13t-21 -38h-205zM457 1253q27 51 100 52q25 0 58.5 -11.5t40.5 -13.5q29 -10 60.5 -18.5t55.5 -8.5q63 0 106.5 44t53.5 116h-102q-27 -51 -101 -51q-18 0 -42.5 7t-49.5 17q-29 10 -58.5 18.5t-53.5 8.5q-72 0 -115 -44t-55 -116h102z" />
<glyph horiz-adv-x="677" d="M430 0q-152 0 -229.5 73.5t-77.5 213.5v1147h328v-1076q0 -29 14 -40t47 -11h145v-307h-227zM596 61v185h-84q-63 0 -93 26.5t-30 85.5v1014h-205v-1085q0 -115 61.5 -170.5t184.5 -55.5h166z" />
<glyph horiz-adv-x="935" d="M430 0q-152 0 -229.5 73.5t-77.5 213.5v1147h328v-1076q0 -29 14 -40t47 -11h145v-307h-227zM596 61v185h-84q-63 0 -93 26.5t-30 85.5v1014h-205v-1085q0 -115 61.5 -170.5t184.5 -55.5h166zM627.5 638q-52.5 52 -52.5 128q0 74 52.5 126t126.5 52q76 0 128 -52t52 -126 q0 -76 -52.5 -128t-127.5 -52q-74 0 -126.5 52zM837.5 682q34.5 35 34.5 84t-34.5 83t-83.5 34q-47 0 -82 -35t-35 -82q0 -49 33.5 -84t83.5 -35q49 0 83.5 35z" />
<glyph horiz-adv-x="1130" d="M621 -410h-365l143 392l-409 1062h348l233 -641h15l207 641h348zM465 -14l-123 -334h236l475 1331h-215l-207 -641h-103l-233 641h-217z" />
<glyph horiz-adv-x="1130" d="M621 -410h-365l143 392l-409 1062h348l233 -641h15l207 641h348zM465 -14l-123 -334h236l475 1331h-215l-207 -641h-103l-233 641h-217zM721 1184h-277l199 301h328zM674 1427l-125 -186h143l154 186h-172z" />
<glyph horiz-adv-x="1130" d="M621 -410h-365l143 392l-409 1062h348l233 -641h15l207 641h348zM465 -14l-123 -334h236l475 1331h-215l-207 -641h-103l-233 641h-217zM251.5 1213.5q-45.5 46.5 -45.5 117.5q0 72 45.5 118t118.5 46q74 0 119 -46t45 -118t-45 -118t-119 -46q-73 0 -118.5 46.5z M653 1213.5q-45 46.5 -45 117.5q0 72 45 118t119 46t119 -46t45 -118t-45.5 -118t-118.5 -46q-74 0 -119 46.5zM444 1257.5q29 28.5 29 73.5q0 47 -29 75t-74 28q-47 0 -74.5 -28t-27.5 -75q0 -45 27.5 -73.5t74.5 -28.5q45 0 74 28.5zM845.5 1257.5q28.5 28.5 28.5 73.5 q0 47 -28.5 75t-73.5 28q-47 0 -75 -28t-28 -75q0 -45 28 -73.5t75 -28.5q45 0 73.5 28.5z" />
<glyph horiz-adv-x="1208" d="M297 67q-139 87 -219 253.5t-80 396.5q0 229 80 396t219 254t311 87t310.5 -87t218 -254t79.5 -396t-79.5 -396t-218 -254t-310.5 -87t-311 87zM888 120q124 79 195.5 232.5t71.5 364.5t-71.5 364.5t-195.5 232.5t-280 79t-280.5 -79t-196.5 -231.5t-72 -365.5t72 -365.5 t197 -231.5t280 -79q156 0 280 79zM447.5 307q-72.5 51 -116.5 155.5t-44 254.5t44 254t116.5 155.5t160.5 51.5q86 0 159 -52.5t117 -156t44 -252.5q0 -150 -44 -253.5t-117 -155.5t-159 -52q-88 0 -160.5 51zM735.5 361.5q59.5 44.5 95 134.5t35.5 221t-35.5 221t-95 134 t-127.5 44q-70 0 -129 -44t-95 -134t-36 -221t36 -221t95.5 -134.5t128.5 -44.5q68 0 127.5 44.5z" />
<glyph horiz-adv-x="1208" d="M135 0v338h318v614h-318v328h236q45 0 63.5 16.5t18.5 55.5v82h348v-1096h317v-338h-983zM197 61h860v215h-318v1096h-225v-20q0 -70 -34 -101.5t-109 -31.5h-174v-205h317v-738h-317v-215z" />
<glyph horiz-adv-x="1208" d="M102 0v324l570 510q35 31 50 62.5t15 76.5q0 55 -43 94t-110 39q-70 0 -112 -44t-42 -120h-348q0 152 63.5 268.5t180 180t268.5 63.5t265.5 -62.5t175 -172t61.5 -246.5q0 -92 -31 -163t-81 -127t-134 -130l-236 -205v-10h494v-338h-1006zM164 61h883v215h-494v101 l256 223q84 74 128 121t70.5 108.5t26.5 143.5q0 123 -54 218t-154.5 148.5t-231.5 53.5q-193 0 -309.5 -106.5t-139.5 -282.5h230q10 70 68.5 116.5t140.5 46.5q94 0 154.5 -56t60.5 -138q0 -63 -22.5 -105.5t-63.5 -79.5l-549 -491v-236z" />
<glyph horiz-adv-x="1208" d="M313.5 41q-120.5 61 -186.5 168.5t-66 241.5h349q4 -63 51 -103.5t127 -40.5t127 39t47 100q0 68 -46 108t-128 40h-103v287h103q66 0 109.5 35.5t43.5 93.5q0 53 -41 84.5t-112 31.5q-76 0 -116 -32.5t-44 -89.5h-346q0 123 64.5 226t181 163.5t266.5 60.5 q143 0 257 -57.5t176.5 -152.5t62.5 -208q0 -115 -55.5 -191.5t-133.5 -107.5v-10q88 -31 148.5 -111.5t60.5 -205.5q0 -119 -63.5 -217.5t-181 -155.5t-271.5 -57q-160 0 -280.5 61zM834.5 90q103.5 49 159 134t55.5 186q0 115 -60.5 184.5t-148.5 91.5v92q78 23 133 87.5 t55 170.5q0 94 -54 176t-153.5 131.5t-226.5 49.5q-121 0 -217 -43t-154.5 -118t-72.5 -167h229q16 55 70.5 89t138.5 34q98 0 156.5 -49t58.5 -129q0 -84 -61.5 -137.5t-153.5 -53.5h-41v-164h41q111 0 173 -58t62 -151q0 -90 -64.5 -145t-170.5 -55q-88 0 -150.5 40 t-79.5 103h-231q14 -98 74.5 -177t162 -125t230.5 -46q137 0 240.5 49z" />
<glyph horiz-adv-x="1208" d="M1014 0h-348v266h-635v307l471 861h512v-850h145v-318h-145v-266zM727 328v-267h225v267h146v194h-146v850h-415l-445 -813v-231h635zM727 522h-387v86l260 477h127v-563zM401 594v-10h265v440h-31z" />
<glyph horiz-adv-x="1208" d="M244 108q-129 128 -152 312h348q16 -47 61.5 -80t114.5 -33q78 0 127.5 47t49.5 117t-47.5 117t-124.5 47q-51 0 -89 -14.5t-71 -47.5h-348l82 861h870v-318h-576l-18 -194h8q25 12 73 21t105 9q141 0 253 -61.5t174.5 -171t62.5 -248.5q0 -143 -65.5 -255t-186.5 -174 t-281 -62q-241 0 -370 128zM863.5 95.5q107.5 54.5 164.5 152.5t57 223q0 121 -55 217t-152.5 149.5t-220.5 53.5q-55 0 -105 -10.5t-71 -20.5h-78l29 318h572v194h-752l-72 -737h256q74 61 185 61q102 0 167.5 -64.5t65.5 -160.5q0 -94 -67.5 -159.5t-170.5 -65.5 q-86 0 -139 36.5t-76 75.5h-235q33 -117 136.5 -217t311.5 -100q142 0 249.5 54.5z" />
<glyph horiz-adv-x="1208" d="M333 47.5q-122 67.5 -191.5 182t-69.5 251.5q0 109 25.5 182.5t66.5 135.5l409 635h390l-308 -461q135 -4 245 -70.5t172.5 -177.5t62.5 -244q0 -137 -69 -251.5t-190.5 -182t-271.5 -67.5q-149 0 -271 67.5zM844.5 100.5q107.5 59.5 168 159.5t60.5 221 q0 125 -57.5 222.5t-166 152.5t-255.5 55h-53l307 461h-242l-368 -573q-55 -86 -80 -149.5t-25 -168.5q0 -121 61.5 -221t169 -159.5t240.5 -59.5t240.5 59.5zM428 313.5q-70 67.5 -70 167.5t70 168t176 68t175 -67.5t69 -168.5q0 -100 -68.5 -167.5t-175.5 -67.5 q-106 0 -176 67.5zM736 356.5q50 49.5 50 124.5q0 76 -50 125t-132 49t-133 -49t-51 -125t51 -125t133 -49t132 49.5z" />
<glyph horiz-adv-x="1208" d="M565 0h-389l473 1096h-588v338h986v-310zM743 1157l-473 -1096h254l461 1078v233h-862v-215h620z" />
<glyph horiz-adv-x="1208" d="M330 37q-119 57 -183.5 155.5t-64.5 217.5q0 121 60.5 203.5t148.5 119.5v10q-78 37 -131.5 114t-53.5 187q0 109 62.5 203t176.5 150.5t263 56.5q150 0 264.5 -56.5t177 -150.5t62.5 -203q0 -111 -53 -187.5t-131 -113.5v-10q88 -37 148.5 -120t60.5 -203 q0 -119 -64.5 -217.5t-184.5 -155.5t-280 -57q-159 0 -278 57zM857.5 90q105.5 49 161.5 133t56 187q0 111 -60.5 182.5t-148.5 99.5v88q78 29 131.5 96.5t53.5 167.5q0 92 -54.5 172t-155 128.5t-233.5 48.5t-232.5 -48.5t-153.5 -128t-54 -172.5q0 -100 53 -167.5 t131 -96.5v-88q-88 -29 -148.5 -100.5t-60.5 -181.5q0 -102 56.5 -186.5t162 -133.5t246.5 -49q144 0 249.5 49zM453.5 892q-60.5 52 -60.5 132t60.5 132t156.5 52t155.5 -52t59.5 -132t-59 -132t-156 -52q-96 0 -156.5 52zM722 936q42 35 42 88t-42 88t-112 35 q-72 0 -113.5 -35t-41.5 -88t42 -88t113 -35q70 0 112 35zM438.5 285.5q-69.5 60.5 -69.5 152.5t69.5 151.5t171.5 59.5q100 0 170 -59.5t70 -151.5t-69.5 -152.5t-170.5 -60.5q-102 0 -171.5 60.5zM737 329q51 42 51 109q0 66 -51 108t-127 42q-78 0 -129 -42t-51 -108 q0 -68 51 -109.5t129 -41.5q76 0 127 42z" />
<glyph horiz-adv-x="1208" d="M551 461q-135 4 -244.5 70.5t-172 177t-62.5 243.5q0 137 68.5 252t190.5 182.5t271 67.5q150 0 271.5 -67.5t191.5 -182t70 -252.5q0 -109 -26 -182.5t-67 -134.5l-409 -635h-389zM358 61h242l369 574q55 86 79.5 149.5t24.5 167.5q0 121 -61.5 221.5t-169 160 t-240.5 59.5t-240.5 -59.5t-168 -160t-60.5 -221.5q0 -125 57.5 -222t166 -152.5t255.5 -55.5h54zM427 784.5q-69 67.5 -69 167.5t69 168t175 68t176 -67.5t70 -168.5q0 -100 -69.5 -167.5t-176.5 -67.5q-106 0 -175 67.5zM735 827.5q51 49.5 51 124.5q0 76 -51 125t-133 49 t-132 -49t-50 -125t50 -125t132 -49t133 49.5z" />
<glyph horiz-adv-x="555" d="M146.5 605q-52.5 52 -52.5 128q0 74 52.5 126t126.5 52q76 0 128 -52t52 -126q0 -76 -52.5 -128t-127.5 -52q-74 0 -126.5 52zM356.5 649q34.5 35 34.5 84t-34.5 83t-83.5 34q-47 0 -82 -35t-35 -82q0 -49 33.5 -84t83.5 -35q49 0 83.5 35z" />
<glyph horiz-adv-x="665" d="M206 1138q-52 52 -52 126q0 76 52 128t128 52q74 0 126 -52t52 -128q0 -74 -52 -126t-126 -52q-76 0 -128 52zM250 1348q-35 -35 -35 -84t35 -83t84 -34q47 0 82 35t35 82q0 49 -34 84t-83 35t-84 -35zM158 533l41 430h266l41 -430v-533h-348v533zM219 62h225v465 l-36 374h-152l-37 -368v-471z" />
<glyph horiz-adv-x="1101" d="M445.5 1138q-52.5 52 -52.5 128q0 74 52.5 126t125.5 52q76 0 128.5 -52t52.5 -126q0 -76 -52.5 -128t-128.5 -52q-73 0 -125.5 52zM655.5 1182q34.5 35 34.5 84t-34.5 83t-84.5 34q-47 0 -81.5 -35t-34.5 -82q0 -49 33.5 -84t82.5 -35q50 0 84.5 35zM291.5 34 q-111.5 54 -171 145.5t-59.5 199.5q0 231 215 338q78 39 106 77t28 107v62h327v-62q0 -137 -53 -212.5t-166 -129.5q-57 -29 -77.5 -61.5t-20.5 -87.5q0 -47 38 -80t105 -33q68 0 106 34t38 89h348q0 -123 -61.5 -223.5t-176.5 -158.5t-264 -58q-150 0 -261.5 54zM851 129 q118 88 138 230h-231q-16 -51 -66.5 -87t-128.5 -36q-94 0 -149.5 50t-55.5 124t30 123t104 82q92 41 138 106.5t46 179.5h-205q0 -90 -39 -143t-129 -96q-180 -86 -180 -283q0 -92 51 -169t149.5 -123t229.5 -46q180 0 298 88z" />
<glyph horiz-adv-x="753" d="M690 301h-328l-296 420l296 420h328l-297 -420zM139 719l256 -356h176l-254 358l254 359h-176z" />
<glyph horiz-adv-x="753" d="M391 301h-328l297 420l-297 420h328l297 -420zM436 723l-254 -360h176l254 358l-254 359h-176z" />
<glyph horiz-adv-x="1263" d="M688 301h-328l-296 420l296 420h328l-297 -420zM137 719l256 -356h176l-254 358l254 359h-176zM1198 301h-328l-296 420l296 420h328l-297 -420zM647 719l256 -356h176l-254 358l254 359h-176z" />
<glyph horiz-adv-x="1263" d="M393 301h-328l297 420l-297 420h328l297 -420zM438 723l-254 -360h176l254 358l-254 359h-176zM903 301h-328l297 420l-297 420h328l297 -420zM948 723l-254 -360h176l254 358l-254 359h-176z" />
<glyph horiz-adv-x="1044" d="M382.5 487q-63.5 37 -100 100.5t-36.5 139.5t36.5 139.5t100 100t139.5 36.5t139.5 -36.5t100.5 -100t37 -139.5t-37 -139.5t-100.5 -100.5t-139.5 -37t-139.5 37zM674.5 575.5q62.5 63.5 62.5 151.5q0 90 -62.5 152.5t-152.5 62.5q-88 0 -151.5 -62.5t-63.5 -152.5 q0 -88 63.5 -151.5t151.5 -63.5q90 0 152.5 63.5z" />
<glyph horiz-adv-x="890" d="M799 573h-707v307h707v-307zM154 819v-184h583v184h-583z" />
<glyph horiz-adv-x="1187" d="M1116 573h-1044v307h1044v-307zM133 819v-184h922v184h-922z" />
<glyph horiz-adv-x="1576" d="M1505 573h-1433v307h1433v-307zM133 819v-184h1311v184h-1311z" />
<glyph horiz-adv-x="792" d="M422 -226q-121 166 -204 416t-83 537t83 536.5t204 415.5h338q-125 -166 -211 -416t-86 -536q0 -287 86 -537t211 -416h-338zM645 -164q-244 406 -244 891t244 891h-192q-43 -57 -102.5 -184.5t-106.5 -312.5t-47 -394t47 -394.5t106.5 -312.5t102.5 -184h192z" />
<glyph horiz-adv-x="792" d="M33 -226q125 166 211 416t86 537t-86 536.5t-211 415.5h338q121 -166 203.5 -416t82.5 -536q0 -287 -82.5 -537t-203.5 -416h-338zM340 -164q43 57 102.5 184t106.5 312.5t47 394.5t-47 394t-106.5 312t-102.5 185h-193q244 -406 244 -891t-244 -891h193z" />
<glyph horiz-adv-x="788" d="M723 -226h-553v1905h553v-307h-225v-1290h225v-308zM231 1618v-1782h431v184h-226v1413h226v185h-431z" />
<glyph horiz-adv-x="788" d="M618 -226h-552v308h225v1290h-225v307h552v-1905zM127 20v-184h430v1782h-430v-185h225v-1413h-225z" />
<glyph horiz-adv-x="808" d="M571 -226q-154 0 -246 92.5t-92 245.5v318q0 55 -37.5 89t-105.5 34v348q68 0 105.5 33.5t37.5 89.5v317q0 154 92.5 246t245.5 92h174v-297h-92q-92 0 -92 -92v-328q0 -100 -59.5 -156.5t-145.5 -68.5v-21q86 -12 145.5 -68t59.5 -157v-327q0 -92 92 -93h92v-297h-174z M684 -164v174h-31q-72 0 -112.5 41t-40.5 113v327q0 70 -47 117t-117 47h-41v143h41q70 0 117 47.5t47 116.5v328q0 72 41 113t112 41h31v174h-113q-125 0 -200.5 -75t-75.5 -202v-317q0 -70 -37 -115t-106 -63v-238q70 -18 106.5 -63.5t36.5 -114.5v-318 q0 -127 75.5 -201.5t200.5 -74.5h113z" />
<glyph horiz-adv-x="808" d="M63 -226v297h93q92 0 92 93v327q0 100 59.5 156.5t145.5 68.5v21q-86 12 -145.5 68.5t-59.5 156.5v328q0 92 -92 92h-93v297h175q154 0 245.5 -92t91.5 -246v-317q0 -55 38 -89t106 -34v-348q-68 0 -106 -34t-38 -89v-318q0 -154 -92 -246t-245 -92h-175zM238 -164 q127 0 201.5 74.5t74.5 201.5v318q0 70 37 115t106 63v238q-70 18 -106.5 63t-36.5 115v317q0 127 -74.5 202t-201.5 75h-113v-174h31q72 0 112.5 -41t40.5 -113v-328q0 -70 47 -117t117 -47h41v-143h-41q-70 0 -117 -47t-47 -117v-327q0 -72 -41 -113t-112 -41h-31v-174 h113z" />
<glyph horiz-adv-x="1955" d="M973 -93q-256 0 -455 106.5t-307.5 295t-108.5 426.5q0 233 114 425.5t314.5 304.5t452.5 112q266 0 468 -104.5t312.5 -287t110.5 -407.5t-110.5 -348t-299.5 -123q-90 0 -153.5 32.5t-91.5 79.5h-11q-43 -47 -114.5 -79.5t-161.5 -32.5q-113 0 -204 54t-143.5 149.5 t-52.5 216.5t52.5 216t143.5 149.5t204 54.5q70 0 126 -24t89 -58h10l21 71h194v-481q0 -39 27.5 -60.5t75.5 -21.5q123 0 122 205q0 154 -72.5 274.5t-211.5 189t-330 68.5q-176 0 -313.5 -74.5t-214 -205.5t-76.5 -295q0 -168 71.5 -295t206 -196.5t316.5 -69.5h420v-267 h-420zM1331 -31v143h-358q-199 0 -347.5 79t-228.5 219.5t-80 324.5q0 180 85 325.5t237 228.5t344 83q207 0 359.5 -77t234.5 -212t82 -305q0 -266 -184 -266q-72 0 -118 40t-46 103v420h-86l-21 -72h-78q-29 35 -79 58.5t-115 23.5q-94 0 -172 -46t-122 -127t-44 -185 t44 -185.5t122 -127.5t172 -46q86 0 149.5 33t98.5 80h69q25 -47 80 -80t135 -33q160 0 254 105.5t94 304.5q0 209 -102 377t-290.5 264t-436.5 96q-233 0 -420.5 -103.5t-293 -281.5t-105.5 -395q0 -221 101.5 -395t284.5 -272.5t423 -98.5h358zM807 562.5 q-59 61.5 -59 164.5q0 102 59 163.5t156 61.5q96 0 155.5 -61.5t59.5 -163.5t-59.5 -164t-155.5 -62q-97 0 -156 61.5zM1074 607q42 44 42 120t-42 120t-111 44q-70 0 -112 -44.5t-42 -119.5q0 -76 42 -120t112 -44q69 0 111 44z" />
<glyph horiz-adv-x="1208" d="M451 4q-170 43 -274.5 185.5t-104.5 332.5q0 199 105.5 334t273.5 186v228h327v-228q154 -45 243 -158.5t116 -248.5h-338q-20 49 -64.5 86t-120.5 37q-94 0 -154.5 -64.5t-60.5 -171.5q0 -106 60.5 -170.5t154.5 -64.5q76 0 120 36.5t65 86.5h338q-29 -139 -118 -254 t-241 -154v-227h-327v229zM512 -164h205v213q152 29 226.5 115t115.5 188h-219q-29 -51 -85.5 -89t-140.5 -38q-76 0 -139 38t-100 105.5t-37 153.5t37 153.5t100.5 105.5t138.5 38q84 0 140.5 -38t85.5 -89h219q-41 102 -118 188.5t-224 114.5v213h-205v-215 q-170 -31 -274.5 -159.5t-104.5 -311.5q0 -182 104.5 -311t274.5 -160v-215z" />
<glyph horiz-adv-x="1208" d="M440 -8q-184 45 -291.5 174t-107.5 305h348q0 -78 55.5 -131t169.5 -53q102 0 153.5 37.5t51.5 95.5q0 113 -145 139l-228 41q-182 33 -278 139.5t-96 274.5q0 162 96 272.5t272 155.5v217h328v-217q195 -51 292 -175t97 -304h-348q0 78 -61.5 131t-153.5 53 q-80 0 -127 -39t-47 -94q0 -49 33.5 -79t124.5 -48l180 -37q215 -45 312 -145.5t97 -284.5q0 -160 -105.5 -275.5t-293.5 -152.5v-217h-328v217zM502 -164h205v209q182 20 290.5 123.5t108.5 251.5q0 164 -86 248t-262 118l-180 37q-127 27 -173.5 72t-46.5 119 q0 80 65.5 137t170.5 57q98 0 175 -53t93 -131h230q-16 147 -115.5 243.5t-269.5 121.5v208h-205v-206q-172 -29 -270.5 -127.5t-98.5 -249.5q0 -150 84 -237t240 -115l227 -41q102 -18 149.5 -71.5t47.5 -129.5q0 -84 -69 -139.5t-198 -55.5q-121 0 -190.5 53.5 t-87.5 131.5h-230q18 -139 121 -238.5t275 -128.5v-207z" />
<glyph horiz-adv-x="1208" d="M388 120q-165 140 -224 341h-170v205h139v102h-139v205h170q59 201 224 341t431 140q121 0 216 -26.5t151 -65.5v-307q-59 39 -147.5 65.5t-188.5 26.5q-115 0 -196 -50t-117 -124h415v-205h-481v-102h481v-205h-415q37 -74 117.5 -124t195.5 -50q100 0 188 26.5 t148 65.5v-307q-55 -39 -150.5 -65.5t-216.5 -26.5q-266 0 -431 140zM994 60.5q79 19.5 130 45.5v177q-47 -23 -118.5 -40.5t-155.5 -17.5q-201 0 -290 102.5t-120 194.5h451v82h-481v225h481v82h-451q31 92 120 194.5t290 102.5q84 0 155.5 -17t118.5 -40v176 q-51 27 -130 46.5t-175 19.5q-256 0 -409.5 -140.5t-200.5 -341.5h-154v-82h140v-225h-140v-82h154q47 -201 200.5 -341t409.5 -140q96 0 175 19.5z" />
<glyph horiz-adv-x="1208" d="M59 0v328h50q45 0 68.5 19.5t23.5 51.5v154h-142v266h142v185q0 205 117.5 327.5t334.5 122.5q221 0 342 -122t121 -339h-350q0 66 -25.5 99.5t-83.5 33.5q-53 0 -80.5 -31.5t-27.5 -101.5v-174h313v-266h-313v-154q0 -25 -8.5 -44t-22.5 -27h631v-328h-1090zM121 61h966 v205h-647v62q18 0 32.5 23.5t14.5 47.5v215h314v144h-314v235q0 94 46.5 144.5t123.5 50.5q137 0 164 -133h230q-41 338 -398 338q-190 0 -290.5 -105.5t-100.5 -283.5v-246h-141v-144h141v-215q0 -61 -36 -97t-105 -36v-205z" />
<glyph horiz-adv-x="1208" d="M778 0h-348v225h-317v236h317v112h-317v236h147l-321 625h389l276 -553l277 553h389l-324 -625h150v-236h-318v-112h318v-236h-318v-225zM492 287v-226h225v226h317v112h-317v236h317v113h-190l323 624h-247l-277 -553h-78l-276 553h-250l323 -624h-188v-113h318v-236 h-318v-112h318z" />
<glyph d="M-745.5 1609q-45.5 46 -45.5 117q0 72 45.5 118t118.5 46q74 0 119 -46t45 -118t-45 -117.5t-119 -45.5q-73 0 -118.5 46zM-344 1609q-45 46 -45 117q0 72 45 118t119 46t119 -46t45 -118t-45.5 -117.5t-118.5 -45.5q-74 0 -119 46zM-553 1652.5q29 28.5 29 73.5 q0 47 -29 75t-74 28q-47 0 -74.5 -27.5t-27.5 -75.5q0 -45 27.5 -73.5t74.5 -28.5q45 0 74 28.5zM-151.5 1652.5q28.5 28.5 28.5 73.5q0 47 -28.5 75t-73.5 28q-47 0 -75 -27.5t-28 -75.5q0 -45 28 -73.5t75 -28.5q45 0 73.5 28.5z" />
<glyph d="M-721 1213.5q-45 46.5 -45 117.5q0 72 45 118t119 46t119 -46t45 -118t-45 -118t-119 -46t-119 46.5zM-344 1213.5q-45 46.5 -45 117.5q0 72 45 118t119 46t119 -46t45 -118t-45.5 -118t-118.5 -46q-74 0 -119 46.5zM-528.5 1257.5q28.5 28.5 28.5 73.5q0 47 -28.5 75 t-73.5 28q-47 0 -75 -28t-28 -75q0 -45 28 -73.5t75 -28.5q45 0 73.5 28.5zM-151.5 1257.5q28.5 28.5 28.5 73.5q0 47 -28.5 75t-73.5 28q-47 0 -75 -28t-28 -75q0 -45 28 -73.5t75 -28.5q45 0 73.5 28.5z" />
<glyph d="M-359.5 1610q-50.5 47 -50.5 116q0 70 50.5 117t123.5 47q74 0 124.5 -47t50.5 -117t-50.5 -116.5t-124.5 -46.5q-73 0 -123.5 47zM-154.5 1652.5q31.5 28.5 31.5 73.5t-31.5 74t-81.5 29q-49 0 -80.5 -28.5t-31.5 -74.5q0 -45 31.5 -73.5t80.5 -28.5q50 0 81.5 28.5z " />
<glyph d="M-61 1577h-277l-250 301h328zM-463 1821l152 -187h143l-123 187h-172z" />
<glyph d="M-311 1577h-277l199 301h328zM-358 1821l-125 -187h143l154 187h-172z" />
<glyph d="M-553 1577h-287l250 301h279l250 -301h-287l-103 121zM-561 1821l-156 -187h135l107 125h49l107 -125h135l-154 187h-223z" />
<glyph d="M-466.5 1583.5q-65.5 63.5 -65.5 161.5t65.5 161.5t169.5 63.5t170 -63.5t66 -161.5t-66 -161.5t-170 -63.5t-169.5 63.5zM-168 1624q49 47 49 121t-49 121t-129 47t-129 -47t-49 -121t49 -121t129 -47t129 47zM-375 1668q-31 32 -31 77q0 47 31 77.5t78 30.5 q45 0 77 -30.5t32 -77.5q0 -45 -32 -77t-77 -32q-47 0 -78 32zM-260 1708q14 14 14 37t-14 37t-37 14t-37 -14.5t-14 -36.5q0 -23 14.5 -37t36.5 -14q23 0 37 14z" />
<glyph d="M-1167 1587q0 131 62.5 204t170.5 73q57 0 131 -31q8 -2 31.5 -11.5t42.5 -9.5q23 0 40 13.5t21 38.5h205q0 -131 -60.5 -204t-162.5 -73q-35 0 -65.5 8.5t-73.5 22.5q-6 2 -31 11t-45 9q-23 0 -40 -13t-22 -38h-204zM-1001 1645q27 51 100 51q25 0 58.5 -11.5 t39.5 -13.5q29 -10 60.5 -18t56.5 -8q63 0 106 45t54 116h-103q-27 -51 -100 -51q-18 0 -43 7t-49 18q-29 10 -58.5 18t-54.5 8q-72 0 -115 -44t-55 -117h103z" />
<glyph d="M-61 1614h-676v235h676v-235zM-680 1792v-121h561v121h-561z" />
</font>
</defs>
</svg>
