<?xml version="1.0" standalone="no"?>
<!DOCTYPE svg PUBLIC "-//W3C//DTD SVG 1.1//EN" "http://www.w3.org/Graphics/SVG/1.1/DTD/svg11.dtd" >
<svg xmlns="http://www.w3.org/2000/svg" xmlns:xlink="http://www.w3.org/1999/xlink" version="1.1">
<metadata></metadata>
<defs>
<font id="telefonica_sansBdoutlineIt" horiz-adv-x="1208" >
<font-face units-per-em="2048" ascent="1638" descent="-410" />
<missing-glyph horiz-adv-x="552" />
<glyph horiz-adv-x="0" />
<glyph unicode="&#xd;" horiz-adv-x="0" />
<glyph unicode=" "  horiz-adv-x="552" />
<glyph unicode="&#x09;" horiz-adv-x="552" />
<glyph unicode="&#xa0;" horiz-adv-x="552" />
<glyph unicode="!" horiz-adv-x="667" d="M92 154q0 80 57.5 137t137.5 57q72 0 118 -46t46 -118q0 -80 -57.5 -137t-137.5 -57q-70 0 -117 47t-47 117zM154 154q0 -45 29.5 -74t76.5 -29q55 0 92 38t37 95q0 45 -29.5 74t-76.5 29q-55 0 -92 -38t-37 -95zM190 471l35 430l94 533h349l-95 -533l-116 -430h-267z M260 532h150l100 369l84 471h-221l-84 -471z" />
<glyph unicode="&#x22;" horiz-adv-x="937" d="M188 942l86 492h297l-86 -492h-297zM262 1004h170l66 368h-170zM600 942l86 492h297l-86 -492h-297zM674 1004h170l66 368h-170z" />
<glyph unicode="#" horiz-adv-x="1513" d="M-14 317l118 297h246l82 205h-246l119 297h236l125 318h307l-125 -318h194l125 318h308l-125 -318h245l-118 -297h-246l-82 -205h246l-119 -297h-236l-125 -317h-307l125 317h-194l-125 -317h-308l125 317h-245zM76 379h246l-125 -318h174l127 318h325l-125 -318h174 l127 318h236l68 174h-244l129 328h248l67 174h-243l124 317h-174l-127 -317h-325l125 317h-174l-127 -317h-234l-72 -174h246l-129 -328h-246zM567 553l129 328h318l-129 -328h-318zM657 614h185l82 205h-185z" />
<glyph unicode="$" horiz-adv-x="1318" d="M53 430v41h348v-20q0 -76 69 -120t177 -44q115 0 170 39t55 104q0 47 -49 82t-149 55l-139 27q-180 35 -269.5 126t-89.5 243q0 121 55.5 225t161 173t250.5 87l37 211h330l-41 -236q160 -45 247 -153.5t87 -255.5v-51h-349v10q0 76 -63.5 125t-161.5 49 q-104 0 -154.5 -41t-50.5 -113q0 -35 38 -62.5t122 -43.5l139 -27q205 -39 301.5 -136t96.5 -253q0 -131 -59.5 -236.5t-173.5 -173t-273 -79.5l-35 -207h-330l41 237q-160 49 -249 159t-89 259zM115 410q6 -133 98 -226.5t250 -126.5l-39 -221h203l37 205q156 4 267 60.5 t169.5 152.5t58.5 217q0 133 -83 214t-263 114l-141 26q-102 20 -155.5 63.5t-53.5 104.5q0 98 66.5 156.5t199.5 58.5q106 0 183 -50t98 -134h231q0 133 -90 227.5t-254 126.5l39 219h-203l-37 -206q-141 -6 -244.5 -63.5t-158.5 -153t-55 -211.5q0 -133 77.5 -206 t231.5 -102l139 -26q121 -23 184.5 -75t63.5 -124q0 -90 -71.5 -147.5t-215.5 -57.5q-121 0 -203 50.5t-100 134.5h-229z" />
<glyph unicode="%" horiz-adv-x="1722" d="M156 0l1142 1434h338l-1142 -1434h-338zM168 1083q0 100 53 185.5t140.5 135.5t183.5 50q86 0 155.5 -41t108.5 -111.5t39 -152.5q0 -100 -53.5 -185t-140.5 -135.5t-183 -50.5q-86 0 -155.5 41t-108.5 111.5t-39 152.5zM229 1083q0 -104 70 -173.5t172 -69.5 q82 0 154.5 43t116.5 114.5t44 151.5q0 104 -69.5 174t-171.5 70q-82 0 -155 -43t-117 -115t-44 -152zM285 61h180l1042 1311h-180zM352 1098q0 74 51.5 128t118.5 54q59 0 100.5 -41t41.5 -104q0 -74 -51.5 -128.5t-118.5 -54.5q-60 0 -101 41t-41 105zM414 1098 q0 -37 22.5 -60.5t57.5 -23.5q43 0 75.5 35.5t32.5 85.5q0 37 -22.5 60.5t-57.5 23.5q-43 0 -75.5 -36t-32.5 -85zM944 285q0 100 53.5 185t140.5 135t183 50q86 0 155.5 -41t108.5 -111.5t39 -152.5q0 -100 -53 -185t-140.5 -135t-183.5 -50q-86 0 -155.5 40.5 t-108.5 111.5t-39 153zM1006 285q0 -104 69.5 -174t171.5 -70q82 0 155 43t117 114.5t44 151.5q0 104 -70 174t-172 70q-82 0 -154.5 -43t-116.5 -114.5t-44 -151.5zM1128 299q0 74 51.5 128t118.5 54q59 0 100.5 -41t41.5 -104q0 -74 -51.5 -128t-118.5 -54q-60 0 -101 41 t-41 104zM1190 299q0 -37 22.5 -60.5t57.5 -23.5q43 0 75.5 36t32.5 85q0 37 -22.5 60.5t-57.5 23.5q-43 0 -75.5 -36t-32.5 -85z" />
<glyph unicode="&#x26;" horiz-adv-x="1345" d="M31 328q0 129 58 209.5t179 158.5l94 62l-57 82q-35 51 -54.5 96t-19.5 119q0 111 57.5 202t159 144t232.5 53q123 0 214 -45t138 -120t47 -163q0 -203 -196 -329l-127 -82l162 -205q61 88 75 166h297q-14 -129 -78.5 -229.5t-124.5 -157.5l228 -289h-379l-74 98 q-72 -49 -171 -83.5t-206 -34.5q-139 0 -241.5 48t-157.5 126.5t-55 173.5zM92 328q0 -78 48 -143.5t137.5 -104.5t207.5 -39q180 0 342 109l50 32l90 -121h219l-182 232q70 61 130 145t80 176h-174q-25 -90 -122 -206l-252 321l184 119q72 45 120 115.5t48 162.5 q0 74 -40 134.5t-117 96.5t-181 36q-115 0 -203 -45t-136 -123t-48 -170q0 -61 16.5 -101.5t44.5 -79.5l95 -133l-148 -96q-109 -70 -159 -138.5t-50 -178.5zM293 367q0 72 39 118.5t102 81.5l107 60l252 -340l-41 -27q-31 -23 -90.5 -44t-145.5 -21q-108 0 -165.5 48 t-57.5 124zM354 367q0 -49 41 -80t121 -31q113 0 189 47l-183 244l-57 -33q-53 -31 -82 -63.5t-29 -83.5zM475 1055q0 74 52.5 124t131.5 50q76 0 122 -42t46 -106q0 -68 -32.5 -106.5t-94.5 -69.5l-108 -53l-64 74q-53 59 -53 129zM537 1055q0 -23 11 -47.5t25 -40.5 l35 -39l66 33q49 25 70.5 49t21.5 71q0 37 -27.5 61.5t-79.5 24.5q-51 0 -86.5 -32.5t-35.5 -79.5z" />
<glyph unicode="'" horiz-adv-x="526" d="M188 942l86 492h297l-86 -492h-297zM262 1004h170l66 368h-170z" />
<glyph unicode="(" horiz-adv-x="796" d="M106 246q0 373 144.5 700.5t353.5 548.5h367q-225 -229 -381 -561t-156 -698q0 -201 39 -370t94 -276h-323q-57 111 -97.5 283t-40.5 373zM168 246q0 -170 32.5 -327t80.5 -267h192q-39 100 -69.5 249.5t-30.5 334.5q0 342 134 657t327 541h-205q-147 -166 -304 -465 t-157 -723z" />
<glyph unicode=")" horiz-adv-x="794" d="M-170 -410q225 229 381 561t156 699q0 201 -39 370t-95 275h324q57 -111 97 -283t40 -372q0 -373 -144 -700.5t-353 -549.5h-367zM-33 -348h205q147 166 304 465t157 723q0 170 -33 326.5t-80 267.5h-192q39 -100 69.5 -250t30.5 -334q0 -342 -134 -657.5t-327 -540.5z " />
<glyph unicode="*" horiz-adv-x="1021" d="M164 1014l65 235l265 -98l-21 283h248l-21 -283l265 98l65 -235l-262 -66l174 -207l-186 -153l-158 233l-160 -233l-186 153l174 207zM240 1059l299 -76l-199 -233l84 -72l174 254l172 -254l84 72l-199 233l299 76l-30 110l-291 -108l22 311h-116l22 -311l-291 108z" />
<glyph unicode="+" horiz-adv-x="1132" d="M109 440v308h317v337h307v-337h318v-308h-318v-338h-307v338h-317zM170 502h317v-338h185v338h317v184h-317v338h-185v-338h-317v-184z" />
<glyph unicode="," horiz-adv-x="563" d="M-59 -184l141 522h358l-233 -522h-266zM20 -123h146l178 399h-215z" />
<glyph unicode="-" horiz-adv-x="892" d="M76 430l55 307h709l-56 -307h-708zM150 492h581l35 184h-582z" />
<glyph unicode="." horiz-adv-x="565" d="M41 154q0 80 57.5 137t137.5 57q72 0 117.5 -46t45.5 -118q0 -80 -57 -137t-137 -57q-70 0 -117 47t-47 117zM102 154q0 -45 30 -74t77 -29q55 0 92 38t37 95q0 45 -29.5 74t-77.5 29q-55 0 -92 -38t-37 -95z" />
<glyph unicode="/" horiz-adv-x="880" d="M-174 -410l897 1905h348l-899 -1905h-346zM-78 -348h211l842 1782h-213z" />
<glyph unicode="0" horiz-adv-x="1382" d="M102 569q0 272 102.5 473t265.5 306.5t341 105.5q156 0 278.5 -73.5t190.5 -207t68 -309.5q0 -272 -102.5 -473t-265.5 -306t-341 -105q-156 0 -278.5 73.5t-190.5 206.5t-68 309zM164 569q0 -158 60.5 -277.5t168 -185t246.5 -65.5q166 0 315.5 101.5t240.5 288.5 t91 433q0 158 -60.5 278t-168 185.5t-246.5 65.5q-166 0 -315.5 -101.5t-240.5 -289t-91 -433.5zM393 596q0 164 54.5 297t145.5 209t198 76q123 0 194.5 -92.5t71.5 -247.5q0 -164 -54.5 -297t-145.5 -209t-198 -76q-122 0 -194 92t-72 248zM455 596q0 -129 55 -204 t149 -75q89 0 165.5 69t123.5 187.5t47 264.5q0 129 -55 203.5t-149 74.5q-88 0 -165 -68.5t-124 -187.5t-47 -264z" />
<glyph unicode="1" horiz-adv-x="817" d="M135 952l60 328h190q45 0 66.5 16.5t27.5 55.5l15 82h348l-252 -1434h-348l166 952h-273zM209 1014h272l-166 -953h222l231 1311h-223l-6 -33q-10 -61 -47 -90.5t-107 -29.5h-139z" />
<glyph unicode="2" horiz-adv-x="1193" d="M12 0l58 328l657 508q51 41 71.5 76.5t20.5 80.5q0 49 -35.5 81t-95.5 32q-70 0 -119 -43t-63 -121h-350q20 154 95 269.5t192.5 179t265.5 63.5q150 0 257 -55.5t162.5 -150.5t55.5 -214q0 -104 -34 -182t-100.5 -144.5t-183.5 -154.5l-268 -205l-2 -10h483l-59 -338 h-1008zM86 61h883l37 215h-484l19 107l288 219q111 84 170.5 141.5t91 127t31.5 163.5q0 160 -109.5 259.5t-303.5 99.5q-180 0 -311.5 -108.5t-168.5 -280.5h230q23 76 87 119.5t142 43.5q86 0 139.5 -49t53.5 -125q0 -59 -25 -106t-92 -101l-637 -491z" />
<glyph unicode="3" horiz-adv-x="1204" d="M47 399q0 33 2 52h346q2 -72 50.5 -108t123.5 -36q80 0 127 45t47 103q0 63 -40.5 101t-116.5 38h-92l51 287h106q74 0 127 37.5t53 101.5q0 45 -37.5 75.5t-109.5 30.5q-68 0 -114 -35.5t-54 -86.5h-348q18 135 95 237t194.5 157.5t261.5 55.5q129 0 234.5 -51t166 -138 t60.5 -188q0 -143 -73 -228t-177 -112l-2 -12q68 -29 116 -98.5t48 -175.5q0 -131 -70 -239t-192.5 -170t-274.5 -62q-160 0 -274.5 55t-174 150.5t-59.5 213.5zM109 389q8 -156 120.5 -252t325.5 -96q133 0 241.5 54.5t171 147.5t62.5 208q0 100 -50 158.5t-122 76.5l14 92 q102 20 174 95t72 204q0 84 -52 157t-143.5 116t-203.5 43q-182 0 -309 -92.5t-166 -235.5h225q25 53 81 88t134 35q100 0 154.5 -48t54.5 -120q0 -86 -69.5 -143.5t-172.5 -57.5h-55l-29 -164h19q102 0 160.5 -56t58.5 -144q0 -86 -65.5 -147.5t-170.5 -61.5 q-92 0 -151.5 41t-75.5 102h-233z" />
<glyph unicode="4" horiz-adv-x="1196" d="M-14 266l55 314l618 854h512l-149 -850h143l-55 -318h-143l-47 -266h-351l47 266h-630zM59 328h631l-47 -267h223l47 267h144l35 194h-144l150 850h-408l-590 -815zM348 522l14 88l338 475h125l-100 -563h-377zM420 584h252l82 440h-23z" />
<glyph unicode="5" horiz-adv-x="1206" d="M74 410v10h348q8 -43 51 -78t117 -35q82 0 138 54.5t56 125.5q0 68 -44 108t-113 40q-104 0 -162 -62h-346l233 861h871l-56 -318h-575l-51 -184h10q61 20 143 20q123 0 224.5 -51t161 -147.5t59.5 -221.5q0 -154 -75 -280.5t-206 -199t-293 -72.5q-174 0 -283.5 63 t-158.5 161.5t-49 205.5zM139 358q6 -76 49 -147.5t137.5 -120.5t239.5 -49q144 0 261.5 64.5t184 177t66.5 249.5q0 106 -50 188.5t-137 126.5t-196 44q-94 0 -159 -31h-76l86 318h569l35 194h-750l-200 -737h241q70 61 187 61q96 0 157.5 -57t61.5 -152q0 -63 -34 -118.5 t-92 -89t-130 -33.5q-84 0 -137.5 33.5t-73.5 78.5h-240z" />
<glyph unicode="6" horiz-adv-x="1204" d="M59 430q0 113 36 203t124 198l492 603h409l-391 -463q121 -14 212 -75.5t140 -154t49 -198.5q0 -160 -79.5 -289t-212.5 -201.5t-287 -72.5q-145 0 -257 60t-173.5 163.5t-61.5 226.5zM121 430q0 -106 54 -195.5t152.5 -141.5t223.5 -52q137 0 256 65.5t190.5 180 t71.5 256.5q0 98 -51 184t-147.5 138.5t-227.5 52.5h-39l385 454h-250l-456 -559q-94 -115 -128 -195.5t-34 -187.5zM346 457q0 74 36 133t96.5 93t131.5 34q106 0 170 -59.5t64 -151.5q0 -74 -36 -133.5t-96.5 -93t-131.5 -33.5q-107 0 -170.5 59.5t-63.5 151.5zM408 457 q0 -66 46 -108t126 -42q86 0 144 57.5t58 141.5q0 66 -46 107.5t-126 41.5q-86 0 -144 -57t-58 -141z" />
<glyph unicode="7" horiz-adv-x="1107" d="M66 0l663 1096h-567l59 338h985l-55 -318l-676 -1116h-409zM174 61h266l652 1078l41 233h-861l-36 -215h595v-10z" />
<glyph unicode="8" horiz-adv-x="1206" d="M66 385q0 145 75.5 241.5t186.5 137.5l2 10q-53 35 -91 99.5t-38 150.5q0 115 66.5 213t185 157.5t270.5 59.5q150 0 256 -56.5t161.5 -142.5t55.5 -172q0 -133 -68.5 -223t-169.5 -131l-2 -10q61 -37 104.5 -104.5t43.5 -157.5q0 -143 -69.5 -251t-192.5 -167t-277 -59 q-159 0 -272 53t-170 145t-57 207zM127 385q0 -152 113.5 -248t324.5 -96q140 0 248.5 52t168.5 146.5t60 217.5q0 82 -45 141t-110 88l14 82q98 33 166 113t68 202q0 72 -48.5 143.5t-141.5 119t-222 47.5q-133 0 -238.5 -50.5t-164 -135.5t-58.5 -183q0 -76 39 -134.5 t96 -90.5l-14 -82q-106 -31 -181 -114t-75 -218zM352 422q0 98 70 162.5t180 64.5q100 0 157.5 -56t57.5 -142q0 -98 -68.5 -162t-177.5 -64q-100 0 -159.5 55.5t-59.5 141.5zM414 422q0 -57 42 -96t115 -39q82 0 133.5 46t51.5 118q0 57 -40 97t-114 40q-82 0 -135 -47 t-53 -119zM487 1010q0 84 62.5 141t159.5 57q90 0 145 -50t55 -122q0 -84 -63.5 -140t-159.5 -56q-90 0 -144.5 49t-54.5 121zM549 1012q0 -49 37 -80t102 -31q70 0 115 38t45 97q0 47 -37 79t-104 32q-70 0 -114 -38t-44 -97z" />
<glyph unicode="9" horiz-adv-x="1206" d="M141 891q0 160 80 289t213 201.5t287 72.5q145 0 257 -60.5t173 -164t61 -225.5q0 -113 -35.5 -203t-123.5 -199l-492 -602h-409l391 463q-121 14 -212 75.5t-140.5 153.5t-49.5 199zM203 891q0 -98 51 -184t147.5 -138.5t227.5 -52.5h39l-385 -455h247l459 560 q94 115 128 195.5t34 187.5q0 106 -54.5 195t-152.5 141.5t-223 52.5q-137 0 -256 -65.5t-190.5 -180.5t-71.5 -256zM428 928q0 74 36 133t96.5 93t131.5 34q106 0 170 -59.5t64 -151.5q0 -74 -36 -133.5t-96.5 -93t-131.5 -33.5q-107 0 -170.5 59.5t-63.5 151.5zM489 928 q0 -66 46.5 -108t126.5 -42q86 0 144 57.5t58 141.5q0 66 -46 107.5t-126 41.5q-86 0 -144.5 -57t-58.5 -141z" />
<glyph unicode=":" horiz-adv-x="565" d="M41 154q0 80 57.5 137t137.5 57q72 0 117.5 -46t45.5 -118q0 -80 -57 -137t-137 -57q-70 0 -117 47t-47 117zM102 154q0 -45 30 -74t77 -29q55 0 92 38t37 95q0 45 -29.5 74t-77.5 29q-55 0 -92 -38t-37 -95zM168 874q0 80 57.5 137.5t136.5 57.5q72 0 118 -46t46 -118 q0 -80 -57 -137t-137 -57q-70 0 -117 47t-47 116zM229 874q0 -45 30 -73.5t77 -28.5q55 0 92 38t37 95q0 45 -29.5 74t-77.5 29q-55 0 -92 -38t-37 -96z" />
<glyph unicode=";" horiz-adv-x="565" d="M-57 -184l141 522h358l-233 -522h-266zM23 -123h145l178 399h-215zM166 874q0 80 57.5 137.5t136.5 57.5q72 0 118 -46t46 -118q0 -80 -57 -137t-137 -57q-70 0 -117 47t-47 116zM227 874q0 -45 30 -73.5t77 -28.5q55 0 92 38t37 95q0 45 -30 74t-77 29q-55 0 -92 -38 t-37 -96z" />
<glyph unicode="&#x3c;" horiz-adv-x="1132" d="M113 440v328l921 358v-329l-549 -193l549 -192v-330zM174 483l799 -311v197l-549 192v86l549 193v196l-799 -311v-242z" />
<glyph unicode="=" horiz-adv-x="1134" d="M150 236v286h860v-286h-860zM150 666v286h860v-286h-860zM211 297h737v164h-737v-164zM211 727h737v164h-737v-164z" />
<glyph unicode="&#x3e;" horiz-adv-x="1132" d="M123 82v330l549 192l-549 193v329l921 -358v-328zM184 172l799 311v242l-799 311v-196l549 -193v-86l-549 -192v-197z" />
<glyph unicode="?" horiz-adv-x="1099" d="M123 1014q29 197 171 318.5t368 121.5q135 0 241.5 -49t165.5 -133t59 -187q0 -139 -76.5 -233t-205.5 -145q-82 -33 -117 -71t-45 -99l-12 -66h-328l14 82q23 131 85.5 200.5t187.5 127.5q76 35 103.5 62.5t27.5 90.5q0 45 -38 74t-93 29q-72 0 -110 -28t-50 -95h-348z M199 1075h225q18 55 71.5 89t135.5 34q80 0 136 -46t56 -118q0 -59 -17.5 -95t-51 -59.5t-99.5 -54.5q-109 -51 -160 -106t-73 -166l-4 -21h203q14 86 59 138.5t143 93.5q117 49 180.5 127t63.5 194q0 84 -51 155t-144.5 112t-209.5 41q-178 0 -300 -87t-163 -231zM276 154 q0 80 57.5 137t137.5 57q72 0 118 -46t46 -118q0 -80 -57.5 -137t-137.5 -57q-69 0 -116.5 47t-47.5 117zM338 154q0 -45 29.5 -74t76.5 -29q56 0 92.5 38t36.5 95q0 45 -29.5 74t-76.5 29q-55 0 -92 -38t-37 -95z" />
<glyph unicode="@" horiz-adv-x="1957" d="M109 492q0 262 130 477t354 340t492 125q248 0 436.5 -95.5t290 -255t101.5 -346.5q0 -168 -59.5 -298t-166 -202.5t-243.5 -72.5q-100 0 -167 32.5t-93 79.5h-10q-45 -47 -116 -79.5t-157 -32.5q-100 0 -182 47t-128 129t-46 182q0 135 62.5 245t166 173.5t219.5 63.5 q76 0 134.5 -27t93.5 -66h10l39 82h194l-84 -473q-2 -6 -2 -20q0 -35 27 -52.5t70 -17.5q39 0 75.5 31t60 95.5t23.5 160.5q0 121 -71.5 223t-202.5 164.5t-305 62.5q-186 0 -339 -85t-240 -234.5t-87 -335.5q0 -145 66.5 -255t187.5 -168t279 -58h393l-47 -267h-377 q-225 0 -402.5 90.5t-278.5 255t-101 382.5zM170 492q0 -197 92 -348.5t256 -234.5t373 -83h323l27 143h-319q-176 0 -310.5 66.5t-209 189.5t-74.5 287q0 203 95 366.5t261 257t371 93.5q190 0 336.5 -71t225.5 -188.5t79 -252.5q0 -117 -33 -196t-84 -115.5t-104 -36.5 q-70 0 -114 33.5t-44 91.5q0 18 2 26l72 412h-82l-39 -82h-74q-29 39 -81 65.5t-122 26.5q-102 0 -191 -55.5t-142.5 -151.5t-53.5 -213q0 -127 84 -212t211 -85q80 0 143.5 33t100.5 80h72q20 -47 77.5 -80t149.5 -33q119 0 211 64.5t144 180.5t52 267q0 172 -94 317.5 t-268 231.5t-404 86q-250 0 -459.5 -116.5t-332.5 -318.5t-123 -445zM760 551q0 113 68.5 185.5t168.5 72.5q92 0 148.5 -53.5t56.5 -139.5q0 -113 -68.5 -185.5t-168.5 -72.5q-93 0 -149 53.5t-56 139.5zM821 551q0 -59 38 -95t106 -36q73 0 124.5 55t51.5 141 q0 59 -38 95.5t-106 36.5q-74 0 -125 -55.5t-51 -141.5z" />
<glyph unicode="A" horiz-adv-x="1433" d="M-92 0l743 1434h471l240 -1434h-369l-41 276h-518l-137 -276h-389zM10 61h250l135 277h611l41 -277h241l-219 1311h-379zM487 522l299 604h105l88 -604h-492zM586 584h321l-69 481h-13z" />
<glyph unicode="B" horiz-adv-x="1368" d="M51 0l252 1434h680q164 0 268.5 -94.5t104.5 -254.5q0 -131 -63.5 -225t-153.5 -143l-4 -10q53 -43 91 -112t38 -155q0 -133 -61.5 -233.5t-165 -153.5t-228.5 -53h-758zM125 61h684q115 0 204 49.5t139 135.5t50 194q0 76 -38 140.5t-93 105.5l12 72q88 39 149.5 123 t61.5 204q0 127 -84 207t-227 80h-629zM381 252l65 369h365q76 0 122 -45.5t46 -118.5q0 -88 -57.5 -146.5t-141.5 -58.5h-399zM457 313h323q59 0 98.5 41t39.5 103q0 47 -27 74.5t-80 27.5h-311zM481 813l64 369h354q78 0 123 -49.5t45 -114.5q0 -86 -60.5 -145.5 t-138.5 -59.5h-387zM555 874h313q55 0 96.5 42t41.5 102q0 41 -29 71.5t-78 30.5h-303z" />
<glyph unicode="C" horiz-adv-x="1513" d="M109 616q0 238 110.5 429.5t290.5 300t381 108.5q195 0 325 -78t196.5 -203.5t78.5 -271.5h-346q-57 215 -287 215q-100 0 -193.5 -59.5t-150.5 -167t-57 -246.5q0 -150 87 -238t226 -88q133 0 211 73t115 153h360q-86 -236 -269 -399.5t-446 -163.5q-184 0 -328.5 80.5 t-224 226t-79.5 329.5zM170 616q0 -168 72.5 -299t202.5 -203.5t296 -72.5q185 0 318 86t203.5 184.5t101.5 169.5h-231q-127 -225 -363 -225q-166 0 -270.5 105.5t-104.5 281.5q0 156 66.5 278.5t173 189.5t223.5 67q100 0 171 -36t110 -86t49 -93h233q-33 162 -147.5 296 t-382.5 134q-184 0 -351 -100.5t-268.5 -278.5t-101.5 -398z" />
<glyph unicode="D" horiz-adv-x="1454" d="M51 0l252 1434h506q164 0 302 -80t220 -223.5t82 -323.5q0 -227 -109.5 -411.5t-288.5 -290t-380 -105.5h-584zM125 61h510q184 0 349 97.5t266.5 268.5t101.5 380q0 162 -74 292t-198 201.5t-271 71.5h-455zM385 276l154 881h229q98 0 180 -48t130 -134t48 -199 q0 -139 -62.5 -253.5t-169 -180.5t-228.5 -66h-281zM459 338h207q106 0 198 57.5t146.5 157.5t54.5 223q0 94 -40 167t-107.5 113t-149.5 40h-178z" />
<glyph unicode="E" horiz-adv-x="1230" d="M51 0l252 1434h983l-57 -318h-633l-45 -246h596l-55 -307h-592l-45 -246h635l-56 -317h-983zM125 61h856l35 195h-635l65 369h592l35 184h-594l64 369h633l36 194h-858z" />
<glyph unicode="F" horiz-adv-x="1206" d="M51 0l252 1434h973l-57 -318h-623l-45 -256h573l-55 -307h-571l-99 -553h-348zM125 61h223l96 553h572l35 185h-574l66 379h622l37 194h-848z" />
<glyph unicode="G" horiz-adv-x="1562" d="M109 616q0 238 110.5 429.5t290.5 300t381 108.5q184 0 312 -72.5t199 -188.5t91 -251h-354q-25 61 -91.5 117.5t-189.5 56.5q-100 0 -193.5 -59.5t-150.5 -167t-57 -246.5q0 -150 87 -238t226 -88q133 0 213 66t104 129h-286l45 246h645l-133 -758h-266l4 123 q-59 -61 -150.5 -102t-212.5 -41q-182 0 -324.5 81.5t-221 226t-78.5 328.5zM170 616q0 -168 72.5 -299t200.5 -203.5t290 -72.5q117 0 209 46t137 108h80l-4 -134h150l112 635h-518l-25 -123h306q-14 -57 -58.5 -129.5t-132.5 -130t-219 -57.5q-166 0 -270.5 105.5 t-104.5 281.5q0 156 66.5 278.5t173 189.5t223.5 67t202 -52.5t116 -121.5h241q-39 143 -157.5 266t-368.5 123q-184 0 -351 -100.5t-268.5 -278.5t-101.5 -398z" />
<glyph unicode="H" horiz-adv-x="1497" d="M51 0l252 1434h348l-94 -533h512l94 533h350l-251 -1434h-351l97 543h-512l-95 -543h-350zM125 61h223l94 543h639l-96 -543h223l232 1311h-223l-95 -532h-639l95 532h-224z" />
<glyph unicode="I" horiz-adv-x="616" d="M43 0l252 1434h346l-252 -1434h-346zM117 61h221l229 1311h-221z" />
<glyph unicode="J" horiz-adv-x="882" d="M-72 0l60 338h299q45 0 65.5 16.5t26.5 55.5l180 1024h350l-200 -1131q-27 -156 -113 -229.5t-234 -73.5h-434zM2 61h360q240 0 283 242l191 1069h-224l-172 -962q-12 -72 -48 -103t-105 -31h-248z" />
<glyph unicode="K" horiz-adv-x="1280" d="M51 0l254 1434h346l-96 -555l475 555h436l-632 -727l395 -707h-410l-315 588l-105 -588h-348zM125 61h223l105 588h88l315 -588h268l-366 654l571 657h-270l-475 -555h-103l99 555h-224z" />
<glyph unicode="L" horiz-adv-x="1138" d="M51 0l252 1434h348l-192 -1096h626l-61 -338h-973zM125 61h848l39 215h-627l193 1096h-224z" />
<glyph unicode="M" horiz-adv-x="1904" d="M51 0l252 1434h498l127 -871h33l434 871h526l-252 -1434h-348l152 860h-19l-430 -860h-328l-129 860h-18l-150 -860h-348zM125 61h223l150 861h123l129 -861h235l430 861h131l-151 -861h223l231 1311h-415l-435 -870h-125l-126 870h-394z" />
<glyph unicode="N" horiz-adv-x="1505" d="M51 0l252 1434h410l288 -861h19l151 861h351l-252 -1434h-410l-289 860h-18l-152 -860h-350zM125 61h223l152 861h114l289 -861h314l231 1311h-223l-152 -860h-115l-288 860h-316z" />
<glyph unicode="O" horiz-adv-x="1556" d="M109 612q0 240 110.5 432.5t291.5 301t382 108.5q180 0 322.5 -82t222.5 -226.5t80 -324.5q0 -240 -111 -432t-292 -300.5t-382 -108.5q-180 0 -322.5 81.5t-222 226t-79.5 324.5zM170 612q0 -164 72.5 -295t200.5 -203.5t290 -72.5q191 0 357.5 103.5t266 282.5 t99.5 394q0 164 -72.5 295t-200.5 204t-290 73q-190 0 -357 -103.5t-266.5 -283t-99.5 -394.5zM395 645q0 156 66.5 276.5t173 188.5t225.5 68q109 0 193 -48.5t131 -136.5t47 -205q0 -156 -66.5 -276.5t-173 -188t-225.5 -67.5q-109 0 -193 48t-131 136t-47 205zM457 645 q0 -147 86 -237.5t223 -90.5q104 0 197.5 60.5t149.5 169t56 241.5q0 147 -86 237.5t-223 90.5q-104 0 -197.5 -60.5t-149.5 -169t-56 -241.5z" />
<glyph unicode="P" horiz-adv-x="1370" d="M51 0l252 1434h649q117 0 211 -51.5t147.5 -146.5t53.5 -218q0 -176 -71.5 -309.5t-192.5 -206t-260 -72.5h-365l-76 -430h-348zM125 61h223l76 431h416q127 0 232.5 65.5t168 186t62.5 274.5q0 160 -97.5 257t-253.5 97h-598zM461 707l80 450h350q80 0 132 -54t52 -140 q0 -113 -67.5 -184.5t-167.5 -71.5h-379zM535 768h305q74 0 124 54.5t50 140.5q0 59 -35 96t-88 37h-297z" />
<glyph unicode="Q" horiz-adv-x="1556" d="M109 612q0 240 110.5 432.5t291.5 301t382 108.5q180 0 322.5 -82t222.5 -226.5t80 -324.5q0 -205 -82 -377t-224 -288l199 -289h-385l-96 141q-95 -28 -190 -28h-7q-180 0 -322.5 81.5t-222 226t-79.5 324.5zM170 612q0 -164 72.5 -295t200.5 -203.5t290 -72.5 q111 0 223 39l105 -152h233l-166 242q150 106 239 277t89 374q0 164 -72.5 295t-200.5 204t-290 73q-190 0 -357 -103.5t-266.5 -283t-99.5 -394.5zM395 645q0 156 66.5 276.5t173 188.5t225.5 68q109 0 193 -48.5t131 -136.5t47 -205q0 -145 -57.5 -261.5t-155.5 -186.5 l-51 70h-232l103 -148q-35 -6 -72 -6q-109 0 -193 48t-131 136t-47 205zM457 645q0 -135 74.5 -223t193.5 -103l-102 152h378l29 -37q66 66 102.5 157t36.5 197q0 147 -86 237.5t-223 90.5q-104 0 -197.5 -60.5t-149.5 -169t-56 -241.5z" />
<glyph unicode="R" horiz-adv-x="1392" d="M51 0l252 1434h655q117 0 211.5 -49.5t148.5 -145.5t54 -235q0 -154 -66.5 -271t-178 -182.5t-244.5 -71.5l356 -479h-410l-329 461h-19l-80 -461h-350zM125 61h223l80 461h102l330 -461h258l-344 459l4 21h72q125 0 230.5 55t168 159.5t62.5 248.5q0 172 -95.5 270 t-257.5 98h-604zM463 717l78 450h360q84 0 134 -51t50 -139q0 -76 -31.5 -135.5t-83.5 -92t-110 -32.5h-397zM537 778h323q66 0 115 55.5t49 143.5q0 57 -31.5 93t-91.5 36h-309z" />
<glyph unicode="S" horiz-adv-x="1318" d="M53 430v41h353v-20q0 -76 66.5 -120t174.5 -44q115 0 170 37.5t55 97.5q0 106 -198 145l-139 27q-180 35 -269.5 126t-89.5 243q0 135 67.5 246.5t194.5 178t301 66.5q268 0 416 -114.5t148 -325.5v-51h-349v10q0 86 -61.5 130t-163.5 44t-153.5 -40t-51.5 -97 q0 -45 37 -76t123 -47l139 -27q205 -39 301.5 -136t96.5 -253q0 -139 -68 -250.5t-200 -176t-316 -64.5q-176 0 -308 56t-204 158.5t-72 235.5zM115 410q4 -109 69.5 -193t182 -130t270.5 -46q164 0 282.5 55.5t179 152.5t60.5 222q0 133 -83 214t-263 114l-141 26 q-209 41 -209 185q0 84 68.5 141t197.5 57q113 0 187.5 -46t93.5 -138h231q0 176 -132 272.5t-370 96.5q-154 0 -267.5 -56.5t-173.5 -154t-60 -219.5q0 -133 77.5 -206t231.5 -102l139 -26q121 -23 184.5 -77t63.5 -130q0 -86 -71.5 -141.5t-215.5 -55.5 q-121 0 -200.5 50.5t-98.5 134.5h-233z" />
<glyph unicode="T" horiz-adv-x="1210" d="M141 1096l62 338h1126l-61 -338h-387l-195 -1096h-348l192 1096h-389zM215 1157h389l-192 -1096h223l192 1096h390l38 215h-1001z" />
<glyph unicode="U" horiz-adv-x="1464" d="M135 502q0 68 12 141l140 791h348l-143 -816q-6 -33 -7 -63q0 -104 61.5 -171t160.5 -67q115 0 190.5 71t97.5 194l152 852h348l-156 -891q-31 -174 -120 -301t-224 -194.5t-299 -67.5q-176 0 -303 65.5t-192.5 183t-65.5 273.5zM197 502q0 -213 131 -337t368 -124 q224 0 381.5 135t198.5 367l145 829h-223l-143 -803q-27 -150 -120 -231.5t-228 -81.5q-131 0 -208 86t-77 211q0 33 6 65l133 754h-223l-129 -735q-12 -70 -12 -135z" />
<glyph unicode="V" horiz-adv-x="1413" d="M150 1434h364l145 -1004h13l497 1004h394l-723 -1434h-471zM221 1372l201 -1311h379l661 1311h-254l-497 -1003h-105l-145 1003h-240z" />
<glyph unicode="W" horiz-adv-x="2021" d="M160 1434h364l51 -850h19l371 850h368l68 -850h16l350 850h394l-607 -1434h-419l-62 840h-29l-358 -840h-424zM225 1372l94 -1311h326l359 840h126l62 -840h321l555 1311h-258l-352 -850h-115l-67 850h-270l-371 -850h-117l-53 850h-240z" />
<glyph unicode="X" horiz-adv-x="1331" d="M-123 0l610 737l-327 697h389l176 -420h12l324 420h430l-573 -697l352 -737h-389l-203 451h-12l-359 -451h-430zM6 61h268l361 451h82l205 -451h252l-328 684l516 627h-270l-324 -420h-84l-176 420h-252l303 -643z" />
<glyph unicode="Y" horiz-adv-x="1314" d="M121 1434h368l191 -553h20l383 553h410l-680 -953l-84 -481h-348l84 481zM209 1372l319 -889l-73 -422h223l76 441l620 870h-258l-383 -553h-96l-191 553h-237z" />
<glyph unicode="Z" horiz-adv-x="1251" d="M-20 0l55 315l747 781h-600l60 338h1087l-57 -314l-748 -782h621l-60 -338h-1105zM53 61h981l37 215h-676v15l817 856l43 225h-962l-37 -215h655v-14l-817 -856z" />
<glyph unicode="[" horiz-adv-x="786" d="M0 -410l336 1905h559l-53 -307h-232l-227 -1290h231l-55 -308h-559zM74 -348h432l35 184h-232l248 1413h234l30 185h-432z" />
<glyph unicode="\" horiz-adv-x="864" d="M160 1495h317l228 -1905h-318zM229 1434l213 -1782h193l-213 1782h-193z" />
<glyph unicode="]" horiz-adv-x="784" d="M-100 -410l53 308h231l228 1290h-232l53 307h560l-336 -1905h-557zM-27 -348h430l316 1782h-434l-31 -185h231l-247 -1413h-234z" />
<glyph unicode="^" horiz-adv-x="937" d="M121 840l213 594h381l213 -594h-287l-113 327h-8l-112 -327h-287zM209 901h156l112 328h94l113 -328h156l-166 471h-299z" />
<glyph unicode="_" horiz-adv-x="819" d="M-221 -502l55 307h899l-55 -307h-899zM-147 -440h772l34 184h-772z" />
<glyph unicode="`" horiz-adv-x="655" d="M231 1485h332l147 -301h-274zM342 1427l125 -186h151l-92 186h-184z" />
<glyph unicode="a" horiz-adv-x="1153" d="M31 276q0 166 115.5 267.5t318.5 101.5h270l2 10q4 25 4 35q0 51 -35.5 80t-97.5 29q-59 0 -89 -19.5t-52 -52.5h-315q43 162 163.5 250t302.5 88q217 0 333 -95.5t116 -256.5q0 -43 -8 -86l-109 -627h-260l-6 92h-10q-45 -47 -118 -79.5t-163 -32.5q-112 0 -194 40.5 t-125 109.5t-43 146zM92 276q0 -100 81 -167.5t220 -67.5q92 0 156.5 32.5t99.5 80.5h92l7 -93h151l98 566q8 43 9 86q0 133 -100.5 212t-287.5 79q-139 0 -235 -55.5t-145 -164.5h194q53 76 176 76q86 0 140.5 -46t54.5 -122q0 -10 -4 -39l-13 -67h-321q-176 0 -274.5 -86 t-98.5 -224zM297 317q0 72 52 117t147 45h270l-10 -53q-23 -119 -85.5 -185.5t-185.5 -66.5q-88 0 -138 41t-50 102zM358 317q0 -33 33 -57t94 -24q90 0 139.5 46t69.5 138h-198q-66 0 -102 -29t-36 -74z" />
<glyph unicode="b" horiz-adv-x="1282" d="M41 0l252 1434h330l-84 -461q41 37 109.5 64.5t137.5 27.5q123 0 221.5 -57.5t154 -165t55.5 -254.5q0 -158 -75 -298t-205 -225t-284 -85q-106 0 -181 39.5t-112 97.5h-10l-43 -117h-266zM115 61h151l43 117h82q37 -66 103.5 -101.5t158.5 -35.5q140 0 255.5 77t181 204 t65.5 266q0 193 -102.5 304.5t-266.5 111.5q-63 0 -122.5 -25t-100.5 -68h-96l82 461h-203zM395 481q0 96 44 173t115 121t151 44q106 0 175.5 -70.5t69.5 -185.5q0 -96 -44 -173t-114.5 -121t-150.5 -44q-106 0 -176 71t-70 185zM457 481q0 -86 52 -140t132 -54 q64 0 121 35.5t92 99t35 141.5q0 86 -52.5 140.5t-131.5 54.5q-63 0 -121 -36t-92.5 -99.5t-34.5 -141.5z" />
<glyph unicode="c" horiz-adv-x="1214" d="M70 449q0 176 80.5 317t217 220t296.5 79q236 0 357.5 -125t137.5 -305h-338q-16 55 -65 89t-113 34q-63 0 -120.5 -38t-91.5 -101.5t-34 -135.5q0 -88 54.5 -142t140.5 -54q57 0 112.5 35.5t83.5 89.5h342q-31 -115 -110.5 -214.5t-196 -158.5t-254.5 -59 q-147 0 -260.5 60t-176 166.5t-62.5 242.5zM131 449q0 -119 54.5 -211.5t154.5 -144.5t229 -52q160 0 287 89t188 224h-221q-41 -59 -101 -94t-130 -35q-113 0 -184.5 73t-71.5 185q0 90 43 167t113.5 123t150.5 46q74 0 132.5 -33.5t86.5 -93.5h228q-84 311 -426 312 q-143 0 -265.5 -72t-195 -199t-72.5 -284z" />
<glyph unicode="d" horiz-adv-x="1282" d="M66 457q0 162 74.5 302t203.5 223t285 83q170 0 268 -102l84 471h328l-252 -1434h-264l-5 102h-10q-33 -45 -111.5 -83.5t-170.5 -38.5q-123 0 -221.5 59t-153.5 167.5t-55 250.5zM127 457q0 -123 47 -217.5t131 -146.5t191 -52q84 0 156.5 39t99.5 84h96l4 -103h152 l231 1311h-203l-84 -471h-82q-78 102 -237 103q-141 0 -256 -76t-180.5 -201t-65.5 -270zM332 481q0 96 44 173t114.5 121t150.5 44q106 0 176 -70.5t70 -185.5q0 -96 -44 -173t-115 -121t-150 -44q-107 0 -176.5 71t-69.5 185zM393 481q0 -86 52.5 -140t132.5 -54 q63 0 120.5 35.5t92 99t34.5 141.5q0 86 -52 140.5t-132 54.5q-63 0 -120.5 -36t-92.5 -99.5t-35 -141.5z" />
<glyph unicode="e" horiz-adv-x="1232" d="M70 449q0 176 80.5 317t217 220t296.5 79q147 0 260.5 -60.5t175 -165t61.5 -235.5q0 -92 -14 -164h-756q0 -84 58.5 -139t144.5 -55q51 0 98 19.5t76 51.5h332q-33 -80 -106.5 -157.5t-183.5 -128.5t-241 -51q-147 0 -260.5 60t-176 166.5t-62.5 242.5zM131 449 q0 -119 54.5 -211.5t154.5 -144.5t229 -52q142 0 256.5 67.5t169.5 151.5h-198q-27 -27 -80 -51.5t-123 -24.5q-80 0 -144 38t-96 110q-26 57 -26 129q0 18 2 37h764q6 35 6 106q0 117 -55.5 207t-153.5 141.5t-227 51.5q-143 0 -265.5 -72t-195 -199t-72.5 -284zM344 588 q33 127 119 204.5t194 77.5q109 0 177.5 -76.5t74.5 -205.5h-565zM430 645h410q-10 72 -61.5 118t-121.5 46t-135 -47t-92 -117z" />
<glyph unicode="f" horiz-adv-x="808" d="M90 737l53 307h164l31 164q51 266 317 267h271l-49 -277h-160q-33 0 -47.5 -11t-18.5 -40l-18 -103h217l-53 -307h-215l-129 -737h-330l129 737h-162zM164 799h162l-129 -738h202l129 738h217l31 184h-215l29 164q10 61 37.5 87t89.5 26h106l29 153h-197 q-219 0 -256 -205l-41 -225h-163z" />
<glyph unicode="g" horiz-adv-x="1251" d="M0 -41h338q10 -39 53 -65.5t119 -26.5q80 0 132 40t67 118l22 118q-35 -29 -93 -55.5t-138 -26.5q-121 0 -218.5 53.5t-151.5 149.5t-54 217q0 170 73.5 303.5t196.5 207t266 73.5q111 0 183.5 -39t103.5 -94h10l41 112h269l-183 -1034q-37 -209 -173 -319.5t-351 -110.5 q-244 0 -371 101.5t-141 277.5zM72 -98q31 -125 136 -192.5t304 -67.5q193 0 311.5 96t149.5 272l172 973h-152l-41 -113h-82q-25 49 -85 91.5t-173 42.5q-129 0 -238.5 -67t-173 -186.5t-63.5 -269.5q0 -102 46 -184t129 -128t188 -46q76 0 130 26.5t83 55.5h92l-35 -180 q-20 -109 -87 -164.5t-173 -55.5q-90 0 -138 27t-77 70h-223zM352 537q0 76 38 141t102.5 103t138.5 38q104 0 170.5 -65.5t66.5 -163.5q0 -76 -37.5 -141.5t-102 -103.5t-138.5 -38q-105 0 -171.5 65.5t-66.5 164.5zM414 537q0 -74 49 -121t127 -47q88 0 152.5 64.5 t64.5 156.5q0 74 -49 121t-127 47q-88 0 -152.5 -64.5t-64.5 -156.5z" />
<glyph unicode="h" horiz-adv-x="1245" d="M41 0l252 1434h328l-82 -461q37 31 101.5 61.5t147.5 30.5q164 0 265.5 -100.5t101.5 -268.5q0 -49 -10 -104l-105 -592h-325l96 555q4 29 4 43q0 68 -40 109t-109 41q-74 0 -128.5 -46.5t-66.5 -115.5l-102 -586h-328zM115 61h202l93 525q16 100 85.5 161.5t170.5 61.5 q96 0 153.5 -58.5t57.5 -148.5q0 -14 -5 -47l-86 -494h203l94 535q10 55 11 100q0 137 -83 222.5t-223 85.5q-135 0 -235 -93h-88l82 461h-203z" />
<glyph unicode="i" horiz-adv-x="552" d="M20 0l183 1044h329l-182 -1044h-330zM94 61h203l162 922h-203zM244 1319q0 74 54 125t130 51q68 0 117 -42t49 -110q0 -74 -53.5 -125t-128.5 -51q-68 0 -118 42t-50 110zM305 1319q0 -39 31 -64.5t76 -25.5q51 0 85.5 32.5t34.5 81.5q0 39 -29.5 65t-74.5 26 q-51 0 -87 -33t-36 -82z" />
<glyph unicode="j" horiz-adv-x="552" d="M-276 -410l53 308h160q53 0 61 45l192 1101h330l-207 -1183q-23 -131 -104.5 -201t-218.5 -70h-266zM-203 -348h193q221 0 260 213l196 1118h-202l-185 -1040q-10 -53 -37.5 -80t-84.5 -27h-107zM232 1319q0 74 54 125t130 51q68 0 117 -42t49 -110q0 -74 -53.5 -125 t-128.5 -51q-68 0 -118 42t-50 110zM293 1319q0 -39 31 -64.5t76 -25.5q51 0 85.5 32.5t34.5 81.5q0 39 -29.5 65t-74.5 26q-51 0 -87 -33t-36 -82z" />
<glyph unicode="k" horiz-adv-x="1136" d="M41 0l252 1434h328l-144 -807l381 417h387l-497 -526l313 -518h-363l-254 438l-75 -438h-328zM115 61h202l76 439h90l250 -439h215l-278 465l430 457h-215l-381 -418h-98l141 807h-203z" />
<glyph unicode="l" horiz-adv-x="573" d="M31 0l252 1434h327l-252 -1434h-327zM104 61h201l232 1311h-203z" />
<glyph unicode="m" horiz-adv-x="1779" d="M33 0l182 1044h266l6 -92h11q49 47 116.5 80t137.5 33q100 0 168.5 -39t99.5 -94h10q47 55 125 94t174 39q158 0 259.5 -97.5t101.5 -267.5q0 -39 -11 -100l-104 -600h-328l103 580q4 29 4 43q0 57 -33 91t-92 34q-53 0 -99.5 -38t-56.5 -102l-104 -608h-330l102 580 q4 29 4 41q0 57 -32.5 92t-87.5 35q-59 0 -103.5 -37t-54.5 -103l-105 -608h-329zM106 61h203l94 547q16 94 77 147.5t145 53.5q82 0 132 -51t50 -133q0 -12 -4 -45l-90 -519h202l95 547q16 92 79.5 146.5t139.5 54.5q86 0 136 -50t50 -132q0 -14 -4 -47l-90 -519h203 l94 539q10 61 10 100q0 141 -83 222.5t-216 81.5q-90 0 -166 -43t-104 -91h-72q-66 133 -235 134q-59 0 -120 -33t-108 -80h-94l-6 92h-156z" />
<glyph unicode="n" horiz-adv-x="1234" d="M33 0l182 1044h266l6 -92h11q41 45 114.5 79t165.5 34q164 0 265.5 -100.5t101.5 -268.5q0 -49 -10 -104l-105 -592h-325l96 555q4 29 4 43q0 68 -40 109t-110 41q-74 0 -127 -46.5t-65 -115.5l-103 -586h-327zM106 61h203l92 525q16 100 85 161.5t169 61.5 q96 0 153.5 -58.5t57.5 -148.5q0 -14 -4 -47l-86 -494h203l94 535q10 55 10 100q0 137 -82.5 222.5t-222.5 85.5q-94 0 -158.5 -35t-95.5 -78h-96l-6 92h-154z" />
<glyph unicode="o" horiz-adv-x="1247" d="M70 449q0 176 81.5 317t220 220t300.5 79q152 0 266.5 -62.5t177 -170t62.5 -236.5q0 -178 -82 -318.5t-220.5 -219t-300.5 -78.5q-151 0 -265.5 62t-177 169.5t-62.5 237.5zM131 449q0 -113 54.5 -206t155.5 -147.5t234 -54.5q146 0 270 70.5t197.5 197.5t73.5 287 q0 113 -54 206t-155.5 147.5t-234.5 54.5q-145 0 -269 -72t-198 -199t-74 -284zM336 483q0 96 46 173t118.5 120t150.5 43q117 0 188.5 -70.5t71.5 -187.5q0 -96 -46 -173t-119.5 -120t-151.5 -43q-115 0 -186.5 71t-71.5 187zM397 483q0 -88 54.5 -142t142.5 -54 q63 0 121.5 34.5t96.5 97t38 142.5q0 88 -54.5 142.5t-144.5 54.5q-61 0 -120.5 -35t-96.5 -97.5t-37 -142.5z" />
<glyph unicode="p" horiz-adv-x="1273" d="M-41 -410l256 1454h264l4 -102h11q33 45 111.5 84t170.5 39q123 0 221.5 -59.5t153.5 -168t55 -249.5q0 -162 -76.5 -302.5t-205.5 -223t-281 -82.5q-162 0 -268 102l-88 -492h-328zM33 -348h203l86 491h81q84 -102 240 -102q135 0 251 76t183.5 201.5t67.5 269.5 q0 123 -47 217t-131 146.5t-191 52.5q-84 0 -156.5 -39t-99.5 -84h-96l-4 102h-152zM385 481q0 96 44 173t114.5 121t150.5 44q107 0 176.5 -70.5t69.5 -185.5q0 -96 -44 -173t-115.5 -121t-149.5 -44q-106 0 -176 71t-70 185zM446 481q0 -86 52.5 -140t132.5 -54 q63 0 120.5 35.5t92.5 99t35 141.5q0 86 -52.5 140.5t-132.5 54.5q-63 0 -120.5 -36t-92.5 -99.5t-35 -141.5z" />
<glyph unicode="q" horiz-adv-x="1271" d="M66 457q0 162 74.5 301t203.5 223t285 84q106 0 181 -40t112 -97h10l43 116h266l-256 -1454h-330l88 482q-45 -45 -109.5 -68.5t-137.5 -23.5q-125 0 -223.5 61t-152.5 169.5t-54 246.5zM127 457q0 -119 46 -214.5t130 -148.5t193 -53q141 0 223 92h96l-86 -481h203 l235 1331h-151l-43 -117h-82q-37 66 -103.5 102t-158.5 36q-141 0 -256 -74t-180.5 -200t-65.5 -273zM332 481q0 96 44 173t114.5 121t150.5 44q106 0 176 -70.5t70 -185.5q0 -96 -44 -173t-115 -121t-150 -44q-107 0 -176.5 71t-69.5 185zM393 481q0 -86 52.5 -140 t132.5 -54q63 0 120.5 35.5t92 99t34.5 141.5q0 86 -52 140.5t-132 54.5q-63 0 -120.5 -36t-92.5 -99.5t-35 -141.5z" />
<glyph unicode="r" horiz-adv-x="839" d="M33 0l182 1044h266l6 -81h11q23 35 68.5 58t111.5 23h215l-53 -307h-201q-78 0 -120 -36.5t-56 -127.5l-98 -573h-332zM106 61h203l90 512q18 113 73.5 169.5t166.5 56.5h149l31 184h-141q-55 0 -90 -21.5t-64 -60.5h-94l-6 82h-156z" />
<glyph unicode="s" horiz-adv-x="1058" d="M18 328h330q2 -43 39 -73t113 -30q63 0 98 27t35 65q0 70 -113 86l-71 11q-348 49 -349 293q0 100 52.5 181t157 129t251.5 48q152 0 253 -46t151.5 -120t56.5 -162h-330q-33 72 -141 72q-59 0 -91 -19.5t-32 -52.5q0 -27 24.5 -47t77.5 -26l103 -15q160 -23 244 -102.5 t84 -198.5q0 -156 -115 -262t-357 -106q-235 0 -348.5 93t-122.5 255zM86 270q23 -109 122 -169t281 -60q211 0 310.5 88t99.5 219q0 94 -68.5 156.5t-205.5 83.5l-103 14q-82 10 -118.5 50t-36.5 85q0 57 48 95t136 38q68 0 114 -23.5t58 -51.5h227q-29 94 -127 151.5 t-262 57.5q-193 0 -296 -84t-103 -213q0 -94 70.5 -151.5t224.5 -80.5l69 -10q92 -12 130 -50t38 -98q0 -63 -52 -108t-142 -45q-84 0 -134.5 30.5t-66.5 75.5h-213z" />
<glyph unicode="t" horiz-adv-x="847" d="M90 737l55 307h154l57 328h330l-57 -328h221l-55 -307h-226l-63 -372q-2 -6 -2 -19q0 -20 11 -29.5t42 -9.5h162l-53 -307h-209q-150 0 -222.5 62.5t-72.5 170.5q0 33 6 72l76 432h-154zM164 799h151l-86 -494q-6 -39 -6 -72q0 -172 234 -172h157l31 185h-88 q-57 0 -86 24.5t-29 67.5q0 18 2 27l74 434h225l33 184h-221l57 328h-202l-58 -328h-155z" />
<glyph unicode="u" horiz-adv-x="1247" d="M100 348q0 49 11 105l104 591h326l-97 -555q-4 -29 -4 -43q0 -68 41 -108.5t111 -40.5q74 0 127 46t65 116l103 585h327l-182 -1044h-266l-6 92h-10q-41 -45 -115 -78.5t-166 -33.5q-164 0 -266.5 100t-102.5 268zM162 348q0 -137 84 -222t223 -85q94 0 158.5 35t95.5 78 h96l6 -93h154l162 922h-203l-92 -524q-16 -100 -85 -161.5t-169 -61.5q-96 0 -154.5 59t-58.5 147q0 14 4 47l86 494h-203l-94 -534q-10 -55 -10 -101z" />
<glyph unicode="v" horiz-adv-x="1107" d="M84 1044h324l92 -665h12l326 665h352l-531 -1044h-409zM158 983l145 -922h318l469 922h-213l-326 -666h-105l-94 666h-194z" />
<glyph unicode="w" horiz-adv-x="1650" d="M98 1044h324l37 -573h20l250 573h328l47 -573h20l240 573h352l-448 -1044h-396l-38 563h-25l-244 -563h-383zM164 983l76 -922h282l246 564h123l41 -564h293l397 922h-215l-242 -573h-118l-46 573h-233l-250 -573h-117l-39 573h-198z" />
<glyph unicode="x" horiz-adv-x="1095" d="M-102 0l440 532l-238 512h344l125 -286h13l217 286h375l-418 -512l258 -532h-348l-136 317h-12l-248 -317h-372zM27 61h215l245 318h86l136 -318h209l-234 480l358 442h-213l-217 -287h-84l-125 287h-208l215 -461z" />
<glyph unicode="y" horiz-adv-x="1126" d="M-51 -410l55 308h203q16 0 26.5 9t22.5 32l33 59l-217 1046h334l120 -641h15l315 641h363l-658 -1228q-66 -125 -140.5 -175.5t-203.5 -50.5h-268zM23 -348h194q104 0 166.5 39t108.5 125l626 1167h-225l-313 -641h-103l-123 641h-209l207 -995l-26 -49 q-33 -61 -54.5 -82t-64.5 -21h-150z" />
<glyph unicode="z" horiz-adv-x="1009" d="M-31 0l49 293l488 444h-397l53 307h870l-49 -290l-487 -447h415l-53 -307h-889zM43 61h764l31 185h-482v14l568 520l34 203h-745l-31 -184h463v-15l-567 -518z" />
<glyph unicode="{" horiz-adv-x="802" d="M55 369l62 348h8q66 0 106.5 31.5t49.5 78.5l61 351q27 154 123 235.5t244 81.5h200l-53 -297h-96q-88 0 -101 -82l-63 -366q-16 -98 -86 -148.5t-158 -58.5l-4 -21q70 -16 119 -65t49 -129q0 -25 -4 -49l-51 -289q-4 -20 -4 -33q0 -70 78 -70h92l-54 -297h-151 q-141 0 -222 74t-81 211q0 39 8 84l49 277l4 32q0 39 -34.5 70t-82.5 31h-8zM127 418q47 -14 82 -55t35 -93q0 -10 -4 -34l-50 -277q-8 -45 -8 -84q0 -111 61.5 -167t178.5 -56h100l31 174h-18q-72 0 -107 37t-35 90q0 16 4 37l52 289q6 31 6 49q0 55 -44 96t-116 41h-21 l25 139h20q76 0 138.5 37t74.5 109l64 366q25 143 164 144h45l31 174h-127q-121 0 -201 -64.5t-102 -191.5l-62 -351q-12 -63 -55 -110t-119 -60z" />
<glyph unicode="|" horiz-adv-x="798" d="M260 -410v1905h328v-1905h-328zM322 -348h204v1782h-204v-1782z" />
<glyph unicode="}" horiz-adv-x="802" d="M-100 -410l53 297h96q88 0 101 82l63 367q16 98 86 148.5t158 58.5l4 20q-70 16 -119 65.5t-49 129.5q0 25 4 49l51 289q4 20 4 32q0 70 -78 70h-92l54 297h151q141 0 222 -73.5t81 -211.5q0 -39 -8 -84l-49 -276l-4 -33q0 -39 34.5 -69.5t81.5 -30.5h9l-62 -348h-8 q-66 0 -106.5 -32t-49.5 -79l-61 -350q-27 -154 -123 -236t-244 -82h-200zM-25 -348h125q121 0 201 64.5t102 191.5l62 350q12 63 55 110.5t119 59.5l43 240q-47 14 -82 55t-35 92q0 10 4 35l49 276q8 45 9 84q0 111 -61.5 167.5t-178.5 56.5h-98l-31 -174h16q72 0 107 -37 t35 -90q0 -16 -4 -37l-52 -289q-6 -31 -6 -49q0 -55 44 -96t116 -41h21l-25 -140h-21q-76 0 -138 -36.5t-75 -108.5l-63 -367q-25 -143 -164 -143h-43z" />
<glyph unicode="~" horiz-adv-x="1230" d="M78 348q0 215 94 327.5t246 112.5q82 0 135 -22.5t109 -63.5q33 -25 56 -36t48 -11q47 0 69.5 28t22.5 95h307q0 -215 -93 -327.5t-245 -112.5q-82 0 -135 22.5t-108 63.5q-33 25 -56.5 36t-48.5 11q-47 0 -69.5 -27.5t-24.5 -95.5h-307zM141 410h187q25 123 151 122 q41 0 70 -14t67 -43q53 -37 96.5 -56.5t114.5 -19.5q119 0 189.5 80t85.5 238h-187q-25 -123 -149 -123q-41 0 -69.5 14.5t-67.5 42.5q-53 37 -96.5 56.5t-114.5 19.5q-119 0 -190.5 -80t-86.5 -237z" />
<glyph unicode="&#xa1;" horiz-adv-x="665" d="M2 -375l94 533l117 430h266l-35 -430l-94 -533h-348zM76 -313h221l84 471l29 368h-150l-100 -368zM219 874q0 80 57.5 137.5t137.5 57.5q72 0 118 -46t46 -118q0 -80 -57.5 -137t-137.5 -57q-70 0 -117 47t-47 116zM281 874q0 -45 29.5 -73.5t76.5 -28.5q55 0 92 38 t37 95q0 45 -29.5 74t-76.5 29q-55 0 -92 -38t-37 -96z" />
<glyph unicode="&#xa2;" horiz-adv-x="1214" d="M70 440q0 154 63.5 280t173 209t244.5 113l41 228h328l-41 -230q141 -49 210.5 -161.5t75.5 -243.5h-338q-10 47 -55 85t-127 38q-63 0 -119.5 -35t-90.5 -97.5t-34 -142.5q0 -84 54.5 -140t138.5 -56q55 0 96 22.5t64.5 51t29.5 49.5h342q-43 -147 -158.5 -263 t-271.5 -145l-41 -227h-327l41 229q-141 51 -220 164t-79 272zM131 440q0 -154 85 -260t224 -133l-39 -211h201l41 217q131 12 236.5 96t160.5 203h-221q-23 -45 -80 -86t-145 -41q-113 0 -183.5 73t-70.5 185q0 98 43 175t112.5 119t149.5 42q92 0 148.5 -39t74.5 -88h228 q-27 104 -88.5 190.5t-200.5 114.5l39 211h-201l-41 -217q-129 -20 -237.5 -95t-172 -193.5t-63.5 -262.5z" />
<glyph unicode="&#xa3;" horiz-adv-x="1280" d="M-27 0l58 328h65q96 0 109 71l26 154h-161l47 266h164l41 228q35 186 168 296.5t329 110.5q215 0 341 -111.5t126 -298.5v-51h-338v21q0 55 -33.5 83.5t-101.5 28.5q-61 0 -102 -32.5t-52 -94.5l-32 -180h358l-47 -266h-358l-27 -154q-8 -49 -39 -71h682l-57 -328h-1166z M47 61h1038l37 205h-696l10 62q45 23 53 71l37 215h359l26 144h-358l43 241q16 90 72.5 139.5t144.5 49.5q78 0 128 -33t65 -100h219q-4 154 -112.5 246t-293.5 92q-168 0 -288.5 -94.5t-147.5 -251.5l-51 -289h-162l-27 -144h162l-37 -215q-23 -133 -172 -133h-12z" />
<glyph unicode="&#xa4;" horiz-adv-x="1157" d="M172 401l111 127q-47 78 -47 189t47 188l-111 127l139 125l107 -117q31 18 81 37t115 19q66 0 116 -18.5t81 -37.5l107 117l139 -125l-111 -127q47 -78 47 -188q0 -111 -47 -189l111 -127l-139 -125l-107 117q-31 -18 -81 -36.5t-116 -18.5t-115.5 18.5t-80.5 36.5 l-107 -117zM256 406l51 -44l101 111q29 -27 81 -50.5t125 -23.5q74 0 126.5 23.5t80.5 50.5l101 -111l51 44l-105 118q20 27 42 76t22 117t-21.5 117t-42.5 75l105 119l-51 43l-101 -110q-29 27 -81 50t-126 23t-126 -23.5t-80 -49.5l-101 110l-51 -43l104 -119 q-20 -27 -41.5 -76t-21.5 -116q0 -68 21.5 -117t41.5 -76zM369 717q0 104 68.5 175t176.5 71q109 0 177.5 -71t68.5 -175t-68.5 -175t-177.5 -71q-108 0 -176.5 70.5t-68.5 175.5zM430 717q0 -78 51 -131.5t133 -53.5t133.5 53.5t51.5 131.5t-51.5 131t-133.5 53t-133 -53 t-51 -131z" />
<glyph unicode="&#xa5;" horiz-adv-x="1318" d="M127 225l41 236h305l21 112h-306l41 236h140l-224 625h369l178 -553h21l370 553h410l-446 -625h141l-41 -236h-305l-21 -112h305l-41 -236h-305l-39 -225h-348l39 225h-305zM201 287h305l-39 -226h223l39 226h303l21 112h-305l40 236h306l20 113h-184l446 624h-260 l-371 -553h-96l-178 553h-240l224 -624h-172l-21 -113h305l-41 -236h-305z" />
<glyph unicode="&#xa6;" horiz-adv-x="798" d="M260 369h328v-779h-328v779zM260 717v778h328v-778h-328zM322 307v-655h204v655h-204zM322 778h204v656h-204v-656z" />
<glyph unicode="&#xa7;" horiz-adv-x="1337" d="M51 51v41h348v-22q0 -59 45 -95t140 -36q182 0 182 122q0 92 -152 127l-133 31q-176 41 -267 124t-91 198q0 117 53 205t129 135q-25 25 -42 69.5t-17 104.5q0 106 57 197t175 146.5t290 55.5q164 0 281.5 -54t179 -144.5t61.5 -198.5v-33h-348v10q0 61 -48 97t-126 36 q-88 0 -131 -31.5t-43 -80.5q0 -33 36 -62.5t107 -44.5l137 -28q164 -35 259.5 -126.5t95.5 -207.5q0 -115 -52.5 -203t-127.5 -137q27 -29 46 -79t19 -116q0 -104 -55 -194t-177 -147.5t-309 -57.5q-163 0 -281 52t-179.5 142.5t-61.5 204.5zM113 31q8 -143 132 -230.5 t328 -87.5q166 0 273.5 48.5t157 125t49.5 164.5q0 59 -24.5 113.5t-61.5 91.5q84 49 142 135t58 195q0 92 -81.5 167.5t-221.5 104.5l-139 29q-94 18 -143.5 64t-49.5 104q0 76 61.5 125t174.5 49q90 0 153.5 -42t73.5 -102h232q-10 84 -65.5 154t-156 112t-237.5 42 q-147 0 -251.5 -45t-157 -122t-52.5 -171q0 -55 23.5 -103.5t56.5 -81.5q-84 -51 -143.5 -137t-59.5 -192q0 -92 78 -159t234 -103l131 -31q109 -25 154.5 -71t45.5 -116q0 -84 -61 -134t-182 -50q-109 0 -169.5 43t-74.5 111h-227zM410 594q0 55 29.5 99t72.5 71 q70 -18 135 -35l141 -33q70 -16 112 -59t42 -105q0 -55 -29.5 -99t-72.5 -71q-69 19 -135 35l-142 33q-70 16 -111.5 59t-41.5 105zM471 594q0 -33 25.5 -61.5t78.5 -40.5l142 -33q70 -16 110 -29q54 41 54 102q0 33 -26 62t-79 41l-141 33l-111 28q-53 -41 -53 -102z" />
<glyph unicode="&#xa8;" horiz-adv-x="819" d="M205 1313q0 80 50 131t126 51q70 0 111 -41t41 -104q0 -80 -50.5 -131.5t-125.5 -51.5q-70 0 -111 41t-41 105zM266 1313q0 -39 25 -61.5t66 -22.5q51 0 82.5 33.5t31.5 87.5q0 39 -24.5 61.5t-65.5 22.5q-51 0 -83 -34t-32 -87zM600 1313q0 80 50.5 131t125.5 51 q70 0 111 -41t41 -104q0 -80 -50 -131.5t-126 -51.5q-70 0 -111 41t-41 105zM662 1313q0 -39 24.5 -61.5t65.5 -22.5q51 0 82.5 33.5t31.5 87.5q0 39 -24.5 61.5t-65.5 22.5q-51 0 -82.5 -34t-31.5 -87z" />
<glyph unicode="&#xa9;" horiz-adv-x="1699" d="M137 717q0 207 97.5 376t268.5 265t382 96t382 -96t268 -265t97 -376t-97 -376t-268 -265t-382 -96t-382 96t-268.5 265t-97.5 376zM199 717q0 -190 89 -345t244.5 -243t352.5 -88q196 0 352 88t245 242.5t89 345.5q0 190 -89 345t-245 243t-352 88q-197 0 -352.5 -88 t-244.5 -243t-89 -345zM311 717q0 162 75 293t206 205.5t293 74.5t293 -74.5t205.5 -205.5t74.5 -293t-74.5 -293t-205.5 -206t-293 -75t-293 75t-206 206t-75 293zM373 717q0 -145 66.5 -262t183 -183.5t262.5 -66.5q145 0 262 66.5t183.5 183t66.5 262.5q0 145 -66.5 262 t-183.5 183.5t-262 66.5t-262 -66.5t-183.5 -183.5t-66.5 -262zM516 717q0 106 50 192t136 136.5t193 50.5q145 0 235.5 -83t122.5 -204h-227q-16 35 -49 58.5t-82 23.5q-70 0 -112 -46t-42 -128t42 -128t112 -46q55 0 89 30.5t42 61.5h227q-33 -125 -123 -211t-235 -86 q-107 0 -193 50t-136 136t-50 193zM578 717q0 -88 42 -161t114.5 -115t160.5 -42q186 1 272 179h-100q-61 -96 -172 -97q-94 0 -154.5 63.5t-60.5 172.5t60.5 172t154.5 63q57 0 102 -24.5t66 -61.5h104q-25 61 -96.5 114.5t-175.5 53.5q-88 0 -160.5 -42t-114.5 -114.5 t-42 -160.5z" />
<glyph unicode="&#xaa;" horiz-adv-x="763" d="M131 952q0 94 72.5 160t191.5 66h176l4 20q2 8 3 23q0 59 -70 59q-27 0 -45.5 -12.5t-26.5 -28.5h-225q66 215 307 215q133 0 204 -63.5t71 -161.5q0 -20 -7 -58l-71 -403h-164l-10 61h-11q-25 -31 -70.5 -51t-105.5 -20q-98 0 -160.5 54t-62.5 140zM188 952 q0 -61 45.5 -99t120.5 -38q52 0 92.5 19.5t67.5 46.5h74l10 -56h68l63 346q6 35 6 58q0 74 -55 121t-162 47q-156 0 -219 -101h111q10 14 34.5 27.5t63.5 13.5q63 0 99 -38.5t26 -98.5l-12 -74h-226q-92 0 -149.5 -51t-57.5 -123zM305 973q0 49 33 80.5t88 31.5h184l-8 -53 q-10 -61 -60 -108t-116 -47q-55 0 -88 27.5t-33 68.5zM360 973q0 -16 15.5 -28.5t50.5 -12.5q49 0 81 30.5t38 71.5h-119q-66 0 -66 -61z" />
<glyph unicode="&#xab;" horiz-adv-x="1253" d="M49 526l373 420h346l-391 -440l213 -400h-318zM123 516l188 -348h176l-184 346l330 371h-184zM557 526l373 420h346l-391 -440l213 -400h-318zM631 516l188 -348h176l-184 346l330 371h-184z" />
<glyph unicode="&#xac;" horiz-adv-x="1136" d="M156 512v307h864v-532h-318v225h-546zM217 573h547v-225h194v410h-741v-185z" />
<glyph unicode="&#xad;" horiz-adv-x="892" d="M76 430l55 307h709l-56 -307h-708zM150 492h581l35 184h-582z" />
<glyph unicode="&#xae;" horiz-adv-x="1699" d="M137 717q0 207 97.5 376t268.5 265t382 96t382 -96t268 -265t97 -376t-97 -376t-268 -265t-382 -96t-382 96t-268.5 265t-97.5 376zM199 717q0 -190 89 -345t244.5 -243t352.5 -88q196 0 352 88t245 242.5t89 345.5q0 190 -89 345t-245 243t-352 88q-197 0 -352.5 -88 t-244.5 -243t-89 -345zM311 717q0 162 75 293t206 205.5t293 74.5t293 -74.5t205.5 -205.5t74.5 -293t-74.5 -293t-205.5 -206t-293 -75t-293 75t-206 206t-75 293zM373 717q0 -145 66.5 -262t183 -183.5t262.5 -66.5q145 0 262 66.5t183.5 183t66.5 262.5q0 145 -66.5 262 t-183.5 183.5t-262 66.5t-262 -66.5t-183.5 -183.5t-66.5 -262zM618 358v727h328q115 0 185.5 -68.5t70.5 -176.5q0 -100 -53 -159.5t-131 -76.5l205 -246h-226l-182 234v-234h-197zM676 416h86v235h80l184 -235h76l-193 231h27q86 0 147.5 51.5t61.5 141.5q0 86 -53.5 137 t-145.5 51h-270v-612zM762 700v258h164q59 0 94 -34.5t35 -94.5q0 -57 -35 -93t-94 -36h-164zM819 758h107q35 0 53 19.5t18 51.5q0 35 -18 53.5t-53 18.5h-107v-143z" />
<glyph unicode="&#xaf;" horiz-adv-x="794" d="M185 1219l41 235h671l-41 -235h-671zM254 1276h553l21 121h-553z" />
<glyph unicode="&#xb0;" horiz-adv-x="819" d="M199 1157q0 80 40 148.5t108.5 108.5t148.5 40t148.5 -40t108.5 -108.5t40 -148.5t-40 -148.5t-109 -108.5t-148 -40q-80 0 -148.5 40t-108.5 108.5t-40 148.5zM260 1157q0 -96 69.5 -165.5t166.5 -69.5q96 0 165.5 69.5t69.5 165.5t-69.5 166t-165.5 70t-166 -70 t-70 -166zM342 1157q0 63 45 108.5t109 45.5q63 0 108 -45t45 -109q0 -63 -45 -108t-108 -45q-64 0 -109 45t-45 108zM403 1157q0 -39 27 -65.5t66 -26.5t65.5 26.5t26.5 65.5t-26.5 65.5t-65.5 26.5t-66 -26.5t-27 -65.5z" />
<glyph unicode="&#xb1;" horiz-adv-x="1128" d="M115 0v307h942v-307h-942zM115 707v307h317v338h307v-338h318v-307h-318v-318h-307v318h-317zM176 61h819v185h-819v-185zM176 768h318v-317h184v317h317v184h-317v338h-184v-338h-318v-184z" />
<glyph unicode="&#xb2;" horiz-adv-x="688" d="M152 901l32 180l312 254q43 35 56 51.5t13 34.5t-15 30.5t-46 12.5q-59 0 -78 -61h-197q16 111 91 178.5t196 67.5q109 0 177.5 -59.5t68.5 -155.5q0 -72 -34 -122t-101 -104l-142 -112l-2 -11h230l-33 -184h-528zM221 958h412l12 70h-231l18 98l160 127q55 43 84 84 t29 97q0 74 -51.5 115.5t-137.5 41.5q-82 0 -136 -35.5t-75 -95.5h82q39 61 117 62q53 0 86 -28t33 -73q0 -33 -18.5 -60.5t-74.5 -70.5l-292 -239z" />
<glyph unicode="&#xb3;" horiz-adv-x="692" d="M174 1110v16h191q16 -51 77 -51q29 0 49.5 19.5t20.5 46.5q0 29 -18.5 43t-57.5 14h-55l29 164h67q37 0 56.5 18.5t19.5 40.5q0 43 -55 43q-57 0 -68 -41h-192q16 100 89.5 163t180.5 63q111 0 177.5 -57.5t66.5 -137.5q0 -68 -31 -112t-76 -62l-2 -10q27 -16 46.5 -50 t19.5 -83q0 -111 -80 -178.5t-195 -67.5q-129 0 -194.5 62.5t-65.5 156.5zM238 1069q8 -53 59 -87t137 -34q90 0 153.5 51.5t63.5 137.5q0 41 -20.5 68.5t-48.5 39.5l12 72q41 12 70.5 47t29.5 90q0 57 -50 97t-136 40q-66 0 -118 -30.5t-77 -79.5h82q35 41 103 41 q53 0 82.5 -27t29.5 -72t-35.5 -81.5t-99.5 -36.5h-18l-8 -50q59 0 89.5 -32.5t30.5 -81.5q0 -51 -36.5 -87t-90.5 -36q-41 0 -70.5 13t-41.5 38h-92z" />
<glyph unicode="&#xb4;" horiz-adv-x="655" d="M178 1184l246 301h340l-299 -301h-287zM299 1241h141l184 186h-172z" />
<glyph unicode="&#xb6;" horiz-adv-x="1282" d="M119 1034q0 115 49 206t136 142.5t194 51.5h676v-1639h-287v1362h-103v-1362h-286v840q-106 0 -193.5 51t-136.5 142.5t-49 205.5zM180 1034q0 -98 42 -175t114 -120t162 -43h61v-839h164v1362h225v-1362h164v1515h-614q-90 0 -162 -43t-114 -119.5t-42 -175.5z" />
<glyph unicode="&#xb7;" horiz-adv-x="552" d="M98 523q0 80 57.5 137t137.5 57q72 0 117.5 -46t45.5 -118q0 -80 -57 -137t-137 -57q-70 0 -117 47t-47 117zM159 523q0 -45 30 -74t77 -29q55 0 92 38t37 95q0 45 -29.5 74t-77.5 29q-55 0 -92 -38t-37 -95z" />
<glyph unicode="&#xb8;" horiz-adv-x="526" d="M-115 -483l33 194h102q29 0 44.5 12.5t15.5 32.5q0 37 -60 37h-67l18 105l63 102h64l-70 -113l-6 -37h4q51 0 81 -27.5t30 -66.5q0 -45 -33 -73.5t-84 -28.5h-51l-14 -80h96q104 0 159.5 49t55.5 119q0 57 -38 96t-89 39h-10l63 123h68l-47 -88q111 -47 110 -170 q0 -92 -70.5 -158.5t-201.5 -66.5h-166z" />
<glyph unicode="&#xb9;" horiz-adv-x="563" d="M215 1362l33 184h102q23 0 39.5 14.5t20.5 36.5l8 41h194l-131 -737h-194l82 461h-154zM283 1419h155l-82 -461h76l111 623h-80q-10 -43 -40 -67.5t-73 -24.5h-53z" />
<glyph unicode="&#xba;" horiz-adv-x="813" d="M162 1057q0 113 51 204t137 142t185 51q139 0 225 -83t86 -216q0 -113 -51.5 -204t-137.5 -142t-184 -51q-139 0 -225 83t-86 216zM223 1057q0 -106 67.5 -172t182.5 -66q84 0 155.5 44t113.5 121t42 171q0 106 -67.5 172t-181.5 66q-84 0 -156 -44t-114 -121t-42 -171z M326 1081q0 92 59 155.5t139 63.5q68 0 113 -48t45 -122q0 -92 -59.5 -155.5t-139.5 -63.5q-67 0 -112 48.5t-45 121.5zM387 1081q0 -49 27.5 -78.5t68.5 -29.5q54 0 96 46t42 111q0 49 -28 79t-69 30q-53 0 -95 -46t-42 -112z" />
<glyph unicode="&#xbb;" horiz-adv-x="1257" d="M-23 106l392 441l-213 399h317l223 -420l-372 -420h-347zM113 168h184l326 367l-187 350h-178l184 -346zM485 106l392 441l-213 399h317l223 -420l-372 -420h-347zM621 168h184l326 367l-187 350h-178l184 -346z" />
<glyph unicode="&#xbf;" horiz-adv-x="1097" d="M-27 -27q0 139 77 233.5t206 145.5q82 33 117 71t45 99l12 66h328l-15 -82q-23 -131 -85 -200.5t-187 -127.5q-76 -35 -103.5 -62.5t-27.5 -90.5q0 -45 38 -74t93 -29q72 0 109.5 27.5t50.5 95.5h348q-29 -197 -171 -318.5t-368 -121.5q-135 0 -241.5 49t-166 133 t-59.5 186zM35 -27q0 -84 51 -154.5t144.5 -111.5t209.5 -41q178 0 300 87t163 231h-225q-18 -55 -71.5 -89t-135.5 -34q-80 0 -136 46t-56 118q0 59 17 95t51 59.5t99 53.5q109 51 160 106.5t74 166.5l4 20h-203q-16 -90 -59 -140t-143 -91q-117 -49 -180.5 -127 t-63.5 -195zM467 874q0 80 57.5 137.5t137.5 57.5q72 0 117.5 -46t45.5 -118q0 -80 -57 -137t-137 -57q-70 0 -117 47t-47 116zM528 874q0 -45 30 -73.5t77 -28.5q55 0 92 38t37 95q0 45 -29.5 74t-77.5 29q-55 0 -92 -38t-37 -96z" />
<glyph unicode="&#xc0;" horiz-adv-x="1433" d="M-92 0l743 1434h471l240 -1434h-369l-41 276h-518l-137 -276h-389zM10 61h250l135 277h611l41 -277h241l-219 1311h-379zM487 522l299 604h105l88 -604h-492zM568 1878h331l148 -301h-275zM586 584h321l-69 481h-13zM678 1821l125 -187h152l-92 187h-185z" />
<glyph unicode="&#xc1;" horiz-adv-x="1433" d="M-92 0l743 1434h471l240 -1434h-369l-41 276h-518l-137 -276h-389zM10 61h250l135 277h611l41 -277h241l-219 1311h-379zM487 522l299 604h105l88 -604h-492zM586 584h321l-69 481h-13zM763 1577l246 301h340l-299 -301h-287zM884 1634h142l184 187h-172z" />
<glyph unicode="&#xc2;" horiz-adv-x="1433" d="M-92 0l743 1434h471l240 -1434h-369l-41 276h-518l-137 -276h-389zM10 61h250l135 277h611l41 -277h241l-219 1311h-379zM487 522l299 604h105l88 -604h-492zM516 1577l304 301h286l199 -301h-281l-77 125l-121 -125h-310zM586 584h321l-69 481h-13zM656 1634h149 l125 129h43l82 -129h143l-124 187h-230z" />
<glyph unicode="&#xc3;" horiz-adv-x="1433" d="M-92 0l743 1434h471l240 -1434h-369l-41 276h-518l-137 -276h-389zM10 61h250l135 277h611l41 -277h241l-219 1311h-379zM487 522l299 604h105l88 -604h-492zM563 1587q20 129 93 203t176 74q55 0 129 -31q6 -2 31.5 -11.5t46.5 -9.5q51 0 65 52h211q-20 -129 -93 -203 t-175 -74q-53 0 -133 31q-53 20 -74 20q-51 0 -66 -51h-211zM586 584h321l-69 481h-13zM637 1645h105q27 51 100 51q27 0 56.5 -11.5t35.5 -13.5q27 -10 56.5 -18t56.5 -8q72 0 121 44t73 117h-104q-27 -51 -100 -51q-33 0 -95 25q-27 10 -56.5 18t-53.5 8q-72 0 -121 -44 t-74 -117z" />
<glyph unicode="&#xc4;" horiz-adv-x="1433" d="M-92 0l743 1434h471l240 -1434h-369l-41 276h-518l-137 -276h-389zM10 61h250l135 277h611l41 -277h241l-219 1311h-379zM487 522l299 604h105l88 -604h-492zM578 1708q0 80 50 131t126 51q70 0 110.5 -41t40.5 -104q0 -80 -50 -131t-126 -51q-69 0 -110 41t-41 104z M586 584h321l-69 481h-13zM639 1708q0 -39 24.5 -61.5t65.5 -22.5q51 0 83 34t32 87q0 39 -24.5 61.5t-65.5 22.5q-51 0 -83 -34t-32 -87zM973 1708q0 80 50 131t126 51q70 0 111 -41t41 -104q0 -80 -50.5 -131t-126.5 -51q-69 0 -110 41t-41 104zM1034 1708 q0 -39 24.5 -61.5t65.5 -22.5q52 0 83.5 34t31.5 87q0 39 -24.5 61.5t-65.5 22.5q-51 0 -83 -34t-32 -87z" />
<glyph unicode="&#xc5;" horiz-adv-x="1433" d="M-92 0l743 1434h471l240 -1434h-369l-41 276h-518l-137 -276h-389zM10 61h250l135 277h611l41 -277h241l-219 1311h-379zM487 522l299 604h105l88 -604h-492zM586 584h321l-69 481h-13zM690 1724q0 106 72.5 176t179.5 70q94 0 153.5 -56t59.5 -147q0 -106 -73 -176.5 t-179 -70.5q-95 0 -154 57t-59 147zM747 1731q0 -68 44 -111t118 -43q78 0 133 53t55 131q0 68 -44 110t-118 42q-78 0 -133 -52.5t-55 -129.5zM811 1737q0 49 34.5 82.5t85.5 33.5q47 0 75 -27.5t28 -70.5q0 -51 -35 -85t-86 -34q-47 0 -74.5 29t-27.5 72zM868 1741 q0 -20 14.5 -33.5t36.5 -13.5q23 0 40 17.5t17 39.5q0 20 -14 32.5t-37 12.5t-40 -16.5t-17 -38.5z" />
<glyph unicode="&#xc6;" horiz-adv-x="1978" d="M-133 0l876 1434h1291l-58 -318h-633l-43 -246h594l-55 -307h-592l-43 -246h633l-55 -317h-983l49 287h-424l-168 -287h-389zM-23 61h242l170 287h533l-50 -287h857l34 195h-635l66 369h592l35 184h-594l65 369h631l37 194h-1180zM502 532l387 646h180l-113 -646h-454z M610 594h293l92 522h-71z" />
<glyph unicode="&#xc7;" horiz-adv-x="1513" d="M109 616q0 238 110.5 429.5t290.5 300t381 108.5q195 0 325 -78t196.5 -203.5t78.5 -271.5h-346q-57 215 -287 215q-100 0 -193.5 -59.5t-150.5 -167t-57 -246.5q0 -150 87 -238t226 -88q133 0 211 73t115 153h360q-76 -211 -236.5 -370t-388.5 -187l-38 -74 q111 -47 110 -170q0 -92 -70.5 -158.5t-201.5 -66.5h-166l33 194h102q29 0 44 12.5t15 32.5q0 37 -59 37h-68l19 105l57 94q-150 27 -263.5 112.5t-174.5 218t-61 293.5zM170 616q0 -162 67.5 -288.5t188.5 -201.5t276 -83l-94 -156l-6 -37h4q51 0 81 -27.5t30 -66.5 q0 -45 -33 -73.5t-84 -28.5h-51l-14 -80h96q104 0 159.5 49t55.5 119q0 57 -38 96t-89 39h-10l84 166q166 12 288.5 98t189 180.5t93.5 159.5h-231q-127 -225 -363 -225q-166 0 -270.5 105.5t-104.5 281.5q0 156 66.5 278.5t173 189.5t223.5 67q100 0 171 -36t110 -86 t49 -93h233q-33 162 -147.5 296t-382.5 134q-184 0 -351 -100.5t-268.5 -278.5t-101.5 -398z" />
<glyph unicode="&#xc8;" horiz-adv-x="1230" d="M51 0l252 1434h983l-57 -318h-633l-45 -246h596l-55 -307h-592l-45 -246h635l-56 -317h-983zM125 61h856l35 195h-635l65 369h592l35 184h-594l64 369h633l36 194h-858zM467 1878h331l148 -301h-275zM577 1821l125 -187h152l-92 187h-185z" />
<glyph unicode="&#xc9;" horiz-adv-x="1230" d="M51 0l252 1434h983l-57 -318h-633l-45 -246h596l-55 -307h-592l-45 -246h635l-56 -317h-983zM125 61h856l35 195h-635l65 369h592l35 184h-594l64 369h633l36 194h-858zM663 1577l246 301h340l-299 -301h-287zM784 1634h142l184 187h-172z" />
<glyph unicode="&#xca;" horiz-adv-x="1230" d="M51 0l252 1434h983l-57 -318h-633l-45 -246h596l-55 -307h-592l-45 -246h635l-56 -317h-983zM125 61h856l35 195h-635l65 369h592l35 184h-594l64 369h633l36 194h-858zM415 1577l304 301h286l199 -301h-281l-77 125l-121 -125h-310zM555 1634h149l125 129h43l82 -129 h143l-124 187h-230z" />
<glyph unicode="&#xcb;" horiz-adv-x="1230" d="M51 0l252 1434h983l-57 -318h-633l-45 -246h596l-55 -307h-592l-45 -246h635l-56 -317h-983zM125 61h856l35 195h-635l65 369h592l35 184h-594l64 369h633l36 194h-858zM478 1708q0 80 50 131t126 51q70 0 110.5 -41t40.5 -104q0 -80 -50 -131t-126 -51q-69 0 -110 41 t-41 104zM539 1708q0 -39 24.5 -61.5t65.5 -22.5q51 0 83 34t32 87q0 39 -24.5 61.5t-65.5 22.5q-51 0 -83 -34t-32 -87zM873 1708q0 80 50 131t126 51q70 0 111 -41t41 -104q0 -80 -50.5 -131t-126.5 -51q-69 0 -110 41t-41 104zM934 1708q0 -39 24.5 -61.5t65.5 -22.5 q52 0 83.5 34t31.5 87q0 39 -24.5 61.5t-65.5 22.5q-51 0 -83 -34t-32 -87z" />
<glyph unicode="&#xcc;" horiz-adv-x="616" d="M43 0l252 1434h346l-252 -1434h-346zM117 61h221l229 1311h-221zM148 1878h331l148 -301h-275zM258 1821l125 -187h152l-92 187h-185z" />
<glyph unicode="&#xcd;" horiz-adv-x="616" d="M43 0l252 1434h346l-252 -1434h-346zM117 61h221l229 1311h-221zM344 1577l246 301h340l-299 -301h-287zM465 1634h142l184 187h-172z" />
<glyph unicode="&#xce;" horiz-adv-x="616" d="M43 0l252 1434h346l-252 -1434h-346zM96 1577l304 301h286l199 -301h-281l-77 125l-121 -125h-310zM117 61h221l229 1311h-221zM236 1634h149l125 129h43l82 -129h143l-124 187h-230z" />
<glyph unicode="&#xcf;" horiz-adv-x="616" d="M43 0l252 1434h346l-252 -1434h-346zM117 61h221l229 1311h-221zM158 1708q0 80 50 131t126 51q70 0 110.5 -41t40.5 -104q0 -80 -50 -131t-126 -51q-69 0 -110 41t-41 104zM219 1708q0 -39 24.5 -61.5t65.5 -22.5q51 0 83 34t32 87q0 39 -24.5 61.5t-65.5 22.5 q-51 0 -83 -34t-32 -87zM553 1708q0 80 50 131t126 51q70 0 111 -41t41 -104q0 -80 -50.5 -131t-126.5 -51q-69 0 -110 41t-41 104zM614 1708q0 -39 24.5 -61.5t65.5 -22.5q52 0 83.5 34t31.5 87q0 39 -24.5 61.5t-65.5 22.5q-51 0 -83 -34t-32 -87z" />
<glyph unicode="&#xd0;" horiz-adv-x="1507" d="M41 573l51 287h164l100 574h506q164 0 302.5 -80t220 -223.5t81.5 -323.5q0 -227 -109.5 -411.5t-288.5 -290t-380 -105.5h-584l101 573h-164zM113 635h163l-98 -574h510q184 0 349 97.5t266.5 268.5t101.5 380q0 162 -74 292t-197.5 201.5t-271.5 71.5h-454l-101 -573 h-164zM438 276l62 359h248l30 164h-248l64 358h227q98 0 180 -48t130.5 -134t48.5 -199q0 -139 -62.5 -253.5t-169 -180.5t-229.5 -66h-281zM512 338h207q106 0 198.5 57.5t146.5 157.5t54 223q0 94 -40 167t-107.5 113t-149.5 40h-174l-43 -236h246l-51 -287h-246z" />
<glyph unicode="&#xd1;" horiz-adv-x="1505" d="M51 0l252 1434h410l288 -861h19l151 861h351l-252 -1434h-410l-289 860h-18l-152 -860h-350zM125 61h223l152 861h114l289 -861h314l231 1311h-223l-152 -860h-115l-288 860h-316zM581 1587q20 129 93 203t176 74q55 0 129 -31q6 -2 31.5 -11.5t46.5 -9.5q51 0 65 52h211 q-20 -129 -93 -203t-175 -74q-53 0 -133 31q-53 20 -74 20q-51 0 -66 -51h-211zM655 1645h105q27 51 100 51q27 0 56.5 -11.5t35.5 -13.5q27 -10 56.5 -18t56.5 -8q72 0 121 44t73 117h-104q-27 -51 -100 -51q-33 0 -95 25q-27 10 -56.5 18t-53.5 8q-72 0 -121 -44t-74 -117 z" />
<glyph unicode="&#xd2;" horiz-adv-x="1556" d="M109 612q0 240 110.5 432.5t291.5 301t382 108.5q180 0 322.5 -82t222.5 -226.5t80 -324.5q0 -240 -111 -432t-292 -300.5t-382 -108.5q-180 0 -322.5 81.5t-222 226t-79.5 324.5zM170 612q0 -164 72.5 -295t200.5 -203.5t290 -72.5q191 0 357.5 103.5t266 282.5 t99.5 394q0 164 -72.5 295t-200.5 204t-290 73q-190 0 -357 -103.5t-266.5 -283t-99.5 -394.5zM395 645q0 156 66.5 276.5t173 188.5t225.5 68q109 0 193 -48.5t131 -136.5t47 -205q0 -156 -66.5 -276.5t-173 -188t-225.5 -67.5q-109 0 -193 48t-131 136t-47 205zM457 645 q0 -147 86 -237.5t223 -90.5q104 0 197.5 60.5t149.5 169t56 241.5q0 147 -86 237.5t-223 90.5q-104 0 -197.5 -60.5t-149.5 -169t-56 -241.5zM611 1878h331l148 -301h-275zM721 1821l125 -187h152l-92 187h-185z" />
<glyph unicode="&#xd3;" horiz-adv-x="1556" d="M109 612q0 240 110.5 432.5t291.5 301t382 108.5q180 0 322.5 -82t222.5 -226.5t80 -324.5q0 -240 -111 -432t-292 -300.5t-382 -108.5q-180 0 -322.5 81.5t-222 226t-79.5 324.5zM170 612q0 -164 72.5 -295t200.5 -203.5t290 -72.5q191 0 357.5 103.5t266 282.5 t99.5 394q0 164 -72.5 295t-200.5 204t-290 73q-190 0 -357 -103.5t-266.5 -283t-99.5 -394.5zM395 645q0 156 66.5 276.5t173 188.5t225.5 68q109 0 193 -48.5t131 -136.5t47 -205q0 -156 -66.5 -276.5t-173 -188t-225.5 -67.5q-109 0 -193 48t-131 136t-47 205zM457 645 q0 -147 86 -237.5t223 -90.5q104 0 197.5 60.5t149.5 169t56 241.5q0 147 -86 237.5t-223 90.5q-104 0 -197.5 -60.5t-149.5 -169t-56 -241.5zM806 1577l246 301h340l-299 -301h-287zM927 1634h142l184 187h-172z" />
<glyph unicode="&#xd4;" horiz-adv-x="1556" d="M109 612q0 240 110.5 432.5t291.5 301t382 108.5q180 0 322.5 -82t222.5 -226.5t80 -324.5q0 -240 -111 -432t-292 -300.5t-382 -108.5q-180 0 -322.5 81.5t-222 226t-79.5 324.5zM170 612q0 -164 72.5 -295t200.5 -203.5t290 -72.5q191 0 357.5 103.5t266 282.5 t99.5 394q0 164 -72.5 295t-200.5 204t-290 73q-190 0 -357 -103.5t-266.5 -283t-99.5 -394.5zM395 645q0 156 66.5 276.5t173 188.5t225.5 68q109 0 193 -48.5t131 -136.5t47 -205q0 -156 -66.5 -276.5t-173 -188t-225.5 -67.5q-109 0 -193 48t-131 136t-47 205zM457 645 q0 -147 86 -237.5t223 -90.5q104 0 197.5 60.5t149.5 169t56 241.5q0 147 -86 237.5t-223 90.5q-104 0 -197.5 -60.5t-149.5 -169t-56 -241.5zM559 1577l304 301h286l199 -301h-281l-77 125l-121 -125h-310zM699 1634h149l125 129h43l82 -129h143l-124 187h-230z" />
<glyph unicode="&#xd5;" horiz-adv-x="1556" d="M109 612q0 240 110.5 432.5t291.5 301t382 108.5q180 0 322.5 -82t222.5 -226.5t80 -324.5q0 -240 -111 -432t-292 -300.5t-382 -108.5q-180 0 -322.5 81.5t-222 226t-79.5 324.5zM170 612q0 -164 72.5 -295t200.5 -203.5t290 -72.5q191 0 357.5 103.5t266 282.5 t99.5 394q0 164 -72.5 295t-200.5 204t-290 73q-190 0 -357 -103.5t-266.5 -283t-99.5 -394.5zM395 645q0 156 66.5 276.5t173 188.5t225.5 68q109 0 193 -48.5t131 -136.5t47 -205q0 -156 -66.5 -276.5t-173 -188t-225.5 -67.5q-109 0 -193 48t-131 136t-47 205zM457 645 q0 -147 86 -237.5t223 -90.5q104 0 197.5 60.5t149.5 169t56 241.5q0 147 -86 237.5t-223 90.5q-104 0 -197.5 -60.5t-149.5 -169t-56 -241.5zM606 1587q20 129 93 203t176 74q55 0 129 -31q6 -2 31.5 -11.5t46.5 -9.5q51 0 65 52h211q-20 -129 -93 -203t-175 -74 q-53 0 -133 31q-53 20 -74 20q-51 0 -66 -51h-211zM680 1645h105q27 51 100 51q27 0 56.5 -11.5t35.5 -13.5q27 -10 56.5 -18t56.5 -8q72 0 121 44t73 117h-104q-27 -51 -100 -51q-33 0 -95 25q-27 10 -56.5 18t-53.5 8q-72 0 -121 -44t-74 -117z" />
<glyph unicode="&#xd6;" horiz-adv-x="1556" d="M109 612q0 240 110.5 432.5t291.5 301t382 108.5q180 0 322.5 -82t222.5 -226.5t80 -324.5q0 -240 -111 -432t-292 -300.5t-382 -108.5q-180 0 -322.5 81.5t-222 226t-79.5 324.5zM170 612q0 -164 72.5 -295t200.5 -203.5t290 -72.5q191 0 357.5 103.5t266 282.5 t99.5 394q0 164 -72.5 295t-200.5 204t-290 73q-190 0 -357 -103.5t-266.5 -283t-99.5 -394.5zM395 645q0 156 66.5 276.5t173 188.5t225.5 68q109 0 193 -48.5t131 -136.5t47 -205q0 -156 -66.5 -276.5t-173 -188t-225.5 -67.5q-109 0 -193 48t-131 136t-47 205zM457 645 q0 -147 86 -237.5t223 -90.5q104 0 197.5 60.5t149.5 169t56 241.5q0 147 -86 237.5t-223 90.5q-104 0 -197.5 -60.5t-149.5 -169t-56 -241.5zM621 1708q0 80 50 131t126 51q70 0 110.5 -41t40.5 -104q0 -80 -50 -131t-126 -51q-69 0 -110 41t-41 104zM682 1708 q0 -39 24.5 -61.5t65.5 -22.5q51 0 83 34t32 87q0 39 -24.5 61.5t-65.5 22.5q-51 0 -83 -34t-32 -87zM1016 1708q0 80 50 131t126 51q70 0 111 -41t41 -104q0 -80 -50.5 -131t-126.5 -51q-69 0 -110 41t-41 104zM1077 1708q0 -39 24.5 -61.5t65.5 -22.5q52 0 83.5 34 t31.5 87q0 39 -24.5 61.5t-65.5 22.5q-51 0 -83 -34t-32 -87z" />
<glyph unicode="&#xd7;" horiz-adv-x="1132" d="M123 344l237 250l-237 250l219 219l238 -250l237 250l219 -219l-237 -250l237 -250l-219 -219l-237 250l-238 -250zM209 348l133 -133l238 246l237 -246l133 133l-237 246l237 246l-133 133l-237 -246l-238 246l-133 -133l237 -246z" />
<glyph unicode="&#xd8;" horiz-adv-x="1556" d="M49 -72l201 271q-68 82 -104.5 187.5t-36.5 225.5q0 240 110.5 432.5t291.5 301t382 108.5q131 0 252 -49l74 100h358l-201 -270q68 -82 105 -187.5t37 -226.5q0 -240 -111 -432t-292 -300.5t-382 -108.5q-131 0 -252 49l-73 -101h-359zM170 612q0 -125 42 -230.5 t118 -180.5l-158 -211h203l88 114q123 -63 270 -63q190 0 357 103.5t266.5 282.5t99.5 394q0 125 -42 230.5t-118 181.5l158 211h-203l-88 -115q-123 63 -270 64q-190 0 -357 -103.5t-266.5 -283t-99.5 -394.5zM395 645q0 156 66.5 276.5t173 188.5t225.5 68q90 0 166 -35 l-555 -748q-76 100 -76 250zM457 645q0 -72 22 -133l445 598q-31 6 -64 6q-104 0 -197.5 -60.5t-149.5 -169t-56 -241.5zM600 291l555 745q76 -104 76 -248q0 -156 -66.5 -276.5t-173 -188t-225.5 -67.5q-90 0 -166 35zM702 324q31 -6 64 -7q104 0 197.5 60.5t149.5 169 t56 241.5q0 72 -22 134z" />
<glyph unicode="&#xd9;" horiz-adv-x="1464" d="M135 502q0 68 12 141l140 791h348l-143 -816q-6 -33 -7 -63q0 -104 61.5 -171t160.5 -67q115 0 190.5 71t97.5 194l152 852h348l-156 -891q-31 -174 -120 -301t-224 -194.5t-299 -67.5q-176 0 -303 65.5t-192.5 183t-65.5 273.5zM197 502q0 -213 131 -337t368 -124 q224 0 381.5 135t198.5 367l145 829h-223l-143 -803q-27 -150 -120 -231.5t-228 -81.5q-131 0 -208 86t-77 211q0 33 6 65l133 754h-223l-129 -735q-12 -70 -12 -135zM564 1878h331l148 -301h-275zM674 1821l125 -187h152l-92 187h-185z" />
<glyph unicode="&#xda;" horiz-adv-x="1464" d="M135 502q0 68 12 141l140 791h348l-143 -816q-6 -33 -7 -63q0 -104 61.5 -171t160.5 -67q115 0 190.5 71t97.5 194l152 852h348l-156 -891q-31 -174 -120 -301t-224 -194.5t-299 -67.5q-176 0 -303 65.5t-192.5 183t-65.5 273.5zM197 502q0 -213 131 -337t368 -124 q224 0 381.5 135t198.5 367l145 829h-223l-143 -803q-27 -150 -120 -231.5t-228 -81.5q-131 0 -208 86t-77 211q0 33 6 65l133 754h-223l-129 -735q-12 -70 -12 -135zM759 1577l246 301h340l-299 -301h-287zM880 1634h142l184 187h-172z" />
<glyph unicode="&#xdb;" horiz-adv-x="1464" d="M135 502q0 68 12 141l140 791h348l-143 -816q-6 -33 -7 -63q0 -104 61.5 -171t160.5 -67q115 0 190.5 71t97.5 194l152 852h348l-156 -891q-31 -174 -120 -301t-224 -194.5t-299 -67.5q-176 0 -303 65.5t-192.5 183t-65.5 273.5zM197 502q0 -213 131 -337t368 -124 q224 0 381.5 135t198.5 367l145 829h-223l-143 -803q-27 -150 -120 -231.5t-228 -81.5q-131 0 -208 86t-77 211q0 33 6 65l133 754h-223l-129 -735q-12 -70 -12 -135zM512 1577l304 301h286l199 -301h-281l-77 125l-121 -125h-310zM652 1634h149l125 129h43l82 -129h143 l-124 187h-230z" />
<glyph unicode="&#xdc;" horiz-adv-x="1464" d="M135 502q0 68 12 141l140 791h348l-143 -816q-6 -33 -7 -63q0 -104 61.5 -171t160.5 -67q115 0 190.5 71t97.5 194l152 852h348l-156 -891q-31 -174 -120 -301t-224 -194.5t-299 -67.5q-176 0 -303 65.5t-192.5 183t-65.5 273.5zM197 502q0 -213 131 -337t368 -124 q224 0 381.5 135t198.5 367l145 829h-223l-143 -803q-27 -150 -120 -231.5t-228 -81.5q-131 0 -208 86t-77 211q0 33 6 65l133 754h-223l-129 -735q-12 -70 -12 -135zM574 1708q0 80 50 131t126 51q70 0 110.5 -41t40.5 -104q0 -80 -50 -131t-126 -51q-69 0 -110 41t-41 104 zM635 1708q0 -39 24.5 -61.5t65.5 -22.5q51 0 83 34t32 87q0 39 -24.5 61.5t-65.5 22.5q-51 0 -83 -34t-32 -87zM969 1708q0 80 50 131t126 51q70 0 111 -41t41 -104q0 -80 -50.5 -131t-126.5 -51q-69 0 -110 41t-41 104zM1030 1708q0 -39 24.5 -61.5t65.5 -22.5 q52 0 83.5 34t31.5 87q0 39 -24.5 61.5t-65.5 22.5q-51 0 -83 -34t-32 -87z" />
<glyph unicode="&#xdd;" horiz-adv-x="1314" d="M121 1434h368l191 -553h20l383 553h410l-680 -953l-84 -481h-348l84 481zM209 1372l319 -889l-73 -422h223l76 441l620 870h-258l-383 -553h-96l-191 553h-237zM659 1577l246 301h340l-299 -301h-287zM780 1634h142l184 187h-172z" />
<glyph unicode="&#xde;" horiz-adv-x="1476" d="M51 0l252 1434h348l-43 -246h396q131 0 227 -50.5t148.5 -140.5t52.5 -206q0 -162 -66 -286t-184.5 -191.5t-270.5 -67.5h-469l-43 -246h-348zM125 61h221l43 246h522q135 0 239.5 59.5t162 169t57.5 255.5q0 152 -98 243.5t-268 91.5h-469l43 246h-224zM426 512l72 410 h452q90 0 142.5 -55.5t52.5 -131.5q0 -92 -66.5 -157.5t-163.5 -65.5h-489zM500 573h415q70 0 119 48.5t49 113.5q0 51 -34.5 88t-98.5 37h-399z" />
<glyph unicode="&#xdf;" horiz-adv-x="1226" d="M27 0l184 1044q33 190 172 300t348 110q154 0 262.5 -50t163.5 -134t55 -185q0 -143 -66.5 -233t-160.5 -123l-2 -10q63 -35 108.5 -103.5t45.5 -164.5q0 -131 -58.5 -233.5t-163 -160t-235.5 -57.5h-207l51 297h90q82 0 130.5 45t48.5 117q0 63 -38 99t-106 36h-71 l51 297h84q72 0 113.5 43t41.5 94q0 53 -36.5 86t-108.5 33q-74 0 -118 -37t-56 -106l-176 -1004h-346zM100 61h219l166 943q18 96 78 150t160 54q98 0 152.5 -50t54.5 -130q0 -82 -62.5 -140.5t-175.5 -58.5h-10l-31 -174h8q86 0 140.5 -54t54.5 -142q0 -98 -65.5 -160.5 t-174.5 -62.5h-36l-31 -175h133q115 0 205 49.5t140 137.5t50 203q0 90 -47 150.5t-115 84.5l15 82q94 27 158.5 106.5t64.5 210.5q0 84 -48 154t-143.5 112t-228.5 42q-184 0 -306 -93.5t-151 -255.5z" />
<glyph unicode="&#xe0;" horiz-adv-x="1153" d="M31 276q0 166 115.5 267.5t318.5 101.5h270l2 10q4 25 4 35q0 51 -35.5 80t-97.5 29q-59 0 -89 -19.5t-52 -52.5h-315q43 162 163.5 250t302.5 88q217 0 333 -95.5t116 -256.5q0 -43 -8 -86l-109 -627h-260l-6 92h-10q-45 -47 -118 -79.5t-163 -32.5q-112 0 -194 40.5 t-125 109.5t-43 146zM92 276q0 -100 81 -167.5t220 -67.5q92 0 156.5 32.5t99.5 80.5h92l7 -93h151l98 566q8 43 9 86q0 133 -100.5 212t-287.5 79q-139 0 -235 -55.5t-145 -164.5h194q53 76 176 76q86 0 140.5 -46t54.5 -122q0 -10 -4 -39l-13 -67h-321q-176 0 -274.5 -86 t-98.5 -224zM297 317q0 72 52 117t147 45h270l-10 -53q-23 -119 -85.5 -185.5t-185.5 -66.5q-88 0 -138 41t-50 102zM344 1485h332l147 -301h-274zM358 317q0 -33 33 -57t94 -24q90 0 139.5 46t69.5 138h-198q-66 0 -102 -29t-36 -74zM455 1427l125 -186h151l-92 186h-184z " />
<glyph unicode="&#xe1;" horiz-adv-x="1153" d="M31 276q0 166 115.5 267.5t318.5 101.5h270l2 10q4 25 4 35q0 51 -35.5 80t-97.5 29q-59 0 -89 -19.5t-52 -52.5h-315q43 162 163.5 250t302.5 88q217 0 333 -95.5t116 -256.5q0 -43 -8 -86l-109 -627h-260l-6 92h-10q-45 -47 -118 -79.5t-163 -32.5q-112 0 -194 40.5 t-125 109.5t-43 146zM92 276q0 -100 81 -167.5t220 -67.5q92 0 156.5 32.5t99.5 80.5h92l7 -93h151l98 566q8 43 9 86q0 133 -100.5 212t-287.5 79q-139 0 -235 -55.5t-145 -164.5h194q53 76 176 76q86 0 140.5 -46t54.5 -122q0 -10 -4 -39l-13 -67h-321q-176 0 -274.5 -86 t-98.5 -224zM297 317q0 72 52 117t147 45h270l-10 -53q-23 -119 -85.5 -185.5t-185.5 -66.5q-88 0 -138 41t-50 102zM358 317q0 -33 33 -57t94 -24q90 0 139.5 46t69.5 138h-198q-66 0 -102 -29t-36 -74zM543 1184l246 301h340l-299 -301h-287zM664 1241h141l184 186h-172z " />
<glyph unicode="&#xe2;" horiz-adv-x="1153" d="M31 276q0 166 115.5 267.5t318.5 101.5h270l2 10q4 25 4 35q0 51 -35.5 80t-97.5 29q-59 0 -89 -19.5t-52 -52.5h-315q43 162 163.5 250t302.5 88q217 0 333 -95.5t116 -256.5q0 -43 -8 -86l-109 -627h-260l-6 92h-10q-45 -47 -118 -79.5t-163 -32.5q-112 0 -194 40.5 t-125 109.5t-43 146zM92 276q0 -100 81 -167.5t220 -67.5q92 0 156.5 32.5t99.5 80.5h92l7 -93h151l98 566q8 43 9 86q0 133 -100.5 212t-287.5 79q-139 0 -235 -55.5t-145 -164.5h194q53 76 176 76q86 0 140.5 -46t54.5 -122q0 -10 -4 -39l-13 -67h-321q-176 0 -274.5 -86 t-98.5 -224zM295 1184l303 301h287l198 -301h-280l-78 125l-121 -125h-309zM297 317q0 72 52 117t147 45h270l-10 -53q-23 -119 -85.5 -185.5t-185.5 -66.5q-88 0 -138 41t-50 102zM358 317q0 -33 33 -57t94 -24q90 0 139.5 46t69.5 138h-198q-66 0 -102 -29t-36 -74z M434 1241h150l125 129h43l81 -129h144l-125 186h-230z" />
<glyph unicode="&#xe3;" horiz-adv-x="1153" d="M31 276q0 166 115.5 267.5t318.5 101.5h270l2 10q4 25 4 35q0 51 -35.5 80t-97.5 29q-59 0 -89 -19.5t-52 -52.5h-315q43 162 163.5 250t302.5 88q217 0 333 -95.5t116 -256.5q0 -43 -8 -86l-109 -627h-260l-6 92h-10q-45 -47 -118 -79.5t-163 -32.5q-112 0 -194 40.5 t-125 109.5t-43 146zM92 276q0 -100 81 -167.5t220 -67.5q92 0 156.5 32.5t99.5 80.5h92l7 -93h151l98 566q8 43 9 86q0 133 -100.5 212t-287.5 79q-139 0 -235 -55.5t-145 -164.5h194q53 76 176 76q86 0 140.5 -46t54.5 -122q0 -10 -4 -39l-13 -67h-321q-176 0 -274.5 -86 t-98.5 -224zM297 317q0 72 52 117t147 45h270l-10 -53q-23 -119 -85.5 -185.5t-185.5 -66.5q-88 0 -138 41t-50 102zM340 1196q20 129 93 201.5t175 72.5q55 0 129 -30q6 -2 32 -11.5t46 -9.5q51 0 66 51h210q-20 -129 -92.5 -201.5t-175.5 -72.5q-53 0 -133 31 q-53 20 -74 20q-51 0 -65 -51h-211zM358 317q0 -33 33 -57t94 -24q90 0 139.5 46t69.5 138h-198q-66 0 -102 -29t-36 -74zM414 1253h104q27 51 100 52q27 0 56.5 -11.5t36.5 -13.5q27 -10 56.5 -18.5t55.5 -8.5q72 0 121 43t74 117h-105q-27 -51 -100 -51q-33 0 -94 24 q-27 10 -56.5 18.5t-54.5 8.5q-72 0 -121 -43t-73 -117z" />
<glyph unicode="&#xe4;" horiz-adv-x="1153" d="M31 276q0 166 115.5 267.5t318.5 101.5h270l2 10q4 25 4 35q0 51 -35.5 80t-97.5 29q-59 0 -89 -19.5t-52 -52.5h-315q43 162 163.5 250t302.5 88q217 0 333 -95.5t116 -256.5q0 -43 -8 -86l-109 -627h-260l-6 92h-10q-45 -47 -118 -79.5t-163 -32.5q-112 0 -194 40.5 t-125 109.5t-43 146zM92 276q0 -100 81 -167.5t220 -67.5q92 0 156.5 32.5t99.5 80.5h92l7 -93h151l98 566q8 43 9 86q0 133 -100.5 212t-287.5 79q-139 0 -235 -55.5t-145 -164.5h194q53 76 176 76q86 0 140.5 -46t54.5 -122q0 -10 -4 -39l-13 -67h-321q-176 0 -274.5 -86 t-98.5 -224zM297 317q0 72 52 117t147 45h270l-10 -53q-23 -119 -85.5 -185.5t-185.5 -66.5q-88 0 -138 41t-50 102zM352 1313q0 80 50 131t126 51q70 0 111 -41t41 -104q0 -80 -50.5 -131.5t-125.5 -51.5q-70 0 -111 41t-41 105zM358 317q0 -33 33 -57t94 -24 q90 0 139.5 46t69.5 138h-198q-66 0 -102 -29t-36 -74zM413 1313q0 -39 25 -61.5t66 -22.5q51 0 82.5 33.5t31.5 87.5q0 39 -24.5 61.5t-65.5 22.5q-51 0 -83 -34t-32 -87zM747 1313q0 80 50.5 131t125.5 51q70 0 111 -41t41 -104q0 -80 -50 -131.5t-126 -51.5 q-70 0 -111 41t-41 105zM809 1313q0 -39 24.5 -61.5t65.5 -22.5q51 0 82.5 33.5t31.5 87.5q0 39 -24.5 61.5t-65.5 22.5q-51 0 -82.5 -34t-31.5 -87z" />
<glyph unicode="&#xe5;" horiz-adv-x="1153" d="M31 276q0 166 115.5 267.5t318.5 101.5h270l2 10q4 25 4 35q0 51 -35.5 80t-97.5 29q-59 0 -89 -19.5t-52 -52.5h-315q43 162 163.5 250t302.5 88q217 0 333 -95.5t116 -256.5q0 -43 -8 -86l-109 -627h-260l-6 92h-10q-45 -47 -118 -79.5t-163 -32.5q-112 0 -194 40.5 t-125 109.5t-43 146zM92 276q0 -100 81 -167.5t220 -67.5q92 0 156.5 32.5t99.5 80.5h92l7 -93h151l98 566q8 43 9 86q0 133 -100.5 212t-287.5 79q-139 0 -235 -55.5t-145 -164.5h194q53 76 176 76q86 0 140.5 -46t54.5 -122q0 -10 -4 -39l-13 -67h-321q-176 0 -274.5 -86 t-98.5 -224zM297 317q0 72 52 117t147 45h270l-10 -53q-23 -119 -85.5 -185.5t-185.5 -66.5q-88 0 -138 41t-50 102zM358 317q0 -33 33 -57t94 -24q90 0 139.5 46t69.5 138h-198q-66 0 -102 -29t-36 -74zM487 1331q0 106 72.5 176t179.5 70q94 0 153.5 -56.5t59.5 -146.5 q0 -106 -72.5 -177t-179.5 -71q-94 0 -153.5 57.5t-59.5 147.5zM544 1337q0 -68 44 -110.5t118 -42.5q78 0 133.5 53t55.5 131q0 68 -44 110t-118 42q-78 0 -133.5 -52.5t-55.5 -130.5zM608 1343q0 49 35 83t86 34q47 0 74.5 -27.5t27.5 -70.5q0 -51 -34.5 -85t-86.5 -34 q-47 0 -74.5 28.5t-27.5 71.5zM665 1348q0 -20 14.5 -34t36.5 -14q23 0 40.5 17.5t17.5 40.5q0 20 -14.5 32.5t-36.5 12.5q-23 0 -40.5 -16.5t-17.5 -38.5z" />
<glyph unicode="&#xe6;" horiz-adv-x="1857" d="M31 276q0 164 115.5 266.5t318.5 102.5h274l2 10q4 25 4 33q0 53 -37.5 82t-99.5 29q-59 0 -89 -19.5t-52 -52.5h-315q43 162 160.5 250t295.5 88q123 0 208 -48t130 -114q45 55 138.5 108.5t236.5 53.5q139 0 246.5 -60.5t166 -164t58.5 -226.5q0 -76 -23 -174h-710 q0 -94 49 -144t131 -50q53 0 92 21.5t60 49.5h327q-31 -80 -101.5 -157.5t-178 -128.5t-240.5 -51q-131 0 -224 50t-140 122q-57 -72 -166 -122t-254 -50q-174 0 -278.5 81.5t-104.5 214.5zM92 276q0 -102 86 -168.5t236 -66.5q118 0 207.5 36t141.5 83t68 86h13 q37 -74 122 -139.5t232 -65.5q166 0 267.5 71.5t152.5 147.5h-193q-82 -76 -186 -76q-127 0 -190.5 87t-51.5 227h723q10 57 11 116q0 106 -51.5 195.5t-144.5 142t-214 52.5q-223 0 -375 -191h-12q-61 100 -142 145.5t-184 45.5q-131 0 -226 -55.5t-144 -164.5h194 q53 76 176 76q90 0 144.5 -47t54.5 -123q0 -10 -4 -35l-12 -69h-326q-176 0 -274.5 -86t-98.5 -224zM307 317q0 74 51.5 118t147.5 44h266l-10 -53q-47 -252 -266 -252q-88 0 -138.5 41t-50.5 102zM369 317q0 -33 32.5 -57t94.5 -24q79 0 130.5 44t71.5 140h-192 q-68 0 -102.5 -26.5t-34.5 -76.5zM1016 588q43 141 123 211.5t172 70.5q106 0 169.5 -76.5t63.5 -205.5h-528zM1104 645h375q-10 76 -54.5 120t-113.5 44q-61 0 -116.5 -41t-90.5 -123z" />
<glyph unicode="&#xe7;" horiz-adv-x="1214" d="M70 449q0 176 80.5 317t217 220t296.5 79q236 0 357.5 -125t137.5 -305h-338q-16 55 -65 89t-113 34q-61 0 -118.5 -37t-92.5 -100.5t-35 -137.5q0 -88 53.5 -142t141.5 -54q57 0 112.5 35.5t83.5 89.5h342q-41 -156 -165.5 -275t-294.5 -149l-39 -76q111 -47 110 -170 q0 -92 -70.5 -158.5t-201.5 -66.5h-166l33 194h102q29 0 44.5 12.5t15.5 32.5q0 37 -60 37h-67l18 105l57 92q-174 37 -275 160.5t-101 298.5zM131 449q0 -172 112.5 -286t299.5 -122l-97 -154l-6 -37h4q51 0 81 -27.5t30 -66.5q0 -45 -33 -73.5t-84 -28.5h-51l-14 -80h96 q104 0 159.5 49t55.5 119q0 57 -38 96t-89 39h-10l86 168q137 16 246.5 103.5t164.5 205.5h-221q-41 -59 -101 -94t-130 -35q-111 0 -183.5 72t-72.5 186q0 92 43 169t114.5 122t149.5 45q74 0 132.5 -33.5t86.5 -93.5h228q-84 311 -426 312q-143 0 -265.5 -72t-195 -199 t-72.5 -284z" />
<glyph unicode="&#xe8;" horiz-adv-x="1232" d="M70 449q0 176 80.5 317t217 220t296.5 79q147 0 260.5 -60.5t175 -165t61.5 -235.5q0 -92 -14 -164h-756q0 -84 58.5 -139t144.5 -55q51 0 98 19.5t76 51.5h332q-33 -80 -106.5 -157.5t-183.5 -128.5t-241 -51q-147 0 -260.5 60t-176 166.5t-62.5 242.5zM131 449 q0 -119 54.5 -211.5t154.5 -144.5t229 -52q142 0 256.5 67.5t169.5 151.5h-198q-27 -27 -80 -51.5t-123 -24.5q-80 0 -143.5 38t-96 109.5t-24.5 166.5h764q6 35 6 106q0 117 -55.5 207t-153.5 141.5t-227 51.5q-143 0 -265.5 -72t-195 -199t-72.5 -284zM344 588 q33 127 119 204.5t194 77.5q109 0 177.5 -76.5t74.5 -205.5h-565zM367 1485h332l147 -301h-274zM430 645h410q-10 72 -61.5 118t-121.5 46t-135 -47t-92 -117zM478 1427l125 -186h151l-92 186h-184z" />
<glyph unicode="&#xe9;" horiz-adv-x="1232" d="M70 449q0 176 80.5 317t217 220t296.5 79q147 0 260.5 -60.5t175 -165t61.5 -235.5q0 -92 -14 -164h-756q0 -84 58.5 -139t144.5 -55q51 0 98 19.5t76 51.5h332q-33 -80 -106.5 -157.5t-183.5 -128.5t-241 -51q-147 0 -260.5 60t-176 166.5t-62.5 242.5zM131 449 q0 -119 54.5 -211.5t154.5 -144.5t229 -52q142 0 256.5 67.5t169.5 151.5h-198q-27 -27 -80 -51.5t-123 -24.5q-80 0 -143.5 38t-96 109.5t-24.5 166.5h764q6 35 6 106q0 117 -55.5 207t-153.5 141.5t-227 51.5q-143 0 -265.5 -72t-195 -199t-72.5 -284zM344 588 q33 127 119 204.5t194 77.5q109 0 177.5 -76.5t74.5 -205.5h-565zM430 645h410q-10 72 -61.5 118t-121.5 46t-135 -47t-92 -117zM565 1184l246 301h340l-299 -301h-287zM686 1241h141l184 186h-172z" />
<glyph unicode="&#xea;" horiz-adv-x="1232" d="M70 449q0 176 80.5 317t217 220t296.5 79q147 0 260.5 -60.5t175 -165t61.5 -235.5q0 -92 -14 -164h-756q0 -84 58.5 -139t144.5 -55q51 0 98 19.5t76 51.5h332q-33 -80 -106.5 -157.5t-183.5 -128.5t-241 -51q-147 0 -260.5 60t-176 166.5t-62.5 242.5zM131 449 q0 -119 54.5 -211.5t154.5 -144.5t229 -52q142 0 256.5 67.5t169.5 151.5h-198q-27 -27 -80 -51.5t-123 -24.5q-80 0 -143.5 38t-96 109.5t-24.5 166.5h764q6 35 6 106q0 117 -55.5 207t-153.5 141.5t-227 51.5q-143 0 -265.5 -72t-195 -199t-72.5 -284zM318 1184l303 301 h287l198 -301h-280l-78 125l-121 -125h-309zM344 588q33 127 119 204.5t194 77.5q109 0 177.5 -76.5t74.5 -205.5h-565zM430 645h410q-10 72 -61.5 118t-121.5 46t-135 -47t-92 -117zM457 1241h150l125 129h43l81 -129h144l-125 186h-230z" />
<glyph unicode="&#xeb;" horiz-adv-x="1232" d="M70 449q0 176 80.5 317t217 220t296.5 79q147 0 260.5 -60.5t175 -165t61.5 -235.5q0 -92 -14 -164h-756q0 -84 58.5 -139t144.5 -55q51 0 98 19.5t76 51.5h332q-33 -80 -106.5 -157.5t-183.5 -128.5t-241 -51q-147 0 -260.5 60t-176 166.5t-62.5 242.5zM131 449 q0 -119 54.5 -211.5t154.5 -144.5t229 -52q142 0 256.5 67.5t169.5 151.5h-198q-27 -27 -80 -51.5t-123 -24.5q-80 0 -143.5 38t-96 109.5t-24.5 166.5h764q6 35 6 106q0 117 -55.5 207t-153.5 141.5t-227 51.5q-143 0 -265.5 -72t-195 -199t-72.5 -284zM344 588 q33 127 119 204.5t194 77.5q109 0 177.5 -76.5t74.5 -205.5h-565zM375 1313q0 80 50 131t126 51q70 0 111 -41t41 -104q0 -80 -50.5 -131.5t-125.5 -51.5q-70 0 -111 41t-41 105zM430 645h410q-10 72 -61.5 118t-121.5 46t-135 -47t-92 -117zM436 1313q0 -39 25 -61.5 t66 -22.5q51 0 82.5 33.5t31.5 87.5q0 39 -24.5 61.5t-65.5 22.5q-51 0 -83 -34t-32 -87zM770 1313q0 80 50.5 131t125.5 51q70 0 111 -41t41 -104q0 -80 -50 -131.5t-126 -51.5q-70 0 -111 41t-41 105zM832 1313q0 -39 24.5 -61.5t65.5 -22.5q51 0 82.5 33.5t31.5 87.5 q0 39 -24.5 61.5t-65.5 22.5q-51 0 -82.5 -34t-31.5 -87z" />
<glyph unicode="&#xec;" horiz-adv-x="552" d="M20 0l183 1044h329l-182 -1044h-330zM45 1485h332l147 -301h-274zM94 61h203l162 922h-203zM156 1427l125 -186h151l-92 186h-184z" />
<glyph unicode="&#xed;" horiz-adv-x="552" d="M20 0l183 1044h329l-182 -1044h-330zM94 61h203l162 922h-203zM244 1184l246 301h340l-299 -301h-287zM365 1241h141l184 186h-172z" />
<glyph unicode="&#xee;" horiz-adv-x="552" d="M-4 1184l303 301h287l198 -301h-280l-78 125l-121 -125h-309zM20 0l183 1044h329l-182 -1044h-330zM94 61h203l162 922h-203zM135 1241h150l125 129h43l81 -129h144l-125 186h-230z" />
<glyph unicode="&#xef;" horiz-adv-x="552" d="M20 0l183 1044h329l-182 -1044h-330zM79 1313q0 80 50.5 131t126.5 51q70 0 110.5 -41t40.5 -104q0 -80 -50 -131.5t-126 -51.5q-70 0 -111 41t-41 105zM94 61h203l162 922h-203zM141 1313q0 -39 24.5 -61.5t65.5 -22.5q51 0 83 33.5t32 87.5q0 39 -25 61.5t-65 22.5 q-51 0 -83 -34t-32 -87zM456 1313q0 80 50.5 131t125.5 51q70 0 111 -41t41 -104q0 -80 -50 -131.5t-126 -51.5q-70 0 -111 41t-41 105zM518 1313q0 -39 24.5 -61.5t65.5 -22.5q51 0 82.5 33.5t31.5 87.5q0 39 -24.5 61.5t-65.5 22.5q-51 0 -82.5 -34t-31.5 -87z" />
<glyph unicode="&#xf0;" horiz-adv-x="1230" d="M57 420q0 154 72 272.5t193.5 184t265.5 65.5q98 0 169.5 -32.5t116.5 -69.5q-20 82 -59 156.5t-72 115.5l-266 -127l-86 172l201 92q-100 94 -178 135l241 111q72 -39 183 -133l266 123l86 -172l-219 -107q68 -82 132 -218t64 -312q0 -203 -77.5 -361.5t-219 -246.5 t-323.5 -88q-144 0 -255.5 60t-173 160.5t-61.5 219.5zM119 420q0 -102 52 -189.5t149.5 -138.5t226.5 -51q162 0 289 80t198.5 224t71.5 331q0 170 -62.5 298t-164.5 255l233 112l-35 66l-250 -115q-111 102 -180 138l-112 -54q80 -53 163 -145l-225 -103l33 -63l256 123 q68 -80 120 -175t66 -235h-94q-10 16 -48 41t-95.5 43.5t-122.5 18.5q-127 0 -234.5 -58.5t-171 -163t-63.5 -239.5zM340 449q0 70 38 132t101.5 99t136.5 37q104 0 172 -64.5t68 -158.5q0 -70 -38 -132.5t-101.5 -99.5t-136.5 -37q-105 0 -172.5 64.5t-67.5 159.5zM401 449 q0 -70 50.5 -116t128.5 -46q86 0 150.5 61.5t64.5 145.5q0 70 -50.5 115.5t-128.5 45.5q-86 0 -150.5 -61.5t-64.5 -144.5z" />
<glyph unicode="&#xf1;" horiz-adv-x="1234" d="M33 0l182 1044h266l6 -92h11q41 45 114.5 79t165.5 34q164 0 265.5 -100.5t101.5 -268.5q0 -49 -10 -104l-105 -592h-325l96 555q4 29 4 43q0 68 -40 109t-110 41q-74 0 -127 -46.5t-65 -115.5l-103 -586h-327zM106 61h203l92 525q16 100 85 161.5t169 61.5 q96 0 153.5 -58.5t57.5 -148.5q0 -14 -4 -47l-86 -494h203l94 535q10 55 10 100q0 137 -82.5 222.5t-222.5 85.5q-94 0 -158.5 -35t-95.5 -78h-96l-6 92h-154zM393 1196q20 129 93 201.5t175 72.5q55 0 129 -30q6 -2 32 -11.5t46 -9.5q51 0 66 51h210q-20 -129 -92.5 -201.5 t-175.5 -72.5q-53 0 -133 31q-53 20 -74 20q-51 0 -65 -51h-211zM467 1253h104q27 51 100 52q27 0 56.5 -11.5t36.5 -13.5q27 -10 56.5 -18.5t55.5 -8.5q72 0 121 43t74 117h-105q-27 -51 -100 -51q-33 0 -94 24q-27 10 -56.5 18.5t-54.5 8.5q-72 0 -121 -43t-73 -117z" />
<glyph unicode="&#xf2;" horiz-adv-x="1247" d="M70 449q0 176 81.5 317t220 220t300.5 79q152 0 266.5 -62.5t177 -170t62.5 -236.5q0 -178 -82 -318.5t-220.5 -219t-300.5 -78.5q-151 0 -265.5 62t-177 169.5t-62.5 237.5zM131 449q0 -113 54.5 -206t155.5 -147.5t234 -54.5q146 0 270 70.5t197.5 197.5t73.5 287 q0 113 -54 206t-155.5 147.5t-234.5 54.5q-145 0 -269 -72t-198 -199t-74 -284zM336 483q0 96 46 173t118.5 120t150.5 43q117 0 188.5 -70.5t71.5 -187.5q0 -96 -46 -173t-119.5 -120t-151.5 -43q-115 0 -186.5 71t-71.5 187zM395 1485h332l147 -301h-274zM397 483 q0 -88 54.5 -142t142.5 -54q63 0 121.5 34.5t96.5 97t38 142.5q0 88 -54.5 142.5t-144.5 54.5q-61 0 -120.5 -35t-96.5 -97.5t-37 -142.5zM506 1427l125 -186h151l-92 186h-184z" />
<glyph unicode="&#xf3;" horiz-adv-x="1247" d="M70 449q0 176 81.5 317t220 220t300.5 79q152 0 266.5 -62.5t177 -170t62.5 -236.5q0 -178 -82 -318.5t-220.5 -219t-300.5 -78.5q-151 0 -265.5 62t-177 169.5t-62.5 237.5zM131 449q0 -113 54.5 -206t155.5 -147.5t234 -54.5q146 0 270 70.5t197.5 197.5t73.5 287 q0 113 -54 206t-155.5 147.5t-234.5 54.5q-145 0 -269 -72t-198 -199t-74 -284zM336 483q0 96 46 173t118.5 120t150.5 43q117 0 188.5 -70.5t71.5 -187.5q0 -96 -46 -173t-119.5 -120t-151.5 -43q-115 0 -186.5 71t-71.5 187zM397 483q0 -88 54.5 -142t142.5 -54 q63 0 121.5 34.5t96.5 97t38 142.5q0 88 -54.5 142.5t-144.5 54.5q-61 0 -120.5 -35t-96.5 -97.5t-37 -142.5zM594 1184l246 301h340l-299 -301h-287zM715 1241h141l184 186h-172z" />
<glyph unicode="&#xf4;" horiz-adv-x="1247" d="M70 449q0 176 81.5 317t220 220t300.5 79q152 0 266.5 -62.5t177 -170t62.5 -236.5q0 -178 -82 -318.5t-220.5 -219t-300.5 -78.5q-151 0 -265.5 62t-177 169.5t-62.5 237.5zM131 449q0 -113 54.5 -206t155.5 -147.5t234 -54.5q146 0 270 70.5t197.5 197.5t73.5 287 q0 113 -54 206t-155.5 147.5t-234.5 54.5q-145 0 -269 -72t-198 -199t-74 -284zM336 483q0 96 46 173t118.5 120t150.5 43q117 0 188.5 -70.5t71.5 -187.5q0 -96 -46 -173t-119.5 -120t-151.5 -43q-115 0 -186.5 71t-71.5 187zM346 1184l303 301h287l198 -301h-280l-78 125 l-121 -125h-309zM397 483q0 -88 54.5 -142t142.5 -54q63 0 121.5 34.5t96.5 97t38 142.5q0 88 -54.5 142.5t-144.5 54.5q-61 0 -120.5 -35t-96.5 -97.5t-37 -142.5zM485 1241h150l125 129h43l81 -129h144l-125 186h-230z" />
<glyph unicode="&#xf5;" horiz-adv-x="1247" d="M70 449q0 176 81.5 317t220 220t300.5 79q152 0 266.5 -62.5t177 -170t62.5 -236.5q0 -178 -82 -318.5t-220.5 -219t-300.5 -78.5q-151 0 -265.5 62t-177 169.5t-62.5 237.5zM131 449q0 -113 54.5 -206t155.5 -147.5t234 -54.5q146 0 270 70.5t197.5 197.5t73.5 287 q0 113 -54 206t-155.5 147.5t-234.5 54.5q-145 0 -269 -72t-198 -199t-74 -284zM336 483q0 96 46 173t118.5 120t150.5 43q117 0 188.5 -70.5t71.5 -187.5q0 -96 -46 -173t-119.5 -120t-151.5 -43q-115 0 -186.5 71t-71.5 187zM391 1196q20 129 93 201.5t175 72.5 q55 0 129 -30q6 -2 32 -11.5t46 -9.5q51 0 66 51h210q-20 -129 -92.5 -201.5t-175.5 -72.5q-53 0 -133 31q-53 20 -74 20q-51 0 -65 -51h-211zM397 483q0 -88 54.5 -142t142.5 -54q63 0 121.5 34.5t96.5 97t38 142.5q0 88 -54.5 142.5t-144.5 54.5q-61 0 -120.5 -35 t-96.5 -97.5t-37 -142.5zM465 1253h104q27 51 100 52q27 0 56.5 -11.5t36.5 -13.5q27 -10 56.5 -18.5t55.5 -8.5q72 0 121 43t74 117h-105q-27 -51 -100 -51q-33 0 -94 24q-27 10 -56.5 18.5t-54.5 8.5q-72 0 -121 -43t-73 -117z" />
<glyph unicode="&#xf6;" horiz-adv-x="1247" d="M70 449q0 176 81.5 317t220 220t300.5 79q152 0 266.5 -62.5t177 -170t62.5 -236.5q0 -178 -82 -318.5t-220.5 -219t-300.5 -78.5q-151 0 -265.5 62t-177 169.5t-62.5 237.5zM131 449q0 -113 54.5 -206t155.5 -147.5t234 -54.5q146 0 270 70.5t197.5 197.5t73.5 287 q0 113 -54 206t-155.5 147.5t-234.5 54.5q-145 0 -269 -72t-198 -199t-74 -284zM336 483q0 96 46 173t118.5 120t150.5 43q117 0 188.5 -70.5t71.5 -187.5q0 -96 -46 -173t-119.5 -120t-151.5 -43q-115 0 -186.5 71t-71.5 187zM397 483q0 -88 54.5 -142t142.5 -54 q63 0 121.5 34.5t96.5 97t38 142.5q0 88 -54.5 142.5t-144.5 54.5q-61 0 -120.5 -35t-96.5 -97.5t-37 -142.5zM403 1313q0 80 50 131t126 51q70 0 111 -41t41 -104q0 -80 -50.5 -131.5t-125.5 -51.5q-70 0 -111 41t-41 105zM464 1313q0 -39 25 -61.5t66 -22.5 q51 0 82.5 33.5t31.5 87.5q0 39 -24.5 61.5t-65.5 22.5q-51 0 -83 -34t-32 -87zM798 1313q0 80 50.5 131t125.5 51q70 0 111 -41t41 -104q0 -80 -50 -131.5t-126 -51.5q-70 0 -111 41t-41 105zM860 1313q0 -39 24.5 -61.5t65.5 -22.5q51 0 82.5 33.5t31.5 87.5 q0 39 -24.5 61.5t-65.5 22.5q-51 0 -82.5 -34t-31.5 -87z" />
<glyph unicode="&#xf7;" horiz-adv-x="1124" d="M117 451v286h917v-286h-917zM178 512h795v164h-795v-164zM432 215q0 61 41 102t102 41t102.5 -41t41.5 -102t-41 -102t-103 -41q-61 0 -102 41t-41 102zM432 973q0 61 41 102t102 41t102.5 -41t41.5 -102t-41 -102.5t-103 -41.5q-61 0 -102 41t-41 103zM494 215 q0 -35 23.5 -58.5t57.5 -23.5q35 0 58.5 23.5t23.5 58.5t-23.5 58.5t-58.5 23.5t-58 -23.5t-23 -58.5zM494 973q0 -35 23.5 -58.5t57.5 -23.5q35 0 58.5 23.5t23.5 58.5t-23.5 58.5t-58.5 23.5t-58 -23.5t-23 -58.5z" />
<glyph unicode="&#xf8;" horiz-adv-x="1247" d="M47 -72l146 199q-123 129 -123 322q0 176 81.5 317t220 220t300.5 79q115 0 190 -29l58 80h280l-145 -198q123 -129 123 -322q0 -176 -82 -317.5t-220.5 -220t-300.5 -78.5q-115 0 -190 28l-57 -80h-281zM131 449q0 -96 36 -177.5t101 -134.5l-108 -147h143l64 90 q94 -39 208 -39q145 0 269.5 71.5t198 198.5t73.5 285q0 96 -36 177t-101 134l108 148h-141l-65 -90q-94 39 -209 39q-145 0 -269 -72t-198 -199t-74 -284zM299 483q0 109 50 195t131 134t171 48q68 0 133 -26l-409 -558q-76 86 -76 207zM360 483q0 -47 19 -98l305 412 q-14 2 -33 2q-74 0 -141.5 -41t-108.5 -113t-41 -162zM465 209l407 557q78 -88 78 -207q0 -109 -50 -194.5t-132 -134t-172 -48.5q-68 0 -131 27zM563 246q14 -2 33 -2q74 0 141.5 41t108.5 112.5t41 161.5q0 47 -19 98z" />
<glyph unicode="&#xf9;" horiz-adv-x="1247" d="M100 348q0 49 11 105l104 591h326l-97 -555q-4 -29 -4 -43q0 -68 41 -108.5t111 -40.5q74 0 127 46t65 116l103 585h327l-182 -1044h-266l-6 92h-10q-41 -45 -115 -78.5t-166 -33.5q-164 0 -266.5 100t-102.5 268zM162 348q0 -137 84 -222t223 -85q94 0 158.5 35t95.5 78 h96l6 -93h154l162 922h-203l-92 -524q-16 -100 -85 -161.5t-169 -61.5q-96 0 -154.5 59t-58.5 147q0 14 4 47l86 494h-203l-94 -534q-10 -55 -10 -101zM381 1485h332l147 -301h-274zM492 1427l125 -186h151l-92 186h-184z" />
<glyph unicode="&#xfa;" horiz-adv-x="1247" d="M100 348q0 49 11 105l104 591h326l-97 -555q-4 -29 -4 -43q0 -68 41 -108.5t111 -40.5q74 0 127 46t65 116l103 585h327l-182 -1044h-266l-6 92h-10q-41 -45 -115 -78.5t-166 -33.5q-164 0 -266.5 100t-102.5 268zM162 348q0 -137 84 -222t223 -85q94 0 158.5 35t95.5 78 h96l6 -93h154l162 922h-203l-92 -524q-16 -100 -85 -161.5t-169 -61.5q-96 0 -154.5 59t-58.5 147q0 14 4 47l86 494h-203l-94 -534q-10 -55 -10 -101zM580 1184l246 301h340l-299 -301h-287zM701 1241h141l184 186h-172z" />
<glyph unicode="&#xfb;" horiz-adv-x="1247" d="M100 348q0 49 11 105l104 591h326l-97 -555q-4 -29 -4 -43q0 -68 41 -108.5t111 -40.5q74 0 127 46t65 116l103 585h327l-182 -1044h-266l-6 92h-10q-41 -45 -115 -78.5t-166 -33.5q-164 0 -266.5 100t-102.5 268zM162 348q0 -137 84 -222t223 -85q94 0 158.5 35t95.5 78 h96l6 -93h154l162 922h-203l-92 -524q-16 -100 -85 -161.5t-169 -61.5q-96 0 -154.5 59t-58.5 147q0 14 4 47l86 494h-203l-94 -534q-10 -55 -10 -101zM332 1184l303 301h287l198 -301h-280l-78 125l-121 -125h-309zM471 1241h150l125 129h43l81 -129h144l-125 186h-230z " />
<glyph unicode="&#xfc;" horiz-adv-x="1247" d="M100 348q0 49 11 105l104 591h326l-97 -555q-4 -29 -4 -43q0 -68 41 -108.5t111 -40.5q74 0 127 46t65 116l103 585h327l-182 -1044h-266l-6 92h-10q-41 -45 -115 -78.5t-166 -33.5q-164 0 -266.5 100t-102.5 268zM162 348q0 -137 84 -222t223 -85q94 0 158.5 35t95.5 78 h96l6 -93h154l162 922h-203l-92 -524q-16 -100 -85 -161.5t-169 -61.5q-96 0 -154.5 59t-58.5 147q0 14 4 47l86 494h-203l-94 -534q-10 -55 -10 -101zM389 1313q0 80 50 131t126 51q70 0 111 -41t41 -104q0 -80 -50.5 -131.5t-125.5 -51.5q-70 0 -111 41t-41 105zM450 1313 q0 -39 25 -61.5t66 -22.5q51 0 82.5 33.5t31.5 87.5q0 39 -24.5 61.5t-65.5 22.5q-51 0 -83 -34t-32 -87zM784 1313q0 80 50.5 131t125.5 51q70 0 111 -41t41 -104q0 -80 -50 -131.5t-126 -51.5q-70 0 -111 41t-41 105zM846 1313q0 -39 24.5 -61.5t65.5 -22.5 q51 0 82.5 33.5t31.5 87.5q0 39 -24.5 61.5t-65.5 22.5q-51 0 -82.5 -34t-31.5 -87z" />
<glyph unicode="&#xfd;" horiz-adv-x="1126" d="M-51 -410l55 308h203q16 0 26.5 9t22.5 32l33 59l-217 1046h334l120 -641h15l315 641h363l-658 -1228q-66 -125 -140.5 -175.5t-203.5 -50.5h-268zM23 -348h194q104 0 166.5 39t108.5 125l626 1167h-225l-313 -641h-103l-123 641h-209l207 -995l-26 -49 q-33 -61 -54.5 -82t-64.5 -21h-150zM504 1184l246 301h340l-299 -301h-287zM625 1241h141l184 186h-172z" />
<glyph unicode="&#xfe;" horiz-adv-x="1284" d="M-41 -410l324 1844h329l-84 -461q41 37 111 64.5t139 27.5q123 0 222.5 -58.5t156.5 -166t57 -246.5q0 -170 -79.5 -310.5t-210.5 -222t-279 -81.5q-188 0 -270 102l-88 -492h-328zM33 -348h203l86 491h88q51 -102 235 -102q131 0 249 73.5t188.5 200.5t70.5 279 q0 123 -49 216t-135 143.5t-191 50.5q-63 0 -123.5 -26t-101.5 -67h-96l82 461h-203zM389 483q0 98 43 175t114.5 119t149.5 42q113 0 182.5 -70.5t69.5 -185.5q0 -98 -43 -176t-113.5 -120t-148.5 -42q-113 0 -183.5 71t-70.5 187zM451 483q0 -88 53 -142t139 -54 q64 0 120 34.5t90 97t34 144.5q0 88 -52.5 141.5t-138.5 53.5q-63 0 -119.5 -35t-91 -97.5t-34.5 -142.5z" />
<glyph unicode="&#xff;" horiz-adv-x="1126" d="M-51 -410l55 308h203q16 0 26.5 9t22.5 32l33 59l-217 1046h334l120 -641h15l315 641h363l-658 -1228q-66 -125 -140.5 -175.5t-203.5 -50.5h-268zM23 -348h194q104 0 166.5 39t108.5 125l626 1167h-225l-313 -641h-103l-123 641h-209l207 -995l-26 -49 q-33 -61 -54.5 -82t-64.5 -21h-150zM313 1313q0 80 50 131t126 51q70 0 111 -41t41 -104q0 -80 -50.5 -131.5t-125.5 -51.5q-70 0 -111 41t-41 105zM374 1313q0 -39 25 -61.5t66 -22.5q51 0 82.5 33.5t31.5 87.5q0 39 -24.5 61.5t-65.5 22.5q-51 0 -83 -34t-32 -87z M708 1313q0 80 50.5 131t125.5 51q70 0 111 -41t41 -104q0 -80 -50 -131.5t-126 -51.5q-70 0 -111 41t-41 105zM770 1313q0 -39 24.5 -61.5t65.5 -22.5q51 0 82.5 33.5t31.5 87.5q0 39 -24.5 61.5t-65.5 22.5q-51 0 -82.5 -34t-31.5 -87z" />
<glyph unicode="&#x131;" horiz-adv-x="552" d="M20 0l183 1044h329l-182 -1044h-330zM94 61h203l162 922h-203z" />
<glyph unicode="&#x132;" horiz-adv-x="1499" d="M43 0l252 1434h346l-252 -1434h-346zM117 61h221l229 1311h-221zM544 0l60 338h299q45 0 65.5 16.5t26.5 55.5l180 1024h350l-200 -1131q-27 -156 -113 -229.5t-234 -73.5h-434zM618 61h360q240 0 283 242l191 1069h-224l-172 -962q-12 -72 -48 -103t-105 -31h-248z" />
<glyph unicode="&#x133;" horiz-adv-x="1105" d="M20 0l183 1044h329l-182 -1044h-330zM94 61h203l162 922h-203zM244 1319q0 74 54 125t130 51q68 0 117 -42t49 -110q0 -74 -53.5 -125t-128.5 -51q-68 0 -118 42t-50 110zM277 -410l53 308h160q53 0 61 45l192 1101h330l-207 -1183q-23 -131 -104.5 -201t-218.5 -70h-266 zM305 1319q0 -39 31 -64.5t76 -25.5q51 0 85.5 32.5t34.5 81.5q0 39 -29.5 65t-74.5 26q-51 0 -87 -33t-36 -82zM350 -348h193q221 0 260 213l196 1118h-202l-185 -1040q-10 -53 -37.5 -80t-84.5 -27h-107zM785 1319q0 74 54 125t130 51q68 0 117 -42t49 -110 q0 -74 -53.5 -125t-128.5 -51q-68 0 -118 42t-50 110zM846 1319q0 -39 31 -64.5t76 -25.5q51 0 85.5 32.5t34.5 81.5q0 39 -29.5 65t-74.5 26q-51 0 -87 -33t-36 -82z" />
<glyph unicode="&#x13f;" horiz-adv-x="1138" d="M51 0l252 1434h348l-192 -1096h626l-61 -338h-973zM125 61h848l39 215h-627l193 1096h-224zM760 818q0 80 57.5 137t137.5 57q72 0 117.5 -46t45.5 -118q0 -80 -57 -137t-137 -57q-70 0 -117 47t-47 117zM821 818q0 -45 30 -74t77 -29q55 0 92 38t37 95q0 45 -29.5 74 t-77.5 29q-55 0 -92 -38t-37 -95z" />
<glyph unicode="&#x140;" horiz-adv-x="927" d="M31 0l252 1434h327l-252 -1434h-327zM104 61h201l232 1311h-203zM612 750q0 80 57.5 137t137.5 57q72 0 117.5 -46t45.5 -118q0 -80 -57 -137t-137 -57q-70 0 -117 47t-47 117zM673 750q0 -45 30 -74t77 -29q55 0 92 38t37 95q0 45 -29.5 74t-77.5 29q-55 0 -92 -38 t-37 -95z" />
<glyph unicode="&#x152;" horiz-adv-x="2203" d="M109 614q0 238 109.5 430.5t289.5 301t385 108.5q135 0 229.5 -48t139.5 -116h10l26 144h963l-57 -318h-656l-41 -246h615l-56 -307h-614l-43 -246h655l-55 -317h-962l20 123h-10q-55 -59 -146.5 -101t-201.5 -42q-168 0 -305.5 79.5t-216 224t-78.5 330.5zM170 614 q0 -166 70.5 -297t193.5 -203.5t275 -72.5q106 0 190 42t133 101h111l-23 -123h836l35 195h-656l64 369h614l35 184h-612l59 369h655l37 194h-835l-27 -143h-94q-35 68 -121 116t-217 48q-188 0 -354 -100.5t-267.5 -278.5t-101.5 -400zM395 645q0 158 66.5 280t172 187.5 t220.5 65.5q100 0 182 -48.5t128 -136.5t46 -202q0 -158 -66.5 -280t-172 -187.5t-219.5 -65.5q-101 0 -183 48t-128 136t-46 203zM457 645q0 -147 83 -236.5t212 -89.5q98 0 189 58.5t149.5 166t58.5 247.5q0 147 -83 236t-212 89q-98 0 -189.5 -58.5t-149.5 -166 t-58 -246.5z" />
<glyph unicode="&#x153;" horiz-adv-x="1959" d="M70 453q0 170 79.5 310t216 221t298.5 81q129 0 222 -52t140 -126q59 74 160.5 126t232.5 52q139 0 247 -60.5t166 -164t58 -226.5q0 -76 -22 -174h-711q0 -94 49 -144t131 -50q53 0 92 21.5t60 49.5h328q-31 -80 -101.5 -157.5t-178 -128.5t-241.5 -51q-131 0 -225 50 t-143 124q-61 -74 -162.5 -124t-228.5 -50q-136 0 -242.5 58t-165.5 165.5t-59 249.5zM131 453q0 -123 51 -216.5t143.5 -144.5t211.5 -51q143 0 243.5 67.5t145.5 137.5h12q37 -72 124 -138.5t234 -66.5q166 0 267.5 71.5t152.5 147.5h-192q-82 -76 -187 -76 q-127 0 -190.5 87t-50.5 227h723q10 57 10 116q0 106 -51.5 195.5t-144.5 142t-214 52.5q-147 0 -242.5 -66t-148.5 -139h-12q-47 80 -127 142.5t-225 62.5q-143 0 -265.5 -73t-195 -199t-72.5 -279zM346 479q0 96 42 174t109.5 122t143.5 44q96 0 162.5 -71.5t66.5 -182.5 q0 -96 -42 -174t-109.5 -122t-143.5 -44q-96 0 -162.5 72t-66.5 182zM408 479q0 -86 48 -139t119 -53q58 0 112 35.5t88 99t34 143.5q0 86 -48 139.5t-120 53.5q-57 0 -111.5 -36t-88 -99.5t-33.5 -143.5zM1114 588q43 141 123 211.5t172 70.5q106 0 169.5 -76.5 t63.5 -205.5h-528zM1202 645h375q-10 76 -54 120t-114 44q-61 0 -116.5 -41t-90.5 -123z" />
<glyph unicode="&#x178;" horiz-adv-x="1314" d="M121 1434h368l191 -553h20l383 553h410l-680 -953l-84 -481h-348l84 481zM209 1372l319 -889l-73 -422h223l76 441l620 870h-258l-383 -553h-96l-191 553h-237zM473 1708q0 80 50 131t126 51q70 0 110.5 -41t40.5 -104q0 -80 -50 -131t-126 -51q-69 0 -110 41t-41 104z M534 1708q0 -39 24.5 -61.5t65.5 -22.5q51 0 83 34t32 87q0 39 -24.5 61.5t-65.5 22.5q-51 0 -83 -34t-32 -87zM868 1708q0 80 50 131t126 51q70 0 111 -41t41 -104q0 -80 -50.5 -131t-126.5 -51q-69 0 -110 41t-41 104zM929 1708q0 -39 24.5 -61.5t65.5 -22.5q52 0 83.5 34 t31.5 87q0 39 -24.5 61.5t-65.5 22.5q-51 0 -83 -34t-32 -87z" />
<glyph unicode="&#x237;" horiz-adv-x="552" d="M-276 -410l53 308h160q53 0 61 45l192 1101h330l-207 -1183q-23 -131 -104.5 -201t-218.5 -70h-266zM-203 -348h193q221 0 260 213l196 1118h-202l-185 -1040q-10 -53 -37.5 -80t-84.5 -27h-107z" />
<glyph unicode="&#x2c6;" horiz-adv-x="911" d="M178 1184l303 301h287l198 -301h-280l-78 125l-121 -125h-309zM317 1241h150l125 129h43l81 -129h144l-125 186h-230z" />
<glyph unicode="&#x2dc;" horiz-adv-x="825" d="M180 1196q20 129 93 201.5t175 72.5q55 0 129 -30q6 -2 32 -11.5t46 -9.5q51 0 66 51h210q-20 -129 -92.5 -201.5t-175.5 -72.5q-53 0 -133 31q-53 20 -74 20q-51 0 -65 -51h-211zM254 1253h104q27 51 100 52q27 0 56.5 -11.5t36.5 -13.5q27 -10 56.5 -18.5t55.5 -8.5 q72 0 121 43t74 117h-105q-27 -51 -100 -51q-33 0 -94 24q-27 10 -56.5 18.5t-54.5 8.5q-72 0 -121 -43t-73 -117z" />
<glyph unicode="&#x1e9e;" horiz-adv-x="1427" d="M45 0l186 1065q31 176 146 272.5t291 96.5h794l-53 -301l-328 -297l-2 -9q127 -33 195.5 -117.5t68.5 -217.5q0 -141 -61 -253t-169.5 -175.5t-240.5 -63.5h-317l53 307h223q72 0 118 40t46 116q0 51 -33.5 86t-99.5 35h-205l48 262l309 280h-295q-61 0 -100 -34.5 t-50 -98.5l-174 -993h-350zM119 61h223l164 932q16 92 70.5 143.5t142.5 51.5h440v-12l-397 -361l-31 -170h131q94 0 144.5 -53t50.5 -129q0 -104 -63.5 -160.5t-162.5 -56.5h-172l-30 -185h243q113 0 206 54.5t148.5 153t55.5 223.5q0 121 -65.5 193.5t-208.5 98.5l14 80 l328 297l39 211h-721q-154 0 -250 -80t-123 -227z" />
<glyph unicode="&#x2000;" horiz-adv-x="985" />
<glyph unicode="&#x2001;" horiz-adv-x="1970" />
<glyph unicode="&#x2002;" horiz-adv-x="985" />
<glyph unicode="&#x2003;" horiz-adv-x="1970" />
<glyph unicode="&#x2004;" horiz-adv-x="656" />
<glyph unicode="&#x2005;" horiz-adv-x="492" />
<glyph unicode="&#x2006;" horiz-adv-x="328" />
<glyph unicode="&#x2007;" horiz-adv-x="328" />
<glyph unicode="&#x2008;" horiz-adv-x="246" />
<glyph unicode="&#x2009;" horiz-adv-x="394" />
<glyph unicode="&#x200a;" horiz-adv-x="109" />
<glyph unicode="&#x2010;" horiz-adv-x="892" d="M76 430l55 307h709l-56 -307h-708zM150 492h581l35 184h-582z" />
<glyph unicode="&#x2011;" horiz-adv-x="892" d="M76 430l55 307h709l-56 -307h-708zM150 492h581l35 184h-582z" />
<glyph unicode="&#x2012;" horiz-adv-x="892" d="M76 430l55 307h709l-56 -307h-708zM150 492h581l35 184h-582z" />
<glyph unicode="&#x2013;" horiz-adv-x="1189" d="M55 430l56 307h1046l-55 -307h-1047zM129 492h920l34 184h-919z" />
<glyph unicode="&#x2014;" horiz-adv-x="1579" d="M55 430l56 307h1435l-55 -307h-1436zM129 492h1309l35 184h-1309z" />
<glyph unicode="&#x2018;" horiz-adv-x="550" d="M131 911l231 523h267l-140 -523h-358zM227 973h213l109 399h-143z" />
<glyph unicode="&#x2019;" horiz-adv-x="550" d="M152 911l139 523h358l-231 -523h-266zM231 973h144l178 399h-213z" />
<glyph unicode="&#x201a;" horiz-adv-x="563" d="M-59 -184l141 522h358l-233 -522h-266zM20 -123h146l178 399h-215z" />
<glyph unicode="&#x201c;" horiz-adv-x="997" d="M131 911l231 523h267l-140 -523h-358zM227 973h213l109 399h-143zM577 911l231 523h267l-140 -523h-358zM673 973h213l109 399h-143z" />
<glyph unicode="&#x201d;" horiz-adv-x="997" d="M152 911l139 523h358l-231 -523h-266zM231 973h144l178 399h-213zM598 911l139 523h358l-231 -523h-266zM677 973h144l178 399h-213z" />
<glyph unicode="&#x201e;" horiz-adv-x="1009" d="M-59 -184l141 522h358l-233 -522h-266zM20 -123h146l178 399h-215zM387 -184l141 522h358l-233 -522h-266zM466 -123h146l178 399h-215z" />
<glyph unicode="&#x2022;" horiz-adv-x="1048" d="M252 524q0 86 40 156t110.5 109.5t154.5 39.5q115 0 183.5 -72.5t68.5 -174.5q0 -86 -40 -156t-110.5 -110t-154.5 -40q-115 0 -183.5 73t-68.5 175zM313 530q0 -82 51.5 -137t145.5 -55q63 0 117.5 31.5t87.5 87t33 118.5q0 82 -51.5 137.5t-145.5 55.5 q-63 0 -117.5 -31.5t-87.5 -87t-33 -119.5z" />
<glyph unicode="&#x2026;" horiz-adv-x="1699" d="M41 154q0 80 57.5 137t137.5 57q72 0 117.5 -46t45.5 -118q0 -80 -57 -137t-137 -57q-70 0 -117 47t-47 117zM102 154q0 -45 30 -74t77 -29q55 0 92 38t37 95q0 45 -29.5 74t-77.5 29q-55 0 -92 -38t-37 -95zM608 154q0 80 57.5 137t137.5 57q72 0 117.5 -46t45.5 -118 q0 -80 -57 -137t-137 -57q-70 0 -117 47t-47 117zM669 154q0 -45 30 -74t77 -29q55 0 92 38t37 95q0 45 -29.5 74t-77.5 29q-55 0 -92 -38t-37 -95zM1176 154q0 80 57.5 137t137.5 57q72 0 117.5 -46t45.5 -118q0 -80 -57 -137t-137 -57q-70 0 -117 47t-47 117zM1237 154 q0 -45 30 -74t77 -29q55 0 92 38t37 95q0 45 -29.5 74t-77.5 29q-55 0 -92 -38t-37 -95z" />
<glyph unicode="&#x202f;" horiz-adv-x="394" />
<glyph unicode="&#x2039;" horiz-adv-x="745" d="M49 526l373 420h346l-391 -440l213 -400h-318zM123 516l188 -348h176l-184 346l330 371h-184z" />
<glyph unicode="&#x203a;" horiz-adv-x="749" d="M-23 106l392 441l-213 399h317l223 -420l-372 -420h-347zM113 168h184l326 367l-187 350h-178l184 -346z" />
<glyph unicode="&#x205f;" horiz-adv-x="492" />
<glyph unicode="&#x20ac;" horiz-adv-x="1445" d="M37 461l37 205h164l16 102h-164l37 205h188q41 109 137.5 219.5t248 186t341.5 75.5q152 0 271 -36t188 -87l-55 -307q-80 51 -186.5 87t-217.5 36q-131 0 -220 -53.5t-134 -120.5h483l-36 -205h-543l-17 -102h543l-37 -205h-460q41 -74 135 -124t233 -50 q106 0 195.5 20.5t144.5 50.5l-53 -307q-51 -31 -141.5 -51t-204.5 -20q-203 0 -346.5 68.5t-224 177t-109.5 235.5h-213zM111 522h192q16 -127 87 -235.5t206 -177t334 -68.5q90 0 165.5 15.5t125.5 35.5l28 170q-111 -37 -260 -37q-195 0 -311.5 86t-153.5 211h504l16 82 h-542l37 225h542l17 82h-512q49 125 164.5 211t291.5 86q96 0 190.5 -25.5t166.5 -62.5l35 180q-66 37 -155 65t-237 28q-176 0 -317 -76t-233.5 -186.5t-133.5 -219.5h-180l-14 -82h164l-37 -225h-166z" />
<glyph unicode="&#x2116;" horiz-adv-x="2275" d="M51 0l252 1434h410l278 -861h21l151 861h348l-251 -1434h-410l-279 860h-20l-152 -860h-348zM125 61h221l152 861h116l279 -861h313l232 1311h-221l-152 -860h-117l-278 860h-316zM1442 0l47 266h635l-47 -266h-635zM1516 61h507l27 144h-508zM1540 664q0 106 51 193 t137.5 137t186.5 50q139 0 225 -83.5t86 -210.5q0 -106 -51 -193.5t-137 -137.5t-187 -50q-139 0 -225 84t-86 211zM1602 664q0 -102 68.5 -168t180.5 -66q86 0 158 42t114 116t42 162q0 102 -68.5 167.5t-181.5 65.5q-86 0 -157.5 -42t-113.5 -115.5t-42 -161.5zM1714 690 q0 78 52.5 129t129.5 51q70 0 113 -41t43 -106q0 -78 -52 -129t-130 -51q-70 0 -113 41t-43 106zM1776 690q0 -39 25.5 -62.5t68.5 -23.5q51 0 86 34t35 85q0 39 -26 62.5t-69 23.5q-51 0 -85.5 -34t-34.5 -85z" />
<glyph unicode="&#x2122;" horiz-adv-x="1595" d="M109 1219v215h563v-215h-174v-420h-215v420h-174zM170 1280h174v-420h92v420h174v92h-440v-92zM754 799v635h297l106 -318h12l107 318h297v-635h-215v307l-103 -307h-184l-102 307v-307h-215zM815 860h92v303h105l102 -303h98l103 303h104v-303h92v512h-192l-107 -313 h-98l-106 313h-193v-512z" />
<glyph unicode="&#x25fc;" horiz-adv-x="1044" d="M0 0v1044h1044v-1044h-1044z" />
<glyph unicode="&#xf730;" horiz-adv-x="1284" d="M70 455q0 168 83 308t225 221t310 81q156 0 275.5 -63.5t185 -172t65.5 -241.5q0 -168 -82.5 -307.5t-225 -220t-310.5 -80.5q-156 0 -275.5 63t-185 172t-65.5 240zM131 463q0 -121 57.5 -217t164 -150.5t249.5 -54.5q148 0 275 72.5t201.5 196.5t74.5 270 q0 121 -57.5 217t-164 151.5t-247.5 55.5q-147 0 -275 -73t-203 -197t-75 -271zM336 492q0 88 45 163.5t121 119.5t164 44q121 0 200.5 -76.5t79.5 -189.5q0 -88 -45 -164t-120.5 -120t-162.5 -44q-122 0 -202 77t-80 190zM397 492q0 -86 62.5 -145.5t158.5 -59.5 q70 0 131.5 35.5t98.5 97t37 133.5q0 88 -61.5 146.5t-157.5 58.5q-70 0 -131.5 -36t-99.5 -97.5t-38 -132.5z" />
<glyph unicode="&#xf731;" horiz-adv-x="780" d="M70 584l51 297h192q39 0 58.5 16t25.5 55l17 92h327l-182 -1044h-330l103 584h-262zM143 645h263l-103 -584h203l162 922h-203l-4 -31q-18 -133 -148 -133h-139z" />
<glyph unicode="&#xf732;" horiz-adv-x="1110" d="M-10 0l49 281l575 319q84 45 84 96q0 33 -29.5 52.5t-80.5 19.5q-127 0 -162 -102h-328q25 176 157 287.5t349 111.5q129 0 230.5 -43t158 -115.5t56.5 -158.5q0 -96 -43 -173t-162 -139l-242 -129h387l-53 -307h-946zM63 61h822l30 185h-387l19 104l268 142 q98 53 135 115.5t37 140.5q0 70 -48 129t-135 93t-200 34q-170 0 -280.5 -78t-145.5 -199h207q27 47 78 74.5t125 27.5q80 0 126 -35.5t46 -97.5q0 -43 -24.5 -77.5t-92.5 -71.5l-547 -303z" />
<glyph unicode="&#xf733;" horiz-adv-x="1157" d="M-31 61h328q8 -82 54 -122.5t128 -40.5q74 0 132.5 48t58.5 128q0 59 -42 100t-126 41h-103l50 277h116q88 0 135.5 44t47.5 111q0 45 -39 78t-105 33t-110.5 -30t-63.5 -83h-328q31 195 170.5 307.5t352.5 112.5q133 0 235.5 -49t158.5 -132t56 -184q0 -141 -70.5 -228 t-173.5 -118l-2 -10q70 -31 119 -101.5t49 -176.5q0 -133 -69.5 -242t-192.5 -171.5t-276 -62.5q-152 0 -264.5 57.5t-172 164t-53.5 249.5zM31 0q6 -98 58 -178t147.5 -125t222.5 -45q135 0 244.5 54t171 149.5t61.5 210.5q0 96 -50 158.5t-124 86.5l14 84 q100 25 169 101.5t69 203.5q0 84 -48 153t-137.5 110t-203.5 41q-170 0 -289 -82t-156 -215h209q33 55 87 83.5t128 28.5q92 0 148.5 -50t56.5 -122q0 -94 -64.5 -155.5t-179.5 -61.5h-63l-29 -154h29q111 0 170 -58t59 -144q0 -109 -75.5 -173.5t-176.5 -64.5 q-98 0 -157.5 47t-75.5 117h-215z" />
<glyph unicode="&#xf734;" horiz-adv-x="1181" d="M-66 -20l56 313l602 751h493l-135 -757h148l-54 -307h-147l-66 -369h-329l65 369h-633zM8 41h633l-66 -369h203l66 369h149l31 184h-147l135 758h-391l-572 -713zM291 225l20 105l334 418h123l-94 -523h-383zM356 287h267l71 399h-20z" />
<glyph unicode="&#xf735;" horiz-adv-x="1185" d="M-4 31h330q4 -55 50 -94t113 -39q88 0 154 58t66 153q0 70 -46.5 113.5t-125.5 43.5q-109 0 -177 -71h-319l229 849h846l-53 -307h-571l-60 -215h4q31 18 79 27.5t97 9.5q125 0 221.5 -54t149.5 -148.5t53 -215.5q0 -160 -76.5 -285.5t-206.5 -195.5t-282 -70 q-137 0 -244.5 53.5t-168 153t-62.5 234.5zM61 -31q23 -147 132.5 -232t277.5 -85q137 0 253 62.5t183.5 175t67.5 251.5q0 158 -100.5 257.5t-262.5 99.5q-88 0 -168 -39h-94l94 340h568l30 184h-725l-196 -727h215q82 72 201 72q106 0 169.5 -61.5t63.5 -157.5 q0 -82 -40 -143.5t-104.5 -95.5t-136.5 -34q-76 0 -136 39t-77 94h-215z" />
<glyph unicode="&#xf736;" horiz-adv-x="1220" d="M68 430q0 129 37.5 216t107.5 175l506 613h389l-393 -471q129 -10 225 -68.5t147.5 -151t51.5 -202.5q0 -166 -79 -294t-212 -197.5t-289 -69.5q-145 0 -257 60t-173 163.5t-61 226.5zM129 430q0 -106 54.5 -195.5t152.5 -141.5t223 -52q137 0 257 62.5t190.5 176 t70.5 261.5q0 102 -49 185t-147.5 131t-235.5 48h-59l391 467h-227l-457 -551q-80 -96 -122 -180t-42 -211zM334 463q0 76 39 138.5t104.5 99t143.5 36.5q111 0 181 -67.5t70 -169.5q0 -76 -38.5 -138.5t-104 -99.5t-143.5 -37q-111 0 -181.5 67.5t-70.5 170.5zM395 463 q0 -76 53.5 -126t137.5 -50q94 0 159.5 62.5t65.5 150.5q0 76 -53 126t-137 50q-94 0 -160 -62.5t-66 -150.5z" />
<glyph unicode="&#xf737;" horiz-adv-x="1081" d="M8 -389l670 1106h-576l58 327h964l-53 -303l-674 -1130h-389zM117 -328h245l650 1088l39 223h-838l-37 -205h602v-16z" />
<glyph unicode="&#xf738;" horiz-adv-x="1177" d="M68 389q0 147 76.5 241.5t187.5 133.5l2 10q-57 35 -97 99.5t-40 150.5q0 115 65.5 213t181 157.5t261.5 59.5q143 0 247.5 -55.5t157.5 -140t53 -171.5q0 -131 -70.5 -223t-172.5 -135l-2 -10q66 -33 110.5 -101.5t44.5 -166.5q0 -139 -68.5 -247t-187.5 -166t-266 -58 q-156 0 -264.5 54t-163.5 147t-55 208zM129 389q0 -158 109.5 -253t312.5 -95q129 0 234.5 50t166 143.5t60.5 216.5q0 90 -48.5 149t-115.5 86l14 82q100 37 170 119t70 200q0 72 -46 142.5t-136.5 117t-214.5 46.5q-127 0 -229.5 -50.5t-160 -135.5t-57.5 -183 q0 -80 42 -135t103 -80l-14 -86q-109 -31 -184.5 -115t-75.5 -219zM334 424q0 98 72.5 164.5t179.5 66.5q102 0 161.5 -57t59.5 -143q0 -98 -71.5 -164t-180.5 -66q-100 0 -160.5 56.5t-60.5 142.5zM395 424q0 -57 42 -97t118 -40q80 0 135 47t55 121q0 59 -41.5 99 t-117.5 40q-80 0 -135.5 -48t-55.5 -122zM463 1010q0 86 64.5 142t162.5 56q94 0 150.5 -49t56.5 -123q0 -84 -64.5 -140t-164.5 -56q-90 0 -147.5 49t-57.5 121zM526 1012q0 -49 37 -80t107 -31q73 0 119.5 38t46.5 97q0 47 -39 79t-107 32q-74 0 -119 -38t-45 -97z" />
<glyph unicode="&#xf739;" horiz-adv-x="1220" d="M82 504q0 166 79 294t212 197.5t289 69.5q145 0 256.5 -60.5t173 -164t61.5 -226.5q0 -129 -38 -216t-107 -175l-506 -612h-389l393 471q-129 10 -225.5 68.5t-147.5 150.5t-51 203zM143 504q0 -102 49.5 -185t147.5 -131.5t235 -48.5h60l-391 -467h227l457 551 q80 96 122 180t42 211q0 106 -54.5 195.5t-153 142t-222.5 52.5q-137 0 -257 -62.5t-191 -176.5t-71 -261zM348 545q0 76 39 138t104.5 99t143.5 37q111 0 181.5 -67.5t70.5 -169.5q0 -76 -39 -138.5t-104.5 -99.5t-143.5 -37q-111 0 -181.5 67.5t-70.5 170.5zM410 545 q0 -76 53 -126t137 -50q94 0 159.5 62.5t65.5 150.5q0 76 -53 126t-137 50q-94 0 -159.5 -62.5t-65.5 -150.5z" />
<glyph horiz-adv-x="1499" d="M43 0l252 1434h346l-252 -1434h-346zM117 61h221l229 1311h-221zM344 1577l246 301h340l-299 -301h-287zM465 1634h142l184 187h-172zM544 0l60 338h299q45 0 65.5 16.5t26.5 55.5l180 1024h350l-200 -1131q-27 -156 -113 -229.5t-234 -73.5h-434zM618 61h360 q240 0 283 242l191 1069h-224l-172 -962q-12 -72 -48 -103t-105 -31h-248zM1228 1577l246 301h340l-299 -301h-287zM1349 1634h142l184 187h-172z" />
<glyph horiz-adv-x="552" d="M20 0l183 1044h329l-182 -1044h-330zM94 61h203l162 922h-203zM244 1319q0 74 54 125t130 51q68 0 117 -42t49 -110q0 -74 -53.5 -125t-128.5 -51q-68 0 -118 42t-50 110zM305 1319q0 -39 31 -64.5t76 -25.5q51 0 85.5 32.5t34.5 81.5q0 39 -29.5 65t-74.5 26 q-51 0 -87 -33t-36 -82z" />
<glyph horiz-adv-x="1105" d="M20 0l183 1044h329l-182 -1044h-330zM94 61h203l162 922h-203zM244 1184l246 301h340l-299 -301h-287zM277 -410l53 308h160q53 0 61 45l192 1101h330l-207 -1183q-23 -131 -104.5 -201t-218.5 -70h-266zM350 -348h193q221 0 260 213l196 1118h-202l-185 -1040 q-10 -53 -37.5 -80t-84.5 -27h-107zM365 1241h141l184 186h-172zM784 1184l246 301h340l-299 -301h-287zM905 1241h141l184 186h-172z" />
<glyph horiz-adv-x="1267" d="M66 451q0 170 78.5 310t208.5 222t278 82q100 0 176 -38t115 -99h10l43 116h266l-182 -1044h-266l-5 102h-10q-39 -47 -114.5 -84.5t-165.5 -37.5q-123 0 -221.5 58t-154.5 164.5t-56 248.5zM127 451q0 -123 48 -216.5t133 -143.5t190 -50q84 0 152.5 38t101.5 85h96 l4 -103h154l161 922h-151l-43 -117h-88q-29 63 -96.5 100.5t-157.5 37.5q-131 0 -247 -74t-186.5 -201t-70.5 -278zM332 481q0 96 43 174t111.5 121t146.5 43q106 0 177 -71.5t71 -186.5q0 -96 -43 -173t-112 -120t-146 -43q-107 0 -177.5 71t-70.5 185zM393 481 q0 -86 53.5 -140t133.5 -54q61 0 116.5 35.5t89 98t33.5 140.5q0 88 -52 142.5t-134 54.5q-61 0 -116.5 -36t-89.5 -99.5t-34 -141.5z" />
<glyph horiz-adv-x="1267" d="M66 451q0 170 78.5 310t208.5 222t278 82q100 0 176 -38t115 -99h10l43 116h266l-182 -1044h-266l-5 102h-10q-39 -47 -114.5 -84.5t-165.5 -37.5q-123 0 -221.5 58t-154.5 164.5t-56 248.5zM127 451q0 -123 48 -216.5t133 -143.5t190 -50q84 0 152.5 38t101.5 85h96 l4 -103h154l161 922h-151l-43 -117h-88q-29 63 -96.5 100.5t-157.5 37.5q-131 0 -247 -74t-186.5 -201t-70.5 -278zM332 481q0 96 43 174t111.5 121t146.5 43q106 0 177 -71.5t71 -186.5q0 -96 -43 -173t-112 -120t-146 -43q-107 0 -177.5 71t-70.5 185zM393 481 q0 -86 53.5 -140t133.5 -54q61 0 116.5 35.5t89 98t33.5 140.5q0 88 -52 142.5t-134 54.5q-61 0 -116.5 -36t-89.5 -99.5t-34 -141.5zM588 1184l246 301h340l-299 -301h-287zM709 1241h141l184 186h-172z" />
<glyph horiz-adv-x="1267" d="M66 451q0 170 78.5 310t208.5 222t278 82q100 0 176 -38t115 -99h10l43 116h266l-182 -1044h-266l-5 102h-10q-39 -47 -114.5 -84.5t-165.5 -37.5q-123 0 -221.5 58t-154.5 164.5t-56 248.5zM127 451q0 -123 48 -216.5t133 -143.5t190 -50q84 0 152.5 38t101.5 85h96 l4 -103h154l161 922h-151l-43 -117h-88q-29 63 -96.5 100.5t-157.5 37.5q-131 0 -247 -74t-186.5 -201t-70.5 -278zM332 481q0 96 43 174t111.5 121t146.5 43q106 0 177 -71.5t71 -186.5q0 -96 -43 -173t-112 -120t-146 -43q-107 0 -177.5 71t-70.5 185zM340 1184l303 301 h287l198 -301h-280l-78 125l-121 -125h-309zM393 481q0 -86 53.5 -140t133.5 -54q61 0 116.5 35.5t89 98t33.5 140.5q0 88 -52 142.5t-134 54.5q-61 0 -116.5 -36t-89.5 -99.5t-34 -141.5zM479 1241h150l125 129h43l81 -129h144l-125 186h-230z" />
<glyph horiz-adv-x="1267" d="M66 451q0 170 78.5 310t208.5 222t278 82q100 0 176 -38t115 -99h10l43 116h266l-182 -1044h-266l-5 102h-10q-39 -47 -114.5 -84.5t-165.5 -37.5q-123 0 -221.5 58t-154.5 164.5t-56 248.5zM127 451q0 -123 48 -216.5t133 -143.5t190 -50q84 0 152.5 38t101.5 85h96 l4 -103h154l161 922h-151l-43 -117h-88q-29 63 -96.5 100.5t-157.5 37.5q-131 0 -247 -74t-186.5 -201t-70.5 -278zM332 481q0 96 43 174t111.5 121t146.5 43q106 0 177 -71.5t71 -186.5q0 -96 -43 -173t-112 -120t-146 -43q-107 0 -177.5 71t-70.5 185zM393 481 q0 -86 53.5 -140t133.5 -54q61 0 116.5 35.5t89 98t33.5 140.5q0 88 -52 142.5t-134 54.5q-61 0 -116.5 -36t-89.5 -99.5t-34 -141.5zM397 1313q0 80 50 131t126 51q70 0 111 -41t41 -104q0 -80 -50.5 -131.5t-125.5 -51.5q-70 0 -111 41t-41 105zM458 1313q0 -39 25 -61.5 t66 -22.5q51 0 82.5 33.5t31.5 87.5q0 39 -24.5 61.5t-65.5 22.5q-51 0 -83 -34t-32 -87zM792 1313q0 80 50.5 131t125.5 51q70 0 111 -41t41 -104q0 -80 -50 -131.5t-126 -51.5q-70 0 -111 41t-41 105zM854 1313q0 -39 24.5 -61.5t65.5 -22.5q51 0 82.5 33.5t31.5 87.5 q0 39 -24.5 61.5t-65.5 22.5q-51 0 -82.5 -34t-31.5 -87z" />
<glyph horiz-adv-x="1267" d="M66 451q0 170 78.5 310t208.5 222t278 82q100 0 176 -38t115 -99h10l43 116h266l-182 -1044h-266l-5 102h-10q-39 -47 -114.5 -84.5t-165.5 -37.5q-123 0 -221.5 58t-154.5 164.5t-56 248.5zM127 451q0 -123 48 -216.5t133 -143.5t190 -50q84 0 152.5 38t101.5 85h96 l4 -103h154l161 922h-151l-43 -117h-88q-29 63 -96.5 100.5t-157.5 37.5q-131 0 -247 -74t-186.5 -201t-70.5 -278zM332 481q0 96 43 174t111.5 121t146.5 43q106 0 177 -71.5t71 -186.5q0 -96 -43 -173t-112 -120t-146 -43q-107 0 -177.5 71t-70.5 185zM389 1485h332 l147 -301h-274zM393 481q0 -86 53.5 -140t133.5 -54q61 0 116.5 35.5t89 98t33.5 140.5q0 88 -52 142.5t-134 54.5q-61 0 -116.5 -36t-89.5 -99.5t-34 -141.5zM500 1427l125 -186h151l-92 186h-184z" />
<glyph horiz-adv-x="1267" d="M66 451q0 170 78.5 310t208.5 222t278 82q100 0 176 -38t115 -99h10l43 116h266l-182 -1044h-266l-5 102h-10q-39 -47 -114.5 -84.5t-165.5 -37.5q-123 0 -221.5 58t-154.5 164.5t-56 248.5zM127 451q0 -123 48 -216.5t133 -143.5t190 -50q84 0 152.5 38t101.5 85h96 l4 -103h154l161 922h-151l-43 -117h-88q-29 63 -96.5 100.5t-157.5 37.5q-131 0 -247 -74t-186.5 -201t-70.5 -278zM332 481q0 96 43 174t111.5 121t146.5 43q106 0 177 -71.5t71 -186.5q0 -96 -43 -173t-112 -120t-146 -43q-107 0 -177.5 71t-70.5 185zM393 481 q0 -86 53.5 -140t133.5 -54q61 0 116.5 35.5t89 98t33.5 140.5q0 88 -52 142.5t-134 54.5q-61 0 -116.5 -36t-89.5 -99.5t-34 -141.5zM532 1331q0 106 72.5 176t179.5 70q94 0 153.5 -56.5t59.5 -146.5q0 -106 -72.5 -177t-179.5 -71q-94 0 -153.5 57.5t-59.5 147.5z M589 1337q0 -68 44 -110.5t118 -42.5q78 0 133.5 53t55.5 131q0 68 -44 110t-118 42q-78 0 -133.5 -52.5t-55.5 -130.5zM653 1343q0 49 35 83t86 34q47 0 74.5 -27.5t27.5 -70.5q0 -51 -34.5 -85t-86.5 -34q-47 0 -74.5 28.5t-27.5 71.5zM710 1348q0 -20 14.5 -34t36.5 -14 q23 0 40.5 17.5t17.5 40.5q0 20 -14.5 32.5t-36.5 12.5q-23 0 -40.5 -16.5t-17.5 -38.5z" />
<glyph horiz-adv-x="1267" d="M66 451q0 170 78.5 310t208.5 222t278 82q100 0 176 -38t115 -99h10l43 116h266l-182 -1044h-266l-5 102h-10q-39 -47 -114.5 -84.5t-165.5 -37.5q-123 0 -221.5 58t-154.5 164.5t-56 248.5zM127 451q0 -123 48 -216.5t133 -143.5t190 -50q84 0 152.5 38t101.5 85h96 l4 -103h154l161 922h-151l-43 -117h-88q-29 63 -96.5 100.5t-157.5 37.5q-131 0 -247 -74t-186.5 -201t-70.5 -278zM332 481q0 96 43 174t111.5 121t146.5 43q106 0 177 -71.5t71 -186.5q0 -96 -43 -173t-112 -120t-146 -43q-107 0 -177.5 71t-70.5 185zM385 1196 q20 129 93 201.5t175 72.5q55 0 129 -30q6 -2 32 -11.5t46 -9.5q51 0 66 51h210q-20 -129 -92.5 -201.5t-175.5 -72.5q-53 0 -133 31q-53 20 -74 20q-51 0 -65 -51h-211zM393 481q0 -86 53.5 -140t133.5 -54q61 0 116.5 35.5t89 98t33.5 140.5q0 88 -52 142.5t-134 54.5 q-61 0 -116.5 -36t-89.5 -99.5t-34 -141.5zM459 1253h104q27 51 100 52q27 0 56.5 -11.5t36.5 -13.5q27 -10 56.5 -18.5t55.5 -8.5q72 0 121 43t74 117h-105q-27 -51 -100 -51q-33 0 -94 24q-27 10 -56.5 18.5t-54.5 8.5q-72 0 -121 -43t-73 -117z" />
<glyph horiz-adv-x="675" d="M78 233q0 33 6 72l201 1129h327l-188 -1069q-2 -8 -2 -23q0 -20 11 -27.5t40 -7.5h143l-53 -307h-190q-150 0 -222.5 62.5t-72.5 170.5zM141 233q0 -84 54.5 -128t177.5 -44h139l31 185h-76q-51 0 -80 23.5t-29 66.5q0 18 2 29l179 1007h-201l-191 -1067q-6 -39 -6 -72z " />
<glyph horiz-adv-x="927" d="M78 233q0 33 6 72l201 1129h327l-188 -1069q-2 -8 -2 -23q0 -20 11 -27.5t40 -7.5h143l-53 -307h-190q-150 0 -222.5 62.5t-72.5 170.5zM141 233q0 -84 54.5 -128t177.5 -44h139l31 185h-76q-51 0 -80 23.5t-29 66.5q0 18 2 29l179 1007h-201l-191 -1067q-6 -39 -6 -72z M612 750q0 80 57.5 137t137.5 57q72 0 117.5 -46t45.5 -118q0 -80 -57 -137t-137 -57q-70 0 -117 47t-47 117zM673 750q0 -45 30 -74t77 -29q55 0 92 38t37 95q0 45 -29.5 74t-77.5 29q-55 0 -92 -38t-37 -95z" />
<glyph horiz-adv-x="1126" d="M68 -410l221 404l-217 1050h334l120 -641h15l315 641h363l-779 -1454h-372zM145 983l207 -999l-182 -332h233l715 1331h-225l-313 -641h-103l-123 641h-209z" />
<glyph horiz-adv-x="1126" d="M68 -410l221 404l-217 1050h334l120 -641h15l315 641h363l-779 -1454h-372zM145 983l207 -999l-182 -332h233l715 1331h-225l-313 -641h-103l-123 641h-209zM512 1184l246 301h340l-299 -301h-287zM633 1241h141l184 186h-172z" />
<glyph horiz-adv-x="1126" d="M68 -410l221 404l-217 1050h334l120 -641h15l315 641h363l-779 -1454h-372zM145 983l207 -999l-182 -332h233l715 1331h-225l-313 -641h-103l-123 641h-209zM322 1313q0 80 50 131t126 51q70 0 111 -41t41 -104q0 -80 -50.5 -131.5t-125.5 -51.5q-70 0 -111 41t-41 105z M383 1313q0 -39 25 -61.5t66 -22.5q51 0 82.5 33.5t31.5 87.5q0 39 -24.5 61.5t-65.5 22.5q-51 0 -83 -34t-32 -87zM717 1313q0 80 50.5 131t125.5 51q70 0 111 -41t41 -104q0 -80 -50 -131.5t-126 -51.5q-70 0 -111 41t-41 105zM779 1313q0 -39 24.5 -61.5t65.5 -22.5 q51 0 82.5 33.5t31.5 87.5q0 39 -24.5 61.5t-65.5 22.5q-51 0 -82.5 -34t-31.5 -87z" />
<glyph d="M16 569q0 272 102.5 473t265.5 306.5t341 105.5q156 0 278.5 -73.5t190.5 -207t68 -309.5q0 -272 -102.5 -473t-265.5 -306t-341 -105q-156 0 -278.5 73.5t-190.5 206.5t-68 309zM78 569q0 -158 60.5 -277.5t168 -185t246.5 -65.5q166 0 315.5 101.5t240.5 288.5t91 433 q0 158 -60.5 278t-168 185.5t-246.5 65.5q-166 0 -315.5 -101.5t-240.5 -289t-91 -433.5zM307 596q0 164 54.5 297t145.5 209t198 76q123 0 194.5 -92.5t71.5 -247.5q0 -164 -54.5 -297t-145.5 -209t-198 -76q-122 0 -194 92t-72 248zM369 596q0 -129 55 -204t149 -75 q89 0 165.5 69t123.5 187.5t47 264.5q0 129 -55 203.5t-149 74.5q-88 0 -165 -68.5t-124 -187.5t-47 -264z" />
<glyph d="M41 0l59 338h316l108 614h-317l59 328h236q45 0 66.5 16.5t27.5 55.5l14 82h348l-190 -1096h315l-59 -338h-983zM113 61h860l39 215h-320l193 1096h-223l-7 -33q-10 -61 -47 -90.5t-106 -29.5h-183l-38 -205h317l-129 -738h-317z" />
<glyph d="M12 0l58 328l657 508q51 41 71.5 76.5t20.5 80.5q0 49 -35.5 81t-95.5 32q-70 0 -119 -43t-63 -121h-350q20 154 95 269.5t192.5 179t265.5 63.5q150 0 257 -55.5t162.5 -150.5t55.5 -214q0 -104 -34 -182t-100.5 -144.5t-183.5 -154.5l-268 -205l-2 -10h483l-59 -338 h-1008zM86 61h883l37 215h-484l19 107l288 219q111 84 170.5 141.5t91 127t31.5 163.5q0 160 -109.5 259.5t-303.5 99.5q-180 0 -311.5 -108.5t-168.5 -280.5h230q23 76 87 119.5t142 43.5q86 0 139.5 -49t53.5 -125q0 -59 -25 -106t-92 -101l-637 -491z" />
<glyph d="M45 399q0 33 2 52h346q2 -72 50.5 -108t123.5 -36q80 0 127 45t47 103q0 63 -40.5 101t-116.5 38h-92l51 287h106q74 0 127 37.5t53 101.5q0 45 -37.5 75.5t-109.5 30.5q-68 0 -114 -35.5t-54 -86.5h-348q18 135 95 237t194.5 157.5t261.5 55.5q129 0 234.5 -51t166 -138 t60.5 -188q0 -143 -73 -228t-177 -112l-2 -12q68 -29 116 -98.5t48 -175.5q0 -131 -70 -239t-192.5 -170t-274.5 -62q-160 0 -274.5 55t-174 150.5t-59.5 213.5zM107 389q8 -156 120.5 -252t325.5 -96q133 0 241.5 54.5t171 147.5t62.5 208q0 100 -50 158.5t-122 76.5l14 92 q102 20 174 95t72 204q0 84 -52 157t-143.5 116t-203.5 43q-182 0 -309 -92.5t-166 -235.5h225q25 53 81 88t134 35q100 0 154.5 -48t54.5 -120q0 -86 -69.5 -143.5t-172.5 -57.5h-55l-29 -164h19q102 0 160.5 -56t58.5 -144q0 -86 -65.5 -147.5t-170.5 -61.5 q-92 0 -151.5 41t-75.5 102h-233z" />
<glyph d="M-16 266l55 314l618 854h512l-149 -850h143l-55 -318h-143l-47 -266h-351l47 266h-630zM57 328h631l-47 -267h223l47 267h144l35 194h-144l150 850h-408l-590 -815zM346 522l14 88l338 475h125l-100 -563h-377zM418 584h252l82 440h-23z" />
<glyph d="M74 410v10h348q8 -43 51 -78t117 -35q82 0 138 54.5t56 125.5q0 68 -44 108t-113 40q-104 0 -162 -62h-346l233 861h871l-56 -318h-575l-51 -184h10q61 20 143 20q123 0 224.5 -51t161 -147.5t59.5 -221.5q0 -154 -75 -280.5t-206 -199t-293 -72.5q-174 0 -283.5 63 t-158.5 161.5t-49 205.5zM139 358q6 -76 49 -147.5t137.5 -120.5t239.5 -49q144 0 261.5 64.5t184 177t66.5 249.5q0 106 -50 188.5t-137 126.5t-196 44q-94 0 -159 -31h-76l86 318h569l35 194h-750l-200 -737h241q70 61 187 61q96 0 157.5 -57t61.5 -152q0 -63 -34 -118.5 t-92 -89t-130 -33.5q-84 0 -137.5 33.5t-73.5 78.5h-240z" />
<glyph d="M59 430q0 113 36 203t124 198l492 603h409l-391 -463q121 -14 212 -75.5t140 -154t49 -198.5q0 -160 -79.5 -289t-212.5 -201.5t-287 -72.5q-145 0 -257 60t-173.5 163.5t-61.5 226.5zM121 430q0 -106 54 -195.5t152.5 -141.5t223.5 -52q137 0 256 65.5t190.5 180 t71.5 256.5q0 98 -51 184t-147.5 138.5t-227.5 52.5h-39l385 454h-250l-456 -559q-94 -115 -128 -195.5t-34 -187.5zM346 457q0 74 36 133t96.5 93t131.5 34q106 0 170 -59.5t64 -151.5q0 -74 -36 -133.5t-96.5 -93t-131.5 -33.5q-107 0 -170.5 59.5t-63.5 151.5zM408 457 q0 -66 46 -108t126 -42q86 0 144 57.5t58 141.5q0 66 -46 107.5t-126 41.5q-86 0 -144 -57t-58 -141z" />
<glyph d="M66 0l663 1096h-567l59 338h985l-55 -318l-676 -1116h-409zM174 61h266l652 1078l41 233h-861l-36 -215h595v-10z" />
<glyph d="M64 385q0 145 75.5 241.5t186.5 137.5l2 10q-53 35 -91 99.5t-38 150.5q0 115 66.5 213t185 157.5t270.5 59.5q150 0 256 -56.5t161.5 -142.5t55.5 -172q0 -133 -68.5 -223t-169.5 -131l-2 -10q61 -37 104.5 -104.5t43.5 -157.5q0 -143 -69.5 -251t-192.5 -167t-277 -59 q-159 0 -272 53t-170 145t-57 207zM125 385q0 -152 113.5 -248t324.5 -96q140 0 248.5 52t168.5 146.5t60 217.5q0 82 -45 141t-110 88l14 82q98 33 166 113t68 202q0 72 -48.5 143.5t-141.5 119t-222 47.5q-133 0 -238.5 -50.5t-164 -135.5t-58.5 -183q0 -76 39 -134.5 t96 -90.5l-14 -82q-106 -31 -181 -114t-75 -218zM350 422q0 98 70 162.5t180 64.5q100 0 157.5 -56t57.5 -142q0 -98 -68.5 -162t-177.5 -64q-100 0 -159.5 55.5t-59.5 141.5zM412 422q0 -57 42 -96t115 -39q82 0 133.5 46t51.5 118q0 57 -40 97t-114 40q-82 0 -135 -47 t-53 -119zM485 1010q0 84 62.5 141t159.5 57q90 0 145 -50t55 -122q0 -84 -63.5 -140t-159.5 -56q-90 0 -144.5 49t-54.5 121zM547 1012q0 -49 37 -80t102 -31q70 0 115 38t45 97q0 47 -37 79t-104 32q-70 0 -114 -38t-44 -97z" />
<glyph d="M141 891q0 160 80 289t213 201.5t287 72.5q145 0 257 -60.5t173 -164t61 -225.5q0 -113 -35.5 -203t-123.5 -199l-492 -602h-409l391 463q-121 14 -212 75.5t-140.5 153.5t-49.5 199zM203 891q0 -98 51 -184t147.5 -138.5t227.5 -52.5h39l-385 -455h247l459 560 q94 115 128 195.5t34 187.5q0 106 -54.5 195t-152.5 141.5t-223 52.5q-137 0 -256 -65.5t-190.5 -180.5t-71.5 -256zM428 928q0 74 36 133t96.5 93t131.5 34q106 0 170 -59.5t64 -151.5q0 -74 -36 -133.5t-96.5 -93t-131.5 -33.5q-107 0 -170.5 59.5t-63.5 151.5zM489 928 q0 -66 46.5 -108t126.5 -42q86 0 144 57.5t58 141.5q0 66 -46 107.5t-126 41.5q-86 0 -144.5 -57t-58.5 -141z" />
<glyph horiz-adv-x="552" d="M133 717q0 80 57.5 137t137.5 57q72 0 117.5 -46t45.5 -118q0 -80 -57 -137t-137 -57q-70 0 -117 47t-47 117zM194 717q0 -45 30 -74t77 -29q55 0 92 38t37 95q0 45 -29.5 74t-77.5 29q-55 0 -92 -38t-37 -95z" />
<glyph horiz-adv-x="630" d="M70 0l94 533l117 430h266l-35 -430l-94 -533h-348zM144 62h221l84 471l29 368h-150l-100 -368zM287 1249q0 80 57.5 137.5t137.5 57.5q72 0 118 -46t46 -118q0 -80 -57.5 -137t-137.5 -57q-70 0 -117 47t-47 116zM349 1249q0 -45 29.5 -73.5t76.5 -28.5q55 0 92 38t37 95 q0 45 -29.5 74t-76.5 29q-55 0 -92 -38t-37 -96z" />
<glyph horiz-adv-x="1097" d="M39 348q0 139 77 233.5t206 145.5q82 33 117 71t45 99l12 66h328l-15 -82q-23 -131 -85 -200.5t-187 -127.5q-76 -35 -103.5 -62.5t-27.5 -90.5q0 -45 38 -74t93 -29q72 0 109.5 27.5t50.5 95.5h348q-29 -197 -171 -318.5t-368 -121.5q-135 0 -241.5 49t-166 133 t-59.5 186zM101 348q0 -84 51 -154.5t144.5 -111.5t209.5 -41q178 0 300 87t163 231h-225q-18 -55 -71.5 -89t-135.5 -34q-80 0 -136 46t-56 118q0 59 17 95t51 59.5t99 53.5q109 51 160 106.5t74 166.5l4 20h-203q-16 -90 -59 -140t-143 -91q-117 -49 -180.5 -127 t-63.5 -195zM533 1249q0 80 57.5 137.5t137.5 57.5q72 0 117.5 -46t45.5 -118q0 -80 -57 -137t-137 -57q-70 0 -117 47t-47 116zM594 1249q0 -45 30 -73.5t77 -28.5q55 0 92 38t37 95q0 45 -29.5 74t-77.5 29q-55 0 -92 -38t-37 -96z" />
<glyph horiz-adv-x="745" d="M84 721l373 420h346l-391 -440l213 -400h-318zM158 711l188 -348h176l-184 346l330 371h-184z" />
<glyph horiz-adv-x="749" d="M12 301l392 441l-213 399h317l223 -420l-372 -420h-347zM148 363h184l326 367l-187 350h-178l184 -346z" />
<glyph horiz-adv-x="1253" d="M84 721l373 420h346l-391 -440l213 -400h-318zM158 711l188 -348h176l-184 346l330 371h-184zM592 721l373 420h346l-391 -440l213 -400h-318zM666 711l188 -348h176l-184 346l330 371h-184z" />
<glyph horiz-adv-x="1257" d="M12 301l392 441l-213 399h317l223 -420l-372 -420h-347zM148 363h184l326 367l-187 350h-178l184 -346zM520 301l392 441l-213 399h317l223 -420l-372 -420h-347zM656 363h184l326 367l-187 350h-178l184 -346z" />
<glyph horiz-adv-x="1048" d="M283 698q0 86 40 156t110.5 109.5t154.5 39.5q115 0 183.5 -72.5t68.5 -174.5q0 -86 -40 -156t-110.5 -110t-154.5 -40q-115 0 -183.5 73t-68.5 175zM344 704q0 -82 51.5 -137t145.5 -55q63 0 117.5 31.5t87.5 87t33 118.5q0 82 -51.5 137.5t-145.5 55.5 q-63 0 -117.5 -31.5t-87.5 -87t-33 -119.5z" />
<glyph horiz-adv-x="892" d="M101 573l55 307h709l-56 -307h-708zM175 635h581l35 184h-582z" />
<glyph horiz-adv-x="1189" d="M80 573l56 307h1046l-55 -307h-1047zM154 635h920l34 184h-919z" />
<glyph horiz-adv-x="1579" d="M80 573l56 307h1435l-55 -307h-1436zM154 635h1309l35 184h-1309z" />
<glyph horiz-adv-x="796" d="M139 430q0 373 144.5 700.5t353.5 548.5h367q-225 -229 -381 -561t-156 -698q0 -201 39 -370t94 -276h-323q-57 111 -97.5 283t-40.5 373zM201 430q0 -170 32.5 -327t80.5 -267h192q-39 100 -69.5 249.5t-30.5 334.5q0 342 134 657t327 541h-205q-147 -166 -304 -465 t-157 -723z" />
<glyph horiz-adv-x="796" d="M-137 -226q225 229 381 561t156 699q0 201 -39 370t-95 275h324q57 -111 97 -283t40 -372q0 -373 -144 -700.5t-353 -549.5h-367zM0 -164h205q147 166 304 465t157 723q0 170 -33 326.5t-80 267.5h-192q39 -100 69.5 -250t30.5 -334q0 -342 -134 -657.5t-327 -540.5z" />
<glyph horiz-adv-x="786" d="M33 -226l336 1905h559l-53 -307h-232l-227 -1290h231l-55 -308h-559zM107 -164h432l35 184h-232l248 1413h234l30 185h-432z" />
<glyph horiz-adv-x="784" d="M-67 -226l53 308h231l228 1290h-232l53 307h560l-336 -1905h-557zM6 -164h430l316 1782h-434l-31 -185h231l-247 -1413h-234z" />
<glyph horiz-adv-x="802" d="M88 553l62 348h8q66 0 106.5 31.5t49.5 78.5l61 351q27 154 123 235.5t244 81.5h200l-53 -297h-96q-88 0 -101 -82l-63 -366q-16 -98 -86 -148.5t-158 -58.5l-4 -21q70 -16 119 -65t49 -129q0 -25 -4 -49l-51 -289q-4 -20 -4 -33q0 -70 78 -70h92l-54 -297h-151 q-141 0 -222 74t-81 211q0 39 8 84l49 277l4 32q0 39 -34.5 70t-82.5 31h-8zM160 602q47 -14 82 -55t35 -93q0 -10 -4 -34l-50 -277q-8 -45 -8 -84q0 -111 61.5 -167t178.5 -56h100l31 174h-18q-72 0 -107 37t-35 90q0 16 4 37l52 289q6 31 6 49q0 55 -44 96t-116 41h-21 l25 139h20q76 0 138.5 37t74.5 109l64 366q25 143 164 144h45l31 174h-127q-121 0 -201 -64.5t-102 -191.5l-62 -351q-12 -63 -55 -110t-119 -60z" />
<glyph horiz-adv-x="802" d="M-67 -226l53 297h96q88 0 101 82l63 367q16 98 86 148.5t158 58.5l4 20q-70 16 -119 65.5t-49 129.5q0 25 4 49l51 289q4 20 4 32q0 70 -78 70h-92l54 297h151q141 0 222 -73.5t81 -211.5q0 -39 -8 -84l-49 -276l-4 -33q0 -39 34.5 -69.5t81.5 -30.5h9l-62 -348h-8 q-66 0 -106.5 -32t-49.5 -79l-61 -350q-27 -154 -123 -236t-244 -82h-200zM8 -164h125q121 0 201 64.5t102 191.5l62 350q12 63 55 110.5t119 59.5l43 240q-47 14 -82 55t-35 92q0 10 4 35l49 276q8 45 9 84q0 111 -61.5 167.5t-178.5 56.5h-98l-31 -174h16q72 0 107 -37 t35 -90q0 -16 -4 -37l-52 -289q-6 -31 -6 -49q0 -55 44 -96t116 -41h21l-25 -140h-21q-76 0 -138 -36.5t-75 -108.5l-63 -367q-25 -143 -164 -143h-43z" />
<glyph horiz-adv-x="1955" d="M134 635q0 262 130 477t354 340t492 125q248 0 436.5 -95.5t290 -255t101.5 -346.5q0 -168 -59.5 -298t-166 -202.5t-243.5 -72.5q-100 0 -167 32.5t-93 79.5h-10q-45 -47 -116 -79.5t-157 -32.5q-100 0 -182 47t-128 129t-46 182q0 135 62.5 245t166 173.5t219.5 63.5 q76 0 134.5 -27t93.5 -66h10l39 82h194l-84 -473q-2 -6 -2 -20q0 -35 27 -52.5t70 -17.5q39 0 75.5 31t60 95.5t23.5 160.5q0 121 -71.5 223t-202.5 164.5t-305 62.5q-186 0 -339 -85t-240 -234.5t-87 -335.5q0 -145 66.5 -255t187.5 -168t279 -58h393l-47 -267h-377 q-225 0 -402.5 90.5t-278.5 255t-101 382.5zM195 635q0 -197 92 -348.5t256 -234.5t373 -83h323l27 143h-319q-176 0 -310.5 66.5t-209 189.5t-74.5 287q0 203 95 366.5t261 257t371 93.5q190 0 336.5 -71t225.5 -188.5t79 -252.5q0 -117 -33 -196t-84 -115.5t-104 -36.5 q-70 0 -114 33.5t-44 91.5q0 18 2 26l72 412h-82l-39 -82h-74q-29 39 -81 65.5t-122 26.5q-102 0 -191 -55.5t-142.5 -151.5t-53.5 -213q0 -127 84 -212t211 -85q80 0 143.5 33t100.5 80h72q20 -47 77.5 -80t149.5 -33q119 0 211 64.5t144 180.5t52 267q0 172 -94 317.5 t-268 231.5t-404 86q-250 0 -459.5 -116.5t-332.5 -318.5t-123 -445zM785 694q0 113 68.5 185.5t168.5 72.5q92 0 148.5 -53.5t56.5 -139.5q0 -113 -68.5 -185.5t-168.5 -72.5q-93 0 -149 53.5t-56 139.5zM846 694q0 -59 38 -95t106 -36q73 0 124.5 55t51.5 141 q0 59 -38 95.5t-106 36.5q-74 0 -125 -55.5t-51 -141.5z" />
<glyph d="M68 440q0 154 63.5 280t173 209t244.5 113l41 228h328l-41 -230q141 -49 210.5 -161.5t75.5 -243.5h-338q-10 47 -55 85t-127 38q-63 0 -119.5 -35t-90.5 -97.5t-34 -142.5q0 -84 54.5 -140t138.5 -56q55 0 96 22.5t64.5 51t29.5 49.5h342q-43 -147 -158.5 -263 t-271.5 -145l-41 -227h-327l41 229q-141 51 -220 164t-79 272zM129 440q0 -154 85 -260t224 -133l-39 -211h201l41 217q131 12 236.5 96t160.5 203h-221q-23 -45 -80 -86t-145 -41q-113 0 -183.5 73t-70.5 185q0 98 43 175t112.5 119t149.5 42q92 0 148.5 -39t74.5 -88h228 q-27 104 -88.5 190.5t-200.5 114.5l39 211h-201l-41 -217q-129 -20 -237.5 -95t-172 -193.5t-63.5 -262.5z" />
<glyph d="M27 430v41h348v-20q0 -76 62.5 -120t162.5 -44q102 0 153.5 39t51.5 104q0 49 -41 81t-143 54l-134 29q-176 39 -256.5 127t-80.5 242q0 125 54 228t154.5 171t237.5 86l37 211h330l-43 -236q156 -45 235.5 -151.5t79.5 -257.5v-51h-348v10q0 76 -60.5 125t-144.5 49 q-90 0 -137 -41t-47 -113q0 -35 29.5 -60.5t113.5 -43.5l133 -29q203 -43 291 -137t88 -252q0 -199 -129 -329t-354 -158l-37 -209h-330l43 235q-158 47 -238.5 156.5t-80.5 263.5zM88 410q6 -137 88 -229.5t242 -123.5l-41 -221h203l36 205q223 14 349.5 131t126.5 299 q0 133 -75 212t-253 116l-135 28q-102 23 -147.5 63t-45.5 103q0 98 63.5 156.5t182.5 58.5q92 0 167 -51t93 -133h232q0 137 -83 230.5t-243 123.5l41 219h-203l-37 -206q-201 -12 -319.5 -129t-118.5 -299q0 -135 69.5 -206t219.5 -102l133 -28q125 -27 179 -76t54 -121 q0 -90 -67.5 -147.5t-198.5 -57.5q-119 0 -191.5 49.5t-91.5 135.5h-229z" />
<glyph d="M-16 461l36 205h144l16 102h-143l37 205h168q41 111 132 221.5t234.5 185t329.5 74.5q131 0 235.5 -34t165.5 -83l-55 -307q-55 49 -145 83t-201 34q-119 0 -200 -52.5t-126 -121.5h424l-37 -205h-481l-16 -102h481l-37 -205h-399q27 -74 106.5 -124t210.5 -50 q100 0 178 19.5t121 45.5l-53 -307q-47 -27 -126 -46t-179 -19q-193 0 -327 68.5t-206.5 177t-95.5 235.5h-192zM57 522h172q12 -127 76 -235.5t188.5 -177t311.5 -68.5q80 0 144.5 13.5t105.5 31.5l28 170q-92 -31 -219 -31q-176 0 -279.5 86t-133.5 211h444l14 82h-481 l37 225h483l15 82h-453q49 123 159.5 210t268.5 87q90 0 168 -20.5t131 -50.5l35 170q-78 47 -157 66.5t-177 19.5q-176 0 -311 -74t-219 -183.5t-123 -224.5h-160l-14 -82h143l-37 -225h-145z" />
<glyph d="M-31 0l58 328h53q92 0 104 71l27 154h-145l47 266h145l41 228q35 188 155.5 297.5t315.5 109.5q209 0 321.5 -100.5t112.5 -276.5v-84h-348q4 63 -22.5 98t-77.5 35t-78 -32.5t-39 -94.5l-33 -180h305l-47 -266h-305l-27 -154q-8 -49 -38 -71h620l-57 -328h-1088zM41 61 h963l36 205h-634l10 62q45 23 53 71l37 215h305l27 144h-306l43 241q14 86 58.5 137.5t122.5 51.5q135 0 159 -133h228v22q0 147 -94.5 231.5t-278.5 84.5q-166 0 -272.5 -92.5t-135.5 -253.5l-51 -289h-145l-27 -144h146l-37 -215q-12 -68 -46 -100.5t-110 -32.5h-12z" />
<glyph d="M59 225l41 236h318l20 112h-317l41 236h141l-205 625h369l174 -553h12l367 553h410l-426 -625h141l-41 -236h-318l-20 -112h317l-41 -236h-317l-39 -225h-348l39 225h-318zM133 287h318l-39 -226h223l39 226h315l21 112h-316l43 236h314l20 113h-184l426 624h-260 l-367 -553h-88l-174 553h-240l205 -624h-174l-20 -113h317l-41 -236h-317z" />
</font>
</defs>
</svg>
