<?xml version="1.0" standalone="no"?>
<!DOCTYPE svg PUBLIC "-//W3C//DTD SVG 1.1//EN" "http://www.w3.org/Graphics/SVG/1.1/DTD/svg11.dtd" >
<svg xmlns="http://www.w3.org/2000/svg" xmlns:xlink="http://www.w3.org/1999/xlink" version="1.1">
<metadata></metadata>
<defs>
<font id="telefonica_sansdemiBdIt" horiz-adv-x="2050" >
<font-face units-per-em="2048" ascent="1638" descent="-410" />
<missing-glyph horiz-adv-x="526" />
<glyph unicode="ff" horiz-adv-x="1337" d="M100 795l45 243h168l31 183q18 104 90 168.5t184 64.5h226l-41 -223h-133q-68 0 -80 -66l-21 -127h330l31 183q18 106 89 169.5t183 63.5h248l-39 -223h-158q-66 0 -77 -66l-21 -127h223l-45 -243h-221l-141 -795h-256l141 795h-330l-141 -795h-256l141 795h-170z" />
<glyph unicode="fi" horiz-adv-x="1191" d="M100 795l45 243h168l31 183q18 104 90 168.5t184 64.5h213l-38 -223h-123q-68 0 -80 -66l-21 -127h584l-182 -1038h-256l139 795h-328l-141 -795h-254l139 795h-170zM926 1317q0 66 46 111t111 45q61 0 103.5 -36t42.5 -96q0 -66 -46 -110.5t-112 -44.5q-59 0 -102 37 t-43 94z" />
<glyph unicode="fj" horiz-adv-x="1196" d="M100 795l43 243h170l31 183q18 104 90 168.5t184 64.5h213l-38 -223h-123q-68 0 -80 -66l-21 -127h584l-215 -1220q-18 -104 -90 -166t-189 -62h-237l43 236h160q31 0 47 15.5t22 49.5l160 904h-328l-141 -795h-254l139 795h-170zM926 1317q0 66 46 111t111 45 q61 0 103.5 -36t42.5 -96q0 -66 -46 -110.5t-112 -44.5q-59 0 -102 37t-43 94z" />
<glyph unicode="fl" horiz-adv-x="1202" d="M100 795l45 243h168l31 183q18 104 90 168.5t184 64.5h609l-256 -1454h-256l215 1231h-260q-68 0 -80 -66l-21 -127h199l-43 -243h-199l-141 -795h-254l139 795h-170z" />
<glyph unicode="ffi" horiz-adv-x="1773" d="M100 795l45 243h168l31 183q18 104 90 168.5t182 64.5h228l-41 -223h-133q-68 0 -80 -66l-21 -127h330l31 183q18 104 90 168.5t184 64.5h209l-39 -223h-121q-66 0 -77 -66l-21 -127h582l-185 -1038h-256l140 795h-324l-141 -795h-256l141 795h-330l-141 -795h-256 l141 795h-170zM1507 1317q0 66 46 111t112 45q61 0 103 -36t42 -96q0 -66 -46 -110.5t-111 -44.5q-60 0 -103 37t-43 94z" />
<glyph unicode="ffj" horiz-adv-x="1777" d="M100 795l45 243h168l31 183q18 104 90 168.5t182 64.5h228l-41 -223h-133q-68 0 -80 -66l-21 -127h330l31 183q18 106 87.5 169.5t184.5 63.5h213l-39 -223h-123q-66 0 -77 -66l-21 -127h582l-217 -1220q-18 -104 -89 -166t-188 -62h-237l43 236h159q31 0 47.5 15.5 t22.5 49.5l160 904h-326l-141 -795h-256l141 795h-330l-141 -795h-256l141 795h-170zM1507 1317q0 66 46 111t112 45q61 0 103 -36t42 -96q0 -66 -46 -110.5t-111 -44.5q-60 0 -103 37t-43 94z" />
<glyph unicode="ffl" horiz-adv-x="1783" d="M100 795l43 243h170l31 183q18 106 89 169.5t183 63.5h228l-41 -223h-133q-68 0 -80 -66l-21 -127h330l31 183q18 106 89 169.5t183 63.5h606l-256 -1454h-256l215 1231h-258q-66 0 -77 -66l-21 -127h195l-43 -243h-195l-141 -795h-256l141 795h-330l-141 -795h-256 l141 795h-170z" />
<glyph horiz-adv-x="0" />
<glyph unicode="&#xd;" horiz-adv-x="0" />
<glyph unicode=" "  horiz-adv-x="526" />
<glyph unicode="&#x09;" horiz-adv-x="526" />
<glyph unicode="&#xa0;" horiz-adv-x="526" />
<glyph unicode="!" horiz-adv-x="620" d="M92 129q0 68 49 118t117 50q61 0 101 -39t40 -100q0 -68 -49 -118t-117 -50q-61 0 -101 39t-40 100zM197 422l41 448l98 564h272l-100 -564l-117 -448h-194z" />
<glyph unicode="&#x22;" horiz-adv-x="854" d="M199 961l82 473h235l-82 -473h-235zM576 961l82 473h235l-82 -473h-235z" />
<glyph unicode="#" horiz-adv-x="1474" d="M-6 344l88 225h266l117 295h-264l88 226h264l135 344h238l-135 -344h251l136 344h237l-133 -344h266l-88 -226h-266l-117 -295h266l-88 -225h-266l-133 -344h-238l134 344h-252l-133 -344h-238l131 344h-266zM588 569h252l114 295h-249z" />
<glyph unicode="$" horiz-adv-x="1300" d="M61 455h271q-2 -111 83 -172.5t236 -61.5q135 0 204 54.5t69 144.5q0 63 -49.5 104t-149.5 64l-217 47q-150 33 -231.5 125t-81.5 225q0 123 56 224.5t164.5 165t256.5 75.5l37 209h243l-39 -221q188 -37 285.5 -157t85.5 -302h-272q6 111 -74 172t-213 61 q-125 0 -191.5 -54t-66.5 -144q0 -117 170 -154l186 -41q186 -41 279.5 -133t93.5 -229q0 -139 -65.5 -246t-187.5 -167t-286 -64l-34 -205h-244l39 229q-178 45 -271.5 164t-85.5 287z" />
<glyph unicode="%" horiz-adv-x="1671" d="M164 0l1143 1434h270l-1143 -1434h-270zM180 1090q0 100 52.5 183t136.5 132t178 49q86 0 153.5 -40t106.5 -107.5t39 -149.5q0 -100 -52.5 -183t-136.5 -132t-178 -49q-86 0 -153.5 38.5t-106.5 107.5t-39 151zM377 1102q0 -53 34.5 -88t86.5 -35q57 0 104 47t47 119 q0 53 -34.5 87t-86.5 34q-57 0 -104 -47.5t-47 -116.5zM895 276q0 100 52 183.5t137 132.5t180 49q84 0 152.5 -40t107.5 -107.5t39 -149.5q0 -100 -52.5 -183t-137.5 -132t-179 -49q-84 0 -152.5 39.5t-107.5 107.5t-39 149zM1094 289q0 -53 33.5 -87t84.5 -34q58 0 105 47 t47 117q0 53 -35 88t-86 35q-57 0 -103 -47.5t-46 -118.5z" />
<glyph unicode="&#x26;" horiz-adv-x="1327" d="M45 322q0 123 59.5 206.5t182.5 163.5l100 66l-61 86q-37 53 -57.5 103t-20.5 118q0 109 55 198t154.5 140t222.5 51q117 0 203 -44t132 -116.5t46 -160.5q0 -109 -57.5 -188t-153.5 -142l-141 -90l206 -267q35 41 69 103.5t44 126.5h236q-16 -121 -80 -231.5 t-133 -172.5l217 -272h-307l-87 115q-63 -51 -170.5 -93t-222.5 -42q-131 0 -230 47t-152.5 124.5t-53.5 170.5zM301 354q0 -66 55.5 -109.5t157.5 -43.5q74 0 134.5 22.5t99.5 55.5l-234 311l-74 -41q-72 -43 -105.5 -86t-33.5 -109zM492 1065q0 -53 51 -121l49 -63l92 51 q63 37 95 71.5t32 92.5q0 53 -39 91t-108 38q-76 0 -124 -46t-48 -114z" />
<glyph unicode="'" horiz-adv-x="477" d="M199 961l82 473h235l-82 -473h-235z" />
<glyph unicode="(" horiz-adv-x="745" d="M119 225q0 377 143.5 704.5t360.5 565.5h286q-131 -131 -252.5 -325.5t-201.5 -442.5t-80 -516q0 -342 135 -621h-254q-137 309 -137 635z" />
<glyph unicode=")" horiz-adv-x="745" d="M-154 -410q131 131 252 326t201 442.5t80 515.5q0 340 -133 621h254q135 -303 135 -635q0 -375 -142.5 -703.5t-359.5 -566.5h-287z" />
<glyph unicode="*" horiz-adv-x="995" d="M168 1044l59 191l279 -102l-19 301h205l-16 -301l276 102l62 -191l-283 -73l182 -223l-155 -125l-166 245l-168 -245l-156 125l183 223z" />
<glyph unicode="+" horiz-adv-x="1122" d="M113 477v234h342v372h237v-372h344v-234h-344v-373h-237v373h-342z" />
<glyph unicode="," horiz-adv-x="518" d="M-45 -182l129 469h291l-209 -469h-211z" />
<glyph unicode="-" horiz-adv-x="874" d="M84 465l41 237h690l-41 -237h-690z" />
<glyph unicode="." horiz-adv-x="518" d="M41 129q0 68 49 118t117 50q61 0 101 -39t40 -100q0 -68 -49 -118t-117 -50q-61 0 -101 39t-40 100z" />
<glyph unicode="/" horiz-adv-x="829" d="M-164 -410l897 1905h268l-899 -1905h-266z" />
<glyph unicode="0" horiz-adv-x="1366" d="M113 561q0 262 96 466t256 315.5t342 111.5q147 0 264 -70.5t183.5 -201.5t66.5 -310q0 -262 -97.5 -464.5t-257 -315t-339.5 -112.5q-148 0 -264.5 70.5t-183 201.5t-66.5 309zM385 584q0 -162 73.5 -253t190.5 -91q105 0 198 79.5t148.5 219t55.5 311.5q0 162 -75 253 t-190 91q-106 0 -198 -80t-147.5 -219t-55.5 -311z" />
<glyph unicode="1" horiz-adv-x="774" d="M147 1024l46 256h233q57 0 70 61l16 93h272l-252 -1434h-272l180 1024h-293z" />
<glyph unicode="2" horiz-adv-x="1161" d="M18 0l39 236l686 561q66 55 97.5 104t31.5 115q0 76 -49 126t-137 50q-94 0 -163.5 -68.5t-84.5 -167.5h-272q20 143 93 256t186.5 177.5t254.5 64.5q133 0 235.5 -51t159 -140t56.5 -204q0 -106 -36 -185t-92 -136.5t-165 -145.5l-391 -326l-2 -10h567l-43 -256h-971z " />
<glyph unicode="3" horiz-adv-x="1177" d="M49 430h270q-2 -90 61.5 -142t166.5 -52q113 0 178.5 56t65.5 150q0 74 -57.5 125t-149.5 51h-92l43 230h124q98 0 161 56.5t63 133.5q0 68 -56.5 114t-150.5 46q-90 0 -150.5 -49t-76.5 -127h-269q18 119 90 218t184.5 156.5t252.5 57.5q137 0 239.5 -50t156.5 -137 t54 -194q0 -143 -80 -231t-180 -119v-10q68 -33 116 -108t48 -173q0 -119 -66.5 -223.5t-186.5 -166.5t-271 -62q-156 0 -268.5 54t-170 155.5t-49.5 240.5z" />
<glyph unicode="4" horiz-adv-x="1165" d="M-6 285l41 237l670 912h415l-159 -904h163l-43 -245h-163l-50 -285h-270l49 285h-653zM336 530h354l101 574h-41l-412 -563z" />
<glyph unicode="5" horiz-adv-x="1189" d="M72 406h270q8 -72 67.5 -121t159.5 -49q74 0 135.5 34.5t98.5 95t37 136.5q0 92 -61.5 150.5t-166.5 58.5q-70 0 -126 -28t-85 -67h-270l227 818h836l-45 -254h-598l-76 -273h10q70 45 187 45q129 0 228 -54t155.5 -149.5t56.5 -216.5q0 -156 -74.5 -282.5t-202.5 -198 t-282 -71.5q-145 0 -256 52t-169 148t-56 226z" />
<glyph unicode="6" horiz-adv-x="1189" d="M66 424q0 197 143 373l532 637h316l-402 -480q14 2 43 2q109 0 203 -57t150.5 -155.5t56.5 -213.5q0 -152 -77 -278.5t-206 -199t-278 -72.5q-139 0 -249 58t-171 159.5t-61 226.5zM340 446q0 -92 62.5 -153.5t162.5 -61.5q72 0 134.5 37t100.5 100.5t38 139.5 q0 90 -63.5 151.5t-164.5 61.5q-72 0 -134 -37t-99 -100.5t-37 -137.5z" />
<glyph unicode="7" horiz-adv-x="1077" d="M111 0l696 1174h-635l47 260h957l-43 -236l-707 -1198h-315z" />
<glyph unicode="8" horiz-adv-x="1185" d="M70 371q0 106 43 188t105.5 131t123.5 70l2 10q-51 35 -90 98.5t-39 147.5q0 117 65.5 217t180 160.5t254.5 60.5q139 0 243.5 -52t160 -140t55.5 -189q0 -139 -77 -229t-173 -127v-8q63 -37 108 -110t45 -165q0 -121 -66.5 -225.5t-186 -166.5t-271.5 -62 q-150 0 -259.5 53t-166.5 142t-57 196zM336 408q0 -80 62.5 -133.5t164.5 -53.5q107 0 178.5 63.5t71.5 157.5q0 80 -61.5 132.5t-163.5 52.5q-106 0 -179 -63.5t-73 -155.5zM481 1018q0 -70 53.5 -118t145.5 -48q94 0 156.5 57.5t62.5 137.5q0 70 -53 118.5t-146 48.5 q-94 0 -156.5 -58t-62.5 -138z" />
<glyph unicode="9" horiz-adv-x="1191" d="M152 903q0 152 77.5 279t206.5 199.5t279 72.5q137 0 246.5 -58.5t171 -159.5t61.5 -226q0 -197 -143 -373l-531 -637h-317l401 479q-12 -2 -43 -2q-109 0 -203 57.5t-150 155.5t-56 213zM422 926q0 -90 63.5 -151.5t163.5 -61.5q72 0 135.5 36.5t100.5 100t37 137.5 q0 90 -63.5 152.5t-164.5 62.5q-72 0 -134 -37t-100 -100.5t-38 -138.5z" />
<glyph unicode=":" horiz-adv-x="520" d="M41 129q0 68 49 118t117 50q61 0 101 -39t40 -100q0 -68 -49 -118t-117 -50q-61 0 -101 39t-40 100zM174 889q0 70 49 119t117 49q61 0 101 -39t40 -100q0 -68 -49 -118t-117 -50q-61 0 -101 38.5t-40 100.5z" />
<glyph unicode=";" horiz-adv-x="520" d="M-45 -182l129 471h291l-209 -471h-211zM178 889q0 70 49 119t117 49q61 0 101 -39t40 -100q0 -68 -49 -118t-117 -50q-61 0 -101 38.5t-40 100.5z" />
<glyph unicode="&#x3c;" horiz-adv-x="1120" d="M117 475v248l905 364v-256l-614 -231l614 -231v-258z" />
<glyph unicode="=" horiz-adv-x="1116" d="M156 276v230h837v-230h-837zM156 682v229h837v-229h-837z" />
<glyph unicode="&#x3e;" horiz-adv-x="1120" d="M131 111v258l614 231l-614 231v256l905 -364v-248z" />
<glyph unicode="?" horiz-adv-x="1077" d="M133 1028q33 193 166 309.5t344 116.5q137 0 240.5 -50t160 -135t56.5 -186q0 -147 -82 -244.5t-215 -150.5q-84 -33 -120 -75t-48 -107l-17 -86h-262l19 100q25 131 84 199.5t182 118.5q176 72 176 206q0 70 -53 117t-143 47q-88 0 -143.5 -50t-69.5 -130h-275zM285 129 q0 68 49 118t117 50q61 0 101 -39t40 -100q0 -68 -49 -118t-117 -50q-61 0 -101 39t-40 100z" />
<glyph unicode="@" horiz-adv-x="1937" d="M115 496q0 260 127 473t345 335.5t480 122.5q246 0 431 -93t285.5 -249.5t100.5 -343.5q0 -178 -60.5 -309t-164 -199.5t-225.5 -68.5q-94 0 -157 36t-85 83h-10q-39 -45 -117 -82t-168 -37q-104 0 -186 47t-129 129t-47 182q0 139 60 251t164.5 174.5t227.5 62.5 q84 0 150.5 -32t91.5 -71h10l39 90h174l-88 -499q-2 -12 -2 -33q0 -45 24.5 -67.5t69.5 -22.5q53 0 99.5 39t76 115.5t29.5 185.5q0 133 -74 246.5t-213 183t-325 69.5q-199 0 -361 -91t-255 -251.5t-93 -359.5q0 -150 69.5 -267.5t197.5 -184t298 -66.5h391l-36 -213h-379 q-221 0 -395.5 90t-272.5 253t-98 372zM756 549q0 -82 51 -131t139 -49q96 0 164 71.5t68 184.5q0 82 -51.5 131t-139.5 49q-96 0 -163.5 -70.5t-67.5 -185.5z" />
<glyph unicode="A" horiz-adv-x="1398" d="M-88 0l760 1434h395l258 -1434h-289l-51 313h-606l-162 -313h-305zM504 557h440l-96 586h-41z" />
<glyph unicode="B" horiz-adv-x="1349" d="M59 0l252 1434h656q102 0 183 -44t128 -123t47 -182q0 -135 -66.5 -232t-150.5 -138l-2 -10q49 -33 88 -103t39 -158q0 -131 -61.5 -232t-165 -156.5t-224.5 -55.5h-723zM373 242h395q80 0 136.5 57t56.5 145q0 70 -41 112t-111 42h-373zM479 836h385q72 0 130.5 58 t58.5 144q0 63 -41 108.5t-107 45.5h-364z" />
<glyph unicode="C" horiz-adv-x="1513" d="M117 614q0 240 110.5 432.5t289.5 300t378 107.5q184 0 314 -75.5t201 -196.5t83 -256h-276q-23 111 -114 188.5t-233 77.5q-121 0 -231.5 -69.5t-180 -196.5t-69.5 -289q0 -119 48 -208t134 -138t197 -49q141 0 245.5 82t147.5 194h287q-49 -139 -147.5 -262 t-242 -199.5t-315.5 -76.5q-182 0 -324.5 80.5t-222 225t-79.5 328.5z" />
<glyph unicode="D" horiz-adv-x="1449" d="M59 0l252 1434h496q162 0 298 -79t217 -221.5t81 -320.5q0 -227 -107.5 -413.5t-286 -293t-382.5 -106.5h-568zM379 262h270q129 0 239.5 66.5t175 185.5t64.5 272q0 111 -48 199t-129 137t-179 49h-233z" />
<glyph unicode="E" horiz-adv-x="1220" d="M59 0l252 1434h963l-43 -250h-690l-62 -344h649l-43 -242h-647l-61 -348h688l-43 -250h-963z" />
<glyph unicode="F" horiz-adv-x="1193" d="M59 0l252 1434h951l-45 -250h-676l-64 -350h629l-41 -244h-629l-104 -590h-273z" />
<glyph unicode="G" horiz-adv-x="1566" d="M117 612q0 240 109.5 432.5t289.5 301t379 108.5q236 0 394.5 -127t205.5 -364h-281q-41 104 -129 166.5t-217 62.5q-121 0 -231.5 -69.5t-179 -197.5t-68.5 -292q0 -115 48 -204t134 -138t197 -49q100 0 185 42t141.5 108.5t72.5 133.5l7 27h-340l34 199h617l-131 -752 h-209l8 154h-10q-57 -72 -171 -123t-239 -51q-178 0 -318.5 80.5t-219 225t-78.5 326.5z" />
<glyph unicode="H" horiz-adv-x="1482" d="M59 0l252 1434h273l-101 -574h635l101 574h272l-250 -1434h-272l100 584h-635l-100 -584h-275z" />
<glyph unicode="I" horiz-adv-x="575" d="M59 0l252 1434h275l-254 -1434h-273z" />
<glyph unicode="J" horiz-adv-x="851" d="M-72 0l47 262h332q41 0 67.5 25.5t35.5 74.5l188 1072h274l-206 -1160q-47 -274 -308 -274h-430z" />
<glyph unicode="K" horiz-adv-x="1230" d="M59 0l252 1434h275l-113 -635l592 635h348l-678 -723l445 -711h-326l-405 662l-117 -662h-273z" />
<glyph unicode="L" horiz-adv-x="1114" d="M59 0l252 1434h275l-207 -1172h670l-48 -262h-942z" />
<glyph unicode="M" horiz-adv-x="1884" d="M59 0l252 1434h422l158 -1010h41l518 1010h444l-252 -1434h-272l172 993h-41l-508 -993h-286l-160 993h-41l-174 -993h-273z" />
<glyph unicode="N" horiz-adv-x="1488" d="M59 0l252 1434h359l336 -1000h43l176 1000h274l-252 -1434h-358l-338 999h-43l-176 -999h-273z" />
<glyph unicode="O" horiz-adv-x="1562" d="M117 610q0 242 110.5 434.5t290.5 301t379 108.5q178 0 319.5 -81t221.5 -225t80 -325q0 -242 -111 -434t-291 -300.5t-379 -108.5q-180 0 -321.5 80.5t-220 224t-78.5 325.5zM389 639q0 -119 48 -209t133 -139t194 -49q121 0 231.5 69.5t180 195.5t69.5 288 q0 117 -48 208t-134 140t-193 49q-121 0 -232.5 -69.5t-180 -195.5t-68.5 -288z" />
<glyph unicode="P" horiz-adv-x="1351" d="M59 0l252 1434h637q113 0 202 -51.5t139 -142.5t50 -208q0 -164 -69.5 -292t-185 -198.5t-250.5 -70.5h-420l-82 -471h-273zM461 733h377q94 0 160.5 72t66.5 184q0 82 -47 132t-119 50h-360z" />
<glyph unicode="Q" horiz-adv-x="1562" d="M117 610q0 242 110.5 434.5t290.5 301t379 108.5q178 0 319.5 -81t221.5 -225t80 -325q0 -205 -81 -377t-220 -288l188 -258h-307l-97 131q-131 -51 -264 -51q-180 0 -321.5 80.5t-220 224t-78.5 325.5zM389 639q0 -119 48 -209t133 -139t194 -49q57 0 106 14l-174 227 h279l92 -118q82 76 130 186.5t48 243.5q0 117 -48 208t-134 140t-193 49q-121 0 -232.5 -69.5t-180 -195.5t-68.5 -288z" />
<glyph unicode="R" horiz-adv-x="1368" d="M59 0l252 1434h650q106 0 194 -51.5t138 -143.5t50 -213q0 -158 -69.5 -276.5t-183 -183t-242.5 -64.5h-41l393 -502h-319l-379 492h-84l-86 -492h-273zM463 741h383q59 0 110.5 32t83 89.5t31.5 128.5q0 90 -47 138.5t-129 48.5h-356z" />
<glyph unicode="S" horiz-adv-x="1300" d="M61 455h271q0 -3 -1 -5q0 -108 84 -168q85 -62 236 -61q135 0 204 54.5t69 144.5q0 63 -49.5 104t-149.5 64l-217 47q-150 33 -231.5 125t-81.5 225t65.5 239.5t190 168t294.5 61.5q176 0 301 -58q124 -56 186 -164q53 -92 53 -213q0 -20 -1 -40h-272v15q0 100 -74 157 q-80 61 -213 61q-125 0 -191.5 -54t-66.5 -144q0 -117 170 -154l186 -41q186 -41 279.5 -133t93.5 -229q0 -141 -67.5 -250t-194.5 -168t-299 -59q-186 0 -317.5 59t-197.5 167q-60 98 -60 225q0 12 1 24z" />
<glyph unicode="T" horiz-adv-x="1210" d="M160 1171l47 263h1118l-47 -263h-422l-207 -1171h-272l205 1171h-422z" />
<glyph unicode="U" horiz-adv-x="1447" d="M139 496q0 68 13 137l143 801h272l-147 -826q-6 -39 -6 -76q0 -133 80.5 -211.5t205.5 -78.5t222.5 87t124.5 230l155 875h275l-160 -902q-31 -168 -121 -293.5t-224 -192t-290 -66.5q-162 0 -285 62t-190.5 179t-67.5 275z" />
<glyph unicode="V" horiz-adv-x="1386" d="M158 1434h284l174 -1102h41l566 1102h307l-742 -1434h-397z" />
<glyph unicode="W" horiz-adv-x="2017" d="M168 1434h291l59 -1000h41l432 1000h316l79 -1000h41l418 1000h305l-608 -1434h-368l-76 973h-41l-418 -973h-369z" />
<glyph unicode="X" horiz-adv-x="1310" d="M-104 0l618 737l-336 697h307l213 -476h41l381 476h336l-582 -697l359 -737h-307l-238 508h-41l-418 -508h-333z" />
<glyph unicode="Y" horiz-adv-x="1280" d="M131 1434h289l225 -619h41l444 619h318l-688 -947l-86 -487h-275l86 487z" />
<glyph unicode="Z" horiz-adv-x="1226" d="M-20 0l43 242l860 929h-686l47 263h1061l-43 -242l-859 -930h707l-47 -262h-1083z" />
<glyph unicode="[" horiz-adv-x="739" d="M0 -410l336 1905h510l-41 -235h-254l-252 -1434h254l-43 -236h-510z" />
<glyph unicode="\" horiz-adv-x="815" d="M172 1495h252l227 -1905h-252z" />
<glyph unicode="]" horiz-adv-x="737" d="M-96 -410l41 236h252l252 1434h-252l41 235h507l-335 -1905h-506z" />
<glyph unicode="^" horiz-adv-x="901" d="M147 854l218 580h292l215 -580h-227l-129 356h-10l-131 -356h-228z" />
<glyph unicode="_" horiz-adv-x="790" d="M-211 -444l41 239h875l-41 -239h-875z" />
<glyph unicode="`" horiz-adv-x="583" d="M236 1507h262l147 -295h-217z" />
<glyph unicode="a" horiz-adv-x="1130" d="M41 272q0 106 51 190.5t147.5 130.5t223.5 46h307l4 20q4 25 4 37q0 68 -49 109t-127 41t-127 -35t-63 -84h-252q33 141 149.5 236.5t302.5 95.5q184 0 301 -94.5t117 -264.5q0 -47 -8 -88l-107 -612h-221l-4 102h-10q-43 -49 -117 -85.5t-166 -36.5q-108 0 -189 38.5 t-124 105t-43 148.5zM299 301q0 -53 45 -84t125 -31q109 0 177.5 60.5t84.5 163.5l8 45h-254q-92 0 -139 -43t-47 -111z" />
<glyph unicode="b" horiz-adv-x="1253" d="M49 0l252 1434h256l-88 -494h10q43 49 121 84t166 35q123 0 217 -57.5t147.5 -161t53.5 -232.5q0 -180 -78 -324.5t-206 -224t-267 -79.5q-198 0 -307 147h-11l-43 -127h-223zM387 463q0 -113 65.5 -180.5t172.5 -67.5q77 0 147 45t113 127t43 186q0 115 -64.5 181.5 t-171.5 66.5q-78 0 -148.5 -45t-113.5 -127t-43 -186z" />
<glyph unicode="c" horiz-adv-x="1175" d="M72 444q0 172 80.5 312.5t216 221.5t290.5 81q195 0 319 -106.5t144 -295.5h-258q-14 76 -71.5 120t-147.5 44q-82 0 -154.5 -46t-117.5 -127t-45 -181q0 -113 68.5 -182.5t172.5 -69.5q90 0 154.5 46t101.5 126h262q-61 -180 -201.5 -293.5t-330.5 -113.5 q-141 0 -251.5 60t-171 165.5t-60.5 238.5z" />
<glyph unicode="d" horiz-adv-x="1253" d="M70 432q0 182 77.5 325.5t204.5 222.5t271 79q109 0 182.5 -41t112.5 -96h10l90 512h256l-252 -1434h-221l-2 117h-11q-41 -57 -120.5 -97t-173.5 -40q-123 0 -219.5 58t-150.5 160.5t-54 233.5zM326 463q0 -113 64.5 -180.5t170.5 -67.5q78 0 148.5 45t113.5 127t43 186 q0 115 -64.5 181.5t-170.5 66.5q-78 0 -148.5 -45t-113.5 -127t-43 -186z" />
<glyph unicode="e" horiz-adv-x="1198" d="M72 444q0 172 80.5 312.5t216 221.5t290.5 81q137 0 244 -58.5t165 -164t58 -244.5q0 -57 -7 -103.5t-9 -54.5h-788q4 -106 72.5 -173.5t174.5 -67.5q76 0 133.5 30.5t90.5 79.5h262q-72 -143 -201 -233t-297 -90q-143 0 -253.5 60t-171 165.5t-60.5 238.5zM344 606h533 q-4 106 -64.5 173t-165.5 67q-104 0 -185 -64.5t-118 -175.5z" />
<glyph unicode="f" horiz-adv-x="751" d="M100 795l43 243h170l31 183q18 104 90 168.5t182 64.5h248l-39 -223h-155q-68 0 -80 -66l-21 -127h224l-43 -243h-224l-141 -795h-256l141 795h-170z" />
<glyph unicode="g" horiz-adv-x="1230" d="M4 -49h262q4 -63 65.5 -109.5t168.5 -46.5q98 0 167.5 58.5t88.5 158.5l26 154h-10q-37 -45 -110.5 -76t-161.5 -31q-119 0 -215.5 52.5t-151.5 149.5t-55 224q0 160 73.5 292t196.5 207t264 75q109 0 187 -40t119 -104h10l43 123h221l-184 -1040q-35 -199 -170.5 -313.5 t-350.5 -114.5q-149 0 -257.5 50t-167 137t-58.5 194zM334 518q0 -98 67.5 -163.5t167.5 -65.5q74 0 140.5 40t106.5 110.5t40 160.5q0 96 -67.5 162.5t-167.5 66.5q-74 0 -140.5 -40.5t-106.5 -111.5t-40 -159z" />
<glyph unicode="h" horiz-adv-x="1222" d="M49 0l252 1434h256l-84 -480h10q39 41 112 73t159 32q166 0 266 -98.5t100 -268.5q0 -45 -10 -106l-102 -586h-256l100 571q4 33 4 50q0 88 -56.5 142t-137.5 54q-96 0 -166 -63.5t-86 -155.5l-105 -598h-256z" />
<glyph unicode="i" horiz-adv-x="516" d="M39 0l182 1038h256l-182 -1038h-256zM250 1317q0 66 46 111t112 45q61 0 102 -36t41 -96q0 -66 -45 -110.5t-111 -44.5q-59 0 -102 37t-43 94z" />
<glyph unicode="j" horiz-adv-x="516" d="M-260 -410l41 236h168q31 0 47 15.5t22 49.5l203 1147h256l-215 -1220q-18 -104 -90 -166t-188 -62h-244zM246 1317q0 66 46 111t112 45q61 0 102 -36t41 -96q0 -66 -45 -110.5t-111 -44.5q-59 0 -102 37t-43 94z" />
<glyph unicode="k" horiz-adv-x="1089" d="M49 0l252 1434h256l-151 -863l462 467h310l-525 -520l348 -518h-288l-322 487l-86 -487h-256z" />
<glyph unicode="l" horiz-adv-x="536" d="M49 0l252 1434h256l-252 -1434h-256z" />
<glyph unicode="m" horiz-adv-x="1763" d="M39 0l182 1038h221l4 -100h11q51 53 119.5 87t148.5 34q92 0 160.5 -43t101.5 -101h10q49 57 134.5 100.5t189.5 43.5q156 0 250 -100.5t94 -256.5q0 -49 -8 -90l-109 -612h-256l107 600q4 18 4 53q0 76 -41 120t-117 44q-80 0 -139 -55t-74 -135l-110 -627h-256l106 600 q4 18 4 53q0 76 -41 120t-114 44q-82 0 -141.5 -55t-73.5 -135l-111 -627h-256z" />
<glyph unicode="n" horiz-adv-x="1212" d="M39 0l182 1038h221l4 -100h11q45 51 119.5 86t166.5 35q166 0 267.5 -99.5t101.5 -267.5q0 -43 -10 -104l-105 -588h-256l103 573q4 33 4 48q0 88 -57.5 142t-139.5 54q-94 0 -163.5 -63.5t-86.5 -155.5l-106 -598h-256z" />
<glyph unicode="o" horiz-adv-x="1214" d="M72 444q0 172 80.5 312.5t216 221.5t290.5 81q143 0 253 -60.5t170.5 -166t60.5 -240.5q0 -170 -81 -310.5t-216 -221t-291 -80.5q-141 0 -251.5 60t-171 165.5t-60.5 238.5zM328 467q0 -111 68.5 -181.5t172.5 -70.5q80 0 154 46t120 127t46 181q0 113 -68.5 182.5 t-175.5 69.5q-82 0 -154.5 -46t-117.5 -127t-45 -181z" />
<glyph unicode="p" horiz-adv-x="1245" d="M-33 -410l256 1448h221l2 -116h11q47 61 127 99t174 38q123 0 217 -57.5t147.5 -161t53.5 -232.5q0 -180 -78 -324.5t-206 -224t-267 -79.5q-113 0 -186.5 41.5t-110.5 97.5h-11l-96 -529h-254zM379 463q0 -113 65.5 -180.5t169.5 -67.5q78 0 149 45t114 127t43 186 q0 115 -64.5 181.5t-171.5 66.5q-78 0 -148.5 -45t-113.5 -127t-43 -186z" />
<glyph unicode="q" horiz-adv-x="1243" d="M70 432q0 182 77.5 325.5t204.5 222.5t271 79q113 0 187.5 -42t117.5 -108h10l45 129h223l-256 -1448h-256l88 510h-10q-37 -51 -112.5 -85.5t-165.5 -34.5q-123 0 -219.5 58t-150.5 161.5t-54 232.5zM326 463q0 -113 64.5 -180.5t170.5 -67.5q78 0 148.5 45t113.5 127 t43 186q0 115 -64.5 181.5t-170.5 66.5q-78 0 -148.5 -45t-113.5 -127t-43 -186z" />
<glyph unicode="r" horiz-adv-x="794" d="M39 0l182 1038h221l4 -86h11q66 86 184 86h209l-43 -243h-193q-180 0 -213 -195l-106 -600h-256z" />
<glyph unicode="s" horiz-adv-x="1019" d="M18 315h250q0 -63 56.5 -98t154.5 -35q92 0 138.5 35t46.5 86q0 80 -132 105l-129 22q-299 55 -299 281q0 94 51.5 174t149.5 127t236 47q137 0 237.5 -44t152.5 -120q50 -73 50 -161v-7h-250q2 55 -53 91t-146 36q-82 0 -127 -36t-45 -83q0 -39 32 -61.5t100 -34.5 l129 -23q150 -27 223.5 -101.5t73.5 -186.5q0 -96 -50.5 -175t-151 -126t-243.5 -47q-137 0 -240.5 41.5t-159 117.5t-55.5 176z" />
<glyph unicode="t" horiz-adv-x="796" d="M100 795l43 243h164l55 312h256l-55 -312h236l-43 -243h-236l-88 -492l-2 -16q0 -55 66 -56h159l-39 -231h-219q-109 0 -171 56.5t-62 152.5q0 27 6 57l94 529h-164z" />
<glyph unicode="u" horiz-adv-x="1220" d="M106 348q0 45 11 103l106 587h256l-102 -573q-4 -33 -4 -47q0 -88 57 -142.5t139 -54.5q94 0 164 62.5t86 154.5l107 600h256l-183 -1038h-221l-4 98h-10q-41 -47 -118 -82.5t-169 -35.5q-166 0 -268.5 100t-102.5 268z" />
<glyph unicode="v" horiz-adv-x="1079" d="M88 1038h256l115 -735h41l372 735h283l-541 -1038h-354z" />
<glyph unicode="w" horiz-adv-x="1640" d="M98 1038h260l52 -680h41l294 680h289l58 -680h41l292 680h279l-453 -1038h-344l-53 666h-41l-289 -666h-338z" />
<glyph unicode="x" horiz-adv-x="1058" d="M-92 0l444 532l-239 506h276l148 -327h41l264 327h299l-426 -514l252 -524h-275l-162 346h-41l-282 -346h-299z" />
<glyph unicode="y" horiz-adv-x="1089" d="M-51 -410l43 236h203q43 0 73 49l37 74l-223 1089h260l139 -714h41l367 714h280l-675 -1269q-51 -92 -111.5 -135.5t-155.5 -43.5h-278z" />
<glyph unicode="z" horiz-adv-x="966" d="M-35 0l39 225l604 582h-489l43 231h831l-41 -223l-604 -584h510l-39 -231h-854z" />
<glyph unicode="{" horiz-adv-x="749" d="M74 410l47 266q76 0 113.5 29.5t50.5 93.5l73 415q25 133 111 207t213 74h174l-41 -233h-100q-92 0 -111 -95l-74 -422q-16 -90 -78.5 -136t-140.5 -52l-8 -41q70 -12 112 -56t42 -116q0 -12 -4 -45l-64 -362q-4 -25 -4 -33q0 -80 90 -80h86l-41 -234h-131 q-127 0 -196.5 68t-69.5 186q0 35 6 76l61 350q2 10 3 33q0 49 -31 77t-88 30z" />
<glyph unicode="|" horiz-adv-x="747" d="M276 -410v1905h256v-1905h-256z" />
<glyph unicode="}" horiz-adv-x="749" d="M-98 -410l41 234h100q92 0 109 94l73 422q16 90 80 136t141 52l9 41q-70 12 -112 56.5t-42 115.5q0 12 4 45l64 363q4 25 4 33q0 80 -90 80h-86l41 233h131q125 0 194.5 -67.5t69.5 -186.5q0 -35 -6 -76l-62 -350q-2 -10 -2 -31q0 -51 32 -78.5t89 -29.5l-47 -266 q-76 0 -114 -30t-50 -93l-74 -416q-25 -133 -110.5 -207t-212.5 -74h-174z" />
<glyph unicode="~" horiz-adv-x="1206" d="M86 367q0 201 89 305t241 104q74 0 125 -27.5t106 -76.5q41 -35 67.5 -51.5t57.5 -16.5q119 0 119 156h246q0 -201 -88 -304.5t-240 -103.5q-74 0 -124 27t-107 76q-43 35 -70 50t-57 15q-57 0 -87 -37t-30 -116h-248z" />
<glyph unicode="&#xa1;" horiz-adv-x="620" d="M16 -387l101 565l116 447h195l-41 -447l-98 -565h-273zM225 889q0 70 49.5 119t116.5 49q62 0 101.5 -39t39.5 -100q0 -68 -49 -118t-116 -50q-61 0 -101.5 38.5t-40.5 100.5z" />
<glyph unicode="&#xa2;" horiz-adv-x="1175" d="M72 446q0 162 71.5 294t187 213t249.5 100l34 211h244l-41 -228q129 -35 210 -135t95 -244h-258q-14 76 -71.5 120t-147.5 44q-82 0 -154.5 -46t-117.5 -127t-45 -181q0 -113 68.5 -182.5t172.5 -69.5q90 0 154.5 46t101.5 126h262q-55 -166 -177 -273.5t-277 -127.5 l-37 -211h-242l39 227q-145 43 -233 162t-88 282z" />
<glyph unicode="&#xa3;" horiz-adv-x="1255" d="M-23 0l43 256h68q47 0 78 25.5t39 76.5l41 230h-166l37 211h168l47 258q31 178 162 287.5t323 109.5q143 0 248.5 -54t157 -153.5t41.5 -230.5h-267q6 84 -47 133t-145 49q-82 0 -139.5 -47t-71.5 -129l-39 -223h383l-37 -211h-385l-41 -230q-8 -37 -30.5 -64.5 t-47.5 -37.5h762l-43 -256h-1139z" />
<glyph unicode="&#xa4;" horiz-adv-x="1165" d="M180 395l111 127q-20 27 -35.5 79t-15.5 116q0 63 15 115.5t36 78.5l-111 127l123 111l109 -115q37 23 90 42.5t114 19.5q63 0 117.5 -19.5t87.5 -42.5l111 115l123 -111l-111 -127q18 -29 34.5 -81t16.5 -113t-16 -113.5t-35 -81.5l111 -127l-123 -110l-111 114 q-33 -23 -87 -42t-118 -19q-61 0 -114 19.5t-90 41.5l-109 -114zM403 717q0 -90 63.5 -154.5t149.5 -64.5q89 0 151 64.5t62 154.5t-62 154.5t-151 64.5q-86 0 -149.5 -64.5t-63.5 -154.5z" />
<glyph unicode="&#xa5;" horiz-adv-x="1275" d="M115 248l32 194h340l25 142h-338l35 196h188l-239 654h286l215 -613h41l430 613h308l-471 -654h190l-35 -196h-338l-26 -142h340l-35 -194h-340l-41 -248h-270l41 248h-338z" />
<glyph unicode="&#xa6;" horiz-adv-x="747" d="M276 367h256v-777h-256v777zM276 719v776h256v-776h-256z" />
<glyph unicode="&#xa7;" horiz-adv-x="1316" d="M59 86h273q-8 -98 58.5 -151.5t189.5 -53.5q117 0 174 47t57 123q0 51 -45 90t-129 60l-156 35q-172 37 -260 119.5t-88 199.5q0 115 55.5 201t122.5 125q-20 25 -37.5 72.5t-17.5 105.5q0 109 57.5 199t171 143t275.5 53q150 0 266.5 -51t179 -147.5t56.5 -227.5h-273 q4 90 -61.5 143.5t-171.5 53.5q-111 0 -169.5 -46t-58.5 -118q0 -96 168 -131l156 -33q170 -35 259 -120t89 -202q0 -111 -54 -198.5t-124 -130.5q25 -25 44 -76t19 -115q0 -106 -55 -198.5t-172 -148.5t-293 -56q-155 0 -273 51t-179.5 149.5t-53.5 233.5zM406 592 q0 -49 36.5 -86t110.5 -51l156 -35q96 -23 131 -37q34 16 61 57t27 97q0 51 -36 86.5t-110 52.5l-157 35q-127 27 -127 32q-37 -18 -64.5 -57t-27.5 -94z" />
<glyph unicode="&#xa9;" horiz-adv-x="1705" d="M145 717q0 207 97.5 376t267.5 265t379 96t379 -96t267 -265t97 -376t-97 -376t-267 -265t-379 -96t-379 96t-267.5 265t-97.5 376zM336 717q0 -158 72.5 -285t198.5 -199.5t282 -72.5q155 0 281 72.5t199 199.5t73 285t-73 284.5t-199 199.5t-281 73q-156 0 -282 -73 t-198.5 -200t-72.5 -284zM524 717q0 109 49.5 195.5t135.5 137t190 50.5q139 0 232.5 -83t119.5 -194h-182q-14 49 -58 81t-112 32q-86 0 -140 -59.5t-54 -159.5t54 -159.5t140 -59.5q68 0 112 34.5t58 88.5h182q-27 -117 -120 -202t-232 -85q-106 0 -191 50t-134.5 137 t-49.5 196z" />
<glyph unicode="&#xaa;" horiz-adv-x="737" d="M133 963q0 94 70.5 157.5t187.5 63.5h199l2 20q2 8 2 23q0 39 -27.5 63.5t-77.5 24.5q-39 0 -65.5 -20.5t-38.5 -49.5h-176q27 96 100.5 152.5t194.5 56.5q119 0 188.5 -58.5t69.5 -160.5q0 -25 -6 -55l-70 -398h-137l-8 68h-11q-23 -31 -70.5 -54.5t-109.5 -23.5 q-96 0 -156.5 54.5t-60.5 136.5zM313 979q0 -29 24.5 -48.5t70.5 -19.5q63 0 104 38t53 102l2 18h-155q-47 0 -73 -24.5t-26 -65.5z" />
<glyph unicode="&#xab;" horiz-adv-x="1177" d="M70 522l370 416h275l-383 -432l213 -400h-252zM535 522l370 416h275l-383 -432l213 -400h-252z" />
<glyph unicode="&#xac;" horiz-adv-x="1116" d="M158 559v234h835v-494h-252v260h-583z" />
<glyph unicode="&#xad;" horiz-adv-x="874" d="M84 465l41 237h690l-41 -237h-690z" />
<glyph unicode="&#xae;" horiz-adv-x="1705" d="M145 717q0 207 97.5 376t267.5 265t379 96t379 -96t267 -265t97 -376t-97 -376t-267 -265t-379 -96t-379 96t-267.5 265t-97.5 376zM336 717q0 -158 72.5 -285t198.5 -199.5t282 -72.5q155 0 281 72.5t199 199.5t73 285t-73 284.5t-199 199.5t-281 73q-156 0 -282 -73 t-198.5 -200t-72.5 -284zM618 352v740h332q113 0 184.5 -70t71.5 -178q0 -105 -60.5 -169.5t-141.5 -72.5l223 -250h-199l-207 242h-35v-242h-168zM786 731h150q45 0 73.5 27.5t28.5 77.5q0 51 -28.5 78.5t-73.5 27.5h-150v-211z" />
<glyph unicode="&#xaf;" horiz-adv-x="761" d="M193 1260l32 188h639l-33 -188h-638z" />
<glyph unicode="&#xb0;" horiz-adv-x="798" d="M201 1167q0 78 37.5 144.5t104.5 104.5t144 38q78 0 144.5 -38t104.5 -104.5t38 -144.5t-38 -144.5t-104.5 -104t-144.5 -37.5q-77 0 -144 37.5t-104.5 104.5t-37.5 144zM365 1167q0 -51 35.5 -87t86.5 -36q52 0 87.5 36t35.5 87t-35.5 87t-87.5 36q-51 0 -86.5 -35.5 t-35.5 -87.5z" />
<glyph unicode="&#xb1;" horiz-adv-x="1118" d="M121 705v233h344v352h237v-352h342v-233h-342v-353h-237v353h-344zM125 0v231h917v-231h-917z" />
<glyph unicode="&#xb2;" horiz-adv-x="688" d="M162 901l24 133l330 277q45 37 62.5 61.5t17.5 59.5q0 33 -22.5 53t-63.5 20q-45 0 -73.5 -26.5t-37.5 -75.5h-159q16 109 89.5 177.5t186.5 68.5q111 0 175.5 -56.5t64.5 -148.5q0 -74 -35 -124t-113 -116l-180 -149l-2 -11h274l-26 -143h-512z" />
<glyph unicode="&#xb3;" horiz-adv-x="690" d="M180 1124h162q-2 -43 26.5 -66.5t71.5 -23.5q47 0 77 28t30 75q0 35 -26.5 55t-76.5 20h-53l25 136h71q47 0 76 24.5t29 65.5q0 31 -23.5 49t-66.5 18q-37 0 -61.5 -20.5t-32.5 -57.5h-160q14 96 87 159t177 63q113 0 177.5 -54.5t64.5 -140.5q0 -68 -36 -112t-83 -60 l-2 -10q29 -10 51.5 -48t22.5 -89q0 -66 -35 -122.5t-98.5 -89t-143.5 -32.5q-119 0 -188.5 63.5t-61.5 169.5z" />
<glyph unicode="&#xb4;" horiz-adv-x="587" d="M184 1212l248 295h268l-294 -295h-222z" />
<glyph unicode="&#xb5;" horiz-adv-x="1220" d="M-33 -410l254 1448h256l-100 -573q-4 -29 -4 -43q0 -86 55 -143.5t141 -57.5q94 0 164 62.5t86 154.5l107 600h256l-183 -1038h-219l-4 98h-10q-37 -45 -114 -81.5t-158 -36.5q-66 0 -114 21.5t-77 49.5l-82 -461h-254z" />
<glyph unicode="&#xb6;" horiz-adv-x="1212" d="M123 1051q0 111 47 197.5t129 136t184 49.5h615v-1639h-228v1419h-157v-1419h-230v875q-102 0 -184 48t-129 135t-47 198z" />
<glyph unicode="&#xb7;" horiz-adv-x="526" d="M115 524q0 68 49 118t117 50q61 0 101 -39t40 -100q0 -68 -49 -118t-117 -50q-61 0 -101 39t-40 100z" />
<glyph unicode="&#xb8;" horiz-adv-x="481" d="M-107 -459l23 152h104q39 0 61.5 20.5t22.5 53.5q0 25 -20.5 40t-59.5 15h-53l14 82l93 143l149 -47l-63 -96q47 -14 81.5 -54t34.5 -102q0 -90 -66.5 -148.5t-170.5 -58.5h-150z" />
<glyph unicode="&#xb9;" horiz-adv-x="548" d="M223 1397l29 149h113q55 0 65 53l8 39h160l-131 -737h-160l86 496h-170z" />
<glyph unicode="&#xba;" horiz-adv-x="796" d="M164 1061q0 113 50 203t133 140t177 50q133 0 215 -80t82 -209q0 -113 -50 -203t-133 -140t-177 -50q-135 0 -216 80t-81 209zM342 1083q0 -66 36 -105.5t91 -39.5q41 0 82 26.5t66.5 72.5t25.5 106q0 63 -37 103t-90 40q-68 0 -121 -57.5t-53 -145.5z" />
<glyph unicode="&#xbb;" horiz-adv-x="1179" d="M-2 106l385 435l-209 397h248l223 -416l-371 -416h-276zM463 106l385 435l-209 397h248l223 -416l-371 -416h-276z" />
<glyph unicode="&#xbc;" horiz-adv-x="1429" d="M27 0l1143 1434h190l-1143 -1434h-190zM186 1192l29 149h113q55 0 65 53l8 39h160l-131 -737h-160l86 496h-170zM719 143l24 138l350 456h234l-80 -452h86l-25 -142h-86l-26 -143h-160l27 143h-344zM934 285h153l41 246h-18l-174 -236z" />
<glyph unicode="&#xbd;" horiz-adv-x="1456" d="M27 0l1143 1434h190l-1143 -1434h-190zM186 1192l29 149h113q55 0 65 53l8 39h160l-131 -737h-160l86 496h-170zM770 0l24 133l330 277q45 37 62.5 61.5t17.5 59.5q0 33 -22.5 53t-63.5 20q-45 0 -73.5 -26.5t-37.5 -75.5h-159q16 109 89.5 177.5t186.5 68.5 q111 0 175.5 -56.5t64.5 -148.5q0 -74 -35 -124t-113 -116l-180 -149l-2 -11h274l-26 -143h-512z" />
<glyph unicode="&#xbe;" horiz-adv-x="1570" d="M143 919h162q-2 -43 26.5 -66.5t71.5 -23.5q47 0 77 28t30 75q0 35 -26.5 55t-76.5 20h-53l25 136h71q47 0 76 24.5t29 65.5q0 31 -23.5 49t-66.5 18q-37 0 -61.5 -20.5t-32.5 -57.5h-160q14 96 87 159t177 63q113 0 177.5 -54.5t64.5 -140.5q0 -68 -36 -112t-83 -60 l-2 -10q29 -10 51.5 -48t22.5 -89q0 -66 -35 -122.5t-98.5 -89t-143.5 -32.5q-119 0 -188.5 63.5t-61.5 169.5zM168 0l1143 1434h190l-1143 -1434h-190zM860 143l24 138l350 456h234l-80 -452h86l-25 -142h-86l-26 -143h-160l27 143h-344zM1075 285h153l41 246h-18 l-174 -236z" />
<glyph unicode="&#xbf;" horiz-adv-x="1077" d="M-20 -35q0 145 82.5 243.5t213.5 149.5q84 33 120 75t48 110l15 82h260l-17 -99q-20 -131 -80.5 -199.5t-183.5 -117.5q-176 -72 -176 -205q0 -70 53.5 -117t143.5 -47q86 0 141 50.5t70 129.5h276q-31 -193 -165 -310.5t-347 -117.5q-135 0 -238.5 50.5t-159.5 135.5 t-56 187zM483 889q0 70 49.5 119t116.5 49q62 0 102 -39t40 -100q0 -68 -49.5 -118t-116.5 -50q-61 0 -101.5 38.5t-40.5 100.5z" />
<glyph unicode="&#xc0;" horiz-adv-x="1398" d="M-88 0l760 1434h395l258 -1434h-289l-51 313h-606l-162 -313h-305zM504 557h440l-96 586h-41zM594 1874h263l145 -297h-215z" />
<glyph unicode="&#xc1;" horiz-adv-x="1398" d="M-88 0l760 1434h395l258 -1434h-289l-51 313h-606l-162 -313h-305zM504 557h440l-96 586h-41zM770 1577l250 297h268l-297 -297h-221z" />
<glyph unicode="&#xc2;" horiz-adv-x="1398" d="M-88 0l760 1434h395l258 -1434h-289l-51 313h-606l-162 -313h-305zM504 557h440l-96 586h-41zM534 1577l297 293h229l195 -293h-227l-97 152l-149 -152h-248z" />
<glyph unicode="&#xc3;" horiz-adv-x="1398" d="M-88 0l760 1434h395l258 -1434h-289l-51 313h-606l-162 -313h-305zM504 557h440l-96 586h-41zM557 1597q20 121 90 186.5t168 65.5q37 0 63.5 -11t65.5 -34q51 -35 84 -35q31 0 54.5 21.5t31.5 58.5h172q-20 -119 -91 -185.5t-169 -66.5q-39 0 -65.5 12.5t-63.5 35.5 q-51 35 -84 34q-29 0 -53.5 -21.5t-32.5 -60.5h-170z" />
<glyph unicode="&#xc4;" horiz-adv-x="1398" d="M-88 0l760 1434h395l258 -1434h-289l-51 313h-606l-162 -313h-305zM504 557h440l-96 586h-41zM590 1710q0 70 44 115t109 45q61 0 97.5 -36t36.5 -91q0 -70 -44 -115t-110 -45q-61 0 -97 36t-36 91zM973 1710q0 70 44 115t109 45q61 0 97.5 -36t36.5 -91 q0 -70 -44.5 -115t-109.5 -45q-61 0 -97 36t-36 91z" />
<glyph unicode="&#xc5;" horiz-adv-x="1398" d="M-88 0l760 1434h395l258 -1434h-289l-51 313h-606l-162 -313h-305zM504 557h440l-96 586h-41zM697 1726q0 92 66.5 158t158.5 66q86 0 140.5 -53.5t54.5 -133.5q0 -94 -66.5 -159.5t-161.5 -65.5q-84 0 -138 54.5t-54 133.5zM824 1735q0 -31 22.5 -51.5t55.5 -20.5 q34 0 60 25.5t26 64.5q0 31 -22.5 50.5t-53.5 19.5q-35 0 -61.5 -24.5t-26.5 -63.5z" />
<glyph unicode="&#xc6;" horiz-adv-x="1953" d="M-123 0l879 1434h1253l-45 -250h-690l-62 -344h650l-41 -242h-650l-63 -348h692l-45 -250h-962l55 317h-479l-193 -317h-299zM514 559h377l110 625h-110z" />
<glyph unicode="&#xc7;" horiz-adv-x="1513" d="M117 614q0 240 110.5 432.5t289.5 300t378 107.5q184 0 314 -75.5t201 -196.5t83 -256h-276q-23 111 -114 188.5t-233 77.5q-121 0 -231.5 -69.5t-180 -196.5t-69.5 -289q0 -119 48 -208t134 -138t197 -49q141 0 245.5 82t147.5 194h287q-49 -135 -142.5 -255 t-229.5 -197.5t-300 -85.5l-51 -76q47 -14 82 -54t35 -102q0 -90 -66.5 -148.5t-171.5 -58.5h-149l22 152h105q39 0 61.5 20.5t22.5 53.5q0 25 -20.5 40t-59.5 15h-54l15 82l57 88q-147 29 -256.5 116t-170 217t-60.5 289z" />
<glyph unicode="&#xc8;" horiz-adv-x="1220" d="M59 0l252 1434h963l-43 -250h-690l-62 -344h649l-43 -242h-647l-61 -348h688l-43 -250h-963zM505 1874h263l145 -297h-215z" />
<glyph unicode="&#xc9;" horiz-adv-x="1220" d="M59 0l252 1434h963l-43 -250h-690l-62 -344h649l-43 -242h-647l-61 -348h688l-43 -250h-963zM684 1577l250 297h268l-297 -297h-221z" />
<glyph unicode="&#xca;" horiz-adv-x="1220" d="M59 0l252 1434h963l-43 -250h-690l-62 -344h649l-43 -242h-647l-61 -348h688l-43 -250h-963zM446 1577l297 293h229l195 -293h-227l-97 152l-149 -152h-248z" />
<glyph unicode="&#xcb;" horiz-adv-x="1220" d="M59 0l252 1434h963l-43 -250h-690l-62 -344h649l-43 -242h-647l-61 -348h688l-43 -250h-963zM502 1710q0 70 44 115t109 45q61 0 97.5 -36t36.5 -91q0 -70 -44 -115t-110 -45q-61 0 -97 36t-36 91zM885 1710q0 70 44 115t109 45q61 0 97.5 -36t36.5 -91q0 -70 -44.5 -115 t-109.5 -45q-61 0 -97 36t-36 91z" />
<glyph unicode="&#xcc;" horiz-adv-x="575" d="M59 0l252 1434h275l-254 -1434h-273zM174 1874h263l145 -297h-215z" />
<glyph unicode="&#xcd;" horiz-adv-x="575" d="M59 0l252 1434h275l-254 -1434h-273zM350 1577l250 297h268l-297 -297h-221z" />
<glyph unicode="&#xce;" horiz-adv-x="575" d="M59 0l252 1434h275l-254 -1434h-273zM115 1577l297 293h229l195 -293h-227l-97 152l-149 -152h-248z" />
<glyph unicode="&#xcf;" horiz-adv-x="575" d="M59 0l252 1434h275l-254 -1434h-273zM168 1710q0 70 44 115t109 45q61 0 97.5 -36t36.5 -91q0 -70 -44 -115t-110 -45q-61 0 -97 36t-36 91zM551 1710q0 70 44 115t109 45q61 0 97.5 -36t36.5 -91q0 -70 -44.5 -115t-109.5 -45q-61 0 -97 36t-36 91z" />
<glyph unicode="&#xd0;" horiz-adv-x="1511" d="M53 608l39 221h174l107 605h497q162 0 298.5 -79t216 -221.5t79.5 -320.5q0 -227 -107.5 -413.5t-285.5 -293t-383 -106.5h-567l106 608h-174zM442 262h271q129 0 239.5 66.5t175 185.5t64.5 272q0 111 -48 199t-130 137t-178 49h-236l-59 -342h309l-41 -221h-307z" />
<glyph unicode="&#xd1;" horiz-adv-x="1488" d="M59 0l252 1434h359l336 -1000h43l176 1000h274l-252 -1434h-358l-338 999h-43l-176 -999h-273zM592 1597q20 121 90 186.5t168 65.5q37 0 63.5 -11t65.5 -34q51 -35 84 -35q31 0 54.5 21.5t31.5 58.5h172q-20 -119 -91 -185.5t-169 -66.5q-39 0 -65.5 12.5t-63.5 35.5 q-51 35 -84 34q-29 0 -53.5 -21.5t-32.5 -60.5h-170z" />
<glyph unicode="&#xd2;" horiz-adv-x="1562" d="M117 610q0 242 110.5 434.5t290.5 301t379 108.5q178 0 319.5 -81t221.5 -225t80 -325q0 -242 -111 -434t-291 -300.5t-379 -108.5q-180 0 -321.5 80.5t-220 224t-78.5 325.5zM389 639q0 -119 48 -209t133 -139t194 -49q121 0 231.5 69.5t180 195.5t69.5 288 q0 117 -48 208t-134 140t-193 49q-121 0 -232.5 -69.5t-180 -195.5t-68.5 -288zM655 1874h263l145 -297h-215z" />
<glyph unicode="&#xd3;" horiz-adv-x="1562" d="M117 610q0 242 110.5 434.5t290.5 301t379 108.5q178 0 319.5 -81t221.5 -225t80 -325q0 -242 -111 -434t-291 -300.5t-379 -108.5q-180 0 -321.5 80.5t-220 224t-78.5 325.5zM389 639q0 -119 48 -209t133 -139t194 -49q121 0 231.5 69.5t180 195.5t69.5 288 q0 117 -48 208t-134 140t-193 49q-121 0 -232.5 -69.5t-180 -195.5t-68.5 -288zM831 1577l250 297h268l-297 -297h-221z" />
<glyph unicode="&#xd4;" horiz-adv-x="1562" d="M117 610q0 242 110.5 434.5t290.5 301t379 108.5q178 0 319.5 -81t221.5 -225t80 -325q0 -242 -111 -434t-291 -300.5t-379 -108.5q-180 0 -321.5 80.5t-220 224t-78.5 325.5zM389 639q0 -119 48 -209t133 -139t194 -49q121 0 231.5 69.5t180 195.5t69.5 288 q0 117 -48 208t-134 140t-193 49q-121 0 -232.5 -69.5t-180 -195.5t-68.5 -288zM596 1577l297 293h229l195 -293h-227l-97 152l-149 -152h-248z" />
<glyph unicode="&#xd5;" horiz-adv-x="1562" d="M117 610q0 242 110.5 434.5t290.5 301t379 108.5q178 0 319.5 -81t221.5 -225t80 -325q0 -242 -111 -434t-291 -300.5t-379 -108.5q-180 0 -321.5 80.5t-220 224t-78.5 325.5zM389 639q0 -119 48 -209t133 -139t194 -49q121 0 231.5 69.5t180 195.5t69.5 288 q0 117 -48 208t-134 140t-193 49q-121 0 -232.5 -69.5t-180 -195.5t-68.5 -288zM619 1597q20 121 90 186.5t168 65.5q37 0 63.5 -11t65.5 -34q51 -35 84 -35q31 0 54.5 21.5t31.5 58.5h172q-20 -119 -91 -185.5t-169 -66.5q-39 0 -65.5 12.5t-63.5 35.5q-51 35 -84 34 q-29 0 -53.5 -21.5t-32.5 -60.5h-170z" />
<glyph unicode="&#xd6;" horiz-adv-x="1562" d="M117 610q0 242 110.5 434.5t290.5 301t379 108.5q178 0 319.5 -81t221.5 -225t80 -325q0 -242 -111 -434t-291 -300.5t-379 -108.5q-180 0 -321.5 80.5t-220 224t-78.5 325.5zM389 639q0 -119 48 -209t133 -139t194 -49q121 0 231.5 69.5t180 195.5t69.5 288 q0 117 -48 208t-134 140t-193 49q-121 0 -232.5 -69.5t-180 -195.5t-68.5 -288zM651 1710q0 70 44 115t109 45q61 0 97.5 -36t36.5 -91q0 -70 -44 -115t-110 -45q-61 0 -97 36t-36 91zM1034 1710q0 70 44 115t109 45q61 0 97.5 -36t36.5 -91q0 -70 -44.5 -115t-109.5 -45 q-61 0 -97 36t-36 91z" />
<glyph unicode="&#xd7;" horiz-adv-x="1116" d="M137 338l264 264l-264 262l172 172l264 -262l263 262l172 -172l-263 -262l263 -264l-172 -172l-263 264l-264 -264z" />
<glyph unicode="&#xd8;" horiz-adv-x="1562" d="M117 610q0 242 110.5 434.5t290.5 301t379 108.5q150 0 274 -57l78 108h252l-160 -227q84 -84 130.5 -200.5t46.5 -254.5q0 -242 -111 -434t-291 -300.5t-379 -108.5q-150 0 -276 57l-78 -109h-250l160 226q-84 86 -130 202.5t-46 253.5zM389 639q0 -144 72 -248l549 776 q-63 25 -140 25q-121 0 -232.5 -69.5t-180 -195.5t-68.5 -288zM623 266q66 -25 141 -24q121 0 231.5 69.5t180 195.5t69.5 288q0 143 -71 247z" />
<glyph unicode="&#xd9;" horiz-adv-x="1447" d="M139 496q0 68 13 137l143 801h272l-147 -826q-6 -39 -6 -76q0 -133 80.5 -211.5t205.5 -78.5t222.5 87t124.5 230l155 875h275l-160 -902q-31 -168 -121 -293.5t-224 -192t-290 -66.5q-162 0 -285 62t-190.5 179t-67.5 275zM604 1874h263l145 -297h-215z" />
<glyph unicode="&#xda;" horiz-adv-x="1447" d="M139 496q0 68 13 137l143 801h272l-147 -826q-6 -39 -6 -76q0 -133 80.5 -211.5t205.5 -78.5t222.5 87t124.5 230l155 875h275l-160 -902q-31 -168 -121 -293.5t-224 -192t-290 -66.5q-162 0 -285 62t-190.5 179t-67.5 275zM780 1577l250 297h268l-297 -297h-221z" />
<glyph unicode="&#xdb;" horiz-adv-x="1447" d="M139 496q0 68 13 137l143 801h272l-147 -826q-6 -39 -6 -76q0 -133 80.5 -211.5t205.5 -78.5t222.5 87t124.5 230l155 875h275l-160 -902q-31 -168 -121 -293.5t-224 -192t-290 -66.5q-162 0 -285 62t-190.5 179t-67.5 275zM545 1577l297 293h229l195 -293h-227l-97 152 l-149 -152h-248z" />
<glyph unicode="&#xdc;" horiz-adv-x="1447" d="M139 496q0 68 13 137l143 801h272l-147 -826q-6 -39 -6 -76q0 -133 80.5 -211.5t205.5 -78.5t222.5 87t124.5 230l155 875h275l-160 -902q-31 -168 -121 -293.5t-224 -192t-290 -66.5q-162 0 -285 62t-190.5 179t-67.5 275zM598 1710q0 70 44 115t109 45q61 0 97.5 -36 t36.5 -91q0 -70 -44 -115t-110 -45q-61 0 -97 36t-36 91zM981 1710q0 70 44 115t109 45q61 0 97.5 -36t36.5 -91q0 -70 -44.5 -115t-109.5 -45q-61 0 -97 36t-36 91z" />
<glyph unicode="&#xdd;" horiz-adv-x="1280" d="M131 1434h289l225 -619h41l444 619h318l-688 -947l-86 -487h-275l86 487zM668 1577l250 297h268l-297 -297h-221z" />
<glyph unicode="&#xde;" horiz-adv-x="1464" d="M59 0l252 1434h275l-47 -267h465q182 0 294.5 -105.5t112.5 -281.5q0 -150 -64.5 -266.5t-178 -182t-255.5 -65.5h-534l-47 -266h-273zM424 522h491q96 0 160 62.5t64 156.5q0 74 -47.5 122t-128.5 48h-471z" />
<glyph unicode="&#xdf;" horiz-adv-x="1193" d="M37 0l186 1061q31 184 163 291.5t339 107.5q137 0 240.5 -48t158 -132t54.5 -190q0 -145 -72 -239.5t-164 -125.5l-2 -10q66 -31 114 -103.5t48 -169.5q0 -129 -60.5 -229t-169 -156.5t-249.5 -56.5h-154l39 229h86q111 0 177.5 60.5t66.5 154.5q0 76 -56.5 126.5 t-146.5 50.5h-62l41 227h80q96 0 157.5 60.5t61.5 150.5q0 74 -54 120t-150 46q-88 0 -150.5 -52.5t-77.5 -130.5l-182 -1042h-262z" />
<glyph unicode="&#xe0;" horiz-adv-x="1130" d="M41 272q0 106 51 190.5t147.5 130.5t223.5 46h307l4 20q4 25 4 37q0 68 -49 109t-127 41t-127 -35t-63 -84h-252q33 141 149.5 236.5t302.5 95.5q184 0 301 -94.5t117 -264.5q0 -47 -8 -88l-107 -612h-221l-4 102h-10q-43 -49 -117 -85.5t-166 -36.5q-108 0 -189 38.5 t-124 105t-43 148.5zM299 301q0 -53 45 -84t125 -31q109 0 177.5 60.5t84.5 163.5l8 45h-254q-92 0 -139 -43t-47 -111zM373 1481h262l145 -295h-215z" />
<glyph unicode="&#xe1;" horiz-adv-x="1130" d="M41 272q0 106 51 190.5t147.5 130.5t223.5 46h307l4 20q4 25 4 37q0 68 -49 109t-127 41t-127 -35t-63 -84h-252q33 141 149.5 236.5t302.5 95.5q184 0 301 -94.5t117 -264.5q0 -47 -8 -88l-107 -612h-221l-4 102h-10q-43 -49 -117 -85.5t-166 -36.5q-108 0 -189 38.5 t-124 105t-43 148.5zM299 301q0 -53 45 -84t125 -31q109 0 177.5 60.5t84.5 163.5l8 45h-254q-92 0 -139 -43t-47 -111zM559 1186l250 295h269l-297 -295h-222z" />
<glyph unicode="&#xe2;" horiz-adv-x="1130" d="M41 272q0 106 51 190.5t147.5 130.5t223.5 46h307l4 20q4 25 4 37q0 68 -49 109t-127 41t-127 -35t-63 -84h-252q33 141 149.5 236.5t302.5 95.5q184 0 301 -94.5t117 -264.5q0 -47 -8 -88l-107 -612h-221l-4 102h-10q-43 -49 -117 -85.5t-166 -36.5q-108 0 -189 38.5 t-124 105t-43 148.5zM299 301q0 -53 45 -84t125 -31q109 0 177.5 60.5t84.5 163.5l8 45h-254q-92 0 -139 -43t-47 -111zM317 1186l297 293h230l194 -293h-227l-96 151l-150 -151h-248z" />
<glyph unicode="&#xe3;" horiz-adv-x="1130" d="M41 272q0 106 51 190.5t147.5 130.5t223.5 46h307l4 20q4 25 4 37q0 68 -49 109t-127 41t-127 -35t-63 -84h-252q33 141 149.5 236.5t302.5 95.5q184 0 301 -94.5t117 -264.5q0 -47 -8 -88l-107 -612h-221l-4 102h-10q-43 -49 -117 -85.5t-166 -36.5q-108 0 -189 38.5 t-124 105t-43 148.5zM299 301q0 -53 45 -84t125 -31q109 0 177.5 60.5t84.5 163.5l8 45h-254q-92 0 -139 -43t-47 -111zM338 1206q20 121 90 186.5t168 65.5q39 0 67 -12t64 -35q25 -18 43.5 -26.5t38.5 -8.5q31 0 54.5 21.5t31.5 60.5h172q-20 -119 -90.5 -185.5 t-169.5 -66.5q-39 0 -67.5 12.5t-61.5 34.5q-29 16 -45 24.5t-37 8.5q-31 0 -54 -20.5t-32 -59.5h-172z" />
<glyph unicode="&#xe4;" horiz-adv-x="1130" d="M41 272q0 106 51 190.5t147.5 130.5t223.5 46h307l4 20q4 25 4 37q0 68 -49 109t-127 41t-127 -35t-63 -84h-252q33 141 149.5 236.5t302.5 95.5q184 0 301 -94.5t117 -264.5q0 -47 -8 -88l-107 -612h-221l-4 102h-10q-43 -49 -117 -85.5t-166 -36.5q-108 0 -189 38.5 t-124 105t-43 148.5zM299 301q0 -53 45 -84t125 -31q109 0 177.5 60.5t84.5 163.5l8 45h-254q-92 0 -139 -43t-47 -111zM366 1313q0 70 44 115t110 45q61 0 97 -36t36 -91q0 -70 -44 -115t-110 -45q-61 0 -97 35.5t-36 91.5zM749 1313q0 70 44 115t110 45q61 0 97 -36 t36 -91q0 -70 -44 -115t-110 -45q-61 0 -97 35.5t-36 91.5z" />
<glyph unicode="&#xe5;" horiz-adv-x="1130" d="M41 272q0 106 51 190.5t147.5 130.5t223.5 46h307l4 20q4 25 4 37q0 68 -49 109t-127 41t-127 -35t-63 -84h-252q33 141 149.5 236.5t302.5 95.5q184 0 301 -94.5t117 -264.5q0 -47 -8 -88l-107 -612h-221l-4 102h-10q-43 -49 -117 -85.5t-166 -36.5q-108 0 -189 38.5 t-124 105t-43 148.5zM299 301q0 -53 45 -84t125 -31q109 0 177.5 60.5t84.5 163.5l8 45h-254q-92 0 -139 -43t-47 -111zM496 1331q0 96 67.5 160.5t161.5 64.5q86 0 139.5 -51t53.5 -133q0 -96 -66.5 -161.5t-160.5 -65.5q-86 0 -140.5 52t-54.5 134zM625 1341 q0 -29 21.5 -49t54.5 -20q35 0 62.5 25.5t27.5 64.5q0 29 -22.5 49.5t-55.5 20.5q-35 0 -61.5 -26t-26.5 -65z" />
<glyph unicode="&#xe6;" horiz-adv-x="1843" d="M41 276q0 100 51 180.5t146.5 125.5t222.5 45h307l4 24q4 25 4 37q0 70 -49 112t-127 42q-80 0 -131 -34t-66 -81h-249q35 139 151.5 235.5t304.5 96.5q113 0 202 -44t136 -118q66 70 164 116t207 46q207 0 331 -125t124 -336q-1 -76 -21 -158h-760q4 -111 66.5 -180.5 t169.5 -69.5q139 0 213 115h262q-74 -147 -200 -236t-290 -89q-135 0 -231 50t-149 138q-53 -74 -165 -131t-257 -57q-176 0 -273.5 83.5t-97.5 212.5zM299 301q0 -53 43 -84t123 -31q106 0 177 60.5t87 161.5l4 34h-252q-90 0 -136 -38.5t-46 -102.5zM1018 616h506 q2 104 -56.5 167t-156.5 63q-104 0 -181 -61.5t-112 -168.5z" />
<glyph unicode="&#xe7;" horiz-adv-x="1175" d="M72 444q0 172 80.5 312.5t216 221.5t290.5 81q195 0 319 -106.5t144 -295.5h-258q-14 76 -71.5 120t-147.5 44q-82 0 -154.5 -46t-117.5 -127t-45 -181q0 -113 68.5 -182.5t172.5 -69.5q90 0 154.5 46t101.5 126h262q-57 -170 -184 -280.5t-299 -124.5l-51 -78 q47 -14 82 -54t35 -102q0 -90 -66.5 -148.5t-171.5 -58.5h-149l22 152h105q39 0 61.5 20.5t22.5 53.5q0 25 -20.5 40t-59.5 15h-54l15 82l57 88q-164 37 -262 159.5t-98 292.5z" />
<glyph unicode="&#xe8;" horiz-adv-x="1198" d="M72 444q0 172 80.5 312.5t216 221.5t290.5 81q137 0 244 -58.5t165 -164t58 -244.5q0 -57 -7 -103.5t-9 -54.5h-788q4 -106 72.5 -173.5t174.5 -67.5q76 0 133.5 30.5t90.5 79.5h262q-72 -143 -201 -233t-297 -90q-143 0 -253.5 60t-171 165.5t-60.5 238.5zM344 606h533 q-4 106 -64.5 173t-165.5 67q-104 0 -185 -64.5t-118 -175.5zM391 1481h262l145 -295h-215z" />
<glyph unicode="&#xe9;" horiz-adv-x="1198" d="M72 444q0 172 80.5 312.5t216 221.5t290.5 81q137 0 244 -58.5t165 -164t58 -244.5q0 -57 -7 -103.5t-9 -54.5h-788q4 -106 72.5 -173.5t174.5 -67.5q76 0 133.5 30.5t90.5 79.5h262q-72 -143 -201 -233t-297 -90q-143 0 -253.5 60t-171 165.5t-60.5 238.5zM344 606h533 q-4 106 -64.5 173t-165.5 67q-104 0 -185 -64.5t-118 -175.5zM577 1186l250 295h269l-297 -295h-222z" />
<glyph unicode="&#xea;" horiz-adv-x="1198" d="M72 444q0 172 80.5 312.5t216 221.5t290.5 81q137 0 244 -58.5t165 -164t58 -244.5q0 -57 -7 -103.5t-9 -54.5h-788q4 -106 72.5 -173.5t174.5 -67.5q76 0 133.5 30.5t90.5 79.5h262q-72 -143 -201 -233t-297 -90q-143 0 -253.5 60t-171 165.5t-60.5 238.5zM335 1186 l297 293h230l194 -293h-227l-96 151l-150 -151h-248zM344 606h533q-4 106 -64.5 173t-165.5 67q-104 0 -185 -64.5t-118 -175.5z" />
<glyph unicode="&#xeb;" horiz-adv-x="1198" d="M72 444q0 172 80.5 312.5t216 221.5t290.5 81q137 0 244 -58.5t165 -164t58 -244.5q0 -57 -7 -103.5t-9 -54.5h-788q4 -106 72.5 -173.5t174.5 -67.5q76 0 133.5 30.5t90.5 79.5h262q-72 -143 -201 -233t-297 -90q-143 0 -253.5 60t-171 165.5t-60.5 238.5zM344 606h533 q-4 106 -64.5 173t-165.5 67q-104 0 -185 -64.5t-118 -175.5zM385 1313q0 70 44 115t110 45q61 0 97 -36t36 -91q0 -70 -44 -115t-110 -45q-61 0 -97 35.5t-36 91.5zM768 1313q0 70 44 115t110 45q61 0 97 -36t36 -91q0 -70 -44 -115t-110 -45q-61 0 -97 35.5t-36 91.5z" />
<glyph unicode="&#xec;" horiz-adv-x="516" d="M39 0l182 1038h256l-182 -1038h-256zM70 1481h262l145 -295h-215z" />
<glyph unicode="&#xed;" horiz-adv-x="516" d="M39 0l182 1038h256l-182 -1038h-256zM256 1186l250 295h269l-297 -295h-222z" />
<glyph unicode="&#xee;" horiz-adv-x="516" d="M14 1186l297 293h230l194 -293h-227l-96 151l-150 -151h-248zM39 0l182 1038h256l-182 -1038h-256z" />
<glyph unicode="&#xef;" horiz-adv-x="516" d="M39 0l182 1038h256l-182 -1038h-256zM80 1313q0 70 44 115t109 45q61 0 97.5 -36t36.5 -91q0 -70 -44 -115t-110 -45q-61 0 -97 35.5t-36 91.5zM436 1313q0 70 44 115t110 45q61 0 97 -36t36 -91q0 -70 -44 -115t-110 -45q-61 0 -97 35.5t-36 91.5z" />
<glyph unicode="&#xf0;" horiz-adv-x="1191" d="M63 403q0 152 71 275t191.5 193.5t266.5 70.5q184 0 295 -111h10q-16 76 -60 164t-92 144l-280 -131l-66 141l226 106q-39 37 -96.5 79t-92.5 63l197 92q43 -25 93 -65t89 -81l264 123l68 -139l-223 -102q76 -92 135 -237.5t59 -330.5q0 -197 -73.5 -351t-208 -240 t-304.5 -86q-135 0 -242.5 55t-167 151.5t-59.5 216.5zM328 434q0 -92 63.5 -153.5t165.5 -61.5q72 0 135.5 37t101 101.5t37.5 142.5q0 94 -62 155.5t-165 61.5q-72 0 -136.5 -37t-102 -102.5t-37.5 -143.5z" />
<glyph unicode="&#xf1;" horiz-adv-x="1212" d="M39 0l182 1038h221l4 -100h11q45 51 119.5 86t166.5 35q166 0 267.5 -99.5t101.5 -267.5q0 -43 -10 -104l-105 -588h-256l103 573q4 33 4 48q0 88 -57.5 142t-139.5 54q-94 0 -163.5 -63.5t-86.5 -155.5l-106 -598h-256zM391 1206q20 121 90 186.5t168 65.5q39 0 67 -12 t64 -35q25 -18 43.5 -26.5t38.5 -8.5q31 0 54.5 21.5t31.5 60.5h172q-20 -119 -90.5 -185.5t-169.5 -66.5q-39 0 -67.5 12.5t-61.5 34.5q-29 16 -45 24.5t-37 8.5q-31 0 -54 -20.5t-32 -59.5h-172z" />
<glyph unicode="&#xf2;" horiz-adv-x="1214" d="M72 444q0 172 80.5 312.5t216 221.5t290.5 81q143 0 253 -60.5t170.5 -166t60.5 -240.5q0 -170 -81 -310.5t-216 -221t-291 -80.5q-141 0 -251.5 60t-171 165.5t-60.5 238.5zM328 467q0 -111 68.5 -181.5t172.5 -70.5q80 0 154 46t120 127t46 181q0 113 -68.5 182.5 t-175.5 69.5q-82 0 -154.5 -46t-117.5 -127t-45 -181zM420 1481h262l145 -295h-215z" />
<glyph unicode="&#xf3;" horiz-adv-x="1214" d="M72 444q0 172 80.5 312.5t216 221.5t290.5 81q143 0 253 -60.5t170.5 -166t60.5 -240.5q0 -170 -81 -310.5t-216 -221t-291 -80.5q-141 0 -251.5 60t-171 165.5t-60.5 238.5zM328 467q0 -111 68.5 -181.5t172.5 -70.5q80 0 154 46t120 127t46 181q0 113 -68.5 182.5 t-175.5 69.5q-82 0 -154.5 -46t-117.5 -127t-45 -181zM606 1186l250 295h269l-297 -295h-222z" />
<glyph unicode="&#xf4;" horiz-adv-x="1214" d="M72 444q0 172 80.5 312.5t216 221.5t290.5 81q143 0 253 -60.5t170.5 -166t60.5 -240.5q0 -170 -81 -310.5t-216 -221t-291 -80.5q-141 0 -251.5 60t-171 165.5t-60.5 238.5zM328 467q0 -111 68.5 -181.5t172.5 -70.5q80 0 154 46t120 127t46 181q0 113 -68.5 182.5 t-175.5 69.5q-82 0 -154.5 -46t-117.5 -127t-45 -181zM364 1186l297 293h230l194 -293h-227l-96 151l-150 -151h-248z" />
<glyph unicode="&#xf5;" horiz-adv-x="1214" d="M72 444q0 172 80.5 312.5t216 221.5t290.5 81q143 0 253 -60.5t170.5 -166t60.5 -240.5q0 -170 -81 -310.5t-216 -221t-291 -80.5q-141 0 -251.5 60t-171 165.5t-60.5 238.5zM328 467q0 -111 68.5 -181.5t172.5 -70.5q80 0 154 46t120 127t46 181q0 113 -68.5 182.5 t-175.5 69.5q-82 0 -154.5 -46t-117.5 -127t-45 -181zM385 1206q20 121 90 186.5t168 65.5q39 0 67 -12t64 -35q25 -18 43.5 -26.5t38.5 -8.5q31 0 54.5 21.5t31.5 60.5h172q-20 -119 -90.5 -185.5t-169.5 -66.5q-39 0 -67.5 12.5t-61.5 34.5q-29 16 -45 24.5t-37 8.5 q-31 0 -54 -20.5t-32 -59.5h-172z" />
<glyph unicode="&#xf6;" horiz-adv-x="1214" d="M72 444q0 172 80.5 312.5t216 221.5t290.5 81q143 0 253 -60.5t170.5 -166t60.5 -240.5q0 -170 -81 -310.5t-216 -221t-291 -80.5q-141 0 -251.5 60t-171 165.5t-60.5 238.5zM328 467q0 -111 68.5 -181.5t172.5 -70.5q80 0 154 46t120 127t46 181q0 113 -68.5 182.5 t-175.5 69.5q-82 0 -154.5 -46t-117.5 -127t-45 -181zM413 1313q0 70 44 115t110 45q61 0 97 -36t36 -91q0 -70 -44 -115t-110 -45q-61 0 -97 35.5t-36 91.5zM796 1313q0 70 44 115t110 45q61 0 97 -36t36 -91q0 -70 -44 -115t-110 -45q-61 0 -97 35.5t-36 91.5z" />
<glyph unicode="&#xf7;" horiz-adv-x="1112" d="M125 483v222h889v-222h-889zM438 238q0 55 38 92t91 37q55 0 92 -37t37 -92t-36.5 -92t-92.5 -37q-53 0 -91 36.5t-38 92.5zM438 950q0 55 38 92t91 37q55 0 92 -36.5t37 -92.5q0 -55 -36.5 -92t-92.5 -37q-53 0 -91 37t-38 92z" />
<glyph unicode="&#xf8;" horiz-adv-x="1214" d="M72 444q0 172 80.5 312.5t216 221.5t290.5 81q109 0 197 -35l62 86h217l-127 -180q66 -63 100.5 -149.5t34.5 -188.5q0 -170 -81 -310.5t-216 -221t-291 -80.5q-109 0 -197 34l-61 -86h-217l127 181q-66 63 -100.5 149t-34.5 186zM328 467q-1 -80 34 -139l347 487 q-31 6 -64 6q-82 0 -154.5 -46t-117.5 -127t-45 -181zM506 223q27 -8 63 -8q80 0 154 46t120 127t46 181q0 78 -37 142z" />
<glyph unicode="&#xf9;" horiz-adv-x="1220" d="M106 348q0 45 11 103l106 587h256l-102 -573q-4 -33 -4 -47q0 -88 57 -142.5t139 -54.5q94 0 164 62.5t86 154.5l107 600h256l-183 -1038h-221l-4 98h-10q-41 -47 -118 -82.5t-169 -35.5q-166 0 -268.5 100t-102.5 268zM408 1481h262l145 -295h-215z" />
<glyph unicode="&#xfa;" horiz-adv-x="1220" d="M106 348q0 45 11 103l106 587h256l-102 -573q-4 -33 -4 -47q0 -88 57 -142.5t139 -54.5q94 0 164 62.5t86 154.5l107 600h256l-183 -1038h-221l-4 98h-10q-41 -47 -118 -82.5t-169 -35.5q-166 0 -268.5 100t-102.5 268zM596 1186l250 295h269l-297 -295h-222z" />
<glyph unicode="&#xfb;" horiz-adv-x="1220" d="M106 348q0 45 11 103l106 587h256l-102 -573q-4 -33 -4 -47q0 -88 57 -142.5t139 -54.5q94 0 164 62.5t86 154.5l107 600h256l-183 -1038h-221l-4 98h-10q-41 -47 -118 -82.5t-169 -35.5q-166 0 -268.5 100t-102.5 268zM354 1186l297 293h230l194 -293h-227l-96 151 l-150 -151h-248z" />
<glyph unicode="&#xfc;" horiz-adv-x="1220" d="M106 348q0 45 11 103l106 587h256l-102 -573q-4 -33 -4 -47q0 -88 57 -142.5t139 -54.5q94 0 164 62.5t86 154.5l107 600h256l-183 -1038h-221l-4 98h-10q-41 -47 -118 -82.5t-169 -35.5q-166 0 -268.5 100t-102.5 268zM403 1313q0 70 44 115t110 45q61 0 97 -36t36 -91 q0 -70 -44 -115t-110 -45q-61 0 -97 35.5t-36 91.5zM786 1313q0 70 44 115t110 45q61 0 97 -36t36 -91q0 -70 -44 -115t-110 -45q-61 0 -97 35.5t-36 91.5z" />
<glyph unicode="&#xfd;" horiz-adv-x="1089" d="M-51 -410l43 236h203q43 0 73 49l37 74l-223 1089h260l139 -714h41l367 714h280l-675 -1269q-51 -92 -111.5 -135.5t-155.5 -43.5h-278zM512 1186l250 295h269l-297 -295h-222z" />
<glyph unicode="&#xfe;" horiz-adv-x="1255" d="M-23 -410l324 1844h252l-88 -500h10q43 51 122 88t171 37q123 0 217 -57.5t147.5 -161t53.5 -232.5q0 -180 -78 -324.5t-206 -224t-267 -79.5q-113 0 -186.5 41.5t-110.5 97.5h-10l-97 -529h-254zM389 463q0 -113 65.5 -180.5t170.5 -67.5q77 0 148 45t114 127t43 186 q0 115 -64.5 181.5t-171.5 66.5q-78 0 -148.5 -45t-113.5 -127t-43 -186z" />
<glyph unicode="&#xff;" horiz-adv-x="1089" d="M-51 -410l43 236h203q43 0 73 49l37 74l-223 1089h260l139 -714h41l367 714h280l-675 -1269q-51 -92 -111.5 -135.5t-155.5 -43.5h-278zM321 1313q0 70 44 115t110 45q61 0 97 -36t36 -91q0 -70 -44 -115t-110 -45q-61 0 -97 35.5t-36 91.5zM704 1313q0 70 44 115t110 45 q61 0 97 -36t36 -91q0 -70 -44 -115t-110 -45q-61 0 -97 35.5t-36 91.5z" />
<glyph unicode="&#x131;" horiz-adv-x="516" d="M39 0l182 1038h256l-182 -1038h-256z" />
<glyph unicode="&#x132;" horiz-adv-x="1425" d="M59 0l252 1434h275l-254 -1434h-273zM503 0l47 262h332q41 0 67.5 25.5t35.5 74.5l188 1072h274l-206 -1160q-47 -274 -308 -274h-430z" />
<glyph unicode="&#x133;" horiz-adv-x="1032" d="M39 0l182 1038h256l-182 -1038h-256zM250 1317q0 66 46 111t112 45q61 0 102 -36t41 -96q0 -66 -45 -110.5t-111 -44.5q-59 0 -102 37t-43 94zM256 -410l41 236h168q31 0 47 15.5t22 49.5l203 1147h256l-215 -1220q-18 -104 -90 -166t-188 -62h-244zM762 1317 q0 66 46 111t112 45q61 0 102 -36t41 -96q0 -66 -45 -110.5t-111 -44.5q-59 0 -102 37t-43 94z" />
<glyph unicode="&#x13f;" horiz-adv-x="1114" d="M59 0l252 1434h275l-207 -1172h670l-48 -262h-942zM746 801q0 68 49 118t117 50q61 0 101 -39t40 -100q0 -68 -49 -118t-117 -50q-61 0 -101 39t-40 100z" />
<glyph unicode="&#x140;" horiz-adv-x="872" d="M49 0l252 1434h256l-252 -1434h-256zM594 741q0 68 49 118t117 50q61 0 101 -39t40 -100q0 -68 -49 -118t-117 -50q-61 0 -101 39t-40 100z" />
<glyph unicode="&#x152;" horiz-adv-x="2222" d="M115 608q0 242 108.5 435.5t285.5 302t378 108.5q150 0 253 -60.5t144 -140.5h10l33 181h948l-43 -250h-690l-59 -344h647l-43 -242h-647l-62 -348h688l-43 -250h-948l25 150h-10q-59 -72 -163 -121t-225 -49q-163 0 -297.5 77.5t-212 221t-77.5 329.5zM389 631 q0 -176 97.5 -281.5t250.5 -105.5q117 0 223.5 69.5t174 197.5t67.5 294q0 117 -44 204t-124 135t-180 48q-117 0 -223.5 -69.5t-174 -197.5t-67.5 -294z" />
<glyph unicode="&#x153;" horiz-adv-x="1933" d="M72 442q0 174 78.5 315.5t210 221.5t282.5 80q131 0 224.5 -51.5t140.5 -130.5q74 82 176 132t227 50q207 0 331 -125t124 -336q0 -78 -21 -160h-760q4 -109 66.5 -178.5t167.5 -69.5q139 0 213 115h264q-74 -147 -200 -236t-289 -89q-254 0 -377 184 q-76 -86 -178.5 -135t-225.5 -49q-133 0 -236.5 58t-160.5 163.5t-57 240.5zM328 463q0 -115 60.5 -181.5t158.5 -66.5q76 0 144.5 45t111.5 128t43 187q0 113 -61.5 179.5t-157.5 66.5q-76 0 -144.5 -45t-111.5 -127t-43 -186zM1108 604h508q2 104 -56.5 173t-156.5 69 q-104 0 -181 -65.5t-114 -176.5z" />
<glyph unicode="&#x178;" horiz-adv-x="1280" d="M131 1434h289l225 -619h41l444 619h318l-688 -947l-86 -487h-275l86 487zM486 1710q0 70 44 115t109 45q61 0 97.5 -36t36.5 -91q0 -70 -44 -115t-110 -45q-61 0 -97 36t-36 91zM869 1710q0 70 44 115t109 45q61 0 97.5 -36t36.5 -91q0 -70 -44.5 -115t-109.5 -45 q-61 0 -97 36t-36 91z" />
<glyph unicode="&#x237;" horiz-adv-x="516" d="M-260 -410l41 236h168q31 0 47 15.5t22 49.5l203 1147h256l-215 -1220q-18 -104 -90 -166t-188 -62h-244z" />
<glyph unicode="&#x2c6;" horiz-adv-x="841" d="M184 1212l295 293h230l194 -293h-227l-96 152l-150 -152h-246z" />
<glyph unicode="&#x2dc;" horiz-adv-x="806" d="M186 1223q20 119 90 184.5t168 65.5q37 0 64 -11.5t65 -34.5q51 -35 84 -34q31 0 54.5 21.5t31.5 58.5h170q-20 -119 -89.5 -184.5t-168.5 -65.5q-37 0 -63.5 11t-65.5 34q-51 35 -84 35q-31 0 -53 -21.5t-31 -58.5h-172z" />
<glyph unicode="&#x1e9e;" horiz-adv-x="1415" d="M49 0l184 1053q31 176 154 278.5t305 102.5h744l-43 -240l-381 -346l-2 -17q80 -10 150.5 -56t113.5 -124t43 -176q0 -139 -61.5 -246.5t-175 -168t-261.5 -60.5h-262l41 242h213q106 0 169.5 60t63.5 157q0 72 -54 119t-142 47h-180l39 225l374 342h-368 q-84 0 -140.5 -48t-70.5 -130l-180 -1014h-273z" />
<glyph unicode="&#x2000;" horiz-adv-x="975" />
<glyph unicode="&#x2001;" horiz-adv-x="1950" />
<glyph unicode="&#x2002;" horiz-adv-x="975" />
<glyph unicode="&#x2003;" horiz-adv-x="1950" />
<glyph unicode="&#x2004;" horiz-adv-x="650" />
<glyph unicode="&#x2005;" horiz-adv-x="487" />
<glyph unicode="&#x2006;" horiz-adv-x="325" />
<glyph unicode="&#x2007;" horiz-adv-x="325" />
<glyph unicode="&#x2008;" horiz-adv-x="243" />
<glyph unicode="&#x2009;" horiz-adv-x="390" />
<glyph unicode="&#x200a;" horiz-adv-x="108" />
<glyph unicode="&#x2010;" horiz-adv-x="874" d="M84 465l41 237h690l-41 -237h-690z" />
<glyph unicode="&#x2011;" horiz-adv-x="874" d="M84 465l41 237h690l-41 -237h-690z" />
<glyph unicode="&#x2012;" horiz-adv-x="874" d="M84 465l41 237h690l-41 -237h-690z" />
<glyph unicode="&#x2013;" horiz-adv-x="1161" d="M63 465l41 237h1018l-41 -237h-1018z" />
<glyph unicode="&#x2014;" horiz-adv-x="1550" d="M63 465l41 237h1407l-41 -237h-1407z" />
<glyph unicode="&#x2018;" horiz-adv-x="507" d="M160 965l202 469h209l-127 -469h-284z" />
<glyph unicode="&#x2019;" horiz-adv-x="507" d="M174 965l129 469h283l-203 -469h-209z" />
<glyph unicode="&#x201a;" horiz-adv-x="516" d="M-45 -182l129 471h287l-205 -471h-211z" />
<glyph unicode="&#x201c;" horiz-adv-x="901" d="M160 965l202 469h209l-127 -469h-284zM553 965l202 469h209l-127 -469h-284z" />
<glyph unicode="&#x201d;" horiz-adv-x="901" d="M174 965l129 469h283l-203 -469h-209zM567 965l129 469h283l-203 -469h-209z" />
<glyph unicode="&#x201e;" horiz-adv-x="909" d="M-45 -182l129 471h287l-205 -471h-211zM348 -182l129 471h287l-205 -471h-211z" />
<glyph unicode="&#x2022;" horiz-adv-x="999" d="M252 528q0 76 38 139.5t102.5 100.5t137.5 37q104 0 167 -64.5t63 -160.5q0 -76 -38 -139.5t-102.5 -100.5t-138.5 -37q-102 0 -165.5 64.5t-63.5 160.5z" />
<glyph unicode="&#x2026;" horiz-adv-x="1574" d="M41 129q0 68 49 118t117 50q61 0 101 -39t40 -100q0 -68 -49 -118t-117 -50q-61 0 -101 39t-40 100zM569 129q0 68 49 118t117 50q61 0 101 -39t40 -100q0 -68 -49 -118t-117 -50q-61 0 -101 39t-40 100zM1098 129q0 68 49 118t117 50q61 0 101 -39t40 -100 q0 -68 -49 -118t-117 -50q-61 0 -101 39t-40 100z" />
<glyph unicode="&#x202f;" horiz-adv-x="390" />
<glyph unicode="&#x2039;" horiz-adv-x="712" d="M70 522l370 416h275l-383 -432l213 -400h-252z" />
<glyph unicode="&#x203a;" horiz-adv-x="714" d="M-2 106l385 435l-209 397h248l223 -416l-371 -416h-276z" />
<glyph unicode="&#x2044;" horiz-adv-x="219" d="M-522 0l1143 1434h190l-1143 -1434h-190z" />
<glyph unicode="&#x205f;" horiz-adv-x="487" />
<glyph unicode="&#x2070;" horiz-adv-x="722" d="M190 1184q0 145 49.5 250.5t130.5 160t173 54.5q113 0 184.5 -78t71.5 -215q0 -143 -49.5 -249t-130 -161t-173.5 -55q-112 0 -184 78t-72 215zM350 1198q0 -82 30 -122t79 -40q39 0 80 34t69.5 103.5t28.5 167.5q0 82 -28.5 122t-80.5 40q-39 0 -79.5 -33.5 t-69.5 -103.5t-29 -168z" />
<glyph unicode="&#x2074;" horiz-adv-x="661" d="M111 1044l24 138l350 456h234l-80 -452h86l-25 -142h-86l-26 -143h-160l27 143h-344zM326 1186h153l41 246h-18l-174 -236z" />
<glyph unicode="&#x2075;" horiz-adv-x="684" d="M172 1116h158q20 -78 108 -78q53 0 89 35t36 88q0 43 -29.5 69.5t-78.5 26.5q-37 0 -67 -18t-46 -39h-147l118 438h449l-27 -147h-309l-33 -113h10q33 23 99 23q96 0 156.5 -63.5t60.5 -159.5q0 -123 -80 -205t-209 -82q-121 0 -189.5 61.5t-68.5 163.5z" />
<glyph unicode="&#x2076;" horiz-adv-x="688" d="M180 1118q0 63 20.5 115.5t61.5 101.5l246 303h176l-197 -239h19q100 0 163.5 -62.5t63.5 -152.5q0 -84 -40 -150.5t-107.5 -104.5t-151.5 -38q-117 0 -185.5 63.5t-68.5 163.5zM340 1137q0 -45 28.5 -74t77.5 -29q56 0 91.5 37t35.5 92q0 45 -28.5 73t-77.5 28 q-53 0 -90 -37t-37 -90z" />
<glyph unicode="&#x2077;" horiz-adv-x="604" d="M215 901l352 588h-313l27 149h489l-27 -139l-356 -598h-172z" />
<glyph unicode="&#x2078;" horiz-adv-x="706" d="M186 1096q0 74 41 126t95 70l2 11q-23 16 -41.5 48.5t-18.5 73.5q0 59 35 110.5t95.5 82.5t131.5 31q111 0 178.5 -57.5t67.5 -137.5q0 -66 -35 -111t-82 -65v-10q29 -16 50.5 -54t21.5 -86q0 -102 -77 -169.5t-206 -67.5q-114 0 -186 60.5t-72 144.5zM346 1114 q0 -37 30 -62.5t77 -25.5q51 0 82.5 28.5t31.5 73.5q0 37 -28.5 61.5t-75.5 24.5q-51 0 -84 -27.5t-33 -72.5zM420 1421q0 -37 25.5 -56t68.5 -19t72.5 24.5t29.5 65.5q0 37 -25.5 57t-68.5 20q-45 0 -73.5 -24.5t-28.5 -67.5z" />
<glyph unicode="&#x2079;" horiz-adv-x="688" d="M221 1356q0 84 39 150.5t107.5 104.5t150.5 38q117 0 186.5 -63.5t69.5 -164.5q0 -63 -20.5 -114.5t-61.5 -102.5l-246 -303h-178l197 240h-19q-98 0 -161.5 62.5t-63.5 152.5zM381 1376q0 -45 28.5 -72.5t77.5 -27.5q54 0 90.5 37t36.5 90q0 45 -29.5 73.5t-76.5 28.5 q-55 0 -91 -36.5t-36 -92.5z" />
<glyph unicode="&#x2080;" horiz-adv-x="722" d="M-5 78q0 145 49.5 250.5t130.5 160t173 54.5q113 0 184.5 -78t71.5 -215q0 -143 -49.5 -249t-130 -161t-173.5 -55q-112 0 -184 78t-72 215zM155 92q0 -82 30 -122t79 -40q39 0 80 34t69.5 103.5t28.5 167.5q0 82 -28.5 122t-80.5 40q-39 0 -79.5 -33.5t-69.5 -103.5 t-29 -168z" />
<glyph unicode="&#x2081;" horiz-adv-x="548" d="M28 291l29 149h113q55 0 65 53l8 39h160l-131 -737h-160l86 496h-170z" />
<glyph unicode="&#x2082;" horiz-adv-x="688" d="M-33 -205l24 133l330 277q45 37 62.5 61.5t17.5 59.5q0 33 -22.5 53t-63.5 20q-45 0 -73.5 -26.5t-37.5 -75.5h-159q16 109 89.5 177.5t186.5 68.5q111 0 175.5 -56.5t64.5 -148.5q0 -74 -35 -124t-113 -116l-180 -149l-2 -11h274l-26 -143h-512z" />
<glyph unicode="&#x2083;" horiz-adv-x="690" d="M-15 18h162q-2 -43 26.5 -66.5t71.5 -23.5q47 0 77 28t30 75q0 35 -26.5 55t-76.5 20h-53l25 136h71q47 0 76 24.5t29 65.5q0 31 -23.5 49t-66.5 18q-37 0 -61.5 -20.5t-32.5 -57.5h-160q14 96 87 159t177 63q113 0 177.5 -54.5t64.5 -140.5q0 -68 -36 -112t-83 -60 l-2 -10q29 -10 51.5 -48t22.5 -89q0 -66 -35 -122.5t-98.5 -89t-143.5 -32.5q-119 0 -188.5 63.5t-61.5 169.5z" />
<glyph unicode="&#x2084;" horiz-adv-x="661" d="M-84 -62l24 138l350 456h234l-80 -452h86l-25 -142h-86l-26 -143h-160l27 143h-344zM131 80h153l41 246h-18l-174 -236z" />
<glyph unicode="&#x2085;" horiz-adv-x="684" d="M-23 10h158q20 -78 108 -78q53 0 89 35t36 88q0 43 -29.5 69.5t-78.5 26.5q-37 0 -67 -18t-46 -39h-147l118 438h449l-27 -147h-309l-33 -113h10q33 23 99 23q96 0 156.5 -63.5t60.5 -159.5q0 -123 -80 -205t-209 -82q-121 0 -189.5 61.5t-68.5 163.5z" />
<glyph unicode="&#x2086;" horiz-adv-x="688" d="M-15 12q0 63 20.5 115.5t61.5 101.5l246 303h176l-197 -239h19q100 0 163.5 -62.5t63.5 -152.5q0 -84 -40 -150.5t-107.5 -104.5t-151.5 -38q-117 0 -185.5 63.5t-68.5 163.5zM145 31q0 -45 28.5 -74t77.5 -29q56 0 91.5 37t35.5 92q0 45 -28.5 73t-77.5 28 q-53 0 -90 -37t-37 -90z" />
<glyph unicode="&#x2087;" horiz-adv-x="604" d="M20 -205l352 588h-313l27 149h489l-27 -139l-356 -598h-172z" />
<glyph unicode="&#x2088;" horiz-adv-x="706" d="M-9 -10q0 74 41 126t95 70l2 11q-23 16 -41.5 48.5t-18.5 73.5q0 59 35 110.5t95.5 82.5t131.5 31q111 0 178.5 -57.5t67.5 -137.5q0 -66 -35 -111t-82 -65v-10q29 -16 50.5 -54t21.5 -86q0 -102 -77 -169.5t-206 -67.5q-114 0 -186 60.5t-72 144.5zM151 8 q0 -37 30 -62.5t77 -25.5q51 0 82.5 28.5t31.5 73.5q0 37 -28.5 61.5t-75.5 24.5q-51 0 -84 -27.5t-33 -72.5zM225 315q0 -37 25.5 -56t68.5 -19t72.5 24.5t29.5 65.5q0 37 -25.5 57t-68.5 20q-45 0 -73.5 -24.5t-28.5 -67.5z" />
<glyph unicode="&#x2089;" horiz-adv-x="688" d="M26 250q0 84 39 150.5t107.5 104.5t150.5 38q117 0 186.5 -63.5t69.5 -164.5q0 -63 -20.5 -114.5t-61.5 -102.5l-246 -303h-178l197 240h-19q-98 0 -161.5 62.5t-63.5 152.5zM186 270q0 -45 28.5 -72.5t77.5 -27.5q54 0 90.5 37t36.5 90q0 45 -29.5 73.5t-76.5 28.5 q-55 0 -91 -36.5t-36 -92.5z" />
<glyph unicode="&#x20ac;" horiz-adv-x="1447" d="M41 473l31 172h174q4 84 14 143h-164l31 173h182q90 231 291 362t444 131q283 0 461 -125l-45 -239q-182 127 -407 127q-135 0 -258 -66t-197 -190h571l-30 -173h-607q-12 -57 -16 -143h598l-31 -172h-540q45 -121 154.5 -188.5t256.5 -67.5q207 0 359 72l-45 -242 q-127 -68 -355 -67q-180 0 -317 64.5t-222 176t-114 252.5h-219z" />
<glyph unicode="&#x2116;" horiz-adv-x="2244" d="M59 0l252 1434h361l319 -1000h43l178 1000h273l-252 -1434h-363l-319 999h-43l-176 -999h-273zM1415 0l37 211h629l-37 -211h-629zM1511 631q0 104 50.5 190t135.5 134.5t183 48.5q135 0 219 -82t84 -209q0 -104 -50 -189.5t-135 -133.5t-183 -48q-134 0 -219 82t-85 207 zM1704 653q0 -55 36 -90t93 -35q65 0 112.5 46.5t47.5 117.5q0 53 -36 88t-93 35q-66 0 -113 -45t-47 -117z" />
<glyph unicode="&#x2122;" horiz-adv-x="1564" d="M117 1266v168h542v-168h-188v-461h-166v461h-188zM752 805v629h260l125 -379h20l127 379h260v-629h-168v389h-20l-129 -389h-158l-129 389h-20v-389h-168z" />
<glyph unicode="&#x2150;" horiz-adv-x="1372" d="M27 0l1143 1434h190l-1143 -1434h-190zM186 1192l29 149h113q55 0 65 53l8 39h160l-131 -737h-160l86 496h-170zM823 0l352 588h-313l27 149h489l-27 -139l-356 -598h-172z" />
<glyph unicode="&#x2151;" horiz-adv-x="1456" d="M27 0l1143 1434h190l-1143 -1434h-190zM186 1192l29 149h113q55 0 65 53l8 39h160l-131 -737h-160l86 496h-170zM829 455q0 84 39 150.5t107.5 104.5t150.5 38q117 0 186.5 -63.5t69.5 -164.5q0 -63 -20.5 -114.5t-61.5 -102.5l-246 -303h-178l197 240h-19 q-98 0 -161.5 62.5t-63.5 152.5zM989 475q0 -45 28.5 -72.5t77.5 -27.5q54 0 90.5 37t36.5 90q0 45 -29.5 73.5t-76.5 28.5q-55 0 -91 -36.5t-36 -92.5z" />
<glyph unicode="&#x2152;" horiz-adv-x="1929" d="M27 0l1143 1434h190l-1143 -1434h-190zM186 1192l29 149h113q55 0 65 53l8 39h160l-131 -737h-160l86 496h-170zM831 496l29 149h113q55 0 65 53l8 39h160l-131 -737h-160l86 496h-170zM1236 283q0 145 49.5 250.5t130.5 160t173 54.5q113 0 184.5 -78t71.5 -215 q0 -143 -49.5 -249t-130 -161t-173.5 -55q-112 0 -184 78t-72 215zM1396 297q0 -82 30 -122t79 -40q39 0 80 34t69.5 103.5t28.5 167.5q0 82 -28.5 122t-80.5 40q-39 0 -79.5 -33.5t-69.5 -103.5t-29 -168z" />
<glyph unicode="&#x2153;" horiz-adv-x="1458" d="M27 0l1143 1434h190l-1143 -1434h-190zM186 1192l29 149h113q55 0 65 53l8 39h160l-131 -737h-160l86 496h-170zM788 223h162q-2 -43 26.5 -66.5t71.5 -23.5q47 0 77 28t30 75q0 35 -26.5 55t-76.5 20h-53l25 136h71q47 0 76 24.5t29 65.5q0 31 -23.5 49t-66.5 18 q-37 0 -61.5 -20.5t-32.5 -57.5h-160q14 96 87 159t177 63q113 0 177.5 -54.5t64.5 -140.5q0 -68 -36 -112t-83 -60l-2 -10q29 -10 51.5 -48t22.5 -89q0 -66 -35 -122.5t-98.5 -89t-143.5 -32.5q-119 0 -188.5 63.5t-61.5 169.5z" />
<glyph unicode="&#x2154;" horiz-adv-x="1597" d="M125 696l24 133l330 277q45 37 62.5 61.5t17.5 59.5q0 33 -22.5 53t-63.5 20q-45 0 -73.5 -26.5t-37.5 -75.5h-159q16 109 89.5 177.5t186.5 68.5q111 0 175.5 -56.5t64.5 -148.5q0 -74 -35 -124t-113 -116l-180 -149l-2 -11h274l-26 -143h-512zM166 0l1143 1434h190 l-1143 -1434h-190zM927 223h162q-2 -43 26.5 -66.5t71.5 -23.5q47 0 77 28t30 75q0 35 -26.5 55t-76.5 20h-53l25 136h71q47 0 76 24.5t29 65.5q0 31 -23.5 49t-66.5 18q-37 0 -61.5 -20.5t-32.5 -57.5h-160q14 96 87 159t177 63q113 0 177.5 -54.5t64.5 -140.5 q0 -68 -36 -112t-83 -60l-2 -10q29 -10 51.5 -48t22.5 -89q0 -66 -35 -122.5t-98.5 -89t-143.5 -32.5q-119 0 -188.5 63.5t-61.5 169.5z" />
<glyph unicode="&#x2155;" horiz-adv-x="1452" d="M27 0l1143 1434h190l-1143 -1434h-190zM186 1192l29 149h113q55 0 65 53l8 39h160l-131 -737h-160l86 496h-170zM780 215h158q20 -78 108 -78q53 0 89 35t36 88q0 43 -29.5 69.5t-78.5 26.5q-37 0 -67 -18t-46 -39h-147l118 438h449l-27 -147h-309l-33 -113h10 q33 23 99 23q96 0 156.5 -63.5t60.5 -159.5q0 -123 -80 -205t-209 -82q-121 0 -189.5 61.5t-68.5 163.5z" />
<glyph unicode="&#x2156;" horiz-adv-x="1591" d="M125 696l24 133l330 277q45 37 62.5 61.5t17.5 59.5q0 33 -22.5 53t-63.5 20q-45 0 -73.5 -26.5t-37.5 -75.5h-159q16 109 89.5 177.5t186.5 68.5q111 0 175.5 -56.5t64.5 -148.5q0 -74 -35 -124t-113 -116l-180 -149l-2 -11h274l-26 -143h-512zM166 0l1143 1434h190 l-1143 -1434h-190zM919 215h158q20 -78 108 -78q53 0 89 35t36 88q0 43 -29.5 69.5t-78.5 26.5q-37 0 -67 -18t-46 -39h-147l118 438h449l-27 -147h-309l-33 -113h10q33 23 99 23q96 0 156.5 -63.5t60.5 -159.5q0 -123 -80 -205t-209 -82q-121 0 -189.5 61.5t-68.5 163.5z " />
<glyph unicode="&#x2157;" horiz-adv-x="1593" d="M143 919h162q-2 -43 26.5 -66.5t71.5 -23.5q47 0 77 28t30 75q0 35 -26.5 55t-76.5 20h-53l25 136h71q47 0 76 24.5t29 65.5q0 31 -23.5 49t-66.5 18q-37 0 -61.5 -20.5t-32.5 -57.5h-160q14 96 87 159t177 63q113 0 177.5 -54.5t64.5 -140.5q0 -68 -36 -112t-83 -60 l-2 -10q29 -10 51.5 -48t22.5 -89q0 -66 -35 -122.5t-98.5 -89t-143.5 -32.5q-119 0 -188.5 63.5t-61.5 169.5zM168 0l1143 1434h190l-1143 -1434h-190zM921 215h158q20 -78 108 -78q53 0 89 35t36 88q0 43 -29.5 69.5t-78.5 26.5q-37 0 -67 -18t-46 -39h-147l118 438h449 l-27 -147h-309l-33 -113h10q33 23 99 23q96 0 156.5 -63.5t60.5 -159.5q0 -123 -80 -205t-209 -82q-121 0 -189.5 61.5t-68.5 163.5z" />
<glyph unicode="&#x2158;" horiz-adv-x="1564" d="M74 839l24 138l350 456h234l-80 -452h86l-25 -142h-86l-26 -143h-160l27 143h-344zM140 0l1143 1434h190l-1143 -1434h-190zM289 981h153l41 246h-18l-174 -236zM893 215h158q20 -78 108 -78q53 0 89 35t36 88q0 43 -29.5 69.5t-78.5 26.5q-37 0 -67 -18t-46 -39h-147 l118 438h449l-27 -147h-309l-33 -113h10q33 23 99 23q96 0 156.5 -63.5t60.5 -159.5q0 -123 -80 -205t-209 -82q-121 0 -189.5 61.5t-68.5 163.5z" />
<glyph unicode="&#x2159;" horiz-adv-x="1456" d="M27 0l1143 1434h190l-1143 -1434h-190zM186 1192l29 149h113q55 0 65 53l8 39h160l-131 -737h-160l86 496h-170zM788 217q0 63 20.5 115.5t61.5 101.5l246 303h176l-197 -239h19q100 0 163.5 -62.5t63.5 -152.5q0 -84 -40 -150.5t-107.5 -104.5t-151.5 -38 q-117 0 -185.5 63.5t-68.5 163.5zM948 236q0 -45 28.5 -74t77.5 -29q56 0 91.5 37t35.5 92q0 45 -28.5 73t-77.5 28q-53 0 -90 -37t-37 -90z" />
<glyph unicode="&#x215a;" horiz-adv-x="1591" d="M135 911h158q20 -78 108 -78q53 0 89 35t36 88q0 43 -29.5 69.5t-78.5 26.5q-37 0 -67 -18t-46 -39h-147l118 438h449l-27 -147h-309l-33 -113h10q33 23 99 23q96 0 156.5 -63.5t60.5 -159.5q0 -123 -80 -205t-209 -82q-121 0 -189.5 61.5t-68.5 163.5zM162 0l1143 1434 h190l-1143 -1434h-190zM923 217q0 63 20.5 115.5t61.5 101.5l246 303h176l-197 -239h19q100 0 163.5 -62.5t63.5 -152.5q0 -84 -40 -150.5t-107.5 -104.5t-151.5 -38q-117 0 -185.5 63.5t-68.5 163.5zM1083 236q0 -45 28.5 -74t77.5 -29q56 0 91.5 37t35.5 92q0 45 -28.5 73 t-77.5 28q-53 0 -90 -37t-37 -90z" />
<glyph unicode="&#x215b;" horiz-adv-x="1474" d="M27 0l1143 1434h190l-1143 -1434h-190zM186 1192l29 149h113q55 0 65 53l8 39h160l-131 -737h-160l86 496h-170zM794 195q0 74 41 126t95 70l2 11q-23 16 -41.5 48.5t-18.5 73.5q0 59 35 110.5t95.5 82.5t131.5 31q111 0 178.5 -57.5t67.5 -137.5q0 -66 -35 -111t-82 -65 v-10q29 -16 50.5 -54t21.5 -86q0 -102 -77 -169.5t-206 -67.5q-114 0 -186 60.5t-72 144.5zM954 213q0 -37 30 -62.5t77 -25.5q51 0 82.5 28.5t31.5 73.5q0 37 -28.5 61.5t-75.5 24.5q-51 0 -84 -27.5t-33 -72.5zM1028 520q0 -37 25.5 -56t68.5 -19t72.5 24.5t29.5 65.5 q0 37 -25.5 57t-68.5 20q-45 0 -73.5 -24.5t-28.5 -67.5z" />
<glyph unicode="&#x215c;" horiz-adv-x="1615" d="M143 919h162q-2 -43 26.5 -66.5t71.5 -23.5q47 0 77 28t30 75q0 35 -26.5 55t-76.5 20h-53l25 136h71q47 0 76 24.5t29 65.5q0 31 -23.5 49t-66.5 18q-37 0 -61.5 -20.5t-32.5 -57.5h-160q14 96 87 159t177 63q113 0 177.5 -54.5t64.5 -140.5q0 -68 -36 -112t-83 -60 l-2 -10q29 -10 51.5 -48t22.5 -89q0 -66 -35 -122.5t-98.5 -89t-143.5 -32.5q-119 0 -188.5 63.5t-61.5 169.5zM168 0l1143 1434h190l-1143 -1434h-190zM935 195q0 74 41 126t95 70l2 11q-23 16 -41.5 48.5t-18.5 73.5q0 59 35 110.5t95.5 82.5t131.5 31q111 0 178.5 -57.5 t67.5 -137.5q0 -66 -35 -111t-82 -65v-10q29 -16 50.5 -54t21.5 -86q0 -102 -77 -169.5t-206 -67.5q-114 0 -186 60.5t-72 144.5zM1095 213q0 -37 30 -62.5t77 -25.5q51 0 82.5 28.5t31.5 73.5q0 37 -28.5 61.5t-75.5 24.5q-51 0 -84 -27.5t-33 -72.5zM1169 520 q0 -37 25.5 -56t68.5 -19t72.5 24.5t29.5 65.5q0 37 -25.5 57t-68.5 20q-45 0 -73.5 -24.5t-28.5 -67.5z" />
<glyph unicode="&#x215d;" horiz-adv-x="1609" d="M135 911h158q20 -78 108 -78q53 0 89 35t36 88q0 43 -29.5 69.5t-78.5 26.5q-37 0 -67 -18t-46 -39h-147l118 438h449l-27 -147h-309l-33 -113h10q33 23 99 23q96 0 156.5 -63.5t60.5 -159.5q0 -123 -80 -205t-209 -82q-121 0 -189.5 61.5t-68.5 163.5zM162 0l1143 1434 h190l-1143 -1434h-190zM929 195q0 74 41 126t95 70l2 11q-23 16 -41.5 48.5t-18.5 73.5q0 59 35 110.5t95.5 82.5t131.5 31q111 0 178.5 -57.5t67.5 -137.5q0 -66 -35 -111t-82 -65v-10q29 -16 50.5 -54t21.5 -86q0 -102 -77 -169.5t-206 -67.5q-114 0 -186 60.5t-72 144.5z M1089 213q0 -37 30 -62.5t77 -25.5q51 0 82.5 28.5t31.5 73.5q0 37 -28.5 61.5t-75.5 24.5q-51 0 -84 -27.5t-33 -72.5zM1163 520q0 -37 25.5 -56t68.5 -19t72.5 24.5t29.5 65.5q0 37 -25.5 57t-68.5 20q-45 0 -73.5 -24.5t-28.5 -67.5z" />
<glyph unicode="&#x215e;" horiz-adv-x="1529" d="M82 0l1143 1434h190l-1143 -1434h-190zM178 696l352 588h-313l27 149h489l-27 -139l-356 -598h-172zM849 195q0 74 41 126t95 70l2 11q-23 16 -41.5 48.5t-18.5 73.5q0 59 35 110.5t95.5 82.5t131.5 31q111 0 178.5 -57.5t67.5 -137.5q0 -66 -35 -111t-82 -65v-10 q29 -16 50.5 -54t21.5 -86q0 -102 -77 -169.5t-206 -67.5q-114 0 -186 60.5t-72 144.5zM1009 213q0 -37 30 -62.5t77 -25.5q51 0 82.5 28.5t31.5 73.5q0 37 -28.5 61.5t-75.5 24.5q-51 0 -84 -27.5t-33 -72.5zM1083 520q0 -37 25.5 -56t68.5 -19t72.5 24.5t29.5 65.5 q0 37 -25.5 57t-68.5 20q-45 0 -73.5 -24.5t-28.5 -67.5z" />
<glyph unicode="&#x2460;" d="M178 717q0 244 116 444.5t316.5 315t448.5 114.5t448.5 -114.5t316 -315t115.5 -444.5t-115.5 -444.5t-316 -315.5t-448.5 -115t-448.5 115t-316.5 315.5t-116 444.5zM356 717q0 -201 91.5 -360.5t251 -251t360.5 -91.5t361.5 91.5t251.5 251t91 360.5t-91 360.5 t-251.5 250.5t-361.5 91t-360.5 -91t-251 -250.5t-91.5 -360.5zM844 846v147h112q27 0 41.5 14.5t14.5 41.5v36h155v-737h-155v498h-168z" />
<glyph unicode="&#x2461;" d="M178 717q0 244 116 444.5t316.5 315t448.5 114.5t448.5 -114.5t316 -315t115.5 -444.5t-115.5 -444.5t-316 -315.5t-448.5 -115t-448.5 115t-316.5 315.5t-116 444.5zM356 717q0 -201 91.5 -360.5t251 -251t360.5 -91.5t361.5 91.5t251.5 251t91 360.5t-91 360.5 t-251.5 250.5t-361.5 91t-360.5 -91t-251 -250.5t-91.5 -360.5zM801 854q0 106 71.5 174t186.5 68q113 0 181.5 -65.5t68.5 -166.5q0 -70 -22.5 -109.5t-80.5 -95.5l-157 -153v-10h270v-148h-508v133l287 281q29 29 41 50.5t12 51.5q0 37 -24.5 60.5t-67.5 23.5 q-49 0 -76 -24.5t-27 -69.5h-155z" />
<glyph unicode="&#x2462;" d="M178 717q0 244 116 444.5t316.5 315t448.5 114.5t448.5 -114.5t316 -315t115.5 -444.5t-115.5 -444.5t-316 -315.5t-448.5 -115t-448.5 115t-316.5 315.5t-116 444.5zM356 717q0 -201 91.5 -360.5t251 -251t360.5 -91.5t361.5 91.5t251.5 251t91 360.5t-91 360.5 t-251.5 250.5t-361.5 91t-360.5 -91t-251 -250.5t-91.5 -360.5zM801 567h155q0 -35 28 -58.5t75 -23.5q49 0 75.5 22.5t26.5 61.5q0 45 -29.5 69t-82.5 24h-58v133h58q51 0 76.5 22.5t25.5 59.5q0 31 -24.5 51t-67.5 20q-41 0 -66.5 -20.5t-25.5 -50.5h-156q0 92 68.5 155.5 t179.5 63.5t180.5 -60.5t69.5 -150.5q0 -53 -27 -93t-61 -55v-10q39 -16 68.5 -58t29.5 -100q0 -98 -70.5 -164.5t-189.5 -66.5q-115 0 -186.5 64.5t-71.5 164.5z" />
<glyph unicode="&#x2463;" d="M178 717q0 244 116 444.5t316.5 315t448.5 114.5t448.5 -114.5t316 -315t115.5 -444.5t-115.5 -444.5t-316 -315.5t-448.5 -115t-448.5 115t-316.5 315.5t-116 444.5zM356 717q0 -201 91.5 -360.5t251 -251t360.5 -91.5t361.5 91.5t251.5 251t91 360.5t-91 360.5 t-251.5 250.5t-361.5 91t-360.5 -91t-251 -250.5t-91.5 -360.5zM729 496v129l268 460h226v-450h90v-139h-90v-148h-156v148h-338zM909 635h158v248h-20l-138 -238v-10z" />
<glyph unicode="&#x2464;" d="M178 717q0 244 116 444.5t316.5 315t448.5 114.5t448.5 -114.5t316 -315t115.5 -444.5t-115.5 -444.5t-316 -315.5t-448.5 -115t-448.5 115t-316.5 315.5t-116 444.5zM356 717q0 -201 91.5 -360.5t251 -251t360.5 -91.5t361.5 91.5t251.5 251t91 360.5t-91 360.5 t-251.5 250.5t-361.5 91t-360.5 -91t-251 -250.5t-91.5 -360.5zM793 559h157q10 -33 41 -53.5t76 -20.5q47 0 78 32t31 77q0 49 -31 78.5t-78 29.5q-76 0 -111 -51h-153l41 434h448v-147h-307l-14 -123h10q39 29 113 29q100 0 169.5 -71t69.5 -179q0 -113 -72.5 -184.5 t-193.5 -71.5q-117 0 -187.5 58.5t-86.5 162.5z" />
<glyph unicode="&#x2465;" d="M178 717q0 244 116 444.5t316.5 315t448.5 114.5t448.5 -114.5t316 -315t115.5 -444.5t-115.5 -444.5t-316 -315.5t-448.5 -115t-448.5 115t-316.5 315.5t-116 444.5zM356 717q0 -201 91.5 -360.5t251 -251t360.5 -91.5t361.5 91.5t251.5 251t91 360.5t-91 360.5 t-251.5 250.5t-361.5 91t-360.5 -91t-251 -250.5t-91.5 -360.5zM786 600q0 90 45 164l201 321h172l-151 -241q8 2 30 2q103 0 176.5 -67.5t73.5 -176.5q0 -115 -76.5 -189.5t-195.5 -74.5q-121 0 -198 74.5t-77 187.5zM944 600q0 -51 32 -83t83 -32t84 32t33 83q0 53 -32 85 t-85 32q-51 0 -83 -33t-32 -84z" />
<glyph unicode="&#x2466;" d="M178 717q0 244 116 444.5t316.5 315t448.5 114.5t448.5 -114.5t316 -315t115.5 -444.5t-115.5 -444.5t-316 -315.5t-448.5 -115t-448.5 115t-316.5 315.5t-116 444.5zM356 717q0 -201 91.5 -360.5t251 -251t360.5 -91.5t361.5 91.5t251.5 251t91 360.5t-91 360.5 t-251.5 250.5t-361.5 91t-360.5 -91t-251 -250.5t-91.5 -360.5zM823 938v147h486v-137l-252 -600h-164l250 590h-320z" />
<glyph unicode="&#x2467;" d="M178 717q0 244 116 444.5t316.5 315t448.5 114.5t448.5 -114.5t316 -315t115.5 -444.5t-115.5 -444.5t-316 -315.5t-448.5 -115t-448.5 115t-316.5 315.5t-116 444.5zM356 717q0 -201 91.5 -360.5t251 -251t360.5 -91.5t361.5 91.5t251.5 251t91 360.5t-91 360.5 t-251.5 250.5t-361.5 91t-360.5 -91t-251 -250.5t-91.5 -360.5zM791 559q0 63 31.5 107.5t70.5 60.5v10q-33 16 -59.5 55t-26.5 95q0 86 71.5 147.5t180.5 61.5q111 0 182.5 -61.5t71.5 -147.5q0 -55 -26.5 -94t-59.5 -56v-10q39 -16 70.5 -60t31.5 -108q0 -92 -73.5 -156.5 t-196.5 -64.5q-121 0 -194.5 64.5t-73.5 156.5zM946 569q0 -41 31 -66.5t82 -25.5t81.5 25.5t30.5 66.5t-30.5 67t-81.5 26t-82 -26t-31 -67zM965 874q0 -37 26.5 -59t67.5 -22q43 0 69.5 22.5t26.5 58.5q0 37 -26.5 59.5t-69.5 22.5q-41 0 -67.5 -22.5t-26.5 -59.5z" />
<glyph unicode="&#x2468;" d="M178 717q0 244 116 444.5t316.5 315t448.5 114.5t448.5 -114.5t316 -315t115.5 -444.5t-115.5 -444.5t-316 -315.5t-448.5 -115t-448.5 115t-316.5 315.5t-116 444.5zM356 717q0 -201 91.5 -360.5t251 -251t360.5 -91.5t361.5 91.5t251.5 251t91 360.5t-91 360.5 t-251.5 250.5t-361.5 91t-360.5 -91t-251 -250.5t-91.5 -360.5zM786 831q0 115 77 190t196 75q121 0 197.5 -75t76.5 -187q0 -90 -45 -164l-201 -322h-172l152 242q-10 -2 -33 -2q-100 0 -174 67.5t-74 175.5zM944 834q0 -51 32 -84t83 -33q53 0 85 32.5t32 84.5 q0 51 -33 82.5t-84 31.5t-83 -31.5t-32 -82.5z" />
<glyph unicode="&#x2469;" d="M178 717q0 244 116 444.5t316.5 315t448.5 114.5t448.5 -114.5t316 -315t115.5 -444.5t-115.5 -444.5t-316 -315.5t-448.5 -115t-448.5 115t-316.5 315.5t-116 444.5zM356 717q0 -201 91.5 -360.5t251 -251t360.5 -91.5t361.5 91.5t251.5 251t91 360.5t-91 360.5 t-251.5 250.5t-361.5 91t-360.5 -91t-251 -250.5t-91.5 -360.5zM541 846v147h112q27 0 41.5 14.5t14.5 41.5v36h155v-737h-155v498h-168zM985 717q0 178 83 278.5t210 100.5t210 -100.5t83 -278.5t-83 -278.5t-210 -100.5t-210 100.5t-83 278.5zM1141 717q0 -115 40 -173.5 t97 -58.5t97 58.5t40 173.5t-40 173t-97 58t-97 -58.5t-40 -172.5z" />
<glyph unicode="&#x246a;" d="M178 717q0 244 116 444.5t316.5 315t448.5 114.5t448.5 -114.5t316 -315t115.5 -444.5t-115.5 -444.5t-316 -315.5t-448.5 -115t-448.5 115t-316.5 315.5t-116 444.5zM356 717q0 -201 91.5 -360.5t251 -251t360.5 -91.5t361.5 91.5t251.5 251t91 360.5t-91 360.5 t-251.5 250.5t-361.5 91t-360.5 -91t-251 -250.5t-91.5 -360.5zM627 846v147h112q25 0 39.5 14.5t14.5 41.5v36h157v-737h-157v498h-166zM1073 846v147h113q27 0 41 14.5t14 41.5v36h156v-737h-156v498h-168z" />
<glyph unicode="&#x246b;" d="M178 717q0 244 116 444.5t316.5 315t448.5 114.5t448.5 -114.5t316 -315t115.5 -444.5t-115.5 -444.5t-316 -315.5t-448.5 -115t-448.5 115t-316.5 315.5t-116 444.5zM356 717q0 -201 91.5 -360.5t251 -251t360.5 -91.5t361.5 91.5t251.5 251t91 360.5t-91 360.5 t-251.5 250.5t-361.5 91t-360.5 -91t-251 -250.5t-91.5 -360.5zM565 846v147h113q25 0 39 14.5t14 41.5v36h158v-737h-158v498h-166zM995 854q0 106 72 174t186 68q113 0 181.5 -65.5t68.5 -166.5q0 -70 -22.5 -109.5t-79.5 -95.5l-158 -153v-10h270v-148h-507v133l286 281 q29 29 41.5 50.5t12.5 51.5q0 37 -25 60.5t-68 23.5q-49 0 -75.5 -24.5t-26.5 -69.5h-156z" />
<glyph unicode="&#x246c;" d="M178 717q0 244 116 444.5t316.5 315t448.5 114.5t448.5 -114.5t316 -315t115.5 -444.5t-115.5 -444.5t-316 -315.5t-448.5 -115t-448.5 115t-316.5 315.5t-116 444.5zM356 717q0 -201 91.5 -360.5t251 -251t360.5 -91.5t361.5 91.5t251.5 251t91 360.5t-91 360.5 t-251.5 250.5t-361.5 91t-360.5 -91t-251 -250.5t-91.5 -360.5zM565 846v147h113q25 0 39 14.5t14 41.5v36h158v-737h-158v498h-166zM995 567h156q0 -35 27.5 -58.5t74.5 -23.5q49 0 76 22.5t27 61.5q0 45 -30 69t-83 24h-57v133h57q51 0 77 22.5t26 59.5q0 31 -25 51 t-68 20q-41 0 -66.5 -20.5t-25.5 -50.5h-155q0 92 68.5 155.5t178.5 63.5q111 0 180.5 -60.5t69.5 -150.5q0 -53 -26.5 -93t-61.5 -55v-10q39 -16 68.5 -58t29.5 -100q0 -98 -70.5 -164.5t-189.5 -66.5q-114 0 -186 64.5t-72 164.5z" />
<glyph unicode="&#x246d;" d="M178 717q0 244 116 444.5t316.5 315t448.5 114.5t448.5 -114.5t316 -315t115.5 -444.5t-115.5 -444.5t-316 -315.5t-448.5 -115t-448.5 115t-316.5 315.5t-116 444.5zM356 717q0 -201 91.5 -360.5t251 -251t360.5 -91.5t361.5 91.5t251.5 251t91 360.5t-91 360.5 t-251.5 250.5t-361.5 91t-360.5 -91t-251 -250.5t-91.5 -360.5zM551 846v147h113q27 0 41 14.5t14 41.5v36h155v-737h-155v498h-168zM956 496v129l271 460h225v-450h88v-139h-88v-148h-158v148h-338zM1139 635h155v248h-20l-135 -238v-10z" />
<glyph unicode="&#x246e;" d="M178 717q0 244 116 444.5t316.5 315t448.5 114.5t448.5 -114.5t316 -315t115.5 -444.5t-115.5 -444.5t-316 -315.5t-448.5 -115t-448.5 115t-316.5 315.5t-116 444.5zM356 717q0 -201 91.5 -360.5t251 -251t360.5 -91.5t361.5 91.5t251.5 251t91 360.5t-91 360.5 t-251.5 250.5t-361.5 91t-360.5 -91t-251 -250.5t-91.5 -360.5zM557 846v147h113q27 0 41 14.5t14 41.5v36h158v-737h-158v498h-168zM995 559h156q10 -33 41 -53.5t76 -20.5q47 0 77.5 32t30.5 77q0 49 -30.5 78.5t-77.5 29.5q-78 0 -109 -51h-153l41 434h446v-147h-307 l-15 -123h11q39 29 112 29q100 0 170 -71t70 -179q0 -113 -72.5 -184.5t-193.5 -71.5q-117 0 -186.5 58.5t-86.5 162.5z" />
<glyph unicode="&#x246f;" d="M178 717q0 244 116 444.5t316.5 315t448.5 114.5t448.5 -114.5t316 -315t115.5 -444.5t-115.5 -444.5t-316 -315.5t-448.5 -115t-448.5 115t-316.5 315.5t-116 444.5zM356 717q0 -201 91.5 -360.5t251 -251t360.5 -91.5t361.5 91.5t251.5 251t91 360.5t-91 360.5 t-251.5 250.5t-361.5 91t-360.5 -91t-251 -250.5t-91.5 -360.5zM561 846v147h113q27 0 41 14.5t14 41.5v36h156v-737h-156v498h-168zM991 600q0 90 45 164l201 321h172l-152 -241q8 2 31 2q103 0 176.5 -67.5t73.5 -176.5q0 -115 -77 -189.5t-195 -74.5q-121 0 -198 74.5 t-77 187.5zM1149 600q0 -51 31.5 -83t83.5 -32q51 0 83.5 32t32.5 83q0 53 -31.5 85t-84.5 32q-51 0 -83 -33t-32 -84z" />
<glyph unicode="&#x2470;" d="M178 717q0 244 116 444.5t316.5 315t448.5 114.5t448.5 -114.5t316 -315t115.5 -444.5t-115.5 -444.5t-316 -315.5t-448.5 -115t-448.5 115t-316.5 315.5t-116 444.5zM356 717q0 -201 91.5 -360.5t251 -251t360.5 -91.5t361.5 91.5t251.5 251t91 360.5t-91 360.5 t-251.5 250.5t-361.5 91t-360.5 -91t-251 -250.5t-91.5 -360.5zM586 846v147h112q25 0 39.5 14.5t14.5 41.5v36h157v-737h-157v498h-166zM1018 938v147h485v-137l-252 -600h-164l250 590h-319z" />
<glyph unicode="&#x2471;" d="M178 717q0 244 116 444.5t316.5 315t448.5 114.5t448.5 -114.5t316 -315t115.5 -444.5t-115.5 -444.5t-316 -315.5t-448.5 -115t-448.5 115t-316.5 315.5t-116 444.5zM356 717q0 -201 91.5 -360.5t251 -251t360.5 -91.5t361.5 91.5t251.5 251t91 360.5t-91 360.5 t-251.5 250.5t-361.5 91t-360.5 -91t-251 -250.5t-91.5 -360.5zM561 846v147h113q27 0 41 14.5t14 41.5v36h156v-737h-156v498h-168zM991 559q0 63 32 107.5t71 60.5v10q-33 16 -59.5 55t-26.5 95q0 86 71.5 147.5t182.5 61.5q109 0 180 -61.5t71 -147.5q0 -55 -26.5 -94 t-59.5 -56v-10q39 -16 71 -60t32 -108q0 -92 -74 -156.5t-194 -64.5q-123 0 -197 64.5t-74 156.5zM1149 569q0 -41 30.5 -66.5t82.5 -25.5q51 0 81.5 25.5t30.5 66.5t-30.5 67t-81.5 26t-82 -26t-31 -67zM1165 874q0 -37 27 -59t70 -22q41 0 67.5 22.5t26.5 58.5 q0 37 -26.5 59.5t-67.5 22.5q-43 0 -70 -22.5t-27 -59.5z" />
<glyph unicode="&#x2472;" d="M178 717q0 244 116 444.5t316.5 315t448.5 114.5t448.5 -114.5t316 -315t115.5 -444.5t-115.5 -444.5t-316 -315.5t-448.5 -115t-448.5 115t-316.5 315.5t-116 444.5zM356 717q0 -201 91.5 -360.5t251 -251t360.5 -91.5t361.5 91.5t251.5 251t91 360.5t-91 360.5 t-251.5 250.5t-361.5 91t-360.5 -91t-251 -250.5t-91.5 -360.5zM571 846v147h113q27 0 41 14.5t14 41.5v36h156v-737h-156v498h-168zM1001 831q0 115 77 190t196 75q121 0 197.5 -75t76.5 -187q0 -90 -45 -164l-200 -322h-173l152 242q-10 -2 -33 -2q-100 0 -174 67.5 t-74 175.5zM1159 834q0 -51 32 -84t83 -33q53 0 85 32.5t32 84.5q0 51 -33 82.5t-84 31.5t-83 -31.5t-32 -82.5z" />
<glyph unicode="&#x2473;" d="M178 717q0 244 116 444.5t316.5 315t448.5 114.5t448.5 -114.5t316 -315t115.5 -444.5t-115.5 -444.5t-316 -315.5t-448.5 -115t-448.5 115t-316.5 315.5t-116 444.5zM356 717q0 -201 91.5 -360.5t251 -251t360.5 -91.5t361.5 91.5t251.5 251t91 360.5t-91 360.5 t-251.5 250.5t-361.5 91t-360.5 -91t-251 -250.5t-91.5 -360.5zM496 854q0 106 71.5 174t188.5 68q111 0 180.5 -65.5t69.5 -166.5q0 -70 -22.5 -109.5t-80.5 -95.5l-158 -153v-10h271v-148h-510v133l287 281q29 29 42 50.5t13 51.5q0 37 -24.5 60.5t-67.5 23.5 q-49 0 -76 -24.5t-27 -69.5h-157zM1067 717q0 178 83 278.5t210 100.5t210 -100.5t83 -278.5t-83 -278.5t-210 -100.5t-210 100.5t-83 278.5zM1223 717q0 -115 40 -173.5t97 -58.5t97 58.5t40 173.5t-40 173t-97 58t-97 -58.5t-40 -172.5z" />
<glyph unicode="&#x24ea;" d="M178 717q0 244 116 444.5t316.5 315t448.5 114.5t448.5 -114.5t316 -315t115.5 -444.5t-115.5 -444.5t-316 -315.5t-448.5 -115t-448.5 115t-316.5 315.5t-116 444.5zM356 717q0 -201 91.5 -360.5t251 -251t360.5 -91.5t361.5 91.5t251.5 251t91 360.5t-91 360.5 t-251.5 250.5t-361.5 91t-360.5 -91t-251 -250.5t-91.5 -360.5zM766 717q0 178 83 278.5t210 100.5t211 -100.5t84 -278.5t-84 -278.5t-211 -100.5t-210 100.5t-83 278.5zM924 717q0 -115 40 -173.5t95 -58.5q57 0 97 58.5t40 173.5t-40 173t-97 58q-55 0 -95 -58.5 t-40 -172.5z" />
<glyph unicode="&#x24eb;" d="M178 717q0 244 116 444.5t316.5 315t448.5 114.5t448.5 -114.5t316 -315t115.5 -444.5t-115.5 -444.5t-316 -315.5t-448.5 -115t-448.5 115t-316.5 315.5t-116 444.5zM623 846h168v-498h155v737h-155v-36q0 -27 -14.5 -41.5t-41.5 -14.5h-112v-147zM1069 846h168v-498 h158v737h-158v-36q0 -27 -14.5 -41.5t-40.5 -14.5h-113v-147z" />
<glyph unicode="&#x24ec;" d="M178 717q0 244 116 444.5t316.5 315t448.5 114.5t448.5 -114.5t316 -315t115.5 -444.5t-115.5 -444.5t-316 -315.5t-448.5 -115t-448.5 115t-316.5 315.5t-116 444.5zM565 846h166v-498h158v737h-158v-36q0 -27 -14.5 -41.5t-38.5 -14.5h-113v-147zM995 854h156 q0 45 26.5 69.5t75.5 24.5q43 0 68 -23.5t25 -60.5q0 -31 -12.5 -52t-41.5 -50l-286 -281v-133h507v148h-270v10l158 153q57 55 79.5 95.5t22.5 109.5q0 100 -68.5 166t-181.5 66q-115 0 -186.5 -67.5t-71.5 -174.5z" />
<glyph unicode="&#x24ed;" d="M178 717q0 244 116 444.5t316.5 315t448.5 114.5t448.5 -114.5t316 -315t115.5 -444.5t-115.5 -444.5t-316 -315.5t-448.5 -115t-448.5 115t-316.5 315.5t-116 444.5zM565 846h166v-498h158v737h-158v-36q0 -27 -14.5 -41.5t-38.5 -14.5h-113v-147zM995 567 q0 -100 72 -164.5t186 -64.5q119 0 189.5 66.5t70.5 164.5q0 57 -29.5 99.5t-68.5 58.5v10q35 14 61.5 54t26.5 94q0 90 -69.5 150.5t-180.5 60.5t-179 -63.5t-68 -155.5h155q0 31 25.5 51t66.5 20q43 0 68 -20.5t25 -50.5q0 -37 -26 -59.5t-77 -22.5h-57v-133h57 q53 0 83 -24t30 -69q0 -39 -26.5 -61.5t-76.5 -22.5q-47 0 -74.5 23.5t-27.5 58.5h-156z" />
<glyph unicode="&#x24ee;" d="M178 717q0 244 116 444.5t316.5 315t448.5 114.5t448.5 -114.5t316 -315t115.5 -444.5t-115.5 -444.5t-316 -315.5t-448.5 -115t-448.5 115t-316.5 315.5t-116 444.5zM551 846h168v-498h155v737h-155v-36q0 -27 -14.5 -41.5t-40.5 -14.5h-113v-147zM956 496h338v-148h158 v148h88v139h-88v450h-225l-271 -460v-129zM1139 635v10l135 238h20v-248h-155z" />
<glyph unicode="&#x24ef;" d="M178 717q0 244 116 444.5t316.5 315t448.5 114.5t448.5 -114.5t316 -315t115.5 -444.5t-115.5 -444.5t-316 -315.5t-448.5 -115t-448.5 115t-316.5 315.5t-116 444.5zM557 846h168v-498h158v737h-158v-36q0 -27 -14.5 -41.5t-40.5 -14.5h-113v-147zM995 559 q16 -104 86 -162.5t187 -58.5q121 0 193.5 71.5t72.5 184.5q0 109 -69.5 179.5t-170.5 70.5q-74 0 -112 -29h-11l15 123h307v147h-446l-41 -434h153q31 51 109 51q47 0 77.5 -29.5t30.5 -78.5q0 -45 -30.5 -77t-77.5 -32q-45 0 -76 20.5t-41 53.5h-156z" />
<glyph unicode="&#x24f0;" d="M178 717q0 244 116 444.5t316.5 315t448.5 114.5t448.5 -114.5t316 -315t115.5 -444.5t-115.5 -444.5t-316 -315.5t-448.5 -115t-448.5 115t-316.5 315.5t-116 444.5zM561 846h168v-498h156v737h-156v-36q0 -27 -14.5 -41.5t-40.5 -14.5h-113v-147zM991 600 q0 -113 77 -187.5t196 -74.5q120 0 197 74.5t77 189.5q0 104 -69.5 173t-165.5 69q-12 0 -46 -4h-6l160 245h-174l-199 -313q-47 -82 -47 -172zM1149 600q0 51 31.5 84t83.5 33q53 0 84.5 -32t31.5 -85q0 -51 -32.5 -83t-83.5 -32q-52 0 -83.5 32t-31.5 83z" />
<glyph unicode="&#x24f1;" d="M178 717q0 244 116 444.5t316.5 315t448.5 114.5t448.5 -114.5t316 -315t115.5 -444.5t-115.5 -444.5t-316 -315.5t-448.5 -115t-448.5 115t-316.5 315.5t-116 444.5zM586 846h166v-498h157v737h-157v-36q0 -27 -14.5 -41.5t-39.5 -14.5h-112v-147zM1018 938h319 l-250 -590h164l252 600v137h-485v-147z" />
<glyph unicode="&#x24f2;" d="M178 717q0 244 116 444.5t316.5 315t448.5 114.5t448.5 -114.5t316 -315t115.5 -444.5t-115.5 -444.5t-316 -315.5t-448.5 -115t-448.5 115t-316.5 315.5t-116 444.5zM561 846h168v-498h156v737h-156v-36q0 -27 -14.5 -41.5t-40.5 -14.5h-113v-147zM991 559 q0 -92 74 -156.5t197 -64.5q120 0 194 64.5t74 156.5q0 63 -32 107.5t-71 60.5v10q33 16 59.5 55t26.5 95q0 86 -71.5 147.5t-179.5 61.5q-111 0 -182.5 -61.5t-71.5 -147.5q0 -55 26.5 -94t59.5 -56v-10q-39 -16 -71 -60t-32 -108zM1149 569q0 41 30.5 67t82.5 26 q51 0 81.5 -26t30.5 -67t-30.5 -66.5t-81.5 -25.5q-52 0 -82.5 25.5t-30.5 66.5zM1165 874q0 37 27 59.5t70 22.5q41 0 67.5 -22.5t26.5 -59.5t-26.5 -59t-67.5 -22q-43 0 -70 22.5t-27 58.5z" />
<glyph unicode="&#x24f3;" d="M178 717q0 244 116 444.5t316.5 315t448.5 114.5t448.5 -114.5t316 -315t115.5 -444.5t-115.5 -444.5t-316 -315.5t-448.5 -115t-448.5 115t-316.5 315.5t-116 444.5zM571 846h168v-498h156v737h-156v-36q0 -27 -14 -41.5t-41 -14.5h-113v-147zM1001 831 q0 -104 70 -172.5t166 -68.5q12 0 45 4h6l-160 -246h175l196 314q49 78 49 172q0 113 -76.5 187.5t-197.5 74.5q-119 0 -196 -75t-77 -190zM1159 834q0 51 32 82.5t83 31.5t84 -31.5t33 -82.5t-32 -84t-85 -33q-51 0 -83 32.5t-32 84.5z" />
<glyph unicode="&#x24f4;" d="M178 717q0 244 116 444.5t316.5 315t448.5 114.5t448.5 -114.5t316 -315t115.5 -444.5t-115.5 -444.5t-316 -315.5t-448.5 -115t-448.5 115t-316.5 315.5t-116 444.5zM496 854h157q0 45 27 69.5t76 24.5q43 0 67.5 -23.5t24.5 -60.5q0 -31 -13.5 -52t-41.5 -50l-287 -281 v-133h510v148h-271v10l158 153q57 55 80 95.5t23 109.5q0 100 -70 166t-180 66q-117 0 -188.5 -67.5t-71.5 -174.5zM1067 717q0 -178 83 -278.5t210 -100.5t210 100.5t83 278.5t-83 278.5t-210 100.5t-210 -100.5t-83 -278.5zM1223 717q0 115 40 173t97 58t97 -58.5 t40 -172.5q0 -115 -40 -173.5t-97 -58.5t-97 58.5t-40 173.5z" />
<glyph unicode="&#x24ff;" d="M178 717q0 244 116 444.5t316.5 315t448.5 114.5t448.5 -114.5t316 -315t115.5 -444.5t-115.5 -444.5t-316 -315.5t-448.5 -115t-448.5 115t-316.5 315.5t-116 444.5zM766 717q0 -178 83 -278.5t210 -100.5t211 100.5t84 278.5t-84 278.5t-211 100.5t-210 -100.5 t-83 -278.5zM924 717q0 115 40 173t95 58q57 0 97 -58.5t40 -172.5q0 -115 -40 -173.5t-97 -58.5q-55 0 -95 58.5t-40 173.5z" />
<glyph unicode="&#x25fc;" horiz-adv-x="1034" d="M0 0v1034h1034v-1034h-1034z" />
<glyph unicode="&#x2776;" d="M178 717q0 244 116 444.5t316.5 315t448.5 114.5t448.5 -114.5t316 -315t115.5 -444.5t-115.5 -444.5t-316 -315.5t-448.5 -115t-448.5 115t-316.5 315.5t-116 444.5zM844 846h168v-498h155v737h-155v-36q0 -27 -14.5 -41.5t-41.5 -14.5h-112v-147z" />
<glyph unicode="&#x2777;" d="M178 717q0 244 116 444.5t316.5 315t448.5 114.5t448.5 -114.5t316 -315t115.5 -444.5t-115.5 -444.5t-316 -315.5t-448.5 -115t-448.5 115t-316.5 315.5t-116 444.5zM801 854h155q0 45 27 69.5t76 24.5q43 0 67.5 -23.5t24.5 -60.5q0 -31 -12.5 -52t-40.5 -50l-287 -281 v-133h508v148h-270v10l157 153q57 55 80 95.5t23 109.5q0 100 -69 166t-181 66q-115 0 -186.5 -67.5t-71.5 -174.5z" />
<glyph unicode="&#x2778;" d="M178 717q0 244 116 444.5t316.5 315t448.5 114.5t448.5 -114.5t316 -315t115.5 -444.5t-115.5 -444.5t-316 -315.5t-448.5 -115t-448.5 115t-316.5 315.5t-116 444.5zM801 567q0 -100 71.5 -164.5t186.5 -64.5q119 0 189.5 66.5t70.5 164.5q0 57 -29.5 99.5t-68.5 58.5 v10q35 14 61.5 54t26.5 94q0 90 -70 150.5t-180 60.5q-111 0 -179.5 -63.5t-68.5 -155.5h156q0 31 25.5 51t66.5 20q43 0 67.5 -20.5t24.5 -50.5q0 -37 -25.5 -59.5t-76.5 -22.5h-58v-133h58q53 0 82.5 -24t29.5 -69q0 -39 -26.5 -61.5t-75.5 -22.5q-47 0 -75 23.5t-28 58.5 h-155z" />
<glyph unicode="&#x2779;" d="M178 717q0 244 116 444.5t316.5 315t448.5 114.5t448.5 -114.5t316 -315t115.5 -444.5t-115.5 -444.5t-316 -315.5t-448.5 -115t-448.5 115t-316.5 315.5t-116 444.5zM729 496h338v-148h156v148h90v139h-90v450h-226l-268 -460v-129zM909 635v10l138 238h20v-248h-158z " />
<glyph unicode="&#x277a;" d="M178 717q0 244 116 444.5t316.5 315t448.5 114.5t448.5 -114.5t316 -315t115.5 -444.5t-115.5 -444.5t-316 -315.5t-448.5 -115t-448.5 115t-316.5 315.5t-116 444.5zM793 559q16 -104 86.5 -162.5t187.5 -58.5q121 0 193.5 71.5t72.5 184.5q0 109 -69.5 179.5 t-169.5 70.5q-74 0 -113 -29h-10l14 123h307v147h-448l-41 -434h153q35 51 111 51q47 0 78 -29.5t31 -78.5q0 -45 -31 -77t-78 -32q-45 0 -75.5 20.5t-41.5 53.5h-157z" />
<glyph unicode="&#x277b;" d="M178 717q0 244 116 444.5t316.5 315t448.5 114.5t448.5 -114.5t316 -315t115.5 -444.5t-115.5 -444.5t-316 -315.5t-448.5 -115t-448.5 115t-316.5 315.5t-116 444.5zM786 600q0 -113 77 -187.5t196 -74.5q121 0 197.5 74.5t76.5 189.5q0 104 -69.5 173t-165.5 69 q-12 0 -45 -4h-6l159 245h-174l-198 -313q-47 -82 -48 -172zM944 600q0 51 32 84t83 33q53 0 85 -32t32 -85q0 -51 -33 -83t-84 -32t-83 32t-32 83z" />
<glyph unicode="&#x277c;" d="M178 717q0 244 116 444.5t316.5 315t448.5 114.5t448.5 -114.5t316 -315t115.5 -444.5t-115.5 -444.5t-316 -315.5t-448.5 -115t-448.5 115t-316.5 315.5t-116 444.5zM823 938h320l-250 -590h164l252 600v137h-486v-147z" />
<glyph unicode="&#x277d;" d="M178 717q0 244 116 444.5t316.5 315t448.5 114.5t448.5 -114.5t316 -315t115.5 -444.5t-115.5 -444.5t-316 -315.5t-448.5 -115t-448.5 115t-316.5 315.5t-116 444.5zM791 559q0 -92 73.5 -156.5t194.5 -64.5q123 0 196.5 64.5t73.5 156.5q0 63 -31.5 107.5t-70.5 60.5 v10q33 16 59.5 55t26.5 95q0 86 -72 147.5t-182 61.5q-109 0 -180.5 -61.5t-71.5 -147.5q0 -55 26.5 -94t59.5 -56v-10q-39 -16 -70.5 -60t-31.5 -108zM946 569q0 41 31 67t82 26t81.5 -26t30.5 -67t-30.5 -66.5t-81.5 -25.5t-82 25.5t-31 66.5zM965 874q0 37 26.5 59.5 t67.5 22.5q43 0 69.5 -22.5t26.5 -59.5t-26.5 -59t-69.5 -22q-41 0 -67.5 22.5t-26.5 58.5z" />
<glyph unicode="&#x277e;" d="M178 717q0 244 116 444.5t316.5 315t448.5 114.5t448.5 -114.5t316 -315t115.5 -444.5t-115.5 -444.5t-316 -315.5t-448.5 -115t-448.5 115t-316.5 315.5t-116 444.5zM786 831q0 -104 70 -172.5t166 -68.5q12 0 45 4h6l-160 -246h174l197 314q49 78 49 172 q0 113 -76.5 187.5t-197.5 74.5q-119 0 -196 -75t-77 -190zM944 834q0 51 32 82.5t83 31.5t84 -31.5t33 -82.5t-32 -84t-85 -33q-51 0 -83 32.5t-32 84.5z" />
<glyph unicode="&#x277f;" d="M178 717q0 244 116 444.5t316.5 315t448.5 114.5t448.5 -114.5t316 -315t115.5 -444.5t-115.5 -444.5t-316 -315.5t-448.5 -115t-448.5 115t-316.5 315.5t-116 444.5zM541 846h168v-498h155v737h-155v-36q0 -27 -14.5 -41.5t-41.5 -14.5h-112v-147zM985 717 q0 -178 83 -278.5t210 -100.5t210 100.5t83 278.5t-83 278.5t-210 100.5t-210 -100.5t-83 -278.5zM1141 717q0 115 40 173t97 58t97 -58.5t40 -172.5q0 -115 -40 -173.5t-97 -58.5t-97 58.5t-40 173.5z" />
<glyph unicode="&#xf730;" horiz-adv-x="1255" d="M74 449q0 172 82 311t220 219t300 80q150 0 264.5 -61.5t178 -169t63.5 -240.5q0 -172 -82 -310.5t-220.5 -218t-299.5 -79.5q-150 0 -264.5 61t-178 167.5t-63.5 240.5zM330 475q0 -113 74.5 -185.5t189.5 -72.5q84 0 160.5 46t124 125t47.5 173q0 113 -75 186.5 t-189 73.5q-84 0 -161 -46t-124 -125t-47 -175z" />
<glyph unicode="&#xf731;" horiz-adv-x="735" d="M80 641l41 233h211q72 0 84 72l14 92h256l-182 -1038h-256l112 641h-280z" />
<glyph unicode="&#xf732;" horiz-adv-x="1081" d="M-6 0l35 207l608 358q59 35 85 66t26 69q0 49 -47.5 84t-127.5 35q-88 0 -144 -44t-69 -103h-258q27 170 154 278.5t332 108.5q135 0 234.5 -45t150.5 -119t51 -158t-29.5 -142t-84 -102t-152.5 -100l-254 -149l-2 -11h440l-41 -233h-907z" />
<glyph unicode="&#xf733;" horiz-adv-x="1132" d="M-33 29h266q0 -98 60.5 -151.5t167.5 -53.5q106 0 176 62.5t70 158.5q0 76 -57.5 129t-145.5 53h-105l39 226h137q98 0 160 55t62 141q0 72 -55.5 118t-145.5 46q-88 0 -151.5 -51t-73.5 -121h-267q16 119 85 214t179.5 149.5t247.5 54.5q135 0 236.5 -50.5t157 -134 t55.5 -182.5q0 -150 -81 -242t-183 -122v-11q68 -33 118 -104.5t50 -173.5q0 -123 -65.5 -227.5t-184.5 -166t-273 -61.5q-149 0 -259.5 54.5t-168 155t-51.5 235.5z" />
<glyph unicode="&#xf734;" horiz-adv-x="1148" d="M-59 -10l41 231l653 817h405l-143 -811h164l-41 -237h-164l-70 -385h-258l68 385h-655zM287 227h350l90 506h-39l-399 -495z" />
<glyph unicode="&#xf735;" horiz-adv-x="1155" d="M-4 8h252q10 -82 71.5 -134t157.5 -52q76 0 139.5 39t99.5 103.5t36 141.5q0 94 -62.5 153.5t-161.5 59.5q-74 0 -130 -31.5t-91 -76.5h-260l227 827h818l-43 -243h-594l-88 -306h10q98 59 213 60q121 0 217 -53.5t150.5 -148.5t54.5 -218q0 -156 -72 -279.5t-197 -194.5 t-276 -71q-213 0 -342 115t-129 309z" />
<glyph unicode="&#xf736;" horiz-adv-x="1200" d="M68 428q0 119 42 209t107 170l526 627h310l-410 -486h39q121 0 220 -52t157.5 -148.5t58.5 -219.5q0 -152 -76.5 -277.5t-208 -198t-282.5 -72.5q-139 0 -250 58t-172 160.5t-61 229.5zM322 440q0 -92 69.5 -156.5t179.5 -64.5q80 0 147.5 39t107.5 103.5t40 140.5 q0 94 -68.5 158.5t-179.5 64.5q-80 0 -148.5 -39t-108 -104.5t-39.5 -141.5z" />
<glyph unicode="&#xf737;" horiz-adv-x="1052" d="M37 -395l698 1177h-624l43 256h940l-39 -229l-711 -1204h-307z" />
<glyph unicode="&#xf738;" horiz-adv-x="1155" d="M68 371q0 109 41 190.5t101 129.5t118 65l2 10q-51 35 -88 101.5t-37 152.5q0 117 64.5 216t179 158.5t253.5 59.5q137 0 239.5 -50t157 -134t54.5 -185q0 -145 -74.5 -236t-171.5 -130l-2 -10q57 -31 100.5 -100.5t43.5 -164.5q0 -127 -68 -233.5t-186.5 -168.5 t-264.5 -62q-139 0 -244.5 52t-161.5 142t-56 197zM315 401q0 -82 61.5 -137t170.5 -55q112 0 185 67.5t73 165.5q0 84 -61.5 139.5t-172.5 55.5t-183.5 -68.5t-72.5 -167.5zM455 1020q0 -76 57 -127t154 -51q98 0 165.5 61.5t67.5 143.5q0 76 -57.5 128t-153.5 52 q-98 0 -165.5 -61.5t-67.5 -145.5z" />
<glyph unicode="&#xf739;" horiz-adv-x="1200" d="M82 510q0 152 77 277.5t208 198.5t282 73q139 0 250 -59.5t172.5 -162t61.5 -229.5q0 -117 -42 -207t-108 -170l-526 -626h-310l408 485q-10 -2 -37 -2q-119 0 -219 53.5t-158.5 149.5t-58.5 219zM334 537q0 -94 68.5 -159t179.5 -65q80 0 148.5 39t108.5 103.5t40 140.5 q0 94 -70 158.5t-180 64.5q-80 0 -147.5 -39t-107.5 -103.5t-40 -139.5z" />
<glyph horiz-adv-x="1425" d="M59 0l252 1434h275l-254 -1434h-273zM350 1577l250 297h268l-297 -297h-221zM503 0l47 262h332q41 0 67.5 25.5t35.5 74.5l188 1072h274l-206 -1160q-47 -274 -308 -274h-430zM1208 1577l250 297h268l-297 -297h-221z" />
<glyph horiz-adv-x="516" d="M39 0l182 1038h256l-182 -1038h-256zM250 1317q0 66 46 111t112 45q61 0 102 -36t41 -96q0 -66 -45 -110.5t-111 -44.5q-59 0 -102 37t-43 94z" />
<glyph horiz-adv-x="1030" d="M39 0l182 1038h256l-182 -1038h-256zM256 -410l41 236h168q31 0 47 15.5t22 49.5l203 1147h256l-215 -1220q-18 -104 -90 -166t-188 -62h-244zM256 1186l250 295h269l-297 -295h-222zM768 1186l250 295h269l-297 -295h-222z" />
<glyph horiz-adv-x="1222" d="M-88 0l639 1208h383l213 -1208h-287l-35 236h-489l-119 -236h-305zM459 477h329l-67 441h-41z" />
<glyph horiz-adv-x="1224" d="M59 0l213 1208h580q139 0 227 -84t88 -211q0 -109 -56 -193.5t-122 -115.5l-2 -10q43 -27 75 -83t32 -128q0 -106 -52.5 -194.5t-144.5 -138.5t-205 -50h-633zM373 238h305q63 0 103 39.5t40 107.5q0 49 -30.5 80t-81.5 31h-291zM459 723h295q61 0 101 38t40 101 q0 49 -29.5 79t-87.5 30h-276z" />
<glyph horiz-adv-x="1331" d="M94 522q0 197 94.5 358.5t249 255t328.5 93.5q137 0 249.5 -57.5t184.5 -163t88 -242.5h-274q-29 90 -96.5 145.5t-174.5 55.5q-98 0 -185 -54.5t-140 -150.5t-53 -215q0 -133 83.5 -219t210.5 -86q106 0 188.5 58t123.5 149h276q-43 -133 -135 -241t-216 -168t-263 -60 q-156 0 -279 70.5t-191.5 194.5t-68.5 277z" />
<glyph horiz-adv-x="1290" d="M59 0l213 1208h443q141 0 258 -68.5t184.5 -189.5t67.5 -270q0 -186 -91.5 -343t-246 -247t-336.5 -90h-492zM377 262h207q98 0 183 52.5t136 142.5t51 198q0 125 -78.5 208t-197.5 83h-180z" />
<glyph horiz-adv-x="1103" d="M59 0l213 1208h854l-43 -250h-583l-41 -231h542l-43 -242h-540l-41 -235h581l-45 -250h-854z" />
<glyph horiz-adv-x="1073" d="M59 0l213 1208h844l-45 -250h-571l-41 -237h524l-43 -244h-524l-84 -477h-273z" />
<glyph horiz-adv-x="1372" d="M94 522q0 197 94.5 358.5t249 255t328.5 93.5q139 0 248.5 -55.5t176 -150.5t83.5 -214h-283q-27 76 -89 117t-159 41q-98 0 -185 -54.5t-140 -150.5t-53 -215q0 -133 83.5 -219t210.5 -86q109 0 194 58t114 157h-279l33 188h565l-112 -645h-205l2 113h-13 q-53 -55 -137 -94t-190 -39q-154 0 -277 69.5t-191.5 193.5t-68.5 279z" />
<glyph horiz-adv-x="1325" d="M59 0l213 1208h275l-82 -460h477l80 460h274l-213 -1208h-274l82 471h-477l-80 -471h-275z" />
<glyph horiz-adv-x="571" d="M59 0l213 1208h271l-213 -1208h-271z" />
<glyph horiz-adv-x="774" d="M-72 0l47 260h271q70 0 84 76l153 872h273l-170 -956q-45 -252 -285 -252h-373z" />
<glyph horiz-adv-x="1116" d="M59 0l213 1208h273l-94 -522l462 522h334l-538 -610l338 -598h-312l-309 543l-94 -543h-273z" />
<glyph horiz-adv-x="997" d="M59 0l213 1208h271l-166 -948h563l-45 -260h-836z" />
<glyph horiz-adv-x="1685" d="M59 0l213 1208h414l113 -762h41l385 762h432l-213 -1208h-273l132 748h-41l-383 -748h-254l-121 748h-41l-131 -748h-273z" />
<glyph horiz-adv-x="1337" d="M59 0l213 1208h340l248 -743h45l131 743h273l-213 -1208h-340l-250 743h-43l-131 -743h-273z" />
<glyph horiz-adv-x="1368" d="M94 520q0 199 94.5 361.5t249 255t328.5 92.5q154 0 275.5 -69.5t191.5 -193.5t70 -278q0 -201 -93.5 -362.5t-248 -253.5t-328.5 -92q-154 0 -277 69.5t-192.5 193.5t-69.5 277zM365 547q0 -131 82.5 -218t207.5 -87q97 0 184 54t140 150.5t53 215.5q0 131 -83 218 t-208 87q-96 0 -183 -54.5t-140 -150.5t-53 -215z" />
<glyph horiz-adv-x="1212" d="M59 0l213 1208h551q100 0 181 -46t127.5 -127t46.5 -185q0 -139 -61.5 -248.5t-165 -171t-226.5 -61.5h-330l-63 -369h-273zM442 631h295q70 0 119 51t49 129q0 59 -38 97t-101 38h-268z" />
<glyph horiz-adv-x="1368" d="M94 520q0 199 94.5 361.5t249 255t328.5 92.5q154 0 275.5 -69.5t191.5 -193.5t70 -278q0 -170 -69 -314.5t-187 -240.5l159 -225h-295l-75 106q-100 -35 -203 -34q-154 0 -277 69.5t-192.5 193.5t-69.5 277zM367 547q0 -133 81.5 -220t206.5 -87q18 0 56 4l-133 180h280 l53 -72q55 59 88 138t33 172q0 133 -83 220t-208 87q-96 0 -183 -54.5t-139 -150.5t-52 -217z" />
<glyph horiz-adv-x="1232" d="M59 2l213 1206h557q98 0 178 -48t126.5 -129t46.5 -175q0 -135 -61.5 -238.5t-160 -159t-202.5 -57.5l315 -399h-313l-295 387h-64l-69 -387h-271zM444 639h293q72 0 122 51t50 129q0 59 -37.5 96t-99.5 37h-272z" />
<glyph horiz-adv-x="1157" d="M49 393h275q0 -86 63.5 -129t169.5 -43q102 0 156.5 42t54.5 99q0 86 -147 117l-140 31q-317 68 -317 305q0 115 56 209t164 149.5t257 55.5q229 0 354 -109.5t117 -304.5h-272q4 78 -51.5 125t-163.5 47q-94 0 -141.5 -39t-47.5 -96q0 -86 150 -117l125 -24 q170 -35 249.5 -118t79.5 -196q0 -119 -60 -214t-172 -149t-263 -54q-232 0 -368 108.5t-128 304.5z" />
<glyph horiz-adv-x="1071" d="M121 946l45 262h983l-47 -262h-357l-165 -946h-273l168 946h-354z" />
<glyph horiz-adv-x="1296" d="M131 424q0 70 10 123l117 661h272l-120 -686q-6 -31 -7 -59q0 -96 57.5 -157.5t153.5 -61.5t171 65.5t96 173.5l129 725h272l-133 -751q-39 -221 -189.5 -349t-359.5 -128q-219 0 -344 119.5t-125 324.5z" />
<glyph horiz-adv-x="1208" d="M119 1208h284l125 -866h41l435 866h309l-613 -1208h-395z" />
<glyph horiz-adv-x="1734" d="M129 1208h285l39 -743h41l323 743h313l60 -743h41l303 743h307l-512 -1208h-350l-59 733h-41l-316 -733h-348z" />
<glyph horiz-adv-x="1140" d="M-104 0l518 625l-275 583h295l160 -368h41l291 368h319l-483 -583l301 -625h-295l-186 403h-41l-326 -403h-319z" />
<glyph horiz-adv-x="1120" d="M90 1208h293l170 -491h41l342 491h315l-583 -792l-74 -416h-272l73 416z" />
<glyph horiz-adv-x="1107" d="M-12 0l43 242l682 704h-549l47 262h930l-45 -241l-676 -705h563l-45 -262h-950z" />
<glyph horiz-adv-x="1222" d="M-88 0l639 1208h383l213 -1208h-287l-35 236h-489l-119 -236h-305zM459 477h329l-67 441h-41zM643 1352l250 297h268l-297 -297h-221z" />
<glyph horiz-adv-x="1222" d="M-88 0l639 1208h383l213 -1208h-287l-35 236h-489l-119 -236h-305zM407 1352l297 293h229l195 -293h-227l-97 152l-149 -152h-248zM459 477h329l-67 441h-41z" />
<glyph horiz-adv-x="1222" d="M-88 0l639 1208h383l213 -1208h-287l-35 236h-489l-119 -236h-305zM459 477h329l-67 441h-41zM461 1485q0 70 44 115t109 45q61 0 97.5 -36t36.5 -91q0 -70 -44 -115t-110 -45q-61 0 -97 36t-36 91zM844 1485q0 70 44 115t109 45q61 0 97.5 -36t36.5 -91 q0 -70 -44.5 -115t-109.5 -45q-61 0 -97 36t-36 91z" />
<glyph horiz-adv-x="1222" d="M-88 0l639 1208h383l213 -1208h-287l-35 236h-489l-119 -236h-305zM459 477h329l-67 441h-41zM467 1649h263l145 -297h-215z" />
<glyph horiz-adv-x="1222" d="M-88 0l639 1208h383l213 -1208h-287l-35 236h-489l-119 -236h-305zM459 477h329l-67 441h-41zM570 1501q0 92 66.5 158t158.5 66q86 0 140.5 -53.5t54.5 -133.5q0 -94 -66.5 -159.5t-161.5 -65.5q-84 0 -138 54.5t-54 133.5zM697 1510q0 -31 22.5 -51.5t55.5 -20.5 q34 0 60 25.5t26 64.5q0 31 -22.5 50.5t-53.5 19.5q-35 0 -61.5 -24.5t-26.5 -63.5z" />
<glyph horiz-adv-x="1222" d="M-88 0l639 1208h383l213 -1208h-287l-35 236h-489l-119 -236h-305zM430 1372q20 121 90 186.5t168 65.5q37 0 63.5 -11t65.5 -34q51 -35 84 -35q31 0 54.5 21.5t31.5 58.5h172q-20 -119 -91 -185.5t-169 -66.5q-39 0 -65.5 12.5t-63.5 35.5q-51 35 -84 34 q-29 0 -53.5 -21.5t-32.5 -60.5h-170zM459 477h329l-67 441h-41z" />
<glyph horiz-adv-x="1712" d="M-123 0l748 1208h1112l-45 -250h-576l-41 -231h535l-43 -242h-535l-41 -237h576l-43 -248h-848l45 260h-375l-158 -260h-311zM483 487h279l84 476h-76z" />
<glyph horiz-adv-x="1331" d="M94 522q0 197 94.5 358.5t249 255t328.5 93.5q137 0 249.5 -57.5t184.5 -163t88 -242.5h-274q-29 90 -96.5 145.5t-174.5 55.5q-98 0 -185 -54.5t-140 -150.5t-53 -215q0 -133 83.5 -219t210.5 -86q107 0 189 58t123 149h276q-61 -190 -214.5 -319.5t-344.5 -147.5 l-51 -78q47 -14 82 -54t35 -102q0 -90 -66.5 -148.5t-171.5 -58.5h-149l22 152h105q39 0 61.5 20.5t22.5 53.5q0 25 -20.5 40t-59.5 15h-54l15 82l55 88q-125 25 -220 99.5t-147.5 186t-52.5 244.5z" />
<glyph horiz-adv-x="1314" d="M25 508l36 209h150l88 491h442q141 0 258 -68.5t184.5 -189.5t67.5 -270q0 -186 -91 -343t-245.5 -247t-336.5 -90h-494l90 508h-149zM401 262h209q98 0 183.5 52.5t136.5 142.5t51 198q0 125 -79 208t-200 83h-180l-41 -229h246l-37 -209h-246z" />
<glyph horiz-adv-x="1103" d="M59 0l213 1208h854l-43 -250h-583l-41 -231h542l-43 -242h-540l-41 -235h581l-45 -250h-854zM594 1352l250 297h268l-297 -297h-221z" />
<glyph horiz-adv-x="1103" d="M59 0l213 1208h854l-43 -250h-583l-41 -231h542l-43 -242h-540l-41 -235h581l-45 -250h-854zM358 1352l297 293h229l195 -293h-227l-97 152l-149 -152h-248z" />
<glyph horiz-adv-x="1103" d="M59 0l213 1208h854l-43 -250h-583l-41 -231h542l-43 -242h-540l-41 -235h581l-45 -250h-854zM414 1485q0 70 44 115t109 45q61 0 97.5 -36t36.5 -91q0 -70 -44 -115t-110 -45q-61 0 -97 36t-36 91zM797 1485q0 70 44 115t109 45q61 0 97.5 -36t36.5 -91q0 -70 -44.5 -115 t-109.5 -45q-61 0 -97 36t-36 91z" />
<glyph horiz-adv-x="1103" d="M59 0l213 1208h854l-43 -250h-583l-41 -231h542l-43 -242h-540l-41 -235h581l-45 -250h-854zM417 1649h263l145 -297h-215z" />
<glyph horiz-adv-x="571" d="M59 0l213 1208h271l-213 -1208h-271zM303 1352l250 297h268l-297 -297h-221z" />
<glyph horiz-adv-x="571" d="M59 0l213 1208h271l-213 -1208h-271zM68 1352l297 293h229l195 -293h-227l-97 152l-149 -152h-248z" />
<glyph horiz-adv-x="571" d="M59 0l213 1208h271l-213 -1208h-271zM123 1485q0 70 44 115t109 45q61 0 97.5 -36t36.5 -91q0 -70 -44 -115t-110 -45q-61 0 -97 36t-36 91zM506 1485q0 70 44 115t109 45q61 0 97.5 -36t36.5 -91q0 -70 -44.5 -115t-109.5 -45q-61 0 -97 36t-36 91z" />
<glyph horiz-adv-x="571" d="M59 0l213 1208h271l-213 -1208h-271zM127 1649h263l145 -297h-215z" />
<glyph horiz-adv-x="1345" d="M59 0l213 1208h271l-213 -1208h-271zM499 0l47 260h271q70 0 84 76l153 872h273l-170 -956q-45 -252 -285 -252h-373z" />
<glyph horiz-adv-x="1345" d="M59 0l213 1208h271l-213 -1208h-271zM303 1352l250 297h268l-297 -297h-221zM499 0l47 260h271q70 0 84 76l153 872h273l-170 -956q-45 -252 -285 -252h-373zM1087 1352l250 297h268l-297 -297h-221z" />
<glyph horiz-adv-x="997" d="M59 0l213 1208h271l-166 -948h563l-45 -260h-836zM670 700q0 68 49 118t117 50q61 0 101 -39t40 -100q0 -68 -49 -118t-117 -50q-61 0 -101 39t-40 100z" />
<glyph horiz-adv-x="1337" d="M59 0l213 1208h340l248 -743h45l131 743h273l-213 -1208h-340l-250 743h-43l-131 -743h-273zM483 1372q20 121 90 186.5t168 65.5q37 0 63.5 -11t65.5 -34q51 -35 84 -35q31 0 54.5 21.5t31.5 58.5h172q-20 -119 -91 -185.5t-169 -66.5q-39 0 -65.5 12.5t-63.5 35.5 q-51 35 -84 34q-29 0 -53.5 -21.5t-32.5 -60.5h-170z" />
<glyph horiz-adv-x="1368" d="M94 520q0 199 94.5 361.5t249 255t328.5 92.5q154 0 275.5 -69.5t191.5 -193.5t70 -278q0 -201 -93.5 -362.5t-248 -253.5t-328.5 -92q-154 0 -277 69.5t-192.5 193.5t-69.5 277zM365 547q0 -131 82.5 -218t207.5 -87q97 0 184 54t140 150.5t53 215.5q0 131 -83 218 t-208 87q-96 0 -183 -54.5t-140 -150.5t-53 -215zM707 1352l250 297h268l-297 -297h-221z" />
<glyph horiz-adv-x="1368" d="M94 520q0 199 94.5 361.5t249 255t328.5 92.5q154 0 275.5 -69.5t191.5 -193.5t70 -278q0 -201 -93.5 -362.5t-248 -253.5t-328.5 -92q-154 0 -277 69.5t-192.5 193.5t-69.5 277zM365 547q0 -131 82.5 -218t207.5 -87q97 0 184 54t140 150.5t53 215.5q0 131 -83 218 t-208 87q-96 0 -183 -54.5t-140 -150.5t-53 -215zM469 1352l297 293h229l195 -293h-227l-97 152l-149 -152h-248z" />
<glyph horiz-adv-x="1368" d="M94 520q0 199 94.5 361.5t249 255t328.5 92.5q154 0 275.5 -69.5t191.5 -193.5t70 -278q0 -201 -93.5 -362.5t-248 -253.5t-328.5 -92q-154 0 -277 69.5t-192.5 193.5t-69.5 277zM365 547q0 -131 82.5 -218t207.5 -87q97 0 184 54t140 150.5t53 215.5q0 131 -83 218 t-208 87q-96 0 -183 -54.5t-140 -150.5t-53 -215zM524 1485q0 70 44 115t109 45q61 0 97.5 -36t36.5 -91q0 -70 -44 -115t-110 -45q-61 0 -97 36t-36 91zM907 1485q0 70 44 115t109 45q61 0 97.5 -36t36.5 -91q0 -70 -44.5 -115t-109.5 -45q-61 0 -97 36t-36 91z" />
<glyph horiz-adv-x="1368" d="M94 520q0 199 94.5 361.5t249 255t328.5 92.5q154 0 275.5 -69.5t191.5 -193.5t70 -278q0 -201 -93.5 -362.5t-248 -253.5t-328.5 -92q-154 0 -277 69.5t-192.5 193.5t-69.5 277zM365 547q0 -131 82.5 -218t207.5 -87q97 0 184 54t140 150.5t53 215.5q0 131 -83 218 t-208 87q-96 0 -183 -54.5t-140 -150.5t-53 -215zM528 1649h263l145 -297h-215z" />
<glyph horiz-adv-x="1368" d="M94 520q0 199 94.5 361.5t249 255t328.5 92.5q117 0 223 -45l62 86h247l-143 -199q70 -74 109 -172t39 -211q0 -201 -93.5 -362.5t-248 -253.5t-328.5 -92q-119 0 -225 45l-62 -86h-248l144 198q-70 74 -109 172.5t-39 210.5zM358 545q1 -100 48 -176l425 594 q-43 12 -88 12q-100 0 -188 -55.5t-142.5 -153.5t-54.5 -221zM565 246q43 -12 88 -13q99 0 188 56.5t143 154t54 218.5q0 98 -47 178z" />
<glyph horiz-adv-x="1368" d="M94 520q0 199 94.5 361.5t249 255t328.5 92.5q154 0 275.5 -69.5t191.5 -193.5t70 -278q0 -201 -93.5 -362.5t-248 -253.5t-328.5 -92q-154 0 -277 69.5t-192.5 193.5t-69.5 277zM365 547q0 -131 82.5 -218t207.5 -87q97 0 184 54t140 150.5t53 215.5q0 131 -83 218 t-208 87q-96 0 -183 -54.5t-140 -150.5t-53 -215zM494 1372q20 121 90 186.5t168 65.5q37 0 63.5 -11t65.5 -34q51 -35 84 -35q31 0 54.5 21.5t31.5 58.5h172q-20 -119 -91 -185.5t-169 -66.5q-39 0 -65.5 12.5t-63.5 35.5q-51 35 -84 34q-29 0 -53.5 -21.5t-32.5 -60.5 h-170z" />
<glyph horiz-adv-x="1941" d="M94 518q0 199 92.5 361.5t245 256t324.5 93.5q121 0 206 -44t125 -108h11l22 131h844l-43 -245h-573l-41 -240h532l-43 -236h-532l-41 -241h571l-43 -246h-844l17 98h-9q-43 -49 -124.5 -83.5t-178.5 -34.5q-149 0 -267 71.5t-184.5 194.5t-66.5 272zM367 545 q0 -133 80.5 -219t201.5 -86q92 0 178 54t138.5 151.5t52.5 218.5q0 133 -81 219t-202 86q-92 0 -178 -54.5t-138 -151.5t-52 -218z" />
<glyph horiz-adv-x="1296" d="M59 0l213 1208h273l-37 -204h371q160 0 257 -95.5t97 -242.5q0 -133 -57.5 -238.5t-157.5 -164t-225 -58.5h-426l-35 -205h-273zM412 461h387q66 0 114 47t48 115q0 53 -37 89t-97 36h-364z" />
<glyph horiz-adv-x="1247" d="M35 0l155 883q27 152 128.5 238.5t252.5 86.5h678l-43 -227l-305 -268v-6q104 -16 175 -101.5t71 -204.5q0 -111 -54.5 -203t-152.5 -145t-223 -53h-232l39 229h183q76 0 123 43t47 113q0 55 -39 89t-109 34h-154l35 211l279 246h-291q-59 0 -96 -34t-47 -95l-148 -836 h-272z" />
<glyph horiz-adv-x="1296" d="M131 424q0 70 10 123l117 661h272l-120 -686q-6 -31 -7 -59q0 -96 57.5 -157.5t153.5 -61.5t171 65.5t96 173.5l129 725h272l-133 -751q-39 -221 -189.5 -349t-359.5 -128q-219 0 -344 119.5t-125 324.5zM666 1352l250 297h268l-297 -297h-221z" />
<glyph horiz-adv-x="1296" d="M131 424q0 70 10 123l117 661h272l-120 -686q-6 -31 -7 -59q0 -96 57.5 -157.5t153.5 -61.5t171 65.5t96 173.5l129 725h272l-133 -751q-39 -221 -189.5 -349t-359.5 -128q-219 0 -344 119.5t-125 324.5zM430 1352l297 293h229l195 -293h-227l-97 152l-149 -152h-248z " />
<glyph horiz-adv-x="1296" d="M131 424q0 70 10 123l117 661h272l-120 -686q-6 -31 -7 -59q0 -96 57.5 -157.5t153.5 -61.5t171 65.5t96 173.5l129 725h272l-133 -751q-39 -221 -189.5 -349t-359.5 -128q-219 0 -344 119.5t-125 324.5zM483 1485q0 70 44 115t109 45q61 0 97.5 -36t36.5 -91 q0 -70 -44 -115t-110 -45q-61 0 -97 36t-36 91zM866 1485q0 70 44 115t109 45q61 0 97.5 -36t36.5 -91q0 -70 -44.5 -115t-109.5 -45q-61 0 -97 36t-36 91z" />
<glyph horiz-adv-x="1296" d="M131 424q0 70 10 123l117 661h272l-120 -686q-6 -31 -7 -59q0 -96 57.5 -157.5t153.5 -61.5t171 65.5t96 173.5l129 725h272l-133 -751q-39 -221 -189.5 -349t-359.5 -128q-219 0 -344 119.5t-125 324.5zM489 1649h263l145 -297h-215z" />
<glyph horiz-adv-x="1120" d="M90 1208h293l170 -491h41l342 491h315l-583 -792l-74 -416h-272l73 416zM553 1352l250 297h268l-297 -297h-221z" />
<glyph horiz-adv-x="1120" d="M90 1208h293l170 -491h41l342 491h315l-583 -792l-74 -416h-272l73 416zM371 1485q0 70 44 115t109 45q61 0 97.5 -36t36.5 -91q0 -70 -44 -115t-110 -45q-61 0 -97 36t-36 91zM754 1485q0 70 44 115t109 45q61 0 97.5 -36t36.5 -91q0 -70 -44.5 -115t-109.5 -45 q-61 0 -97 36t-36 91z" />
<glyph horiz-adv-x="2686" d="M-88 0l760 1434h395l215 -1194h43l633 1194h397l258 -1434h-289l-51 313h-608l-162 -313h-467l-51 313h-606l-162 -313h-305zM504 557h440l-96 586h-41zM1790 557h442l-98 586h-41z" />
<glyph horiz-adv-x="2234" d="M59 0l252 1434h273l-207 -1172h510l620 1172h396l258 -1434h-289l-51 313h-607l-161 -313h-994zM1339 557h441l-97 586h-41z" />
<glyph horiz-adv-x="2326" d="M160 1171l47 263h1261l226 -619h41l444 619h318l-691 -945l-86 -489h-272l86 487l-256 684h-422l-207 -1171h-272l205 1171h-422z" />
<glyph horiz-adv-x="1388" d="M100 795l45 243h168l31 183q18 104 90 168.5t184 64.5h218l-39 -223h-127q-68 0 -80 -66l-21 -127h328l55 312h256l-55 -312h236l-43 -243h-236l-86 -488q-2 -8 -2 -22q0 -53 63 -54h162l-41 -231h-219q-109 0 -170 56.5t-61 154.5q0 29 6 59l92 525h-328l-141 -795h-254 l139 795h-170z" />
<glyph horiz-adv-x="1708" d="M100 795l45 243h168l31 183q18 104 90 168.5t184 64.5h248l-39 -223h-157q-72 0 -80 -66l-21 -127h396l139 -714h41l364 714h281l-674 -1269q-51 -92 -110.5 -135.5t-155.5 -43.5h-279l43 236h203q43 0 74 49l37 72l-174 848h-228l-141 -795h-254l139 795h-170z" />
<glyph horiz-adv-x="1732" d="M41 0l180 1038h221l4 -80h11q31 33 79 56.5t105 23.5h344l141 -714h41l365 714h280l-673 -1269q-49 -90 -108.5 -134.5t-158.5 -44.5h-278l41 236h207q43 0 69 49l39 74l-176 846h-160q-90 0 -142 -47.5t-71 -147.5l-106 -600h-254z" />
<glyph horiz-adv-x="1382" d="M100 795l45 243h164l53 312h256l-53 -312h328l55 312h256l-55 -312h235l-45 -243h-235l-86 -488q-2 -8 -2 -22q0 -53 63 -54h162l-41 -231h-219q-111 0 -171 56.5t-60 154.5q0 29 6 59l92 525h-328l-88 -488q-2 -8 -2 -20q0 -55 66 -56h129l-41 -231h-187 q-109 0 -171 57.5t-62 155.5q0 27 6 57l94 525h-164z" />
<glyph horiz-adv-x="1783" d="M100 795l45 243h164l56 312h256l-56 -312h475l140 -714h41l362 714h283l-676 -1269q-49 -92 -108.5 -135.5t-155.5 -43.5h-281l43 236h205q47 0 72 49l39 76l-177 844h-305l-88 -488q-2 -8 -2 -20q0 -55 64 -56h161l-41 -231h-219q-106 0 -168.5 55.5t-62.5 153.5 q0 31 6 61l94 525h-166z" />
<glyph horiz-adv-x="1972" d="M100 795l45 243h168l31 183q18 104 90 168.5t182 64.5h226l-39 -223h-135q-66 0 -78 -66l-21 -127h328l33 183q18 106 87.5 169.5t184.5 63.5h217l-39 -223h-129q-33 0 -50 -15.5t-25 -50.5l-23 -127h328l55 312h256l-55 -312h235l-43 -243h-235l-86 -488q-2 -8 -2 -22 q0 -53 61 -54h162l-39 -231h-219q-109 0 -171.5 56.5t-62.5 156.5q0 27 6 57l95 525h-326l-141 -795h-256l141 795h-330l-141 -795h-256l141 795h-170z" />
<glyph horiz-adv-x="2293" d="M100 795l45 243h168l31 183q18 104 90 168.5t182 64.5h226l-39 -223h-135q-66 0 -78 -66l-21 -127h330l31 183q18 106 87.5 169.5t184.5 63.5h248l-41 -223h-158q-33 0 -51 -15.5t-24 -50.5l-21 -127h393l140 -714h41l364 714h281l-676 -1269q-47 -90 -106.5 -134.5 t-157.5 -44.5h-281l43 236h205q45 0 72 49l38 74l-174 846h-225l-141 -795h-256l141 795h-330l-141 -795h-256l141 795h-170z" />
<glyph horiz-adv-x="2367" d="M100 795l45 243h168l31 183q18 104 90 168.5t184 64.5h218l-39 -223h-127q-72 0 -80 -66l-21 -127h330l53 312h256l-53 -312h469l139 -714h41l365 714h280l-673 -1269q-51 -92 -110.5 -135.5t-156.5 -43.5h-278l43 236h203q45 0 71 49l39 76l-174 844h-301l-88 -488 q-2 -8 -2 -22q0 -53 63 -54h162l-41 -231h-219q-109 0 -170 55.5t-61 153.5q0 29 6 61l94 525h-330l-141 -795h-254l139 795h-170z" />
<glyph horiz-adv-x="2369" d="M100 795l45 243h164l56 312h256l-56 -312h330l53 312h256l-53 -312h475l137 -714h41l365 714h282l-675 -1269q-51 -92 -110.5 -135.5t-156.5 -43.5h-278l43 236h203q43 0 73 49l37 74l-174 846h-307l-86 -488q-2 -8 -2 -22q0 -53 63 -54h162l-41 -231h-219 q-109 0 -170 56.5t-61 154.5q0 29 6 59l92 525h-328l-88 -488q-2 -8 -2 -20q0 -55 64 -56h129l-39 -231h-189q-106 0 -168.5 55.5t-62.5 153.5q0 31 6 61l94 525h-166z" />
<glyph horiz-adv-x="1550" d="M117 614q0 240 110.5 432.5t289.5 300t378 107.5q172 0 301 -69.5t204 -181t95 -240.5h-281q-31 94 -122 161.5t-224 67.5q-121 0 -231.5 -69.5t-179 -196.5t-68.5 -289q0 -119 49 -208t135 -138t195 -49q104 0 190 43t143.5 114.5t78.5 153.5h-361l35 199h641l-27 -150 q-33 -180 -135 -321.5t-254.5 -221t-335.5 -79.5q-182 0 -324.5 80.5t-222 225t-79.5 328.5z" />
<glyph horiz-adv-x="1562" d="M117 610q0 242 110.5 434.5t290.5 301t379 108.5q178 0 319.5 -81t221.5 -225t80 -325q0 -242 -111 -434t-291 -300.5t-379 -108.5q-180 0 -321.5 80.5t-220 224t-78.5 325.5zM389 639q0 -119 48 -209t133 -139t194 -49q121 0 231.5 69.5t180 195.5t69.5 288 q0 117 -48 208t-134 140t-193 49q-121 0 -232.5 -69.5t-180 -195.5t-68.5 -288zM588 -346l39 223h637l-39 -223h-637z" />
<glyph horiz-adv-x="1241" d="M70 428q0 184 77.5 327.5t204.5 223.5t271 80q111 0 185.5 -42t117.5 -108h10l45 129h221l-182 -1038h-223v117h-11q-39 -55 -117.5 -96t-170.5 -41q-125 0 -222.5 58t-151.5 160.5t-54 229.5zM326 463q0 -113 65.5 -180.5t169.5 -67.5q78 0 148.5 45t113.5 127t43 186 q0 115 -64.5 181.5t-170.5 66.5q-78 0 -148.5 -45t-113.5 -127t-43 -186z" />
<glyph horiz-adv-x="1241" d="M70 428q0 184 77.5 327.5t204.5 223.5t271 80q111 0 185.5 -42t117.5 -108h10l45 129h221l-182 -1038h-223v117h-11q-39 -55 -117.5 -96t-170.5 -41q-125 0 -222.5 58t-151.5 160.5t-54 229.5zM326 463q0 -113 65.5 -180.5t169.5 -67.5q78 0 148.5 45t113.5 127t43 186 q0 115 -64.5 181.5t-170.5 66.5q-78 0 -148.5 -45t-113.5 -127t-43 -186zM602 1186l250 295h269l-297 -295h-222z" />
<glyph horiz-adv-x="1241" d="M70 428q0 184 77.5 327.5t204.5 223.5t271 80q111 0 185.5 -42t117.5 -108h10l45 129h221l-182 -1038h-223v117h-11q-39 -55 -117.5 -96t-170.5 -41q-125 0 -222.5 58t-151.5 160.5t-54 229.5zM326 463q0 -113 65.5 -180.5t169.5 -67.5q78 0 148.5 45t113.5 127t43 186 q0 115 -64.5 181.5t-170.5 66.5q-78 0 -148.5 -45t-113.5 -127t-43 -186zM360 1186l297 293h230l194 -293h-227l-96 151l-150 -151h-248z" />
<glyph horiz-adv-x="1241" d="M70 428q0 184 77.5 327.5t204.5 223.5t271 80q111 0 185.5 -42t117.5 -108h10l45 129h221l-182 -1038h-223v117h-11q-39 -55 -117.5 -96t-170.5 -41q-125 0 -222.5 58t-151.5 160.5t-54 229.5zM326 463q0 -113 65.5 -180.5t169.5 -67.5q78 0 148.5 45t113.5 127t43 186 q0 115 -64.5 181.5t-170.5 66.5q-78 0 -148.5 -45t-113.5 -127t-43 -186zM409 1313q0 70 44 115t110 45q61 0 97 -36t36 -91q0 -70 -44 -115t-110 -45q-61 0 -97 35.5t-36 91.5zM792 1313q0 70 44 115t110 45q61 0 97 -36t36 -91q0 -70 -44 -115t-110 -45q-61 0 -97 35.5 t-36 91.5z" />
<glyph horiz-adv-x="1241" d="M70 428q0 184 77.5 327.5t204.5 223.5t271 80q111 0 185.5 -42t117.5 -108h10l45 129h221l-182 -1038h-223v117h-11q-39 -55 -117.5 -96t-170.5 -41q-125 0 -222.5 58t-151.5 160.5t-54 229.5zM326 463q0 -113 65.5 -180.5t169.5 -67.5q78 0 148.5 45t113.5 127t43 186 q0 115 -64.5 181.5t-170.5 66.5q-78 0 -148.5 -45t-113.5 -127t-43 -186zM414 1481h262l145 -295h-215z" />
<glyph horiz-adv-x="1241" d="M70 428q0 184 77.5 327.5t204.5 223.5t271 80q111 0 185.5 -42t117.5 -108h10l45 129h221l-182 -1038h-223v117h-11q-39 -55 -117.5 -96t-170.5 -41q-125 0 -222.5 58t-151.5 160.5t-54 229.5zM326 463q0 -113 65.5 -180.5t169.5 -67.5q78 0 148.5 45t113.5 127t43 186 q0 115 -64.5 181.5t-170.5 66.5q-78 0 -148.5 -45t-113.5 -127t-43 -186zM539 1331q0 96 67.5 160.5t161.5 64.5q86 0 139.5 -51t53.5 -133q0 -96 -66.5 -161.5t-160.5 -65.5q-86 0 -140.5 52t-54.5 134zM668 1341q0 -29 21.5 -49t54.5 -20q35 0 62.5 25.5t27.5 64.5 q0 29 -22.5 49.5t-55.5 20.5q-35 0 -61.5 -26t-26.5 -65z" />
<glyph horiz-adv-x="1241" d="M70 428q0 184 77.5 327.5t204.5 223.5t271 80q111 0 185.5 -42t117.5 -108h10l45 129h221l-182 -1038h-223v117h-11q-39 -55 -117.5 -96t-170.5 -41q-125 0 -222.5 58t-151.5 160.5t-54 229.5zM326 463q0 -113 65.5 -180.5t169.5 -67.5q78 0 148.5 45t113.5 127t43 186 q0 115 -64.5 181.5t-170.5 66.5q-78 0 -148.5 -45t-113.5 -127t-43 -186zM381 1206q20 121 90 186.5t168 65.5q39 0 67 -12t64 -35q25 -18 43.5 -26.5t38.5 -8.5q31 0 54.5 21.5t31.5 60.5h172q-20 -119 -90.5 -185.5t-169.5 -66.5q-39 0 -67.5 12.5t-61.5 34.5 q-29 16 -45 24.5t-37 8.5q-31 0 -54 -20.5t-32 -59.5h-172z" />
<glyph horiz-adv-x="1230" d="M78 485q0 160 73.5 292t196.5 207t264 75q109 0 187 -40t119 -104h10l43 123h221l-201 -1130q-27 -154 -124 -236t-251 -82h-487l43 238h412q76 0 113.5 37t52.5 119l28 180h-10q-37 -43 -109.5 -74t-158.5 -31q-119 0 -215.5 52.5t-151.5 149.5t-55 224zM334 518 q0 -100 66.5 -165.5t168.5 -65.5q74 0 140.5 40t106.5 111.5t40 161.5q0 98 -67.5 164.5t-167.5 66.5q-74 0 -140.5 -39.5t-106.5 -111.5t-40 -162z" />
<glyph horiz-adv-x="632" d="M88 209q0 27 6 57l207 1168h256l-199 -1125q-2 -8 -2 -20q0 -53 60 -53h145l-41 -236h-203q-106 0 -167.5 56.5t-61.5 152.5z" />
<glyph horiz-adv-x="872" d="M88 209q0 27 6 57l207 1168h256l-199 -1125q-2 -8 -2 -20q0 -53 60 -53h145l-41 -236h-203q-106 0 -167.5 56.5t-61.5 152.5zM594 741q0 68 49 118t117 50q61 0 101 -39t40 -100q0 -68 -49 -118t-117 -50q-61 0 -101 39t-40 100z" />
<glyph horiz-adv-x="1089" d="M82 1038h260l139 -714h41l367 714h280l-774 -1448h-282l192 361z" />
<glyph horiz-adv-x="1089" d="M82 1038h260l139 -714h41l367 714h280l-774 -1448h-282l192 361zM520 1186l250 295h269l-297 -295h-222z" />
<glyph horiz-adv-x="1089" d="M82 1038h260l139 -714h41l367 714h280l-774 -1448h-282l192 361zM327 1313q0 70 44 115t110 45q61 0 97 -36t36 -91q0 -70 -44 -115t-110 -45q-61 0 -97 35.5t-36 91.5zM710 1313q0 70 44 115t110 45q61 0 97 -36t36 -91q0 -70 -44 -115t-110 -45q-61 0 -97 35.5 t-36 91.5z" />
<glyph horiz-adv-x="1218" d="M117 393q0 53 8 101l96 544h256l-94 -530q-4 -33 -4 -45q0 -88 56.5 -144.5t142.5 -56.5q94 0 163.5 62.5t85.5 156.5l99 557h256l-201 -1130q-27 -154 -125 -236t-252 -82h-481l43 236h407q76 0 114 37t52 119l23 139h-10q-37 -37 -110 -67.5t-159 -30.5 q-166 0 -266 100t-100 270z" />
<glyph horiz-adv-x="1218" d="M117 393q0 53 8 101l96 544h256l-94 -530q-4 -33 -4 -45q0 -88 56.5 -144.5t142.5 -56.5q94 0 163.5 62.5t85.5 156.5l99 557h256l-201 -1130q-27 -154 -125 -236t-252 -82h-481l43 236h407q76 0 114 37t52 119l23 139h-10q-37 -37 -110 -67.5t-159 -30.5 q-166 0 -266 100t-100 270zM604 1186l250 295h269l-297 -295h-222z" />
<glyph horiz-adv-x="1218" d="M117 393q0 53 8 101l96 544h256l-94 -530q-4 -33 -4 -45q0 -88 56.5 -144.5t142.5 -56.5q94 0 163.5 62.5t85.5 156.5l99 557h256l-201 -1130q-27 -154 -125 -236t-252 -82h-481l43 236h407q76 0 114 37t52 119l23 139h-10q-37 -37 -110 -67.5t-159 -30.5 q-166 0 -266 100t-100 270zM411 1313q0 70 44 115t110 45q61 0 97 -36t36 -91q0 -70 -44 -115t-110 -45q-61 0 -97 35.5t-36 91.5zM794 1313q0 70 44 115t110 45q61 0 97 -36t36 -91q0 -70 -44 -115t-110 -45q-61 0 -97 35.5t-36 91.5z" />
<glyph horiz-adv-x="2334" d="M-88 0l639 1208h383l170 -979h41l520 979h381l215 -1208h-289l-35 236h-487l-119 -236h-471l-35 236h-489l-119 -236h-305zM459 477h329l-67 441h-41zM1571 477h330l-68 441h-41z" />
<glyph horiz-adv-x="1961" d="M59 0l213 1208h271l-166 -946h414l501 946h383l213 -1208h-289l-34 236h-488l-119 -236h-899zM1200 477h328l-66 441h-41z" />
<glyph horiz-adv-x="2013" d="M121 946l47 262h1108l170 -491h41l342 491h315l-583 -790l-74 -418h-273l74 418l-205 528h-346l-164 -946h-274l166 946h-344z" />
<glyph horiz-adv-x="1366" d="M113 561q0 262 96 466t256 315.5t342 111.5q147 0 264 -70.5t183.5 -201.5t66.5 -310q0 -262 -97.5 -464.5t-257 -315t-339.5 -112.5q-147 0 -264 70.5t-183.5 201.5t-66.5 309zM379 571l625 498q-35 63 -91.5 96t-126.5 33q-108 0 -201 -80t-149.5 -220t-56.5 -314v-13z M430 365q35 -61 92.5 -95t126.5 -34q109 0 202 79.5t148.5 220t55.5 314.5v10z" />
<glyph horiz-adv-x="1187" d="M25 561q0 262 96 466t256 315.5t342 111.5q147 0 264 -70.5t183.5 -201.5t66.5 -310q0 -262 -97.5 -464.5t-257 -315t-339.5 -112.5q-148 0 -264.5 70.5t-183 201.5t-66.5 309zM297 584q0 -162 73.5 -253t190.5 -91q105 0 198 79.5t148.5 219t55.5 311.5q0 162 -75 253 t-190 91q-106 0 -198 -80t-147.5 -219t-55.5 -311z" />
<glyph horiz-adv-x="1187" d="M45 0l45 262h342l133 762h-340l45 256h273q68 0 80 68l14 86h272l-207 -1172h345l-43 -262h-959z" />
<glyph horiz-adv-x="1187" d="M18 0l39 236l686 561q66 55 97.5 104t31.5 115q0 76 -49 126t-137 50q-94 0 -163.5 -68.5t-84.5 -167.5h-272q20 143 93 256t186.5 177.5t254.5 64.5q133 0 235.5 -51t159 -140t56.5 -204q0 -106 -36 -185t-92 -136.5t-165 -145.5l-391 -326l-2 -10h567l-43 -256h-971z " />
<glyph horiz-adv-x="1187" d="M45 430h270q-2 -90 61.5 -142t166.5 -52q113 0 178.5 56t65.5 150q0 74 -57.5 125t-149.5 51h-92l43 230h124q98 0 161 56.5t63 133.5q0 68 -56.5 114t-150.5 46q-90 0 -150.5 -49t-76.5 -127h-269q18 119 90 218t184.5 156.5t252.5 57.5q137 0 239.5 -50t156.5 -137 t54 -194q0 -143 -80 -231t-180 -119v-10q68 -33 116 -108t48 -173q0 -119 -66.5 -223.5t-186.5 -166.5t-271 -62q-156 0 -268.5 54t-170 155.5t-49.5 240.5z" />
<glyph horiz-adv-x="1187" d="M-8 285l41 237l670 912h415l-159 -904h163l-43 -245h-163l-50 -285h-270l49 285h-653zM334 530h354l101 574h-41l-412 -563z" />
<glyph horiz-adv-x="1187" d="M70 406h270q8 -72 67.5 -121t159.5 -49q74 0 135.5 34.5t98.5 95t37 136.5q0 92 -61.5 150.5t-166.5 58.5q-70 0 -126 -28t-85 -67h-270l227 818h836l-45 -254h-598l-76 -273h10q70 45 187 45q129 0 228 -54t155.5 -149.5t56.5 -216.5q0 -156 -74.5 -282.5t-202.5 -198 t-282 -71.5q-145 0 -256 52t-169 148t-56 226z" />
<glyph horiz-adv-x="1187" d="M62 424q0 197 143 373l532 637h316l-402 -480q14 2 43 2q109 0 203 -57t150.5 -155.5t56.5 -213.5q0 -152 -77 -278.5t-206 -199t-278 -72.5q-139 0 -249 58t-171 159.5t-61 226.5zM336 446q0 -92 62.5 -153.5t162.5 -61.5q72 0 134.5 37t100.5 100.5t38 139.5 q0 90 -63.5 151.5t-164.5 61.5q-72 0 -134 -37t-99 -100.5t-37 -137.5z" />
<glyph horiz-adv-x="1187" d="M111 0l696 1174h-635l47 260h957l-43 -236l-707 -1198h-315z" />
<glyph horiz-adv-x="1187" d="M68 371q0 106 43 188t105.5 131t123.5 70l2 10q-51 35 -90 98.5t-39 147.5q0 117 65.5 217t180 160.5t254.5 60.5q139 0 243.5 -52t160 -140t55.5 -189q0 -139 -77 -229t-173 -127v-8q63 -37 108 -110t45 -165q0 -121 -66.5 -225.5t-186 -166.5t-271.5 -62 q-150 0 -259.5 53t-166.5 142t-57 196zM334 408q0 -80 62.5 -133.5t164.5 -53.5q107 0 178.5 63.5t71.5 157.5q0 80 -61.5 132.5t-163.5 52.5q-106 0 -179 -63.5t-73 -155.5zM479 1018q0 -70 53.5 -118t145.5 -48q94 0 156.5 57.5t62.5 137.5q0 70 -53 118.5t-146 48.5 q-94 0 -156.5 -58t-62.5 -138z" />
<glyph horiz-adv-x="1187" d="M150 903q0 152 77.5 279t206.5 199.5t279 72.5q137 0 246.5 -58.5t171 -159.5t61.5 -226q0 -197 -143 -373l-531 -637h-317l401 479q-12 -2 -43 -2q-109 0 -203 57.5t-150 155.5t-56 213zM420 926q0 -90 63.5 -151.5t163.5 -61.5q72 0 135.5 36.5t100.5 100t37 137.5 q0 90 -63.5 152.5t-164.5 62.5q-72 0 -134 -37t-100 -100.5t-38 -138.5z" />
<glyph horiz-adv-x="821" d="M156 1065q0 109 50 198t132 140t172 51q66 0 118 -26.5t74 -61.5h11l26 78h148l-117 -662h-147l-2 68h-11q-27 -31 -78 -54.5t-110 -23.5q-72 0 -133.5 37t-97 104.5t-35.5 151.5zM332 1083q0 -66 39 -105.5t102 -39.5q72 0 126 58.5t54 144.5q0 68 -39 106.5t-102 38.5 q-72 0 -126 -58.5t-54 -144.5z" />
<glyph horiz-adv-x="722" d="M153 979q0 145 49.5 250.5t130.5 160t173 54.5q113 0 184.5 -78t71.5 -215q0 -143 -49.5 -249t-130 -161t-173.5 -55q-112 0 -184 78t-72 215zM313 993q0 -82 30 -122t79 -40q39 0 80 34t69.5 103.5t28.5 167.5q0 82 -28.5 122t-80.5 40q-39 0 -79.5 -33.5t-69.5 -103.5 t-29 -168z" />
<glyph horiz-adv-x="548" d="M186 1192l29 149h113q55 0 65 53l8 39h160l-131 -737h-160l86 496h-170z" />
<glyph horiz-adv-x="688" d="M125 696l24 133l330 277q45 37 62.5 61.5t17.5 59.5q0 33 -22.5 53t-63.5 20q-45 0 -73.5 -26.5t-37.5 -75.5h-159q16 109 89.5 177.5t186.5 68.5q111 0 175.5 -56.5t64.5 -148.5q0 -74 -35 -124t-113 -116l-180 -149l-2 -11h274l-26 -143h-512z" />
<glyph horiz-adv-x="690" d="M143 919h162q-2 -43 26.5 -66.5t71.5 -23.5q47 0 77 28t30 75q0 35 -26.5 55t-76.5 20h-53l25 136h71q47 0 76 24.5t29 65.5q0 31 -23.5 49t-66.5 18q-37 0 -61.5 -20.5t-32.5 -57.5h-160q14 96 87 159t177 63q113 0 177.5 -54.5t64.5 -140.5q0 -68 -36 -112t-83 -60 l-2 -10q29 -10 51.5 -48t22.5 -89q0 -66 -35 -122.5t-98.5 -89t-143.5 -32.5q-119 0 -188.5 63.5t-61.5 169.5z" />
<glyph horiz-adv-x="661" d="M74 839l24 138l350 456h234l-80 -452h86l-25 -142h-86l-26 -143h-160l27 143h-344zM289 981h153l41 246h-18l-174 -236z" />
<glyph horiz-adv-x="684" d="M135 911h158q20 -78 108 -78q53 0 89 35t36 88q0 43 -29.5 69.5t-78.5 26.5q-37 0 -67 -18t-46 -39h-147l118 438h449l-27 -147h-309l-33 -113h10q33 23 99 23q96 0 156.5 -63.5t60.5 -159.5q0 -123 -80 -205t-209 -82q-121 0 -189.5 61.5t-68.5 163.5z" />
<glyph horiz-adv-x="688" d="M143 913q0 63 20.5 115.5t61.5 101.5l246 303h176l-197 -239h19q100 0 163.5 -62.5t63.5 -152.5q0 -84 -40 -150.5t-107.5 -104.5t-151.5 -38q-117 0 -185.5 63.5t-68.5 163.5zM303 932q0 -45 28.5 -74t77.5 -29q56 0 91.5 37t35.5 92q0 45 -28.5 73t-77.5 28 q-53 0 -90 -37t-37 -90z" />
<glyph horiz-adv-x="604" d="M178 696l352 588h-313l27 149h489l-27 -139l-356 -598h-172z" />
<glyph horiz-adv-x="706" d="M149 891q0 74 41 126t95 70l2 11q-23 16 -41.5 48.5t-18.5 73.5q0 59 35 110.5t95.5 82.5t131.5 31q111 0 178.5 -57.5t67.5 -137.5q0 -66 -35 -111t-82 -65v-10q29 -16 50.5 -54t21.5 -86q0 -102 -77 -169.5t-206 -67.5q-114 0 -186 60.5t-72 144.5zM309 909 q0 -37 30 -62.5t77 -25.5q51 0 82.5 28.5t31.5 73.5q0 37 -28.5 61.5t-75.5 24.5q-51 0 -84 -27.5t-33 -72.5zM383 1216q0 -37 25.5 -56t68.5 -19t72.5 24.5t29.5 65.5q0 37 -25.5 57t-68.5 20q-45 0 -73.5 -24.5t-28.5 -67.5z" />
<glyph horiz-adv-x="688" d="M184 1151q0 84 39 150.5t107.5 104.5t150.5 38q117 0 186.5 -63.5t69.5 -164.5q0 -63 -20.5 -114.5t-61.5 -102.5l-246 -303h-178l197 240h-19q-98 0 -161.5 62.5t-63.5 152.5zM344 1171q0 -45 28.5 -72.5t77.5 -27.5q54 0 90.5 37t36.5 90q0 45 -29.5 73.5t-76.5 28.5 q-55 0 -91 -36.5t-36 -92.5z" />
<glyph horiz-adv-x="663" d="M141 1028q0 92 39 164t102.5 114t137.5 48l16 96h148l-21 -107q137 -43 160 -206h-158q-10 35 -37.5 56t-72.5 21q-66 0 -108 -49t-42 -131q0 -55 31 -84.5t84 -29.5q45 0 78.5 24.5t48.5 54.5h158q-33 -88 -95.5 -146t-146.5 -69l-19 -100h-145l16 102q-78 20 -126 85 t-48 157z" />
<glyph horiz-adv-x="690" d="M129 938h158q-2 -57 30.5 -87t98.5 -30q55 0 84.5 22.5t29.5 53.5q0 27 -19 42t-62 32l-82 33q-82 35 -126 79.5t-44 114.5q0 98 64.5 168t170.5 84l19 106h145l-21 -114q90 -23 133.5 -87.5t32.5 -152.5h-159q4 47 -25 77t-82 30q-57 0 -86 -23.5t-29 -58.5 q0 -25 19.5 -41.5t60.5 -32.5l92 -37q78 -33 120 -78t42 -110q0 -94 -65.5 -165t-186.5 -83l-18 -107h-148l19 115q-172 43 -166 250z" />
<glyph horiz-adv-x="694" d="M88 932l18 108h82q0 16 5 50h-78l18 108h86q45 121 139.5 183.5t210.5 62.5q68 0 122 -16.5t87 -43.5l-26 -147q-25 23 -72 42t-105 19q-57 0 -103 -25.5t-77 -74.5h228l-19 -108h-246l-6 -50h244l-18 -108h-216q35 -100 164 -101q45 0 91.5 11.5t72.5 25.5l-24 -145 q-20 -14 -64.5 -25.5t-99.5 -11.5q-121 0 -206 62.5t-103 183.5h-105z" />
<glyph horiz-adv-x="632" d="M86 696l25 144h6q29 0 48 18.5t23 50.5l15 78h-72l23 127h71l19 105q20 109 86.5 167t163.5 58q106 0 167.5 -61.5t51.5 -176.5h-162q4 88 -66 88q-31 0 -53 -23.5t-31 -70.5l-16 -86h182l-22 -127h-183l-14 -76q-4 -27 -14 -47t-21 -24h330l-27 -144h-530z" />
<glyph horiz-adv-x="698" d="M160 807l20 113h160l8 47h-160l21 114h96l-117 353h156l100 -322h5l210 322h170l-241 -353h98l-20 -114h-162l-8 -47h161l-20 -113h-160l-20 -111h-156l21 111h-162z" />
<glyph horiz-adv-x="722" d="M30 283q0 145 49.5 250.5t130.5 160t173 54.5q113 0 184.5 -78t71.5 -215q0 -143 -49.5 -249t-130 -161t-173.5 -55q-112 0 -184 78t-72 215zM190 297q0 -82 30 -122t79 -40q39 0 80 34t69.5 103.5t28.5 167.5q0 82 -28.5 122t-80.5 40q-39 0 -79.5 -33.5t-69.5 -103.5 t-29 -168z" />
<glyph horiz-adv-x="548" d="M63 496l29 149h113q55 0 65 53l8 39h160l-131 -737h-160l86 496h-170z" />
<glyph horiz-adv-x="688" d="M2 0l24 133l330 277q45 37 62.5 61.5t17.5 59.5q0 33 -22.5 53t-63.5 20q-45 0 -73.5 -26.5t-37.5 -75.5h-159q16 109 89.5 177.5t186.5 68.5q111 0 175.5 -56.5t64.5 -148.5q0 -74 -35 -124t-113 -116l-180 -149l-2 -11h274l-26 -143h-512z" />
<glyph horiz-adv-x="690" d="M20 223h162q-2 -43 26.5 -66.5t71.5 -23.5q47 0 77 28t30 75q0 35 -26.5 55t-76.5 20h-53l25 136h71q47 0 76 24.5t29 65.5q0 31 -23.5 49t-66.5 18q-37 0 -61.5 -20.5t-32.5 -57.5h-160q14 96 87 159t177 63q113 0 177.5 -54.5t64.5 -140.5q0 -68 -36 -112t-83 -60 l-2 -10q29 -10 51.5 -48t22.5 -89q0 -66 -35 -122.5t-98.5 -89t-143.5 -32.5q-119 0 -188.5 63.5t-61.5 169.5z" />
<glyph horiz-adv-x="661" d="M-49 143l24 138l350 456h234l-80 -452h86l-25 -142h-86l-26 -143h-160l27 143h-344zM166 285h153l41 246h-18l-174 -236z" />
<glyph horiz-adv-x="684" d="M12 215h158q20 -78 108 -78q53 0 89 35t36 88q0 43 -29.5 69.5t-78.5 26.5q-37 0 -67 -18t-46 -39h-147l118 438h449l-27 -147h-309l-33 -113h10q33 23 99 23q96 0 156.5 -63.5t60.5 -159.5q0 -123 -80 -205t-209 -82q-121 0 -189.5 61.5t-68.5 163.5z" />
<glyph horiz-adv-x="688" d="M20 217q0 63 20.5 115.5t61.5 101.5l246 303h176l-197 -239h19q100 0 163.5 -62.5t63.5 -152.5q0 -84 -40 -150.5t-107.5 -104.5t-151.5 -38q-117 0 -185.5 63.5t-68.5 163.5zM180 236q0 -45 28.5 -74t77.5 -29q56 0 91.5 37t35.5 92q0 45 -28.5 73t-77.5 28 q-53 0 -90 -37t-37 -90z" />
<glyph horiz-adv-x="604" d="M55 0l352 588h-313l27 149h489l-27 -139l-356 -598h-172z" />
<glyph horiz-adv-x="706" d="M26 195q0 74 41 126t95 70l2 11q-23 16 -41.5 48.5t-18.5 73.5q0 59 35 110.5t95.5 82.5t131.5 31q111 0 178.5 -57.5t67.5 -137.5q0 -66 -35 -111t-82 -65v-10q29 -16 50.5 -54t21.5 -86q0 -102 -77 -169.5t-206 -67.5q-114 0 -186 60.5t-72 144.5zM186 213 q0 -37 30 -62.5t77 -25.5q51 0 82.5 28.5t31.5 73.5q0 37 -28.5 61.5t-75.5 24.5q-51 0 -84 -27.5t-33 -72.5zM260 520q0 -37 25.5 -56t68.5 -19t72.5 24.5t29.5 65.5q0 37 -25.5 57t-68.5 20q-45 0 -73.5 -24.5t-28.5 -67.5z" />
<glyph horiz-adv-x="688" d="M61 455q0 84 39 150.5t107.5 104.5t150.5 38q117 0 186.5 -63.5t69.5 -164.5q0 -63 -20.5 -114.5t-61.5 -102.5l-246 -303h-178l197 240h-19q-98 0 -161.5 62.5t-63.5 152.5zM221 475q0 -45 28.5 -72.5t77.5 -27.5q54 0 90.5 37t36.5 90q0 45 -29.5 73.5t-76.5 28.5 q-55 0 -91 -36.5t-36 -92.5z" />
<glyph horiz-adv-x="663" d="M18 332q0 92 39 164t102.5 114t137.5 48l16 96h148l-21 -107q137 -43 160 -206h-158q-10 35 -37.5 56t-72.5 21q-66 0 -108 -49t-42 -131q0 -55 31 -84.5t84 -29.5q45 0 78.5 24.5t48.5 54.5h158q-33 -88 -95.5 -146t-146.5 -69l-19 -100h-145l16 102q-78 20 -126 85 t-48 157z" />
<glyph horiz-adv-x="690" d="M6 242h158q-2 -57 30.5 -87t98.5 -30q55 0 84.5 22.5t29.5 53.5q0 27 -19 42t-62 32l-82 33q-82 35 -126 79.5t-44 114.5q0 98 64.5 168t170.5 84l19 106h145l-21 -114q90 -23 133.5 -87.5t32.5 -152.5h-159q4 47 -25 77t-82 30q-57 0 -86 -23.5t-29 -58.5 q0 -25 19.5 -41.5t60.5 -32.5l92 -37q78 -33 120 -78t42 -110q0 -94 -65.5 -165t-186.5 -83l-18 -107h-148l19 115q-172 43 -166 250z" />
<glyph horiz-adv-x="694" d="M-35 236l18 108h82q0 16 5 50h-78l18 108h86q45 121 139.5 183.5t210.5 62.5q68 0 122 -16.5t87 -43.5l-26 -147q-25 23 -72 42t-105 19q-57 0 -103 -25.5t-77 -74.5h228l-19 -108h-246l-6 -50h244l-18 -108h-216q35 -100 164 -101q45 0 91.5 11.5t72.5 25.5l-24 -145 q-20 -14 -64.5 -25.5t-99.5 -11.5q-121 0 -206 62.5t-103 183.5h-105z" />
<glyph horiz-adv-x="632" d="M-37 0l25 144h6q29 0 48 18.5t23 50.5l15 78h-72l23 127h71l19 105q20 109 86.5 167t163.5 58q106 0 167.5 -61.5t51.5 -176.5h-162q4 88 -66 88q-31 0 -53 -23.5t-31 -70.5l-16 -86h182l-22 -127h-183l-14 -76q-4 -27 -14 -47t-21 -24h330l-27 -144h-530z" />
<glyph horiz-adv-x="698" d="M37 111l20 113h160l8 47h-160l21 114h96l-117 353h156l100 -322h5l210 322h170l-241 -353h98l-20 -114h-162l-8 -47h161l-20 -113h-160l-20 -111h-156l21 111h-162z" />
<glyph horiz-adv-x="1212" d="M98 471q0 229 85 401t222.5 264.5t288.5 92.5q131 0 233.5 -59.5t160 -171t57.5 -261.5q0 -229 -86 -401t-223.5 -264t-286.5 -92q-131 0 -233.5 59t-160 171t-57.5 261zM371 496q0 -121 55 -187.5t143 -66.5q72 0 142.5 53t116.5 159.5t46 256.5q0 123 -56 189.5 t-144 66.5q-72 0 -142.5 -54.5t-115.5 -161t-45 -255.5z" />
<glyph horiz-adv-x="729" d="M111 817l45 256h202q23 0 37.5 13.5t18.5 35.5l14 86h272l-213 -1208h-272l145 817h-249z" />
<glyph horiz-adv-x="1044" d="M18 0l39 227l568 451q61 51 85.5 85t24.5 83q0 55 -39 88t-104 33q-72 0 -122 -47.5t-62 -120.5h-271q35 199 161 314.5t312 115.5q123 0 215.5 -44t140.5 -121t48 -173q0 -119 -62.5 -204t-189.5 -185l-293 -234v-10h446l-43 -258h-854z" />
<glyph horiz-adv-x="1058" d="M39 375h268q0 -70 49.5 -108t137.5 -38q84 0 133 45t49 105q0 61 -43 99t-123 38h-86l37 213h121q76 0 119.5 36t43.5 97q0 53 -41.5 85t-119.5 32q-70 0 -115 -37t-53 -86h-266q29 162 151.5 267.5t306.5 105.5q121 0 214 -43t144.5 -117t51.5 -164q0 -121 -65.5 -191.5 t-151.5 -101.5v-10q57 -29 97 -89t40 -140q0 -102 -58.5 -192.5t-164 -145.5t-238.5 -55q-213 0 -328.5 106.5t-109.5 288.5z" />
<glyph horiz-adv-x="1042" d="M-16 229l41 238l563 741h397l-129 -733h133l-43 -246h-135l-39 -229h-272l41 229h-557zM319 477h265l75 420h-22l-315 -408z" />
<glyph horiz-adv-x="1071" d="M63 354h269q8 -55 51 -92t119 -37q88 0 147.5 57.5t59.5 145.5q0 66 -45.5 108t-124.5 42q-57 0 -98.5 -21.5t-63.5 -50.5h-271l195 702h743l-43 -241h-512l-55 -195h10q63 41 164 41q168 0 267.5 -99.5t99.5 -256.5q0 -133 -63.5 -243t-175 -172t-247.5 -62 q-196 0 -308.5 103t-117.5 271z" />
<glyph horiz-adv-x="1064" d="M55 362q0 106 38 185.5t102 154.5l419 506h297l-317 -383h4q107 0 193 -48t134 -132t48 -184q0 -133 -66.5 -244t-181.5 -174t-252 -63q-121 0 -216 50t-148.5 137t-53.5 195zM326 391q0 -72 48 -119t128 -47q86 0 144.5 59.5t58.5 149.5q0 70 -49.5 117t-129.5 47 q-86 0 -143 -59.5t-57 -147.5z" />
<glyph horiz-adv-x="966" d="M70 0l583 946h-520l49 262h842l-41 -233l-604 -975h-309z" />
<glyph horiz-adv-x="1081" d="M59 328q0 121 70 202.5t164 118.5v10q-39 25 -71 78.5t-32 120.5q0 96 57.5 182t158 137.5t223.5 51.5q127 0 219 -44t140 -119t48 -163q0 -106 -61.5 -182t-138.5 -105l-5 -10q49 -29 89.5 -90t40.5 -139q0 -104 -60.5 -195.5t-167 -146.5t-239.5 -55q-136 0 -234 46 t-149.5 125.5t-51.5 176.5zM322 358q0 -59 49 -100t131 -41q84 0 141 49t57 117q0 57 -48 98t-132 41t-141 -49t-57 -115zM457 856q0 -51 40 -84t111 -33q70 0 115 41t45 101q0 49 -40 81.5t-112 32.5t-115.5 -40t-43.5 -99z" />
<glyph horiz-adv-x="1062" d="M123 748q0 133 66.5 243.5t180 174t251.5 63.5q120 0 215.5 -50.5t148.5 -137.5t53 -195q0 -106 -37.5 -185t-101.5 -155l-420 -506h-297l318 383h-4q-106 0 -191.5 48t-133.5 132t-48 185zM389 774q0 -70 49 -117t129 -47q86 0 144.5 59.5t58.5 147.5q0 70 -49 117 t-129 47q-86 0 -144.5 -59.5t-58.5 -147.5z" />
<glyph horiz-adv-x="526" d="M147 719q0 68 49 118t117 50q61 0 101 -39t40 -100q0 -68 -49 -118t-117 -50q-61 0 -101 39t-40 100z" />
<glyph horiz-adv-x="591" d="M86 0l101 565l116 447h195l-41 -447l-98 -565h-273zM295 1276q0 70 49.5 119t116.5 49q62 0 101.5 -39t39.5 -100q0 -68 -49 -118t-116 -50q-61 0 -101.5 38.5t-40.5 100.5z" />
<glyph horiz-adv-x="1075" d="M48 352q0 145 82.5 243.5t213.5 149.5q84 33 120 75t48 110l15 82h260l-17 -99q-20 -131 -80.5 -199.5t-183.5 -117.5q-176 -72 -176 -205q0 -70 53.5 -117t143.5 -47q86 0 141 50.5t70 129.5h276q-31 -193 -165 -310.5t-347 -117.5q-135 0 -238.5 50.5t-159.5 135.5 t-56 187zM551 1276q0 70 49.5 119t116.5 49q62 0 102 -39t40 -100q0 -68 -49.5 -118t-116.5 -50q-61 0 -101.5 38.5t-40.5 100.5z" />
<glyph horiz-adv-x="712" d="M105 721l370 416h275l-383 -432l213 -400h-252z" />
<glyph horiz-adv-x="714" d="M33 305l385 435l-209 397h248l223 -416l-371 -416h-276z" />
<glyph horiz-adv-x="1177" d="M105 721l370 416h275l-383 -432l213 -400h-252zM570 721l370 416h275l-383 -432l213 -400h-252z" />
<glyph horiz-adv-x="1179" d="M33 305l385 435l-209 397h248l223 -416l-371 -416h-276zM498 305l385 435l-209 397h248l223 -416l-371 -416h-276z" />
<glyph horiz-adv-x="999" d="M283 702q0 76 38 139.5t102.5 100.5t137.5 37q104 0 167 -64.5t63 -160.5q0 -76 -38 -139.5t-102.5 -100.5t-138.5 -37q-102 0 -165.5 64.5t-63.5 160.5z" />
<glyph horiz-adv-x="876" d="M109 608l41 237h690l-41 -237h-690z" />
<glyph horiz-adv-x="1163" d="M88 608l41 237h1018l-41 -237h-1018z" />
<glyph horiz-adv-x="1552" d="M88 608l41 237h1407l-41 -237h-1407z" />
<glyph horiz-adv-x="745" d="M152 409q0 377 143.5 704.5t360.5 565.5h286q-131 -131 -252.5 -325.5t-201.5 -442.5t-80 -516q0 -342 135 -621h-254q-137 309 -137 635z" />
<glyph horiz-adv-x="747" d="M-121 -226q131 131 252 326t201 442.5t80 515.5q0 340 -133 621h254q135 -303 135 -635q0 -375 -142.5 -703.5t-359.5 -566.5h-287z" />
<glyph horiz-adv-x="739" d="M33 -226l336 1905h510l-41 -235h-254l-252 -1434h254l-43 -236h-510z" />
<glyph horiz-adv-x="737" d="M-63 -226l41 236h252l252 1434h-252l41 235h507l-335 -1905h-506z" />
<glyph horiz-adv-x="749" d="M107 594l47 266q76 0 113.5 29.5t50.5 93.5l73 415q25 133 111 207t213 74h174l-41 -233h-100q-92 0 -111 -95l-74 -422q-16 -90 -78.5 -136t-140.5 -52l-8 -41q70 -12 112 -56t42 -116q0 -12 -4 -45l-64 -362q-4 -25 -4 -33q0 -80 90 -80h86l-41 -234h-131 q-127 0 -196.5 68t-69.5 186q0 35 6 76l61 350q2 10 3 33q0 49 -31 77t-88 30z" />
<glyph horiz-adv-x="749" d="M-65 -226l41 234h100q92 0 109 94l73 422q16 90 80 136t141 52l9 41q-70 12 -112 56.5t-42 115.5q0 12 4 45l64 363q4 25 4 33q0 80 -90 80h-86l41 233h131q125 0 194.5 -67.5t69.5 -186.5q0 -35 -6 -76l-62 -350q-2 -10 -2 -31q0 -51 32 -78.5t89 -29.5l-47 -266 q-76 0 -114 -30t-50 -93l-74 -416q-25 -133 -110.5 -207t-212.5 -74h-174z" />
<glyph horiz-adv-x="1935" d="M140 639q0 260 127 473t345 335.5t480 122.5q246 0 431 -93t285.5 -249.5t100.5 -343.5q0 -178 -60.5 -309t-164 -199.5t-225.5 -68.5q-94 0 -157 36t-85 83h-10q-39 -45 -117 -82t-168 -37q-104 0 -186 47t-129 129t-47 182q0 139 60 251t164.5 174.5t227.5 62.5 q84 0 150.5 -32t91.5 -71h10l39 90h174l-88 -499q-2 -12 -2 -33q0 -45 24.5 -67.5t69.5 -22.5q53 0 99.5 39t76 115.5t29.5 185.5q0 133 -74 246.5t-213 183t-325 69.5q-199 0 -361 -91t-255 -251.5t-93 -359.5q0 -150 69.5 -267.5t197.5 -184t298 -66.5h391l-36 -213h-379 q-221 0 -395.5 90t-272.5 253t-98 372zM781 692q0 -82 51 -131t139 -49q96 0 164 71.5t68 184.5q0 82 -51.5 131t-139.5 49q-96 0 -163.5 -70.5t-67.5 -185.5z" />
<glyph horiz-adv-x="1187" d="M70 446q0 162 71.5 294t187 213t249.5 100l34 211h244l-41 -228q129 -35 210 -135t95 -244h-258q-14 76 -71.5 120t-147.5 44q-82 0 -154.5 -46t-117.5 -127t-45 -181q0 -113 68.5 -182.5t172.5 -69.5q90 0 154.5 46t101.5 126h262q-55 -166 -177 -273.5t-277 -127.5 l-37 -211h-242l39 227q-145 43 -233 162t-88 282z" />
<glyph horiz-adv-x="1187" d="M27 453h270q-2 -98 77 -165t224 -67q123 0 188.5 55.5t65.5 141.5q0 59 -49 98t-152 70l-170 45q-147 41 -232 131t-85 221q0 117 53 219.5t156.5 170t251.5 79.5l37 207h243l-39 -223q174 -39 264.5 -157t79.5 -300h-274q4 111 -65.5 172t-200.5 61q-111 0 -173.5 -55 t-62.5 -145q0 -104 164 -152l158 -43q176 -49 271 -132t95 -228q0 -209 -132 -335t-380 -140l-37 -207h-243l39 225q-168 43 -259.5 162t-82.5 291z" />
<glyph horiz-adv-x="1187" d="M-20 473l28 172h133q4 80 15 143h-123l30 173h140q86 225 274.5 359t427.5 134q246 0 418 -123l-45 -244q-70 55 -156 92.5t-211 37.5q-120 0 -234 -66t-181 -190h510l-31 -173h-543q-12 -57 -16 -143h534l-30 -172h-482q39 -123 138.5 -189.5t234.5 -66.5q168 0 311 70 l-45 -246q-55 -27 -135 -44t-174 -17q-254 0 -413.5 135t-200.5 358h-174z" />
<glyph horiz-adv-x="1187" d="M-23 0l46 256h36q98 0 117 100l41 232h-137l37 211h137l47 256q33 186 156 292.5t305 106.5q197 0 304.5 -101.5t107.5 -277.5q0 -39 -3 -59h-266q8 84 -34 133t-121 49q-72 0 -121 -48t-64 -132l-41 -219h359l-37 -211h-357l-43 -230q-6 -39 -28.5 -65.5t-48.5 -36.5 h698l-43 -256h-1047z" />
<glyph horiz-adv-x="1187" d="M76 248l35 194h333l27 142h-336l35 196h195l-228 654h287l203 -613h20l418 613h307l-457 -654h195l-35 -196h-334l-26 -142h334l-35 -194h-332l-45 -248h-270l43 248h-334z" />
<glyph horiz-adv-x="595" d="M80 129q0 68 49 118t117 50q61 0 101 -39t40 -100q0 -68 -49 -118t-117 -50q-61 0 -101 39t-40 100zM180 393l29 377l78 438h270l-78 -438l-104 -377h-195z" />
<glyph horiz-adv-x="598" d="M72 0l78 438l102 377h194l-26 -377l-76 -438h-272zM242 1051q0 68 49 118t117 50q61 0 101 -39t40 -101q0 -68 -49 -118t-117 -50q-61 0 -101 39t-40 101z" />
<glyph horiz-adv-x="950" d="M102 856q12 104 69.5 189t155 134.5t226.5 49.5q127 0 219 -43t140.5 -115t48.5 -153q0 -223 -250 -322q-72 -29 -101.5 -63.5t-38.5 -88.5l-8 -51h-258l12 76q18 109 67.5 164t160.5 102q72 29 107.5 59.5t35.5 86.5q0 47 -42 76.5t-111 29.5q-72 0 -119 -38t-54 -93 h-260zM233 129q0 68 49.5 118t116.5 50q61 0 101.5 -39t40.5 -100q0 -68 -49.5 -118t-116.5 -50q-62 0 -102 39t-40 100z" />
<glyph horiz-adv-x="950" d="M18 291q0 223 250 321q74 29 103.5 64t38.5 88l8 51h256l-12 -76q-18 -109 -67.5 -164t-160.5 -102q-72 -29 -107.5 -59.5t-35.5 -85.5q0 -47 42 -77t111 -30q72 0 119 38t53 93h263q-20 -162 -140.5 -267t-312.5 -105q-125 0 -217 43t-141.5 114.5t-49.5 153.5z M436 1051q0 68 49.5 118t116.5 50q61 0 101 -39t40 -101q0 -68 -49 -118t-116 -50q-62 0 -102 39t-40 101z" />
<glyph horiz-adv-x="1288" d="M-27 268l88 226h218l86 221h-220l88 225h222l106 268h240l-107 -268h197l104 268h240l-105 -268h218l-88 -225h-220l-86 -221h222l-89 -226h-221l-106 -268h-240l107 268h-195l-108 -268h-238l104 268h-217zM518 494h197l86 221h-195z" />
<glyph horiz-adv-x="1171" d="M35 270q0 109 53 185.5t150 140.5l73 49l-49 74q-55 84 -55 166q0 92 47 171t133 126t201 47q102 0 181 -37t121 -100.5t42 -143.5q0 -96 -49 -158.5t-150 -130.5l-96 -65l164 -203q27 31 51.5 83t34.5 110h229q-14 -109 -68.5 -205t-117.5 -150l184 -229h-291l-69 90 q-51 -39 -140.5 -73.5t-191.5 -34.5q-121 0 -209 39.5t-133 105.5t-45 143zM287 313q0 -51 41 -81.5t121 -30.5q51 0 99 18.5t75 40.5l-185 227l-39 -20q-53 -29 -82.5 -64.5t-29.5 -89.5zM451 899q0 -47 36 -92l39 -47l58 37q47 29 72.5 56.5t25.5 70.5q0 39 -28.5 64.5 t-75.5 25.5q-56 0 -91.5 -34t-35.5 -81z" />
<glyph horiz-adv-x="1165" d="M39 78h270q-2 -70 52.5 -108t150.5 -38q80 0 121 32t41 81q0 78 -135 115l-162 47q-137 39 -205 105.5t-68 168.5q0 90 47.5 163t108.5 108q-18 20 -30.5 58t-12.5 81q0 90 50 168t148.5 124t237.5 46q207 0 326 -98.5t115 -272.5h-271q2 72 -49 107.5t-129 35.5 q-80 0 -121 -31.5t-41 -78.5q0 -37 33 -61.5t107 -45.5l153 -41q137 -39 204 -104.5t67 -165.5q0 -94 -46.5 -167t-107.5 -113q20 -23 33.5 -62t13.5 -88q0 -94 -49 -171t-148.5 -122t-240.5 -45q-221 0 -344 98.5t-119 274.5zM362 502q0 -78 115 -107l135 -35 q51 -12 105 -32q28 16 49.5 49t21.5 74q0 78 -116 108l-133 35q-70 14 -105 33q-29 -18 -50.5 -50t-21.5 -75z" />
<glyph horiz-adv-x="1044" d="M53 383q0 141 59.5 254t158 183.5t212.5 88.5l35 187h240l-35 -197q129 -45 193.5 -139t72.5 -207h-260q-8 53 -54 92t-126 39q-59 0 -113.5 -36t-87.5 -100.5t-33 -146.5q0 -84 51.5 -135t135.5 -51q66 0 117 37t73 90h260q-18 -70 -70.5 -145.5t-134 -134t-184.5 -72.5 l-33 -185h-239l35 195q-123 37 -198 139.5t-75 243.5z" />
<glyph horiz-adv-x="1157" d="M49 393h275q0 -86 63.5 -129t169.5 -43q102 0 156.5 42t54.5 99q0 86 -147 117l-140 31q-317 68 -317 305q0 164 109.5 278.5t304.5 133.5l30 176h242l-35 -195q150 -37 226.5 -138t70.5 -255h-272q4 78 -51.5 125t-163.5 47q-94 0 -141.5 -39t-47.5 -96q0 -86 150 -117 l125 -24q170 -35 249.5 -118t79.5 -196q0 -111 -53 -202t-153.5 -147t-235.5 -66l-29 -172h-241l34 190q-152 37 -235.5 138.5t-77.5 254.5z" />
<glyph horiz-adv-x="1267" d="M20 383l31 170h150q4 70 10 102h-141l28 170h160q78 188 246 296t385 108q236 0 399 -105l-39 -227q-59 37 -148 65.5t-206 28.5q-111 0 -199 -43t-143 -123h461l-29 -170h-502q-10 -49 -12 -102h496l-31 -170h-430q43 -80 130 -123t204 -43q184 0 299 57l-41 -231 q-43 -25 -128 -44t-192 -19q-225 0 -371.5 112.5t-189.5 290.5h-197z" />
<glyph horiz-adv-x="1105" d="M-37 0l43 254h66q33 0 58.5 21.5t31.5 56.5l28 153h-141l35 203h141l33 182q29 162 150.5 260.5t287.5 98.5q123 0 216.5 -48t140.5 -136.5t37 -206.5h-267q2 70 -33.5 105.5t-103.5 35.5q-61 0 -105 -36t-55 -95l-28 -160h327l-34 -203h-330l-25 -145 q-6 -33 -23.5 -55.5t-37.5 -30.5h633l-43 -254h-1002z" />
<glyph horiz-adv-x="1124" d="M82 188l33 191h284l19 102h-285l33 193h147l-194 534h274l170 -499h37l350 499h299l-389 -534h148l-33 -193h-287l-18 -102h286l-34 -191h-285l-33 -188h-272l35 188h-285z" />
<glyph horiz-adv-x="1495" d="M137 907q0 88 46 162t121 117t157 43q113 0 187.5 -76t74.5 -184q0 -86 -46 -160t-120 -117t-156 -43q-114 0 -189 75t-75 183zM143 0l973 1208h264l-972 -1208h-265zM330 924q0 -41 24.5 -68t63.5 -27q47 0 80.5 36t33.5 89q0 41 -25.5 68t-64.5 27q-47 0 -79.5 -37 t-32.5 -88zM801 240q0 86 46 159.5t119.5 116.5t155.5 43q115 0 189.5 -74.5t74.5 -183.5q0 -88 -46 -161.5t-120.5 -116.5t-156.5 -43q-113 0 -187.5 75.5t-74.5 184.5zM991 254q0 -41 25.5 -67.5t64.5 -26.5q47 0 80 36.5t33 88.5q0 41 -24.5 67.5t-63.5 26.5 q-47 0 -81 -36t-34 -89z" />
</font>
</defs>
</svg>
