<svg xmlns="http://www.w3.org/2000/svg" width="112" height="112" viewBox="0 0 112 112">
  <g id="emp-check_copy_2" data-name="emp-check copy 2" transform="translate(-92 -26)">
    <g id="Union" transform="translate(91.125 26)">
      <path id="Shape" d="M2.9,32A2.528,2.528,0,0,1,.375,29.475V13.225a2.525,2.525,0,0,1,5.05,0v16.25A2.528,2.528,0,0,1,2.9,32ZM2.8,6a3,3,0,1,1,3-3A3,3,0,0,1,2.8,6Z" transform="translate(54.975 40.4)" fill="#00a9e0"/>
      <path id="Oval" d="M56,112a55.739,55.739,0,0,1-31.31-9.564A56.162,56.162,0,0,1,4.4,77.8,55.926,55.926,0,0,1,9.564,24.69,56.164,56.164,0,0,1,34.2,4.4,55.926,55.926,0,0,1,87.31,9.564,56.163,56.163,0,0,1,107.6,34.2a55.927,55.927,0,0,1-5.163,53.108A56.161,56.161,0,0,1,77.8,107.6,55.651,55.651,0,0,1,56,112ZM56,3A53.014,53.014,0,0,0,35.37,104.835,53.014,53.014,0,0,0,76.63,7.165,52.668,52.668,0,0,0,56,3Z" transform="translate(0.875)" fill="#00a9e0"/>
    </g>
  </g>
</svg>
