<?xml version="1.0" encoding="utf-8"?>
<!-- Generator: Adobe Illustrator 22.0.1, SVG Export Plug-In . SVG Version: 6.00 Build 0)  -->
<svg version="1.1" id="Layer_1" xmlns="http://www.w3.org/2000/svg" xmlns:xlink="http://www.w3.org/1999/xlink" x="0px" y="0px"
	 viewBox="0 0 32 33" style="enable-background:new 0 0 32 33;" xml:space="preserve">
<style type="text/css">
	.st0{enable-background:new    ;}
	.st1{fill:#00A9E0;}
</style>
<g class="st0">
	<path class="st1" d="M7,10.3l1.9,1.9C8.3,13.5,8,14.8,8,16c0,2.2,0.8,4.1,2.3,5.7S13.8,24,16,24v-4l5.3,5.3L16,30.7v-4
		c-2.9,0-5.4-1.1-7.5-3.2c-2.1-2.1-3.2-4.6-3.2-7.5C5.3,13.9,5.9,12,7,10.3z M16,8v4l-5.3-5.3L16,1.3v4c2.9,0,5.4,1.1,7.5,3.2
		c2.1,2.1,3.2,4.6,3.2,7.5c0,2.1-0.6,4-1.7,5.7l-1.9-1.9c0.6-1.1,0.9-2.4,0.9-3.8c0-2.2-0.8-4.1-2.3-5.7S18.2,8,16,8z"/>
</g>
</svg>
